<?xml version="1.0" encoding="UTF-8" standalone="no"?>
<!-- Created with Inkscape (http://www.inkscape.org/) -->
<svg xmlns:dc="http://purl.org/dc/elements/1.1/" xmlns:cc="http://creativecommons.org/ns#" xmlns:rdf="http://www.w3.org/1999/02/22-rdf-syntax-ns#" xmlns:svg="http://www.w3.org/2000/svg" xmlns="http://www.w3.org/2000/svg" xmlns:sodipodi="http://sodipodi.sourceforge.net/DTD/sodipodi-0.dtd" xmlns:inkscape="http://www.inkscape.org/namespaces/inkscape" version="1.1" id="svg4020" xml:space="preserve" width="659.02332" height="185.34335" viewBox="0 0 659.02332 185.34335" sodipodi:docname="regex-update-opt.svg" inkscape:version="0.92.0 r15299">
  <defs id="defs4024"/>
  <g id="g4028" inkscape:groupmode="layer" inkscape:label="regex-update-opt" transform="matrix(1.3333333,0,0,-1.3333333,-67.337652,653.665)">
    <path d="m 50.76,351.36 h 493.92 v 138.6 H 50.76 Z" style="fill:#ffffff;fill-opacity:1;fill-rule:evenodd;stroke:none" id="path4030" inkscape:connector-curvature="0"/>
    <path d="M 129.84,367.32 H 497.4 v 81.96 H 129.84 Z" style="fill:#ffffff;fill-opacity:1;fill-rule:evenodd;stroke:none" id="path4032" inkscape:connector-curvature="0"/>
    <path d="m 129.84,375.36 h 67.8 v -4.56 h -67.8 z m 0,20.52 h 171.72 v -4.56 H 129.84 Z m 0,20.4 h 70.08 v -4.56 h -70.08 z m 0,20.52 h 77.52 v -4.56 h -77.52 z" style="fill:#558ed5;fill-opacity:1;fill-rule:nonzero;stroke:none" id="path4034" inkscape:connector-curvature="0"/>
    <path d="m 129.84,379.92 h 78.48 v -4.56 h -78.48 z m 0,20.52 h 219.84 v -4.56 H 129.84 Z m 0,20.4 h 78.24 v -4.56 h -78.24 z m 0,20.52 h 219.6 v -4.56 h -219.6 z" style="fill:#b9cde5;fill-opacity:1;fill-rule:nonzero;stroke:none" id="path4036" inkscape:connector-curvature="0"/>
    <path d="m 129.84,384.48 h 367.44 v -4.56 H 129.84 Z m 0,20.52 h 367.44 v -4.56 H 129.84 Z m 0,20.4 h 367.44 v -4.56 H 129.84 Z m 0,20.52 h 367.44 v -4.56 H 129.84 Z" style="fill:#d7e4bd;fill-opacity:1;fill-rule:nonzero;stroke:none" id="path4038" inkscape:connector-curvature="0"/>
    <path d="M 129.9,367.38 H 497.34" style="fill:none;stroke:#868686;stroke-width:0.36000001;stroke-linecap:butt;stroke-linejoin:round;stroke-miterlimit:10;stroke-dasharray:none;stroke-opacity:1" id="path4040" inkscape:connector-curvature="0"/>
    <path d="m 129.9,367.38 v 81.96" style="fill:none;stroke:#868686;stroke-width:0.36000001;stroke-linecap:butt;stroke-linejoin:round;stroke-miterlimit:10;stroke-dasharray:none;stroke-opacity:1" id="path4042" inkscape:connector-curvature="0"/>
    <g id="g4044">
      <g id="g4046" clip-path="url(#clipPath4050)"><text transform="matrix(1,0,0,-1,126.05,357.29)" style="font-variant:normal;font-weight:normal;font-size:6.33599997px;font-family:Times New Roman,serif;-inkscape-font-specification:Times New Roman,serif;writing-mode:lr-tb;fill:#000000;fill-opacity:1;fill-rule:nonzero;stroke:none" id="text4054"><tspan x="0 3.216002" y="0" sodipodi:role="line" id="tspan4052">0%</tspan></text>
</g>
    </g>
    <g id="g4056">
      <g id="g4058" clip-path="url(#clipPath4062)"/>
    </g>
    <g id="g4064">
      <g id="g4066" clip-path="url(#clipPath4070)"><text transform="matrix(1,0,0,-1,197.95,357.29)" style="font-variant:normal;font-weight:normal;font-size:6.33599997px;font-family:Times New Roman,serif;-inkscape-font-specification:Times New Roman,serif;writing-mode:lr-tb;fill:#000000;fill-opacity:1;fill-rule:nonzero;stroke:none" id="text4074"><tspan x="0 3.216002 6.432004" y="0" sodipodi:role="line" id="tspan4072">20%</tspan></text>
</g>
    </g>
    <g id="g4076">
      <g id="g4078" clip-path="url(#clipPath4082)"/>
    </g>
    <g id="g4084">
      <g id="g4086" clip-path="url(#clipPath4090)"><text transform="matrix(1,0,0,-1,271.46,357.29)" style="font-variant:normal;font-weight:normal;font-size:6.33599997px;font-family:Times New Roman,serif;-inkscape-font-specification:Times New Roman,serif;writing-mode:lr-tb;fill:#000000;fill-opacity:1;fill-rule:nonzero;stroke:none" id="text4094"><tspan x="0 3.191952 6.383904" y="0" sodipodi:role="line" id="tspan4092">40%</tspan></text>
</g>
    </g>
    <g id="g4096">
      <g id="g4098" clip-path="url(#clipPath4102)"/>
    </g>
    <g id="g4104">
      <g id="g4106" clip-path="url(#clipPath4110)"><text transform="matrix(1,0,0,-1,344.95,357.29)" style="font-variant:normal;font-weight:normal;font-size:6.33599997px;font-family:Times New Roman,serif;-inkscape-font-specification:Times New Roman,serif;writing-mode:lr-tb;fill:#000000;fill-opacity:1;fill-rule:nonzero;stroke:none" id="text4114"><tspan x="0 3.216002 6.432004" y="0" sodipodi:role="line" id="tspan4112">60%</tspan></text>
</g>
    </g>
    <g id="g4116">
      <g id="g4118" clip-path="url(#clipPath4122)"/>
    </g>
    <g id="g4124">
      <g id="g4126" clip-path="url(#clipPath4130)"><text transform="matrix(1,0,0,-1,418.46,357.29)" style="font-variant:normal;font-weight:normal;font-size:6.33599997px;font-family:Times New Roman,serif;-inkscape-font-specification:Times New Roman,serif;writing-mode:lr-tb;fill:#000000;fill-opacity:1;fill-rule:nonzero;stroke:none" id="text4134"><tspan x="0 3.216002 6.432004" y="0" sodipodi:role="line" id="tspan4132">80%</tspan></text>
</g>
    </g>
    <g id="g4136">
      <g id="g4138" clip-path="url(#clipPath4142)"/>
    </g>
    <g id="g4144">
      <g id="g4146" clip-path="url(#clipPath4150)"><text transform="matrix(1,0,0,-1,490.37,357.29)" style="font-variant:normal;font-weight:normal;font-size:6.33599997px;font-family:Times New Roman,serif;-inkscape-font-specification:Times New Roman,serif;writing-mode:lr-tb;fill:#000000;fill-opacity:1;fill-rule:nonzero;stroke:none" id="text4154"><tspan x="0 3.191952 6.383904 9.5758562" y="0" sodipodi:role="line" id="tspan4152">100%</tspan></text>
</g>
    </g>
    <g id="g4156">
      <g id="g4158" clip-path="url(#clipPath4162)"/>
    </g>
    <g id="g4164">
      <g id="g4166" clip-path="url(#clipPath4170)"><text transform="matrix(1,0,0,-1,55.08,375.79)" style="font-variant:normal;font-weight:normal;font-size:6.33599997px;font-family:Times New Roman,serif;-inkscape-font-specification:Times New Roman,serif;writing-mode:lr-tb;fill:#000000;fill-opacity:1;fill-rule:nonzero;stroke:none" id="text4174"><tspan x="0 3.3770881 6.7034879 9.7827845 13.134528 16.118784 19.274113 20.668032 24.019775 25.952255 29.006208 30.704256 32.364288 36.894527 39.105793 40.563072 42.723648 45.878975 49.008961 51.841152 54.907776 57.131714 58.588993 61.801346 65.013695 66.933502" y="0" sodipodi:role="line" id="tspan4172">Change dfa::write_vari32()</tspan></text>
</g>
    </g>
    <g id="g4176">
      <g id="g4178" clip-path="url(#clipPath4182)"/>
    </g>
    <g id="g4184">
      <g id="g4186" clip-path="url(#clipPath4190)"><text transform="matrix(1,0,0,-1,57.984,396.26)" style="font-variant:normal;font-weight:normal;font-size:6.33599997px;font-family:Times New Roman,serif;-inkscape-font-specification:Times New Roman,serif;writing-mode:lr-tb;fill:#000000;fill-opacity:1;fill-rule:nonzero;stroke:none" id="text4194"><tspan x="0 3.3770881 6.7605119 9.827136 13.204224 16.18848 19.343807 20.737728 23.893057 26.636543 30.019968 33.086594 36.46368 39.840767 41.538815 43.198849 46.354176 49.097664 52.481087 55.54771 58.924801 62.301888 64.221695" y="0" sodipodi:role="line" id="tspan4192">Change expand::expand()</tspan></text>
</g>
    </g>
    <g id="g4196">
      <g id="g4198" clip-path="url(#clipPath4202)"/>
    </g>
    <g id="g4204">
      <g id="g4206" clip-path="url(#clipPath4210)"><text transform="matrix(1,0,0,-1,68.184,416.74)" style="font-variant:normal;font-weight:normal;font-size:6.33599997px;font-family:Times New Roman,serif;-inkscape-font-specification:Times New Roman,serif;writing-mode:lr-tb;fill:#000000;fill-opacity:1;fill-rule:nonzero;stroke:none" id="text4214"><tspan x="0 3.3770881 6.7034879 9.7637758 13.11552 16.099775 19.236095 20.604671 23.740992 25.952255 28.163521 31.502592 33.713856 35.411903 37.084606 39.764736 42.812351 46.164097 48.609791 51.765121 53.684929" y="0" sodipodi:role="line" id="tspan4212">Change Error::cause()</tspan></text>
</g>
    </g>
    <g id="g4216">
      <g id="g4218" clip-path="url(#clipPath4222)"/>
    </g>
    <g id="g4224">
      <g id="g4226" clip-path="url(#clipPath4230)"><text transform="matrix(1,0,0,-1,61.56,437.21)" style="font-variant:normal;font-weight:normal;font-size:6.33599997px;font-family:Times New Roman,serif;-inkscape-font-specification:Times New Roman,serif;writing-mode:lr-tb;fill:#000000;fill-opacity:1;fill-rule:nonzero;stroke:none" id="text4234"><tspan x="0 3.3770881 6.7034879 9.7637758 13.11552 16.099775 19.210752 20.579329 23.956415 27.295488 32.357952 35.684353 37.141632 38.579903 41.697216 43.908482 45.587521 47.285568 50.611969 53.748287 58.234177 60.128639" y="0" sodipodi:role="line" id="tspan4232">Change Compiler::new()</tspan></text>
</g>
    </g>
    <g id="g4236">
      <g id="g4238" clip-path="url(#clipPath4242)"/>
    </g>
    <g id="g4244">
      <g id="g4246" clip-path="url(#clipPath4250)"><text transform="matrix(1,0,0,-1,202.7,474.26)" style="font-variant:normal;font-weight:bold;font-size:11.47200012px;font-family:Times New Roman,serif;-inkscape-font-specification:'Times New Roman,serif Bold';writing-mode:lr-tb;fill:#000000;fill-opacity:1;fill-rule:nonzero;stroke:none" id="text4254"><tspan x="0 6.0686879 12.240624 21.56736 27.727823 30.549936 33.394993 39.188351 41.631889 45.612671 48.434784 57.76152 63.554878 66.07872 70.805183 76.977119 86.303856 92.487267 98.154434 102.04344 107.8368 113.99726 116.54404 120.43306 126.605 129.1403 133.02931 138.82268 144.26041 150.42087 153.24298 158.91014 162.9827 165.57538 171.75879 177.91925 180.77577 183.59789 189.79277" y="0" sodipodi:role="line" id="tspan4252">Compile time compared to regular build </tspan></text>
</g>
    </g>
    <g id="g4256">
      <g id="g4258" clip-path="url(#clipPath4262)"/>
    </g>
    <g id="g4264">
      <g id="g4266" clip-path="url(#clipPath4270)"><text transform="matrix(1,0,0,-1,183.96,460.27)" style="font-variant:normal;font-weight:bold;font-size:11.44799995px;font-family:Times New Roman,serif;-inkscape-font-specification:'Times New Roman,serif Bold';writing-mode:lr-tb;fill:#000000;fill-opacity:1;fill-rule:nonzero;stroke:none" id="text4274"><tspan x="0 8.5516558 14.733576 20.526264 26.708183 29.089369 32.981689 38.774376 44.956295 51.138214 53.954426 56.770634 62.986897 65.803101 71.996475 77.422821 79.872696 86.13475 91.927437 97.204971 102.87173 108.12636 110.66782 116.23154 119.84911 123.64985 129.44254 133.50658 136.15106 140.95923 147.14114 152.79646 158.98982 164.26735 170.06004 172.50992 176.0817 182.2865 188.43408 192.40654 195.22275 204.52997 207.34618 211.70787 217.50055 223.68246" y="0" sodipodi:role="line" id="tspan4272">when rebuilding Regex after change (optimized)</tspan></text>
</g>
    </g>
    <g id="g4276">
      <g id="g4278" clip-path="url(#clipPath4282)"/>
    </g>
    <path d="m 514.68,413.52 h 3.6 v 3.6 h -3.6 z" style="fill:#d7e4bd;fill-opacity:1;fill-rule:evenodd;stroke:none" id="path4284" inkscape:connector-curvature="0"/>
    <g id="g4286">
      <g id="g4288" clip-path="url(#clipPath4292)"><text transform="matrix(1,0,0,-1,519.74,413.54)" style="font-variant:normal;font-weight:normal;font-size:6.33599997px;font-family:Times New Roman,serif;-inkscape-font-specification:Times New Roman,serif;writing-mode:lr-tb;fill:#000000;fill-opacity:1;fill-rule:nonzero;stroke:none" id="text4296"><tspan x="0 2.2112639 5.3285761 8.3128319 11.65824 13.11552 16.150463" y="0" sodipodi:role="line" id="tspan4294">regular</tspan></text>
</g>
    </g>
    <g id="g4298">
      <g id="g4300" clip-path="url(#clipPath4304)"/>
    </g>
    <path d="m 514.68,402 h 3.6 v 3.6 h -3.6 z" style="fill:#b9cde5;fill-opacity:1;fill-rule:evenodd;stroke:none" id="path4306" inkscape:connector-curvature="0"/>
    <g id="g4308">
      <g id="g4310" clip-path="url(#clipPath4314)"><text transform="matrix(1,0,0,-1,519.74,402.02)" style="font-variant:normal;font-weight:normal;font-size:6.33599997px;font-family:Times New Roman,serif;-inkscape-font-specification:Times New Roman,serif;writing-mode:lr-tb;fill:#000000;fill-opacity:1;fill-rule:nonzero;stroke:none" id="text4318"><tspan x="0 3.0349441 4.4922242 7.8439679 11.195712" y="0" sodipodi:role="line" id="tspan4316">alpha</tspan></text>
</g>
    </g>
    <g id="g4320">
      <g id="g4322" clip-path="url(#clipPath4326)"/>
    </g>
    <path d="m 514.68,390.48 h 3.6 v 3.6 h -3.6 z" style="fill:#558ed5;fill-opacity:1;fill-rule:evenodd;stroke:none" id="path4328" inkscape:connector-curvature="0"/>
    <g id="g4330">
      <g id="g4332" clip-path="url(#clipPath4336)"><text transform="matrix(1,0,0,-1,519.74,390.5)" style="font-variant:normal;font-weight:normal;font-size:6.36000013px;font-family:Times New Roman,serif;-inkscape-font-specification:Times New Roman,serif;writing-mode:lr-tb;fill:#000000;fill-opacity:1;fill-rule:nonzero;stroke:none" id="text4340"><tspan x="0 3.3517201 6.4744802 8.6050797" y="0" sodipodi:role="line" id="tspan4338">beta</tspan></text>
</g>
    </g>
    <g id="g4342">
      <g id="g4344" clip-path="url(#clipPath4348)"/>
    </g>
    <path d="m 50.742,351.48 h 493.79 V 490.01 H 50.742 Z" style="fill:none;stroke:#868686;stroke-width:0.47751999;stroke-linecap:butt;stroke-linejoin:round;stroke-miterlimit:10;stroke-dasharray:none;stroke-opacity:1" id="path4350" inkscape:connector-curvature="0"/>
  </g>
</svg>