<svg version="1.1" viewBox="0.0 0.0 600.0 371.0" fill="none" stroke="none" stroke-linecap="square" stroke-miterlimit="10" width="600" height="371" xmlns:xlink="http://www.w3.org/1999/xlink" xmlns="http://www.w3.org/2000/svg"><path fill="#ffffff" d="M0 0L600.0 0L600.0 371.0L0 371.0L0 0Z" fill-rule="nonzero"/><path fill="#3c78d8" d="M300.0 54.916668C370.18777 54.916668 430.82718 103.97327 445.48596 172.61322L300.0 203.68333Z" fill-rule="nonzero"/><path fill="#ff9900" d="M445.48596 172.61322C457.25015 227.69902 436.89368 284.70483 392.8981 319.87915L300.0 203.68333Z" fill-rule="nonzero"/><path fill="#f5d470" d="M277.7871 56.58436C285.1393 55.474125 292.56442 54.916668 300.0 54.916668L300.0 203.68333Z" fill-rule="nonzero"/><path fill="#cdcdcd" d="M256.0722 61.550045C263.17624 59.354473 270.43488 57.69459 277.7871 56.58436L300.0 203.68333Z" fill-rule="nonzero"/><path fill="#ffb84d" d="M223.27744 76.2268C233.57594 70.0276 244.58783 65.09942 256.0722 61.550045L300.0 203.68333Z" fill-rule="nonzero"/><path fill="#77a1e4" d="M181.4338 113.83024C192.86316 98.74857 207.06491 85.98593 223.27744 76.2268L300.0 203.68333Z" fill-rule="nonzero"/><path fill="#4cdc8b" d="M153.2364 179.35297C157.18268 155.54851 166.86 133.0612 181.4338 113.83024L300.0 203.68333Z" fill-rule="nonzero"/><path fill="#6fa8dc" d="M168.13597 272.55566C153.18431 243.929 147.95447 211.21423 153.2364 179.35297L300.0 203.68333Z" fill-rule="nonzero"/><path fill="#f1c232" d="M243.96196 341.4921C211.32 328.21872 184.44936 303.78952 168.13597 272.55566L300.0 203.68333Z" fill-rule="nonzero"/><path fill="#b7b7b7" d="M392.8981 319.87915C350.82648 353.51523 293.8591 361.7821 243.96196 341.4921L300.0 203.68333Z" fill-rule="nonzero"/><path fill="#1a1a1a" d="M19.471874 65.916664L19.471874 57.322914L22.721874 57.322914Q23.565624 57.322914 24.01875 57.40104Q24.659374 57.510414 25.08125 57.80729Q25.51875 58.104164 25.76875 58.635414Q26.034374 59.166664 26.034374 59.80729Q26.034374 60.90104 25.33125 61.666664Q24.64375 62.416664 22.815624 62.416664L20.6125 62.416664L20.6125 65.916664L19.471874 65.916664ZM20.6125 61.416664L22.83125 61.416664Q23.940624 61.416664 24.39375 61.010414Q24.8625 60.58854 24.8625 59.83854Q24.8625 59.30729 24.58125 58.93229Q24.315624 58.541664 23.878124 58.416664Q23.58125 58.33854 22.815624 58.33854L20.6125 58.33854L20.6125 61.416664ZM27.51875 65.916664L27.51875 57.322914L28.64375 57.322914L28.64375 60.854164L33.1125 60.854164L33.1125 57.322914L34.253124 57.322914L34.253124 65.916664L33.1125 65.916664L33.1125 61.86979L28.64375 61.86979L28.64375 65.916664L27.51875 65.916664ZM36.471874 65.916664L36.471874 57.322914L39.721874 57.322914Q40.565624 57.322914 41.01875 57.40104Q41.659374 57.510414 42.08125 57.80729Q42.51875 58.104164 42.76875 58.635414Q43.034374 59.166664 43.034374 59.80729Q43.034374 60.90104 42.33125 61.666664Q41.64375 62.416664 39.815624 62.416664L37.6125 62.416664L37.6125 65.916664L36.471874 65.916664ZM37.6125 61.416664L39.83125 61.416664Q40.940624 61.416664 41.39375 61.010414Q41.8625 60.58854 41.8625 59.83854Q41.8625 59.30729 41.58125 58.93229Q41.315624 58.541664 40.878124 58.416664Q40.58125 58.33854 39.815624 58.33854L37.6125 58.33854L37.6125 61.416664Z" fill-rule="nonzero"/><path fill="#9e9e9e" d="M24.596874 81.90104L24.596874 82.916664L18.909374 82.916664Q18.909374 82.541664 19.034374 82.18229Q19.253124 81.604164 19.721874 81.041664Q20.20625 80.479164 21.1125 79.74479Q22.51875 78.58854 23.003124 77.916664Q23.503124 77.24479 23.503124 76.65104Q23.503124 76.02604 23.05 75.604164Q22.596874 75.166664 21.878124 75.166664Q21.1125 75.166664 20.659374 75.61979Q20.20625 76.072914 20.190624 76.885414L19.1125 76.77604Q19.221874 75.55729 19.940624 74.93229Q20.675 74.291664 21.909374 74.291664Q23.14375 74.291664 23.8625 74.979164Q24.58125 75.666664 24.58125 76.68229Q24.58125 77.197914 24.3625 77.697914Q24.159374 78.18229 23.659374 78.74479Q23.175 79.291664 22.05 80.24479Q21.096874 81.041664 20.815624 81.33854Q20.55 81.61979 20.378124 81.90104L24.596874 81.90104ZM26.64375 82.916664L26.64375 81.71354L27.846874 81.71354L27.846874 82.916664L26.64375 82.916664ZM32.425 82.916664L32.425 80.854164L28.70625 80.854164L28.70625 79.885414L32.628124 74.322914L33.4875 74.322914L33.4875 79.885414L34.64375 79.885414L34.64375 80.854164L33.4875 80.854164L33.4875 82.916664L32.425 82.916664ZM32.425 79.885414L32.425 76.02604L29.7375 79.885414L32.425 79.885414ZM36.253124 76.385414Q36.253124 75.46354 36.70625 74.822914Q37.175 74.18229 38.05 74.18229Q38.8625 74.18229 39.39375 74.760414Q39.925 75.33854 39.925 76.447914Q39.925 77.541664 39.378124 78.135414Q38.846874 78.71354 38.065624 78.71354Q37.284374 78.71354 36.76875 78.135414Q36.253124 77.55729 36.253124 76.385414ZM38.08125 74.90104Q37.690624 74.90104 37.425 75.24479Q37.175 75.58854 37.175 76.49479Q37.175 77.322914 37.425 77.666664Q37.690624 77.99479 38.08125 77.99479Q38.4875 77.99479 38.7375 77.65104Q39.003124 77.30729 39.003124 76.416664Q39.003124 75.572914 38.7375 75.24479Q38.471874 74.90104 38.08125 74.90104ZM38.08125 83.229164L42.784374 74.18229L43.64375 74.18229L38.95625 83.229164L38.08125 83.229164ZM41.8 80.90104Q41.8 79.979164 42.253124 79.33854Q42.721874 78.697914 43.6125 78.697914Q44.425 78.697914 44.95625 79.27604Q45.4875 79.83854 45.4875 80.96354Q45.4875 82.05729 44.940624 82.65104Q44.409374 83.229164 43.6125 83.229164Q42.846874 83.229164 42.315624 82.65104Q41.8 82.072914 41.8 80.90104ZM43.64375 79.416664Q43.2375 79.416664 42.971874 79.760414Q42.721874 80.104164 42.721874 81.010414Q42.721874 81.822914 42.9875 82.166664Q43.253124 82.510414 43.64375 82.510414Q44.034374 82.510414 44.3 82.166664Q44.565624 81.822914 44.565624 80.916664Q44.565624 80.08854 44.3 79.760414Q44.034374 79.416664 43.64375 79.416664Z" fill-rule="nonzero"/><path stroke="#757575" stroke-width="1.0" stroke-linecap="butt" d="M18.55 70.416664L145.23334 70.416664L289.4192 62.751633" fill-rule="nonzero"/><path fill="#9e9e9e" d="M291.4192 62.751633C291.4192 61.647064 290.52374 60.751633 289.4192 60.751633C288.3146 60.751633 287.4192 61.647064 287.4192 62.751633C287.4192 63.8562 288.3146 64.75163 289.4192 64.75163C290.52374 64.75163 291.4192 63.8562 291.4192 62.751633" fill-rule="nonzero"/><path fill="#1a1a1a" d="M19.096874 94.15104L20.159374 94.05729Q20.2375 94.71354 20.51875 95.11979Q20.8 95.52604 21.378124 95.791664Q21.971874 96.041664 22.70625 96.041664Q23.346874 96.041664 23.846874 95.854164Q24.346874 95.65104 24.58125 95.322914Q24.83125 94.979164 24.83125 94.58854Q24.83125 94.18229 24.596874 93.885414Q24.3625 93.572914 23.83125 93.36979Q23.471874 93.229164 22.284374 92.947914Q21.1125 92.666664 20.64375 92.416664Q20.01875 92.08854 19.721874 91.61979Q19.425 91.135414 19.425 90.541664Q19.425 89.90104 19.784374 89.33854Q20.159374 88.760414 20.8625 88.479164Q21.58125 88.18229 22.440624 88.18229Q23.39375 88.18229 24.128124 88.49479Q24.8625 88.791664 25.253124 89.40104Q25.64375 89.99479 25.675 90.74479L24.58125 90.822914Q24.4875 90.010414 23.971874 89.604164Q23.471874 89.18229 22.4875 89.18229Q21.45625 89.18229 20.9875 89.55729Q20.51875 89.93229 20.51875 90.46354Q20.51875 90.93229 20.846874 91.229164Q21.175 91.52604 22.55 91.83854Q23.940624 92.15104 24.45625 92.385414Q25.20625 92.74479 25.565624 93.27604Q25.925 93.791664 25.925 94.49479Q25.925 95.18229 25.534374 95.791664Q25.14375 96.385414 24.409374 96.729164Q23.675 97.05729 22.753124 97.05729Q21.58125 97.05729 20.784374 96.729164Q20.003124 96.385414 19.55 95.697914Q19.1125 95.010414 19.096874 94.15104ZM28.4875 96.916664L26.58125 90.697914L27.675 90.697914L28.659374 94.291664L29.034374 95.61979Q29.065624 95.52604 29.3625 94.33854L30.346874 90.697914L31.425 90.697914L32.3625 94.30729L32.675 95.49479L33.034374 94.291664L34.096874 90.697914L35.128124 90.697914L33.175 96.916664L32.08125 96.916664L31.096874 93.18229L30.846874 92.135414L29.596874 96.916664L28.4875 96.916664ZM36.346874 89.541664L36.346874 88.322914L37.409374 88.322914L37.409374 89.541664L36.346874 89.541664ZM36.346874 96.916664L36.346874 90.697914L37.409374 90.697914L37.409374 96.916664L36.346874 96.916664ZM39.596874 96.916664L39.596874 91.510414L38.659374 91.510414L38.659374 90.697914L39.596874 90.697914L39.596874 90.02604Q39.596874 89.40104 39.70625 89.104164Q39.8625 88.68229 40.2375 88.43229Q40.628124 88.18229 41.315624 88.18229Q41.76875 88.18229 42.3 88.291664L42.14375 89.197914Q41.815624 89.15104 41.51875 89.15104Q41.034374 89.15104 40.83125 89.354164Q40.64375 89.55729 40.64375 90.11979L40.64375 90.697914L41.8625 90.697914L41.8625 91.510414L40.64375 91.510414L40.64375 96.916664L39.596874 96.916664ZM44.64375 95.979164L44.8 96.90104Q44.346874 96.99479 44.003124 96.99479Q43.425 96.99479 43.1125 96.822914Q42.8 96.635414 42.659374 96.33854Q42.534374 96.041664 42.534374 95.08854L42.534374 91.510414L41.76875 91.510414L41.76875 90.697914L42.534374 90.697914L42.534374 89.15104L43.58125 88.52604L43.58125 90.697914L44.64375 90.697914L44.64375 91.510414L43.58125 91.510414L43.58125 95.15104Q43.58125 95.604164 43.628124 95.729164Q43.690624 95.854164 43.815624 95.93229Q43.940624 96.010414 44.175 96.010414Q44.3625 96.010414 44.64375 95.979164Z" fill-rule="nonzero"/><path fill="#9e9e9e" d="M19.05 111.65104L20.1125 111.510414Q20.284374 112.40104 20.721874 112.80729Q21.159374 113.197914 21.784374 113.197914Q22.534374 113.197914 23.05 112.68229Q23.565624 112.166664 23.565624 111.40104Q23.565624 110.68229 23.08125 110.21354Q22.6125 109.729164 21.878124 109.729164Q21.58125 109.729164 21.128124 109.854164L21.253124 108.916664Q21.3625 108.93229 21.425 108.93229Q22.096874 108.93229 22.628124 108.58854Q23.175 108.229164 23.175 107.49479Q23.175 106.916664 22.784374 106.541664Q22.39375 106.15104 21.76875 106.15104Q21.159374 106.15104 20.7375 106.541664Q20.33125 106.93229 20.221874 107.697914L19.159374 107.510414Q19.346874 106.46354 20.034374 105.885414Q20.721874 105.291664 21.7375 105.291664Q22.440624 105.291664 23.034374 105.604164Q23.628124 105.90104 23.940624 106.416664Q24.253124 106.93229 24.253124 107.52604Q24.253124 108.072914 23.95625 108.541664Q23.659374 108.99479 23.08125 109.260414Q23.83125 109.43229 24.253124 109.99479Q24.675 110.541664 24.675 111.385414Q24.675 112.510414 23.846874 113.291664Q23.034374 114.072914 21.784374 114.072914Q20.659374 114.072914 19.909374 113.40104Q19.159374 112.71354 19.05 111.65104ZM26.64375 113.916664L26.64375 112.71354L27.846874 112.71354L27.846874 113.916664L26.64375 113.916664ZM29.20625 111.93229L30.221874 111.83854Q30.346874 112.55729 30.70625 112.885414Q31.08125 113.197914 31.64375 113.197914Q32.128124 113.197914 32.4875 112.979164Q32.8625 112.74479 33.096874 112.385414Q33.33125 112.010414 33.4875 111.385414Q33.64375 110.74479 33.64375 110.08854Q33.64375 110.010414 33.64375 109.86979Q33.33125 110.36979 32.784374 110.697914Q32.2375 111.010414 31.596874 111.010414Q30.51875 111.010414 29.784374 110.24479Q29.05 109.46354 29.05 108.197914Q29.05 106.885414 29.815624 106.08854Q30.596874 105.291664 31.753124 105.291664Q32.58125 105.291664 33.26875 105.74479Q33.971874 106.197914 34.33125 107.041664Q34.690624 107.86979 34.690624 109.447914Q34.690624 111.08854 34.33125 112.072914Q33.9875 113.041664 33.26875 113.55729Q32.565624 114.05729 31.628124 114.05729Q30.6125 114.05729 29.971874 113.510414Q29.33125 112.947914 29.20625 111.93229ZM33.51875 108.135414Q33.51875 107.229164 33.034374 106.697914Q32.565624 106.166664 31.878124 106.166664Q31.175 106.166664 30.64375 106.74479Q30.128124 107.30729 30.128124 108.229164Q30.128124 109.041664 30.628124 109.55729Q31.128124 110.072914 31.846874 110.072914Q32.58125 110.072914 33.05 109.55729Q33.51875 109.041664 33.51875 108.135414ZM36.253124 107.385414Q36.253124 106.46354 36.70625 105.822914Q37.175 105.18229 38.05 105.18229Q38.8625 105.18229 39.39375 105.760414Q39.925 106.33854 39.925 107.447914Q39.925 108.541664 39.378124 109.135414Q38.846874 109.71354 38.065624 109.71354Q37.284374 109.71354 36.76875 109.135414Q36.253124 108.55729 36.253124 107.385414ZM38.08125 105.90104Q37.690624 105.90104 37.425 106.24479Q37.175 106.58854 37.175 107.49479Q37.175 108.322914 37.425 108.666664Q37.690624 108.99479 38.08125 108.99479Q38.4875 108.99479 38.7375 108.65104Q39.003124 108.30729 39.003124 107.416664Q39.003124 106.572914 38.7375 106.24479Q38.471874 105.90104 38.08125 105.90104ZM38.08125 114.229164L42.784374 105.18229L43.64375 105.18229L38.95625 114.229164L38.08125 114.229164ZM41.8 111.90104Q41.8 110.979164 42.253124 110.33854Q42.721874 109.697914 43.6125 109.697914Q44.425 109.697914 44.95625 110.27604Q45.4875 110.83854 45.4875 111.96354Q45.4875 113.05729 44.940624 113.65104Q44.409374 114.229164 43.6125 114.229164Q42.846874 114.229164 42.315624 113.65104Q41.8 113.072914 41.8 111.90104ZM43.64375 110.416664Q43.2375 110.416664 42.971874 110.760414Q42.721874 111.104164 42.721874 112.010414Q42.721874 112.822914 42.9875 113.166664Q43.253124 113.510414 43.64375 113.510414Q44.034374 113.510414 44.3 113.166664Q44.565624 112.822914 44.565624 111.916664Q44.565624 111.08854 44.3 110.760414Q44.034374 110.416664 43.64375 110.416664Z" fill-rule="nonzero"/><path stroke="#757575" stroke-width="1.0" stroke-linecap="butt" d="M18.55 101.416664L145.23334 101.416664L242.26862 74.684166" fill-rule="nonzero"/><path fill="#9e9e9e" d="M244.26862 74.684166C244.26862 73.5796 243.37318 72.684166 242.26862 72.684166C241.16405 72.684166 240.26862 73.5796 240.26862 74.684166C240.26862 75.788734 241.16405 76.684166 242.26862 76.684166C243.37318 76.684166 244.26862 75.788734 244.26862 74.684166" fill-rule="nonzero"/><path fill="#1a1a1a" d="M25.6125 124.90104L26.7375 125.197914Q26.378124 126.58854 25.45625 127.322914Q24.534374 128.05728 23.190624 128.05728Q21.8 128.05728 20.925 127.49479Q20.05 126.93229 19.596874 125.86979Q19.14375 124.791664 19.14375 123.55729Q19.14375 122.21354 19.659374 121.21354Q20.175 120.21354 21.1125 119.697914Q22.065624 119.18229 23.20625 119.18229Q24.4875 119.18229 25.3625 119.83854Q26.253124 120.49479 26.596874 121.68229L25.471874 121.947914Q25.175 121.010414 24.596874 120.58854Q24.034374 120.15104 23.175 120.15104Q22.190624 120.15104 21.51875 120.635414Q20.8625 121.104164 20.58125 121.90104Q20.315624 122.697914 20.315624 123.55729Q20.315624 124.65104 20.628124 125.46354Q20.95625 126.27604 21.628124 126.68229Q22.3 127.08854 23.096874 127.08854Q24.05 127.08854 24.70625 126.541664Q25.378124 125.99479 25.6125 124.90104ZM28.159374 128.05728L28.659374 125.572914L27.675 125.572914L27.675 124.697914L28.846874 124.697914L29.26875 122.572914L27.675 122.572914L27.675 121.697914L29.45625 121.697914L29.95625 119.18229L30.83125 119.18229L30.33125 121.697914L32.175 121.697914L32.690624 119.18229L33.565624 119.18229L33.065624 121.697914L34.065624 121.697914L34.065624 122.572914L32.878124 122.572914L32.440624 124.697914L34.065624 124.697914L34.065624 125.572914L32.26875 125.572914L31.753124 128.05728L30.878124 128.05728L31.378124 125.572914L29.55 125.572914L29.034374 128.05728L28.159374 128.05728ZM29.721874 124.697914L31.565624 124.697914L32.003124 122.572914L30.159374 122.572914L29.721874 124.697914Z" fill-rule="nonzero"/><path fill="#9e9e9e" d="M24.51875 138.4323L23.471874 138.51042Q23.33125 137.88542 23.08125 137.60417Q22.64375 137.15105 22.01875 137.15105Q21.51875 137.15105 21.128124 137.4323Q20.64375 137.8073 20.346874 138.51042Q20.065624 139.19792 20.05 140.47917Q20.425 139.90105 20.971874 139.6198Q21.534374 139.33855 22.14375 139.33855Q23.190624 139.33855 23.925 140.1198Q24.675 140.90105 24.675 142.1198Q24.675 142.9323 24.315624 143.63542Q23.971874 144.32292 23.3625 144.69792Q22.753124 145.0573 21.9875 145.0573Q20.659374 145.0573 19.83125 144.08855Q19.003124 143.1198 19.003124 140.90105Q19.003124 138.40105 19.925 137.27605Q20.721874 136.29167 22.08125 136.29167Q23.096874 136.29167 23.7375 136.8698Q24.39375 137.4323 24.51875 138.4323ZM20.221874 142.13542Q20.221874 142.6823 20.440624 143.1823Q20.675 143.66667 21.08125 143.9323Q21.503124 144.19792 21.971874 144.19792Q22.628124 144.19792 23.1125 143.66667Q23.596874 143.1198 23.596874 142.19792Q23.596874 141.3073 23.1125 140.79167Q22.64375 140.27605 21.925 140.27605Q21.20625 140.27605 20.70625 140.79167Q20.221874 141.3073 20.221874 142.13542ZM26.64375 144.91667L26.64375 143.71355L27.846874 143.71355L27.846874 144.91667L26.64375 144.91667ZM33.01875 144.91667L31.971874 144.91667L31.971874 138.19792Q31.58125 138.5573 30.95625 138.9323Q30.346874 139.29167 29.8625 139.46355L29.8625 138.44792Q30.7375 138.02605 31.39375 137.44792Q32.065624 136.85417 32.346874 136.29167L33.01875 136.29167L33.01875 144.91667ZM36.253124 138.38542Q36.253124 137.46355 36.70625 136.82292Q37.175 136.1823 38.05 136.1823Q38.8625 136.1823 39.39375 136.76042Q39.925 137.33855 39.925 138.44792Q39.925 139.54167 39.378124 140.13542Q38.846874 140.71355 38.065624 140.71355Q37.284374 140.71355 36.76875 140.13542Q36.253124 139.5573 36.253124 138.38542ZM38.08125 136.90105Q37.690624 136.90105 37.425 137.2448Q37.175 137.58855 37.175 138.4948Q37.175 139.32292 37.425 139.66667Q37.690624 139.9948 38.08125 139.9948Q38.4875 139.9948 38.7375 139.65105Q39.003124 139.3073 39.003124 138.41667Q39.003124 137.57292 38.7375 137.2448Q38.471874 136.90105 38.08125 136.90105ZM38.08125 145.22917L42.784374 136.1823L43.64375 136.1823L38.95625 145.22917L38.08125 145.22917ZM41.8 142.90105Q41.8 141.97917 42.253124 141.33855Q42.721874 140.69792 43.6125 140.69792Q44.425 140.69792 44.95625 141.27605Q45.4875 141.83855 45.4875 142.96355Q45.4875 144.0573 44.940624 144.65105Q44.409374 145.22917 43.6125 145.22917Q42.846874 145.22917 42.315624 144.65105Q41.8 144.07292 41.8 142.90105ZM43.64375 141.41667Q43.2375 141.41667 42.971874 141.76042Q42.721874 142.10417 42.721874 143.01042Q42.721874 143.82292 42.9875 144.16667Q43.253124 144.51042 43.64375 144.51042Q44.034374 144.51042 44.3 144.16667Q44.565624 143.82292 44.565624 142.91667Q44.565624 142.08855 44.3 141.76042Q44.034374 141.41667 43.64375 141.41667Z" fill-rule="nonzero"/><path stroke="#757575" stroke-width="1.0" stroke-linecap="butt" d="M18.55 132.41667L145.23334 132.41667L205.53383 98.56511" fill-rule="nonzero"/><path fill="#9e9e9e" d="M207.53383 98.56511C207.53383 97.46054 206.6384 96.56511 205.53383 96.56511C204.42926 96.56511 203.53383 97.46054 203.53383 98.56511C203.53383 99.66968 204.42926 100.56511 205.53383 100.56511C206.6384 100.56511 207.53383 99.66968 207.53383 98.56511" fill-rule="nonzero"/><path fill="#1a1a1a" d="M18.89375 156.47917L19.925 156.33855Q19.95625 157.32292 20.284374 157.6823Q20.6125 158.04167 21.20625 158.04167Q21.628124 158.04167 21.940624 157.85417Q22.253124 157.65105 22.3625 157.32292Q22.4875 156.97917 22.4875 156.2448L22.4875 150.32292L23.6125 150.32292L23.6125 156.1823Q23.6125 157.26042 23.346874 157.85417Q23.096874 158.44792 22.534374 158.76042Q21.971874 159.0573 21.20625 159.0573Q20.08125 159.0573 19.471874 158.41667Q18.878124 157.76042 18.89375 156.47917ZM29.409374 158.15105Q28.815624 158.65105 28.26875 158.85417Q27.7375 159.0573 27.1125 159.0573Q26.08125 159.0573 25.534374 158.5573Q24.9875 158.0573 24.9875 157.27605Q24.9875 156.82292 25.190624 156.44792Q25.39375 156.0573 25.7375 155.83855Q26.08125 155.60417 26.503124 155.4948Q26.8 155.40105 27.440624 155.32292Q28.70625 155.1823 29.315624 154.96355Q29.315624 154.7448 29.315624 154.69792Q29.315624 154.04167 29.01875 153.77605Q28.6125 153.4323 27.815624 153.4323Q27.08125 153.4323 26.721874 153.69792Q26.3625 153.94792 26.190624 154.60417L25.159374 154.46355Q25.3 153.8073 25.628124 153.40105Q25.95625 152.9948 26.565624 152.77605Q27.175 152.5573 27.971874 152.5573Q28.76875 152.5573 29.26875 152.7448Q29.76875 152.9323 30.003124 153.21355Q30.2375 153.4948 30.33125 153.9323Q30.378124 154.19792 30.378124 154.90105L30.378124 156.3073Q30.378124 157.77605 30.440624 158.16667Q30.51875 158.5573 30.721874 158.91667L29.6125 158.91667Q29.45625 158.58855 29.409374 158.15105ZM29.315624 155.79167Q28.7375 156.02605 27.596874 156.19792Q26.940624 156.29167 26.675 156.41667Q26.409374 156.52605 26.253124 156.7448Q26.1125 156.96355 26.1125 157.2448Q26.1125 157.66667 26.425 157.94792Q26.753124 158.22917 27.3625 158.22917Q27.971874 158.22917 28.440624 157.96355Q28.925 157.69792 29.14375 157.22917Q29.315624 156.8698 29.315624 156.1823L29.315624 155.79167ZM34.065624 158.91667L31.70625 152.69792L32.815624 152.69792L34.159374 156.41667Q34.3625 157.02605 34.55 157.66667Q34.690624 157.1823 34.940624 156.4948L36.33125 152.69792L37.409374 152.69792L35.05 158.91667L34.065624 158.91667ZM42.409374 158.15105Q41.815624 158.65105 41.26875 158.85417Q40.7375 159.0573 40.1125 159.0573Q39.08125 159.0573 38.534374 158.5573Q37.9875 158.0573 37.9875 157.27605Q37.9875 156.82292 38.190624 156.44792Q38.39375 156.0573 38.7375 155.83855Q39.08125 155.60417 39.503124 155.4948Q39.8 155.40105 40.440624 155.32292Q41.70625 155.1823 42.315624 154.96355Q42.315624 154.7448 42.315624 154.69792Q42.315624 154.04167 42.01875 153.77605Q41.6125 153.4323 40.815624 153.4323Q40.08125 153.4323 39.721874 153.69792Q39.3625 153.94792 39.190624 154.60417L38.159374 154.46355Q38.3 153.8073 38.628124 153.40105Q38.95625 152.9948 39.565624 152.77605Q40.175 152.5573 40.971874 152.5573Q41.76875 152.5573 42.26875 152.7448Q42.76875 152.9323 43.003124 153.21355Q43.2375 153.4948 43.33125 153.9323Q43.378124 154.19792 43.378124 154.90105L43.378124 156.3073Q43.378124 157.77605 43.440624 158.16667Q43.51875 158.5573 43.721874 158.91667L42.6125 158.91667Q42.45625 158.58855 42.409374 158.15105ZM42.315624 155.79167Q41.7375 156.02605 40.596874 156.19792Q39.940624 156.29167 39.675 156.41667Q39.409374 156.52605 39.253124 156.7448Q39.1125 156.96355 39.1125 157.2448Q39.1125 157.66667 39.425 157.94792Q39.753124 158.22917 40.3625 158.22917Q40.971874 158.22917 41.440624 157.96355Q41.925 157.69792 42.14375 157.22917Q42.315624 156.8698 42.315624 156.1823L42.315624 155.79167Z" fill-rule="nonzero"/><path fill="#9e9e9e" d="M19.1125 168.44792L19.1125 167.4323L24.675 167.4323L24.675 168.26042Q23.8625 169.13542 23.05 170.58855Q22.253124 172.02605 21.815624 173.5573Q21.4875 174.63542 21.409374 175.91667L20.315624 175.91667Q20.33125 174.90105 20.70625 173.46355Q21.096874 172.02605 21.8 170.69792Q22.51875 169.3698 23.33125 168.44792L19.1125 168.44792ZM26.64375 175.91667L26.64375 174.71355L27.846874 174.71355L27.846874 175.91667L26.64375 175.91667ZM29.1125 168.44792L29.1125 167.4323L34.675 167.4323L34.675 168.26042Q33.8625 169.13542 33.05 170.58855Q32.253124 172.02605 31.815624 173.5573Q31.4875 174.63542 31.409374 175.91667L30.315624 175.91667Q30.33125 174.90105 30.70625 173.46355Q31.096874 172.02605 31.8 170.69792Q32.51875 169.3698 33.33125 168.44792L29.1125 168.44792ZM36.253124 169.38542Q36.253124 168.46355 36.70625 167.82292Q37.175 167.1823 38.05 167.1823Q38.8625 167.1823 39.39375 167.76042Q39.925 168.33855 39.925 169.44792Q39.925 170.54167 39.378124 171.13542Q38.846874 171.71355 38.065624 171.71355Q37.284374 171.71355 36.76875 171.13542Q36.253124 170.5573 36.253124 169.38542ZM38.08125 167.90105Q37.690624 167.90105 37.425 168.2448Q37.175 168.58855 37.175 169.4948Q37.175 170.32292 37.425 170.66667Q37.690624 170.9948 38.08125 170.9948Q38.4875 170.9948 38.7375 170.65105Q39.003124 170.3073 39.003124 169.41667Q39.003124 168.57292 38.7375 168.2448Q38.471874 167.90105 38.08125 167.90105ZM38.08125 176.22917L42.784374 167.1823L43.64375 167.1823L38.95625 176.22917L38.08125 176.22917ZM41.8 173.90105Q41.8 172.97917 42.253124 172.33855Q42.721874 171.69792 43.6125 171.69792Q44.425 171.69792 44.95625 172.27605Q45.4875 172.83855 45.4875 173.96355Q45.4875 175.0573 44.940624 175.65105Q44.409374 176.22917 43.6125 176.22917Q42.846874 176.22917 42.315624 175.65105Q41.8 175.07292 41.8 173.90105ZM43.64375 172.41667Q43.2375 172.41667 42.971874 172.76042Q42.721874 173.10417 42.721874 174.01042Q42.721874 174.82292 42.9875 175.16667Q43.253124 175.51042 43.64375 175.51042Q44.034374 175.51042 44.3 175.16667Q44.565624 174.82292 44.565624 173.91667Q44.565624 173.08855 44.3 172.76042Q44.034374 172.41667 43.64375 172.41667Z" fill-rule="nonzero"/><path stroke="#757575" stroke-width="1.0" stroke-linecap="butt" d="M18.55 163.41667L145.23334 163.41667L170.1823 147.81688" fill-rule="nonzero"/><path fill="#9e9e9e" d="M172.1823 147.81688C172.1823 146.71231 171.28687 145.81688 170.1823 145.81688C169.07773 145.81688 168.1823 146.71231 168.1823 147.81688C168.1823 148.92145 169.07773 149.81688 170.1823 149.81688C171.28687 149.81688 172.1823 148.92145 172.1823 147.81688" fill-rule="nonzero"/><path fill="#1a1a1a" d="M23.503124 218.11809L23.503124 217.11809L27.128124 217.10246L27.128124 220.28996Q26.3 220.96184 25.409374 221.30559Q24.51875 221.63371 23.58125 221.63371Q22.315624 221.63371 21.26875 221.10246Q20.2375 220.55559 19.70625 219.53996Q19.190624 218.50871 19.190624 217.24309Q19.190624 215.97746 19.70625 214.89934Q20.2375 213.80559 21.221874 213.28996Q22.20625 212.75871 23.4875 212.75871Q24.425 212.75871 25.175 213.05559Q25.925 213.35246 26.346874 213.89934Q26.784374 214.43059 27.003124 215.30559L25.9875 215.58684Q25.784374 214.93059 25.4875 214.55559Q25.20625 214.18059 24.675 213.96184Q24.14375 213.72746 23.503124 213.72746Q22.721874 213.72746 22.14375 213.96184Q21.58125 214.19621 21.221874 214.58684Q20.878124 214.97746 20.690624 215.44621Q20.3625 216.24309 20.3625 217.16496Q20.3625 218.32121 20.753124 219.10246Q21.159374 219.86809 21.909374 220.24309Q22.659374 220.61809 23.51875 220.61809Q24.253124 220.61809 24.95625 220.33684Q25.659374 220.03996 26.01875 219.72746L26.01875 218.11809L23.503124 218.11809ZM27.95625 218.38371Q27.95625 216.64934 28.909374 215.82121Q29.70625 215.13371 30.8625 215.13371Q32.14375 215.13371 32.95625 215.97746Q33.784374 216.80559 33.784374 218.28996Q33.784374 219.49309 33.425 220.18059Q33.065624 220.86809 32.3625 221.25871Q31.675 221.63371 30.8625 221.63371Q29.565624 221.63371 28.753124 220.80559Q27.95625 219.96184 27.95625 218.38371ZM29.034374 218.38371Q29.034374 219.57121 29.55 220.16496Q30.08125 220.75871 30.8625 220.75871Q31.659374 220.75871 32.175 220.16496Q32.690624 219.57121 32.690624 218.35246Q32.690624 217.19621 32.159374 216.60246Q31.64375 216.00871 30.8625 216.00871Q30.08125 216.00871 29.55 216.60246Q29.034374 217.18059 29.034374 218.38371Z" fill-rule="nonzero"/><path fill="#9e9e9e" d="M23.01875 238.49309L21.971874 238.49309L21.971874 231.77434Q21.58125 232.13371 20.95625 232.50871Q20.346874 232.86809 19.8625 233.03996L19.8625 232.02434Q20.7375 231.60246 21.39375 231.02434Q22.065624 230.43059 22.346874 229.86809L23.01875 229.86809L23.01875 238.49309ZM26.05 234.25871Q26.05 232.72746 26.3625 231.80559Q26.675 230.86809 27.284374 230.36809Q27.909374 229.86809 28.846874 229.86809Q29.534374 229.86809 30.05 230.14934Q30.58125 230.43059 30.925 230.96184Q31.26875 231.47746 31.45625 232.22746Q31.64375 232.97746 31.64375 234.25871Q31.64375 235.77434 31.33125 236.69621Q31.034374 237.61809 30.409374 238.13371Q29.8 238.63371 28.846874 238.63371Q27.6125 238.63371 26.89375 237.74309Q26.05 236.68059 26.05 234.25871ZM27.128124 234.25871Q27.128124 236.36809 27.628124 237.07121Q28.128124 237.77434 28.846874 237.77434Q29.58125 237.77434 30.065624 237.07121Q30.565624 236.36809 30.565624 234.25871Q30.565624 232.13371 30.065624 231.44621Q29.58125 230.74309 28.83125 230.74309Q28.1125 230.74309 27.675 231.35246Q27.128124 232.13371 27.128124 234.25871ZM33.64375 238.49309L33.64375 237.28996L34.846874 237.28996L34.846874 238.49309L33.64375 238.49309ZM36.05 236.22746L37.1125 236.08684Q37.284374 236.97746 37.721874 237.38371Q38.159374 237.77434 38.784374 237.77434Q39.534374 237.77434 40.05 237.25871Q40.565624 236.74309 40.565624 235.97746Q40.565624 235.25871 40.08125 234.78996Q39.6125 234.30559 38.878124 234.30559Q38.58125 234.30559 38.128124 234.43059L38.253124 233.49309Q38.3625 233.50871 38.425 233.50871Q39.096874 233.50871 39.628124 233.16496Q40.175 232.80559 40.175 232.07121Q40.175 231.49309 39.784374 231.11809Q39.39375 230.72746 38.76875 230.72746Q38.159374 230.72746 37.7375 231.11809Q37.33125 231.50871 37.221874 232.27434L36.159374 232.08684Q36.346874 231.03996 37.034374 230.46184Q37.721874 229.86809 38.7375 229.86809Q39.440624 229.86809 40.034374 230.18059Q40.628124 230.47746 40.940624 230.99309Q41.253124 231.50871 41.253124 232.10246Q41.253124 232.64934 40.95625 233.11809Q40.659374 233.57121 40.08125 233.83684Q40.83125 234.00871 41.253124 234.57121Q41.675 235.11809 41.675 235.96184Q41.675 237.08684 40.846874 237.86809Q40.034374 238.64934 38.784374 238.64934Q37.659374 238.64934 36.909374 237.97746Q36.159374 237.28996 36.05 236.22746ZM43.253124 231.96184Q43.253124 231.03996 43.70625 230.39934Q44.175 229.75871 45.05 229.75871Q45.8625 229.75871 46.39375 230.33684Q46.925 230.91496 46.925 232.02434Q46.925 233.11809 46.378124 233.71184Q45.846874 234.28996 45.065624 234.28996Q44.284374 234.28996 43.76875 233.71184Q43.253124 233.13371 43.253124 231.96184ZM45.08125 230.47746Q44.690624 230.47746 44.425 230.82121Q44.175 231.16496 44.175 232.07121Q44.175 232.89934 44.425 233.24309Q44.690624 233.57121 45.08125 233.57121Q45.4875 233.57121 45.7375 233.22746Q46.003124 232.88371 46.003124 231.99309Q46.003124 231.14934 45.7375 230.82121Q45.471874 230.47746 45.08125 230.47746ZM45.08125 238.80559L49.784374 229.75871L50.64375 229.75871L45.95625 238.80559L45.08125 238.80559ZM48.8 236.47746Q48.8 235.55559 49.253124 234.91496Q49.721874 234.27434 50.6125 234.27434Q51.425 234.27434 51.95625 234.85246Q52.4875 235.41496 52.4875 236.53996Q52.4875 237.63371 51.940624 238.22746Q51.409374 238.80559 50.6125 238.80559Q49.846874 238.80559 49.315624 238.22746Q48.8 237.64934 48.8 236.47746ZM50.64375 234.99309Q50.2375 234.99309 49.971874 235.33684Q49.721874 235.68059 49.721874 236.58684Q49.721874 237.39934 49.9875 237.74309Q50.253124 238.08684 50.64375 238.08684Q51.034374 238.08684 51.3 237.74309Q51.565624 237.39934 51.565624 236.49309Q51.565624 235.66496 51.3 235.33684Q51.034374 234.99309 50.64375 234.99309Z" fill-rule="nonzero"/><path stroke="#757575" stroke-width="1.0" stroke-linecap="butt" d="M18.55 225.99309L145.23334 225.99309L160.44366 225.99309" fill-rule="nonzero"/><path fill="#9e9e9e" d="M162.44366 225.99309C162.44366 224.88852 161.54823 223.99309 160.44366 223.99309C159.3391 223.99309 158.44366 224.88852 158.44366 225.99309C158.44366 227.09766 159.3391 227.99309 160.44366 227.99309C161.54823 227.99309 162.44366 227.09766 162.44366 225.99309" fill-rule="nonzero"/><path fill="#1a1a1a" d="M18.89375 301.31778L19.925 301.17715Q19.95625 302.16153 20.284374 302.5209Q20.6125 302.88028 21.20625 302.88028Q21.628124 302.88028 21.940624 302.69278Q22.253124 302.48965 22.3625 302.16153Q22.4875 301.81778 22.4875 301.0834L22.4875 295.16153L23.6125 295.16153L23.6125 301.0209Q23.6125 302.09903 23.346874 302.69278Q23.096874 303.28653 22.534374 303.59903Q21.971874 303.8959 21.20625 303.8959Q20.08125 303.8959 19.471874 303.25528Q18.878124 302.59903 18.89375 301.31778ZM29.409374 302.98965Q28.815624 303.48965 28.26875 303.69278Q27.7375 303.8959 27.1125 303.8959Q26.08125 303.8959 25.534374 303.3959Q24.9875 302.8959 24.9875 302.11465Q24.9875 301.66153 25.190624 301.28653Q25.39375 300.8959 25.7375 300.67715Q26.08125 300.44278 26.503124 300.3334Q26.8 300.23965 27.440624 300.16153Q28.70625 300.0209 29.315624 299.80215Q29.315624 299.5834 29.315624 299.53653Q29.315624 298.88028 29.01875 298.61465Q28.6125 298.2709 27.815624 298.2709Q27.08125 298.2709 26.721874 298.53653Q26.3625 298.78653 26.190624 299.44278L25.159374 299.30215Q25.3 298.6459 25.628124 298.23965Q25.95625 297.8334 26.565624 297.61465Q27.175 297.3959 27.971874 297.3959Q28.76875 297.3959 29.26875 297.5834Q29.76875 297.7709 30.003124 298.05215Q30.2375 298.3334 30.33125 298.7709Q30.378124 299.03653 30.378124 299.73965L30.378124 301.1459Q30.378124 302.61465 30.440624 303.00528Q30.51875 303.3959 30.721874 303.75528L29.6125 303.75528Q29.45625 303.42715 29.409374 302.98965ZM29.315624 300.63028Q28.7375 300.86465 27.596874 301.03653Q26.940624 301.13028 26.675 301.25528Q26.409374 301.36465 26.253124 301.5834Q26.1125 301.80215 26.1125 302.0834Q26.1125 302.50528 26.425 302.78653Q26.753124 303.06778 27.3625 303.06778Q27.971874 303.06778 28.440624 302.80215Q28.925 302.53653 29.14375 302.06778Q29.315624 301.7084 29.315624 301.0209L29.315624 300.63028ZM34.065624 303.75528L31.70625 297.53653L32.815624 297.53653L34.159374 301.25528Q34.3625 301.86465 34.55 302.50528Q34.690624 302.0209 34.940624 301.3334L36.33125 297.53653L37.409374 297.53653L35.05 303.75528L34.065624 303.75528ZM42.409374 302.98965Q41.815624 303.48965 41.26875 303.69278Q40.7375 303.8959 40.1125 303.8959Q39.08125 303.8959 38.534374 303.3959Q37.9875 302.8959 37.9875 302.11465Q37.9875 301.66153 38.190624 301.28653Q38.39375 300.8959 38.7375 300.67715Q39.08125 300.44278 39.503124 300.3334Q39.8 300.23965 40.440624 300.16153Q41.70625 300.0209 42.315624 299.80215Q42.315624 299.5834 42.315624 299.53653Q42.315624 298.88028 42.01875 298.61465Q41.6125 298.2709 40.815624 298.2709Q40.08125 298.2709 39.721874 298.53653Q39.3625 298.78653 39.190624 299.44278L38.159374 299.30215Q38.3 298.6459 38.628124 298.23965Q38.95625 297.8334 39.565624 297.61465Q40.175 297.3959 40.971874 297.3959Q41.76875 297.3959 42.26875 297.5834Q42.76875 297.7709 43.003124 298.05215Q43.2375 298.3334 43.33125 298.7709Q43.378124 299.03653 43.378124 299.73965L43.378124 301.1459Q43.378124 302.61465 43.440624 303.00528Q43.51875 303.3959 43.721874 303.75528L42.6125 303.75528Q42.45625 303.42715 42.409374 302.98965ZM42.315624 300.63028Q41.7375 300.86465 40.596874 301.03653Q39.940624 301.13028 39.675 301.25528Q39.409374 301.36465 39.253124 301.5834Q39.1125 301.80215 39.1125 302.0834Q39.1125 302.50528 39.425 302.78653Q39.753124 303.06778 40.3625 303.06778Q40.971874 303.06778 41.440624 302.80215Q41.925 302.53653 42.14375 302.06778Q42.315624 301.7084 42.315624 301.0209L42.315624 300.63028ZM45.096874 300.98965L46.159374 300.8959Q46.2375 301.55215 46.51875 301.9584Q46.8 302.36465 47.378124 302.63028Q47.971874 302.88028 48.70625 302.88028Q49.346874 302.88028 49.846874 302.69278Q50.346874 302.48965 50.58125 302.16153Q50.83125 301.81778 50.83125 301.42715Q50.83125 301.0209 50.596874 300.72403Q50.3625 300.41153 49.83125 300.2084Q49.471874 300.06778 48.284374 299.78653Q47.1125 299.50528 46.64375 299.25528Q46.01875 298.92715 45.721874 298.4584Q45.425 297.97403 45.425 297.38028Q45.425 296.73965 45.784374 296.17715Q46.159374 295.59903 46.8625 295.31778Q47.58125 295.0209 48.440624 295.0209Q49.39375 295.0209 50.128124 295.3334Q50.8625 295.63028 51.253124 296.23965Q51.64375 296.8334 51.675 297.5834L50.58125 297.66153Q50.4875 296.84903 49.971874 296.44278Q49.471874 296.0209 48.4875 296.0209Q47.45625 296.0209 46.9875 296.3959Q46.51875 296.7709 46.51875 297.30215Q46.51875 297.7709 46.846874 298.06778Q47.175 298.36465 48.55 298.67715Q49.940624 298.98965 50.45625 299.22403Q51.20625 299.5834 51.565624 300.11465Q51.925 300.63028 51.925 301.3334Q51.925 302.0209 51.534374 302.63028Q51.14375 303.22403 50.409374 303.56778Q49.675 303.8959 48.753124 303.8959Q47.58125 303.8959 46.784374 303.56778Q46.003124 303.22403 45.55 302.53653Q45.1125 301.84903 45.096874 300.98965ZM57.409374 301.47403L58.440624 301.61465Q58.26875 302.67715 57.565624 303.28653Q56.8625 303.8959 55.846874 303.8959Q54.565624 303.8959 53.784374 303.06778Q53.01875 302.22403 53.01875 300.66153Q53.01875 299.66153 53.346874 298.91153Q53.690624 298.1459 54.3625 297.7709Q55.05 297.3959 55.8625 297.3959Q56.8625 297.3959 57.503124 297.91153Q58.159374 298.41153 58.346874 299.36465L57.315624 299.5209Q57.175 298.8959 56.8 298.5834Q56.425 298.25528 55.89375 298.25528Q55.096874 298.25528 54.596874 298.8334Q54.096874 299.3959 54.096874 300.63028Q54.096874 301.8959 54.58125 302.4584Q55.065624 303.0209 55.83125 303.0209Q56.45625 303.0209 56.8625 302.6459Q57.284374 302.2709 57.409374 301.47403ZM59.33125 303.75528L59.33125 297.53653L60.284374 297.53653L60.284374 298.47403Q60.64375 297.81778 60.940624 297.61465Q61.253124 297.3959 61.628124 297.3959Q62.159374 297.3959 62.70625 297.72403L62.346874 298.7084Q61.95625 298.47403 61.58125 298.47403Q61.221874 298.47403 60.940624 298.69278Q60.675 298.8959 60.565624 299.2709Q60.378124 299.8334 60.378124 300.48965L60.378124 303.75528L59.33125 303.75528ZM63.346874 296.38028L63.346874 295.16153L64.40938 295.16153L64.40938 296.38028L63.346874 296.38028ZM63.346874 303.75528L63.346874 297.53653L64.40938 297.53653L64.40938 303.75528L63.346874 303.75528ZM66.34688 306.1459L66.34688 297.53653L67.3 297.53653L67.3 298.3334Q67.64375 297.86465 68.06563 297.63028Q68.50313 297.3959 69.1125 297.3959Q69.90938 297.3959 70.51875 297.80215Q71.12813 298.2084 71.425 298.9584Q71.7375 299.7084 71.7375 300.59903Q71.7375 301.55215 71.39375 302.31778Q71.06563 303.0834 70.40938 303.48965Q69.75313 303.8959 69.03438 303.8959Q68.50313 303.8959 68.08125 303.67715Q67.65938 303.44278 67.39375 303.11465L67.39375 306.1459L66.34688 306.1459ZM67.3 300.67715Q67.3 301.88028 67.78438 302.4584Q68.26875 303.0209 68.95625 303.0209Q69.65938 303.0209 70.15938 302.42715Q70.65938 301.8334 70.65938 300.5834Q70.65938 299.3959 70.175 298.81778Q69.69063 298.22403 69.00313 298.22403Q68.33125 298.22403 67.81563 298.84903Q67.3 299.47403 67.3 300.67715ZM75.64375 302.81778L75.8 303.73965Q75.34688 303.8334 75.00313 303.8334Q74.425 303.8334 74.1125 303.66153Q73.8 303.47403 73.65938 303.17715Q73.53438 302.88028 73.53438 301.92715L73.53438 298.34903L72.76875 298.34903L72.76875 297.53653L73.53438 297.53653L73.53438 295.98965L74.58125 295.36465L74.58125 297.53653L75.64375 297.53653L75.64375 298.34903L74.58125 298.34903L74.58125 301.98965Q74.58125 302.44278 74.62813 302.56778Q74.69063 302.69278 74.81563 302.7709Q74.94063 302.84903 75.175 302.84903Q75.3625 302.84903 75.64375 302.81778Z" fill-rule="nonzero"/><path fill="#9e9e9e" d="M23.01875 320.75528L21.971874 320.75528L21.971874 314.03653Q21.58125 314.3959 20.95625 314.7709Q20.346874 315.13028 19.8625 315.30215L19.8625 314.28653Q20.7375 313.86465 21.39375 313.28653Q22.065624 312.69278 22.346874 312.13028L23.01875 312.13028L23.01875 320.75528ZM30.01875 320.75528L28.971874 320.75528L28.971874 314.03653Q28.58125 314.3959 27.95625 314.7709Q27.346874 315.13028 26.8625 315.30215L26.8625 314.28653Q27.7375 313.86465 28.39375 313.28653Q29.065624 312.69278 29.346874 312.13028L30.01875 312.13028L30.01875 320.75528ZM33.64375 320.75528L33.64375 319.55215L34.846874 319.55215L34.846874 320.75528L33.64375 320.75528ZM41.596874 319.73965L41.596874 320.75528L35.909374 320.75528Q35.909374 320.38028 36.034374 320.0209Q36.253124 319.44278 36.721874 318.88028Q37.20625 318.31778 38.1125 317.5834Q39.51875 316.42715 40.003124 315.75528Q40.503124 315.0834 40.503124 314.48965Q40.503124 313.86465 40.05 313.44278Q39.596874 313.00528 38.878124 313.00528Q38.1125 313.00528 37.659374 313.4584Q37.20625 313.91153 37.190624 314.72403L36.1125 314.61465Q36.221874 313.3959 36.940624 312.7709Q37.675 312.13028 38.909374 312.13028Q40.14375 312.13028 40.8625 312.81778Q41.58125 313.50528 41.58125 314.5209Q41.58125 315.03653 41.3625 315.53653Q41.159374 316.0209 40.659374 316.5834Q40.175 317.13028 39.05 318.0834Q38.096874 318.88028 37.815624 319.17715Q37.55 319.4584 37.378124 319.73965L41.596874 319.73965ZM43.253124 314.22403Q43.253124 313.30215 43.70625 312.66153Q44.175 312.0209 45.05 312.0209Q45.8625 312.0209 46.39375 312.59903Q46.925 313.17715 46.925 314.28653Q46.925 315.38028 46.378124 315.97403Q45.846874 316.55215 45.065624 316.55215Q44.284374 316.55215 43.76875 315.97403Q43.253124 315.3959 43.253124 314.22403ZM45.08125 312.73965Q44.690624 312.73965 44.425 313.0834Q44.175 313.42715 44.175 314.3334Q44.175 315.16153 44.425 315.50528Q44.690624 315.8334 45.08125 315.8334Q45.4875 315.8334 45.7375 315.48965Q46.003124 315.1459 46.003124 314.25528Q46.003124 313.41153 45.7375 313.0834Q45.471874 312.73965 45.08125 312.73965ZM45.08125 321.06778L49.784374 312.0209L50.64375 312.0209L45.95625 321.06778L45.08125 321.06778ZM48.8 318.73965Q48.8 317.81778 49.253124 317.17715Q49.721874 316.53653 50.6125 316.53653Q51.425 316.53653 51.95625 317.11465Q52.4875 317.67715 52.4875 318.80215Q52.4875 319.8959 51.940624 320.48965Q51.409374 321.06778 50.6125 321.06778Q49.846874 321.06778 49.315624 320.48965Q48.8 319.91153 48.8 318.73965ZM50.64375 317.25528Q50.2375 317.25528 49.971874 317.59903Q49.721874 317.94278 49.721874 318.84903Q49.721874 319.66153 49.9875 320.00528Q50.253124 320.34903 50.64375 320.34903Q51.034374 320.34903 51.3 320.00528Q51.565624 319.66153 51.565624 318.75528Q51.565624 317.92715 51.3 317.59903Q51.034374 317.25528 50.64375 317.25528Z" fill-rule="nonzero"/><path stroke="#757575" stroke-width="1.0" stroke-linecap="butt" d="M18.55 308.25528L145.23334 308.25528L204.92946 308.25528" fill-rule="nonzero"/><path fill="#9e9e9e" d="M206.92946 308.25528C206.92946 307.1507 206.03403 306.25528 204.92946 306.25528C203.82489 306.25528 202.92946 307.1507 202.92946 308.25528C202.92946 309.35983 203.82489 310.25528 204.92946 310.25528C206.03403 310.25528 206.92946 309.35983 206.92946 308.25528" fill-rule="nonzero"/><path fill="#1a1a1a" d="M565.5125 86.29225L566.6375 86.58913Q566.27814 87.97975 565.35626 88.71413Q564.4344 89.4485 563.09064 89.4485Q561.7 89.4485 560.825 88.886Q559.95 88.3235 559.4969 87.261Q559.04376 86.18288 559.04376 84.9485Q559.04376 83.60475 559.5594 82.60475Q560.075 81.60475 561.0125 81.08913Q561.96564 80.5735 563.10626 80.5735Q564.3875 80.5735 565.2625 81.22975Q566.15314 81.886 566.4969 83.0735L565.3719 83.33913Q565.075 82.40163 564.4969 81.97975Q563.9344 81.54225 563.075 81.54225Q562.09064 81.54225 561.41876 82.02663Q560.7625 82.49538 560.48126 83.29225Q560.21564 84.08913 560.21564 84.9485Q560.21564 86.04225 560.52814 86.85475Q560.85626 87.66725 561.52814 88.0735Q562.2 88.47975 562.9969 88.47975Q563.95 88.47975 564.60626 87.93288Q565.27814 87.386 565.5125 86.29225ZM570.45 87.91725L570.45 85.55788L568.1219 85.55788L568.1219 84.5735L570.45 84.5735L570.45 82.24538L571.45 82.24538L571.45 84.5735L573.79376 84.5735L573.79376 85.55788L571.45 85.55788L571.45 87.91725L570.45 87.91725ZM577.45 87.91725L577.45 85.55788L575.1219 85.55788L575.1219 84.5735L577.45 84.5735L577.45 82.24538L578.45 82.24538L578.45 84.5735L580.79376 84.5735L580.79376 85.55788L578.45 85.55788L578.45 87.91725L577.45 87.91725Z" fill-rule="nonzero"/><path fill="#9e9e9e" d="M552.4969 105.29225L552.4969 106.30788L546.8094 106.30788Q546.8094 105.93288 546.9344 105.5735Q547.15314 104.99538 547.6219 104.43288Q548.10626 103.87038 549.0125 103.136Q550.41876 101.97975 550.90314 101.30788Q551.40314 100.636 551.40314 100.04225Q551.40314 99.41725 550.95 98.99538Q550.4969 98.55788 549.77814 98.55788Q549.0125 98.55788 548.5594 99.011Q548.10626 99.46413 548.09064 100.27663L547.0125 100.16725Q547.1219 98.9485 547.84064 98.3235Q548.575 97.68288 549.8094 97.68288Q551.04376 97.68288 551.7625 98.37038Q552.48126 99.05788 552.48126 100.0735Q552.48126 100.58913 552.2625 101.08913Q552.0594 101.5735 551.5594 102.136Q551.075 102.68288 549.95 103.636Q548.9969 104.43288 548.71564 104.72975Q548.45 105.011 548.27814 105.29225L552.4969 105.29225ZM557.91876 106.30788L556.8719 106.30788L556.8719 99.58913Q556.48126 99.9485 555.85626 100.3235Q555.2469 100.68288 554.7625 100.85475L554.7625 99.83913Q555.6375 99.41725 556.29376 98.83913Q556.96564 98.24538 557.2469 97.68288L557.91876 97.68288L557.91876 106.30788ZM561.54376 106.30788L561.54376 105.10475L562.7469 105.10475L562.7469 106.30788L561.54376 106.30788ZM564.0125 98.83913L564.0125 97.8235L569.575 97.8235L569.575 98.65163Q568.7625 99.52663 567.95 100.97975Q567.15314 102.41725 566.71564 103.9485Q566.3875 105.02663 566.3094 106.30788L565.21564 106.30788Q565.23126 105.29225 565.60626 103.85475Q565.9969 102.41725 566.7 101.08913Q567.41876 99.761 568.23126 98.83913L564.0125 98.83913ZM571.15314 99.77663Q571.15314 98.85475 571.60626 98.21413Q572.075 97.5735 572.95 97.5735Q573.7625 97.5735 574.29376 98.15163Q574.825 98.72975 574.825 99.83913Q574.825 100.93288 574.27814 101.52663Q573.7469 102.10475 572.96564 102.10475Q572.1844 102.10475 571.66876 101.52663Q571.15314 100.9485 571.15314 99.77663ZM572.98126 98.29225Q572.59064 98.29225 572.325 98.636Q572.075 98.97975 572.075 99.886Q572.075 100.71413 572.325 101.05788Q572.59064 101.386 572.98126 101.386Q573.3875 101.386 573.6375 101.04225Q573.90314 100.6985 573.90314 99.80788Q573.90314 98.96413 573.6375 98.636Q573.3719 98.29225 572.98126 98.29225ZM572.98126 106.62038L577.6844 97.5735L578.54376 97.5735L573.85626 106.62038L572.98126 106.62038ZM576.7 104.29225Q576.7 103.37038 577.15314 102.72975Q577.6219 102.08913 578.5125 102.08913Q579.325 102.08913 579.85626 102.66725Q580.3875 103.22975 580.3875 104.35475Q580.3875 105.4485 579.84064 106.04225Q579.3094 106.62038 578.5125 106.62038Q577.7469 106.62038 577.21564 106.04225Q576.7 105.46413 576.7 104.29225ZM578.54376 102.80788Q578.1375 102.80788 577.8719 103.15163Q577.6219 103.49538 577.6219 104.40163Q577.6219 105.21413 577.8875 105.55788Q578.15314 105.90163 578.54376 105.90163Q578.9344 105.90163 579.2 105.55788Q579.46564 105.21413 579.46564 104.30788Q579.46564 103.47975 579.2 103.15163Q578.9344 102.80788 578.54376 102.80788Z" fill-rule="nonzero"/><path stroke="#757575" stroke-width="1.0" stroke-linecap="butt" d="M581.45 93.80788L454.76666 93.80788L388.88803 93.80788" fill-rule="nonzero"/><path fill="#9e9e9e" d="M390.88803 93.80788C390.88803 92.70331 389.9926 91.80788 388.88803 91.80788C387.78345 91.80788 386.88803 92.70331 386.88803 93.80788C386.88803 94.912445 387.78345 95.80788 388.88803 95.80788C389.9926 95.80788 390.88803 94.912445 390.88803 93.80788" fill-rule="nonzero"/><path fill="#1a1a1a" d="M579.5125 243.69588L580.6375 243.99275Q580.27814 245.38338 579.35626 246.11775Q578.4344 246.85213 577.09064 246.85213Q575.7 246.85213 574.825 246.28963Q573.95 245.72713 573.4969 244.66463Q573.04376 243.5865 573.04376 242.35213Q573.04376 241.00838 573.5594 240.00838Q574.075 239.00838 575.0125 238.49275Q575.96564 237.97713 577.10626 237.97713Q578.3875 237.97713 579.2625 238.63338Q580.15314 239.28963 580.4969 240.47713L579.3719 240.74275Q579.075 239.80525 578.4969 239.38338Q577.9344 238.94588 577.075 238.94588Q576.09064 238.94588 575.41876 239.43025Q574.7625 239.899 574.48126 240.69588Q574.21564 241.49275 574.21564 242.35213Q574.21564 243.44588 574.52814 244.25838Q574.85626 245.07088 575.52814 245.47713Q576.2 245.88338 576.9969 245.88338Q577.95 245.88338 578.60626 245.3365Q579.27814 244.78963 579.5125 243.69588Z" fill-rule="nonzero"/><path fill="#9e9e9e" d="M550.91876 263.71152L549.8719 263.71152L549.8719 256.99277Q549.48126 257.35214 548.85626 257.72714Q548.2469 258.08652 547.7625 258.2584L547.7625 257.24277Q548.6375 256.8209 549.29376 256.24277Q549.96564 255.64902 550.2469 255.08652L550.91876 255.08652L550.91876 263.71152ZM554.0125 256.24277L554.0125 255.22714L559.575 255.22714L559.575 256.05527Q558.7625 256.93027 557.95 258.3834Q557.15314 259.8209 556.71564 261.35214Q556.3875 262.43027 556.3094 263.71152L555.21564 263.71152Q555.23126 262.6959 555.60626 261.2584Q555.9969 259.8209 556.7 258.49277Q557.41876 257.16464 558.23126 256.24277L554.0125 256.24277ZM561.54376 263.71152L561.54376 262.5084L562.7469 262.5084L562.7469 263.71152L561.54376 263.71152ZM569.41876 257.22714L568.3719 257.30527Q568.23126 256.68027 567.98126 256.39902Q567.54376 255.94589 566.91876 255.94589Q566.41876 255.94589 566.02814 256.22714Q565.54376 256.60214 565.2469 257.30527Q564.96564 257.99277 564.95 259.27402Q565.325 258.6959 565.8719 258.41464Q566.4344 258.1334 567.04376 258.1334Q568.09064 258.1334 568.825 258.91464Q569.575 259.6959 569.575 260.91464Q569.575 261.72714 569.21564 262.43027Q568.8719 263.11777 568.2625 263.49277Q567.65314 263.85214 566.8875 263.85214Q565.5594 263.85214 564.73126 262.8834Q563.90314 261.91464 563.90314 259.6959Q563.90314 257.1959 564.825 256.0709Q565.6219 255.08652 566.98126 255.08652Q567.9969 255.08652 568.6375 255.66464Q569.29376 256.22714 569.41876 257.22714ZM565.1219 260.93027Q565.1219 261.47714 565.34064 261.97714Q565.575 262.46152 565.98126 262.72714Q566.40314 262.99277 566.8719 262.99277Q567.52814 262.99277 568.0125 262.46152Q568.4969 261.91464 568.4969 260.99277Q568.4969 260.10214 568.0125 259.58652Q567.54376 259.0709 566.825 259.0709Q566.10626 259.0709 565.60626 259.58652Q565.1219 260.10214 565.1219 260.93027ZM571.15314 257.18027Q571.15314 256.2584 571.60626 255.61777Q572.075 254.97714 572.95 254.97714Q573.7625 254.97714 574.29376 255.55527Q574.825 256.1334 574.825 257.24277Q574.825 258.33652 574.27814 258.93027Q573.7469 259.5084 572.96564 259.5084Q572.1844 259.5084 571.66876 258.93027Q571.15314 258.35214 571.15314 257.18027ZM572.98126 255.69589Q572.59064 255.69589 572.325 256.03964Q572.075 256.3834 572.075 257.28964Q572.075 258.11777 572.325 258.46152Q572.59064 258.78964 572.98126 258.78964Q573.3875 258.78964 573.6375 258.4459Q573.90314 258.10214 573.90314 257.21152Q573.90314 256.36777 573.6375 256.03964Q573.3719 255.69589 572.98126 255.69589ZM572.98126 264.02402L577.6844 254.97714L578.54376 254.97714L573.85626 264.02402L572.98126 264.02402ZM576.7 261.6959Q576.7 260.77402 577.15314 260.1334Q577.6219 259.49277 578.5125 259.49277Q579.325 259.49277 579.85626 260.0709Q580.3875 260.6334 580.3875 261.7584Q580.3875 262.85214 579.84064 263.4459Q579.3094 264.02402 578.5125 264.02402Q577.7469 264.02402 577.21564 263.4459Q576.7 262.86777 576.7 261.6959ZM578.54376 260.21152Q578.1375 260.21152 577.8719 260.55527Q577.6219 260.89902 577.6219 261.80527Q577.6219 262.61777 577.8875 262.96152Q578.15314 263.30527 578.54376 263.30527Q578.9344 263.30527 579.2 262.96152Q579.46564 262.61777 579.46564 261.71152Q579.46564 260.8834 579.2 260.55527Q578.9344 260.21152 578.54376 260.21152Z" fill-rule="nonzero"/><path stroke="#757575" stroke-width="1.0" stroke-linecap="butt" d="M581.45 251.2115L454.76666 251.2115L433.09683 251.2115" fill-rule="nonzero"/><path fill="#9e9e9e" d="M435.09683 251.2115C435.09683 250.10693 434.20142 249.2115 433.09683 249.2115C431.99228 249.2115 431.09683 250.10693 431.09683 251.2115C431.09683 252.31609 431.99228 253.2115 433.09683 253.2115C434.20142 253.2115 435.09683 252.31609 435.09683 251.2115" fill-rule="nonzero"/><path fill="#1a1a1a" d="M544.3719 332.45L544.3719 323.85626L547.6219 323.85626Q548.46564 323.85626 548.91876 323.9344Q549.5594 324.04376 549.98126 324.34064Q550.41876 324.6375 550.66876 325.16876Q550.9344 325.7 550.9344 326.34064Q550.9344 327.4344 550.23126 328.2Q549.54376 328.95 547.71564 328.95L545.5125 328.95L545.5125 332.45L544.3719 332.45ZM545.5125 327.95L547.73126 327.95Q548.84064 327.95 549.29376 327.54376Q549.7625 327.1219 549.7625 326.3719Q549.7625 325.84064 549.48126 325.46564Q549.21564 325.075 548.77814 324.95Q548.48126 324.8719 547.71564 324.8719L545.5125 324.8719L545.5125 327.95ZM552.2 334.84064L552.075 333.85626Q552.41876 333.95 552.6844 333.95Q553.02814 333.95 553.23126 333.825Q553.45 333.71564 553.59064 333.5125Q553.6844 333.34064 553.91876 332.71564Q553.9344 332.6375 554.0125 332.46564L551.6375 326.23126L552.77814 326.23126L554.075 329.825Q554.325 330.5125 554.52814 331.27814Q554.71564 330.54376 554.96564 329.85626L556.29376 326.23126L557.34064 326.23126L554.98126 332.5594Q554.59064 333.575 554.3875 333.96564Q554.10626 334.4969 553.73126 334.73126Q553.3719 334.98126 552.8719 334.98126Q552.575 334.98126 552.2 334.84064ZM560.54376 331.5125L560.7 332.4344Q560.2469 332.52814 559.90314 332.52814Q559.325 332.52814 559.0125 332.35626Q558.7 332.16876 558.5594 331.8719Q558.4344 331.575 558.4344 330.6219L558.4344 327.04376L557.66876 327.04376L557.66876 326.23126L558.4344 326.23126L558.4344 324.6844L559.48126 324.0594L559.48126 326.23126L560.54376 326.23126L560.54376 327.04376L559.48126 327.04376L559.48126 330.6844Q559.48126 331.1375 559.52814 331.2625Q559.59064 331.3875 559.71564 331.46564Q559.84064 331.54376 560.075 331.54376Q560.2625 331.54376 560.54376 331.5125ZM561.2469 332.45L561.2469 323.85626L562.29376 323.85626L562.29376 326.9344Q563.02814 326.09064 564.15314 326.09064Q564.85626 326.09064 565.35626 326.3719Q565.8719 326.6375 566.09064 327.1219Q566.3094 327.59064 566.3094 328.5125L566.3094 332.45L565.2625 332.45L565.2625 328.5125Q565.2625 327.71564 564.91876 327.35626Q564.575 326.9969 563.95 326.9969Q563.48126 326.9969 563.0594 327.2469Q562.65314 327.48126 562.46564 327.90314Q562.29376 328.3094 562.29376 329.04376L562.29376 332.45L561.2469 332.45ZM567.85626 329.34064Q567.85626 327.60626 568.8094 326.77814Q569.60626 326.09064 570.7625 326.09064Q572.04376 326.09064 572.85626 326.9344Q573.6844 327.7625 573.6844 329.2469Q573.6844 330.45 573.325 331.1375Q572.96564 331.825 572.2625 332.21564Q571.575 332.59064 570.7625 332.59064Q569.46564 332.59064 568.65314 331.7625Q567.85626 330.91876 567.85626 329.34064ZM568.9344 329.34064Q568.9344 330.52814 569.45 331.1219Q569.98126 331.71564 570.7625 331.71564Q571.5594 331.71564 572.075 331.1219Q572.59064 330.52814 572.59064 329.3094Q572.59064 328.15314 572.0594 327.5594Q571.54376 326.96564 570.7625 326.96564Q569.98126 326.96564 569.45 327.5594Q568.9344 328.1375 568.9344 329.34064ZM575.2469 332.45L575.2469 326.23126L576.1844 326.23126L576.1844 327.10626Q576.8719 326.09064 578.16876 326.09064Q578.73126 326.09064 579.2 326.29376Q579.6844 326.4969 579.91876 326.825Q580.15314 327.15314 580.2469 327.59064Q580.29376 327.8875 580.29376 328.6219L580.29376 332.45L579.2469 332.45L579.2469 328.66876Q579.2469 328.0125 579.1219 327.7Q578.9969 327.3875 578.6844 327.2Q578.3719 326.9969 577.95 326.9969Q577.27814 326.9969 576.77814 327.4344Q576.29376 327.85626 576.29376 329.04376L576.29376 332.45L575.2469 332.45Z" fill-rule="nonzero"/><path fill="#9e9e9e" d="M550.91876 349.45L549.8719 349.45L549.8719 342.73126Q549.48126 343.09064 548.85626 343.46564Q548.2469 343.825 547.7625 343.9969L547.7625 342.98126Q548.6375 342.5594 549.29376 341.98126Q549.96564 341.3875 550.2469 340.825L550.91876 340.825L550.91876 349.45ZM559.41876 342.96564L558.3719 343.04376Q558.23126 342.41876 557.98126 342.1375Q557.54376 341.6844 556.91876 341.6844Q556.41876 341.6844 556.02814 341.96564Q555.54376 342.34064 555.2469 343.04376Q554.96564 343.73126 554.95 345.0125Q555.325 344.4344 555.8719 344.15314Q556.4344 343.8719 557.04376 343.8719Q558.09064 343.8719 558.825 344.65314Q559.575 345.4344 559.575 346.65314Q559.575 347.46564 559.21564 348.16876Q558.8719 348.85626 558.2625 349.23126Q557.65314 349.59064 556.8875 349.59064Q555.5594 349.59064 554.73126 348.6219Q553.90314 347.65314 553.90314 345.4344Q553.90314 342.9344 554.825 341.8094Q555.6219 340.825 556.98126 340.825Q557.9969 340.825 558.6375 341.40314Q559.29376 341.96564 559.41876 342.96564ZM555.1219 346.66876Q555.1219 347.21564 555.34064 347.71564Q555.575 348.2 555.98126 348.46564Q556.40314 348.73126 556.8719 348.73126Q557.52814 348.73126 558.0125 348.2Q558.4969 347.65314 558.4969 346.73126Q558.4969 345.84064 558.0125 345.325Q557.54376 344.8094 556.825 344.8094Q556.10626 344.8094 555.60626 345.325Q555.1219 345.84064 555.1219 346.66876ZM561.54376 349.45L561.54376 348.2469L562.7469 348.2469L562.7469 349.45L561.54376 349.45ZM564.10626 347.46564L565.1219 347.3719Q565.2469 348.09064 565.60626 348.41876Q565.98126 348.73126 566.54376 348.73126Q567.02814 348.73126 567.3875 348.5125Q567.7625 348.27814 567.9969 347.91876Q568.23126 347.54376 568.3875 346.91876Q568.54376 346.27814 568.54376 345.6219Q568.54376 345.54376 568.54376 345.40314Q568.23126 345.90314 567.6844 346.23126Q567.1375 346.54376 566.4969 346.54376Q565.41876 346.54376 564.6844 345.77814Q563.95 344.9969 563.95 343.73126Q563.95 342.41876 564.71564 341.6219Q565.4969 340.825 566.65314 340.825Q567.48126 340.825 568.16876 341.27814Q568.8719 341.73126 569.23126 342.575Q569.59064 343.40314 569.59064 344.98126Q569.59064 346.6219 569.23126 347.60626Q568.8875 348.575 568.16876 349.09064Q567.46564 349.59064 566.52814 349.59064Q565.5125 349.59064 564.8719 349.04376Q564.23126 348.48126 564.10626 347.46564ZM568.41876 343.66876Q568.41876 342.7625 567.9344 342.23126Q567.46564 341.7 566.77814 341.7Q566.075 341.7 565.54376 342.27814Q565.02814 342.84064 565.02814 343.7625Q565.02814 344.575 565.52814 345.09064Q566.02814 345.60626 566.7469 345.60626Q567.48126 345.60626 567.95 345.09064Q568.41876 344.575 568.41876 343.66876ZM571.15314 342.91876Q571.15314 341.9969 571.60626 341.35626Q572.075 340.71564 572.95 340.71564Q573.7625 340.71564 574.29376 341.29376Q574.825 341.8719 574.825 342.98126Q574.825 344.075 574.27814 344.66876Q573.7469 345.2469 572.96564 345.2469Q572.1844 345.2469 571.66876 344.66876Q571.15314 344.09064 571.15314 342.91876ZM572.98126 341.4344Q572.59064 341.4344 572.325 341.77814Q572.075 342.1219 572.075 343.02814Q572.075 343.85626 572.325 344.2Q572.59064 344.52814 572.98126 344.52814Q573.3875 344.52814 573.6375 344.1844Q573.90314 343.84064 573.90314 342.95Q573.90314 342.10626 573.6375 341.77814Q573.3719 341.4344 572.98126 341.4344ZM572.98126 349.7625L577.6844 340.71564L578.54376 340.71564L573.85626 349.7625L572.98126 349.7625ZM576.7 347.4344Q576.7 346.5125 577.15314 345.8719Q577.6219 345.23126 578.5125 345.23126Q579.325 345.23126 579.85626 345.8094Q580.3875 346.3719 580.3875 347.4969Q580.3875 348.59064 579.84064 349.1844Q579.3094 349.7625 578.5125 349.7625Q577.7469 349.7625 577.21564 349.1844Q576.7 348.60626 576.7 347.4344ZM578.54376 345.95Q578.1375 345.95 577.8719 346.29376Q577.6219 346.6375 577.6219 347.54376Q577.6219 348.35626 577.8875 348.7Q578.15314 349.04376 578.54376 349.04376Q578.9344 349.04376 579.2 348.7Q579.46564 348.35626 579.46564 347.45Q579.46564 346.6219 579.2 346.29376Q578.9344 345.95 578.54376 345.95Z" fill-rule="nonzero"/><path stroke="#757575" stroke-width="1.0" stroke-linecap="butt" d="M581.45 336.95L454.76666 336.95L320.29636 343.5467" fill-rule="nonzero"/><path fill="#9e9e9e" d="M322.29636 343.5467C322.29636 342.4421 321.40094 341.5467 320.29636 341.5467C319.1918 341.5467 318.29636 342.4421 318.29636 343.5467C318.29636 344.65125 319.1918 345.5467 320.29636 345.5467C321.40094 345.5467 322.29636 344.65125 322.29636 343.5467" fill-rule="nonzero"/><path fill="#757575" d="M20.409374 37.55L20.409374 23.2375L22.315624 23.2375L22.315624 37.55L20.409374 37.55ZM26.284374 37.55L26.284374 28.55L24.7375 28.55L24.7375 27.175L26.284374 27.175L26.284374 26.08125Q26.284374 25.034374 26.471874 24.51875Q26.721874 23.83125 27.3625 23.409374Q28.003124 22.9875 29.159374 22.9875Q29.909374 22.9875 30.8 23.159374L30.534374 24.690624Q29.9875 24.596874 29.503124 24.596874Q28.70625 24.596874 28.3625 24.940624Q28.034374 25.284374 28.034374 26.221874L28.034374 27.175L30.065624 27.175L30.065624 28.55L28.034374 28.55L28.034374 37.55L26.284374 37.55ZM37.784374 41.55L37.596874 39.89375Q38.175 40.05 38.596874 40.05Q39.190624 40.05 39.534374 39.846874Q39.89375 39.659374 40.1125 39.315624Q40.284374 39.05 40.659374 38.003124Q40.70625 37.846874 40.815624 37.565624L36.878124 27.175L38.76875 27.175L40.925 33.190624Q41.346874 34.33125 41.675 35.58125Q41.9875 34.378124 42.39375 33.221874L44.6125 27.175L46.378124 27.175L42.425 37.721874Q41.8 39.440624 41.440624 40.08125Q40.971874 40.95625 40.3625 41.346874Q39.76875 41.753124 38.925 41.753124Q38.409374 41.753124 37.784374 41.55ZM47.221874 32.3625Q47.221874 29.4875 48.815624 28.096874Q50.159374 26.940624 52.08125 26.940624Q54.221874 26.940624 55.565624 28.346874Q56.925 29.753124 56.925 32.221874Q56.925 34.221874 56.33125 35.378124Q55.7375 36.51875 54.58125 37.159374Q53.440624 37.784374 52.08125 37.784374Q49.89375 37.784374 48.55 36.39375Q47.221874 34.9875 47.221874 32.3625ZM49.01875 32.3625Q49.01875 34.3625 49.878124 35.346874Q50.753124 36.33125 52.08125 36.33125Q53.39375 36.33125 54.253124 35.346874Q55.128124 34.346874 55.128124 32.3Q55.128124 30.378124 54.253124 29.39375Q53.378124 28.39375 52.08125 28.39375Q50.753124 28.39375 49.878124 29.39375Q49.01875 30.378124 49.01875 32.3625ZM65.65938 37.55L65.65938 36.01875Q64.45625 37.784374 62.378124 37.784374Q61.45625 37.784374 60.659374 37.440624Q59.8625 37.08125 59.471874 36.55Q59.096874 36.01875 58.940624 35.2375Q58.83125 34.721874 58.83125 33.596874L58.83125 27.175L60.58125 27.175L60.58125 32.925Q60.58125 34.3 60.690624 34.784374Q60.8625 35.471874 61.39375 35.878124Q61.940624 36.26875 62.721874 36.26875Q63.51875 36.26875 64.20625 35.8625Q64.90938 35.45625 65.19063 34.76875Q65.4875 34.065624 65.4875 32.7375L65.4875 27.175L67.2375 27.175L67.2375 37.55L65.65938 37.55ZM77.78438 37.55L74.6125 27.175L76.425 27.175L78.08125 33.159374L78.69063 35.39375Q78.7375 35.221874 79.22188 33.253124L80.87813 27.175L82.69063 27.175L84.2375 33.190624L84.75313 35.175L85.34688 33.175L87.12813 27.175L88.83125 27.175L85.59688 37.55L83.76875 37.55L82.1125 31.33125L81.72188 29.565624L79.6125 37.55L77.78438 37.55ZM96.64375 36.26875Q95.65938 37.096874 94.75313 37.440624Q93.84688 37.784374 92.81563 37.784374Q91.1125 37.784374 90.19063 36.95625Q89.26875 36.1125 89.26875 34.815624Q89.26875 34.05 89.6125 33.425Q89.97188 32.8 90.53438 32.425Q91.09688 32.034374 91.8 31.83125Q92.31563 31.70625 93.3625 31.565624Q95.4875 31.315624 96.4875 30.971874Q96.50313 30.6125 96.50313 30.503124Q96.50313 29.440624 96.00313 28.9875Q95.33125 28.39375 94.00313 28.39375Q92.75313 28.39375 92.15938 28.83125Q91.58125 29.26875 91.3 30.378124L89.58125 30.14375Q89.81563 29.034374 90.34688 28.3625Q90.87813 27.675 91.89375 27.315624Q92.90938 26.940624 94.25313 26.940624Q95.58125 26.940624 96.40938 27.253124Q97.2375 27.565624 97.62813 28.05Q98.01875 28.51875 98.175 29.2375Q98.26875 29.690624 98.26875 30.8625L98.26875 33.20625Q98.26875 35.659374 98.37813 36.315624Q98.4875 36.95625 98.83125 37.55L96.9875 37.55Q96.72188 37.003124 96.64375 36.26875ZM96.4875 32.346874Q95.53438 32.7375 93.6125 33.003124Q92.53438 33.159374 92.08125 33.3625Q91.64375 33.55 91.39375 33.925Q91.14375 34.3 91.14375 34.76875Q91.14375 35.471874 91.675 35.940624Q92.20625 36.409374 93.2375 36.409374Q94.25313 36.409374 95.03438 35.971874Q95.83125 35.51875 96.20625 34.753124Q96.4875 34.14375 96.4875 32.9875L96.4875 32.346874ZM100.8625 37.55L100.8625 27.175L102.45625 27.175L102.45625 28.659374Q103.59688 26.940624 105.75313 26.940624Q106.69063 26.940624 107.47188 27.284374Q108.26875 27.6125 108.65938 28.159374Q109.05 28.70625 109.20625 29.45625Q109.3 29.95625 109.3 31.175L109.3 37.55L107.53438 37.55L107.53438 31.2375Q107.53438 30.159374 107.33125 29.628124Q107.12813 29.096874 106.59688 28.784374Q106.08125 28.471874 105.37813 28.471874Q104.25313 28.471874 103.44063 29.190624Q102.62813 29.89375 102.62813 31.878124L102.62813 37.55L100.8625 37.55ZM115.70625 35.971874L115.95625 37.534374Q115.22188 37.690624 114.62813 37.690624Q113.675 37.690624 113.14375 37.39375Q112.62813 37.08125 112.40938 36.596874Q112.19063 36.096874 112.19063 34.51875L112.19063 28.55L110.90938 28.55L110.90938 27.175L112.19063 27.175L112.19063 24.6125L113.94063 23.55L113.94063 27.175L115.70625 27.175L115.70625 28.55L113.94063 28.55L113.94063 34.6125Q113.94063 35.3625 114.03438 35.58125Q114.12813 35.784374 114.33125 35.925Q114.55 36.05 114.94063 36.05Q115.22188 36.05 115.70625 35.971874ZM125.4875 37.55L123.8625 37.55L123.8625 23.2375L125.6125 23.2375L125.6125 28.346874Q126.7375 26.940624 128.45625 26.940624Q129.40938 26.940624 130.26875 27.33125Q131.12813 27.721874 131.675 28.425Q132.22188 29.1125 132.53438 30.096874Q132.84688 31.08125 132.84688 32.20625Q132.84688 34.878124 131.53438 36.33125Q130.22188 37.784374 128.37813 37.784374Q126.53438 37.784374 125.4875 36.253124L125.4875 37.55ZM125.47188 32.284374Q125.47188 34.14375 125.97188 34.9875Q126.81563 36.33125 128.22188 36.33125Q129.37813 36.33125 130.20625 35.33125Q131.05 34.33125 131.05 32.346874Q131.05 30.315624 130.2375 29.3625Q129.44063 28.39375 128.3 28.39375Q127.14375 28.39375 126.3 29.39375Q125.47188 30.39375 125.47188 32.284374ZM141.97188 34.20625L143.78438 34.440624Q143.3625 36.01875 142.19063 36.909374Q141.03438 37.784374 139.22188 37.784374Q136.95625 37.784374 135.6125 36.39375Q134.28438 34.9875 134.28438 32.45625Q134.28438 29.83125 135.62813 28.39375Q136.97188 26.940624 139.12813 26.940624Q141.20625 26.940624 142.51875 28.3625Q143.84688 29.76875 143.84688 32.346874Q143.84688 32.503124 143.83125 32.815624L136.09688 32.815624Q136.19063 34.51875 137.06563 35.425Q137.94063 36.33125 139.2375 36.33125Q140.20625 36.33125 140.87813 35.83125Q141.56563 35.315624 141.97188 34.20625ZM136.19063 31.3625L141.9875 31.3625Q141.87813 30.065624 141.33125 29.409374Q140.4875 28.39375 139.14375 28.39375Q137.94063 28.39375 137.1125 29.20625Q136.28438 30.003124 136.19063 31.3625ZM149.70625 35.971874L149.95625 37.534374Q149.22188 37.690624 148.62813 37.690624Q147.675 37.690624 147.14375 37.39375Q146.62813 37.08125 146.40938 36.596874Q146.19063 36.096874 146.19063 34.51875L146.19063 28.55L144.90938 28.55L144.90938 27.175L146.19063 27.175L146.19063 24.6125L147.94063 23.55L147.94063 27.175L149.70625 27.175L149.70625 28.55L147.94063 28.55L147.94063 34.6125Q147.94063 35.3625 148.03438 35.58125Q148.12813 35.784374 148.33125 35.925Q148.55 36.05 148.94063 36.05Q149.22188 36.05 149.70625 35.971874ZM155.70625 35.971874L155.95625 37.534374Q155.22188 37.690624 154.62813 37.690624Q153.675 37.690624 153.14375 37.39375Q152.62813 37.08125 152.40938 36.596874Q152.19063 36.096874 152.19063 34.51875L152.19063 28.55L150.90938 28.55L150.90938 27.175L152.19063 27.175L152.19063 24.6125L153.94063 23.55L153.94063 27.175L155.70625 27.175L155.70625 28.55L153.94063 28.55L153.94063 34.6125Q153.94063 35.3625 154.03438 35.58125Q154.12813 35.784374 154.33125 35.925Q154.55 36.05 154.94063 36.05Q155.22188 36.05 155.70625 35.971874ZM164.97188 34.20625L166.78438 34.440624Q166.3625 36.01875 165.19063 36.909374Q164.03438 37.784374 162.22188 37.784374Q159.95625 37.784374 158.6125 36.39375Q157.28438 34.9875 157.28438 32.45625Q157.28438 29.83125 158.62813 28.39375Q159.97188 26.940624 162.12813 26.940624Q164.20625 26.940624 165.51875 28.3625Q166.84688 29.76875 166.84688 32.346874Q166.84688 32.503124 166.83125 32.815624L159.09688 32.815624Q159.19063 34.51875 160.06563 35.425Q160.94063 36.33125 162.2375 36.33125Q163.20625 36.33125 163.87813 35.83125Q164.56563 35.315624 164.97188 34.20625ZM159.19063 31.3625L164.9875 31.3625Q164.87813 30.065624 164.33125 29.409374Q163.4875 28.39375 162.14375 28.39375Q160.94063 28.39375 160.1125 29.20625Q159.28438 30.003124 159.19063 31.3625ZM168.84688 37.55L168.84688 27.175L170.425 27.175L170.425 28.753124Q171.03438 27.64375 171.55 27.3Q172.06563 26.940624 172.675 26.940624Q173.56563 26.940624 174.4875 27.503124L173.87813 29.14375Q173.2375 28.753124 172.59688 28.753124Q172.01875 28.753124 171.55 29.1125Q171.09688 29.45625 170.89375 30.065624Q170.6125 31.003124 170.6125 32.1125L170.6125 37.55L168.84688 37.55ZM181.83125 37.55L181.83125 23.2375L183.58125 23.2375L183.58125 37.55L181.83125 37.55ZM192.64375 36.26875Q191.65938 37.096874 190.75313 37.440624Q189.84688 37.784374 188.81563 37.784374Q187.1125 37.784374 186.19063 36.95625Q185.26875 36.1125 185.26875 34.815624Q185.26875 34.05 185.6125 33.425Q185.97188 32.8 186.53438 32.425Q187.09688 32.034374 187.8 31.83125Q188.31563 31.70625 189.3625 31.565624Q191.4875 31.315624 192.4875 30.971874Q192.50313 30.6125 192.50313 30.503124Q192.50313 29.440624 192.00313 28.9875Q191.33125 28.39375 190.00313 28.39375Q188.75313 28.39375 188.15938 28.83125Q187.58125 29.26875 187.3 30.378124L185.58125 30.14375Q185.81563 29.034374 186.34688 28.3625Q186.87813 27.675 187.89375 27.315624Q188.90938 26.940624 190.25313 26.940624Q191.58125 26.940624 192.40938 27.253124Q193.2375 27.565624 193.62813 28.05Q194.01875 28.51875 194.175 29.2375Q194.26875 29.690624 194.26875 30.8625L194.26875 33.20625Q194.26875 35.659374 194.37813 36.315624Q194.4875 36.95625 194.83125 37.55L192.9875 37.55Q192.72188 37.003124 192.64375 36.26875ZM192.4875 32.346874Q191.53438 32.7375 189.6125 33.003124Q188.53438 33.159374 188.08125 33.3625Q187.64375 33.55 187.39375 33.925Q187.14375 34.3 187.14375 34.76875Q187.14375 35.471874 187.675 35.940624Q188.20625 36.409374 189.2375 36.409374Q190.25313 36.409374 191.03438 35.971874Q191.83125 35.51875 192.20625 34.753124Q192.4875 34.14375 192.4875 32.9875L192.4875 32.346874ZM196.8625 37.55L196.8625 27.175L198.45625 27.175L198.45625 28.659374Q199.59688 26.940624 201.75313 26.940624Q202.69063 26.940624 203.47188 27.284374Q204.26875 27.6125 204.65938 28.159374Q205.05 28.70625 205.20625 29.45625Q205.3 29.95625 205.3 31.175L205.3 37.55L203.53438 37.55L203.53438 31.2375Q203.53438 30.159374 203.33125 29.628124Q203.12813 29.096874 202.59688 28.784374Q202.08125 28.471874 201.37813 28.471874Q200.25313 28.471874 199.44063 29.190624Q198.62813 29.89375 198.62813 31.878124L198.62813 37.55L196.8625 37.55ZM207.55 38.409374L209.25313 38.659374Q209.3625 39.45625 209.84688 39.815624Q210.50313 40.3 211.64375 40.3Q212.8625 40.3 213.51875 39.815624Q214.19063 39.33125 214.425 38.45625Q214.56563 37.909374 214.55 36.190624Q213.39375 37.55 211.675 37.55Q209.53438 37.55 208.3625 36.003124Q207.19063 34.45625 207.19063 32.3Q207.19063 30.815624 207.72188 29.565624Q208.26875 28.315624 209.28438 27.628124Q210.31563 26.940624 211.69063 26.940624Q213.51875 26.940624 214.72188 28.425L214.72188 27.175L216.33125 27.175L216.33125 36.14375Q216.33125 38.565624 215.83125 39.565624Q215.34688 40.58125 214.26875 41.159374Q213.20625 41.753124 211.64375 41.753124Q209.8 41.753124 208.64375 40.925Q207.50313 40.096874 207.55 38.409374ZM209.00313 32.175Q209.00313 34.221874 209.81563 35.159374Q210.62813 36.096874 211.84688 36.096874Q213.05 36.096874 213.8625 35.159374Q214.69063 34.221874 214.69063 32.2375Q214.69063 30.33125 213.84688 29.3625Q213.00313 28.39375 211.81563 28.39375Q210.64375 28.39375 209.81563 29.346874Q209.00313 30.3 209.00313 32.175ZM225.65938 37.55L225.65938 36.01875Q224.45625 37.784374 222.37813 37.784374Q221.45625 37.784374 220.65938 37.440624Q219.8625 37.08125 219.47188 36.55Q219.09688 36.01875 218.94063 35.2375Q218.83125 34.721874 218.83125 33.596874L218.83125 27.175L220.58125 27.175L220.58125 32.925Q220.58125 34.3 220.69063 34.784374Q220.8625 35.471874 221.39375 35.878124Q221.94063 36.26875 222.72188 36.26875Q223.51875 36.26875 224.20625 35.8625Q224.90938 35.45625 225.19063 34.76875Q225.4875 34.065624 225.4875 32.7375L225.4875 27.175L227.2375 27.175L227.2375 37.55L225.65938 37.55ZM236.64375 36.26875Q235.65938 37.096874 234.75313 37.440624Q233.84688 37.784374 232.81563 37.784374Q231.1125 37.784374 230.19063 36.95625Q229.26875 36.1125 229.26875 34.815624Q229.26875 34.05 229.6125 33.425Q229.97188 32.8 230.53438 32.425Q231.09688 32.034374 231.8 31.83125Q232.31563 31.70625 233.3625 31.565624Q235.4875 31.315624 236.4875 30.971874Q236.50313 30.6125 236.50313 30.503124Q236.50313 29.440624 236.00313 28.9875Q235.33125 28.39375 234.00313 28.39375Q232.75313 28.39375 232.15938 28.83125Q231.58125 29.26875 231.3 30.378124L229.58125 30.14375Q229.81563 29.034374 230.34688 28.3625Q230.87813 27.675 231.89375 27.315624Q232.90938 26.940624 234.25313 26.940624Q235.58125 26.940624 236.40938 27.253124Q237.2375 27.565624 237.62813 28.05Q238.01875 28.51875 238.175 29.2375Q238.26875 29.690624 238.26875 30.8625L238.26875 33.20625Q238.26875 35.659374 238.37813 36.315624Q238.4875 36.95625 238.83125 37.55L236.9875 37.55Q236.72188 37.003124 236.64375 36.26875ZM236.4875 32.346874Q235.53438 32.7375 233.6125 33.003124Q232.53438 33.159374 232.08125 33.3625Q231.64375 33.55 231.39375 33.925Q231.14375 34.3 231.14375 34.76875Q231.14375 35.471874 231.675 35.940624Q232.20625 36.409374 233.2375 36.409374Q234.25313 36.409374 235.03438 35.971874Q235.83125 35.51875 236.20625 34.753124Q236.4875 34.14375 236.4875 32.9875L236.4875 32.346874ZM240.55 38.409374L242.25313 38.659374Q242.3625 39.45625 242.84688 39.815624Q243.50313 40.3 244.64375 40.3Q245.8625 40.3 246.51875 39.815624Q247.19063 39.33125 247.425 38.45625Q247.56563 37.909374 247.55 36.190624Q246.39375 37.55 244.675 37.55Q242.53438 37.55 241.3625 36.003124Q240.19063 34.45625 240.19063 32.3Q240.19063 30.815624 240.72188 29.565624Q241.26875 28.315624 242.28438 27.628124Q243.31563 26.940624 244.69063 26.940624Q246.51875 26.940624 247.72188 28.425L247.72188 27.175L249.33125 27.175L249.33125 36.14375Q249.33125 38.565624 248.83125 39.565624Q248.34688 40.58125 247.26875 41.159374Q246.20625 41.753124 244.64375 41.753124Q242.8 41.753124 241.64375 40.925Q240.50313 40.096874 240.55 38.409374ZM242.00313 32.175Q242.00313 34.221874 242.81563 35.159374Q243.62813 36.096874 244.84688 36.096874Q246.05 36.096874 246.8625 35.159374Q247.69063 34.221874 247.69063 32.2375Q247.69063 30.33125 246.84688 29.3625Q246.00313 28.39375 244.81563 28.39375Q243.64375 28.39375 242.81563 29.346874Q242.00313 30.3 242.00313 32.175ZM258.97186 34.20625L260.78436 34.440624Q260.3625 36.01875 259.1906 36.909374Q258.03436 37.784374 256.22186 37.784374Q253.95625 37.784374 252.6125 36.39375Q251.28438 34.9875 251.28438 32.45625Q251.28438 29.83125 252.62813 28.39375Q253.97188 26.940624 256.1281 26.940624Q258.20624 26.940624 259.51874 28.3625Q260.84686 29.76875 260.84686 32.346874Q260.84686 32.503124 260.83124 32.815624L253.09688 32.815624Q253.19063 34.51875 254.06563 35.425Q254.94063 36.33125 256.2375 36.33125Q257.20624 36.33125 257.8781 35.83125Q258.5656 35.315624 258.97186 34.20625ZM253.19063 31.3625L258.9875 31.3625Q258.8781 30.065624 258.33124 29.409374Q257.4875 28.39375 256.14374 28.39375Q254.94063 28.39375 254.1125 29.20625Q253.28438 30.003124 253.19063 31.3625ZM268.8781 25.253124L268.8781 23.2375L270.64374 23.2375L270.64374 25.253124L268.8781 25.253124ZM268.8781 37.55L268.8781 27.175L270.64374 27.175L270.64374 37.55L268.8781 37.55ZM272.8625 37.55L272.8625 27.175L274.45624 27.175L274.45624 28.659374Q275.59686 26.940624 277.7531 26.940624Q278.6906 26.940624 279.47186 27.284374Q280.26874 27.6125 280.65936 28.159374Q281.05 28.70625 281.20624 29.45625Q281.3 29.95625 281.3 31.175L281.3 37.55L279.53436 37.55L279.53436 31.2375Q279.53436 30.159374 279.33124 29.628124Q279.1281 29.096874 278.59686 28.784374Q278.08124 28.471874 277.3781 28.471874Q276.2531 28.471874 275.4406 29.190624Q274.6281 29.89375 274.6281 31.878124L274.6281 37.55L272.8625 37.55ZM287.70624 35.971874L287.95624 37.534374Q287.22186 37.690624 286.6281 37.690624Q285.675 37.690624 285.14374 37.39375Q284.6281 37.08125 284.40936 36.596874Q284.1906 36.096874 284.1906 34.51875L284.1906 28.55L282.90936 28.55L282.90936 27.175L284.1906 27.175L284.1906 24.6125L285.9406 23.55L285.9406 27.175L287.70624 27.175L287.70624 28.55L285.9406 28.55L285.9406 34.6125Q285.9406 35.3625 286.03436 35.58125Q286.1281 35.784374 286.33124 35.925Q286.55 36.05 286.9406 36.05Q287.22186 36.05 287.70624 35.971874ZM296.97186 34.20625L298.78436 34.440624Q298.3625 36.01875 297.1906 36.909374Q296.03436 37.784374 294.22186 37.784374Q291.95624 37.784374 290.6125 36.39375Q289.28436 34.9875 289.28436 32.45625Q289.28436 29.83125 290.6281 28.39375Q291.97186 26.940624 294.1281 26.940624Q296.20624 26.940624 297.51874 28.3625Q298.84686 29.76875 298.84686 32.346874Q298.84686 32.503124 298.83124 32.815624L291.09686 32.815624Q291.1906 34.51875 292.0656 35.425Q292.9406 36.33125 294.2375 36.33125Q295.20624 36.33125 295.8781 35.83125Q296.5656 35.315624 296.97186 34.20625ZM291.1906 31.3625L296.9875 31.3625Q296.8781 30.065624 296.33124 29.409374Q295.4875 28.39375 294.14374 28.39375Q292.9406 28.39375 292.1125 29.20625Q291.28436 30.003124 291.1906 31.3625ZM300.84686 37.55L300.84686 27.175L302.425 27.175L302.425 28.753124Q303.03436 27.64375 303.55 27.3Q304.0656 26.940624 304.675 26.940624Q305.5656 26.940624 306.4875 27.503124L305.8781 29.14375Q305.2375 28.753124 304.59686 28.753124Q304.01874 28.753124 303.55 29.1125Q303.09686 29.45625 302.89374 30.065624Q302.6125 31.003124 302.6125 32.1125L302.6125 37.55L300.84686 37.55ZM307.22186 32.3625Q307.22186 29.4875 308.8156 28.096874Q310.15936 26.940624 312.08124 26.940624Q314.22186 26.940624 315.5656 28.346874Q316.925 29.753124 316.925 32.221874Q316.925 34.221874 316.33124 35.378124Q315.7375 36.51875 314.58124 37.159374Q313.4406 37.784374 312.08124 37.784374Q309.89374 37.784374 308.55 36.39375Q307.22186 34.9875 307.22186 32.3625ZM309.01874 32.3625Q309.01874 34.3625 309.8781 35.346874Q310.7531 36.33125 312.08124 36.33125Q313.39374 36.33125 314.2531 35.346874Q315.1281 34.346874 315.1281 32.3Q315.1281 30.378124 314.2531 29.39375Q313.3781 28.39375 312.08124 28.39375Q310.7531 28.39375 309.8781 29.39375Q309.01874 30.378124 309.01874 32.3625ZM318.8625 41.51875L318.8625 27.175L320.47186 27.175L320.47186 28.51875Q321.03436 27.7375 321.7375 27.346874Q322.45624 26.940624 323.47186 26.940624Q324.8 26.940624 325.8156 27.628124Q326.83124 28.315624 327.34686 29.565624Q327.8781 30.8 327.8781 32.284374Q327.8781 33.878124 327.3 35.159374Q326.7375 36.425 325.64374 37.1125Q324.55 37.784374 323.34686 37.784374Q322.47186 37.784374 321.76874 37.409374Q321.08124 37.034374 320.6281 36.471874L320.6281 41.51875L318.8625 41.51875ZM320.45624 32.425Q320.45624 34.425 321.26874 35.378124Q322.08124 36.33125 323.2375 36.33125Q324.40936 36.33125 325.2375 35.346874Q326.08124 34.3625 326.08124 32.26875Q326.08124 30.3 325.2531 29.315624Q324.4406 28.315624 323.3156 28.315624Q322.1906 28.315624 321.3156 29.378124Q320.45624 30.425 320.45624 32.425ZM330.33124 37.55L330.33124 35.55L332.33124 35.55L332.33124 37.55Q332.33124 38.659374 331.9406 39.33125Q331.55 40.01875 330.70624 40.378124L330.20624 39.628124Q330.76874 39.39375 331.03436 38.909374Q331.3 38.440624 331.33124 37.55L330.33124 37.55ZM343.78436 37.55L340.6125 27.175L342.425 27.175L344.08124 33.159374L344.6906 35.39375Q344.7375 35.221874 345.22186 33.253124L346.8781 27.175L348.6906 27.175L350.2375 33.190624L350.7531 35.175L351.34686 33.175L353.1281 27.175L354.83124 27.175L351.59686 37.55L349.76874 37.55L348.1125 31.33125L347.72186 29.565624L345.6125 37.55L343.78436 37.55ZM355.8781 25.253124L355.8781 23.2375L357.64374 23.2375L357.64374 25.253124L355.8781 25.253124ZM355.8781 37.55L355.8781 27.175L357.64374 27.175L357.64374 37.55L355.8781 37.55ZM363.70624 35.971874L363.95624 37.534374Q363.22186 37.690624 362.6281 37.690624Q361.675 37.690624 361.14374 37.39375Q360.6281 37.08125 360.40936 36.596874Q360.1906 36.096874 360.1906 34.51875L360.1906 28.55L358.90936 28.55L358.90936 27.175L360.1906 27.175L360.1906 24.6125L361.9406 23.55L361.9406 27.175L363.70624 27.175L363.70624 28.55L361.9406 28.55L361.9406 34.6125Q361.9406 35.3625 362.03436 35.58125Q362.1281 35.784374 362.33124 35.925Q362.55 36.05 362.9406 36.05Q363.22186 36.05 363.70624 35.971874ZM365.8625 37.55L365.8625 23.2375L367.6281 23.2375L367.6281 28.3625Q368.8625 26.940624 370.7375 26.940624Q371.8781 26.940624 372.72186 27.39375Q373.58124 27.846874 373.9406 28.659374Q374.3156 29.45625 374.3156 30.971874L374.3156 37.55L372.5656 37.55L372.5656 30.971874Q372.5656 29.659374 371.9875 29.065624Q371.40936 28.45625 370.3781 28.45625Q369.59686 28.45625 368.89374 28.8625Q368.20624 29.26875 367.90936 29.971874Q367.6281 30.659374 367.6281 31.878124L367.6281 37.55L365.8625 37.55ZM384.78436 37.55L381.6125 27.175L383.425 27.175L385.08124 33.159374L385.6906 35.39375Q385.7375 35.221874 386.22186 33.253124L387.8781 27.175L389.6906 27.175L391.2375 33.190624L391.7531 35.175L392.34686 33.175L394.1281 27.175L395.83124 27.175L392.59686 37.55L390.76874 37.55L389.1125 31.33125L388.72186 29.565624L386.6125 37.55L384.78436 37.55ZM396.8625 37.55L396.8625 23.2375L398.6281 23.2375L398.6281 28.3625Q399.8625 26.940624 401.7375 26.940624Q402.8781 26.940624 403.72186 27.39375Q404.58124 27.846874 404.9406 28.659374Q405.3156 29.45625 405.3156 30.971874L405.3156 37.55L403.5656 37.55L403.5656 30.971874Q403.5656 29.659374 402.9875 29.065624Q402.40936 28.45625 401.3781 28.45625Q400.59686 28.45625 399.89374 28.8625Q399.20624 29.26875 398.90936 29.971874Q398.6281 30.659374 398.6281 31.878124L398.6281 37.55L396.8625 37.55ZM407.8781 25.253124L407.8781 23.2375L409.64374 23.2375L409.64374 25.253124L407.8781 25.253124ZM407.8781 37.55L407.8781 27.175L409.64374 27.175L409.64374 37.55L407.8781 37.55ZM418.64374 33.753124L420.3625 33.971874Q420.08124 35.76875 418.90936 36.784374Q417.7531 37.784374 416.05 37.784374Q413.925 37.784374 412.6281 36.39375Q411.33124 35.003124 411.33124 32.409374Q411.33124 30.721874 411.8781 29.471874Q412.4406 28.20625 413.58124 27.58125Q414.72186 26.940624 416.0656 26.940624Q417.7531 26.940624 418.8156 27.8Q419.89374 28.659374 420.20624 30.221874L418.4875 30.4875Q418.2531 29.440624 417.6281 28.925Q417.0031 28.39375 416.1281 28.39375Q414.8 28.39375 413.97186 29.346874Q413.14374 30.3 413.14374 32.346874Q413.14374 34.440624 413.9406 35.39375Q414.7375 36.33125 416.03436 36.33125Q417.0656 36.33125 417.7531 35.70625Q418.45624 35.065624 418.64374 33.753124ZM421.8625 37.55L421.8625 23.2375L423.6281 23.2375L423.6281 28.3625Q424.8625 26.940624 426.7375 26.940624Q427.8781 26.940624 428.72186 27.39375Q429.58124 27.846874 429.9406 28.659374Q430.3156 29.45625 430.3156 30.971874L430.3156 37.55L428.5656 37.55L428.5656 30.971874Q428.5656 29.659374 427.9875 29.065624Q427.40936 28.45625 426.3781 28.45625Q425.59686 28.45625 424.89374 28.8625Q424.20624 29.26875 423.90936 29.971874Q423.6281 30.659374 423.6281 31.878124L423.6281 37.55L421.8625 37.55ZM438.83124 37.55L438.83124 23.2375L440.58124 23.2375L440.58124 37.55L438.83124 37.55ZM449.64374 36.26875Q448.65936 37.096874 447.7531 37.440624Q446.84686 37.784374 445.8156 37.784374Q444.1125 37.784374 443.1906 36.95625Q442.26874 36.1125 442.26874 34.815624Q442.26874 34.05 442.6125 33.425Q442.97186 32.8 443.53436 32.425Q444.09686 32.034374 444.8 31.83125Q445.3156 31.70625 446.3625 31.565624Q448.4875 31.315624 449.4875 30.971874Q449.5031 30.6125 449.5031 30.503124Q449.5031 29.440624 449.0031 28.9875Q448.33124 28.39375 447.0031 28.39375Q445.7531 28.39375 445.15936 28.83125Q444.58124 29.26875 444.3 30.378124L442.58124 30.14375Q442.8156 29.034374 443.34686 28.3625Q443.8781 27.675 444.89374 27.315624Q445.90936 26.940624 447.2531 26.940624Q448.58124 26.940624 449.40936 27.253124Q450.2375 27.565624 450.6281 28.05Q451.01874 28.51875 451.175 29.2375Q451.26874 29.690624 451.26874 30.8625L451.26874 33.20625Q451.26874 35.659374 451.3781 36.315624Q451.4875 36.95625 451.83124 37.55L449.9875 37.55Q449.72186 37.003124 449.64374 36.26875ZM449.4875 32.346874Q448.53436 32.7375 446.6125 33.003124Q445.53436 33.159374 445.08124 33.3625Q444.64374 33.55 444.39374 33.925Q444.14374 34.3 444.14374 34.76875Q444.14374 35.471874 444.675 35.940624Q445.20624 36.409374 446.2375 36.409374Q447.2531 36.409374 448.03436 35.971874Q448.83124 35.51875 449.20624 34.753124Q449.4875 34.14375 449.4875 32.9875L449.4875 32.346874ZM453.8625 37.55L453.8625 27.175L455.45624 27.175L455.45624 28.659374Q456.59686 26.940624 458.7531 26.940624Q459.6906 26.940624 460.47186 27.284374Q461.26874 27.6125 461.65936 28.159374Q462.05 28.70625 462.20624 29.45625Q462.3 29.95625 462.3 31.175L462.3 37.55L460.53436 37.55L460.53436 31.2375Q460.53436 30.159374 460.33124 29.628124Q460.1281 29.096874 459.59686 28.784374Q459.08124 28.471874 458.3781 28.471874Q457.2531 28.471874 456.4406 29.190624Q455.6281 29.89375 455.6281 31.878124L455.6281 37.55L453.8625 37.55ZM464.55 38.409374L466.2531 38.659374Q466.3625 39.45625 466.84686 39.815624Q467.5031 40.3 468.64374 40.3Q469.8625 40.3 470.51874 39.815624Q471.1906 39.33125 471.425 38.45625Q471.5656 37.909374 471.55 36.190624Q470.39374 37.55 468.675 37.55Q466.53436 37.55 465.3625 36.003124Q464.1906 34.45625 464.1906 32.3Q464.1906 30.815624 464.72186 29.565624Q465.26874 28.315624 466.28436 27.628124Q467.3156 26.940624 468.6906 26.940624Q470.51874 26.940624 471.72186 28.425L471.72186 27.175L473.33124 27.175L473.33124 36.14375Q473.33124 38.565624 472.83124 39.565624Q472.34686 40.58125 471.26874 41.159374Q470.20624 41.753124 468.64374 41.753124Q466.8 41.753124 465.64374 40.925Q464.5031 40.096874 464.55 38.409374ZM466.0031 32.175Q466.0031 34.221874 466.8156 35.159374Q467.6281 36.096874 468.84686 36.096874Q470.05 36.096874 470.8625 35.159374Q471.6906 34.221874 471.6906 32.2375Q471.6906 30.33125 470.84686 29.3625Q470.0031 28.39375 468.8156 28.39375Q467.64374 28.39375 466.8156 29.346874Q466.0031 30.3 466.0031 32.175ZM482.65936 37.55L482.65936 36.01875Q481.45624 37.784374 479.3781 37.784374Q478.45624 37.784374 477.65936 37.440624Q476.8625 37.08125 476.47186 36.55Q476.09686 36.01875 475.9406 35.2375Q475.83124 34.721874 475.83124 33.596874L475.83124 27.175L477.58124 27.175L477.58124 32.925Q477.58124 34.3 477.6906 34.784374Q477.8625 35.471874 478.39374 35.878124Q478.9406 36.26875 479.72186 36.26875Q480.51874 36.26875 481.20624 35.8625Q481.90936 35.45625 482.1906 34.76875Q482.4875 34.065624 482.4875 32.7375L482.4875 27.175L484.2375 27.175L484.2375 37.55L482.65936 37.55ZM493.64374 36.26875Q492.65936 37.096874 491.7531 37.440624Q490.84686 37.784374 489.8156 37.784374Q488.1125 37.784374 487.1906 36.95625Q486.26874 36.1125 486.26874 34.815624Q486.26874 34.05 486.6125 33.425Q486.97186 32.8 487.53436 32.425Q488.09686 32.034374 488.8 31.83125Q489.3156 31.70625 490.3625 31.565624Q492.4875 31.315624 493.4875 30.971874Q493.5031 30.6125 493.5031 30.503124Q493.5031 29.440624 493.0031 28.9875Q492.33124 28.39375 491.0031 28.39375Q489.7531 28.39375 489.15936 28.83125Q488.58124 29.26875 488.3 30.378124L486.58124 30.14375Q486.8156 29.034374 487.34686 28.3625Q487.8781 27.675 488.89374 27.315624Q489.90936 26.940624 491.2531 26.940624Q492.58124 26.940624 493.40936 27.253124Q494.2375 27.565624 494.6281 28.05Q495.01874 28.51875 495.175 29.2375Q495.26874 29.690624 495.26874 30.8625L495.26874 33.20625Q495.26874 35.659374 495.3781 36.315624Q495.4875 36.95625 495.83124 37.55L493.9875 37.55Q493.72186 37.003124 493.64374 36.26875ZM493.4875 32.346874Q492.53436 32.7375 490.6125 33.003124Q489.53436 33.159374 489.08124 33.3625Q488.64374 33.55 488.39374 33.925Q488.14374 34.3 488.14374 34.76875Q488.14374 35.471874 488.675 35.940624Q489.20624 36.409374 490.2375 36.409374Q491.2531 36.409374 492.03436 35.971874Q492.83124 35.51875 493.20624 34.753124Q493.4875 34.14375 493.4875 32.9875L493.4875 32.346874ZM497.55 38.409374L499.2531 38.659374Q499.3625 39.45625 499.84686 39.815624Q500.5031 40.3 501.64374 40.3Q502.8625 40.3 503.51874 39.815624Q504.1906 39.33125 504.425 38.45625Q504.5656 37.909374 504.55 36.190624Q503.39374 37.55 501.675 37.55Q499.53436 37.55 498.3625 36.003124Q497.1906 34.45625 497.1906 32.3Q497.1906 30.815624 497.72186 29.565624Q498.26874 28.315624 499.28436 27.628124Q500.3156 26.940624 501.6906 26.940624Q503.51874 26.940624 504.72186 28.425L504.72186 27.175L506.33124 27.175L506.33124 36.14375Q506.33124 38.565624 505.83124 39.565624Q505.34686 40.58125 504.26874 41.159374Q503.20624 41.753124 501.64374 41.753124Q499.8 41.753124 498.64374 40.925Q497.5031 40.096874 497.55 38.409374ZM499.0031 32.175Q499.0031 34.221874 499.8156 35.159374Q500.6281 36.096874 501.84686 36.096874Q503.05 36.096874 503.8625 35.159374Q504.6906 34.221874 504.6906 32.2375Q504.6906 30.33125 503.84686 29.3625Q503.0031 28.39375 501.8156 28.39375Q500.64374 28.39375 499.8156 29.346874Q499.0031 30.3 499.0031 32.175ZM515.97186 34.20625L517.78436 34.440624Q517.3625 36.01875 516.1906 36.909374Q515.03436 37.784374 513.22186 37.784374Q510.95624 37.784374 509.6125 36.39375Q508.28436 34.9875 508.28436 32.45625Q508.28436 29.83125 509.6281 28.39375Q510.97186 26.940624 513.1281 26.940624Q515.20624 26.940624 516.51874 28.3625Q517.84686 29.76875 517.84686 32.346874Q517.84686 32.503124 517.83124 32.815624L510.09686 32.815624Q510.1906 34.51875 511.0656 35.425Q511.9406 36.33125 513.2375 36.33125Q514.20624 36.33125 514.8781 35.83125Q515.5656 35.315624 515.97186 34.20625ZM510.1906 31.3625L515.9875 31.3625Q515.8781 30.065624 515.33124 29.409374Q514.4875 28.39375 513.14374 28.39375Q511.9406 28.39375 511.1125 29.20625Q510.28436 30.003124 510.1906 31.3625ZM523.15936 34.01875Q523.14374 33.675 523.14374 33.503124Q523.14374 32.45625 523.4406 31.70625Q523.65936 31.14375 524.14374 30.565624Q524.4875 30.14375 525.39374 29.346874Q526.3156 28.534374 526.58124 28.065624Q526.8625 27.58125 526.8625 27.01875Q526.8625 25.9875 526.05 25.221874Q525.2531 24.440624 524.09686 24.440624Q522.97186 24.440624 522.22186 25.14375Q521.47186 25.846874 521.2375 27.33125L519.425 27.1125Q519.675 25.1125 520.8781 24.05Q522.08124 22.9875 524.0656 22.9875Q526.175 22.9875 527.425 24.128124Q528.675 25.26875 528.675 26.89375Q528.675 27.83125 528.22186 28.628124Q527.78436 29.409374 526.5031 30.55Q525.64374 31.315624 525.3781 31.675Q525.1281 32.034374 524.9875 32.503124Q524.8625 32.971874 524.84686 34.01875L523.15936 34.01875ZM523.05 37.55L523.05 35.55L525.05 35.55L525.05 37.55L523.05 37.55Z" fill-rule="nonzero"/></svg>