<svg version="1.1" viewBox="0.0 0.0 600.0 371.0" fill="none" stroke="none" stroke-linecap="square" stroke-miterlimit="10" width="600" height="371" xmlns:xlink="http://www.w3.org/1999/xlink" xmlns="http://www.w3.org/2000/svg"><path fill="#ffffff" d="M0 0L600.0 0L600.0 371.0L0 371.0L0 0Z" fill-rule="nonzero"/><path fill="#3c78d8" d="M300.0 88.38917C370.18777 88.38917 430.82718 122.72878 445.48596 170.77675L300.0 192.52583Z" fill-rule="nonzero"/><path fill="#b36b00" d="M448.76666 214.84084C448.76666 246.48708 428.209 276.41623 392.8981 296.1779L392.8981 273.86288C428.209 254.10124 448.76666 224.17207 448.76666 192.52583Z" fill-rule="nonzero"/><path fill="#ff9900" d="M445.48596 170.77675C457.25015 209.3368 436.89368 249.24089 392.8981 273.86288L300.0 192.52583Z" fill-rule="nonzero"/><path fill="#f5d470" d="M277.7871 89.55655C285.1393 88.77939 292.56442 88.38917 300.0 88.38917L300.0 192.52583Z" fill-rule="nonzero"/><path fill="#cdcdcd" d="M256.0722 93.03253C263.17624 91.49563 270.43488 90.33372 277.7871 89.55655L300.0 192.52583Z" fill-rule="nonzero"/><path fill="#ffb84d" d="M223.27744 103.30626C233.57594 98.96682 244.58783 95.51709 256.0722 93.03253L300.0 192.52583Z" fill-rule="nonzero"/><path fill="#77a1e4" d="M181.4338 129.62866C192.86316 119.0715 207.06491 110.13766 223.27744 103.30626L300.0 192.52583Z" fill-rule="nonzero"/><path fill="#4cdc8b" d="M153.2364 175.49458C157.18268 158.83145 166.86 143.09033 181.4338 129.62866L300.0 192.52583Z" fill-rule="nonzero"/><path fill="#4e769a" d="M168.13597 263.05148C157.0323 248.16998 151.23334 231.62987 151.23334 214.84084L151.23334 192.52583C151.23334 209.31487 157.0323 225.85498 168.13597 240.73647Z" fill-rule="nonzero"/><path fill="#6fa8dc" d="M168.13597 240.73647C153.18431 220.6978 147.95447 197.79745 153.2364 175.49458L300.0 192.52583Z" fill-rule="nonzero"/><path fill="#a98823" d="M243.96196 311.30698C211.32 302.0156 184.44936 284.91516 168.13597 263.05148L168.13597 240.73647C184.44936 262.60016 211.32 279.7006 243.96196 288.99197Z" fill-rule="nonzero"/><path fill="#f1c232" d="M243.96196 288.99197C211.32 279.7006 184.44936 262.60016 168.13597 240.73647L300.0 192.52583Z" fill-rule="nonzero"/><path fill="#808080" d="M392.8981 296.1779C350.82648 319.72318 293.8591 325.50998 243.96196 311.30698L243.96196 288.99197C293.8591 303.19498 350.82648 297.40817 392.8981 273.86288Z" fill-rule="nonzero"/><path fill="#b7b7b7" d="M392.8981 273.86288C350.82648 297.40817 293.8591 303.19498 243.96196 288.99197L300.0 192.52583Z" fill-rule="nonzero"/><path fill="#1a1a1a" d="M19.471874 69.008156L19.471874 60.414406L22.721874 60.414406Q23.565624 60.414406 24.01875 60.49253Q24.659374 60.601906 25.08125 60.89878Q25.51875 61.195656 25.76875 61.726906Q26.034374 62.258156 26.034374 62.89878Q26.034374 63.99253 25.33125 64.758156Q24.64375 65.508156 22.815624 65.508156L20.6125 65.508156L20.6125 69.008156L19.471874 69.008156ZM20.6125 64.508156L22.83125 64.508156Q23.940624 64.508156 24.39375 64.101906Q24.8625 63.68003 24.8625 62.93003Q24.8625 62.39878 24.58125 62.02378Q24.315624 61.633156 23.878124 61.508156Q23.58125 61.43003 22.815624 61.43003L20.6125 61.43003L20.6125 64.508156ZM27.51875 69.008156L27.51875 60.414406L28.64375 60.414406L28.64375 63.945656L33.1125 63.945656L33.1125 60.414406L34.253124 60.414406L34.253124 69.008156L33.1125 69.008156L33.1125 64.96128L28.64375 64.96128L28.64375 69.008156L27.51875 69.008156ZM36.471874 69.008156L36.471874 60.414406L39.721874 60.414406Q40.565624 60.414406 41.01875 60.49253Q41.659374 60.601906 42.08125 60.89878Q42.51875 61.195656 42.76875 61.726906Q43.034374 62.258156 43.034374 62.89878Q43.034374 63.99253 42.33125 64.758156Q41.64375 65.508156 39.815624 65.508156L37.6125 65.508156L37.6125 69.008156L36.471874 69.008156ZM37.6125 64.508156L39.83125 64.508156Q40.940624 64.508156 41.39375 64.101906Q41.8625 63.68003 41.8625 62.93003Q41.8625 62.39878 41.58125 62.02378Q41.315624 61.633156 40.878124 61.508156Q40.58125 61.43003 39.815624 61.43003L37.6125 61.43003L37.6125 64.508156Z" fill-rule="nonzero"/><path fill="#9e9e9e" d="M24.596874 84.99253L24.596874 86.008156L18.909374 86.008156Q18.909374 85.633156 19.034374 85.27378Q19.253124 84.695656 19.721874 84.133156Q20.20625 83.570656 21.1125 82.83628Q22.51875 81.68003 23.003124 81.008156Q23.503124 80.33628 23.503124 79.74253Q23.503124 79.11753 23.05 78.695656Q22.596874 78.258156 21.878124 78.258156Q21.1125 78.258156 20.659374 78.71128Q20.20625 79.164406 20.190624 79.976906L19.1125 79.86753Q19.221874 78.64878 19.940624 78.02378Q20.675 77.383156 21.909374 77.383156Q23.14375 77.383156 23.8625 78.070656Q24.58125 78.758156 24.58125 79.77378Q24.58125 80.289406 24.3625 80.789406Q24.159374 81.27378 23.659374 81.83628Q23.175 82.383156 22.05 83.33628Q21.096874 84.133156 20.815624 84.43003Q20.55 84.71128 20.378124 84.99253L24.596874 84.99253ZM26.64375 86.008156L26.64375 84.80503L27.846874 84.80503L27.846874 86.008156L26.64375 86.008156ZM32.425 86.008156L32.425 83.945656L28.70625 83.945656L28.70625 82.976906L32.628124 77.414406L33.4875 77.414406L33.4875 82.976906L34.64375 82.976906L34.64375 83.945656L33.4875 83.945656L33.4875 86.008156L32.425 86.008156ZM32.425 82.976906L32.425 79.11753L29.7375 82.976906L32.425 82.976906ZM36.253124 79.476906Q36.253124 78.55503 36.70625 77.914406Q37.175 77.27378 38.05 77.27378Q38.8625 77.27378 39.39375 77.851906Q39.925 78.43003 39.925 79.539406Q39.925 80.633156 39.378124 81.226906Q38.846874 81.80503 38.065624 81.80503Q37.284374 81.80503 36.76875 81.226906Q36.253124 80.64878 36.253124 79.476906ZM38.08125 77.99253Q37.690624 77.99253 37.425 78.33628Q37.175 78.68003 37.175 79.58628Q37.175 80.414406 37.425 80.758156Q37.690624 81.08628 38.08125 81.08628Q38.4875 81.08628 38.7375 80.74253Q39.003124 80.39878 39.003124 79.508156Q39.003124 78.664406 38.7375 78.33628Q38.471874 77.99253 38.08125 77.99253ZM38.08125 86.320656L42.784374 77.27378L43.64375 77.27378L38.95625 86.320656L38.08125 86.320656ZM41.8 83.99253Q41.8 83.070656 42.253124 82.43003Q42.721874 81.789406 43.6125 81.789406Q44.425 81.789406 44.95625 82.36753Q45.4875 82.93003 45.4875 84.05503Q45.4875 85.14878 44.940624 85.74253Q44.409374 86.320656 43.6125 86.320656Q42.846874 86.320656 42.315624 85.74253Q41.8 85.164406 41.8 83.99253ZM43.64375 82.508156Q43.2375 82.508156 42.971874 82.851906Q42.721874 83.195656 42.721874 84.101906Q42.721874 84.914406 42.9875 85.258156Q43.253124 85.601906 43.64375 85.601906Q44.034374 85.601906 44.3 85.258156Q44.565624 84.914406 44.565624 84.008156Q44.565624 83.18003 44.3 82.851906Q44.034374 82.508156 43.64375 82.508156Z" fill-rule="nonzero"/><path stroke="#757575" stroke-width="1.0" stroke-linecap="butt" d="M18.55 73.508156L145.23334 73.508156L289.4192 93.87364" fill-rule="nonzero"/><path fill="#9e9e9e" d="M291.4192 93.87364C291.4192 92.76907 290.52374 91.87364 289.4192 91.87364C288.3146 91.87364 287.4192 92.76907 287.4192 93.87364C287.4192 94.97821 288.3146 95.87364 289.4192 95.87364C290.52374 95.87364 291.4192 94.97821 291.4192 93.87364" fill-rule="nonzero"/><path fill="#1a1a1a" d="M19.51875 100.008156L19.51875 91.414406L20.64375 91.414406L20.64375 94.945656L25.1125 94.945656L25.1125 91.414406L26.253124 91.414406L26.253124 100.008156L25.1125 100.008156L25.1125 95.96128L20.64375 95.96128L20.64375 100.008156L19.51875 100.008156ZM32.409374 99.24253Q31.815624 99.74253 31.26875 99.945656Q30.7375 100.14878 30.1125 100.14878Q29.08125 100.14878 28.534374 99.64878Q27.9875 99.14878 27.9875 98.36753Q27.9875 97.914406 28.190624 97.539406Q28.39375 97.14878 28.7375 96.93003Q29.08125 96.695656 29.503124 96.58628Q29.8 96.49253 30.440624 96.414406Q31.70625 96.27378 32.315624 96.05503Q32.315624 95.83628 32.315624 95.789406Q32.315624 95.133156 32.01875 94.86753Q31.6125 94.52378 30.815624 94.52378Q30.08125 94.52378 29.721874 94.789406Q29.3625 95.039406 29.190624 95.695656L28.159374 95.55503Q28.3 94.89878 28.628124 94.49253Q28.95625 94.08628 29.565624 93.86753Q30.175 93.64878 30.971874 93.64878Q31.76875 93.64878 32.26875 93.83628Q32.76875 94.02378 33.003124 94.30503Q33.2375 94.58628 33.33125 95.02378Q33.378124 95.289406 33.378124 95.99253L33.378124 97.39878Q33.378124 98.86753 33.440624 99.258156Q33.51875 99.64878 33.721874 100.008156L32.6125 100.008156Q32.45625 99.68003 32.409374 99.24253ZM32.315624 96.883156Q31.7375 97.11753 30.596874 97.289406Q29.940624 97.383156 29.675 97.508156Q29.409374 97.61753 29.253124 97.83628Q29.1125 98.05503 29.1125 98.33628Q29.1125 98.758156 29.425 99.039406Q29.753124 99.320656 30.3625 99.320656Q30.971874 99.320656 31.440624 99.05503Q31.925 98.789406 32.14375 98.320656Q32.315624 97.96128 32.315624 97.27378L32.315624 96.883156ZM34.925 98.14878L35.95625 97.99253Q36.05 98.61753 36.440624 98.945656Q36.846874 99.27378 37.58125 99.27378Q38.3 99.27378 38.64375 98.99253Q39.003124 98.695656 39.003124 98.289406Q39.003124 97.93003 38.690624 97.726906Q38.471874 97.58628 37.6125 97.36753Q36.45625 97.070656 36.003124 96.86753Q35.565624 96.64878 35.33125 96.27378Q35.096874 95.89878 35.096874 95.43003Q35.096874 95.02378 35.284374 94.664406Q35.471874 94.30503 35.8 94.070656Q36.05 93.89878 36.471874 93.77378Q36.89375 93.64878 37.39375 93.64878Q38.1125 93.64878 38.659374 93.86753Q39.221874 94.070656 39.4875 94.43003Q39.753124 94.789406 39.846874 95.383156L38.815624 95.52378Q38.753124 95.05503 38.409374 94.789406Q38.08125 94.508156 37.45625 94.508156Q36.7375 94.508156 36.425 94.758156Q36.1125 94.99253 36.1125 95.320656Q36.1125 95.52378 36.2375 95.68003Q36.378124 95.851906 36.64375 95.96128Q36.8 96.02378 37.58125 96.226906Q38.70625 96.539406 39.14375 96.726906Q39.58125 96.914406 39.83125 97.27378Q40.08125 97.633156 40.08125 98.18003Q40.08125 98.71128 39.76875 99.18003Q39.471874 99.633156 38.89375 99.89878Q38.315624 100.14878 37.58125 100.14878Q36.3625 100.14878 35.721874 99.64878Q35.096874 99.133156 34.925 98.14878ZM41.346874 100.008156L41.346874 91.414406L42.409374 91.414406L42.409374 96.320656L44.89375 93.789406L46.26875 93.789406L43.878124 96.08628L46.503124 100.008156L45.20625 100.008156L43.14375 96.820656L42.409374 97.539406L42.409374 100.008156L41.346874 100.008156ZM51.596874 98.008156L52.690624 98.133156Q52.440624 99.08628 51.7375 99.61753Q51.034374 100.14878 49.95625 100.14878Q48.596874 100.14878 47.784374 99.30503Q46.9875 98.46128 46.9875 96.945656Q46.9875 95.383156 47.8 94.52378Q48.6125 93.64878 49.89375 93.64878Q51.14375 93.64878 51.925 94.49253Q52.721874 95.33628 52.721874 96.883156Q52.721874 96.976906 52.721874 97.164406L48.08125 97.164406Q48.14375 98.195656 48.659374 98.74253Q49.175 99.27378 49.95625 99.27378Q50.534374 99.27378 50.940624 98.976906Q51.3625 98.664406 51.596874 98.008156ZM48.14375 96.30503L51.6125 96.30503Q51.55 95.508156 51.221874 95.11753Q50.70625 94.508156 49.909374 94.508156Q49.175 94.508156 48.675 94.99253Q48.190624 95.476906 48.14375 96.30503ZM54.315624 100.008156L54.315624 91.414406L55.378124 91.414406L55.378124 100.008156L54.315624 100.008156ZM57.315624 100.008156L57.315624 91.414406L58.378124 91.414406L58.378124 100.008156L57.315624 100.008156Z" fill-rule="nonzero"/><path fill="#9e9e9e" d="M24.596874 115.99253L24.596874 117.008156L18.909374 117.008156Q18.909374 116.633156 19.034374 116.27378Q19.253124 115.695656 19.721874 115.133156Q20.20625 114.570656 21.1125 113.83628Q22.51875 112.68003 23.003124 112.008156Q23.503124 111.33628 23.503124 110.74253Q23.503124 110.11753 23.05 109.695656Q22.596874 109.258156 21.878124 109.258156Q21.1125 109.258156 20.659374 109.71128Q20.20625 110.164406 20.190624 110.976906L19.1125 110.86753Q19.221874 109.64878 19.940624 109.02378Q20.675 108.383156 21.909374 108.383156Q23.14375 108.383156 23.8625 109.070656Q24.58125 109.758156 24.58125 110.77378Q24.58125 111.289406 24.3625 111.789406Q24.159374 112.27378 23.659374 112.83628Q23.175 113.383156 22.05 114.33628Q21.096874 115.133156 20.815624 115.43003Q20.55 115.71128 20.378124 115.99253L24.596874 115.99253ZM26.64375 117.008156L26.64375 115.80503L27.846874 115.80503L27.846874 117.008156L26.64375 117.008156ZM32.425 117.008156L32.425 114.945656L28.70625 114.945656L28.70625 113.976906L32.628124 108.414406L33.4875 108.414406L33.4875 113.976906L34.64375 113.976906L34.64375 114.945656L33.4875 114.945656L33.4875 117.008156L32.425 117.008156ZM32.425 113.976906L32.425 110.11753L29.7375 113.976906L32.425 113.976906ZM36.253124 110.476906Q36.253124 109.55503 36.70625 108.914406Q37.175 108.27378 38.05 108.27378Q38.8625 108.27378 39.39375 108.851906Q39.925 109.43003 39.925 110.539406Q39.925 111.633156 39.378124 112.226906Q38.846874 112.80503 38.065624 112.80503Q37.284374 112.80503 36.76875 112.226906Q36.253124 111.64878 36.253124 110.476906ZM38.08125 108.99253Q37.690624 108.99253 37.425 109.33628Q37.175 109.68003 37.175 110.58628Q37.175 111.414406 37.425 111.758156Q37.690624 112.08628 38.08125 112.08628Q38.4875 112.08628 38.7375 111.74253Q39.003124 111.39878 39.003124 110.508156Q39.003124 109.664406 38.7375 109.33628Q38.471874 108.99253 38.08125 108.99253ZM38.08125 117.320656L42.784374 108.27378L43.64375 108.27378L38.95625 117.320656L38.08125 117.320656ZM41.8 114.99253Q41.8 114.070656 42.253124 113.43003Q42.721874 112.789406 43.6125 112.789406Q44.425 112.789406 44.95625 113.36753Q45.4875 113.93003 45.4875 115.05503Q45.4875 116.14878 44.940624 116.74253Q44.409374 117.320656 43.6125 117.320656Q42.846874 117.320656 42.315624 116.74253Q41.8 116.164406 41.8 114.99253ZM43.64375 113.508156Q43.2375 113.508156 42.971874 113.851906Q42.721874 114.195656 42.721874 115.101906Q42.721874 115.914406 42.9875 116.258156Q43.253124 116.601906 43.64375 116.601906Q44.034374 116.601906 44.3 116.258156Q44.565624 115.914406 44.565624 115.008156Q44.565624 114.18003 44.3 113.851906Q44.034374 113.508156 43.64375 113.508156Z" fill-rule="nonzero"/><path stroke="#757575" stroke-width="1.0" stroke-linecap="butt" d="M18.55 104.508156L145.23334 104.508156L268.49475 96.08545" fill-rule="nonzero"/><path fill="#9e9e9e" d="M270.49475 96.08545C270.49475 94.98088 269.59933 94.08545 268.49475 94.08545C267.3902 94.08545 266.49475 94.98088 266.49475 96.08545C266.49475 97.19002 267.3902 98.08545 268.49475 98.08545C269.59933 98.08545 270.49475 97.19002 270.49475 96.08545" fill-rule="nonzero"/><path fill="#1a1a1a" d="M19.096874 128.24252L20.159374 128.14877Q20.2375 128.80502 20.51875 129.21127Q20.8 129.61752 21.378124 129.88315Q21.971874 130.13315 22.70625 130.13315Q23.346874 130.13315 23.846874 129.94565Q24.346874 129.74252 24.58125 129.4144Q24.83125 129.07065 24.83125 128.68002Q24.83125 128.27377 24.596874 127.9769Q24.3625 127.6644 23.83125 127.46127Q23.471874 127.32065 22.284374 127.0394Q21.1125 126.75815 20.64375 126.50815Q20.01875 126.18002 19.721874 125.71127Q19.425 125.2269 19.425 124.63315Q19.425 123.99252 19.784374 123.43002Q20.159374 122.8519 20.8625 122.57065Q21.58125 122.27377 22.440624 122.27377Q23.39375 122.27377 24.128124 122.58627Q24.8625 122.88315 25.253124 123.49252Q25.64375 124.08627 25.675 124.83627L24.58125 124.9144Q24.4875 124.1019 23.971874 123.69565Q23.471874 123.27377 22.4875 123.27377Q21.45625 123.27377 20.9875 123.64877Q20.51875 124.02377 20.51875 124.55502Q20.51875 125.02377 20.846874 125.32065Q21.175 125.61752 22.55 125.93002Q23.940624 126.24252 24.45625 126.4769Q25.20625 126.83627 25.565624 127.36752Q25.925 127.88315 25.925 128.58627Q25.925 129.27377 25.534374 129.88315Q25.14375 130.4769 24.409374 130.82065Q23.675 131.14877 22.753124 131.14877Q21.58125 131.14877 20.784374 130.82065Q20.003124 130.4769 19.55 129.7894Q19.1125 129.1019 19.096874 128.24252ZM28.4875 131.00815L26.58125 124.7894L27.675 124.7894L28.659374 128.38315L29.034374 129.71127Q29.065624 129.61752 29.3625 128.43002L30.346874 124.7894L31.425 124.7894L32.3625 128.39877L32.675 129.58627L33.034374 128.38315L34.096874 124.7894L35.128124 124.7894L33.175 131.00815L32.08125 131.00815L31.096874 127.27377L30.846874 126.2269L29.596874 131.00815L28.4875 131.00815ZM36.346874 123.63315L36.346874 122.4144L37.409374 122.4144L37.409374 123.63315L36.346874 123.63315ZM36.346874 131.00815L36.346874 124.7894L37.409374 124.7894L37.409374 131.00815L36.346874 131.00815ZM39.596874 131.00815L39.596874 125.6019L38.659374 125.6019L38.659374 124.7894L39.596874 124.7894L39.596874 124.11752Q39.596874 123.49252 39.70625 123.19565Q39.8625 122.77377 40.2375 122.52377Q40.628124 122.27377 41.315624 122.27377Q41.76875 122.27377 42.3 122.38315L42.14375 123.2894Q41.815624 123.24252 41.51875 123.24252Q41.034374 123.24252 40.83125 123.44565Q40.64375 123.64877 40.64375 124.21127L40.64375 124.7894L41.8625 124.7894L41.8625 125.6019L40.64375 125.6019L40.64375 131.00815L39.596874 131.00815ZM44.64375 130.07065L44.8 130.99252Q44.346874 131.08627 44.003124 131.08627Q43.425 131.08627 43.1125 130.9144Q42.8 130.7269 42.659374 130.43002Q42.534374 130.13315 42.534374 129.18002L42.534374 125.6019L41.76875 125.6019L41.76875 124.7894L42.534374 124.7894L42.534374 123.24252L43.58125 122.61752L43.58125 124.7894L44.64375 124.7894L44.64375 125.6019L43.58125 125.6019L43.58125 129.24252Q43.58125 129.69565 43.628124 129.82065Q43.690624 129.94565 43.815624 130.02377Q43.940624 130.1019 44.175 130.1019Q44.3625 130.1019 44.64375 130.07065Z" fill-rule="nonzero"/><path fill="#9e9e9e" d="M19.05 145.74252L20.1125 145.6019Q20.284374 146.49252 20.721874 146.89877Q21.159374 147.2894 21.784374 147.2894Q22.534374 147.2894 23.05 146.77377Q23.565624 146.25815 23.565624 145.49252Q23.565624 144.77377 23.08125 144.30502Q22.6125 143.82065 21.878124 143.82065Q21.58125 143.82065 21.128124 143.94565L21.253124 143.00815Q21.3625 143.02377 21.425 143.02377Q22.096874 143.02377 22.628124 142.68002Q23.175 142.32065 23.175 141.58627Q23.175 141.00815 22.784374 140.63315Q22.39375 140.24252 21.76875 140.24252Q21.159374 140.24252 20.7375 140.63315Q20.33125 141.02377 20.221874 141.7894L19.159374 141.6019Q19.346874 140.55502 20.034374 139.9769Q20.721874 139.38315 21.7375 139.38315Q22.440624 139.38315 23.034374 139.69565Q23.628124 139.99252 23.940624 140.50815Q24.253124 141.02377 24.253124 141.61752Q24.253124 142.1644 23.95625 142.63315Q23.659374 143.08627 23.08125 143.3519Q23.83125 143.52377 24.253124 144.08627Q24.675 144.63315 24.675 145.4769Q24.675 146.6019 23.846874 147.38315Q23.034374 148.1644 21.784374 148.1644Q20.659374 148.1644 19.909374 147.49252Q19.159374 146.80502 19.05 145.74252ZM26.64375 148.00815L26.64375 146.80502L27.846874 146.80502L27.846874 148.00815L26.64375 148.00815ZM29.20625 146.02377L30.221874 145.93002Q30.346874 146.64877 30.70625 146.9769Q31.08125 147.2894 31.64375 147.2894Q32.128124 147.2894 32.4875 147.07065Q32.8625 146.83627 33.096874 146.4769Q33.33125 146.1019 33.4875 145.4769Q33.64375 144.83627 33.64375 144.18002Q33.64375 144.1019 33.64375 143.96127Q33.33125 144.46127 32.784374 144.7894Q32.2375 145.1019 31.596874 145.1019Q30.51875 145.1019 29.784374 144.33627Q29.05 143.55502 29.05 142.2894Q29.05 140.9769 29.815624 140.18002Q30.596874 139.38315 31.753124 139.38315Q32.58125 139.38315 33.26875 139.83627Q33.971874 140.2894 34.33125 141.13315Q34.690624 141.96127 34.690624 143.5394Q34.690624 145.18002 34.33125 146.1644Q33.9875 147.13315 33.26875 147.64877Q32.565624 148.14877 31.628124 148.14877Q30.6125 148.14877 29.971874 147.6019Q29.33125 147.0394 29.20625 146.02377ZM33.51875 142.2269Q33.51875 141.32065 33.034374 140.7894Q32.565624 140.25815 31.878124 140.25815Q31.175 140.25815 30.64375 140.83627Q30.128124 141.39877 30.128124 142.32065Q30.128124 143.13315 30.628124 143.64877Q31.128124 144.1644 31.846874 144.1644Q32.58125 144.1644 33.05 143.64877Q33.51875 143.13315 33.51875 142.2269ZM36.253124 141.4769Q36.253124 140.55502 36.70625 139.9144Q37.175 139.27377 38.05 139.27377Q38.8625 139.27377 39.39375 139.8519Q39.925 140.43002 39.925 141.5394Q39.925 142.63315 39.378124 143.2269Q38.846874 143.80502 38.065624 143.80502Q37.284374 143.80502 36.76875 143.2269Q36.253124 142.64877 36.253124 141.4769ZM38.08125 139.99252Q37.690624 139.99252 37.425 140.33627Q37.175 140.68002 37.175 141.58627Q37.175 142.4144 37.425 142.75815Q37.690624 143.08627 38.08125 143.08627Q38.4875 143.08627 38.7375 142.74252Q39.003124 142.39877 39.003124 141.50815Q39.003124 140.6644 38.7375 140.33627Q38.471874 139.99252 38.08125 139.99252ZM38.08125 148.32065L42.784374 139.27377L43.64375 139.27377L38.95625 148.32065L38.08125 148.32065ZM41.8 145.99252Q41.8 145.07065 42.253124 144.43002Q42.721874 143.7894 43.6125 143.7894Q44.425 143.7894 44.95625 144.36752Q45.4875 144.93002 45.4875 146.05502Q45.4875 147.14877 44.940624 147.74252Q44.409374 148.32065 43.6125 148.32065Q42.846874 148.32065 42.315624 147.74252Q41.8 147.1644 41.8 145.99252ZM43.64375 144.50815Q43.2375 144.50815 42.971874 144.8519Q42.721874 145.19565 42.721874 146.1019Q42.721874 146.9144 42.9875 147.25815Q43.253124 147.6019 43.64375 147.6019Q44.034374 147.6019 44.3 147.25815Q44.565624 146.9144 44.565624 146.00815Q44.565624 145.18002 44.3 144.8519Q44.034374 144.50815 43.64375 144.50815Z" fill-rule="nonzero"/><path stroke="#757575" stroke-width="1.0" stroke-linecap="butt" d="M18.55 135.50815L145.23334 135.50815L242.26862 102.22642" fill-rule="nonzero"/><path fill="#9e9e9e" d="M244.26862 102.22642C244.26862 101.12185 243.37318 100.22642 242.26862 100.22642C241.16405 100.22642 240.26862 101.12185 240.26862 102.22642C240.26862 103.330986 241.16405 104.22642 242.26862 104.22642C243.37318 104.22642 244.26862 103.330986 244.26862 102.22642" fill-rule="nonzero"/><path fill="#1a1a1a" d="M25.6125 158.99252L26.7375 159.2894Q26.378124 160.68002 25.45625 161.4144Q24.534374 162.14877 23.190624 162.14877Q21.8 162.14877 20.925 161.58627Q20.05 161.02377 19.596874 159.96127Q19.14375 158.88315 19.14375 157.64877Q19.14375 156.30502 19.659374 155.30502Q20.175 154.30502 21.1125 153.7894Q22.065624 153.27377 23.20625 153.27377Q24.4875 153.27377 25.3625 153.93002Q26.253124 154.58627 26.596874 155.77377L25.471874 156.0394Q25.175 155.1019 24.596874 154.68002Q24.034374 154.24252 23.175 154.24252Q22.190624 154.24252 21.51875 154.7269Q20.8625 155.19565 20.58125 155.99252Q20.315624 156.7894 20.315624 157.64877Q20.315624 158.74252 20.628124 159.55502Q20.95625 160.36752 21.628124 160.77377Q22.3 161.18002 23.096874 161.18002Q24.05 161.18002 24.70625 160.63315Q25.378124 160.08627 25.6125 158.99252ZM28.159374 162.14877L28.659374 159.6644L27.675 159.6644L27.675 158.7894L28.846874 158.7894L29.26875 156.6644L27.675 156.6644L27.675 155.7894L29.45625 155.7894L29.95625 153.27377L30.83125 153.27377L30.33125 155.7894L32.175 155.7894L32.690624 153.27377L33.565624 153.27377L33.065624 155.7894L34.065624 155.7894L34.065624 156.6644L32.878124 156.6644L32.440624 158.7894L34.065624 158.7894L34.065624 159.6644L32.26875 159.6644L31.753124 162.14877L30.878124 162.14877L31.378124 159.6644L29.55 159.6644L29.034374 162.14877L28.159374 162.14877ZM29.721874 158.7894L31.565624 158.7894L32.003124 156.6644L30.159374 156.6644L29.721874 158.7894Z" fill-rule="nonzero"/><path fill="#9e9e9e" d="M24.51875 172.52377L23.471874 172.6019Q23.33125 171.9769 23.08125 171.69565Q22.64375 171.24252 22.01875 171.24252Q21.51875 171.24252 21.128124 171.52377Q20.64375 171.89877 20.346874 172.6019Q20.065624 173.2894 20.05 174.57065Q20.425 173.99252 20.971874 173.71127Q21.534374 173.43002 22.14375 173.43002Q23.190624 173.43002 23.925 174.21127Q24.675 174.99252 24.675 176.21127Q24.675 177.02377 24.315624 177.7269Q23.971874 178.4144 23.3625 178.7894Q22.753124 179.14877 21.9875 179.14877Q20.659374 179.14877 19.83125 178.18002Q19.003124 177.21127 19.003124 174.99252Q19.003124 172.49252 19.925 171.36752Q20.721874 170.38315 22.08125 170.38315Q23.096874 170.38315 23.7375 170.96127Q24.39375 171.52377 24.51875 172.52377ZM20.221874 176.2269Q20.221874 176.77377 20.440624 177.27377Q20.675 177.75815 21.08125 178.02377Q21.503124 178.2894 21.971874 178.2894Q22.628124 178.2894 23.1125 177.75815Q23.596874 177.21127 23.596874 176.2894Q23.596874 175.39877 23.1125 174.88315Q22.64375 174.36752 21.925 174.36752Q21.20625 174.36752 20.70625 174.88315Q20.221874 175.39877 20.221874 176.2269ZM26.64375 179.00815L26.64375 177.80502L27.846874 177.80502L27.846874 179.00815L26.64375 179.00815ZM33.01875 179.00815L31.971874 179.00815L31.971874 172.2894Q31.58125 172.64877 30.95625 173.02377Q30.346874 173.38315 29.8625 173.55502L29.8625 172.5394Q30.7375 172.11752 31.39375 171.5394Q32.065624 170.94565 32.346874 170.38315L33.01875 170.38315L33.01875 179.00815ZM36.253124 172.4769Q36.253124 171.55502 36.70625 170.9144Q37.175 170.27377 38.05 170.27377Q38.8625 170.27377 39.39375 170.8519Q39.925 171.43002 39.925 172.5394Q39.925 173.63315 39.378124 174.2269Q38.846874 174.80502 38.065624 174.80502Q37.284374 174.80502 36.76875 174.2269Q36.253124 173.64877 36.253124 172.4769ZM38.08125 170.99252Q37.690624 170.99252 37.425 171.33627Q37.175 171.68002 37.175 172.58627Q37.175 173.4144 37.425 173.75815Q37.690624 174.08627 38.08125 174.08627Q38.4875 174.08627 38.7375 173.74252Q39.003124 173.39877 39.003124 172.50815Q39.003124 171.6644 38.7375 171.33627Q38.471874 170.99252 38.08125 170.99252ZM38.08125 179.32065L42.784374 170.27377L43.64375 170.27377L38.95625 179.32065L38.08125 179.32065ZM41.8 176.99252Q41.8 176.07065 42.253124 175.43002Q42.721874 174.7894 43.6125 174.7894Q44.425 174.7894 44.95625 175.36752Q45.4875 175.93002 45.4875 177.05502Q45.4875 178.14877 44.940624 178.74252Q44.409374 179.32065 43.6125 179.32065Q42.846874 179.32065 42.315624 178.74252Q41.8 178.1644 41.8 176.99252ZM43.64375 175.50815Q43.2375 175.50815 42.971874 175.8519Q42.721874 176.19565 42.721874 177.1019Q42.721874 177.9144 42.9875 178.25815Q43.253124 178.6019 43.64375 178.6019Q44.034374 178.6019 44.3 178.25815Q44.565624 177.9144 44.565624 177.00815Q44.565624 176.18002 44.3 175.8519Q44.034374 175.50815 43.64375 175.50815Z" fill-rule="nonzero"/><path stroke="#757575" stroke-width="1.0" stroke-linecap="butt" d="M18.55 166.50815L145.23334 166.50815L205.53383 118.94308" fill-rule="nonzero"/><path fill="#9e9e9e" d="M207.53383 118.94308C207.53383 117.83851 206.6384 116.94308 205.53383 116.94308C204.42926 116.94308 203.53383 117.83851 203.53383 118.94308C203.53383 120.047646 204.42926 120.94308 205.53383 120.94308C206.6384 120.94308 207.53383 120.047646 207.53383 118.94308" fill-rule="nonzero"/><path fill="#1a1a1a" d="M18.89375 190.57065L19.925 190.43002Q19.95625 191.4144 20.284374 191.77377Q20.6125 192.13315 21.20625 192.13315Q21.628124 192.13315 21.940624 191.94565Q22.253124 191.74252 22.3625 191.4144Q22.4875 191.07065 22.4875 190.33627L22.4875 184.4144L23.6125 184.4144L23.6125 190.27377Q23.6125 191.3519 23.346874 191.94565Q23.096874 192.5394 22.534374 192.8519Q21.971874 193.14877 21.20625 193.14877Q20.08125 193.14877 19.471874 192.50815Q18.878124 191.8519 18.89375 190.57065ZM29.409374 192.24252Q28.815624 192.74252 28.26875 192.94565Q27.7375 193.14877 27.1125 193.14877Q26.08125 193.14877 25.534374 192.64877Q24.9875 192.14877 24.9875 191.36752Q24.9875 190.9144 25.190624 190.5394Q25.39375 190.14877 25.7375 189.93002Q26.08125 189.69565 26.503124 189.58627Q26.8 189.49252 27.440624 189.4144Q28.70625 189.27377 29.315624 189.05502Q29.315624 188.83627 29.315624 188.7894Q29.315624 188.13315 29.01875 187.86752Q28.6125 187.52377 27.815624 187.52377Q27.08125 187.52377 26.721874 187.7894Q26.3625 188.0394 26.190624 188.69565L25.159374 188.55502Q25.3 187.89877 25.628124 187.49252Q25.95625 187.08627 26.565624 186.86752Q27.175 186.64877 27.971874 186.64877Q28.76875 186.64877 29.26875 186.83627Q29.76875 187.02377 30.003124 187.30502Q30.2375 187.58627 30.33125 188.02377Q30.378124 188.2894 30.378124 188.99252L30.378124 190.39877Q30.378124 191.86752 30.440624 192.25815Q30.51875 192.64877 30.721874 193.00815L29.6125 193.00815Q29.45625 192.68002 29.409374 192.24252ZM29.315624 189.88315Q28.7375 190.11752 27.596874 190.2894Q26.940624 190.38315 26.675 190.50815Q26.409374 190.61752 26.253124 190.83627Q26.1125 191.05502 26.1125 191.33627Q26.1125 191.75815 26.425 192.0394Q26.753124 192.32065 27.3625 192.32065Q27.971874 192.32065 28.440624 192.05502Q28.925 191.7894 29.14375 191.32065Q29.315624 190.96127 29.315624 190.27377L29.315624 189.88315ZM34.065624 193.00815L31.70625 186.7894L32.815624 186.7894L34.159374 190.50815Q34.3625 191.11752 34.55 191.75815Q34.690624 191.27377 34.940624 190.58627L36.33125 186.7894L37.409374 186.7894L35.05 193.00815L34.065624 193.00815ZM42.409374 192.24252Q41.815624 192.74252 41.26875 192.94565Q40.7375 193.14877 40.1125 193.14877Q39.08125 193.14877 38.534374 192.64877Q37.9875 192.14877 37.9875 191.36752Q37.9875 190.9144 38.190624 190.5394Q38.39375 190.14877 38.7375 189.93002Q39.08125 189.69565 39.503124 189.58627Q39.8 189.49252 40.440624 189.4144Q41.70625 189.27377 42.315624 189.05502Q42.315624 188.83627 42.315624 188.7894Q42.315624 188.13315 42.01875 187.86752Q41.6125 187.52377 40.815624 187.52377Q40.08125 187.52377 39.721874 187.7894Q39.3625 188.0394 39.190624 188.69565L38.159374 188.55502Q38.3 187.89877 38.628124 187.49252Q38.95625 187.08627 39.565624 186.86752Q40.175 186.64877 40.971874 186.64877Q41.76875 186.64877 42.26875 186.83627Q42.76875 187.02377 43.003124 187.30502Q43.2375 187.58627 43.33125 188.02377Q43.378124 188.2894 43.378124 188.99252L43.378124 190.39877Q43.378124 191.86752 43.440624 192.25815Q43.51875 192.64877 43.721874 193.00815L42.6125 193.00815Q42.45625 192.68002 42.409374 192.24252ZM42.315624 189.88315Q41.7375 190.11752 40.596874 190.2894Q39.940624 190.38315 39.675 190.50815Q39.409374 190.61752 39.253124 190.83627Q39.1125 191.05502 39.1125 191.33627Q39.1125 191.75815 39.425 192.0394Q39.753124 192.32065 40.3625 192.32065Q40.971874 192.32065 41.440624 192.05502Q41.925 191.7894 42.14375 191.32065Q42.315624 190.96127 42.315624 190.27377L42.315624 189.88315Z" fill-rule="nonzero"/><path fill="#9e9e9e" d="M19.1125 202.5394L19.1125 201.52377L24.675 201.52377L24.675 202.3519Q23.8625 203.2269 23.05 204.68002Q22.253124 206.11752 21.815624 207.64877Q21.4875 208.7269 21.409374 210.00815L20.315624 210.00815Q20.33125 208.99252 20.70625 207.55502Q21.096874 206.11752 21.8 204.7894Q22.51875 203.46127 23.33125 202.5394L19.1125 202.5394ZM26.64375 210.00815L26.64375 208.80502L27.846874 208.80502L27.846874 210.00815L26.64375 210.00815ZM29.1125 202.5394L29.1125 201.52377L34.675 201.52377L34.675 202.3519Q33.8625 203.2269 33.05 204.68002Q32.253124 206.11752 31.815624 207.64877Q31.4875 208.7269 31.409374 210.00815L30.315624 210.00815Q30.33125 208.99252 30.70625 207.55502Q31.096874 206.11752 31.8 204.7894Q32.51875 203.46127 33.33125 202.5394L29.1125 202.5394ZM36.253124 203.4769Q36.253124 202.55502 36.70625 201.9144Q37.175 201.27377 38.05 201.27377Q38.8625 201.27377 39.39375 201.8519Q39.925 202.43002 39.925 203.5394Q39.925 204.63315 39.378124 205.2269Q38.846874 205.80502 38.065624 205.80502Q37.284374 205.80502 36.76875 205.2269Q36.253124 204.64877 36.253124 203.4769ZM38.08125 201.99252Q37.690624 201.99252 37.425 202.33627Q37.175 202.68002 37.175 203.58627Q37.175 204.4144 37.425 204.75815Q37.690624 205.08627 38.08125 205.08627Q38.4875 205.08627 38.7375 204.74252Q39.003124 204.39877 39.003124 203.50815Q39.003124 202.6644 38.7375 202.33627Q38.471874 201.99252 38.08125 201.99252ZM38.08125 210.32065L42.784374 201.27377L43.64375 201.27377L38.95625 210.32065L38.08125 210.32065ZM41.8 207.99252Q41.8 207.07065 42.253124 206.43002Q42.721874 205.7894 43.6125 205.7894Q44.425 205.7894 44.95625 206.36752Q45.4875 206.93002 45.4875 208.05502Q45.4875 209.14877 44.940624 209.74252Q44.409374 210.32065 43.6125 210.32065Q42.846874 210.32065 42.315624 209.74252Q41.8 209.1644 41.8 207.99252ZM43.64375 206.50815Q43.2375 206.50815 42.971874 206.8519Q42.721874 207.19565 42.721874 208.1019Q42.721874 208.9144 42.9875 209.25815Q43.253124 209.6019 43.64375 209.6019Q44.034374 209.6019 44.3 209.25815Q44.565624 208.9144 44.565624 208.00815Q44.565624 207.18002 44.3 206.8519Q44.034374 206.50815 43.64375 206.50815Z" fill-rule="nonzero"/><path stroke="#757575" stroke-width="1.0" stroke-linecap="butt" d="M18.55 197.50815L145.23334 197.50815L170.1823 153.41931" fill-rule="nonzero"/><path fill="#9e9e9e" d="M172.1823 153.41931C172.1823 152.31474 171.28687 151.41931 170.1823 151.41931C169.07773 151.41931 168.1823 152.31474 168.1823 153.41931C168.1823 154.52388 169.07773 155.41931 170.1823 155.41931C171.28687 155.41931 172.1823 154.52388 172.1823 153.41931" fill-rule="nonzero"/><path fill="#1a1a1a" d="M23.503124 220.63315L23.503124 219.63315L27.128124 219.61752L27.128124 222.80502Q26.3 223.4769 25.409374 223.82065Q24.51875 224.14877 23.58125 224.14877Q22.315624 224.14877 21.26875 223.61752Q20.2375 223.07065 19.70625 222.05502Q19.190624 221.02377 19.190624 219.75815Q19.190624 218.49252 19.70625 217.4144Q20.2375 216.32065 21.221874 215.80502Q22.20625 215.27377 23.4875 215.27377Q24.425 215.27377 25.175 215.57065Q25.925 215.86752 26.346874 216.4144Q26.784374 216.94565 27.003124 217.82065L25.9875 218.1019Q25.784374 217.44565 25.4875 217.07065Q25.20625 216.69565 24.675 216.4769Q24.14375 216.24252 23.503124 216.24252Q22.721874 216.24252 22.14375 216.4769Q21.58125 216.71127 21.221874 217.1019Q20.878124 217.49252 20.690624 217.96127Q20.3625 218.75815 20.3625 219.68002Q20.3625 220.83627 20.753124 221.61752Q21.159374 222.38315 21.909374 222.75815Q22.659374 223.13315 23.51875 223.13315Q24.253124 223.13315 24.95625 222.8519Q25.659374 222.55502 26.01875 222.24252L26.01875 220.63315L23.503124 220.63315ZM27.95625 220.89877Q27.95625 219.1644 28.909374 218.33627Q29.70625 217.64877 30.8625 217.64877Q32.14375 217.64877 32.95625 218.49252Q33.784374 219.32065 33.784374 220.80502Q33.784374 222.00815 33.425 222.69565Q33.065624 223.38315 32.3625 223.77377Q31.675 224.14877 30.8625 224.14877Q29.565624 224.14877 28.753124 223.32065Q27.95625 222.4769 27.95625 220.89877ZM29.034374 220.89877Q29.034374 222.08627 29.55 222.68002Q30.08125 223.27377 30.8625 223.27377Q31.659374 223.27377 32.175 222.68002Q32.690624 222.08627 32.690624 220.86752Q32.690624 219.71127 32.159374 219.11752Q31.64375 218.52377 30.8625 218.52377Q30.08125 218.52377 29.55 219.11752Q29.034374 219.69565 29.034374 220.89877Z" fill-rule="nonzero"/><path fill="#9e9e9e" d="M23.01875 241.00815L21.971874 241.00815L21.971874 234.2894Q21.58125 234.64877 20.95625 235.02377Q20.346874 235.38315 19.8625 235.55502L19.8625 234.5394Q20.7375 234.11752 21.39375 233.5394Q22.065624 232.94565 22.346874 232.38315L23.01875 232.38315L23.01875 241.00815ZM26.05 236.77377Q26.05 235.24252 26.3625 234.32065Q26.675 233.38315 27.284374 232.88315Q27.909374 232.38315 28.846874 232.38315Q29.534374 232.38315 30.05 232.6644Q30.58125 232.94565 30.925 233.4769Q31.26875 233.99252 31.45625 234.74252Q31.64375 235.49252 31.64375 236.77377Q31.64375 238.2894 31.33125 239.21127Q31.034374 240.13315 30.409374 240.64877Q29.8 241.14877 28.846874 241.14877Q27.6125 241.14877 26.89375 240.25815Q26.05 239.19565 26.05 236.77377ZM27.128124 236.77377Q27.128124 238.88315 27.628124 239.58627Q28.128124 240.2894 28.846874 240.2894Q29.58125 240.2894 30.065624 239.58627Q30.565624 238.88315 30.565624 236.77377Q30.565624 234.64877 30.065624 233.96127Q29.58125 233.25815 28.83125 233.25815Q28.1125 233.25815 27.675 233.86752Q27.128124 234.64877 27.128124 236.77377ZM33.64375 241.00815L33.64375 239.80502L34.846874 239.80502L34.846874 241.00815L33.64375 241.00815ZM36.05 238.74252L37.1125 238.6019Q37.284374 239.49252 37.721874 239.89877Q38.159374 240.2894 38.784374 240.2894Q39.534374 240.2894 40.05 239.77377Q40.565624 239.25815 40.565624 238.49252Q40.565624 237.77377 40.08125 237.30502Q39.6125 236.82065 38.878124 236.82065Q38.58125 236.82065 38.128124 236.94565L38.253124 236.00815Q38.3625 236.02377 38.425 236.02377Q39.096874 236.02377 39.628124 235.68002Q40.175 235.32065 40.175 234.58627Q40.175 234.00815 39.784374 233.63315Q39.39375 233.24252 38.76875 233.24252Q38.159374 233.24252 37.7375 233.63315Q37.33125 234.02377 37.221874 234.7894L36.159374 234.6019Q36.346874 233.55502 37.034374 232.9769Q37.721874 232.38315 38.7375 232.38315Q39.440624 232.38315 40.034374 232.69565Q40.628124 232.99252 40.940624 233.50815Q41.253124 234.02377 41.253124 234.61752Q41.253124 235.1644 40.95625 235.63315Q40.659374 236.08627 40.08125 236.3519Q40.83125 236.52377 41.253124 237.08627Q41.675 237.63315 41.675 238.4769Q41.675 239.6019 40.846874 240.38315Q40.034374 241.1644 38.784374 241.1644Q37.659374 241.1644 36.909374 240.49252Q36.159374 239.80502 36.05 238.74252ZM43.253124 234.4769Q43.253124 233.55502 43.70625 232.9144Q44.175 232.27377 45.05 232.27377Q45.8625 232.27377 46.39375 232.8519Q46.925 233.43002 46.925 234.5394Q46.925 235.63315 46.378124 236.2269Q45.846874 236.80502 45.065624 236.80502Q44.284374 236.80502 43.76875 236.2269Q43.253124 235.64877 43.253124 234.4769ZM45.08125 232.99252Q44.690624 232.99252 44.425 233.33627Q44.175 233.68002 44.175 234.58627Q44.175 235.4144 44.425 235.75815Q44.690624 236.08627 45.08125 236.08627Q45.4875 236.08627 45.7375 235.74252Q46.003124 235.39877 46.003124 234.50815Q46.003124 233.6644 45.7375 233.33627Q45.471874 232.99252 45.08125 232.99252ZM45.08125 241.32065L49.784374 232.27377L50.64375 232.27377L45.95625 241.32065L45.08125 241.32065ZM48.8 238.99252Q48.8 238.07065 49.253124 237.43002Q49.721874 236.7894 50.6125 236.7894Q51.425 236.7894 51.95625 237.36752Q52.4875 237.93002 52.4875 239.05502Q52.4875 240.14877 51.940624 240.74252Q51.409374 241.32065 50.6125 241.32065Q49.846874 241.32065 49.315624 240.74252Q48.8 240.1644 48.8 238.99252ZM50.64375 237.50815Q50.2375 237.50815 49.971874 237.8519Q49.721874 238.19565 49.721874 239.1019Q49.721874 239.9144 49.9875 240.25815Q50.253124 240.6019 50.64375 240.6019Q51.034374 240.6019 51.3 240.25815Q51.565624 239.9144 51.565624 239.00815Q51.565624 238.18002 51.3 237.8519Q51.034374 237.50815 50.64375 237.50815Z" fill-rule="nonzero"/><path stroke="#757575" stroke-width="1.0" stroke-linecap="butt" d="M18.55 228.50815L145.23334 228.50815L160.44366 208.14267" fill-rule="nonzero"/><path fill="#9e9e9e" d="M162.44366 208.14267C162.44366 207.0381 161.54823 206.14267 160.44366 206.14267C159.3391 206.14267 158.44366 207.0381 158.44366 208.14267C158.44366 209.24724 159.3391 210.14267 160.44366 210.14267C161.54823 210.14267 162.44366 209.24724 162.44366 208.14267" fill-rule="nonzero"/><path fill="#1a1a1a" d="M18.89375 258.7887L19.925 258.64807Q19.95625 259.63245 20.284374 259.99182Q20.6125 260.3512 21.20625 260.3512Q21.628124 260.3512 21.940624 260.1637Q22.253124 259.96057 22.3625 259.63245Q22.4875 259.2887 22.4875 258.55432L22.4875 252.63245L23.6125 252.63245L23.6125 258.49182Q23.6125 259.56995 23.346874 260.1637Q23.096874 260.75745 22.534374 261.06995Q21.971874 261.36682 21.20625 261.36682Q20.08125 261.36682 19.471874 260.7262Q18.878124 260.06995 18.89375 258.7887ZM29.409374 260.46057Q28.815624 260.96057 28.26875 261.1637Q27.7375 261.36682 27.1125 261.36682Q26.08125 261.36682 25.534374 260.86682Q24.9875 260.36682 24.9875 259.58557Q24.9875 259.13245 25.190624 258.75745Q25.39375 258.36682 25.7375 258.14807Q26.08125 257.9137 26.503124 257.80432Q26.8 257.71057 27.440624 257.63245Q28.70625 257.49182 29.315624 257.27307Q29.315624 257.05432 29.315624 257.00745Q29.315624 256.3512 29.01875 256.08557Q28.6125 255.74182 27.815624 255.74182Q27.08125 255.74182 26.721874 256.00745Q26.3625 256.25745 26.190624 256.9137L25.159374 256.77307Q25.3 256.11682 25.628124 255.71057Q25.95625 255.30432 26.565624 255.08557Q27.175 254.86682 27.971874 254.86682Q28.76875 254.86682 29.26875 255.05432Q29.76875 255.24182 30.003124 255.52307Q30.2375 255.80432 30.33125 256.24182Q30.378124 256.50745 30.378124 257.21057L30.378124 258.61682Q30.378124 260.08557 30.440624 260.4762Q30.51875 260.86682 30.721874 261.2262L29.6125 261.2262Q29.45625 260.89807 29.409374 260.46057ZM29.315624 258.1012Q28.7375 258.33557 27.596874 258.50745Q26.940624 258.6012 26.675 258.7262Q26.409374 258.83557 26.253124 259.05432Q26.1125 259.27307 26.1125 259.55432Q26.1125 259.9762 26.425 260.25745Q26.753124 260.5387 27.3625 260.5387Q27.971874 260.5387 28.440624 260.27307Q28.925 260.00745 29.14375 259.5387Q29.315624 259.17932 29.315624 258.49182L29.315624 258.1012ZM34.065624 261.2262L31.70625 255.00745L32.815624 255.00745L34.159374 258.7262Q34.3625 259.33557 34.55 259.9762Q34.690624 259.49182 34.940624 258.80432L36.33125 255.00745L37.409374 255.00745L35.05 261.2262L34.065624 261.2262ZM42.409374 260.46057Q41.815624 260.96057 41.26875 261.1637Q40.7375 261.36682 40.1125 261.36682Q39.08125 261.36682 38.534374 260.86682Q37.9875 260.36682 37.9875 259.58557Q37.9875 259.13245 38.190624 258.75745Q38.39375 258.36682 38.7375 258.14807Q39.08125 257.9137 39.503124 257.80432Q39.8 257.71057 40.440624 257.63245Q41.70625 257.49182 42.315624 257.27307Q42.315624 257.05432 42.315624 257.00745Q42.315624 256.3512 42.01875 256.08557Q41.6125 255.74182 40.815624 255.74182Q40.08125 255.74182 39.721874 256.00745Q39.3625 256.25745 39.190624 256.9137L38.159374 256.77307Q38.3 256.11682 38.628124 255.71057Q38.95625 255.30432 39.565624 255.08557Q40.175 254.86682 40.971874 254.86682Q41.76875 254.86682 42.26875 255.05432Q42.76875 255.24182 43.003124 255.52307Q43.2375 255.80432 43.33125 256.24182Q43.378124 256.50745 43.378124 257.21057L43.378124 258.61682Q43.378124 260.08557 43.440624 260.4762Q43.51875 260.86682 43.721874 261.2262L42.6125 261.2262Q42.45625 260.89807 42.409374 260.46057ZM42.315624 258.1012Q41.7375 258.33557 40.596874 258.50745Q39.940624 258.6012 39.675 258.7262Q39.409374 258.83557 39.253124 259.05432Q39.1125 259.27307 39.1125 259.55432Q39.1125 259.9762 39.425 260.25745Q39.753124 260.5387 40.3625 260.5387Q40.971874 260.5387 41.440624 260.27307Q41.925 260.00745 42.14375 259.5387Q42.315624 259.17932 42.315624 258.49182L42.315624 258.1012ZM45.096874 258.46057L46.159374 258.36682Q46.2375 259.02307 46.51875 259.42932Q46.8 259.83557 47.378124 260.1012Q47.971874 260.3512 48.70625 260.3512Q49.346874 260.3512 49.846874 260.1637Q50.346874 259.96057 50.58125 259.63245Q50.83125 259.2887 50.83125 258.89807Q50.83125 258.49182 50.596874 258.19495Q50.3625 257.88245 49.83125 257.67932Q49.471874 257.5387 48.284374 257.25745Q47.1125 256.9762 46.64375 256.7262Q46.01875 256.39807 45.721874 255.92932Q45.425 255.44495 45.425 254.8512Q45.425 254.21057 45.784374 253.64807Q46.159374 253.06995 46.8625 252.7887Q47.58125 252.49182 48.440624 252.49182Q49.39375 252.49182 50.128124 252.80432Q50.8625 253.1012 51.253124 253.71057Q51.64375 254.30432 51.675 255.05432L50.58125 255.13245Q50.4875 254.31995 49.971874 253.9137Q49.471874 253.49182 48.4875 253.49182Q47.45625 253.49182 46.9875 253.86682Q46.51875 254.24182 46.51875 254.77307Q46.51875 255.24182 46.846874 255.5387Q47.175 255.83557 48.55 256.14807Q49.940624 256.46057 50.45625 256.69495Q51.20625 257.05432 51.565624 257.58557Q51.925 258.1012 51.925 258.80432Q51.925 259.49182 51.534374 260.1012Q51.14375 260.69495 50.409374 261.0387Q49.675 261.36682 48.753124 261.36682Q47.58125 261.36682 46.784374 261.0387Q46.003124 260.69495 45.55 260.00745Q45.1125 259.31995 45.096874 258.46057ZM57.409374 258.94495L58.440624 259.08557Q58.26875 260.14807 57.565624 260.75745Q56.8625 261.36682 55.846874 261.36682Q54.565624 261.36682 53.784374 260.5387Q53.01875 259.69495 53.01875 258.13245Q53.01875 257.13245 53.346874 256.38245Q53.690624 255.61682 54.3625 255.24182Q55.05 254.86682 55.8625 254.86682Q56.8625 254.86682 57.503124 255.38245Q58.159374 255.88245 58.346874 256.83557L57.315624 256.99182Q57.175 256.36682 56.8 256.05432Q56.425 255.7262 55.89375 255.7262Q55.096874 255.7262 54.596874 256.30432Q54.096874 256.86682 54.096874 258.1012Q54.096874 259.36682 54.58125 259.92932Q55.065624 260.49182 55.83125 260.49182Q56.45625 260.49182 56.8625 260.11682Q57.284374 259.74182 57.409374 258.94495ZM59.33125 261.2262L59.33125 255.00745L60.284374 255.00745L60.284374 255.94495Q60.64375 255.2887 60.940624 255.08557Q61.253124 254.86682 61.628124 254.86682Q62.159374 254.86682 62.70625 255.19495L62.346874 256.17932Q61.95625 255.94495 61.58125 255.94495Q61.221874 255.94495 60.940624 256.1637Q60.675 256.36682 60.565624 256.74182Q60.378124 257.30432 60.378124 257.96057L60.378124 261.2262L59.33125 261.2262ZM63.346874 253.8512L63.346874 252.63245L64.40938 252.63245L64.40938 253.8512L63.346874 253.8512ZM63.346874 261.2262L63.346874 255.00745L64.40938 255.00745L64.40938 261.2262L63.346874 261.2262ZM66.34688 263.61682L66.34688 255.00745L67.3 255.00745L67.3 255.80432Q67.64375 255.33557 68.06563 255.1012Q68.50313 254.86682 69.1125 254.86682Q69.90938 254.86682 70.51875 255.27307Q71.12813 255.67932 71.425 256.42932Q71.7375 257.17932 71.7375 258.06995Q71.7375 259.02307 71.39375 259.7887Q71.06563 260.55432 70.40938 260.96057Q69.75313 261.36682 69.03438 261.36682Q68.50313 261.36682 68.08125 261.14807Q67.65938 260.9137 67.39375 260.58557L67.39375 263.61682L66.34688 263.61682ZM67.3 258.14807Q67.3 259.3512 67.78438 259.92932Q68.26875 260.49182 68.95625 260.49182Q69.65938 260.49182 70.15938 259.89807Q70.65938 259.30432 70.65938 258.05432Q70.65938 256.86682 70.175 256.2887Q69.69063 255.69495 69.00313 255.69495Q68.33125 255.69495 67.81563 256.31995Q67.3 256.94495 67.3 258.14807ZM75.64375 260.2887L75.8 261.21057Q75.34688 261.30432 75.00313 261.30432Q74.425 261.30432 74.1125 261.13245Q73.8 260.94495 73.65938 260.64807Q73.53438 260.3512 73.53438 259.39807L73.53438 255.81995L72.76875 255.81995L72.76875 255.00745L73.53438 255.00745L73.53438 253.46057L74.58125 252.83557L74.58125 255.00745L75.64375 255.00745L75.64375 255.81995L74.58125 255.81995L74.58125 259.46057Q74.58125 259.9137 74.62813 260.0387Q74.69063 260.1637 74.81563 260.24182Q74.94063 260.31995 75.175 260.31995Q75.3625 260.31995 75.64375 260.2887Z" fill-rule="nonzero"/><path fill="#9e9e9e" d="M23.01875 278.2262L21.971874 278.2262L21.971874 271.50745Q21.58125 271.86682 20.95625 272.24182Q20.346874 272.6012 19.8625 272.77307L19.8625 271.75745Q20.7375 271.33557 21.39375 270.75745Q22.065624 270.1637 22.346874 269.6012L23.01875 269.6012L23.01875 278.2262ZM30.01875 278.2262L28.971874 278.2262L28.971874 271.50745Q28.58125 271.86682 27.95625 272.24182Q27.346874 272.6012 26.8625 272.77307L26.8625 271.75745Q27.7375 271.33557 28.39375 270.75745Q29.065624 270.1637 29.346874 269.6012L30.01875 269.6012L30.01875 278.2262ZM33.64375 278.2262L33.64375 277.02307L34.846874 277.02307L34.846874 278.2262L33.64375 278.2262ZM41.596874 277.21057L41.596874 278.2262L35.909374 278.2262Q35.909374 277.8512 36.034374 277.49182Q36.253124 276.9137 36.721874 276.3512Q37.20625 275.7887 38.1125 275.05432Q39.51875 273.89807 40.003124 273.2262Q40.503124 272.55432 40.503124 271.96057Q40.503124 271.33557 40.05 270.9137Q39.596874 270.4762 38.878124 270.4762Q38.1125 270.4762 37.659374 270.92932Q37.20625 271.38245 37.190624 272.19495L36.1125 272.08557Q36.221874 270.86682 36.940624 270.24182Q37.675 269.6012 38.909374 269.6012Q40.14375 269.6012 40.8625 270.2887Q41.58125 270.9762 41.58125 271.99182Q41.58125 272.50745 41.3625 273.00745Q41.159374 273.49182 40.659374 274.05432Q40.175 274.6012 39.05 275.55432Q38.096874 276.3512 37.815624 276.64807Q37.55 276.92932 37.378124 277.21057L41.596874 277.21057ZM43.253124 271.69495Q43.253124 270.77307 43.70625 270.13245Q44.175 269.49182 45.05 269.49182Q45.8625 269.49182 46.39375 270.06995Q46.925 270.64807 46.925 271.75745Q46.925 272.8512 46.378124 273.44495Q45.846874 274.02307 45.065624 274.02307Q44.284374 274.02307 43.76875 273.44495Q43.253124 272.86682 43.253124 271.69495ZM45.08125 270.21057Q44.690624 270.21057 44.425 270.55432Q44.175 270.89807 44.175 271.80432Q44.175 272.63245 44.425 272.9762Q44.690624 273.30432 45.08125 273.30432Q45.4875 273.30432 45.7375 272.96057Q46.003124 272.61682 46.003124 271.7262Q46.003124 270.88245 45.7375 270.55432Q45.471874 270.21057 45.08125 270.21057ZM45.08125 278.5387L49.784374 269.49182L50.64375 269.49182L45.95625 278.5387L45.08125 278.5387ZM48.8 276.21057Q48.8 275.2887 49.253124 274.64807Q49.721874 274.00745 50.6125 274.00745Q51.425 274.00745 51.95625 274.58557Q52.4875 275.14807 52.4875 276.27307Q52.4875 277.36682 51.940624 277.96057Q51.409374 278.5387 50.6125 278.5387Q49.846874 278.5387 49.315624 277.96057Q48.8 277.38245 48.8 276.21057ZM50.64375 274.7262Q50.2375 274.7262 49.971874 275.06995Q49.721874 275.4137 49.721874 276.31995Q49.721874 277.13245 49.9875 277.4762Q50.253124 277.81995 50.64375 277.81995Q51.034374 277.81995 51.3 277.4762Q51.565624 277.13245 51.565624 276.2262Q51.565624 275.39807 51.3 275.06995Q51.034374 274.7262 50.64375 274.7262Z" fill-rule="nonzero"/><path stroke="#757575" stroke-width="1.0" stroke-linecap="butt" d="M18.55 265.7262L145.23334 265.7262L204.92946 265.7262" fill-rule="nonzero"/><path fill="#9e9e9e" d="M206.92946 265.7262C206.92946 264.6216 206.03403 263.7262 204.92946 263.7262C203.82489 263.7262 202.92946 264.6216 202.92946 265.7262C202.92946 266.83075 203.82489 267.7262 204.92946 267.7262C206.03403 267.7262 206.92946 266.83075 206.92946 265.7262" fill-rule="nonzero"/><path fill="#1a1a1a" d="M565.5125 108.09739L566.6375 108.394264Q566.27814 109.78489 565.35626 110.519264Q564.4344 111.25364 563.09064 111.25364Q561.7 111.25364 560.825 110.69114Q559.95 110.12864 559.4969 109.06614Q559.04376 107.988014 559.04376 106.75364Q559.04376 105.40989 559.5594 104.40989Q560.075 103.40989 561.0125 102.894264Q561.96564 102.37864 563.10626 102.37864Q564.3875 102.37864 565.2625 103.03489Q566.15314 103.69114 566.4969 104.87864L565.3719 105.144264Q565.075 104.206764 564.4969 103.78489Q563.9344 103.34739 563.075 103.34739Q562.09064 103.34739 561.41876 103.831764Q560.7625 104.300514 560.48126 105.09739Q560.21564 105.894264 560.21564 106.75364Q560.21564 107.84739 560.52814 108.65989Q560.85626 109.47239 561.52814 109.87864Q562.2 110.28489 562.9969 110.28489Q563.95 110.28489 564.60626 109.738014Q565.27814 109.19114 565.5125 108.09739ZM570.45 109.72239L570.45 107.363014L568.1219 107.363014L568.1219 106.37864L570.45 106.37864L570.45 104.050514L571.45 104.050514L571.45 106.37864L573.79376 106.37864L573.79376 107.363014L571.45 107.363014L571.45 109.72239L570.45 109.72239ZM577.45 109.72239L577.45 107.363014L575.1219 107.363014L575.1219 106.37864L577.45 106.37864L577.45 104.050514L578.45 104.050514L578.45 106.37864L580.79376 106.37864L580.79376 107.363014L578.45 107.363014L578.45 109.72239L577.45 109.72239Z" fill-rule="nonzero"/><path fill="#9e9e9e" d="M552.4969 127.0974L552.4969 128.11302L546.8094 128.11302Q546.8094 127.73802 546.9344 127.37865Q547.15314 126.80052 547.6219 126.23802Q548.10626 125.67552 549.0125 124.94115Q550.41876 123.7849 550.90314 123.11302Q551.40314 122.44115 551.40314 121.8474Q551.40314 121.2224 550.95 120.80052Q550.4969 120.36302 549.77814 120.36302Q549.0125 120.36302 548.5594 120.81615Q548.10626 121.26927 548.09064 122.08177L547.0125 121.9724Q547.1219 120.75365 547.84064 120.12865Q548.575 119.48802 549.8094 119.48802Q551.04376 119.48802 551.7625 120.17552Q552.48126 120.86302 552.48126 121.87865Q552.48126 122.39427 552.2625 122.89427Q552.0594 123.37865 551.5594 123.94115Q551.075 124.48802 549.95 125.44115Q548.9969 126.23802 548.71564 126.5349Q548.45 126.81615 548.27814 127.0974L552.4969 127.0974ZM557.91876 128.11302L556.8719 128.11302L556.8719 121.39427Q556.48126 121.75365 555.85626 122.12865Q555.2469 122.48802 554.7625 122.6599L554.7625 121.64427Q555.6375 121.2224 556.29376 120.64427Q556.96564 120.05052 557.2469 119.48802L557.91876 119.48802L557.91876 128.11302ZM561.54376 128.11302L561.54376 126.9099L562.7469 126.9099L562.7469 128.11302L561.54376 128.11302ZM564.0125 120.64427L564.0125 119.62865L569.575 119.62865L569.575 120.45677Q568.7625 121.33177 567.95 122.7849Q567.15314 124.2224 566.71564 125.75365Q566.3875 126.83177 566.3094 128.11302L565.21564 128.11302Q565.23126 127.0974 565.60626 125.6599Q565.9969 124.2224 566.7 122.89427Q567.41876 121.56615 568.23126 120.64427L564.0125 120.64427ZM571.15314 121.58177Q571.15314 120.6599 571.60626 120.01927Q572.075 119.37865 572.95 119.37865Q573.7625 119.37865 574.29376 119.95677Q574.825 120.5349 574.825 121.64427Q574.825 122.73802 574.27814 123.33177Q573.7469 123.9099 572.96564 123.9099Q572.1844 123.9099 571.66876 123.33177Q571.15314 122.75365 571.15314 121.58177ZM572.98126 120.0974Q572.59064 120.0974 572.325 120.44115Q572.075 120.7849 572.075 121.69115Q572.075 122.51927 572.325 122.86302Q572.59064 123.19115 572.98126 123.19115Q573.3875 123.19115 573.6375 122.8474Q573.90314 122.50365 573.90314 121.61302Q573.90314 120.76927 573.6375 120.44115Q573.3719 120.0974 572.98126 120.0974ZM572.98126 128.42552L577.6844 119.37865L578.54376 119.37865L573.85626 128.42552L572.98126 128.42552ZM576.7 126.0974Q576.7 125.17552 577.15314 124.5349Q577.6219 123.89427 578.5125 123.89427Q579.325 123.89427 579.85626 124.4724Q580.3875 125.0349 580.3875 126.1599Q580.3875 127.25365 579.84064 127.8474Q579.3094 128.42552 578.5125 128.42552Q577.7469 128.42552 577.21564 127.8474Q576.7 127.26927 576.7 126.0974ZM578.54376 124.61302Q578.1375 124.61302 577.8719 124.95677Q577.6219 125.30052 577.6219 126.20677Q577.6219 127.01927 577.8875 127.36302Q578.15314 127.70677 578.54376 127.70677Q578.9344 127.70677 579.2 127.36302Q579.46564 127.01927 579.46564 126.11302Q579.46564 125.2849 579.2 124.95677Q578.9344 124.61302 578.54376 124.61302Z" fill-rule="nonzero"/><path stroke="#757575" stroke-width="1.0" stroke-linecap="butt" d="M581.45 115.613014L454.76666 115.613014L388.88803 115.613014" fill-rule="nonzero"/><path fill="#9e9e9e" d="M390.88803 115.613014C390.88803 114.508446 389.9926 113.613014 388.88803 113.613014C387.78345 113.613014 386.88803 114.508446 386.88803 115.613014C386.88803 116.71758 387.78345 117.613014 388.88803 117.613014C389.9926 117.613014 390.88803 116.71758 390.88803 115.613014" fill-rule="nonzero"/><path fill="#1a1a1a" d="M579.5125 218.27994L580.6375 218.57681Q580.27814 219.96744 579.35626 220.70181Q578.4344 221.43619 577.09064 221.43619Q575.7 221.43619 574.825 220.87369Q573.95 220.31119 573.4969 219.24869Q573.04376 218.17056 573.04376 216.93619Q573.04376 215.59244 573.5594 214.59244Q574.075 213.59244 575.0125 213.07681Q575.96564 212.56119 577.10626 212.56119Q578.3875 212.56119 579.2625 213.21744Q580.15314 213.87369 580.4969 215.06119L579.3719 215.32681Q579.075 214.38931 578.4969 213.96744Q577.9344 213.52994 577.075 213.52994Q576.09064 213.52994 575.41876 214.01431Q574.7625 214.48306 574.48126 215.27994Q574.21564 216.07681 574.21564 216.93619Q574.21564 218.02994 574.52814 218.84244Q574.85626 219.65494 575.52814 220.06119Q576.2 220.46744 576.9969 220.46744Q577.95 220.46744 578.60626 219.92056Q579.27814 219.37369 579.5125 218.27994Z" fill-rule="nonzero"/><path fill="#9e9e9e" d="M550.91876 238.29556L549.8719 238.29556L549.8719 231.57681Q549.48126 231.93619 548.85626 232.31119Q548.2469 232.67056 547.7625 232.84244L547.7625 231.82681Q548.6375 231.40494 549.29376 230.82681Q549.96564 230.23306 550.2469 229.67056L550.91876 229.67056L550.91876 238.29556ZM554.0125 230.82681L554.0125 229.81119L559.575 229.81119L559.575 230.63931Q558.7625 231.51431 557.95 232.96744Q557.15314 234.40494 556.71564 235.93619Q556.3875 237.01431 556.3094 238.29556L555.21564 238.29556Q555.23126 237.27994 555.60626 235.84244Q555.9969 234.40494 556.7 233.07681Q557.41876 231.74869 558.23126 230.82681L554.0125 230.82681ZM561.54376 238.29556L561.54376 237.09244L562.7469 237.09244L562.7469 238.29556L561.54376 238.29556ZM569.41876 231.81119L568.3719 231.88931Q568.23126 231.26431 567.98126 230.98306Q567.54376 230.52994 566.91876 230.52994Q566.41876 230.52994 566.02814 230.81119Q565.54376 231.18619 565.2469 231.88931Q564.96564 232.57681 564.95 233.85806Q565.325 233.27994 565.8719 232.99869Q566.4344 232.71744 567.04376 232.71744Q568.09064 232.71744 568.825 233.49869Q569.575 234.27994 569.575 235.49869Q569.575 236.31119 569.21564 237.01431Q568.8719 237.70181 568.2625 238.07681Q567.65314 238.43619 566.8875 238.43619Q565.5594 238.43619 564.73126 237.46744Q563.90314 236.49869 563.90314 234.27994Q563.90314 231.77994 564.825 230.65494Q565.6219 229.67056 566.98126 229.67056Q567.9969 229.67056 568.6375 230.24869Q569.29376 230.81119 569.41876 231.81119ZM565.1219 235.51431Q565.1219 236.06119 565.34064 236.56119Q565.575 237.04556 565.98126 237.31119Q566.40314 237.57681 566.8719 237.57681Q567.52814 237.57681 568.0125 237.04556Q568.4969 236.49869 568.4969 235.57681Q568.4969 234.68619 568.0125 234.17056Q567.54376 233.65494 566.825 233.65494Q566.10626 233.65494 565.60626 234.17056Q565.1219 234.68619 565.1219 235.51431ZM571.15314 231.76431Q571.15314 230.84244 571.60626 230.20181Q572.075 229.56119 572.95 229.56119Q573.7625 229.56119 574.29376 230.13931Q574.825 230.71744 574.825 231.82681Q574.825 232.92056 574.27814 233.51431Q573.7469 234.09244 572.96564 234.09244Q572.1844 234.09244 571.66876 233.51431Q571.15314 232.93619 571.15314 231.76431ZM572.98126 230.27994Q572.59064 230.27994 572.325 230.62369Q572.075 230.96744 572.075 231.87369Q572.075 232.70181 572.325 233.04556Q572.59064 233.37369 572.98126 233.37369Q573.3875 233.37369 573.6375 233.02994Q573.90314 232.68619 573.90314 231.79556Q573.90314 230.95181 573.6375 230.62369Q573.3719 230.27994 572.98126 230.27994ZM572.98126 238.60806L577.6844 229.56119L578.54376 229.56119L573.85626 238.60806L572.98126 238.60806ZM576.7 236.27994Q576.7 235.35806 577.15314 234.71744Q577.6219 234.07681 578.5125 234.07681Q579.325 234.07681 579.85626 234.65494Q580.3875 235.21744 580.3875 236.34244Q580.3875 237.43619 579.84064 238.02994Q579.3094 238.60806 578.5125 238.60806Q577.7469 238.60806 577.21564 238.02994Q576.7 237.45181 576.7 236.27994ZM578.54376 234.79556Q578.1375 234.79556 577.8719 235.13931Q577.6219 235.48306 577.6219 236.38931Q577.6219 237.20181 577.8875 237.54556Q578.15314 237.88931 578.54376 237.88931Q578.9344 237.88931 579.2 237.54556Q579.46564 237.20181 579.46564 236.29556Q579.46564 235.46744 579.2 235.13931Q578.9344 234.79556 578.54376 234.79556Z" fill-rule="nonzero"/><path stroke="#757575" stroke-width="1.0" stroke-linecap="butt" d="M581.45 225.79556L454.76666 225.79556L433.09683 225.79556" fill-rule="nonzero"/><path fill="#9e9e9e" d="M435.09683 225.79556C435.09683 224.691 434.20142 223.79556 433.09683 223.79556C431.99228 223.79556 431.09683 224.691 431.09683 225.79556C431.09683 226.90013 431.99228 227.79556 433.09683 227.79556C434.20142 227.79556 435.09683 226.90013 435.09683 225.79556" fill-rule="nonzero"/><path fill="#1a1a1a" d="M544.3719 285.93018L544.3719 277.33643L547.6219 277.33643Q548.46564 277.33643 548.91876 277.41455Q549.5594 277.52393 549.98126 277.8208Q550.41876 278.11768 550.66876 278.64893Q550.9344 279.18018 550.9344 279.8208Q550.9344 280.91455 550.23126 281.68018Q549.54376 282.43018 547.71564 282.43018L545.5125 282.43018L545.5125 285.93018L544.3719 285.93018ZM545.5125 281.43018L547.73126 281.43018Q548.84064 281.43018 549.29376 281.02393Q549.7625 280.60205 549.7625 279.85205Q549.7625 279.3208 549.48126 278.9458Q549.21564 278.55518 548.77814 278.43018Q548.48126 278.35205 547.71564 278.35205L545.5125 278.35205L545.5125 281.43018ZM552.2 288.3208L552.075 287.33643Q552.41876 287.43018 552.6844 287.43018Q553.02814 287.43018 553.23126 287.30518Q553.45 287.1958 553.59064 286.99268Q553.6844 286.8208 553.91876 286.1958Q553.9344 286.11768 554.0125 285.9458L551.6375 279.71143L552.77814 279.71143L554.075 283.30518Q554.325 283.99268 554.52814 284.7583Q554.71564 284.02393 554.96564 283.33643L556.29376 279.71143L557.34064 279.71143L554.98126 286.03955Q554.59064 287.05518 554.3875 287.4458Q554.10626 287.97705 553.73126 288.21143Q553.3719 288.46143 552.8719 288.46143Q552.575 288.46143 552.2 288.3208ZM560.54376 284.99268L560.7 285.91455Q560.2469 286.0083 559.90314 286.0083Q559.325 286.0083 559.0125 285.83643Q558.7 285.64893 558.5594 285.35205Q558.4344 285.05518 558.4344 284.10205L558.4344 280.52393L557.66876 280.52393L557.66876 279.71143L558.4344 279.71143L558.4344 278.16455L559.48126 277.53955L559.48126 279.71143L560.54376 279.71143L560.54376 280.52393L559.48126 280.52393L559.48126 284.16455Q559.48126 284.61768 559.52814 284.74268Q559.59064 284.86768 559.71564 284.9458Q559.84064 285.02393 560.075 285.02393Q560.2625 285.02393 560.54376 284.99268ZM561.2469 285.93018L561.2469 277.33643L562.29376 277.33643L562.29376 280.41455Q563.02814 279.5708 564.15314 279.5708Q564.85626 279.5708 565.35626 279.85205Q565.8719 280.11768 566.09064 280.60205Q566.3094 281.0708 566.3094 281.99268L566.3094 285.93018L565.2625 285.93018L565.2625 281.99268Q565.2625 281.1958 564.91876 280.83643Q564.575 280.47705 563.95 280.47705Q563.48126 280.47705 563.0594 280.72705Q562.65314 280.96143 562.46564 281.3833Q562.29376 281.78955 562.29376 282.52393L562.29376 285.93018L561.2469 285.93018ZM567.85626 282.8208Q567.85626 281.08643 568.8094 280.2583Q569.60626 279.5708 570.7625 279.5708Q572.04376 279.5708 572.85626 280.41455Q573.6844 281.24268 573.6844 282.72705Q573.6844 283.93018 573.325 284.61768Q572.96564 285.30518 572.2625 285.6958Q571.575 286.0708 570.7625 286.0708Q569.46564 286.0708 568.65314 285.24268Q567.85626 284.39893 567.85626 282.8208ZM568.9344 282.8208Q568.9344 284.0083 569.45 284.60205Q569.98126 285.1958 570.7625 285.1958Q571.5594 285.1958 572.075 284.60205Q572.59064 284.0083 572.59064 282.78955Q572.59064 281.6333 572.0594 281.03955Q571.54376 280.4458 570.7625 280.4458Q569.98126 280.4458 569.45 281.03955Q568.9344 281.61768 568.9344 282.8208ZM575.2469 285.93018L575.2469 279.71143L576.1844 279.71143L576.1844 280.58643Q576.8719 279.5708 578.16876 279.5708Q578.73126 279.5708 579.2 279.77393Q579.6844 279.97705 579.91876 280.30518Q580.15314 280.6333 580.2469 281.0708Q580.29376 281.36768 580.29376 282.10205L580.29376 285.93018L579.2469 285.93018L579.2469 282.14893Q579.2469 281.49268 579.1219 281.18018Q578.9969 280.86768 578.6844 280.68018Q578.3719 280.47705 577.95 280.47705Q577.27814 280.47705 576.77814 280.91455Q576.29376 281.33643 576.29376 282.52393L576.29376 285.93018L575.2469 285.93018Z" fill-rule="nonzero"/><path fill="#9e9e9e" d="M550.91876 302.93018L549.8719 302.93018L549.8719 296.21143Q549.48126 296.5708 548.85626 296.9458Q548.2469 297.30518 547.7625 297.47705L547.7625 296.46143Q548.6375 296.03955 549.29376 295.46143Q549.96564 294.86768 550.2469 294.30518L550.91876 294.30518L550.91876 302.93018ZM559.41876 296.4458L558.3719 296.52393Q558.23126 295.89893 557.98126 295.61768Q557.54376 295.16455 556.91876 295.16455Q556.41876 295.16455 556.02814 295.4458Q555.54376 295.8208 555.2469 296.52393Q554.96564 297.21143 554.95 298.49268Q555.325 297.91455 555.8719 297.6333Q556.4344 297.35205 557.04376 297.35205Q558.09064 297.35205 558.825 298.1333Q559.575 298.91455 559.575 300.1333Q559.575 300.9458 559.21564 301.64893Q558.8719 302.33643 558.2625 302.71143Q557.65314 303.0708 556.8875 303.0708Q555.5594 303.0708 554.73126 302.10205Q553.90314 301.1333 553.90314 298.91455Q553.90314 296.41455 554.825 295.28955Q555.6219 294.30518 556.98126 294.30518Q557.9969 294.30518 558.6375 294.8833Q559.29376 295.4458 559.41876 296.4458ZM555.1219 300.14893Q555.1219 300.6958 555.34064 301.1958Q555.575 301.68018 555.98126 301.9458Q556.40314 302.21143 556.8719 302.21143Q557.52814 302.21143 558.0125 301.68018Q558.4969 301.1333 558.4969 300.21143Q558.4969 299.3208 558.0125 298.80518Q557.54376 298.28955 556.825 298.28955Q556.10626 298.28955 555.60626 298.80518Q555.1219 299.3208 555.1219 300.14893ZM561.54376 302.93018L561.54376 301.72705L562.7469 301.72705L562.7469 302.93018L561.54376 302.93018ZM564.10626 300.9458L565.1219 300.85205Q565.2469 301.5708 565.60626 301.89893Q565.98126 302.21143 566.54376 302.21143Q567.02814 302.21143 567.3875 301.99268Q567.7625 301.7583 567.9969 301.39893Q568.23126 301.02393 568.3875 300.39893Q568.54376 299.7583 568.54376 299.10205Q568.54376 299.02393 568.54376 298.8833Q568.23126 299.3833 567.6844 299.71143Q567.1375 300.02393 566.4969 300.02393Q565.41876 300.02393 564.6844 299.2583Q563.95 298.47705 563.95 297.21143Q563.95 295.89893 564.71564 295.10205Q565.4969 294.30518 566.65314 294.30518Q567.48126 294.30518 568.16876 294.7583Q568.8719 295.21143 569.23126 296.05518Q569.59064 296.8833 569.59064 298.46143Q569.59064 300.10205 569.23126 301.08643Q568.8875 302.05518 568.16876 302.5708Q567.46564 303.0708 566.52814 303.0708Q565.5125 303.0708 564.8719 302.52393Q564.23126 301.96143 564.10626 300.9458ZM568.41876 297.14893Q568.41876 296.24268 567.9344 295.71143Q567.46564 295.18018 566.77814 295.18018Q566.075 295.18018 565.54376 295.7583Q565.02814 296.3208 565.02814 297.24268Q565.02814 298.05518 565.52814 298.5708Q566.02814 299.08643 566.7469 299.08643Q567.48126 299.08643 567.95 298.5708Q568.41876 298.05518 568.41876 297.14893ZM571.15314 296.39893Q571.15314 295.47705 571.60626 294.83643Q572.075 294.1958 572.95 294.1958Q573.7625 294.1958 574.29376 294.77393Q574.825 295.35205 574.825 296.46143Q574.825 297.55518 574.27814 298.14893Q573.7469 298.72705 572.96564 298.72705Q572.1844 298.72705 571.66876 298.14893Q571.15314 297.5708 571.15314 296.39893ZM572.98126 294.91455Q572.59064 294.91455 572.325 295.2583Q572.075 295.60205 572.075 296.5083Q572.075 297.33643 572.325 297.68018Q572.59064 298.0083 572.98126 298.0083Q573.3875 298.0083 573.6375 297.66455Q573.90314 297.3208 573.90314 296.43018Q573.90314 295.58643 573.6375 295.2583Q573.3719 294.91455 572.98126 294.91455ZM572.98126 303.24268L577.6844 294.1958L578.54376 294.1958L573.85626 303.24268L572.98126 303.24268ZM576.7 300.91455Q576.7 299.99268 577.15314 299.35205Q577.6219 298.71143 578.5125 298.71143Q579.325 298.71143 579.85626 299.28955Q580.3875 299.85205 580.3875 300.97705Q580.3875 302.0708 579.84064 302.66455Q579.3094 303.24268 578.5125 303.24268Q577.7469 303.24268 577.21564 302.66455Q576.7 302.08643 576.7 300.91455ZM578.54376 299.43018Q578.1375 299.43018 577.8719 299.77393Q577.6219 300.11768 577.6219 301.02393Q577.6219 301.83643 577.8875 302.18018Q578.15314 302.52393 578.54376 302.52393Q578.9344 302.52393 579.2 302.18018Q579.46564 301.83643 579.46564 300.93018Q579.46564 300.10205 579.2 299.77393Q578.9344 299.43018 578.54376 299.43018Z" fill-rule="nonzero"/><path stroke="#757575" stroke-width="1.0" stroke-linecap="butt" d="M581.45 290.43018L454.76666 290.43018L320.29636 290.43018" fill-rule="nonzero"/><path fill="#9e9e9e" d="M322.29636 290.43018C322.29636 289.3256 321.40094 288.43018 320.29636 288.43018C319.1918 288.43018 318.29636 289.3256 318.29636 290.43018C318.29636 291.53473 319.1918 292.43018 320.29636 292.43018C321.40094 292.43018 322.29636 291.53473 322.29636 290.43018" fill-rule="nonzero"/><path fill="#757575" d="M20.409374 37.55L20.409374 23.2375L22.315624 23.2375L22.315624 37.55L20.409374 37.55ZM26.284374 37.55L26.284374 28.55L24.7375 28.55L24.7375 27.175L26.284374 27.175L26.284374 26.08125Q26.284374 25.034374 26.471874 24.51875Q26.721874 23.83125 27.3625 23.409374Q28.003124 22.9875 29.159374 22.9875Q29.909374 22.9875 30.8 23.159374L30.534374 24.690624Q29.9875 24.596874 29.503124 24.596874Q28.70625 24.596874 28.3625 24.940624Q28.034374 25.284374 28.034374 26.221874L28.034374 27.175L30.065624 27.175L30.065624 28.55L28.034374 28.55L28.034374 37.55L26.284374 37.55ZM37.784374 41.55L37.596874 39.89375Q38.175 40.05 38.596874 40.05Q39.190624 40.05 39.534374 39.846874Q39.89375 39.659374 40.1125 39.315624Q40.284374 39.05 40.659374 38.003124Q40.70625 37.846874 40.815624 37.565624L36.878124 27.175L38.76875 27.175L40.925 33.190624Q41.346874 34.33125 41.675 35.58125Q41.9875 34.378124 42.39375 33.221874L44.6125 27.175L46.378124 27.175L42.425 37.721874Q41.8 39.440624 41.440624 40.08125Q40.971874 40.95625 40.3625 41.346874Q39.76875 41.753124 38.925 41.753124Q38.409374 41.753124 37.784374 41.55ZM47.221874 32.3625Q47.221874 29.4875 48.815624 28.096874Q50.159374 26.940624 52.08125 26.940624Q54.221874 26.940624 55.565624 28.346874Q56.925 29.753124 56.925 32.221874Q56.925 34.221874 56.33125 35.378124Q55.7375 36.51875 54.58125 37.159374Q53.440624 37.784374 52.08125 37.784374Q49.89375 37.784374 48.55 36.39375Q47.221874 34.9875 47.221874 32.3625ZM49.01875 32.3625Q49.01875 34.3625 49.878124 35.346874Q50.753124 36.33125 52.08125 36.33125Q53.39375 36.33125 54.253124 35.346874Q55.128124 34.346874 55.128124 32.3Q55.128124 30.378124 54.253124 29.39375Q53.378124 28.39375 52.08125 28.39375Q50.753124 28.39375 49.878124 29.39375Q49.01875 30.378124 49.01875 32.3625ZM65.65938 37.55L65.65938 36.01875Q64.45625 37.784374 62.378124 37.784374Q61.45625 37.784374 60.659374 37.440624Q59.8625 37.08125 59.471874 36.55Q59.096874 36.01875 58.940624 35.2375Q58.83125 34.721874 58.83125 33.596874L58.83125 27.175L60.58125 27.175L60.58125 32.925Q60.58125 34.3 60.690624 34.784374Q60.8625 35.471874 61.39375 35.878124Q61.940624 36.26875 62.721874 36.26875Q63.51875 36.26875 64.20625 35.8625Q64.90938 35.45625 65.19063 34.76875Q65.4875 34.065624 65.4875 32.7375L65.4875 27.175L67.2375 27.175L67.2375 37.55L65.65938 37.55ZM77.78438 37.55L74.6125 27.175L76.425 27.175L78.08125 33.159374L78.69063 35.39375Q78.7375 35.221874 79.22188 33.253124L80.87813 27.175L82.69063 27.175L84.2375 33.190624L84.75313 35.175L85.34688 33.175L87.12813 27.175L88.83125 27.175L85.59688 37.55L83.76875 37.55L82.1125 31.33125L81.72188 29.565624L79.6125 37.55L77.78438 37.55ZM96.64375 36.26875Q95.65938 37.096874 94.75313 37.440624Q93.84688 37.784374 92.81563 37.784374Q91.1125 37.784374 90.19063 36.95625Q89.26875 36.1125 89.26875 34.815624Q89.26875 34.05 89.6125 33.425Q89.97188 32.8 90.53438 32.425Q91.09688 32.034374 91.8 31.83125Q92.31563 31.70625 93.3625 31.565624Q95.4875 31.315624 96.4875 30.971874Q96.50313 30.6125 96.50313 30.503124Q96.50313 29.440624 96.00313 28.9875Q95.33125 28.39375 94.00313 28.39375Q92.75313 28.39375 92.15938 28.83125Q91.58125 29.26875 91.3 30.378124L89.58125 30.14375Q89.81563 29.034374 90.34688 28.3625Q90.87813 27.675 91.89375 27.315624Q92.90938 26.940624 94.25313 26.940624Q95.58125 26.940624 96.40938 27.253124Q97.2375 27.565624 97.62813 28.05Q98.01875 28.51875 98.175 29.2375Q98.26875 29.690624 98.26875 30.8625L98.26875 33.20625Q98.26875 35.659374 98.37813 36.315624Q98.4875 36.95625 98.83125 37.55L96.9875 37.55Q96.72188 37.003124 96.64375 36.26875ZM96.4875 32.346874Q95.53438 32.7375 93.6125 33.003124Q92.53438 33.159374 92.08125 33.3625Q91.64375 33.55 91.39375 33.925Q91.14375 34.3 91.14375 34.76875Q91.14375 35.471874 91.675 35.940624Q92.20625 36.409374 93.2375 36.409374Q94.25313 36.409374 95.03438 35.971874Q95.83125 35.51875 96.20625 34.753124Q96.4875 34.14375 96.4875 32.9875L96.4875 32.346874ZM100.8625 37.55L100.8625 27.175L102.45625 27.175L102.45625 28.659374Q103.59688 26.940624 105.75313 26.940624Q106.69063 26.940624 107.47188 27.284374Q108.26875 27.6125 108.65938 28.159374Q109.05 28.70625 109.20625 29.45625Q109.3 29.95625 109.3 31.175L109.3 37.55L107.53438 37.55L107.53438 31.2375Q107.53438 30.159374 107.33125 29.628124Q107.12813 29.096874 106.59688 28.784374Q106.08125 28.471874 105.37813 28.471874Q104.25313 28.471874 103.44063 29.190624Q102.62813 29.89375 102.62813 31.878124L102.62813 37.55L100.8625 37.55ZM115.70625 35.971874L115.95625 37.534374Q115.22188 37.690624 114.62813 37.690624Q113.675 37.690624 113.14375 37.39375Q112.62813 37.08125 112.40938 36.596874Q112.19063 36.096874 112.19063 34.51875L112.19063 28.55L110.90938 28.55L110.90938 27.175L112.19063 27.175L112.19063 24.6125L113.94063 23.55L113.94063 27.175L115.70625 27.175L115.70625 28.55L113.94063 28.55L113.94063 34.6125Q113.94063 35.3625 114.03438 35.58125Q114.12813 35.784374 114.33125 35.925Q114.55 36.05 114.94063 36.05Q115.22188 36.05 115.70625 35.971874ZM125.4875 37.55L123.8625 37.55L123.8625 23.2375L125.6125 23.2375L125.6125 28.346874Q126.7375 26.940624 128.45625 26.940624Q129.40938 26.940624 130.26875 27.33125Q131.12813 27.721874 131.675 28.425Q132.22188 29.1125 132.53438 30.096874Q132.84688 31.08125 132.84688 32.20625Q132.84688 34.878124 131.53438 36.33125Q130.22188 37.784374 128.37813 37.784374Q126.53438 37.784374 125.4875 36.253124L125.4875 37.55ZM125.47188 32.284374Q125.47188 34.14375 125.97188 34.9875Q126.81563 36.33125 128.22188 36.33125Q129.37813 36.33125 130.20625 35.33125Q131.05 34.33125 131.05 32.346874Q131.05 30.315624 130.2375 29.3625Q129.44063 28.39375 128.3 28.39375Q127.14375 28.39375 126.3 29.39375Q125.47188 30.39375 125.47188 32.284374ZM141.97188 34.20625L143.78438 34.440624Q143.3625 36.01875 142.19063 36.909374Q141.03438 37.784374 139.22188 37.784374Q136.95625 37.784374 135.6125 36.39375Q134.28438 34.9875 134.28438 32.45625Q134.28438 29.83125 135.62813 28.39375Q136.97188 26.940624 139.12813 26.940624Q141.20625 26.940624 142.51875 28.3625Q143.84688 29.76875 143.84688 32.346874Q143.84688 32.503124 143.83125 32.815624L136.09688 32.815624Q136.19063 34.51875 137.06563 35.425Q137.94063 36.33125 139.2375 36.33125Q140.20625 36.33125 140.87813 35.83125Q141.56563 35.315624 141.97188 34.20625ZM136.19063 31.3625L141.9875 31.3625Q141.87813 30.065624 141.33125 29.409374Q140.4875 28.39375 139.14375 28.39375Q137.94063 28.39375 137.1125 29.20625Q136.28438 30.003124 136.19063 31.3625ZM149.70625 35.971874L149.95625 37.534374Q149.22188 37.690624 148.62813 37.690624Q147.675 37.690624 147.14375 37.39375Q146.62813 37.08125 146.40938 36.596874Q146.19063 36.096874 146.19063 34.51875L146.19063 28.55L144.90938 28.55L144.90938 27.175L146.19063 27.175L146.19063 24.6125L147.94063 23.55L147.94063 27.175L149.70625 27.175L149.70625 28.55L147.94063 28.55L147.94063 34.6125Q147.94063 35.3625 148.03438 35.58125Q148.12813 35.784374 148.33125 35.925Q148.55 36.05 148.94063 36.05Q149.22188 36.05 149.70625 35.971874ZM155.70625 35.971874L155.95625 37.534374Q155.22188 37.690624 154.62813 37.690624Q153.675 37.690624 153.14375 37.39375Q152.62813 37.08125 152.40938 36.596874Q152.19063 36.096874 152.19063 34.51875L152.19063 28.55L150.90938 28.55L150.90938 27.175L152.19063 27.175L152.19063 24.6125L153.94063 23.55L153.94063 27.175L155.70625 27.175L155.70625 28.55L153.94063 28.55L153.94063 34.6125Q153.94063 35.3625 154.03438 35.58125Q154.12813 35.784374 154.33125 35.925Q154.55 36.05 154.94063 36.05Q155.22188 36.05 155.70625 35.971874ZM164.97188 34.20625L166.78438 34.440624Q166.3625 36.01875 165.19063 36.909374Q164.03438 37.784374 162.22188 37.784374Q159.95625 37.784374 158.6125 36.39375Q157.28438 34.9875 157.28438 32.45625Q157.28438 29.83125 158.62813 28.39375Q159.97188 26.940624 162.12813 26.940624Q164.20625 26.940624 165.51875 28.3625Q166.84688 29.76875 166.84688 32.346874Q166.84688 32.503124 166.83125 32.815624L159.09688 32.815624Q159.19063 34.51875 160.06563 35.425Q160.94063 36.33125 162.2375 36.33125Q163.20625 36.33125 163.87813 35.83125Q164.56563 35.315624 164.97188 34.20625ZM159.19063 31.3625L164.9875 31.3625Q164.87813 30.065624 164.33125 29.409374Q163.4875 28.39375 162.14375 28.39375Q160.94063 28.39375 160.1125 29.20625Q159.28438 30.003124 159.19063 31.3625ZM168.84688 37.55L168.84688 27.175L170.425 27.175L170.425 28.753124Q171.03438 27.64375 171.55 27.3Q172.06563 26.940624 172.675 26.940624Q173.56563 26.940624 174.4875 27.503124L173.87813 29.14375Q173.2375 28.753124 172.59688 28.753124Q172.01875 28.753124 171.55 29.1125Q171.09688 29.45625 170.89375 30.065624Q170.6125 31.003124 170.6125 32.1125L170.6125 37.55L168.84688 37.55ZM181.83125 37.55L181.83125 23.2375L183.58125 23.2375L183.58125 37.55L181.83125 37.55ZM192.64375 36.26875Q191.65938 37.096874 190.75313 37.440624Q189.84688 37.784374 188.81563 37.784374Q187.1125 37.784374 186.19063 36.95625Q185.26875 36.1125 185.26875 34.815624Q185.26875 34.05 185.6125 33.425Q185.97188 32.8 186.53438 32.425Q187.09688 32.034374 187.8 31.83125Q188.31563 31.70625 189.3625 31.565624Q191.4875 31.315624 192.4875 30.971874Q192.50313 30.6125 192.50313 30.503124Q192.50313 29.440624 192.00313 28.9875Q191.33125 28.39375 190.00313 28.39375Q188.75313 28.39375 188.15938 28.83125Q187.58125 29.26875 187.3 30.378124L185.58125 30.14375Q185.81563 29.034374 186.34688 28.3625Q186.87813 27.675 187.89375 27.315624Q188.90938 26.940624 190.25313 26.940624Q191.58125 26.940624 192.40938 27.253124Q193.2375 27.565624 193.62813 28.05Q194.01875 28.51875 194.175 29.2375Q194.26875 29.690624 194.26875 30.8625L194.26875 33.20625Q194.26875 35.659374 194.37813 36.315624Q194.4875 36.95625 194.83125 37.55L192.9875 37.55Q192.72188 37.003124 192.64375 36.26875ZM192.4875 32.346874Q191.53438 32.7375 189.6125 33.003124Q188.53438 33.159374 188.08125 33.3625Q187.64375 33.55 187.39375 33.925Q187.14375 34.3 187.14375 34.76875Q187.14375 35.471874 187.675 35.940624Q188.20625 36.409374 189.2375 36.409374Q190.25313 36.409374 191.03438 35.971874Q191.83125 35.51875 192.20625 34.753124Q192.4875 34.14375 192.4875 32.9875L192.4875 32.346874ZM196.8625 37.55L196.8625 27.175L198.45625 27.175L198.45625 28.659374Q199.59688 26.940624 201.75313 26.940624Q202.69063 26.940624 203.47188 27.284374Q204.26875 27.6125 204.65938 28.159374Q205.05 28.70625 205.20625 29.45625Q205.3 29.95625 205.3 31.175L205.3 37.55L203.53438 37.55L203.53438 31.2375Q203.53438 30.159374 203.33125 29.628124Q203.12813 29.096874 202.59688 28.784374Q202.08125 28.471874 201.37813 28.471874Q200.25313 28.471874 199.44063 29.190624Q198.62813 29.89375 198.62813 31.878124L198.62813 37.55L196.8625 37.55ZM207.55 38.409374L209.25313 38.659374Q209.3625 39.45625 209.84688 39.815624Q210.50313 40.3 211.64375 40.3Q212.8625 40.3 213.51875 39.815624Q214.19063 39.33125 214.425 38.45625Q214.56563 37.909374 214.55 36.190624Q213.39375 37.55 211.675 37.55Q209.53438 37.55 208.3625 36.003124Q207.19063 34.45625 207.19063 32.3Q207.19063 30.815624 207.72188 29.565624Q208.26875 28.315624 209.28438 27.628124Q210.31563 26.940624 211.69063 26.940624Q213.51875 26.940624 214.72188 28.425L214.72188 27.175L216.33125 27.175L216.33125 36.14375Q216.33125 38.565624 215.83125 39.565624Q215.34688 40.58125 214.26875 41.159374Q213.20625 41.753124 211.64375 41.753124Q209.8 41.753124 208.64375 40.925Q207.50313 40.096874 207.55 38.409374ZM209.00313 32.175Q209.00313 34.221874 209.81563 35.159374Q210.62813 36.096874 211.84688 36.096874Q213.05 36.096874 213.8625 35.159374Q214.69063 34.221874 214.69063 32.2375Q214.69063 30.33125 213.84688 29.3625Q213.00313 28.39375 211.81563 28.39375Q210.64375 28.39375 209.81563 29.346874Q209.00313 30.3 209.00313 32.175ZM225.65938 37.55L225.65938 36.01875Q224.45625 37.784374 222.37813 37.784374Q221.45625 37.784374 220.65938 37.440624Q219.8625 37.08125 219.47188 36.55Q219.09688 36.01875 218.94063 35.2375Q218.83125 34.721874 218.83125 33.596874L218.83125 27.175L220.58125 27.175L220.58125 32.925Q220.58125 34.3 220.69063 34.784374Q220.8625 35.471874 221.39375 35.878124Q221.94063 36.26875 222.72188 36.26875Q223.51875 36.26875 224.20625 35.8625Q224.90938 35.45625 225.19063 34.76875Q225.4875 34.065624 225.4875 32.7375L225.4875 27.175L227.2375 27.175L227.2375 37.55L225.65938 37.55ZM236.64375 36.26875Q235.65938 37.096874 234.75313 37.440624Q233.84688 37.784374 232.81563 37.784374Q231.1125 37.784374 230.19063 36.95625Q229.26875 36.1125 229.26875 34.815624Q229.26875 34.05 229.6125 33.425Q229.97188 32.8 230.53438 32.425Q231.09688 32.034374 231.8 31.83125Q232.31563 31.70625 233.3625 31.565624Q235.4875 31.315624 236.4875 30.971874Q236.50313 30.6125 236.50313 30.503124Q236.50313 29.440624 236.00313 28.9875Q235.33125 28.39375 234.00313 28.39375Q232.75313 28.39375 232.15938 28.83125Q231.58125 29.26875 231.3 30.378124L229.58125 30.14375Q229.81563 29.034374 230.34688 28.3625Q230.87813 27.675 231.89375 27.315624Q232.90938 26.940624 234.25313 26.940624Q235.58125 26.940624 236.40938 27.253124Q237.2375 27.565624 237.62813 28.05Q238.01875 28.51875 238.175 29.2375Q238.26875 29.690624 238.26875 30.8625L238.26875 33.20625Q238.26875 35.659374 238.37813 36.315624Q238.4875 36.95625 238.83125 37.55L236.9875 37.55Q236.72188 37.003124 236.64375 36.26875ZM236.4875 32.346874Q235.53438 32.7375 233.6125 33.003124Q232.53438 33.159374 232.08125 33.3625Q231.64375 33.55 231.39375 33.925Q231.14375 34.3 231.14375 34.76875Q231.14375 35.471874 231.675 35.940624Q232.20625 36.409374 233.2375 36.409374Q234.25313 36.409374 235.03438 35.971874Q235.83125 35.51875 236.20625 34.753124Q236.4875 34.14375 236.4875 32.9875L236.4875 32.346874ZM240.55 38.409374L242.25313 38.659374Q242.3625 39.45625 242.84688 39.815624Q243.50313 40.3 244.64375 40.3Q245.8625 40.3 246.51875 39.815624Q247.19063 39.33125 247.425 38.45625Q247.56563 37.909374 247.55 36.190624Q246.39375 37.55 244.675 37.55Q242.53438 37.55 241.3625 36.003124Q240.19063 34.45625 240.19063 32.3Q240.19063 30.815624 240.72188 29.565624Q241.26875 28.315624 242.28438 27.628124Q243.31563 26.940624 244.69063 26.940624Q246.51875 26.940624 247.72188 28.425L247.72188 27.175L249.33125 27.175L249.33125 36.14375Q249.33125 38.565624 248.83125 39.565624Q248.34688 40.58125 247.26875 41.159374Q246.20625 41.753124 244.64375 41.753124Q242.8 41.753124 241.64375 40.925Q240.50313 40.096874 240.55 38.409374ZM242.00313 32.175Q242.00313 34.221874 242.81563 35.159374Q243.62813 36.096874 244.84688 36.096874Q246.05 36.096874 246.8625 35.159374Q247.69063 34.221874 247.69063 32.2375Q247.69063 30.33125 246.84688 29.3625Q246.00313 28.39375 244.81563 28.39375Q243.64375 28.39375 242.81563 29.346874Q242.00313 30.3 242.00313 32.175ZM258.97186 34.20625L260.78436 34.440624Q260.3625 36.01875 259.1906 36.909374Q258.03436 37.784374 256.22186 37.784374Q253.95625 37.784374 252.6125 36.39375Q251.28438 34.9875 251.28438 32.45625Q251.28438 29.83125 252.62813 28.39375Q253.97188 26.940624 256.1281 26.940624Q258.20624 26.940624 259.51874 28.3625Q260.84686 29.76875 260.84686 32.346874Q260.84686 32.503124 260.83124 32.815624L253.09688 32.815624Q253.19063 34.51875 254.06563 35.425Q254.94063 36.33125 256.2375 36.33125Q257.20624 36.33125 257.8781 35.83125Q258.5656 35.315624 258.97186 34.20625ZM253.19063 31.3625L258.9875 31.3625Q258.8781 30.065624 258.33124 29.409374Q257.4875 28.39375 256.14374 28.39375Q254.94063 28.39375 254.1125 29.20625Q253.28438 30.003124 253.19063 31.3625ZM268.8781 25.253124L268.8781 23.2375L270.64374 23.2375L270.64374 25.253124L268.8781 25.253124ZM268.8781 37.55L268.8781 27.175L270.64374 27.175L270.64374 37.55L268.8781 37.55ZM272.8625 37.55L272.8625 27.175L274.45624 27.175L274.45624 28.659374Q275.59686 26.940624 277.7531 26.940624Q278.6906 26.940624 279.47186 27.284374Q280.26874 27.6125 280.65936 28.159374Q281.05 28.70625 281.20624 29.45625Q281.3 29.95625 281.3 31.175L281.3 37.55L279.53436 37.55L279.53436 31.2375Q279.53436 30.159374 279.33124 29.628124Q279.1281 29.096874 278.59686 28.784374Q278.08124 28.471874 277.3781 28.471874Q276.2531 28.471874 275.4406 29.190624Q274.6281 29.89375 274.6281 31.878124L274.6281 37.55L272.8625 37.55ZM287.70624 35.971874L287.95624 37.534374Q287.22186 37.690624 286.6281 37.690624Q285.675 37.690624 285.14374 37.39375Q284.6281 37.08125 284.40936 36.596874Q284.1906 36.096874 284.1906 34.51875L284.1906 28.55L282.90936 28.55L282.90936 27.175L284.1906 27.175L284.1906 24.6125L285.9406 23.55L285.9406 27.175L287.70624 27.175L287.70624 28.55L285.9406 28.55L285.9406 34.6125Q285.9406 35.3625 286.03436 35.58125Q286.1281 35.784374 286.33124 35.925Q286.55 36.05 286.9406 36.05Q287.22186 36.05 287.70624 35.971874ZM296.97186 34.20625L298.78436 34.440624Q298.3625 36.01875 297.1906 36.909374Q296.03436 37.784374 294.22186 37.784374Q291.95624 37.784374 290.6125 36.39375Q289.28436 34.9875 289.28436 32.45625Q289.28436 29.83125 290.6281 28.39375Q291.97186 26.940624 294.1281 26.940624Q296.20624 26.940624 297.51874 28.3625Q298.84686 29.76875 298.84686 32.346874Q298.84686 32.503124 298.83124 32.815624L291.09686 32.815624Q291.1906 34.51875 292.0656 35.425Q292.9406 36.33125 294.2375 36.33125Q295.20624 36.33125 295.8781 35.83125Q296.5656 35.315624 296.97186 34.20625ZM291.1906 31.3625L296.9875 31.3625Q296.8781 30.065624 296.33124 29.409374Q295.4875 28.39375 294.14374 28.39375Q292.9406 28.39375 292.1125 29.20625Q291.28436 30.003124 291.1906 31.3625ZM300.84686 37.55L300.84686 27.175L302.425 27.175L302.425 28.753124Q303.03436 27.64375 303.55 27.3Q304.0656 26.940624 304.675 26.940624Q305.5656 26.940624 306.4875 27.503124L305.8781 29.14375Q305.2375 28.753124 304.59686 28.753124Q304.01874 28.753124 303.55 29.1125Q303.09686 29.45625 302.89374 30.065624Q302.6125 31.003124 302.6125 32.1125L302.6125 37.55L300.84686 37.55ZM307.22186 32.3625Q307.22186 29.4875 308.8156 28.096874Q310.15936 26.940624 312.08124 26.940624Q314.22186 26.940624 315.5656 28.346874Q316.925 29.753124 316.925 32.221874Q316.925 34.221874 316.33124 35.378124Q315.7375 36.51875 314.58124 37.159374Q313.4406 37.784374 312.08124 37.784374Q309.89374 37.784374 308.55 36.39375Q307.22186 34.9875 307.22186 32.3625ZM309.01874 32.3625Q309.01874 34.3625 309.8781 35.346874Q310.7531 36.33125 312.08124 36.33125Q313.39374 36.33125 314.2531 35.346874Q315.1281 34.346874 315.1281 32.3Q315.1281 30.378124 314.2531 29.39375Q313.3781 28.39375 312.08124 28.39375Q310.7531 28.39375 309.8781 29.39375Q309.01874 30.378124 309.01874 32.3625ZM318.8625 41.51875L318.8625 27.175L320.47186 27.175L320.47186 28.51875Q321.03436 27.7375 321.7375 27.346874Q322.45624 26.940624 323.47186 26.940624Q324.8 26.940624 325.8156 27.628124Q326.83124 28.315624 327.34686 29.565624Q327.8781 30.8 327.8781 32.284374Q327.8781 33.878124 327.3 35.159374Q326.7375 36.425 325.64374 37.1125Q324.55 37.784374 323.34686 37.784374Q322.47186 37.784374 321.76874 37.409374Q321.08124 37.034374 320.6281 36.471874L320.6281 41.51875L318.8625 41.51875ZM320.45624 32.425Q320.45624 34.425 321.26874 35.378124Q322.08124 36.33125 323.2375 36.33125Q324.40936 36.33125 325.2375 35.346874Q326.08124 34.3625 326.08124 32.26875Q326.08124 30.3 325.2531 29.315624Q324.4406 28.315624 323.3156 28.315624Q322.1906 28.315624 321.3156 29.378124Q320.45624 30.425 320.45624 32.425ZM330.33124 37.55L330.33124 35.55L332.33124 35.55L332.33124 37.55Q332.33124 38.659374 331.9406 39.33125Q331.55 40.01875 330.70624 40.378124L330.20624 39.628124Q330.76874 39.39375 331.03436 38.909374Q331.3 38.440624 331.33124 37.55L330.33124 37.55ZM343.78436 37.55L340.6125 27.175L342.425 27.175L344.08124 33.159374L344.6906 35.39375Q344.7375 35.221874 345.22186 33.253124L346.8781 27.175L348.6906 27.175L350.2375 33.190624L350.7531 35.175L351.34686 33.175L353.1281 27.175L354.83124 27.175L351.59686 37.55L349.76874 37.55L348.1125 31.33125L347.72186 29.565624L345.6125 37.55L343.78436 37.55ZM355.8781 25.253124L355.8781 23.2375L357.64374 23.2375L357.64374 25.253124L355.8781 25.253124ZM355.8781 37.55L355.8781 27.175L357.64374 27.175L357.64374 37.55L355.8781 37.55ZM363.70624 35.971874L363.95624 37.534374Q363.22186 37.690624 362.6281 37.690624Q361.675 37.690624 361.14374 37.39375Q360.6281 37.08125 360.40936 36.596874Q360.1906 36.096874 360.1906 34.51875L360.1906 28.55L358.90936 28.55L358.90936 27.175L360.1906 27.175L360.1906 24.6125L361.9406 23.55L361.9406 27.175L363.70624 27.175L363.70624 28.55L361.9406 28.55L361.9406 34.6125Q361.9406 35.3625 362.03436 35.58125Q362.1281 35.784374 362.33124 35.925Q362.55 36.05 362.9406 36.05Q363.22186 36.05 363.70624 35.971874ZM365.8625 37.55L365.8625 23.2375L367.6281 23.2375L367.6281 28.3625Q368.8625 26.940624 370.7375 26.940624Q371.8781 26.940624 372.72186 27.39375Q373.58124 27.846874 373.9406 28.659374Q374.3156 29.45625 374.3156 30.971874L374.3156 37.55L372.5656 37.55L372.5656 30.971874Q372.5656 29.659374 371.9875 29.065624Q371.40936 28.45625 370.3781 28.45625Q369.59686 28.45625 368.89374 28.8625Q368.20624 29.26875 367.90936 29.971874Q367.6281 30.659374 367.6281 31.878124L367.6281 37.55L365.8625 37.55ZM384.78436 37.55L381.6125 27.175L383.425 27.175L385.08124 33.159374L385.6906 35.39375Q385.7375 35.221874 386.22186 33.253124L387.8781 27.175L389.6906 27.175L391.2375 33.190624L391.7531 35.175L392.34686 33.175L394.1281 27.175L395.83124 27.175L392.59686 37.55L390.76874 37.55L389.1125 31.33125L388.72186 29.565624L386.6125 37.55L384.78436 37.55ZM396.8625 37.55L396.8625 23.2375L398.6281 23.2375L398.6281 28.3625Q399.8625 26.940624 401.7375 26.940624Q402.8781 26.940624 403.72186 27.39375Q404.58124 27.846874 404.9406 28.659374Q405.3156 29.45625 405.3156 30.971874L405.3156 37.55L403.5656 37.55L403.5656 30.971874Q403.5656 29.659374 402.9875 29.065624Q402.40936 28.45625 401.3781 28.45625Q400.59686 28.45625 399.89374 28.8625Q399.20624 29.26875 398.90936 29.971874Q398.6281 30.659374 398.6281 31.878124L398.6281 37.55L396.8625 37.55ZM407.8781 25.253124L407.8781 23.2375L409.64374 23.2375L409.64374 25.253124L407.8781 25.253124ZM407.8781 37.55L407.8781 27.175L409.64374 27.175L409.64374 37.55L407.8781 37.55ZM418.64374 33.753124L420.3625 33.971874Q420.08124 35.76875 418.90936 36.784374Q417.7531 37.784374 416.05 37.784374Q413.925 37.784374 412.6281 36.39375Q411.33124 35.003124 411.33124 32.409374Q411.33124 30.721874 411.8781 29.471874Q412.4406 28.20625 413.58124 27.58125Q414.72186 26.940624 416.0656 26.940624Q417.7531 26.940624 418.8156 27.8Q419.89374 28.659374 420.20624 30.221874L418.4875 30.4875Q418.2531 29.440624 417.6281 28.925Q417.0031 28.39375 416.1281 28.39375Q414.8 28.39375 413.97186 29.346874Q413.14374 30.3 413.14374 32.346874Q413.14374 34.440624 413.9406 35.39375Q414.7375 36.33125 416.03436 36.33125Q417.0656 36.33125 417.7531 35.70625Q418.45624 35.065624 418.64374 33.753124ZM421.8625 37.55L421.8625 23.2375L423.6281 23.2375L423.6281 28.3625Q424.8625 26.940624 426.7375 26.940624Q427.8781 26.940624 428.72186 27.39375Q429.58124 27.846874 429.9406 28.659374Q430.3156 29.45625 430.3156 30.971874L430.3156 37.55L428.5656 37.55L428.5656 30.971874Q428.5656 29.659374 427.9875 29.065624Q427.40936 28.45625 426.3781 28.45625Q425.59686 28.45625 424.89374 28.8625Q424.20624 29.26875 423.90936 29.971874Q423.6281 30.659374 423.6281 31.878124L423.6281 37.55L421.8625 37.55ZM438.83124 37.55L438.83124 23.2375L440.58124 23.2375L440.58124 37.55L438.83124 37.55ZM449.64374 36.26875Q448.65936 37.096874 447.7531 37.440624Q446.84686 37.784374 445.8156 37.784374Q444.1125 37.784374 443.1906 36.95625Q442.26874 36.1125 442.26874 34.815624Q442.26874 34.05 442.6125 33.425Q442.97186 32.8 443.53436 32.425Q444.09686 32.034374 444.8 31.83125Q445.3156 31.70625 446.3625 31.565624Q448.4875 31.315624 449.4875 30.971874Q449.5031 30.6125 449.5031 30.503124Q449.5031 29.440624 449.0031 28.9875Q448.33124 28.39375 447.0031 28.39375Q445.7531 28.39375 445.15936 28.83125Q444.58124 29.26875 444.3 30.378124L442.58124 30.14375Q442.8156 29.034374 443.34686 28.3625Q443.8781 27.675 444.89374 27.315624Q445.90936 26.940624 447.2531 26.940624Q448.58124 26.940624 449.40936 27.253124Q450.2375 27.565624 450.6281 28.05Q451.01874 28.51875 451.175 29.2375Q451.26874 29.690624 451.26874 30.8625L451.26874 33.20625Q451.26874 35.659374 451.3781 36.315624Q451.4875 36.95625 451.83124 37.55L449.9875 37.55Q449.72186 37.003124 449.64374 36.26875ZM449.4875 32.346874Q448.53436 32.7375 446.6125 33.003124Q445.53436 33.159374 445.08124 33.3625Q444.64374 33.55 444.39374 33.925Q444.14374 34.3 444.14374 34.76875Q444.14374 35.471874 444.675 35.940624Q445.20624 36.409374 446.2375 36.409374Q447.2531 36.409374 448.03436 35.971874Q448.83124 35.51875 449.20624 34.753124Q449.4875 34.14375 449.4875 32.9875L449.4875 32.346874ZM453.8625 37.55L453.8625 27.175L455.45624 27.175L455.45624 28.659374Q456.59686 26.940624 458.7531 26.940624Q459.6906 26.940624 460.47186 27.284374Q461.26874 27.6125 461.65936 28.159374Q462.05 28.70625 462.20624 29.45625Q462.3 29.95625 462.3 31.175L462.3 37.55L460.53436 37.55L460.53436 31.2375Q460.53436 30.159374 460.33124 29.628124Q460.1281 29.096874 459.59686 28.784374Q459.08124 28.471874 458.3781 28.471874Q457.2531 28.471874 456.4406 29.190624Q455.6281 29.89375 455.6281 31.878124L455.6281 37.55L453.8625 37.55ZM464.55 38.409374L466.2531 38.659374Q466.3625 39.45625 466.84686 39.815624Q467.5031 40.3 468.64374 40.3Q469.8625 40.3 470.51874 39.815624Q471.1906 39.33125 471.425 38.45625Q471.5656 37.909374 471.55 36.190624Q470.39374 37.55 468.675 37.55Q466.53436 37.55 465.3625 36.003124Q464.1906 34.45625 464.1906 32.3Q464.1906 30.815624 464.72186 29.565624Q465.26874 28.315624 466.28436 27.628124Q467.3156 26.940624 468.6906 26.940624Q470.51874 26.940624 471.72186 28.425L471.72186 27.175L473.33124 27.175L473.33124 36.14375Q473.33124 38.565624 472.83124 39.565624Q472.34686 40.58125 471.26874 41.159374Q470.20624 41.753124 468.64374 41.753124Q466.8 41.753124 465.64374 40.925Q464.5031 40.096874 464.55 38.409374ZM466.0031 32.175Q466.0031 34.221874 466.8156 35.159374Q467.6281 36.096874 468.84686 36.096874Q470.05 36.096874 470.8625 35.159374Q471.6906 34.221874 471.6906 32.2375Q471.6906 30.33125 470.84686 29.3625Q470.0031 28.39375 468.8156 28.39375Q467.64374 28.39375 466.8156 29.346874Q466.0031 30.3 466.0031 32.175ZM482.65936 37.55L482.65936 36.01875Q481.45624 37.784374 479.3781 37.784374Q478.45624 37.784374 477.65936 37.440624Q476.8625 37.08125 476.47186 36.55Q476.09686 36.01875 475.9406 35.2375Q475.83124 34.721874 475.83124 33.596874L475.83124 27.175L477.58124 27.175L477.58124 32.925Q477.58124 34.3 477.6906 34.784374Q477.8625 35.471874 478.39374 35.878124Q478.9406 36.26875 479.72186 36.26875Q480.51874 36.26875 481.20624 35.8625Q481.90936 35.45625 482.1906 34.76875Q482.4875 34.065624 482.4875 32.7375L482.4875 27.175L484.2375 27.175L484.2375 37.55L482.65936 37.55ZM493.64374 36.26875Q492.65936 37.096874 491.7531 37.440624Q490.84686 37.784374 489.8156 37.784374Q488.1125 37.784374 487.1906 36.95625Q486.26874 36.1125 486.26874 34.815624Q486.26874 34.05 486.6125 33.425Q486.97186 32.8 487.53436 32.425Q488.09686 32.034374 488.8 31.83125Q489.3156 31.70625 490.3625 31.565624Q492.4875 31.315624 493.4875 30.971874Q493.5031 30.6125 493.5031 30.503124Q493.5031 29.440624 493.0031 28.9875Q492.33124 28.39375 491.0031 28.39375Q489.7531 28.39375 489.15936 28.83125Q488.58124 29.26875 488.3 30.378124L486.58124 30.14375Q486.8156 29.034374 487.34686 28.3625Q487.8781 27.675 488.89374 27.315624Q489.90936 26.940624 491.2531 26.940624Q492.58124 26.940624 493.40936 27.253124Q494.2375 27.565624 494.6281 28.05Q495.01874 28.51875 495.175 29.2375Q495.26874 29.690624 495.26874 30.8625L495.26874 33.20625Q495.26874 35.659374 495.3781 36.315624Q495.4875 36.95625 495.83124 37.55L493.9875 37.55Q493.72186 37.003124 493.64374 36.26875ZM493.4875 32.346874Q492.53436 32.7375 490.6125 33.003124Q489.53436 33.159374 489.08124 33.3625Q488.64374 33.55 488.39374 33.925Q488.14374 34.3 488.14374 34.76875Q488.14374 35.471874 488.675 35.940624Q489.20624 36.409374 490.2375 36.409374Q491.2531 36.409374 492.03436 35.971874Q492.83124 35.51875 493.20624 34.753124Q493.4875 34.14375 493.4875 32.9875L493.4875 32.346874ZM497.55 38.409374L499.2531 38.659374Q499.3625 39.45625 499.84686 39.815624Q500.5031 40.3 501.64374 40.3Q502.8625 40.3 503.51874 39.815624Q504.1906 39.33125 504.425 38.45625Q504.5656 37.909374 504.55 36.190624Q503.39374 37.55 501.675 37.55Q499.53436 37.55 498.3625 36.003124Q497.1906 34.45625 497.1906 32.3Q497.1906 30.815624 497.72186 29.565624Q498.26874 28.315624 499.28436 27.628124Q500.3156 26.940624 501.6906 26.940624Q503.51874 26.940624 504.72186 28.425L504.72186 27.175L506.33124 27.175L506.33124 36.14375Q506.33124 38.565624 505.83124 39.565624Q505.34686 40.58125 504.26874 41.159374Q503.20624 41.753124 501.64374 41.753124Q499.8 41.753124 498.64374 40.925Q497.5031 40.096874 497.55 38.409374ZM499.0031 32.175Q499.0031 34.221874 499.8156 35.159374Q500.6281 36.096874 501.84686 36.096874Q503.05 36.096874 503.8625 35.159374Q504.6906 34.221874 504.6906 32.2375Q504.6906 30.33125 503.84686 29.3625Q503.0031 28.39375 501.8156 28.39375Q500.64374 28.39375 499.8156 29.346874Q499.0031 30.3 499.0031 32.175ZM515.97186 34.20625L517.78436 34.440624Q517.3625 36.01875 516.1906 36.909374Q515.03436 37.784374 513.22186 37.784374Q510.95624 37.784374 509.6125 36.39375Q508.28436 34.9875 508.28436 32.45625Q508.28436 29.83125 509.6281 28.39375Q510.97186 26.940624 513.1281 26.940624Q515.20624 26.940624 516.51874 28.3625Q517.84686 29.76875 517.84686 32.346874Q517.84686 32.503124 517.83124 32.815624L510.09686 32.815624Q510.1906 34.51875 511.0656 35.425Q511.9406 36.33125 513.2375 36.33125Q514.20624 36.33125 514.8781 35.83125Q515.5656 35.315624 515.97186 34.20625ZM510.1906 31.3625L515.9875 31.3625Q515.8781 30.065624 515.33124 29.409374Q514.4875 28.39375 513.14374 28.39375Q511.9406 28.39375 511.1125 29.20625Q510.28436 30.003124 510.1906 31.3625ZM523.15936 34.01875Q523.14374 33.675 523.14374 33.503124Q523.14374 32.45625 523.4406 31.70625Q523.65936 31.14375 524.14374 30.565624Q524.4875 30.14375 525.39374 29.346874Q526.3156 28.534374 526.58124 28.065624Q526.8625 27.58125 526.8625 27.01875Q526.8625 25.9875 526.05 25.221874Q525.2531 24.440624 524.09686 24.440624Q522.97186 24.440624 522.22186 25.14375Q521.47186 25.846874 521.2375 27.33125L519.425 27.1125Q519.675 25.1125 520.8781 24.05Q522.08124 22.9875 524.0656 22.9875Q526.175 22.9875 527.425 24.128124Q528.675 25.26875 528.675 26.89375Q528.675 27.83125 528.22186 28.628124Q527.78436 29.409374 526.5031 30.55Q525.64374 31.315624 525.3781 31.675Q525.1281 32.034374 524.9875 32.503124Q524.8625 32.971874 524.84686 34.01875L523.15936 34.01875ZM523.05 37.55L523.05 35.55L525.05 35.55L525.05 37.55L523.05 37.55Z" fill-rule="nonzero"/></svg>