<svg version="1.1" viewBox="0.0 0.0 584.0 361.0" fill="none" stroke="none" stroke-linecap="square" stroke-miterlimit="10" width="584" height="361" xmlns:xlink="http://www.w3.org/1999/xlink" xmlns="http://www.w3.org/2000/svg"><path fill="#ffffff" d="M0 0L584.0 0L584.0 361.0L0 361.0L0 0Z" fill-rule="nonzero"/><path fill="#6fa8dc" d="M276.2339 87.18499C281.46957 86.78252 286.73282 86.58083 292.0 86.58083L292.0 187.68417Z" fill-rule="nonzero"/><path fill="#f1c232" d="M231.5156 95.873024C245.65523 91.30864 260.75623 88.37476 276.2339 87.18499L292.0 187.68417Z" fill-rule="nonzero"/><path fill="#b7b7b7" d="M152.93274 160.3816C164.36105 131.85832 193.08528 108.278625 231.5156 95.873024L292.0 187.68417Z" fill-rule="nonzero"/><path fill="#b36b00" d="M262.18484 308.2749C195.3779 298.4088 147.56667 257.14343 147.56667 209.34917L147.56667 187.68417C147.56667 235.47844 195.3779 276.7438 262.18484 286.6099Z" fill-rule="nonzero"/><path fill="#ff9900" d="M262.18484 286.6099C223.0969 280.83737 189.1701 263.99017 168.46985 240.07341C147.7696 216.15663 142.14484 187.30653 152.93274 160.3816L292.0 187.68417Z" fill-rule="nonzero"/><path fill="#2a5497" d="M436.43332 209.34917C436.43332 239.82544 416.79416 268.67566 382.9799 287.87296C349.16565 307.07025 304.78467 314.56607 262.18484 308.2749L262.18484 286.6099C304.78467 292.90106 349.16565 285.40524 382.9799 266.20795C416.79416 247.01067 436.43332 218.16045 436.43332 187.68417Z" fill-rule="nonzero"/><path fill="#3c78d8" d="M292.0 86.58083C347.19446 86.58083 397.56308 108.60011 421.7838 143.31746C446.00452 178.03482 439.84195 219.37933 405.90485 249.84903C371.9677 280.31876 316.19052 294.5855 262.18484 286.6099L292.0 187.68417Z" fill-rule="nonzero"/><path fill="#1a1a1a" d="M18.971874 73.07141L18.971874 64.47766L20.128124 64.47766L24.64375 71.22766L24.64375 64.47766L25.7375 64.47766L25.7375 73.07141L24.565624 73.07141L20.05 66.32141L20.05 73.07141L18.971874 73.07141ZM27.45625 69.962036Q27.45625 68.22766 28.409374 67.399536Q29.20625 66.712036 30.3625 66.712036Q31.64375 66.712036 32.45625 67.555786Q33.284374 68.38391 33.284374 69.868286Q33.284374 71.07141 32.925 71.75891Q32.565624 72.44641 31.8625 72.837036Q31.175 73.212036 30.3625 73.212036Q29.065624 73.212036 28.253124 72.38391Q27.45625 71.54016 27.45625 69.962036ZM28.534374 69.962036Q28.534374 71.149536 29.05 71.743286Q29.58125 72.337036 30.3625 72.337036Q31.159374 72.337036 31.675 71.743286Q32.190624 71.149536 32.190624 69.930786Q32.190624 68.774536 31.659374 68.180786Q31.14375 67.587036 30.3625 67.587036Q29.58125 67.587036 29.05 68.180786Q28.534374 68.75891 28.534374 69.962036ZM37.14375 72.13391L37.3 73.055786Q36.846874 73.149536 36.503124 73.149536Q35.925 73.149536 35.6125 72.97766Q35.3 72.79016 35.159374 72.493286Q35.034374 72.19641 35.034374 71.243286L35.034374 67.66516L34.26875 67.66516L34.26875 66.85266L35.034374 66.85266L35.034374 65.305786L36.08125 64.680786L36.08125 66.85266L37.14375 66.85266L37.14375 67.66516L36.08125 67.66516L36.08125 71.305786Q36.08125 71.75891 36.128124 71.88391Q36.190624 72.00891 36.315624 72.087036Q36.440624 72.16516 36.675 72.16516Q36.8625 72.16516 37.14375 72.13391ZM40.425 71.212036L41.45625 71.055786Q41.55 71.680786 41.940624 72.00891Q42.346874 72.337036 43.08125 72.337036Q43.8 72.337036 44.14375 72.055786Q44.503124 71.75891 44.503124 71.35266Q44.503124 70.993286 44.190624 70.79016Q43.971874 70.649536 43.1125 70.430786Q41.95625 70.13391 41.503124 69.930786Q41.065624 69.712036 40.83125 69.337036Q40.596874 68.962036 40.596874 68.493286Q40.596874 68.087036 40.784374 67.72766Q40.971874 67.368286 41.3 67.13391Q41.55 66.962036 41.971874 66.837036Q42.39375 66.712036 42.89375 66.712036Q43.6125 66.712036 44.159374 66.930786Q44.721874 67.13391 44.9875 67.493286Q45.253124 67.85266 45.346874 68.44641L44.315624 68.587036Q44.253124 68.118286 43.909374 67.85266Q43.58125 67.57141 42.95625 67.57141Q42.2375 67.57141 41.925 67.82141Q41.6125 68.055786 41.6125 68.38391Q41.6125 68.587036 41.7375 68.743286Q41.878124 68.91516 42.14375 69.024536Q42.3 69.087036 43.08125 69.29016Q44.20625 69.60266 44.64375 69.79016Q45.08125 69.97766 45.33125 70.337036Q45.58125 70.69641 45.58125 71.243286Q45.58125 71.774536 45.26875 72.243286Q44.971874 72.69641 44.39375 72.962036Q43.815624 73.212036 43.08125 73.212036Q41.8625 73.212036 41.221874 72.712036Q40.596874 72.19641 40.425 71.212036ZM50.925 73.07141L50.925 72.149536Q50.190624 73.212036 48.940624 73.212036Q48.39375 73.212036 47.909374 73.00891Q47.440624 72.79016 47.20625 72.47766Q46.971874 72.149536 46.878124 71.680786Q46.815624 71.38391 46.815624 70.69641L46.815624 66.85266L47.878124 66.85266L47.878124 70.305786Q47.878124 71.118286 47.940624 71.41516Q48.034374 71.82141 48.346874 72.07141Q48.675 72.305786 49.159374 72.305786Q49.628124 72.305786 50.034374 72.07141Q50.45625 71.82141 50.628124 71.399536Q50.815624 70.97766 50.815624 70.180786L50.815624 66.85266L51.8625 66.85266L51.8625 73.07141L50.925 73.07141ZM53.83125 73.07141L53.83125 66.85266L54.784374 66.85266L54.784374 67.79016Q55.14375 67.13391 55.440624 66.930786Q55.753124 66.712036 56.128124 66.712036Q56.659374 66.712036 57.20625 67.04016L56.846874 68.024536Q56.45625 67.79016 56.08125 67.79016Q55.721874 67.79016 55.440624 68.00891Q55.175 68.212036 55.065624 68.587036Q54.878124 69.149536 54.878124 69.805786L54.878124 73.07141L53.83125 73.07141ZM62.096874 71.07141L63.190624 71.19641Q62.940624 72.149536 62.2375 72.680786Q61.534374 73.212036 60.45625 73.212036Q59.096874 73.212036 58.284374 72.368286Q57.4875 71.524536 57.4875 70.00891Q57.4875 68.44641 58.3 67.587036Q59.1125 66.712036 60.39375 66.712036Q61.64375 66.712036 62.425 67.555786Q63.221874 68.399536 63.221874 69.94641Q63.221874 70.04016 63.221874 70.22766L58.58125 70.22766Q58.64375 71.25891 59.159374 71.805786Q59.675 72.337036 60.45625 72.337036Q61.034374 72.337036 61.440624 72.04016Q61.8625 71.72766 62.096874 71.07141ZM58.64375 69.368286L62.1125 69.368286Q62.05 68.57141 61.721874 68.180786Q61.20625 67.57141 60.409374 67.57141Q59.675 67.57141 59.175 68.055786Q58.690624 68.54016 58.64375 69.368286Z" fill-rule="nonzero"/><path fill="#9e9e9e" d="M22.51875 90.07141L21.471874 90.07141L21.471874 83.35266Q21.08125 83.712036 20.45625 84.087036Q19.846874 84.44641 19.3625 84.618286L19.3625 83.60266Q20.2375 83.180786 20.89375 82.60266Q21.565624 82.00891 21.846874 81.44641L22.51875 81.44641L22.51875 90.07141ZM26.14375 90.07141L26.14375 88.868286L27.346874 88.868286L27.346874 90.07141L26.14375 90.07141ZM28.6125 82.60266L28.6125 81.587036L34.175 81.587036L34.175 82.41516Q33.3625 83.29016 32.55 84.743286Q31.753124 86.180786 31.315624 87.712036Q30.9875 88.79016 30.909374 90.07141L29.815624 90.07141Q29.83125 89.055786 30.20625 87.618286Q30.596874 86.180786 31.3 84.85266Q32.01875 83.524536 32.83125 82.60266L28.6125 82.60266ZM35.753124 83.54016Q35.753124 82.618286 36.20625 81.97766Q36.675 81.337036 37.55 81.337036Q38.3625 81.337036 38.89375 81.91516Q39.425 82.493286 39.425 83.60266Q39.425 84.69641 38.878124 85.29016Q38.346874 85.868286 37.565624 85.868286Q36.784374 85.868286 36.26875 85.29016Q35.753124 84.712036 35.753124 83.54016ZM37.58125 82.055786Q37.190624 82.055786 36.925 82.399536Q36.675 82.743286 36.675 83.649536Q36.675 84.47766 36.925 84.82141Q37.190624 85.149536 37.58125 85.149536Q37.9875 85.149536 38.2375 84.805786Q38.503124 84.462036 38.503124 83.57141Q38.503124 82.72766 38.2375 82.399536Q37.971874 82.055786 37.58125 82.055786ZM37.58125 90.38391L42.284374 81.337036L43.14375 81.337036L38.45625 90.38391L37.58125 90.38391ZM41.3 88.055786Q41.3 87.13391 41.753124 86.493286Q42.221874 85.85266 43.1125 85.85266Q43.925 85.85266 44.45625 86.430786Q44.9875 86.993286 44.9875 88.118286Q44.9875 89.212036 44.440624 89.805786Q43.909374 90.38391 43.1125 90.38391Q42.346874 90.38391 41.815624 89.805786Q41.3 89.22766 41.3 88.055786ZM43.14375 86.57141Q42.7375 86.57141 42.471874 86.91516Q42.221874 87.25891 42.221874 88.16516Q42.221874 88.97766 42.4875 89.32141Q42.753124 89.66516 43.14375 89.66516Q43.534374 89.66516 43.8 89.32141Q44.065624 88.97766 44.065624 88.07141Q44.065624 87.243286 43.8 86.91516Q43.534374 86.57141 43.14375 86.57141Z" fill-rule="nonzero"/><path stroke="#757575" stroke-width="1.0" stroke-linecap="butt" d="M18.05 77.57141L141.56667 77.57141L284.49988 91.779594" fill-rule="nonzero"/><path fill="#9e9e9e" d="M286.49988 91.779594C286.49988 90.675026 285.60446 89.779594 284.49988 89.779594C283.39532 89.779594 282.49988 90.675026 282.49988 91.779594C282.49988 92.88416 283.39532 93.779594 284.49988 93.779594C285.60446 93.779594 286.49988 92.88416 286.49988 91.779594" fill-rule="nonzero"/><path fill="#1a1a1a" d="M18.971874 104.07141L18.971874 95.47766L20.128124 95.47766L24.64375 102.22766L24.64375 95.47766L25.7375 95.47766L25.7375 104.07141L24.565624 104.07141L20.05 97.32141L20.05 104.07141L18.971874 104.07141ZM27.45625 100.962036Q27.45625 99.22766 28.409374 98.399536Q29.20625 97.712036 30.3625 97.712036Q31.64375 97.712036 32.45625 98.555786Q33.284374 99.38391 33.284374 100.868286Q33.284374 102.07141 32.925 102.75891Q32.565624 103.44641 31.8625 103.837036Q31.175 104.212036 30.3625 104.212036Q29.065624 104.212036 28.253124 103.38391Q27.45625 102.54016 27.45625 100.962036ZM28.534374 100.962036Q28.534374 102.149536 29.05 102.743286Q29.58125 103.337036 30.3625 103.337036Q31.159374 103.337036 31.675 102.743286Q32.190624 102.149536 32.190624 100.930786Q32.190624 99.774536 31.659374 99.180786Q31.14375 98.587036 30.3625 98.587036Q29.58125 98.587036 29.05 99.180786Q28.534374 99.75891 28.534374 100.962036ZM35.1125 104.07141L35.1125 102.868286L36.315624 102.868286L36.315624 104.07141Q36.315624 104.72766 36.08125 105.13391Q35.846874 105.555786 35.346874 105.774536L35.05 105.32141Q35.378124 105.180786 35.534374 104.88391Q35.690624 104.60266 35.721874 104.07141L35.1125 104.07141ZM40.846874 104.07141L40.846874 97.85266L41.784374 97.85266L41.784374 98.72766Q42.08125 98.25891 42.565624 97.993286Q43.05 97.712036 43.675 97.712036Q44.3625 97.712036 44.8 97.993286Q45.253124 98.274536 45.425 98.79016Q46.175 97.712036 47.346874 97.712036Q48.284374 97.712036 48.76875 98.22766Q49.26875 98.72766 49.26875 99.805786L49.26875 104.07141L48.221874 104.07141L48.221874 100.149536Q48.221874 99.524536 48.1125 99.243286Q48.01875 98.962036 47.753124 98.79016Q47.4875 98.618286 47.1125 98.618286Q46.45625 98.618286 46.01875 99.055786Q45.596874 99.493286 45.596874 100.462036L45.596874 104.07141L44.534374 104.07141L44.534374 100.024536Q44.534374 99.32141 44.26875 98.97766Q44.01875 98.618286 43.440624 98.618286Q42.9875 98.618286 42.6125 98.85266Q42.2375 99.087036 42.065624 99.54016Q41.89375 99.993286 41.89375 100.837036L41.89375 104.07141L40.846874 104.07141ZM50.8 106.462036L50.675 105.47766Q51.01875 105.57141 51.284374 105.57141Q51.628124 105.57141 51.83125 105.44641Q52.05 105.337036 52.190624 105.13391Q52.284374 104.962036 52.51875 104.337036Q52.534374 104.25891 52.6125 104.087036L50.2375 97.85266L51.378124 97.85266L52.675 101.44641Q52.925 102.13391 53.128124 102.899536Q53.315624 102.16516 53.565624 101.47766L54.89375 97.85266L55.940624 97.85266L53.58125 104.180786Q53.190624 105.19641 52.9875 105.587036Q52.70625 106.118286 52.33125 106.35266Q51.971874 106.60266 51.471874 106.60266Q51.175 106.60266 50.8 106.462036ZM63.909374 101.79016L64.94063 101.930786Q64.76875 102.993286 64.06563 103.60266Q63.3625 104.212036 62.346874 104.212036Q61.065624 104.212036 60.284374 103.38391Q59.51875 102.54016 59.51875 100.97766Q59.51875 99.97766 59.846874 99.22766Q60.190624 98.462036 60.8625 98.087036Q61.55 97.712036 62.3625 97.712036Q63.3625 97.712036 64.00313 98.22766Q64.65938 98.72766 64.84688 99.680786L63.815624 99.837036Q63.675 99.212036 63.3 98.899536Q62.925 98.57141 62.39375 98.57141Q61.596874 98.57141 61.096874 99.149536Q60.596874 99.712036 60.596874 100.94641Q60.596874 102.212036 61.08125 102.774536Q61.565624 103.337036 62.33125 103.337036Q62.95625 103.337036 63.3625 102.962036Q63.784374 102.587036 63.909374 101.79016ZM65.45625 100.962036Q65.45625 99.22766 66.40938 98.399536Q67.20625 97.712036 68.3625 97.712036Q69.64375 97.712036 70.45625 98.555786Q71.28438 99.38391 71.28438 100.868286Q71.28438 102.07141 70.925 102.75891Q70.56563 103.44641 69.8625 103.837036Q69.175 104.212036 68.3625 104.212036Q67.06563 104.212036 66.25313 103.38391Q65.45625 102.54016 65.45625 100.962036ZM66.53438 100.962036Q66.53438 102.149536 67.05 102.743286Q67.58125 103.337036 68.3625 103.337036Q69.15938 103.337036 69.675 102.743286Q70.19063 102.149536 70.19063 100.930786Q70.19063 99.774536 69.65938 99.180786Q69.14375 98.587036 68.3625 98.587036Q67.58125 98.587036 67.05 99.180786Q66.53438 99.75891 66.53438 100.962036ZM72.84688 104.07141L72.84688 97.85266L73.78438 97.85266L73.78438 98.72766Q74.08125 98.25891 74.56563 97.993286Q75.05 97.712036 75.675 97.712036Q76.3625 97.712036 76.8 97.993286Q77.25313 98.274536 77.425 98.79016Q78.175 97.712036 79.34688 97.712036Q80.28438 97.712036 80.76875 98.22766Q81.26875 98.72766 81.26875 99.805786L81.26875 104.07141L80.22188 104.07141L80.22188 100.149536Q80.22188 99.524536 80.1125 99.243286Q80.01875 98.962036 79.75313 98.79016Q79.4875 98.618286 79.1125 98.618286Q78.45625 98.618286 78.01875 99.055786Q77.59688 99.493286 77.59688 100.462036L77.59688 104.07141L76.53438 104.07141L76.53438 100.024536Q76.53438 99.32141 76.26875 98.97766Q76.01875 98.618286 75.44063 98.618286Q74.9875 98.618286 74.6125 98.85266Q74.2375 99.087036 74.06563 99.54016Q73.89375 99.993286 73.89375 100.837036L73.89375 104.07141L72.84688 104.07141ZM82.84688 106.462036L82.84688 97.85266L83.8 97.85266L83.8 98.649536Q84.14375 98.180786 84.56563 97.94641Q85.00313 97.712036 85.6125 97.712036Q86.40938 97.712036 87.01875 98.118286Q87.62813 98.524536 87.925 99.274536Q88.2375 100.024536 88.2375 100.91516Q88.2375 101.868286 87.89375 102.63391Q87.56563 103.399536 86.90938 103.805786Q86.25313 104.212036 85.53438 104.212036Q85.00313 104.212036 84.58125 103.993286Q84.15938 103.75891 83.89375 103.430786L83.89375 106.462036L82.84688 106.462036ZM83.8 100.993286Q83.8 102.19641 84.28438 102.774536Q84.76875 103.337036 85.45625 103.337036Q86.15938 103.337036 86.65938 102.743286Q87.15938 102.149536 87.15938 100.899536Q87.15938 99.712036 86.675 99.13391Q86.19063 98.54016 85.50313 98.54016Q84.83125 98.54016 84.31563 99.16516Q83.8 99.79016 83.8 100.993286ZM93.90938 103.305786Q93.31563 103.805786 92.76875 104.00891Q92.2375 104.212036 91.6125 104.212036Q90.58125 104.212036 90.03438 103.712036Q89.4875 103.212036 89.4875 102.430786Q89.4875 101.97766 89.69063 101.60266Q89.89375 101.212036 90.2375 100.993286Q90.58125 100.75891 91.00313 100.649536Q91.3 100.555786 91.94063 100.47766Q93.20625 100.337036 93.81563 100.118286Q93.81563 99.899536 93.81563 99.85266Q93.81563 99.19641 93.51875 98.930786Q93.1125 98.587036 92.31563 98.587036Q91.58125 98.587036 91.22188 98.85266Q90.8625 99.10266 90.69063 99.75891L89.65938 99.618286Q89.8 98.962036 90.12813 98.555786Q90.45625 98.149536 91.06563 97.930786Q91.675 97.712036 92.47188 97.712036Q93.26875 97.712036 93.76875 97.899536Q94.26875 98.087036 94.50313 98.368286Q94.7375 98.649536 94.83125 99.087036Q94.87813 99.35266 94.87813 100.055786L94.87813 101.462036Q94.87813 102.930786 94.94063 103.32141Q95.01875 103.712036 95.22188 104.07141L94.1125 104.07141Q93.95625 103.743286 93.90938 103.305786ZM93.81563 100.94641Q93.2375 101.180786 92.09688 101.35266Q91.44063 101.44641 91.175 101.57141Q90.90938 101.680786 90.75313 101.899536Q90.6125 102.118286 90.6125 102.399536Q90.6125 102.82141 90.925 103.10266Q91.25313 103.38391 91.8625 103.38391Q92.47188 103.38391 92.94063 103.118286Q93.425 102.85266 93.64375 102.38391Q93.81563 102.024536 93.81563 101.337036L93.81563 100.94641ZM96.84688 104.07141L96.84688 97.85266L97.78438 97.85266L97.78438 98.72766Q98.47188 97.712036 99.76875 97.712036Q100.33125 97.712036 100.8 97.91516Q101.28438 98.118286 101.51875 98.44641Q101.75313 98.774536 101.84688 99.212036Q101.89375 99.50891 101.89375 100.243286L101.89375 104.07141L100.84688 104.07141L100.84688 100.29016Q100.84688 99.63391 100.72188 99.32141Q100.59688 99.00891 100.28438 98.82141Q99.97188 98.618286 99.55 98.618286Q98.87813 98.618286 98.37813 99.055786Q97.89375 99.47766 97.89375 100.66516L97.89375 104.07141L96.84688 104.07141ZM103.8 106.462036L103.675 105.47766Q104.01875 105.57141 104.28438 105.57141Q104.62813 105.57141 104.83125 105.44641Q105.05 105.337036 105.19063 105.13391Q105.28438 104.962036 105.51875 104.337036Q105.53438 104.25891 105.6125 104.087036L103.2375 97.85266L104.37813 97.85266L105.675 101.44641Q105.925 102.13391 106.12813 102.899536Q106.31563 102.16516 106.56563 101.47766L107.89375 97.85266L108.94063 97.85266L106.58125 104.180786Q106.19063 105.19641 105.9875 105.587036Q105.70625 106.118286 105.33125 106.35266Q104.97188 106.60266 104.47188 106.60266Q104.175 106.60266 103.8 106.462036ZM116.87813 104.07141L116.87813 103.29016Q116.28438 104.212036 115.14375 104.212036Q114.39375 104.212036 113.76875 103.805786Q113.14375 103.38391 112.8 102.649536Q112.45625 101.91516 112.45625 100.962036Q112.45625 100.04016 112.76875 99.274536Q113.08125 98.50891 113.70625 98.118286Q114.33125 97.712036 115.09688 97.712036Q115.65938 97.712036 116.09688 97.94641Q116.53438 98.180786 116.81563 98.555786L116.81563 95.47766L117.8625 95.47766L117.8625 104.07141L116.87813 104.07141ZM113.55 100.962036Q113.55 102.16516 114.05 102.75891Q114.55 103.337036 115.2375 103.337036Q115.925 103.337036 116.40938 102.774536Q116.89375 102.212036 116.89375 101.055786Q116.89375 99.774536 116.39375 99.180786Q115.90938 98.587036 115.19063 98.587036Q114.4875 98.587036 114.01875 99.16516Q113.55 99.72766 113.55 100.962036ZM119.45625 100.962036Q119.45625 99.22766 120.40938 98.399536Q121.20625 97.712036 122.3625 97.712036Q123.64375 97.712036 124.45625 98.555786Q125.28438 99.38391 125.28438 100.868286Q125.28438 102.07141 124.925 102.75891Q124.56563 103.44641 123.8625 103.837036Q123.175 104.212036 122.3625 104.212036Q121.06563 104.212036 120.25313 103.38391Q119.45625 102.54016 119.45625 100.962036ZM120.53438 100.962036Q120.53438 102.149536 121.05 102.743286Q121.58125 103.337036 122.3625 103.337036Q123.15938 103.337036 123.675 102.743286Q124.19063 102.149536 124.19063 100.930786Q124.19063 99.774536 123.65938 99.180786Q123.14375 98.587036 122.3625 98.587036Q121.58125 98.587036 121.05 99.180786Q120.53438 99.75891 120.53438 100.962036ZM131.09688 102.07141L132.19063 102.19641Q131.94063 103.149536 131.2375 103.680786Q130.53438 104.212036 129.45625 104.212036Q128.09688 104.212036 127.28438 103.368286Q126.4875 102.524536 126.4875 101.00891Q126.4875 99.44641 127.3 98.587036Q128.1125 97.712036 129.39375 97.712036Q130.64375 97.712036 131.425 98.555786Q132.22188 99.399536 132.22188 100.94641Q132.22188 101.04016 132.22188 101.22766L127.58125 101.22766Q127.64375 102.25891 128.15938 102.805786Q128.675 103.337036 129.45625 103.337036Q130.03438 103.337036 130.44063 103.04016Q130.8625 102.72766 131.09688 102.07141ZM127.64375 100.368286L131.1125 100.368286Q131.05 99.57141 130.72188 99.180786Q130.20625 98.57141 129.40938 98.57141Q128.675 98.57141 128.175 99.055786Q127.69063 99.54016 127.64375 100.368286ZM133.425 102.212036L134.45625 102.055786Q134.55 102.680786 134.94063 103.00891Q135.34688 103.337036 136.08125 103.337036Q136.8 103.337036 137.14375 103.055786Q137.50313 102.75891 137.50313 102.35266Q137.50313 101.993286 137.19063 101.79016Q136.97188 101.649536 136.1125 101.430786Q134.95625 101.13391 134.50313 100.930786Q134.06563 100.712036 133.83125 100.337036Q133.59688 99.962036 133.59688 99.493286Q133.59688 99.087036 133.78438 98.72766Q133.97188 98.368286 134.3 98.13391Q134.55 97.962036 134.97188 97.837036Q135.39375 97.712036 135.89375 97.712036Q136.6125 97.712036 137.15938 97.930786Q137.72188 98.13391 137.9875 98.493286Q138.25313 98.85266 138.34688 99.44641L137.31563 99.587036Q137.25313 99.118286 136.90938 98.85266Q136.58125 98.57141 135.95625 98.57141Q135.2375 98.57141 134.925 98.82141Q134.6125 99.055786 134.6125 99.38391Q134.6125 99.587036 134.7375 99.743286Q134.87813 99.91516 135.14375 100.024536Q135.3 100.087036 136.08125 100.29016Q137.20625 100.60266 137.64375 100.79016Q138.08125 100.97766 138.33125 101.337036Q138.58125 101.69641 138.58125 102.243286Q138.58125 102.774536 138.26875 103.243286Q137.97188 103.69641 137.39375 103.962036Q136.81563 104.212036 136.08125 104.212036Q134.8625 104.212036 134.22188 103.712036Q133.59688 103.19641 133.425 102.212036Z" fill-rule="nonzero"/><path fill="#9e9e9e" d="M18.55 118.82141L19.659374 118.72766Q19.784374 119.54016 20.221874 119.94641Q20.675 120.35266 21.315624 120.35266Q22.065624 120.35266 22.596874 119.774536Q23.128124 119.19641 23.128124 118.25891Q23.128124 117.35266 22.6125 116.837036Q22.1125 116.305786 21.284374 116.305786Q20.784374 116.305786 20.3625 116.54016Q19.95625 116.774536 19.721874 117.13391L18.7375 117.00891L19.565624 112.60266L23.846874 112.60266L23.846874 113.60266L20.409374 113.60266L19.95625 115.91516Q20.721874 115.368286 21.565624 115.368286Q22.690624 115.368286 23.45625 116.149536Q24.2375 116.930786 24.2375 118.16516Q24.2375 119.32141 23.565624 120.180786Q22.7375 121.212036 21.315624 121.212036Q20.14375 121.212036 19.39375 120.555786Q18.659374 119.899536 18.55 118.82141ZM26.14375 121.07141L26.14375 119.868286L27.346874 119.868286L27.346874 121.07141L26.14375 121.07141ZM32.51875 121.07141L31.471874 121.07141L31.471874 114.35266Q31.08125 114.712036 30.45625 115.087036Q29.846874 115.44641 29.3625 115.618286L29.3625 114.60266Q30.2375 114.180786 30.89375 113.60266Q31.565624 113.00891 31.846874 112.44641L32.51875 112.44641L32.51875 121.07141ZM35.753124 114.54016Q35.753124 113.618286 36.20625 112.97766Q36.675 112.337036 37.55 112.337036Q38.3625 112.337036 38.89375 112.91516Q39.425 113.493286 39.425 114.60266Q39.425 115.69641 38.878124 116.29016Q38.346874 116.868286 37.565624 116.868286Q36.784374 116.868286 36.26875 116.29016Q35.753124 115.712036 35.753124 114.54016ZM37.58125 113.055786Q37.190624 113.055786 36.925 113.399536Q36.675 113.743286 36.675 114.649536Q36.675 115.47766 36.925 115.82141Q37.190624 116.149536 37.58125 116.149536Q37.9875 116.149536 38.2375 115.805786Q38.503124 115.462036 38.503124 114.57141Q38.503124 113.72766 38.2375 113.399536Q37.971874 113.055786 37.58125 113.055786ZM37.58125 121.38391L42.284374 112.337036L43.14375 112.337036L38.45625 121.38391L37.58125 121.38391ZM41.3 119.055786Q41.3 118.13391 41.753124 117.493286Q42.221874 116.85266 43.1125 116.85266Q43.925 116.85266 44.45625 117.430786Q44.9875 117.993286 44.9875 119.118286Q44.9875 120.212036 44.440624 120.805786Q43.909374 121.38391 43.1125 121.38391Q42.346874 121.38391 41.815624 120.805786Q41.3 120.22766 41.3 119.055786ZM43.14375 117.57141Q42.7375 117.57141 42.471874 117.91516Q42.221874 118.25891 42.221874 119.16516Q42.221874 119.97766 42.4875 120.32141Q42.753124 120.66516 43.14375 120.66516Q43.534374 120.66516 43.8 120.32141Q44.065624 119.97766 44.065624 119.07141Q44.065624 118.243286 43.8 117.91516Q43.534374 117.57141 43.14375 117.57141Z" fill-rule="nonzero"/><path stroke="#757575" stroke-width="1.0" stroke-linecap="butt" d="M18.05 108.57141L141.56667 108.57141L255.30434 95.13456" fill-rule="nonzero"/><path fill="#9e9e9e" d="M257.30432 95.13456C257.30432 94.02999 256.4089 93.13456 255.30434 93.13456C254.19977 93.13456 253.30434 94.02999 253.30434 95.13456C253.30434 96.23913 254.19977 97.13456 255.30434 97.13456C256.4089 97.13456 257.30432 96.23913 257.30432 95.13456" fill-rule="nonzero"/><path fill="#1a1a1a" d="M21.39375 135.07141L21.39375 131.43079L18.08125 126.47766L19.471874 126.47766L21.159374 129.07141Q21.628124 129.79016 22.034374 130.52454Q22.425 129.85266 22.971874 129.00891L24.64375 126.47766L25.95625 126.47766L22.534374 131.43079L22.534374 135.07141L21.39375 135.07141ZM31.096874 133.07141L32.190624 133.19641Q31.940624 134.14954 31.2375 134.68079Q30.534374 135.21204 29.45625 135.21204Q28.096874 135.21204 27.284374 134.36829Q26.4875 133.52454 26.4875 132.00891Q26.4875 130.44641 27.3 129.58704Q28.1125 128.71204 29.39375 128.71204Q30.64375 128.71204 31.425 129.55579Q32.221874 130.39954 32.221874 131.94641Q32.221874 132.04016 32.221874 132.22766L27.58125 132.22766Q27.64375 133.25891 28.159374 133.80579Q28.675 134.33704 29.45625 134.33704Q30.034374 134.33704 30.440624 134.04016Q30.8625 133.72766 31.096874 133.07141ZM27.64375 131.36829L31.1125 131.36829Q31.05 130.57141 30.721874 130.18079Q30.20625 129.57141 29.409374 129.57141Q28.675 129.57141 28.175 130.05579Q27.690624 130.54016 27.64375 131.36829ZM33.425 133.21204L34.45625 133.05579Q34.55 133.68079 34.940624 134.00891Q35.346874 134.33704 36.08125 134.33704Q36.8 134.33704 37.14375 134.05579Q37.503124 133.75891 37.503124 133.35266Q37.503124 132.99329 37.190624 132.79016Q36.971874 132.64954 36.1125 132.43079Q34.95625 132.13391 34.503124 131.93079Q34.065624 131.71204 33.83125 131.33704Q33.596874 130.96204 33.596874 130.49329Q33.596874 130.08704 33.784374 129.72766Q33.971874 129.36829 34.3 129.13391Q34.55 128.96204 34.971874 128.83704Q35.39375 128.71204 35.89375 128.71204Q36.6125 128.71204 37.159374 128.93079Q37.721874 129.13391 37.9875 129.49329Q38.253124 129.85266 38.346874 130.44641L37.315624 130.58704Q37.253124 130.11829 36.909374 129.85266Q36.58125 129.57141 35.95625 129.57141Q35.2375 129.57141 34.925 129.82141Q34.6125 130.05579 34.6125 130.38391Q34.6125 130.58704 34.7375 130.74329Q34.878124 130.91516 35.14375 131.02454Q35.3 131.08704 36.08125 131.29016Q37.20625 131.60266 37.64375 131.79016Q38.08125 131.97766 38.33125 132.33704Q38.58125 132.69641 38.58125 133.24329Q38.58125 133.77454 38.26875 134.24329Q37.971874 134.69641 37.39375 134.96204Q36.815624 135.21204 36.08125 135.21204Q34.8625 135.21204 34.221874 134.71204Q33.596874 134.19641 33.425 133.21204ZM40.1125 135.07141L40.1125 133.86829L41.315624 133.86829L41.315624 135.07141Q41.315624 135.72766 41.08125 136.13391Q40.846874 136.55579 40.346874 136.77454L40.05 136.32141Q40.378124 136.18079 40.534374 135.88391Q40.690624 135.60266 40.721874 135.07141L40.1125 135.07141ZM46.096874 135.07141L46.096874 129.66516L45.159374 129.66516L45.159374 128.85266L46.096874 128.85266L46.096874 128.18079Q46.096874 127.555786 46.20625 127.25891Q46.3625 126.837036 46.7375 126.587036Q47.128124 126.337036 47.815624 126.337036Q48.26875 126.337036 48.8 126.44641L48.64375 127.35266Q48.315624 127.305786 48.01875 127.305786Q47.534374 127.305786 47.33125 127.50891Q47.14375 127.712036 47.14375 128.27454L47.14375 128.85266L48.3625 128.85266L48.3625 129.66516L47.14375 129.66516L47.14375 135.07141L46.096874 135.07141ZM52.925 135.07141L52.925 134.14954Q52.190624 135.21204 50.940624 135.21204Q50.39375 135.21204 49.909374 135.00891Q49.440624 134.79016 49.20625 134.47766Q48.971874 134.14954 48.878124 133.68079Q48.815624 133.38391 48.815624 132.69641L48.815624 128.85266L49.878124 128.85266L49.878124 132.30579Q49.878124 133.11829 49.940624 133.41516Q50.034374 133.82141 50.346874 134.07141Q50.675 134.30579 51.159374 134.30579Q51.628124 134.30579 52.034374 134.07141Q52.45625 133.82141 52.628124 133.39954Q52.815624 132.97766 52.815624 132.18079L52.815624 128.85266L53.8625 128.85266L53.8625 135.07141L52.925 135.07141ZM55.815624 135.07141L55.815624 126.47766L56.878124 126.47766L56.878124 135.07141L55.815624 135.07141ZM58.815624 135.07141L58.815624 126.47766L59.878124 126.47766L59.878124 135.07141L58.815624 135.07141ZM61.425 132.49329L61.425 131.43079L64.675 131.43079L64.675 132.49329L61.425 132.49329ZM68.14375 134.13391L68.3 135.05579Q67.84688 135.14954 67.50313 135.14954Q66.925 135.14954 66.6125 134.97766Q66.3 134.79016 66.15938 134.49329Q66.03438 134.19641 66.03438 133.24329L66.03438 129.66516L65.26875 129.66516L65.26875 128.85266L66.03438 128.85266L66.03438 127.305786L67.08125 126.680786L67.08125 128.85266L68.14375 128.85266L68.14375 129.66516L67.08125 129.66516L67.08125 133.30579Q67.08125 133.75891 67.12813 133.88391Q67.19063 134.00891 67.31563 134.08704Q67.44063 134.16516 67.675 134.16516Q67.8625 134.16516 68.14375 134.13391ZM68.84688 127.69641L68.84688 126.47766L69.90938 126.47766L69.90938 127.69641L68.84688 127.69641ZM68.84688 135.07141L68.84688 128.85266L69.90938 128.85266L69.90938 135.07141L68.84688 135.07141ZM71.84688 135.07141L71.84688 128.85266L72.78438 128.85266L72.78438 129.72766Q73.08125 129.25891 73.56563 128.99329Q74.05 128.71204 74.675 128.71204Q75.3625 128.71204 75.8 128.99329Q76.25313 129.27454 76.425 129.79016Q77.175 128.71204 78.34688 128.71204Q79.28438 128.71204 79.76875 129.22766Q80.26875 129.72766 80.26875 130.80579L80.26875 135.07141L79.22188 135.07141L79.22188 131.14954Q79.22188 130.52454 79.1125 130.24329Q79.01875 129.96204 78.75313 129.79016Q78.4875 129.61829 78.1125 129.61829Q77.45625 129.61829 77.01875 130.05579Q76.59688 130.49329 76.59688 131.46204L76.59688 135.07141L75.53438 135.07141L75.53438 131.02454Q75.53438 130.32141 75.26875 129.97766Q75.01875 129.61829 74.44063 129.61829Q73.9875 129.61829 73.6125 129.85266Q73.2375 130.08704 73.06563 130.54016Q72.89375 130.99329 72.89375 131.83704L72.89375 135.07141L71.84688 135.07141ZM86.09688 133.07141L87.19063 133.19641Q86.94063 134.14954 86.2375 134.68079Q85.53438 135.21204 84.45625 135.21204Q83.09688 135.21204 82.28438 134.36829Q81.4875 133.52454 81.4875 132.00891Q81.4875 130.44641 82.3 129.58704Q83.1125 128.71204 84.39375 128.71204Q85.64375 128.71204 86.425 129.55579Q87.22188 130.39954 87.22188 131.94641Q87.22188 132.04016 87.22188 132.22766L82.58125 132.22766Q82.64375 133.25891 83.15938 133.80579Q83.675 134.33704 84.45625 134.33704Q85.03438 134.33704 85.44063 134.04016Q85.8625 133.72766 86.09688 133.07141ZM82.64375 131.36829L86.1125 131.36829Q86.05 130.57141 85.72188 130.18079Q85.20625 129.57141 84.40938 129.57141Q83.675 129.57141 83.175 130.05579Q82.69063 130.54016 82.64375 131.36829Z" fill-rule="nonzero"/><path fill="#9e9e9e" d="M22.51875 152.07141L21.471874 152.07141L21.471874 145.35266Q21.08125 145.71204 20.45625 146.08704Q19.846874 146.44641 19.3625 146.61829L19.3625 145.60266Q20.2375 145.18079 20.89375 144.60266Q21.565624 144.00891 21.846874 143.44641L22.51875 143.44641L22.51875 152.07141ZM25.55 149.80579L26.6125 149.66516Q26.784374 150.55579 27.221874 150.96204Q27.659374 151.35266 28.284374 151.35266Q29.034374 151.35266 29.55 150.83704Q30.065624 150.32141 30.065624 149.55579Q30.065624 148.83704 29.58125 148.36829Q29.1125 147.88391 28.378124 147.88391Q28.08125 147.88391 27.628124 148.00891L27.753124 147.07141Q27.8625 147.08704 27.925 147.08704Q28.596874 147.08704 29.128124 146.74329Q29.675 146.38391 29.675 145.64954Q29.675 145.07141 29.284374 144.69641Q28.89375 144.30579 28.26875 144.30579Q27.659374 144.30579 27.2375 144.69641Q26.83125 145.08704 26.721874 145.85266L25.659374 145.66516Q25.846874 144.61829 26.534374 144.04016Q27.221874 143.44641 28.2375 143.44641Q28.940624 143.44641 29.534374 143.75891Q30.128124 144.05579 30.440624 144.57141Q30.753124 145.08704 30.753124 145.68079Q30.753124 146.22766 30.45625 146.69641Q30.159374 147.14954 29.58125 147.41516Q30.33125 147.58704 30.753124 148.14954Q31.175 148.69641 31.175 149.54016Q31.175 150.66516 30.346874 151.44641Q29.534374 152.22766 28.284374 152.22766Q27.159374 152.22766 26.409374 151.55579Q25.659374 150.86829 25.55 149.80579ZM33.14375 152.07141L33.14375 150.86829L34.346874 150.86829L34.346874 152.07141L33.14375 152.07141ZM37.175 147.41516Q36.51875 147.16516 36.190624 146.72766Q35.878124 146.27454 35.878124 145.66516Q35.878124 144.72766 36.55 144.08704Q37.2375 143.44641 38.346874 143.44641Q39.471874 143.44641 40.159374 144.10266Q40.846874 144.75891 40.846874 145.69641Q40.846874 146.29016 40.534374 146.72766Q40.221874 147.16516 39.58125 147.41516Q40.378124 147.66516 40.784374 148.24329Q41.190624 148.82141 41.190624 149.61829Q41.190624 150.71204 40.409374 151.46204Q39.64375 152.21204 38.3625 152.21204Q37.096874 152.21204 36.315624 151.46204Q35.534374 150.71204 35.534374 149.58704Q35.534374 148.74329 35.95625 148.18079Q36.39375 147.61829 37.175 147.41516ZM36.95625 145.61829Q36.95625 146.22766 37.346874 146.61829Q37.753124 147.00891 38.378124 147.00891Q38.9875 147.00891 39.378124 146.63391Q39.76875 146.24329 39.76875 145.68079Q39.76875 145.10266 39.3625 144.71204Q38.95625 144.30579 38.3625 144.30579Q37.753124 144.30579 37.346874 144.69641Q36.95625 145.08704 36.95625 145.61829ZM36.628124 149.58704Q36.628124 150.04016 36.83125 150.46204Q37.05 150.88391 37.471874 151.11829Q37.89375 151.35266 38.378124 151.35266Q39.128124 151.35266 39.6125 150.86829Q40.1125 150.38391 40.1125 149.63391Q40.1125 148.86829 39.6125 148.36829Q39.1125 147.86829 38.346874 147.86829Q37.596874 147.86829 37.1125 148.36829Q36.628124 148.85266 36.628124 149.58704ZM42.753124 145.54016Q42.753124 144.61829 43.20625 143.97766Q43.675 143.33704 44.55 143.33704Q45.3625 143.33704 45.89375 143.91516Q46.425 144.49329 46.425 145.60266Q46.425 146.69641 45.878124 147.29016Q45.346874 147.86829 44.565624 147.86829Q43.784374 147.86829 43.26875 147.29016Q42.753124 146.71204 42.753124 145.54016ZM44.58125 144.05579Q44.190624 144.05579 43.925 144.39954Q43.675 144.74329 43.675 145.64954Q43.675 146.47766 43.925 146.82141Q44.190624 147.14954 44.58125 147.14954Q44.9875 147.14954 45.2375 146.80579Q45.503124 146.46204 45.503124 145.57141Q45.503124 144.72766 45.2375 144.39954Q44.971874 144.05579 44.58125 144.05579ZM44.58125 152.38391L49.284374 143.33704L50.14375 143.33704L45.45625 152.38391L44.58125 152.38391ZM48.3 150.05579Q48.3 149.13391 48.753124 148.49329Q49.221874 147.85266 50.1125 147.85266Q50.925 147.85266 51.45625 148.43079Q51.9875 148.99329 51.9875 150.11829Q51.9875 151.21204 51.440624 151.80579Q50.909374 152.38391 50.1125 152.38391Q49.346874 152.38391 48.815624 151.80579Q48.3 151.22766 48.3 150.05579ZM50.14375 148.57141Q49.7375 148.57141 49.471874 148.91516Q49.221874 149.25891 49.221874 150.16516Q49.221874 150.97766 49.4875 151.32141Q49.753124 151.66516 50.14375 151.66516Q50.534374 151.66516 50.8 151.32141Q51.065624 150.97766 51.065624 150.07141Q51.065624 149.24329 50.8 148.91516Q50.534374 148.57141 50.14375 148.57141Z" fill-rule="nonzero"/><path stroke="#757575" stroke-width="1.0" stroke-linecap="butt" d="M18.05 139.57141L141.56667 139.57141L187.59349 125.363235" fill-rule="nonzero"/><path fill="#9e9e9e" d="M189.59349 125.363235C189.59349 124.25867 188.69807 123.363235 187.59349 123.363235C186.48892 123.363235 185.59349 124.25867 185.59349 125.363235C185.59349 126.467804 186.48892 127.363235 187.59349 127.363235C188.69807 127.363235 189.59349 126.467804 189.59349 125.363235" fill-rule="nonzero"/><path fill="#1a1a1a" d="M21.39375 232.95395L21.39375 229.31332L18.08125 224.3602L19.471874 224.3602L21.159374 226.95395Q21.628124 227.6727 22.034374 228.40707Q22.425 227.7352 22.971874 226.89145L24.64375 224.3602L25.95625 224.3602L22.534374 229.31332L22.534374 232.95395L21.39375 232.95395ZM31.096874 230.95395L32.190624 231.07895Q31.940624 232.03207 31.2375 232.56332Q30.534374 233.09457 29.45625 233.09457Q28.096874 233.09457 27.284374 232.25082Q26.4875 231.40707 26.4875 229.89145Q26.4875 228.32895 27.3 227.46957Q28.1125 226.59457 29.39375 226.59457Q30.64375 226.59457 31.425 227.43832Q32.221874 228.28207 32.221874 229.82895Q32.221874 229.9227 32.221874 230.1102L27.58125 230.1102Q27.64375 231.14145 28.159374 231.68832Q28.675 232.21957 29.45625 232.21957Q30.034374 232.21957 30.440624 231.9227Q30.8625 231.6102 31.096874 230.95395ZM27.64375 229.25082L31.1125 229.25082Q31.05 228.45395 30.721874 228.06332Q30.20625 227.45395 29.409374 227.45395Q28.675 227.45395 28.175 227.93832Q27.690624 228.4227 27.64375 229.25082ZM33.425 231.09457L34.45625 230.93832Q34.55 231.56332 34.940624 231.89145Q35.346874 232.21957 36.08125 232.21957Q36.8 232.21957 37.14375 231.93832Q37.503124 231.64145 37.503124 231.2352Q37.503124 230.87582 37.190624 230.6727Q36.971874 230.53207 36.1125 230.31332Q34.95625 230.01645 34.503124 229.81332Q34.065624 229.59457 33.83125 229.21957Q33.596874 228.84457 33.596874 228.37582Q33.596874 227.96957 33.784374 227.6102Q33.971874 227.25082 34.3 227.01645Q34.55 226.84457 34.971874 226.71957Q35.39375 226.59457 35.89375 226.59457Q36.6125 226.59457 37.159374 226.81332Q37.721874 227.01645 37.9875 227.37582Q38.253124 227.7352 38.346874 228.32895L37.315624 228.46957Q37.253124 228.00082 36.909374 227.7352Q36.58125 227.45395 35.95625 227.45395Q35.2375 227.45395 34.925 227.70395Q34.6125 227.93832 34.6125 228.26645Q34.6125 228.46957 34.7375 228.62582Q34.878124 228.7977 35.14375 228.90707Q35.3 228.96957 36.08125 229.1727Q37.20625 229.4852 37.64375 229.6727Q38.08125 229.8602 38.33125 230.21957Q38.58125 230.57895 38.58125 231.12582Q38.58125 231.65707 38.26875 232.12582Q37.971874 232.57895 37.39375 232.84457Q36.815624 233.09457 36.08125 233.09457Q34.8625 233.09457 34.221874 232.59457Q33.596874 232.07895 33.425 231.09457ZM40.1125 232.95395L40.1125 231.75082L41.315624 231.75082L41.315624 232.95395Q41.315624 233.6102 41.08125 234.01645Q40.846874 234.43832 40.346874 234.65707L40.05 234.20395Q40.378124 234.06332 40.534374 233.76645Q40.690624 233.4852 40.721874 232.95395L40.1125 232.95395ZM45.846874 235.34457L45.846874 226.7352L46.8 226.7352L46.8 227.53207Q47.14375 227.06332 47.565624 226.82895Q48.003124 226.59457 48.6125 226.59457Q49.409374 226.59457 50.01875 227.00082Q50.628124 227.40707 50.925 228.15707Q51.2375 228.90707 51.2375 229.7977Q51.2375 230.75082 50.89375 231.51645Q50.565624 232.28207 49.909374 232.68832Q49.253124 233.09457 48.534374 233.09457Q48.003124 233.09457 47.58125 232.87582Q47.159374 232.64145 46.89375 232.31332L46.89375 235.34457L45.846874 235.34457ZM46.8 229.87582Q46.8 231.07895 47.284374 231.65707Q47.76875 232.21957 48.45625 232.21957Q49.159374 232.21957 49.659374 231.62582Q50.159374 231.03207 50.159374 229.78207Q50.159374 228.59457 49.675 228.01645Q49.190624 227.4227 48.503124 227.4227Q47.83125 227.4227 47.315624 228.0477Q46.8 228.6727 46.8 229.87582ZM56.909374 232.18832Q56.315624 232.68832 55.76875 232.89145Q55.2375 233.09457 54.6125 233.09457Q53.58125 233.09457 53.034374 232.59457Q52.4875 232.09457 52.4875 231.31332Q52.4875 230.8602 52.690624 230.4852Q52.89375 230.09457 53.2375 229.87582Q53.58125 229.64145 54.003124 229.53207Q54.3 229.43832 54.940624 229.3602Q56.20625 229.21957 56.815624 229.00082Q56.815624 228.78207 56.815624 228.7352Q56.815624 228.07895 56.51875 227.81332Q56.1125 227.46957 55.315624 227.46957Q54.58125 227.46957 54.221874 227.7352Q53.8625 227.9852 53.690624 228.64145L52.659374 228.50082Q52.8 227.84457 53.128124 227.43832Q53.45625 227.03207 54.065624 226.81332Q54.675 226.59457 55.471874 226.59457Q56.26875 226.59457 56.76875 226.78207Q57.26875 226.96957 57.503124 227.25082Q57.7375 227.53207 57.83125 227.96957Q57.878124 228.2352 57.878124 228.93832L57.878124 230.34457Q57.878124 231.81332 57.940624 232.20395Q58.01875 232.59457 58.221874 232.95395L57.1125 232.95395Q56.95625 232.62582 56.909374 232.18832ZM56.815624 229.82895Q56.2375 230.06332 55.096874 230.2352Q54.440624 230.32895 54.175 230.45395Q53.909374 230.56332 53.753124 230.78207Q53.6125 231.00082 53.6125 231.28207Q53.6125 231.70395 53.925 231.9852Q54.253124 232.26645 54.8625 232.26645Q55.471874 232.26645 55.940624 232.00082Q56.425 231.7352 56.64375 231.26645Q56.815624 230.90707 56.815624 230.21957L56.815624 229.82895ZM59.83125 232.95395L59.83125 226.7352L60.784374 226.7352L60.784374 227.6727Q61.14375 227.01645 61.440624 226.81332Q61.753124 226.59457 62.128124 226.59457Q62.659374 226.59457 63.20625 226.9227L62.846874 227.90707Q62.45625 227.6727 62.08125 227.6727Q61.721874 227.6727 61.440624 227.89145Q61.175 228.09457 61.065624 228.46957Q60.878124 229.03207 60.878124 229.68832L60.878124 232.95395L59.83125 232.95395ZM66.14375 232.01645L66.3 232.93832Q65.84688 233.03207 65.50313 233.03207Q64.925 233.03207 64.6125 232.8602Q64.3 232.6727 64.15938 232.37582Q64.03438 232.07895 64.03438 231.12582L64.03438 227.5477L63.26875 227.5477L63.26875 226.7352L64.03438 226.7352L64.03438 225.18832L65.08125 224.56332L65.08125 226.7352L66.14375 226.7352L66.14375 227.5477L65.08125 227.5477L65.08125 231.18832Q65.08125 231.64145 65.12813 231.76645Q65.19063 231.89145 65.31563 231.96957Q65.44063 232.0477 65.675 232.0477Q65.8625 232.0477 66.14375 232.01645ZM66.425 230.37582L66.425 229.31332L69.675 229.31332L69.675 230.37582L66.425 230.37582ZM73.14375 232.01645L73.3 232.93832Q72.84688 233.03207 72.50313 233.03207Q71.925 233.03207 71.6125 232.8602Q71.3 232.6727 71.15938 232.37582Q71.03438 232.07895 71.03438 231.12582L71.03438 227.5477L70.26875 227.5477L70.26875 226.7352L71.03438 226.7352L71.03438 225.18832L72.08125 224.56332L72.08125 226.7352L73.14375 226.7352L73.14375 227.5477L72.08125 227.5477L72.08125 231.18832Q72.08125 231.64145 72.12813 231.76645Q72.19063 231.89145 72.31563 231.96957Q72.44063 232.0477 72.675 232.0477Q72.8625 232.0477 73.14375 232.01645ZM73.84688 225.57895L73.84688 224.3602L74.90938 224.3602L74.90938 225.57895L73.84688 225.57895ZM73.84688 232.95395L73.84688 226.7352L74.90938 226.7352L74.90938 232.95395L73.84688 232.95395ZM76.84688 232.95395L76.84688 226.7352L77.78438 226.7352L77.78438 227.6102Q78.08125 227.14145 78.56563 226.87582Q79.05 226.59457 79.675 226.59457Q80.3625 226.59457 80.8 226.87582Q81.25313 227.15707 81.425 227.6727Q82.175 226.59457 83.34688 226.59457Q84.28438 226.59457 84.76875 227.1102Q85.26875 227.6102 85.26875 228.68832L85.26875 232.95395L84.22188 232.95395L84.22188 229.03207Q84.22188 228.40707 84.1125 228.12582Q84.01875 227.84457 83.75313 227.6727Q83.4875 227.50082 83.1125 227.50082Q82.45625 227.50082 82.01875 227.93832Q81.59688 228.37582 81.59688 229.34457L81.59688 232.95395L80.53438 232.95395L80.53438 228.90707Q80.53438 228.20395 80.26875 227.8602Q80.01875 227.50082 79.44063 227.50082Q78.9875 227.50082 78.6125 227.7352Q78.2375 227.96957 78.06563 228.4227Q77.89375 228.87582 77.89375 229.71957L77.89375 232.95395L76.84688 232.95395ZM91.09688 230.95395L92.19063 231.07895Q91.94063 232.03207 91.2375 232.56332Q90.53438 233.09457 89.45625 233.09457Q88.09688 233.09457 87.28438 232.25082Q86.4875 231.40707 86.4875 229.89145Q86.4875 228.32895 87.3 227.46957Q88.1125 226.59457 89.39375 226.59457Q90.64375 226.59457 91.425 227.43832Q92.22188 228.28207 92.22188 229.82895Q92.22188 229.9227 92.22188 230.1102L87.58125 230.1102Q87.64375 231.14145 88.15938 231.68832Q88.675 232.21957 89.45625 232.21957Q90.03438 232.21957 90.44063 231.9227Q90.8625 231.6102 91.09688 230.95395ZM87.64375 229.25082L91.1125 229.25082Q91.05 228.45395 90.72188 228.06332Q90.20625 227.45395 89.40938 227.45395Q88.675 227.45395 88.175 227.93832Q87.69063 228.4227 87.64375 229.25082Z" fill-rule="nonzero"/><path fill="#9e9e9e" d="M24.096874 248.93832L24.096874 249.95395L18.409374 249.95395Q18.409374 249.57895 18.534374 249.21957Q18.753124 248.64145 19.221874 248.07895Q19.70625 247.51645 20.6125 246.78207Q22.01875 245.62582 22.503124 244.95395Q23.003124 244.28207 23.003124 243.68832Q23.003124 243.06332 22.55 242.64145Q22.096874 242.20395 21.378124 242.20395Q20.6125 242.20395 20.159374 242.65707Q19.70625 243.1102 19.690624 243.9227L18.6125 243.81332Q18.721874 242.59457 19.440624 241.96957Q20.175 241.32895 21.409374 241.32895Q22.64375 241.32895 23.3625 242.01645Q24.08125 242.70395 24.08125 243.71957Q24.08125 244.2352 23.8625 244.7352Q23.659374 245.21957 23.159374 245.78207Q22.675 246.32895 21.55 247.28207Q20.596874 248.07895 20.315624 248.37582Q20.05 248.65707 19.878124 248.93832L24.096874 248.93832ZM31.01875 243.46957L29.971874 243.5477Q29.83125 242.9227 29.58125 242.64145Q29.14375 242.18832 28.51875 242.18832Q28.01875 242.18832 27.628124 242.46957Q27.14375 242.84457 26.846874 243.5477Q26.565624 244.2352 26.55 245.51645Q26.925 244.93832 27.471874 244.65707Q28.034374 244.37582 28.64375 244.37582Q29.690624 244.37582 30.425 245.15707Q31.175 245.93832 31.175 247.15707Q31.175 247.96957 30.815624 248.6727Q30.471874 249.3602 29.8625 249.7352Q29.253124 250.09457 28.4875 250.09457Q27.159374 250.09457 26.33125 249.12582Q25.503124 248.15707 25.503124 245.93832Q25.503124 243.43832 26.425 242.31332Q27.221874 241.32895 28.58125 241.32895Q29.596874 241.32895 30.2375 241.90707Q30.89375 242.46957 31.01875 243.46957ZM26.721874 247.1727Q26.721874 247.71957 26.940624 248.21957Q27.175 248.70395 27.58125 248.96957Q28.003124 249.2352 28.471874 249.2352Q29.128124 249.2352 29.6125 248.70395Q30.096874 248.15707 30.096874 247.2352Q30.096874 246.34457 29.6125 245.82895Q29.14375 245.31332 28.425 245.31332Q27.70625 245.31332 27.20625 245.82895Q26.721874 246.34457 26.721874 247.1727ZM33.14375 249.95395L33.14375 248.75082L34.346874 248.75082L34.346874 249.95395L33.14375 249.95395ZM35.55 245.71957Q35.55 244.18832 35.8625 243.26645Q36.175 242.32895 36.784374 241.82895Q37.409374 241.32895 38.346874 241.32895Q39.034374 241.32895 39.55 241.6102Q40.08125 241.89145 40.425 242.4227Q40.76875 242.93832 40.95625 243.68832Q41.14375 244.43832 41.14375 245.71957Q41.14375 247.2352 40.83125 248.15707Q40.534374 249.07895 39.909374 249.59457Q39.3 250.09457 38.346874 250.09457Q37.1125 250.09457 36.39375 249.20395Q35.55 248.14145 35.55 245.71957ZM36.628124 245.71957Q36.628124 247.82895 37.128124 248.53207Q37.628124 249.2352 38.346874 249.2352Q39.08125 249.2352 39.565624 248.53207Q40.065624 247.82895 40.065624 245.71957Q40.065624 243.59457 39.565624 242.90707Q39.08125 242.20395 38.33125 242.20395Q37.6125 242.20395 37.175 242.81332Q36.628124 243.59457 36.628124 245.71957ZM42.753124 243.4227Q42.753124 242.50082 43.20625 241.8602Q43.675 241.21957 44.55 241.21957Q45.3625 241.21957 45.89375 241.7977Q46.425 242.37582 46.425 243.4852Q46.425 244.57895 45.878124 245.1727Q45.346874 245.75082 44.565624 245.75082Q43.784374 245.75082 43.26875 245.1727Q42.753124 244.59457 42.753124 243.4227ZM44.58125 241.93832Q44.190624 241.93832 43.925 242.28207Q43.675 242.62582 43.675 243.53207Q43.675 244.3602 43.925 244.70395Q44.190624 245.03207 44.58125 245.03207Q44.9875 245.03207 45.2375 244.68832Q45.503124 244.34457 45.503124 243.45395Q45.503124 242.6102 45.2375 242.28207Q44.971874 241.93832 44.58125 241.93832ZM44.58125 250.26645L49.284374 241.21957L50.14375 241.21957L45.45625 250.26645L44.58125 250.26645ZM48.3 247.93832Q48.3 247.01645 48.753124 246.37582Q49.221874 245.7352 50.1125 245.7352Q50.925 245.7352 51.45625 246.31332Q51.9875 246.87582 51.9875 248.00082Q51.9875 249.09457 51.440624 249.68832Q50.909374 250.26645 50.1125 250.26645Q49.346874 250.26645 48.815624 249.68832Q48.3 249.1102 48.3 247.93832ZM50.14375 246.45395Q49.7375 246.45395 49.471874 246.7977Q49.221874 247.14145 49.221874 248.0477Q49.221874 248.8602 49.4875 249.20395Q49.753124 249.5477 50.14375 249.5477Q50.534374 249.5477 50.8 249.20395Q51.065624 248.8602 51.065624 247.95395Q51.065624 247.12582 50.8 246.7977Q50.534374 246.45395 50.14375 246.45395Z" fill-rule="nonzero"/><path stroke="#757575" stroke-width="1.0" stroke-linecap="butt" d="M18.05 237.45395L141.56667 237.45395L174.64636 237.45395" fill-rule="nonzero"/><path fill="#9e9e9e" d="M176.64636 237.45395C176.64636 236.34938 175.75093 235.45395 174.64636 235.45395C173.5418 235.45395 172.64636 236.34938 172.64636 237.45395C172.64636 238.55852 173.5418 239.45395 174.64636 239.45395C175.75093 239.45395 176.64636 238.55852 176.64636 237.45395" fill-rule="nonzero"/><path fill="#1a1a1a" d="M550.8719 193.15152L550.8719 184.55777L552.02814 184.55777L556.54376 191.30777L556.54376 184.55777L557.6375 184.55777L557.6375 193.15152L556.46564 193.15152L551.95 186.40152L551.95 193.15152L550.8719 193.15152ZM559.35626 190.04214Q559.35626 188.30777 560.3094 187.47964Q561.10626 186.79214 562.2625 186.79214Q563.54376 186.79214 564.35626 187.6359Q565.1844 188.46402 565.1844 189.9484Q565.1844 191.15152 564.825 191.83902Q564.46564 192.52652 563.7625 192.91714Q563.075 193.29214 562.2625 193.29214Q560.96564 193.29214 560.15314 192.46402Q559.35626 191.62027 559.35626 190.04214ZM560.4344 190.04214Q560.4344 191.22964 560.95 191.8234Q561.48126 192.41714 562.2625 192.41714Q563.0594 192.41714 563.575 191.8234Q564.09064 191.22964 564.09064 190.0109Q564.09064 188.85464 563.5594 188.2609Q563.04376 187.66714 562.2625 187.66714Q561.48126 187.66714 560.95 188.2609Q560.4344 188.83902 560.4344 190.04214Z" fill-rule="nonzero"/><path fill="#9e9e9e" d="M531.45 207.90152L532.5594 207.80777Q532.6844 208.62027 533.1219 209.02652Q533.575 209.43277 534.21564 209.43277Q534.96564 209.43277 535.4969 208.85464Q536.02814 208.27652 536.02814 207.33902Q536.02814 206.43277 535.5125 205.91714Q535.0125 205.3859 534.1844 205.3859Q533.6844 205.3859 533.2625 205.62027Q532.85626 205.85464 532.6219 206.21402L531.6375 206.08902L532.46564 201.68277L536.7469 201.68277L536.7469 202.68277L533.3094 202.68277L532.85626 204.99527Q533.6219 204.4484 534.46564 204.4484Q535.59064 204.4484 536.35626 205.22964Q537.1375 206.0109 537.1375 207.24527Q537.1375 208.40152 536.46564 209.2609Q535.6375 210.29214 534.21564 210.29214Q533.04376 210.29214 532.29376 209.6359Q531.5594 208.97964 531.45 207.90152ZM538.45 207.8859L539.5125 207.74527Q539.6844 208.6359 540.1219 209.04214Q540.5594 209.43277 541.1844 209.43277Q541.9344 209.43277 542.45 208.91714Q542.96564 208.40152 542.96564 207.6359Q542.96564 206.91714 542.48126 206.4484Q542.0125 205.96402 541.27814 205.96402Q540.98126 205.96402 540.52814 206.08902L540.65314 205.15152Q540.7625 205.16714 540.825 205.16714Q541.4969 205.16714 542.02814 204.8234Q542.575 204.46402 542.575 203.72964Q542.575 203.15152 542.1844 202.77652Q541.79376 202.3859 541.16876 202.3859Q540.5594 202.3859 540.1375 202.77652Q539.73126 203.16714 539.6219 203.93277L538.5594 203.74527Q538.7469 202.6984 539.4344 202.12027Q540.1219 201.52652 541.1375 201.52652Q541.84064 201.52652 542.4344 201.83902Q543.02814 202.1359 543.34064 202.65152Q543.65314 203.16714 543.65314 203.7609Q543.65314 204.30777 543.35626 204.77652Q543.0594 205.22964 542.48126 205.49527Q543.23126 205.66714 543.65314 206.22964Q544.075 206.77652 544.075 207.62027Q544.075 208.74527 543.2469 209.52652Q542.4344 210.30777 541.1844 210.30777Q540.0594 210.30777 539.3094 209.6359Q538.5594 208.9484 538.45 207.8859ZM546.04376 210.15152L546.04376 208.9484L547.2469 208.9484L547.2469 210.15152L546.04376 210.15152ZM548.45 207.8859L549.5125 207.74527Q549.6844 208.6359 550.1219 209.04214Q550.5594 209.43277 551.1844 209.43277Q551.9344 209.43277 552.45 208.91714Q552.96564 208.40152 552.96564 207.6359Q552.96564 206.91714 552.48126 206.4484Q552.0125 205.96402 551.27814 205.96402Q550.98126 205.96402 550.52814 206.08902L550.65314 205.15152Q550.7625 205.16714 550.825 205.16714Q551.4969 205.16714 552.02814 204.8234Q552.575 204.46402 552.575 203.72964Q552.575 203.15152 552.1844 202.77652Q551.79376 202.3859 551.16876 202.3859Q550.5594 202.3859 550.1375 202.77652Q549.73126 203.16714 549.6219 203.93277L548.5594 203.74527Q548.7469 202.6984 549.4344 202.12027Q550.1219 201.52652 551.1375 201.52652Q551.84064 201.52652 552.4344 201.83902Q553.02814 202.1359 553.34064 202.65152Q553.65314 203.16714 553.65314 203.7609Q553.65314 204.30777 553.35626 204.77652Q553.0594 205.22964 552.48126 205.49527Q553.23126 205.66714 553.65314 206.22964Q554.075 206.77652 554.075 207.62027Q554.075 208.74527 553.2469 209.52652Q552.4344 210.30777 551.1844 210.30777Q550.0594 210.30777 549.3094 209.6359Q548.5594 208.9484 548.45 207.8859ZM555.65314 203.62027Q555.65314 202.6984 556.10626 202.05777Q556.575 201.41714 557.45 201.41714Q558.2625 201.41714 558.79376 201.99527Q559.325 202.5734 559.325 203.68277Q559.325 204.77652 558.77814 205.37027Q558.2469 205.9484 557.46564 205.9484Q556.6844 205.9484 556.16876 205.37027Q555.65314 204.79214 555.65314 203.62027ZM557.48126 202.1359Q557.09064 202.1359 556.825 202.47964Q556.575 202.8234 556.575 203.72964Q556.575 204.55777 556.825 204.90152Q557.09064 205.22964 557.48126 205.22964Q557.8875 205.22964 558.1375 204.8859Q558.40314 204.54214 558.40314 203.65152Q558.40314 202.80777 558.1375 202.47964Q557.8719 202.1359 557.48126 202.1359ZM557.48126 210.46402L562.1844 201.41714L563.04376 201.41714L558.35626 210.46402L557.48126 210.46402ZM561.2 208.1359Q561.2 207.21402 561.65314 206.5734Q562.1219 205.93277 563.0125 205.93277Q563.825 205.93277 564.35626 206.5109Q564.8875 207.0734 564.8875 208.1984Q564.8875 209.29214 564.34064 209.8859Q563.8094 210.46402 563.0125 210.46402Q562.2469 210.46402 561.71564 209.8859Q561.2 209.30777 561.2 208.1359ZM563.04376 206.65152Q562.6375 206.65152 562.3719 206.99527Q562.1219 207.33902 562.1219 208.24527Q562.1219 209.05777 562.3875 209.40152Q562.65314 209.74527 563.04376 209.74527Q563.4344 209.74527 563.7 209.40152Q563.96564 209.05777 563.96564 208.15152Q563.96564 207.3234 563.7 206.99527Q563.4344 206.65152 563.04376 206.65152Z" fill-rule="nonzero"/><path stroke="#757575" stroke-width="1.0" stroke-linecap="butt" d="M565.95 197.65152L442.43332 197.65152L428.47083 197.65152" fill-rule="nonzero"/><path fill="#9e9e9e" d="M430.47083 197.65152C430.47083 196.54695 429.5754 195.65152 428.47083 195.65152C427.36627 195.65152 426.47083 196.54695 426.47083 197.65152C426.47083 198.75609 427.36627 199.65152 428.47083 199.65152C429.5754 199.65152 430.47083 198.75609 430.47083 197.65152" fill-rule="nonzero"/><path fill="#757575" d="M19.596874 37.05L19.596874 22.7375L24.51875 22.7375Q26.190624 22.7375 27.08125 22.940624Q28.3 23.221874 29.175 23.95625Q30.3 24.925 30.8625 26.409374Q31.425 27.89375 31.425 29.815624Q31.425 31.440624 31.05 32.70625Q30.675 33.95625 30.065624 34.784374Q29.471874 35.6125 28.76875 36.096874Q28.065624 36.565624 27.065624 36.815624Q26.065624 37.05 24.753124 37.05L19.596874 37.05ZM21.4875 35.3625L24.55 35.3625Q25.95625 35.3625 26.753124 35.096874Q27.565624 34.83125 28.05 34.346874Q28.721874 33.675 29.096874 32.55Q29.471874 31.409374 29.471874 29.784374Q29.471874 27.534374 28.7375 26.33125Q28.003124 25.128124 26.940624 24.721874Q26.190624 24.425 24.503124 24.425L21.4875 24.425L21.4875 35.3625ZM32.721874 31.8625Q32.721874 28.9875 34.315624 27.596874Q35.659374 26.440624 37.58125 26.440624Q39.721874 26.440624 41.065624 27.846874Q42.425 29.253124 42.425 31.721874Q42.425 33.721874 41.83125 34.878124Q41.2375 36.01875 40.08125 36.659374Q38.940624 37.284374 37.58125 37.284374Q35.39375 37.284374 34.05 35.89375Q32.721874 34.4875 32.721874 31.8625ZM34.51875 31.8625Q34.51875 33.8625 35.378124 34.846874Q36.253124 35.83125 37.58125 35.83125Q38.89375 35.83125 39.753124 34.846874Q40.628124 33.846874 40.628124 31.8Q40.628124 29.878124 39.753124 28.89375Q38.878124 27.89375 37.58125 27.89375Q36.253124 27.89375 35.378124 28.89375Q34.51875 29.878124 34.51875 31.8625ZM50.284374 41.05L50.096874 39.39375Q50.675 39.55 51.096874 39.55Q51.690624 39.55 52.034374 39.346874Q52.39375 39.159374 52.6125 38.815624Q52.784374 38.55 53.159374 37.503124Q53.20625 37.346874 53.315624 37.065624L49.378124 26.675L51.26875 26.675L53.425 32.690624Q53.846874 33.83125 54.175 35.08125Q54.4875 33.878124 54.89375 32.721874L57.1125 26.675L58.878124 26.675L54.925 37.221874Q54.3 38.940624 53.940624 39.58125Q53.471874 40.45625 52.8625 40.846874Q52.26875 41.253124 51.425 41.253124Q50.909374 41.253124 50.284374 41.05ZM59.721874 31.8625Q59.721874 28.9875 61.315624 27.596874Q62.659374 26.440624 64.58125 26.440624Q66.72188 26.440624 68.06563 27.846874Q69.425 29.253124 69.425 31.721874Q69.425 33.721874 68.83125 34.878124Q68.2375 36.01875 67.08125 36.659374Q65.94063 37.284374 64.58125 37.284374Q62.39375 37.284374 61.05 35.89375Q59.721874 34.4875 59.721874 31.8625ZM61.51875 31.8625Q61.51875 33.8625 62.378124 34.846874Q63.253124 35.83125 64.58125 35.83125Q65.89375 35.83125 66.75313 34.846874Q67.62813 33.846874 67.62813 31.8Q67.62813 29.878124 66.75313 28.89375Q65.87813 27.89375 64.58125 27.89375Q63.253124 27.89375 62.378124 28.89375Q61.51875 29.878124 61.51875 31.8625ZM78.15938 37.05L78.15938 35.51875Q76.95625 37.284374 74.87813 37.284374Q73.95625 37.284374 73.15938 36.940624Q72.3625 36.58125 71.97188 36.05Q71.59688 35.51875 71.44063 34.7375Q71.33125 34.221874 71.33125 33.096874L71.33125 26.675L73.08125 26.675L73.08125 32.425Q73.08125 33.8 73.19063 34.284374Q73.3625 34.971874 73.89375 35.378124Q74.44063 35.76875 75.22188 35.76875Q76.01875 35.76875 76.70625 35.3625Q77.40938 34.95625 77.69063 34.26875Q77.9875 33.565624 77.9875 32.2375L77.9875 26.675L79.7375 26.675L79.7375 37.05L78.15938 37.05ZM95.15938 37.05L95.15938 35.51875Q93.95625 37.284374 91.87813 37.284374Q90.95625 37.284374 90.15938 36.940624Q89.3625 36.58125 88.97188 36.05Q88.59688 35.51875 88.44063 34.7375Q88.33125 34.221874 88.33125 33.096874L88.33125 26.675L90.08125 26.675L90.08125 32.425Q90.08125 33.8 90.19063 34.284374Q90.3625 34.971874 90.89375 35.378124Q91.44063 35.76875 92.22188 35.76875Q93.01875 35.76875 93.70625 35.3625Q94.40938 34.95625 94.69063 34.26875Q94.9875 33.565624 94.9875 32.2375L94.9875 26.675L96.7375 26.675L96.7375 37.05L95.15938 37.05ZM98.65938 33.95625L100.40938 33.675Q100.55 34.721874 101.22188 35.284374Q101.89375 35.83125 103.09688 35.83125Q104.3 35.83125 104.87813 35.346874Q105.47188 34.846874 105.47188 34.190624Q105.47188 33.596874 104.95625 33.253124Q104.59688 33.01875 103.15938 32.659374Q101.22188 32.159374 100.47188 31.815624Q99.7375 31.45625 99.34688 30.83125Q98.95625 30.190624 98.95625 29.425Q98.95625 28.7375 99.26875 28.14375Q99.59688 27.55 100.14375 27.159374Q100.55 26.8625 101.25313 26.659374Q101.97188 26.440624 102.78438 26.440624Q104.00313 26.440624 104.925 26.8Q105.84688 27.14375 106.28438 27.753124Q106.72188 28.346874 106.89375 29.346874L105.175 29.58125Q105.05 28.784374 104.4875 28.346874Q103.925 27.89375 102.90938 27.89375Q101.69063 27.89375 101.175 28.3Q100.65938 28.690624 100.65938 29.221874Q100.65938 29.565624 100.87813 29.846874Q101.08125 30.128124 101.55 30.315624Q101.81563 30.409374 103.09688 30.753124Q104.97188 31.253124 105.70625 31.58125Q106.44063 31.89375 106.8625 32.503124Q107.28438 33.096874 107.28438 34.003124Q107.28438 34.878124 106.76875 35.659374Q106.25313 36.440624 105.28438 36.8625Q104.31563 37.284374 103.09688 37.284374Q101.08125 37.284374 100.01875 36.440624Q98.95625 35.596874 98.65938 33.95625ZM116.47188 33.70625L118.28438 33.940624Q117.8625 35.51875 116.69063 36.409374Q115.53438 37.284374 113.72188 37.284374Q111.45625 37.284374 110.1125 35.89375Q108.78438 34.4875 108.78438 31.95625Q108.78438 29.33125 110.12813 27.89375Q111.47188 26.440624 113.62813 26.440624Q115.70625 26.440624 117.01875 27.8625Q118.34688 29.26875 118.34688 31.846874Q118.34688 32.003124 118.33125 32.315624L110.59688 32.315624Q110.69063 34.01875 111.56563 34.925Q112.44063 35.83125 113.7375 35.83125Q114.70625 35.83125 115.37813 35.33125Q116.06563 34.815624 116.47188 33.70625ZM110.69063 30.8625L116.4875 30.8625Q116.37813 29.565624 115.83125 28.909374Q114.9875 27.89375 113.64375 27.89375Q112.44063 27.89375 111.6125 28.70625Q110.78438 29.503124 110.69063 30.8625ZM126.62813 37.05L126.62813 22.7375L132.97188 22.7375Q134.87813 22.7375 135.87813 23.128124Q136.87813 23.503124 137.47188 24.4875Q138.06563 25.45625 138.06563 26.64375Q138.06563 28.159374 137.08125 29.20625Q136.09688 30.253124 134.03438 30.534374Q134.78438 30.89375 135.175 31.253124Q136.00313 32.003124 136.75313 33.159374L139.2375 37.05L136.8625 37.05L134.95625 34.065624Q134.12813 32.784374 133.59688 32.096874Q133.06563 31.409374 132.62813 31.14375Q132.20625 30.8625 131.76875 30.753124Q131.44063 30.690624 130.72188 30.690624L128.51875 30.690624L128.51875 37.05L126.62813 37.05ZM128.51875 29.05L132.59688 29.05Q133.89375 29.05 134.6125 28.784374Q135.34688 28.51875 135.72188 27.925Q136.1125 27.33125 136.1125 26.64375Q136.1125 25.628124 135.37813 24.971874Q134.64375 24.315624 133.05 24.315624L128.51875 24.315624L128.51875 29.05ZM147.15938 37.05L147.15938 35.51875Q145.95625 37.284374 143.87813 37.284374Q142.95625 37.284374 142.15938 36.940624Q141.3625 36.58125 140.97188 36.05Q140.59688 35.51875 140.44063 34.7375Q140.33125 34.221874 140.33125 33.096874L140.33125 26.675L142.08125 26.675L142.08125 32.425Q142.08125 33.8 142.19063 34.284374Q142.3625 34.971874 142.89375 35.378124Q143.44063 35.76875 144.22188 35.76875Q145.01875 35.76875 145.70625 35.3625Q146.40938 34.95625 146.69063 34.26875Q146.9875 33.565624 146.9875 32.2375L146.9875 26.675L148.7375 26.675L148.7375 37.05L147.15938 37.05ZM150.65938 33.95625L152.40938 33.675Q152.55 34.721874 153.22188 35.284374Q153.89375 35.83125 155.09688 35.83125Q156.3 35.83125 156.87813 35.346874Q157.47188 34.846874 157.47188 34.190624Q157.47188 33.596874 156.95625 33.253124Q156.59688 33.01875 155.15938 32.659374Q153.22188 32.159374 152.47188 31.815624Q151.7375 31.45625 151.34688 30.83125Q150.95625 30.190624 150.95625 29.425Q150.95625 28.7375 151.26875 28.14375Q151.59688 27.55 152.14375 27.159374Q152.55 26.8625 153.25313 26.659374Q153.97188 26.440624 154.78438 26.440624Q156.00313 26.440624 156.925 26.8Q157.84688 27.14375 158.28438 27.753124Q158.72188 28.346874 158.89375 29.346874L157.175 29.58125Q157.05 28.784374 156.4875 28.346874Q155.925 27.89375 154.90938 27.89375Q153.69063 27.89375 153.175 28.3Q152.65938 28.690624 152.65938 29.221874Q152.65938 29.565624 152.87813 29.846874Q153.08125 30.128124 153.55 30.315624Q153.81563 30.409374 155.09688 30.753124Q156.97188 31.253124 157.70625 31.58125Q158.44063 31.89375 158.8625 32.503124Q159.28438 33.096874 159.28438 34.003124Q159.28438 34.878124 158.76875 35.659374Q158.25313 36.440624 157.28438 36.8625Q156.31563 37.284374 155.09688 37.284374Q153.08125 37.284374 152.01875 36.440624Q150.95625 35.596874 150.65938 33.95625ZM165.20625 35.471874L165.45625 37.034374Q164.72188 37.190624 164.12813 37.190624Q163.175 37.190624 162.64375 36.89375Q162.12813 36.58125 161.90938 36.096874Q161.69063 35.596874 161.69063 34.01875L161.69063 28.05L160.40938 28.05L160.40938 26.675L161.69063 26.675L161.69063 24.1125L163.44063 23.05L163.44063 26.675L165.20625 26.675L165.20625 28.05L163.44063 28.05L163.44063 34.1125Q163.44063 34.8625 163.53438 35.08125Q163.62813 35.284374 163.83125 35.425Q164.05 35.55 164.44063 35.55Q164.72188 35.55 165.20625 35.471874ZM180.14375 35.76875Q179.15938 36.596874 178.25313 36.940624Q177.34688 37.284374 176.31563 37.284374Q174.6125 37.284374 173.69063 36.45625Q172.76875 35.6125 172.76875 34.315624Q172.76875 33.55 173.1125 32.925Q173.47188 32.3 174.03438 31.925Q174.59688 31.534374 175.3 31.33125Q175.81563 31.20625 176.8625 31.065624Q178.9875 30.815624 179.9875 30.471874Q180.00313 30.1125 180.00313 30.003124Q180.00313 28.940624 179.50313 28.4875Q178.83125 27.89375 177.50313 27.89375Q176.25313 27.89375 175.65938 28.33125Q175.08125 28.76875 174.8 29.878124L173.08125 29.64375Q173.31563 28.534374 173.84688 27.8625Q174.37813 27.175 175.39375 26.815624Q176.40938 26.440624 177.75313 26.440624Q179.08125 26.440624 179.90938 26.753124Q180.7375 27.065624 181.12813 27.55Q181.51875 28.01875 181.675 28.7375Q181.76875 29.190624 181.76875 30.3625L181.76875 32.70625Q181.76875 35.159374 181.87813 35.815624Q181.9875 36.45625 182.33125 37.05L180.4875 37.05Q180.22188 36.503124 180.14375 35.76875ZM179.9875 31.846874Q179.03438 32.2375 177.1125 32.503124Q176.03438 32.659374 175.58125 32.8625Q175.14375 33.05 174.89375 33.425Q174.64375 33.8 174.64375 34.26875Q174.64375 34.971874 175.175 35.440624Q175.70625 35.909374 176.7375 35.909374Q177.75313 35.909374 178.53438 35.471874Q179.33125 35.01875 179.70625 34.253124Q179.9875 33.64375 179.9875 32.4875L179.9875 31.846874ZM188.20625 35.471874L188.45625 37.034374Q187.72188 37.190624 187.12813 37.190624Q186.175 37.190624 185.64375 36.89375Q185.12813 36.58125 184.90938 36.096874Q184.69063 35.596874 184.69063 34.01875L184.69063 28.05L183.40938 28.05L183.40938 26.675L184.69063 26.675L184.69063 24.1125L186.44063 23.05L186.44063 26.675L188.20625 26.675L188.20625 28.05L186.44063 28.05L186.44063 34.1125Q186.44063 34.8625 186.53438 35.08125Q186.62813 35.284374 186.83125 35.425Q187.05 35.55 187.44063 35.55Q187.72188 35.55 188.20625 35.471874ZM198.28438 37.05L195.1125 26.675L196.925 26.675L198.58125 32.659374L199.19063 34.89375Q199.2375 34.721874 199.72188 32.753124L201.37813 26.675L203.19063 26.675L204.7375 32.690624L205.25313 34.675L205.84688 32.675L207.62813 26.675L209.33125 26.675L206.09688 37.05L204.26875 37.05L202.6125 30.83125L202.22188 29.065624L200.1125 37.05L198.28438 37.05ZM209.72188 31.8625Q209.72188 28.9875 211.31563 27.596874Q212.65938 26.440624 214.58125 26.440624Q216.72188 26.440624 218.06563 27.846874Q219.425 29.253124 219.425 31.721874Q219.425 33.721874 218.83125 34.878124Q218.2375 36.01875 217.08125 36.659374Q215.94063 37.284374 214.58125 37.284374Q212.39375 37.284374 211.05 35.89375Q209.72188 34.4875 209.72188 31.8625ZM211.51875 31.8625Q211.51875 33.8625 212.37813 34.846874Q213.25313 35.83125 214.58125 35.83125Q215.89375 35.83125 216.75313 34.846874Q217.62813 33.846874 217.62813 31.8Q217.62813 29.878124 216.75313 28.89375Q215.87813 27.89375 214.58125 27.89375Q213.25313 27.89375 212.37813 28.89375Q211.51875 29.878124 211.51875 31.8625ZM221.34688 37.05L221.34688 26.675L222.925 26.675L222.925 28.253124Q223.53438 27.14375 224.05 26.8Q224.56563 26.440624 225.175 26.440624Q226.06563 26.440624 226.9875 27.003124L226.37813 28.64375Q225.7375 28.253124 225.09688 28.253124Q224.51875 28.253124 224.05 28.6125Q223.59688 28.95625 223.39375 29.565624Q223.1125 30.503124 223.1125 31.6125L223.1125 37.05L221.34688 37.05ZM228.37813 37.05L228.37813 22.7375L230.14375 22.7375L230.14375 30.89375L234.3 26.675L236.56563 26.675L232.6125 30.51875L236.97188 37.05L234.8 37.05L231.37813 31.753124L230.14375 32.940624L230.14375 37.05L228.37813 37.05ZM241.65938 33.51875Q241.64375 33.175 241.64375 33.003124Q241.64375 31.95625 241.94063 31.20625Q242.15938 30.64375 242.64375 30.065624Q242.9875 29.64375 243.89375 28.846874Q244.81563 28.034374 245.08125 27.565624Q245.3625 27.08125 245.3625 26.51875Q245.3625 25.4875 244.55 24.721874Q243.75313 23.940624 242.59688 23.940624Q241.47188 23.940624 240.72188 24.64375Q239.97188 25.346874 239.7375 26.83125L237.925 26.6125Q238.175 24.6125 239.37813 23.55Q240.58125 22.4875 242.56563 22.4875Q244.675 22.4875 245.925 23.628124Q247.175 24.76875 247.175 26.39375Q247.175 27.33125 246.72188 28.128124Q246.28438 28.909374 245.00313 30.05Q244.14375 30.815624 243.87813 31.175Q243.62813 31.534374 243.4875 32.003124Q243.3625 32.471874 243.34688 33.51875L241.65938 33.51875ZM241.55 37.05L241.55 35.05L243.55 35.05L243.55 37.05L241.55 37.05Z" fill-rule="nonzero"/></svg>