<?xml version="1.0" encoding="UTF-8" standalone="no"?>
<!-- Created with Inkscape (http://www.inkscape.org/) -->

<svg
   xmlns:dc="http://purl.org/dc/elements/1.1/"
   xmlns:cc="http://creativecommons.org/ns#"
   xmlns:rdf="http://www.w3.org/1999/02/22-rdf-syntax-ns#"
   xmlns:svg="http://www.w3.org/2000/svg"
   xmlns="http://www.w3.org/2000/svg"
   xmlns:sodipodi="http://sodipodi.sourceforge.net/DTD/sodipodi-0.dtd"
   xmlns:inkscape="http://www.inkscape.org/namespaces/inkscape"
   id="svg2"
   version="1.1"
   inkscape:version="0.91 r13725"
   xml:space="preserve"
   width="17.436037cm"
   height="5.7968402cm"
   viewBox="0 0 617.81233 205.39985"
   sodipodi:docname="compiler-phases-cost.svg"><metadata
     id="metadata8"><rdf:RDF><cc:Work
         rdf:about=""><dc:format>image/svg+xml</dc:format><dc:type
           rdf:resource="http://purl.org/dc/dcmitype/StillImage" /><dc:title></dc:title></cc:Work></rdf:RDF></metadata><defs
     id="defs6"><clipPath
       clipPathUnits="userSpaceOnUse"
       id="clipPath38"><path
         d="m 50.88,339 493.56,0 0,163.68 -493.56,0 0,-163.68 z"
         id="path40"
         inkscape:connector-curvature="0"
         style="clip-rule:evenodd" /></clipPath><clipPath
       clipPathUnits="userSpaceOnUse"
       id="clipPath50"><path
         d="m 50.88,339 493.56,0 0,163.68 -493.56,0 0,-163.68 z"
         id="path52"
         inkscape:connector-curvature="0"
         style="clip-rule:evenodd" /></clipPath><clipPath
       clipPathUnits="userSpaceOnUse"
       id="clipPath58"><path
         d="m 50.88,339 493.56,0 0,163.68 -493.56,0 0,-163.68 z"
         id="path60"
         inkscape:connector-curvature="0"
         style="clip-rule:evenodd" /></clipPath><clipPath
       clipPathUnits="userSpaceOnUse"
       id="clipPath70"><path
         d="m 50.88,339 493.56,0 0,163.68 -493.56,0 0,-163.68 z"
         id="path72"
         inkscape:connector-curvature="0"
         style="clip-rule:evenodd" /></clipPath><clipPath
       clipPathUnits="userSpaceOnUse"
       id="clipPath78"><path
         d="m 50.88,339 493.56,0 0,163.68 -493.56,0 0,-163.68 z"
         id="path80"
         inkscape:connector-curvature="0"
         style="clip-rule:evenodd" /></clipPath><clipPath
       clipPathUnits="userSpaceOnUse"
       id="clipPath90"><path
         d="m 50.88,339 493.56,0 0,163.68 -493.56,0 0,-163.68 z"
         id="path92"
         inkscape:connector-curvature="0"
         style="clip-rule:evenodd" /></clipPath><clipPath
       clipPathUnits="userSpaceOnUse"
       id="clipPath98"><path
         d="m 85.8,339 95.88,0 0,26.16 -95.88,0 0,-26.16 z"
         id="path100"
         inkscape:connector-curvature="0"
         style="clip-rule:evenodd" /></clipPath><clipPath
       clipPathUnits="userSpaceOnUse"
       id="clipPath110"><path
         d="m 85.8,339 95.88,0 0,26.16 -95.88,0 0,-26.16 z"
         id="path112"
         inkscape:connector-curvature="0"
         style="clip-rule:evenodd" /></clipPath><clipPath
       clipPathUnits="userSpaceOnUse"
       id="clipPath122"><path
         d="m 85.8,339 95.88,0 0,26.16 -95.88,0 0,-26.16 z"
         id="path124"
         inkscape:connector-curvature="0"
         style="clip-rule:evenodd" /></clipPath><clipPath
       clipPathUnits="userSpaceOnUse"
       id="clipPath130"><path
         d="m 205.44,339 43.68,0 0,26.16 -43.68,0 0,-26.16 z"
         id="path132"
         inkscape:connector-curvature="0"
         style="clip-rule:evenodd" /></clipPath><clipPath
       clipPathUnits="userSpaceOnUse"
       id="clipPath142"><path
         d="m 205.44,339 43.68,0 0,26.16 -43.68,0 0,-26.16 z"
         id="path144"
         inkscape:connector-curvature="0"
         style="clip-rule:evenodd" /></clipPath><clipPath
       clipPathUnits="userSpaceOnUse"
       id="clipPath150"><path
         d="m 276.84,339 87.84,0 0,26.16 -87.84,0 0,-26.16 z"
         id="path152"
         inkscape:connector-curvature="0"
         style="clip-rule:evenodd" /></clipPath><clipPath
       clipPathUnits="userSpaceOnUse"
       id="clipPath162"><path
         d="m 276.84,339 87.84,0 0,26.16 -87.84,0 0,-26.16 z"
         id="path164"
         inkscape:connector-curvature="0"
         style="clip-rule:evenodd" /></clipPath><clipPath
       clipPathUnits="userSpaceOnUse"
       id="clipPath174"><path
         d="m 276.84,339 87.84,0 0,26.16 -87.84,0 0,-26.16 z"
         id="path176"
         inkscape:connector-curvature="0"
         style="clip-rule:evenodd" /></clipPath><clipPath
       clipPathUnits="userSpaceOnUse"
       id="clipPath182"><path
         d="m 394.92,339 38.76,0 0,26.16 -38.76,0 0,-26.16 z"
         id="path184"
         inkscape:connector-curvature="0"
         style="clip-rule:evenodd" /></clipPath><clipPath
       clipPathUnits="userSpaceOnUse"
       id="clipPath194"><path
         d="m 394.92,339 38.76,0 0,26.16 -38.76,0 0,-26.16 z"
         id="path196"
         inkscape:connector-curvature="0"
         style="clip-rule:evenodd" /></clipPath><clipPath
       clipPathUnits="userSpaceOnUse"
       id="clipPath204"><path
         d="m 475.92,339 38.64,0 0,117.12 -38.64,0 0,-117.12 z"
         id="path206"
         inkscape:connector-curvature="0"
         style="clip-rule:evenodd" /></clipPath><clipPath
       clipPathUnits="userSpaceOnUse"
       id="clipPath216"><path
         d="m 475.92,339 38.64,0 0,117.12 -38.64,0 0,-117.12 z"
         id="path218"
         inkscape:connector-curvature="0"
         style="clip-rule:evenodd" /></clipPath><clipPath
       clipPathUnits="userSpaceOnUse"
       id="clipPath226"><path
         d="m 475.92,339 65.04,0 0,102.12 -65.04,0 0,-102.12 z"
         id="path228"
         inkscape:connector-curvature="0"
         style="clip-rule:evenodd" /></clipPath><clipPath
       clipPathUnits="userSpaceOnUse"
       id="clipPath238"><path
         d="m 475.92,339 65.04,0 0,102.12 -65.04,0 0,-102.12 z"
         id="path240"
         inkscape:connector-curvature="0"
         style="clip-rule:evenodd" /></clipPath><clipPath
       clipPathUnits="userSpaceOnUse"
       id="clipPath250"><path
         d="m 475.92,339 65.04,0 0,102.12 -65.04,0 0,-102.12 z"
         id="path252"
         inkscape:connector-curvature="0"
         style="clip-rule:evenodd" /></clipPath><clipPath
       clipPathUnits="userSpaceOnUse"
       id="clipPath262"><path
         d="m 475.92,339 65.04,0 0,102.12 -65.04,0 0,-102.12 z"
         id="path264"
         inkscape:connector-curvature="0"
         style="clip-rule:evenodd" /></clipPath><clipPath
       clipPathUnits="userSpaceOnUse"
       id="clipPath272"><path
         d="m 475.92,339 32.64,0 0,87.12 -32.64,0 0,-87.12 z"
         id="path274"
         inkscape:connector-curvature="0"
         style="clip-rule:evenodd" /></clipPath><clipPath
       clipPathUnits="userSpaceOnUse"
       id="clipPath284"><path
         d="m 475.92,339 32.64,0 0,87.12 -32.64,0 0,-87.12 z"
         id="path286"
         inkscape:connector-curvature="0"
         style="clip-rule:evenodd" /></clipPath><clipPath
       clipPathUnits="userSpaceOnUse"
       id="clipPath294"><path
         d="m 475.92,339 22.2,0 0,72.12 -22.2,0 0,-72.12 z"
         id="path296"
         inkscape:connector-curvature="0"
         style="clip-rule:evenodd" /></clipPath><clipPath
       clipPathUnits="userSpaceOnUse"
       id="clipPath306"><path
         d="m 475.92,339 22.2,0 0,72.12 -22.2,0 0,-72.12 z"
         id="path308"
         inkscape:connector-curvature="0"
         style="clip-rule:evenodd" /></clipPath><clipPath
       clipPathUnits="userSpaceOnUse"
       id="clipPath316"><path
         d="m 475.92,339 27.72,0 0,57 -27.72,0 0,-57 z"
         id="path318"
         inkscape:connector-curvature="0"
         style="clip-rule:evenodd" /></clipPath><clipPath
       clipPathUnits="userSpaceOnUse"
       id="clipPath328"><path
         d="m 475.92,339 27.72,0 0,57 -27.72,0 0,-57 z"
         id="path330"
         inkscape:connector-curvature="0"
         style="clip-rule:evenodd" /></clipPath></defs><sodipodi:namedview
     pagecolor="#ffffff"
     bordercolor="#666666"
     borderopacity="1"
     objecttolerance="10"
     gridtolerance="10"
     guidetolerance="10"
     inkscape:pageopacity="0"
     inkscape:pageshadow="2"
     inkscape:window-width="683"
     inkscape:window-height="480"
     id="namedview4"
     showgrid="false"
     units="cm"
     fit-margin-top="0"
     fit-margin-left="0"
     fit-margin-bottom="0"
     fit-margin-right="0"
     inkscape:zoom="0.22431328"
     inkscape:cx="-1090.9755"
     inkscape:cy="102.7124"
     inkscape:window-x="0"
     inkscape:window-y="25"
     inkscape:window-maximized="0"
     inkscape:current-layer="g10" /><g
     id="g10"
     inkscape:groupmode="layer"
     inkscape:label="compiler-phases-cost"
     transform="matrix(1.25,0,0,-1.25,-63.147575,628.73743)"><path
       d="m 50.88,338.88 493.68,0 0,163.8 -493.68,0 0,-163.8 z"
       style="fill:#ffffff;fill-opacity:1;fill-rule:evenodd;stroke:none"
       id="path12"
       inkscape:connector-curvature="0" /><path
       d="m 87,370.44 374.16,0 0,122.76 -374.16,0 0,-122.76 z"
       style="fill:#ffffff;fill-opacity:1;fill-rule:evenodd;stroke:none"
       id="path14"
       inkscape:connector-curvature="0" /><path
       d="m 97.8,371.76 14.4,0 0,-1.2 -14.4,0 0,1.2 z m 93.48,13.2 14.4,0 0,-14.4 -14.4,0 0,14.4 z m 93.48,90.6 14.4,0 0,-105 -14.4,0 0,105 z m 93.6,-104.16 14.4,0 0,-0.84 -14.4,0 0,0.84 z"
       style="fill:#4f81bd;fill-opacity:1;fill-rule:nonzero;stroke:none"
       id="path16"
       inkscape:connector-curvature="0" /><path
       d="m 112.2,371.4 14.4,0 0,-0.84 -14.4,0 0,0.84 z m 93.48,16.92 14.4,0 0,-17.76 -14.4,0 0,17.76 z m 93.48,84.96 14.4,0 0,-102.72 -14.4,0 0,102.72 z m 93.6,-102.12 14.4,0 0,-0.6 -14.4,0 0,0.6 z"
       style="fill:#c0504d;fill-opacity:1;fill-rule:nonzero;stroke:none"
       id="path18"
       inkscape:connector-curvature="0" /><path
       d="m 126.6,371.64 14.4,0 0,-1.08 -14.4,0 0,1.08 z m 93.48,10.8 14.4,0 0,-11.88 -14.4,0 0,11.88 z m 93.48,96.36 14.4,0 0,-108.24 -14.4,0 0,108.24 z m 93.6,-107.52 14.28,0 0,-0.72 -14.28,0 0,0.72 z"
       style="fill:#9bbb59;fill-opacity:1;fill-rule:nonzero;stroke:none"
       id="path20"
       inkscape:connector-curvature="0" /><path
       d="m 141,375.84 14.28,0 0,-5.28 -14.28,0 0,5.28 z m 93.48,32.16 14.4,0 0,-37.44 -14.4,0 0,37.44 z m 93.48,39.12 14.4,0 0,-76.56 -14.4,0 0,76.56 z m 93.48,-74.16 14.4,0 0,-2.4 -14.4,0 0,2.4 z"
       style="fill:#8064a2;fill-opacity:1;fill-rule:nonzero;stroke:none"
       id="path22"
       inkscape:connector-curvature="0" /><path
       d="m 155.28,376.92 14.4,0 0,-6.36 -14.4,0 0,6.36 z m 93.6,66.6 14.4,0 0,-72.96 -14.4,0 0,72.96 z m 93.48,-30.48 14.4,0 0,-42.48 -14.4,0 0,42.48 z m 93.48,-42.24 14.4,0 0,-0.24 -14.4,0 0,0.24 z"
       style="fill:#4bacc6;fill-opacity:1;fill-rule:nonzero;stroke:none"
       id="path24"
       inkscape:connector-curvature="0" /><path
       d="m 87.06,370.5 0,122.76"
       style="fill:none;stroke:#868686;stroke-width:0.60000002;stroke-linecap:butt;stroke-linejoin:round;stroke-miterlimit:10;stroke-dasharray:none;stroke-opacity:1"
       id="path26"
       inkscape:connector-curvature="0" /><path
       d="m 84.3,370.5 2.76,0 m -2.76,61.44 2.76,0 m -2.76,61.32 2.76,0"
       style="fill:none;stroke:#868686;stroke-width:0.60000002;stroke-linecap:butt;stroke-linejoin:round;stroke-miterlimit:10;stroke-dasharray:none;stroke-opacity:1"
       id="path28"
       inkscape:connector-curvature="0" /><path
       d="m 87.06,370.5 374.04,0"
       style="fill:none;stroke:#868686;stroke-width:0.60000002;stroke-linecap:butt;stroke-linejoin:round;stroke-miterlimit:10;stroke-dasharray:none;stroke-opacity:1"
       id="path30"
       inkscape:connector-curvature="0" /><path
       d="m 87.06,370.5 0,-2.64 m 93.48,2.64 0,-2.64 m 93.48,2.64 0,-2.64 m 93.48,2.64 0,-2.64 m 93.6,2.64 0,-2.64"
       style="fill:none;stroke:#868686;stroke-width:0.60000002;stroke-linecap:butt;stroke-linejoin:round;stroke-miterlimit:10;stroke-dasharray:none;stroke-opacity:1"
       id="path32"
       inkscape:connector-curvature="0" /><g
       id="g34"><g
         id="g36"
         clip-path="url(#clipPath38)"><text
           transform="matrix(1,0,0,-1,66.312,367.49)"
           style="font-variant:normal;font-weight:normal;font-size:9.02400017px;font-family:Arial;-inkscape-font-specification:Arial;writing-mode:lr-tb;fill:#000000;fill-opacity:1;fill-rule:nonzero;stroke:none"
           id="text42"><tspan
             x="0 5.0160041"
             y="0"
             sodipodi:role="line"
             id="tspan44">0%</tspan></text>
</g></g><g
       id="g46"><g
         id="g48"
         clip-path="url(#clipPath50)" /></g><g
       id="g54"><g
         id="g56"
         clip-path="url(#clipPath58)"><text
           transform="matrix(1,0,0,-1,61.272,428.83)"
           style="font-variant:normal;font-weight:normal;font-size:9px;font-family:Arial;-inkscape-font-specification:Arial;writing-mode:lr-tb;fill:#000000;fill-opacity:1;fill-rule:nonzero;stroke:none"
           id="text62"><tspan
             x="0 5.0159998 10.032"
             y="0"
             sodipodi:role="line"
             id="tspan64">50%</tspan></text>
</g></g><g
       id="g66"><g
         id="g68"
         clip-path="url(#clipPath70)" /></g><g
       id="g74"><g
         id="g76"
         clip-path="url(#clipPath78)"><text
           transform="matrix(1,0,0,-1,56.304,490.2)"
           style="font-variant:normal;font-weight:normal;font-size:9.02400017px;font-family:Arial;-inkscape-font-specification:Arial;writing-mode:lr-tb;fill:#000000;fill-opacity:1;fill-rule:nonzero;stroke:none"
           id="text82"><tspan
             x="0 5.0160041 10.032008 15.048012"
             y="0"
             sodipodi:role="line"
             id="tspan84">100%</tspan></text>
</g></g><g
       id="g86"><g
         id="g88"
         clip-path="url(#clipPath90)" /></g><g
       id="g94"><g
         id="g96"
         clip-path="url(#clipPath98)"><text
           transform="matrix(1,0,0,-1,96.12,356.66)"
           style="font-variant:normal;font-weight:normal;font-size:9.02400017px;font-family:Arial;-inkscape-font-specification:Arial;writing-mode:lr-tb;fill:#000000;fill-opacity:1;fill-rule:nonzero;stroke:none"
           id="text102"><tspan
             x="0 6.0190082 11.036352 13.996224 18.508224 20.511553 25.528896 30.54624 32.693951 37.711296 42.728642 47.745983 50.092224 57.555073 62.572414 67.084419 70.008194 75.025536"
             y="0"
             sodipodi:role="line"
             id="tspan104">Parsing and Macro </tspan></text>
</g></g><g
       id="g106"><g
         id="g108"
         clip-path="url(#clipPath110)"><text
           transform="matrix(1,0,0,-1,112.61,346.32)"
           style="font-variant:normal;font-weight:normal;font-size:9.02400017px;font-family:Arial;-inkscape-font-specification:Arial;writing-mode:lr-tb;fill:#000000;fill-opacity:1;fill-rule:nonzero;stroke:none"
           id="text114"><tspan
             x="0 6.0190082 10.531008 15.548352 20.565697 25.58304 30.049919 32.080318 37.097664"
             y="0"
             sodipodi:role="line"
             id="tspan116">Expansion</tspan></text>
</g></g><g
       id="g118"><g
         id="g120"
         clip-path="url(#clipPath122)" /></g><g
       id="g126"><g
         id="g128"
         clip-path="url(#clipPath130)"><text
           transform="matrix(1,0,0,-1,210.46,356.66)"
           style="font-variant:normal;font-weight:normal;font-size:9.02400017px;font-family:Arial;-inkscape-font-specification:Arial;writing-mode:lr-tb;fill:#000000;fill-opacity:1;fill-rule:nonzero;stroke:none"
           id="text134"><tspan
             x="0 6.037056 11.0544 16.071745 18.102144 22.496832 27.008833 29.039232"
             y="0"
             sodipodi:role="line"
             id="tspan136">Analysis</tspan></text>
</g></g><g
       id="g138"><g
         id="g140"
         clip-path="url(#clipPath142)" /></g><g
       id="g146"><g
         id="g148"
         clip-path="url(#clipPath150)"><text
           transform="matrix(1,0,0,-1,287.18,356.66)"
           style="font-variant:normal;font-weight:normal;font-size:9.02400017px;font-family:Arial;-inkscape-font-specification:Arial;writing-mode:lr-tb;fill:#000000;fill-opacity:1;fill-rule:nonzero;stroke:none"
           id="text154"><tspan
             x="0 6.9575038 11.974848 14.420352 16.450752 24.021889 26.052288 30.465025 35.482368 37.927872 39.958271 44.975616 49.992962 52.149696 57.167042 62.184383 67.201729"
             y="0"
             sodipodi:role="line"
             id="tspan156">Optimization and </tspan></text>
</g></g><g
       id="g158"><g
         id="g160"
         clip-path="url(#clipPath162)"><text
           transform="matrix(1,0,0,-1,302.45,346.32)"
           style="font-variant:normal;font-weight:normal;font-size:9.02400017px;font-family:Arial;-inkscape-font-specification:Arial;writing-mode:lr-tb;fill:#000000;fill-opacity:1;fill-rule:nonzero;stroke:none"
           id="text166"><tspan
             x="0 6.5423999 11.559744 16.577087 21.594433 26.611776 31.62912"
             y="0"
             sodipodi:role="line"
             id="tspan168">Codegen</tspan></text>
</g></g><g
       id="g170"><g
         id="g172"
         clip-path="url(#clipPath174)" /></g><g
       id="g178"><g
         id="g180"
         clip-path="url(#clipPath182)"><text
           transform="matrix(1,0,0,-1,399.98,356.66)"
           style="font-variant:normal;font-weight:normal;font-size:9.02400017px;font-family:Arial;-inkscape-font-specification:Arial;writing-mode:lr-tb;fill:#000000;fill-opacity:1;fill-rule:nonzero;stroke:none"
           id="text186"><tspan
             x="0 5.017344 7.0748162 12.09216 16.685375 18.742847 23.760193"
             y="0"
             sodipodi:role="line"
             id="tspan188">Linking</tspan></text>
</g></g><g
       id="g190"><g
         id="g192"
         clip-path="url(#clipPath194)" /></g><path
       d="m 474.6,448.56 4.68,0 0,4.56 -4.68,0 0,-4.56 z"
       style="fill:#4f81bd;fill-opacity:1;fill-rule:evenodd;stroke:none"
       id="path198"
       inkscape:connector-curvature="0" /><g
       id="g200"><g
         id="g202"
         clip-path="url(#clipPath204)"><text
           transform="matrix(1,0,0,-1,481.15,447.67)"
           style="font-variant:normal;font-weight:normal;font-size:9px;font-family:Arial;-inkscape-font-specification:Arial;writing-mode:lr-tb;fill:#000000;fill-opacity:1;fill-rule:nonzero;stroke:none"
           id="text208"><tspan
             x="0 2.0339999 4.0679998 9.0719995 12.033 17.037001 21.537001 23.985001"
             y="0"
             sodipodi:role="line"
             id="tspan210">librustc</tspan></text>
</g></g><g
       id="g212"><g
         id="g214"
         clip-path="url(#clipPath216)" /></g><path
       d="m 474.6,433.44 4.68,0 0,4.68 -4.68,0 0,-4.68 z"
       style="fill:#c0504d;fill-opacity:1;fill-rule:evenodd;stroke:none"
       id="path220"
       inkscape:connector-curvature="0" /><g
       id="g222"><g
         id="g224"
         clip-path="url(#clipPath226)"><text
           transform="matrix(1,0,0,-1,481.15,432.65)"
           style="font-variant:normal;font-weight:normal;font-size:9px;font-family:Arial;-inkscape-font-specification:Arial;writing-mode:lr-tb;fill:#000000;fill-opacity:1;fill-rule:nonzero;stroke:none"
           id="text230"><tspan
             x="0 4.5 8.8830004 13.887 16.344 21.348"
             y="0"
             sodipodi:role="line"
             id="tspan232">syntex</tspan></text>
</g></g><g
       id="g234"><g
         id="g236"
         clip-path="url(#clipPath238)"><text
           transform="matrix(1,0,0,-1,507.05,432.65)"
           style="font-variant:normal;font-weight:normal;font-size:9px;font-family:Arial;-inkscape-font-specification:Arial;writing-mode:lr-tb;fill:#000000;fill-opacity:1;fill-rule:nonzero;stroke:none"
           id="text242"><tspan
             x="0"
             y="0"
             id="tspan244">-</tspan></text>
</g></g><g
       id="g246"><g
         id="g248"
         clip-path="url(#clipPath250)"><text
           transform="matrix(1,0,0,-1,510.02,432.65)"
           style="font-variant:normal;font-weight:normal;font-size:9px;font-family:Arial;-inkscape-font-specification:Arial;writing-mode:lr-tb;fill:#000000;fill-opacity:1;fill-rule:nonzero;stroke:none"
           id="text254"><tspan
             x="0 4.5 8.8830004 13.887 16.344 21.348"
             y="0"
             sodipodi:role="line"
             id="tspan256">syntax</tspan></text>
</g></g><g
       id="g258"><g
         id="g260"
         clip-path="url(#clipPath262)" /></g><path
       d="m 474.6,418.44 4.68,0 0,4.68 -4.68,0 0,-4.68 z"
       style="fill:#9bbb59;fill-opacity:1;fill-rule:evenodd;stroke:none"
       id="path266"
       inkscape:connector-curvature="0" /><g
       id="g268"><g
         id="g270"
         clip-path="url(#clipPath272)"><text
           transform="matrix(1,0,0,-1,481.15,417.62)"
           style="font-variant:normal;font-weight:normal;font-size:9.02400017px;font-family:Arial;-inkscape-font-specification:Arial;writing-mode:lr-tb;fill:#000000;fill-opacity:1;fill-rule:nonzero;stroke:none"
           id="text276"><tspan
             x="0 2.9508481 7.9681921 12.985536 18.00288"
             y="0"
             sodipodi:role="line"
             id="tspan278">regex</tspan></text>
</g></g><g
       id="g280"><g
         id="g282"
         clip-path="url(#clipPath284)" /></g><path
       d="m 474.6,403.44 4.68,0 0,4.56 -4.68,0 0,-4.56 z"
       style="fill:#8064a2;fill-opacity:1;fill-rule:evenodd;stroke:none"
       id="path288"
       inkscape:connector-curvature="0" /><g
       id="g290"><g
         id="g292"
         clip-path="url(#clipPath294)"><text
           transform="matrix(1,0,0,-1,481.15,402.6)"
           style="font-variant:normal;font-weight:normal;font-size:9.02400017px;font-family:Arial;-inkscape-font-specification:Arial;writing-mode:lr-tb;fill:#000000;fill-opacity:1;fill-rule:nonzero;stroke:none"
           id="text298"><tspan
             x="0 4.5120001 6.939456"
             y="0"
             sodipodi:role="line"
             id="tspan300">std</tspan></text>
</g></g><g
       id="g302"><g
         id="g304"
         clip-path="url(#clipPath306)" /></g><path
       d="m 474.6,388.44 4.68,0 0,4.56 -4.68,0 0,-4.56 z"
       style="fill:#4bacc6;fill-opacity:1;fill-rule:evenodd;stroke:none"
       id="path310"
       inkscape:connector-curvature="0" /><g
       id="g312"><g
         id="g314"
         clip-path="url(#clipPath316)"><text
           transform="matrix(1,0,0,-1,481.15,387.58)"
           style="font-variant:normal;font-weight:normal;font-size:9px;font-family:Arial;-inkscape-font-specification:Arial;writing-mode:lr-tb;fill:#000000;fill-opacity:1;fill-rule:nonzero;stroke:none"
           id="text320"><tspan
             x="0 4.5 9.5039997 12.456"
             y="0"
             sodipodi:role="line"
             id="tspan322">core</tspan></text>
</g></g><g
       id="g324"><g
         id="g326"
         clip-path="url(#clipPath328)" /></g><path
       d="m 50.838,338.99 493.61,0 0,163.68 -493.61,0 0,-163.68 z"
       style="fill:none;stroke:#868686;stroke-width:0.63988;stroke-linecap:butt;stroke-linejoin:round;stroke-miterlimit:10;stroke-dasharray:none;stroke-opacity:1"
       id="path332"
       inkscape:connector-curvature="0" /></g></svg>