<?xml version="1.0" encoding="UTF-8" standalone="no"?>
<!-- Created with Inkscape (http://www.inkscape.org/) -->

<svg
   xmlns:dc="http://purl.org/dc/elements/1.1/"
   xmlns:cc="http://creativecommons.org/ns#"
   xmlns:rdf="http://www.w3.org/1999/02/22-rdf-syntax-ns#"
   xmlns:svg="http://www.w3.org/2000/svg"
   xmlns="http://www.w3.org/2000/svg"
   xmlns:sodipodi="http://sodipodi.sourceforge.net/DTD/sodipodi-0.dtd"
   xmlns:inkscape="http://www.inkscape.org/namespaces/inkscape"
   id="svg2"
   version="1.1"
   inkscape:version="0.91 r13725"
   xml:space="preserve"
   width="19.433544cm"
   height="5.8088112cm"
   viewBox="0 0 688.59014 205.82402"
   sodipodi:docname="perf-full-re-use.svg"><metadata
     id="metadata8"><rdf:RDF><cc:Work
         rdf:about=""><dc:format>image/svg+xml</dc:format><dc:type
           rdf:resource="http://purl.org/dc/dcmitype/StillImage" /><dc:title></dc:title></cc:Work></rdf:RDF></metadata><defs
     id="defs6"><clipPath
       clipPathUnits="userSpaceOnUse"
       id="clipPath34"><path
         d="m 50.88,338.76 493.56,0 0,164.04 -493.56,0 0,-164.04 z"
         id="path36"
         inkscape:connector-curvature="0"
         style="clip-rule:evenodd" /></clipPath><clipPath
       clipPathUnits="userSpaceOnUse"
       id="clipPath46"><path
         d="m 50.88,338.76 493.56,0 0,164.04 -493.56,0 0,-164.04 z"
         id="path48"
         inkscape:connector-curvature="0"
         style="clip-rule:evenodd" /></clipPath><clipPath
       clipPathUnits="userSpaceOnUse"
       id="clipPath54"><path
         d="m 50.88,338.76 493.56,0 0,164.04 -493.56,0 0,-164.04 z"
         id="path56"
         inkscape:connector-curvature="0"
         style="clip-rule:evenodd" /></clipPath><clipPath
       clipPathUnits="userSpaceOnUse"
       id="clipPath66"><path
         d="m 50.88,338.76 493.56,0 0,164.04 -493.56,0 0,-164.04 z"
         id="path68"
         inkscape:connector-curvature="0"
         style="clip-rule:evenodd" /></clipPath><clipPath
       clipPathUnits="userSpaceOnUse"
       id="clipPath74"><path
         d="m 50.88,338.76 493.56,0 0,164.04 -493.56,0 0,-164.04 z"
         id="path76"
         inkscape:connector-curvature="0"
         style="clip-rule:evenodd" /></clipPath><clipPath
       clipPathUnits="userSpaceOnUse"
       id="clipPath86"><path
         d="m 50.88,338.76 493.56,0 0,164.04 -493.56,0 0,-164.04 z"
         id="path88"
         inkscape:connector-curvature="0"
         style="clip-rule:evenodd" /></clipPath><clipPath
       clipPathUnits="userSpaceOnUse"
       id="clipPath94"><path
         d="m 98.64,338.76 61.92,0 0,15.36 -61.92,0 0,-15.36 z"
         id="path96"
         inkscape:connector-curvature="0"
         style="clip-rule:evenodd" /></clipPath><clipPath
       clipPathUnits="userSpaceOnUse"
       id="clipPath106"><path
         d="m 98.64,338.76 61.92,0 0,15.36 -61.92,0 0,-15.36 z"
         id="path108"
         inkscape:connector-curvature="0"
         style="clip-rule:evenodd" /></clipPath><clipPath
       clipPathUnits="userSpaceOnUse"
       id="clipPath118"><path
         d="m 98.64,338.76 61.92,0 0,15.36 -61.92,0 0,-15.36 z"
         id="path120"
         inkscape:connector-curvature="0"
         style="clip-rule:evenodd" /></clipPath><clipPath
       clipPathUnits="userSpaceOnUse"
       id="clipPath130"><path
         d="m 98.64,338.76 61.92,0 0,15.36 -61.92,0 0,-15.36 z"
         id="path132"
         inkscape:connector-curvature="0"
         style="clip-rule:evenodd" /></clipPath><clipPath
       clipPathUnits="userSpaceOnUse"
       id="clipPath138"><path
         d="m 202.08,338.76 31.08,0 0,15.36 -31.08,0 0,-15.36 z"
         id="path140"
         inkscape:connector-curvature="0"
         style="clip-rule:evenodd" /></clipPath><clipPath
       clipPathUnits="userSpaceOnUse"
       id="clipPath150"><path
         d="m 202.08,338.76 31.08,0 0,15.36 -31.08,0 0,-15.36 z"
         id="path152"
         inkscape:connector-curvature="0"
         style="clip-rule:evenodd" /></clipPath><clipPath
       clipPathUnits="userSpaceOnUse"
       id="clipPath158"><path
         d="m 287.76,338.76 35.76,0 0,15.36 -35.76,0 0,-15.36 z"
         id="path160"
         inkscape:connector-curvature="0"
         style="clip-rule:evenodd" /></clipPath><clipPath
       clipPathUnits="userSpaceOnUse"
       id="clipPath170"><path
         d="m 287.76,338.76 35.76,0 0,15.36 -35.76,0 0,-15.36 z"
         id="path172"
         inkscape:connector-curvature="0"
         style="clip-rule:evenodd" /></clipPath><clipPath
       clipPathUnits="userSpaceOnUse"
       id="clipPath178"><path
         d="m 364.8,338.76 57.72,0 0,15.36 -57.72,0 0,-15.36 z"
         id="path180"
         inkscape:connector-curvature="0"
         style="clip-rule:evenodd" /></clipPath><clipPath
       clipPathUnits="userSpaceOnUse"
       id="clipPath190"><path
         d="m 364.8,338.76 57.72,0 0,15.36 -57.72,0 0,-15.36 z"
         id="path192"
         inkscape:connector-curvature="0"
         style="clip-rule:evenodd" /></clipPath><clipPath
       clipPathUnits="userSpaceOnUse"
       id="clipPath200"><path
         d="m 452.28,338.76 39.72,0 0,101.52 -39.72,0 0,-101.52 z"
         id="path202"
         inkscape:connector-curvature="0"
         style="clip-rule:evenodd" /></clipPath><clipPath
       clipPathUnits="userSpaceOnUse"
       id="clipPath212"><path
         d="m 452.28,338.76 39.72,0 0,101.52 -39.72,0 0,-101.52 z"
         id="path214"
         inkscape:connector-curvature="0"
         style="clip-rule:evenodd" /></clipPath><clipPath
       clipPathUnits="userSpaceOnUse"
       id="clipPath222"><path
         d="m 452.28,338.76 81.84,0 0,87 -81.84,0 0,-87 z"
         id="path224"
         inkscape:connector-curvature="0"
         style="clip-rule:evenodd" /></clipPath><clipPath
       clipPathUnits="userSpaceOnUse"
       id="clipPath234"><path
         d="m 452.28,338.76 81.84,0 0,87 -81.84,0 0,-87 z"
         id="path236"
         inkscape:connector-curvature="0"
         style="clip-rule:evenodd" /></clipPath><clipPath
       clipPathUnits="userSpaceOnUse"
       id="clipPath244"><path
         d="m 452.28,338.76 88.44,0 0,72.48 -88.44,0 0,-72.48 z"
         id="path246"
         inkscape:connector-curvature="0"
         style="clip-rule:evenodd" /></clipPath><clipPath
       clipPathUnits="userSpaceOnUse"
       id="clipPath256"><path
         d="m 452.28,338.76 88.44,0 0,72.48 -88.44,0 0,-72.48 z"
         id="path258"
         inkscape:connector-curvature="0"
         style="clip-rule:evenodd" /></clipPath></defs><sodipodi:namedview
     pagecolor="#ffffff"
     bordercolor="#666666"
     borderopacity="1"
     objecttolerance="10"
     gridtolerance="10"
     guidetolerance="10"
     inkscape:pageopacity="0"
     inkscape:pageshadow="2"
     inkscape:window-width="1920"
     inkscape:window-height="909"
     id="namedview4"
     showgrid="false"
     units="cm"
     fit-margin-top="0"
     fit-margin-right="1"
     fit-margin-bottom="0"
     fit-margin-left="1"
     inkscape:zoom="0.22431328"
     inkscape:cx="-337.92044"
     inkscape:cy="94.108399"
     inkscape:window-x="0"
     inkscape:window-y="25"
     inkscape:window-maximized="1"
     inkscape:current-layer="g10" /><g
     id="g10"
     inkscape:groupmode="layer"
     inkscape:label="perf-full-re-use"
     transform="matrix(1.25,0,0,-1.25,-27.838667,628.84951)"><path
       d="m 50.88,338.64 493.68,0 0,164.16 -493.68,0 0,-164.16 z"
       style="fill:#ffffff;fill-opacity:1;fill-rule:evenodd;stroke:none"
       id="path12"
       inkscape:connector-curvature="0" /><path
       d="m 85.56,359.16 352.2,0 0,134.28 -352.2,0 0,-134.28 z"
       style="fill:#ffffff;fill-opacity:1;fill-rule:evenodd;stroke:none"
       id="path14"
       inkscape:connector-curvature="0" /><path
       d="m 100.32,471 19.56,0 0,-111.72 -19.56,0 0,111.72 z m 87.96,0 19.56,0 0,-111.72 -19.56,0 0,111.72 z m 88.08,0 19.56,0 0,-111.72 -19.56,0 0,111.72 z m 87.96,0 19.56,0 0,-111.72 -19.56,0 0,111.72 z"
       style="fill:#9bbb59;fill-opacity:1;fill-rule:nonzero;stroke:none"
       id="path16"
       inkscape:connector-curvature="0" /><path
       d="m 119.88,479.28 19.56,0 0,-120 -19.56,0 0,120 z m 87.96,-32.52 19.56,0 0,-87.48 -19.56,0 0,87.48 z m 88.08,31.68 19.56,0 0,-119.16 -19.56,0 0,119.16 z m 87.96,-14.16 19.56,0 0,-105 -19.56,0 0,105 z"
       style="fill:#4f81bd;fill-opacity:1;fill-rule:nonzero;stroke:none"
       id="path18"
       inkscape:connector-curvature="0" /><path
       d="m 139.44,383.76 19.56,0 0,-24.48 -19.56,0 0,24.48 z m 87.96,-6.84 19.56,0 0,-17.64 -19.56,0 0,17.64 z m 88.08,91.08 19.56,0 0,-108.72 -19.56,0 0,108.72 z m 87.96,-98.64 19.56,0 0,-10.08 -19.56,0 0,10.08 z"
       style="fill:#c0504d;fill-opacity:1;fill-rule:nonzero;stroke:none"
       id="path20"
       inkscape:connector-curvature="0" /><path
       d="m 85.62,359.22 0,134.16"
       style="fill:none;stroke:#868686;stroke-width:0.60000002;stroke-linecap:butt;stroke-linejoin:round;stroke-miterlimit:10;stroke-dasharray:none;stroke-opacity:1"
       id="path22"
       inkscape:connector-curvature="0" /><path
       d="m 82.98,359.22 2.64,0 m -2.64,55.92 2.64,0 m -2.64,55.92 2.64,0"
       style="fill:none;stroke:#868686;stroke-width:0.60000002;stroke-linecap:butt;stroke-linejoin:round;stroke-miterlimit:10;stroke-dasharray:none;stroke-opacity:1"
       id="path24"
       inkscape:connector-curvature="0" /><path
       d="m 85.62,359.22 352.08,0"
       style="fill:none;stroke:#868686;stroke-width:0.60000002;stroke-linecap:butt;stroke-linejoin:round;stroke-miterlimit:10;stroke-dasharray:none;stroke-opacity:1"
       id="path26"
       inkscape:connector-curvature="0" /><path
       d="m 85.62,359.22 0,-2.52 m 87.96,2.52 0,-2.52 m 88.08,2.52 0,-2.52 m 87.96,2.52 0,-2.52 m 88.08,2.52 0,-2.52"
       style="fill:none;stroke:#868686;stroke-width:0.60000002;stroke-linecap:butt;stroke-linejoin:round;stroke-miterlimit:10;stroke-dasharray:none;stroke-opacity:1"
       id="path28"
       inkscape:connector-curvature="0" /><g
       id="g30"><g
         id="g32"
         clip-path="url(#clipPath34)"><text
           transform="matrix(1,0,0,-1,65.904,356.33)"
           style="font-variant:normal;font-weight:normal;font-size:8.49600029px;font-family:Arial;-inkscape-font-specification:Arial;writing-mode:lr-tb;fill:#000000;fill-opacity:1;fill-rule:nonzero;stroke:none"
           id="text38"><tspan
             x="0 4.7039762"
             y="0"
             sodipodi:role="line"
             id="tspan40">0%</tspan></text>
</g></g><g
       id="g42"><g
         id="g44"
         clip-path="url(#clipPath46)" /></g><g
       id="g50"><g
         id="g52"
         clip-path="url(#clipPath54)"><text
           transform="matrix(1,0,0,-1,61.176,412.22)"
           style="font-variant:normal;font-weight:normal;font-size:8.49600029px;font-family:Arial;-inkscape-font-specification:Arial;writing-mode:lr-tb;fill:#000000;fill-opacity:1;fill-rule:nonzero;stroke:none"
           id="text58"><tspan
             x="0 4.7039762 9.4079523"
             y="0"
             sodipodi:role="line"
             id="tspan60">50%</tspan></text>
</g></g><g
       id="g62"><g
         id="g64"
         clip-path="url(#clipPath66)" /></g><g
       id="g70"><g
         id="g72"
         clip-path="url(#clipPath74)"><text
           transform="matrix(1,0,0,-1,56.472,468.14)"
           style="font-variant:normal;font-weight:normal;font-size:8.49600029px;font-family:Arial;-inkscape-font-specification:Arial;writing-mode:lr-tb;fill:#000000;fill-opacity:1;fill-rule:nonzero;stroke:none"
           id="text78"><tspan
             x="0 4.7279959 9.4559917 14.183988"
             y="0"
             sodipodi:role="line"
             id="tspan80">100%</tspan></text>
</g></g><g
       id="g82"><g
         id="g84"
         clip-path="url(#clipPath86)" /></g><g
       id="g90"><g
         id="g92"
         clip-path="url(#clipPath94)"><text
           transform="matrix(1,0,0,-1,103.73,346.03)"
           style="font-variant:normal;font-weight:normal;font-size:8.49600029px;font-family:Arial;-inkscape-font-specification:Arial;writing-mode:lr-tb;fill:#000000;fill-opacity:1;fill-rule:nonzero;stroke:none"
           id="text98"><tspan
             x="0 4.2904801 8.2751036 12.99888 15.33528 20.059055"
             y="0"
             sodipodi:role="line"
             id="tspan100">syntex</tspan></text>
</g></g><g
       id="g102"><g
         id="g104"
         clip-path="url(#clipPath106)"><text
           transform="matrix(1,0,0,-1,128.06,346.03)"
           style="font-variant:normal;font-weight:normal;font-size:8.49600029px;font-family:Arial;-inkscape-font-specification:Arial;writing-mode:lr-tb;fill:#000000;fill-opacity:1;fill-rule:nonzero;stroke:none"
           id="text110"><tspan
             x="0"
             y="0"
             id="tspan112">-</tspan></text>
</g></g><g
       id="g114"><g
         id="g116"
         clip-path="url(#clipPath118)"><text
           transform="matrix(1,0,0,-1,130.94,346.03)"
           style="font-variant:normal;font-weight:normal;font-size:8.49600029px;font-family:Arial;-inkscape-font-specification:Arial;writing-mode:lr-tb;fill:#000000;fill-opacity:1;fill-rule:nonzero;stroke:none"
           id="text122"><tspan
             x="0 4.2904801 8.2751036 12.99888 15.42024 20.144016"
             y="0"
             sodipodi:role="line"
             id="tspan124">syntax</tspan></text>
</g></g><g
       id="g126"><g
         id="g128"
         clip-path="url(#clipPath130)" /></g><g
       id="g134"><g
         id="g136"
         clip-path="url(#clipPath138)"><text
           transform="matrix(1,0,0,-1,207,346.03)"
           style="font-variant:normal;font-weight:normal;font-size:8.49600029px;font-family:Arial;-inkscape-font-specification:Arial;writing-mode:lr-tb;fill:#000000;fill-opacity:1;fill-rule:nonzero;stroke:none"
           id="text142"><tspan
             x="0 2.8461599 7.5699358 12.251232 16.975008"
             y="0"
             sodipodi:role="line"
             id="tspan144">regex</tspan></text>
</g></g><g
       id="g146"><g
         id="g148"
         clip-path="url(#clipPath150)" /></g><g
       id="g154"><g
         id="g156"
         clip-path="url(#clipPath158)"><text
           transform="matrix(1,0,0,-1,292.58,346.03)"
           style="font-variant:normal;font-weight:normal;font-size:8.49600029px;font-family:Arial;-inkscape-font-specification:Arial;writing-mode:lr-tb;fill:#000000;fill-opacity:1;fill-rule:nonzero;stroke:none"
           id="text162"><tspan
             x="0 2.4383521 7.162128 9.4985275 14.222304 17.051472 21.775248"
             y="0"
             sodipodi:role="line"
             id="tspan164">futures</tspan></text>
</g></g><g
       id="g166"><g
         id="g168"
         clip-path="url(#clipPath170)" /></g><g
       id="g174"><g
         id="g176"
         clip-path="url(#clipPath178)"><text
           transform="matrix(1,0,0,-1,369.79,346.03)"
           style="font-variant:normal;font-weight:normal;font-size:8.49600029px;font-family:Arial;-inkscape-font-specification:Arial;writing-mode:lr-tb;fill:#000000;fill-opacity:1;fill-rule:nonzero;stroke:none"
           id="text182"><tspan
             x="0 2.4383521 7.162128 9.4985275 14.222304 17.051472 21.775248 26.048737 28.308672 31.154833 33.51672 38.215008 42.505489 44.867374"
             y="0"
             sodipodi:role="line"
             id="tspan184">futures (test)</tspan></text>
</g></g><g
       id="g186"><g
         id="g188"
         clip-path="url(#clipPath190)" /></g><path
       d="m 451.08,433.08 4.44,0 0,4.32 -4.44,0 0,-4.32 z"
       style="fill:#9bbb59;fill-opacity:1;fill-rule:evenodd;stroke:none"
       id="path194"
       inkscape:connector-curvature="0" /><g
       id="g196"><g
         id="g198"
         clip-path="url(#clipPath200)"><text
           transform="matrix(1,0,0,-1,457.3,432.26)"
           style="font-variant:normal;font-weight:normal;font-size:8.47200012px;font-family:Arial;-inkscape-font-specification:Arial;writing-mode:lr-tb;fill:#000000;fill-opacity:1;fill-rule:nonzero;stroke:none"
           id="text204"><tspan
             x="0 6.133728 10.84416 15.580008 20.29044 22.171225 26.881657"
             y="0"
             sodipodi:role="line"
             id="tspan206">Regular</tspan></text>
</g></g><g
       id="g208"><g
         id="g210"
         clip-path="url(#clipPath212)" /></g><path
       d="m 451.08,418.44 4.44,0 0,4.44 -4.44,0 0,-4.44 z"
       style="fill:#4f81bd;fill-opacity:1;fill-rule:evenodd;stroke:none"
       id="path216"
       inkscape:connector-curvature="0" /><g
       id="g218"><g
         id="g220"
         clip-path="url(#clipPath222)"><text
           transform="matrix(1,0,0,-1,457.3,417.72)"
           style="font-variant:normal;font-weight:normal;font-size:8.49600029px;font-family:Arial;-inkscape-font-specification:Arial;writing-mode:lr-tb;fill:#000000;fill-opacity:1;fill-rule:nonzero;stroke:none"
           id="text226"><tspan
             x="0 2.3618879 7.0856638 11.367648 14.239296 18.963072 26.227152 30.950928 35.674706 38.036591 42.760368 44.612495 46.872433 49.74408 51.596207 56.319984 58.172112 60.534 62.369137 67.092911 68.945038"
             y="0"
             sodipodi:role="line"
             id="tspan228">Incremental (initial)</tspan></text>
</g></g><g
       id="g230"><g
         id="g232"
         clip-path="url(#clipPath234)" /></g><path
       d="m 451.08,403.92 4.44,0 0,4.44 -4.44,0 0,-4.44 z"
       style="fill:#c0504d;fill-opacity:1;fill-rule:evenodd;stroke:none"
       id="path238"
       inkscape:connector-curvature="0" /><g
       id="g240"><g
         id="g242"
         clip-path="url(#clipPath244)"><text
           transform="matrix(1,0,0,-1,457.3,403.18)"
           style="font-variant:normal;font-weight:normal;font-size:8.49600029px;font-family:Arial;-inkscape-font-specification:Arial;writing-mode:lr-tb;fill:#000000;fill-opacity:1;fill-rule:nonzero;stroke:none"
           id="text248"><tspan
             x="0 2.3618879 7.0856638 11.367648 14.239296 18.963072 26.227152 30.950928 35.674706 38.036591 42.760368 44.612495 46.872433 49.74408 54.467857 59.191631 63.915409 68.639183 71.001076 75.724846"
             y="0"
             sodipodi:role="line"
             id="tspan250">Incremental (update)</tspan></text>
</g></g><g
       id="g252"><g
         id="g254"
         clip-path="url(#clipPath256)" /></g><path
       d="m 50.937,338.74 493.54,0 0,164.02 -493.54,0 0,-164.02 z"
       style="fill:none;stroke:#868686;stroke-width:0.63922;stroke-linecap:butt;stroke-linejoin:round;stroke-miterlimit:10;stroke-dasharray:none;stroke-opacity:1"
       id="path260"
       inkscape:connector-curvature="0" /></g></svg>