<svg version="1.1" viewBox="0.0 0.0 600.0 458.0" fill="none" stroke="none" stroke-linecap="square" stroke-miterlimit="10" width="600" height="458" xmlns:xlink="http://www.w3.org/1999/xlink" xmlns="http://www.w3.org/2000/svg"><path fill="#ffffff" d="M0 0L600.0 0L600.0 458.0L0 458.0L0 0Z" fill-rule="nonzero"/><path fill="#305089" d="M486.46667 262.61835C486.46667 269.80118 485.61966 276.97177 483.93427 284.05707L483.93427 256.08707C485.61966 249.00177 486.46667 241.83118 486.46667 234.64833Z" fill-rule="nonzero"/><path fill="#4472c4" d="M300.0 104.121666C354.80734 104.121666 406.8393 121.000084 442.26855 150.27155C477.69785 179.54301 492.93628 218.24298 483.93427 256.08707L300.0 234.64833Z" fill-rule="nonzero"/><path fill="#ffc000" d="M175.30876 137.59816C209.54272 116.0459 253.95738 104.121666 300.0 104.121666L300.0 234.64833Z" fill-rule="nonzero"/><path fill="#747474" d="M128.78331 314.3173C118.72277 297.99124 113.53333 280.39853 113.53333 262.61835L113.53333 234.64833C113.53333 252.42853 118.72277 270.02124 128.78331 286.3473Z" fill-rule="nonzero"/><path fill="#a5a5a5" d="M128.78331 286.3473C97.08793 234.91261 115.80968 175.05627 175.30876 137.59816L300.0 234.64833Z" fill-rule="nonzero"/><path fill="#a65822" d="M483.93427 284.05707C470.34875 341.1702 404.6379 385.1928 322.5304 392.1887C240.4229 399.18457 161.54445 367.4815 128.78331 314.3173L128.78331 286.3473C161.54445 339.5115 240.4229 371.21457 322.5304 364.2187C404.6379 357.2228 470.34875 313.2002 483.93427 256.08707Z" fill-rule="nonzero"/><path fill="#ed7d31" d="M483.93427 256.08707C470.34875 313.2002 404.6379 357.2228 322.5304 364.2187C240.4229 371.21457 161.54445 339.5115 128.78331 286.3473L300.0 234.64833Z" fill-rule="nonzero"/><path fill="#1a1a1a" d="M27.025 110.91821L25.009375 110.91821L25.009375 114.37134L23.884375 114.37134L23.884375 105.84009L26.7125 105.84009Q28.15 105.84009 28.915625 106.49634Q29.696875 107.15259 29.696875 108.40259Q29.696875 109.19946 29.259375 109.79321Q28.8375 110.38696 28.071875 110.68384L30.071875 114.29321L30.071875 114.37134L28.86875 114.37134L27.025 110.91821ZM25.009375 109.99634L26.74375 109.99634Q27.5875 109.99634 28.071875 109.57446Q28.571875 109.13696 28.571875 108.40259Q28.571875 107.62134 28.103125 107.19946Q27.634375 106.77759 26.74375 106.76196L25.009375 106.76196L25.009375 109.99634ZM34.634377 114.37134Q34.540627 114.18384 34.478127 113.69946Q33.728127 114.49634 32.68125 114.49634Q31.74375 114.49634 31.134375 113.96509Q30.540625 113.43384 30.540625 112.60571Q30.540625 111.62134 31.290625 111.07446Q32.040627 110.52759 33.415627 110.52759L34.4625 110.52759L34.4625 110.02759Q34.4625 109.46509 34.11875 109.13696Q33.790627 108.79321 33.11875 108.79321Q32.540627 108.79321 32.15 109.09009Q31.759375 109.37134 31.759375 109.79321L30.665625 109.79321Q30.665625 109.30884 30.99375 108.87134Q31.3375 108.43384 31.915625 108.18384Q32.49375 107.91821 33.18125 107.91821Q34.290627 107.91821 34.9 108.46509Q35.525 109.01196 35.55625 109.96509L35.55625 112.88696Q35.55625 113.76196 35.775 114.27759L35.775 114.37134L34.634377 114.37134ZM32.8375 113.54321Q33.353127 113.54321 33.80625 113.27759Q34.259377 113.01196 34.4625 112.59009L34.4625 111.29321L33.61875 111.29321Q31.61875 111.29321 31.61875 112.46509Q31.61875 112.96509 31.9625 113.26196Q32.30625 113.54321 32.8375 113.54321ZM40.790627 108.99634Q40.540627 108.96509 40.259377 108.96509Q39.18125 108.96509 38.80625 109.87134L38.80625 114.37134L37.728127 114.37134L37.728127 108.02759L38.775 108.02759L38.790627 108.76196Q39.321877 107.91821 40.30625 107.91821Q40.61875 107.91821 40.790627 107.99634L40.790627 108.99634ZM44.353127 114.49634Q43.05625 114.49634 42.24375 113.65259Q41.446877 112.79321 41.446877 111.37134L41.446877 111.18384Q41.446877 110.23071 41.80625 109.49634Q42.165627 108.74634 42.80625 108.34009Q43.4625 107.91821 44.2125 107.91821Q45.446877 107.91821 46.134377 108.73071Q46.821877 109.54321 46.821877 111.05884L46.821877 111.51196L42.525 111.51196Q42.55625 112.44946 43.071877 113.02759Q43.603127 113.60571 44.415627 113.60571Q44.978127 113.60571 45.36875 113.37134Q45.775 113.13696 46.0875 112.74634L46.74375 113.26196Q45.946877 114.49634 44.353127 114.49634ZM44.2125 108.80884Q43.55625 108.80884 43.103127 109.29321Q42.665627 109.76196 42.571877 110.62134L45.74375 110.62134L45.74375 110.54321Q45.696877 109.71509 45.290627 109.26196Q44.9 108.80884 44.2125 108.80884ZM48.9 114.37134L47.821877 114.37134L47.821877 105.37134L48.9 105.37134L48.9 114.37134ZM52.790627 112.77759L54.275 108.02759L55.43125 108.02759L52.884377 115.35571Q52.290627 116.93384 51.009377 116.93384L50.790627 116.91821L50.4 116.84009L50.4 115.96509L50.68125 115.98071Q51.24375 115.98071 51.540627 115.76196Q51.853127 115.54321 52.05625 114.94946L52.290627 114.29321L50.025 108.02759L51.2125 108.02759L52.790627 112.77759Z" fill-rule="nonzero"/><path fill="#9e9e9e" d="M27.165625 132.37134L26.0875 132.37134L26.0875 125.15259L23.9 125.94946L23.9 124.96509L27.009375 123.79321L27.165625 123.79321L27.165625 132.37134ZM34.165627 132.37134L33.0875 132.37134L33.0875 125.15259L30.9 125.94946L30.9 124.96509L34.009377 123.79321L34.165627 123.79321L34.165627 132.37134ZM37.74375 131.80884Q37.74375 131.52759 37.9 131.34009Q38.071877 131.15259 38.4 131.15259Q38.74375 131.15259 38.915627 131.34009Q39.0875 131.52759 39.0875 131.80884Q39.0875 132.07446 38.915627 132.26196Q38.74375 132.43384 38.4 132.43384Q38.071877 132.43384 37.9 132.26196Q37.74375 132.07446 37.74375 131.80884ZM46.11875 124.44946L42.5875 132.37134L41.446877 132.37134L44.9625 124.73071L40.353127 124.73071L40.353127 123.84009L46.11875 123.84009L46.11875 124.44946ZM47.509377 125.48071Q47.509377 124.71509 47.99375 124.21509Q48.49375 123.71509 49.259377 123.71509Q50.040627 123.71509 50.525 124.21509Q51.009377 124.71509 51.009377 125.51196L51.009377 125.93384Q51.009377 126.69946 50.509377 127.19946Q50.025 127.68384 49.275 127.68384Q48.509377 127.68384 48.009377 127.19946Q47.509377 126.69946 47.509377 125.88696L47.509377 125.48071ZM48.321877 125.93384Q48.321877 126.38696 48.571877 126.68384Q48.8375 126.98071 49.275 126.98071Q49.696877 126.98071 49.946877 126.69946Q50.196877 126.40259 50.196877 125.90259L50.196877 125.48071Q50.196877 125.02759 49.946877 124.73071Q49.696877 124.41821 49.259377 124.41821Q48.821877 124.41821 48.571877 124.73071Q48.321877 125.02759 48.321877 125.49634L48.321877 125.93384ZM51.665627 130.27759Q51.665627 129.51196 52.15 129.02759Q52.65 128.52759 53.415627 128.52759Q54.18125 128.52759 54.665627 129.02759Q55.165627 129.51196 55.165627 130.32446L55.165627 130.73071Q55.165627 131.49634 54.68125 131.99634Q54.196877 132.49634 53.43125 132.49634Q52.665627 132.49634 52.165627 132.01196Q51.665627 131.51196 51.665627 130.69946L51.665627 130.27759ZM52.478127 130.73071Q52.478127 131.19946 52.728127 131.49634Q52.99375 131.79321 53.43125 131.79321Q53.853127 131.79321 54.103127 131.51196Q54.353127 131.21509 54.353127 130.71509L54.353127 130.27759Q54.353127 129.80884 54.0875 129.52759Q53.8375 129.23071 53.415627 129.23071Q52.99375 129.23071 52.728127 129.52759Q52.478127 129.80884 52.478127 130.30884L52.478127 130.73071ZM49.525 131.73071L48.9 131.34009L53.071877 124.66821L53.68125 125.05884L49.525 131.73071Z" fill-rule="nonzero"/><path stroke="#757575" stroke-width="1.0" stroke-linecap="butt" d="M22.9 118.87134L107.53333 118.87134L236.56483 118.87134" fill-rule="nonzero"/><path fill="#9e9e9e" d="M238.56483 118.87134C238.56483 117.76677 237.6694 116.87134 236.56483 116.87134C235.46025 116.87134 234.56483 117.76677 234.56483 118.87134C234.56483 119.97591 235.46025 120.87134 236.56483 120.87134C237.6694 120.87134 238.56483 119.97591 238.56483 118.87134" fill-rule="nonzero"/><path fill="#1a1a1a" d="M25.3375 195.0961L28.134375 202.04922L30.915625 195.0961L32.384377 195.0961L32.384377 203.62735L31.259375 203.62735L31.259375 200.29922L31.36875 196.7211L28.55625 203.62735L27.696875 203.62735L24.9 196.73672L25.009375 200.29922L25.009375 203.62735L23.884375 203.62735L23.884375 195.0961L25.3375 195.0961ZM33.43125 200.39297Q33.43125 199.4711 33.790627 198.7211Q34.165627 197.9711 34.821877 197.58047Q35.478127 197.17422 36.30625 197.17422Q37.603127 197.17422 38.4 198.06485Q39.2125 198.95547 39.2125 200.45547L39.2125 200.5336Q39.2125 201.45547 38.853127 202.18985Q38.49375 202.92422 37.8375 203.3461Q37.18125 203.75235 36.321877 203.75235Q35.040627 203.75235 34.228127 202.86172Q33.43125 201.95547 33.43125 200.4711L33.43125 200.39297ZM34.525 200.5336Q34.525 201.58047 35.009377 202.2211Q35.509377 202.86172 36.321877 202.86172Q37.15 202.86172 37.634377 202.2211Q38.11875 201.56485 38.11875 200.39297Q38.11875 199.36172 37.61875 198.7211Q37.134377 198.06485 36.30625 198.06485Q35.509377 198.06485 35.009377 198.70547Q34.525 199.33047 34.525 200.5336ZM41.74375 197.2836L41.775 198.08047Q42.509377 197.17422 43.68125 197.17422Q45.696877 197.17422 45.7125 199.43985L45.7125 203.62735L44.61875 203.62735L44.61875 199.42422Q44.61875 198.75235 44.30625 198.42422Q44.009377 198.0961 43.353127 198.0961Q42.821877 198.0961 42.415627 198.37735Q42.025 198.6586 41.80625 199.11172L41.80625 203.62735L40.728127 203.62735L40.728127 197.2836L41.74375 197.2836ZM49.196877 195.75235L49.196877 197.2836L50.36875 197.2836L50.36875 198.12735L49.196877 198.12735L49.196877 202.04922Q49.196877 202.43985 49.353127 202.62735Q49.509377 202.81485 49.884377 202.81485Q50.071877 202.81485 50.4 202.75235L50.4 203.62735Q49.978127 203.75235 49.571877 203.75235Q48.853127 203.75235 48.478127 203.31485Q48.103127 202.86172 48.103127 202.04922L48.103127 198.12735L46.946877 198.12735L46.946877 197.2836L48.103127 197.2836L48.103127 195.75235L49.196877 195.75235ZM52.80625 198.04922Q53.525 197.17422 54.68125 197.17422Q56.696877 197.17422 56.7125 199.43985L56.7125 203.62735L55.61875 203.62735L55.61875 199.42422Q55.61875 198.75235 55.30625 198.42422Q55.009377 198.0961 54.353127 198.0961Q53.821877 198.0961 53.415627 198.37735Q53.025 198.6586 52.80625 199.11172L52.80625 203.62735L51.728127 203.62735L51.728127 194.62735L52.80625 194.62735L52.80625 198.04922ZM59.9 203.62735L58.821877 203.62735L58.821877 194.62735L59.9 194.62735L59.9 203.62735ZM63.790627 202.0336L65.275 197.2836L66.43125 197.2836L63.884377 204.61172Q63.290627 206.18985 62.009377 206.18985L61.790627 206.17422L61.4 206.0961L61.4 205.2211L61.68125 205.23672Q62.24375 205.23672 62.540627 205.01797Q62.853127 204.79922 63.05625 204.20547L63.290627 203.54922L61.025 197.2836L62.2125 197.2836L63.790627 202.0336Z" fill-rule="nonzero"/><path fill="#9e9e9e" d="M27.165625 221.62735L26.0875 221.62735L26.0875 214.4086L23.9 215.20547L23.9 214.2211L27.009375 213.04922L27.165625 213.04922L27.165625 221.62735ZM34.759377 217.87735Q34.43125 218.2836 33.946877 218.5336Q33.478127 218.76797 32.915627 218.76797Q32.18125 218.76797 31.634375 218.4086Q31.0875 218.04922 30.790625 217.39297Q30.49375 216.7211 30.49375 215.92422Q30.49375 215.08047 30.80625 214.39297Q31.134375 213.70547 31.728125 213.3461Q32.3375 212.9711 33.134377 212.9711Q34.4 212.9711 35.11875 213.92422Q35.853127 214.87735 35.853127 216.50235L35.853127 216.81485Q35.853127 219.31485 34.86875 220.45547Q33.884377 221.5961 31.9 221.62735L31.68125 221.62735L31.68125 220.7211L31.915625 220.7211Q33.259377 220.68985 33.978127 220.01797Q34.696877 219.3461 34.759377 217.87735ZM33.0875 217.87735Q33.634377 217.87735 34.0875 217.54922Q34.55625 217.20547 34.775 216.7211L34.775 216.2836Q34.775 215.2211 34.30625 214.54922Q33.8375 213.87735 33.134377 213.87735Q32.415627 213.87735 31.978125 214.42422Q31.55625 214.9711 31.55625 215.87735Q31.55625 216.75235 31.9625 217.31485Q32.384377 217.87735 33.0875 217.87735ZM37.74375 221.06485Q37.74375 220.7836 37.9 220.5961Q38.071877 220.4086 38.4 220.4086Q38.74375 220.4086 38.915627 220.5961Q39.0875 220.7836 39.0875 221.06485Q39.0875 221.33047 38.915627 221.51797Q38.74375 221.68985 38.4 221.68985Q38.071877 221.68985 37.9 221.51797Q37.74375 221.33047 37.74375 221.06485ZM45.790627 215.31485Q45.790627 215.95547 45.446877 216.45547Q45.103127 216.95547 44.540627 217.23672Q45.196877 217.51797 45.5875 218.08047Q45.978127 218.62735 45.978127 219.33047Q45.978127 220.42422 45.228127 221.0961Q44.49375 221.75235 43.275 221.75235Q42.040627 221.75235 41.290627 221.0961Q40.55625 220.42422 40.55625 219.33047Q40.55625 218.62735 40.93125 218.08047Q41.30625 217.51797 41.978127 217.23672Q41.415627 216.95547 41.0875 216.45547Q40.759377 215.95547 40.759377 215.31485Q40.759377 214.23672 41.446877 213.61172Q42.134377 212.9711 43.275 212.9711Q44.4 212.9711 45.0875 213.61172Q45.790627 214.23672 45.790627 215.31485ZM44.9 219.29922Q44.9 218.58047 44.446877 218.14297Q43.99375 217.68985 43.259377 217.68985Q42.525 217.68985 42.071877 218.14297Q41.634377 218.58047 41.634377 219.31485Q41.634377 220.0336 42.071877 220.45547Q42.509377 220.86172 43.275 220.86172Q44.025 220.86172 44.4625 220.43985Q44.9 220.01797 44.9 219.29922ZM43.275 213.86172Q42.634377 213.86172 42.228127 214.26797Q41.8375 214.6586 41.8375 215.3461Q41.8375 215.98672 42.228127 216.39297Q42.61875 216.79922 43.259377 216.79922Q43.915627 216.79922 44.30625 216.39297Q44.696877 215.98672 44.696877 215.3461Q44.696877 214.68985 44.290627 214.2836Q43.884377 213.86172 43.275 213.86172ZM47.509377 214.73672Q47.509377 213.9711 47.99375 213.4711Q48.49375 212.9711 49.259377 212.9711Q50.040627 212.9711 50.525 213.4711Q51.009377 213.9711 51.009377 214.76797L51.009377 215.18985Q51.009377 215.95547 50.509377 216.45547Q50.025 216.93985 49.275 216.93985Q48.509377 216.93985 48.009377 216.45547Q47.509377 215.95547 47.509377 215.14297L47.509377 214.73672ZM48.321877 215.18985Q48.321877 215.64297 48.571877 215.93985Q48.8375 216.23672 49.275 216.23672Q49.696877 216.23672 49.946877 215.95547Q50.196877 215.6586 50.196877 215.1586L50.196877 214.73672Q50.196877 214.2836 49.946877 213.98672Q49.696877 213.67422 49.259377 213.67422Q48.821877 213.67422 48.571877 213.98672Q48.321877 214.2836 48.321877 214.75235L48.321877 215.18985ZM51.665627 219.5336Q51.665627 218.76797 52.15 218.2836Q52.65 217.7836 53.415627 217.7836Q54.18125 217.7836 54.665627 218.2836Q55.165627 218.76797 55.165627 219.58047L55.165627 219.98672Q55.165627 220.75235 54.68125 221.25235Q54.196877 221.75235 53.43125 221.75235Q52.665627 221.75235 52.165627 221.26797Q51.665627 220.76797 51.665627 219.95547L51.665627 219.5336ZM52.478127 219.98672Q52.478127 220.45547 52.728127 220.75235Q52.99375 221.04922 53.43125 221.04922Q53.853127 221.04922 54.103127 220.76797Q54.353127 220.4711 54.353127 219.9711L54.353127 219.5336Q54.353127 219.06485 54.0875 218.7836Q53.8375 218.48672 53.415627 218.48672Q52.99375 218.48672 52.728127 218.7836Q52.478127 219.06485 52.478127 219.56485L52.478127 219.98672ZM49.525 220.98672L48.9 220.5961L53.071877 213.92422L53.68125 214.31485L49.525 220.98672Z" fill-rule="nonzero"/><path stroke="#757575" stroke-width="1.0" stroke-linecap="butt" d="M22.9 208.12735L107.53333 208.12735L126.9557 208.12735" fill-rule="nonzero"/><path fill="#9e9e9e" d="M128.9557 208.12735C128.9557 207.02278 128.06027 206.12735 126.9557 206.12735C125.851135 206.12735 124.9557 207.02278 124.9557 208.12735C124.9557 209.23192 125.851135 210.12735 126.9557 210.12735C128.06027 210.12735 128.9557 209.23192 128.9557 208.12735" fill-rule="nonzero"/><path fill="#1a1a1a" d="M551.08435 149.99039L551.08435 141.45914L553.5062 141.45914Q554.6156 141.45914 555.45935 141.95914Q556.3187 142.44351 556.7875 143.34976Q557.2562 144.25601 557.2562 145.44351L557.2562 145.97476Q557.2562 147.19351 556.7875 148.09976Q556.33435 149.00601 555.45935 149.49039Q554.6 149.97476 553.45935 149.99039L551.08435 149.99039ZM552.20935 142.38101L552.20935 149.06851L553.39685 149.06851Q554.6937 149.06851 555.4125 148.27164Q556.14685 147.45914 556.14685 145.95914L556.14685 145.45914Q556.14685 144.00601 555.45935 143.20914Q554.7875 142.39664 553.52185 142.38101L552.20935 142.38101ZM562.83435 149.99039Q562.7406 149.80289 562.6781 149.31851Q561.9281 150.11539 560.8812 150.11539Q559.9437 150.11539 559.33435 149.58414Q558.7406 149.05289 558.7406 148.22476Q558.7406 147.24039 559.4906 146.69351Q560.2406 146.14664 561.6156 146.14664L562.6625 146.14664L562.6625 145.64664Q562.6625 145.08414 562.3187 144.75601Q561.9906 144.41226 561.3187 144.41226Q560.7406 144.41226 560.35 144.70914Q559.95935 144.99039 559.95935 145.41226L558.8656 145.41226Q558.8656 144.92789 559.1937 144.49039Q559.5375 144.05289 560.1156 143.80289Q560.6937 143.53726 561.3812 143.53726Q562.4906 143.53726 563.1 144.08414Q563.725 144.63101 563.7562 145.58414L563.7562 148.50601Q563.7562 149.38101 563.975 149.89664L563.975 149.99039L562.83435 149.99039ZM561.0375 149.16226Q561.5531 149.16226 562.0062 148.89664Q562.45935 148.63101 562.6625 148.20914L562.6625 146.91226L561.8187 146.91226Q559.8187 146.91226 559.8187 148.08414Q559.8187 148.58414 560.1625 148.88101Q560.5062 149.16226 561.0375 149.16226ZM567.1 149.99039L566.02185 149.99039L566.02185 143.64664L567.1 143.64664L567.1 149.99039ZM565.9281 141.97476Q565.9281 141.70914 566.08435 141.52164Q566.2562 141.33414 566.5687 141.33414Q566.8812 141.33414 567.0375 141.52164Q567.20935 141.70914 567.20935 141.97476Q567.20935 142.22476 567.0375 142.41226Q566.8812 142.58414 566.5687 142.58414Q566.2562 142.58414 566.08435 142.41226Q565.9281 142.22476 565.9281 141.97476ZM570.1 149.99039L569.02185 149.99039L569.02185 140.99039L570.1 140.99039L570.1 149.99039ZM573.9906 148.39664L575.475 143.64664L576.6312 143.64664L574.08435 150.97476Q573.4906 152.55289 572.20935 152.55289L571.9906 152.53726L571.6 152.45914L571.6 151.58414L571.8812 151.59976Q572.4437 151.59976 572.7406 151.38101Q573.0531 151.16226 573.2562 150.56851L573.4906 149.91226L571.225 143.64664L572.4125 143.64664L573.9906 148.39664Z" fill-rule="nonzero"/><path fill="#9e9e9e" d="M550.39685 167.99039L544.8031 167.99039L544.8031 167.20914L547.7562 163.92789Q548.4125 163.17789 548.6625 162.72476Q548.9125 162.25601 548.9125 161.75601Q548.9125 161.08414 548.5062 160.66226Q548.1156 160.22476 547.4281 160.22476Q546.6312 160.22476 546.1781 160.69351Q545.725 161.14664 545.725 161.97476L544.64685 161.97476Q544.64685 160.78726 545.39685 160.06851Q546.1625 159.33414 547.4281 159.33414Q548.6312 159.33414 549.3187 159.95914Q550.0062 160.58414 550.0062 161.63101Q550.0062 162.88101 548.39685 164.63101L546.1156 167.09976L550.39685 167.09976L550.39685 167.99039ZM557.3187 160.06851L553.7875 167.99039L552.64685 167.99039L556.1625 160.34976L551.5531 160.34976L551.5531 159.45914L557.3187 159.45914L557.3187 160.06851ZM558.9437 167.42789Q558.9437 167.14664 559.1 166.95914Q559.27185 166.77164 559.6 166.77164Q559.9437 166.77164 560.1156 166.95914Q560.2875 167.14664 560.2875 167.42789Q560.2875 167.69351 560.1156 167.88101Q559.9437 168.05289 559.6 168.05289Q559.27185 168.05289 559.1 167.88101Q558.9437 167.69351 558.9437 167.42789ZM566.0687 159.45914L566.0687 160.36539L565.8656 160.36539Q564.6 160.39664 563.85 161.13101Q563.1 161.84976 562.975 163.16226Q563.6625 162.39664 564.8187 162.39664Q565.9281 162.39664 566.6 163.17789Q567.27185 163.95914 567.27185 165.20914Q567.27185 166.52164 566.5531 167.31851Q565.83435 168.11539 564.6156 168.11539Q563.39685 168.11539 562.6312 167.17789Q561.8812 166.22476 561.8812 164.74039L561.8812 164.33414Q561.8812 161.97476 562.8812 160.72476Q563.8812 159.47476 565.8656 159.45914L566.0687 159.45914ZM564.64685 163.30289Q564.08435 163.30289 563.6156 163.63101Q563.14685 163.95914 562.95935 164.47476L562.95935 164.86539Q562.95935 165.92789 563.4281 166.56851Q563.9125 167.20914 564.6156 167.20914Q565.35 167.20914 565.77185 166.67789Q566.1937 166.13101 566.1937 165.25601Q566.1937 164.38101 565.77185 163.84976Q565.35 163.30289 564.64685 163.30289ZM568.70935 161.09976Q568.70935 160.33414 569.1937 159.83414Q569.6937 159.33414 570.45935 159.33414Q571.2406 159.33414 571.725 159.83414Q572.20935 160.33414 572.20935 161.13101L572.20935 161.55289Q572.20935 162.31851 571.70935 162.81851Q571.225 163.30289 570.475 163.30289Q569.70935 163.30289 569.20935 162.81851Q568.70935 162.31851 568.70935 161.50601L568.70935 161.09976ZM569.52185 161.55289Q569.52185 162.00601 569.77185 162.30289Q570.0375 162.59976 570.475 162.59976Q570.89685 162.59976 571.14685 162.31851Q571.39685 162.02164 571.39685 161.52164L571.39685 161.09976Q571.39685 160.64664 571.14685 160.34976Q570.89685 160.03726 570.45935 160.03726Q570.02185 160.03726 569.77185 160.34976Q569.52185 160.64664 569.52185 161.11539L569.52185 161.55289ZM572.8656 165.89664Q572.8656 165.13101 573.35 164.64664Q573.85 164.14664 574.6156 164.14664Q575.3812 164.14664 575.8656 164.64664Q576.3656 165.13101 576.3656 165.94351L576.3656 166.34976Q576.3656 167.11539 575.8812 167.61539Q575.39685 168.11539 574.6312 168.11539Q573.8656 168.11539 573.3656 167.63101Q572.8656 167.13101 572.8656 166.31851L572.8656 165.89664ZM573.6781 166.34976Q573.6781 166.81851 573.9281 167.11539Q574.1937 167.41226 574.6312 167.41226Q575.0531 167.41226 575.3031 167.13101Q575.5531 166.83414 575.5531 166.33414L575.5531 165.89664Q575.5531 165.42789 575.2875 165.14664Q575.0375 164.84976 574.6156 164.84976Q574.1937 164.84976 573.9281 165.14664Q573.6781 165.42789 573.6781 165.92789L573.6781 166.34976ZM570.725 167.34976L570.1 166.95914L574.27185 160.28726L574.8812 160.67789L570.725 167.34976Z" fill-rule="nonzero"/><path stroke="#757575" stroke-width="1.0" stroke-linecap="butt" d="M577.1 154.49039L492.46667 154.49039L435.15515 154.49039" fill-rule="nonzero"/><path fill="#9e9e9e" d="M437.15515 154.49039C437.15515 153.38582 436.2597 152.49039 435.15515 152.49039C434.05057 152.49039 433.15515 153.38582 433.15515 154.49039C433.15515 155.59496 434.05057 156.49039 435.15515 156.49039C436.2597 156.49039 437.15515 155.59496 437.15515 154.49039" fill-rule="nonzero"/><path fill="#1a1a1a" d="M541.9281 350.55267L542.1 351.67767L542.33435 350.66205L544.02185 344.70892L544.975 344.70892L546.6156 350.66205L546.85 351.6933L547.0375 350.53705L548.3656 344.70892L549.4906 344.70892L547.4281 353.24017L546.39685 353.24017L544.6312 347.02142L544.5062 346.36517L544.3656 347.02142L542.5531 353.24017L541.52185 353.24017L539.45935 344.70892L540.58435 344.70892L541.9281 350.55267ZM553.5531 353.36517Q552.2562 353.36517 551.4437 352.52142Q550.64685 351.66205 550.64685 350.24017L550.64685 350.05267Q550.64685 349.09955 551.0062 348.36517Q551.3656 347.61517 552.0062 347.20892Q552.6625 346.78705 553.4125 346.78705Q554.64685 346.78705 555.33435 347.59955Q556.02185 348.41205 556.02185 349.92767L556.02185 350.3808L551.725 350.3808Q551.7562 351.3183 552.27185 351.89642Q552.8031 352.47455 553.6156 352.47455Q554.1781 352.47455 554.5687 352.24017Q554.975 352.0058 555.2875 351.61517L555.9437 352.1308Q555.14685 353.36517 553.5531 353.36517ZM553.4125 347.67767Q552.7562 347.67767 552.3031 348.16205Q551.8656 348.6308 551.77185 349.49017L554.9437 349.49017L554.9437 349.41205Q554.89685 348.58392 554.4906 348.1308Q554.1 347.67767 553.4125 347.67767ZM559.5531 353.36517Q558.2562 353.36517 557.4437 352.52142Q556.64685 351.66205 556.64685 350.24017L556.64685 350.05267Q556.64685 349.09955 557.0062 348.36517Q557.3656 347.61517 558.0062 347.20892Q558.6625 346.78705 559.4125 346.78705Q560.64685 346.78705 561.33435 347.59955Q562.02185 348.41205 562.02185 349.92767L562.02185 350.3808L557.725 350.3808Q557.7562 351.3183 558.27185 351.89642Q558.8031 352.47455 559.6156 352.47455Q560.1781 352.47455 560.5687 352.24017Q560.975 352.0058 561.2875 351.61517L561.9437 352.1308Q561.14685 353.36517 559.5531 353.36517ZM559.4125 347.67767Q558.7562 347.67767 558.3031 348.16205Q557.8656 348.6308 557.77185 349.49017L560.9437 349.49017L560.9437 349.41205Q560.89685 348.58392 560.4906 348.1308Q560.1 347.67767 559.4125 347.67767ZM564.6937 350.30267L564.0062 351.0058L564.0062 353.24017L562.9281 353.24017L562.9281 344.24017L564.0062 344.24017L564.0062 349.67767L564.58435 348.99017L566.5687 346.89642L567.8812 346.89642L565.4125 349.55267L568.1781 353.24017L566.89685 353.24017L564.6937 350.30267ZM570.1 353.24017L569.02185 353.24017L569.02185 344.24017L570.1 344.24017L570.1 353.24017ZM573.9906 351.64642L575.475 346.89642L576.6312 346.89642L574.08435 354.22455Q573.4906 355.80267 572.20935 355.80267L571.9906 355.78705L571.6 355.70892L571.6 354.83392L571.8812 354.84955Q572.4437 354.84955 572.7406 354.6308Q573.0531 354.41205 573.2562 353.8183L573.4906 353.16205L571.225 346.89642L572.4125 346.89642L573.9906 351.64642Z" fill-rule="nonzero"/><path fill="#9e9e9e" d="M549.3812 368.3808L550.5687 368.3808L550.5687 369.2558L549.3812 369.2558L549.3812 371.24017L548.3031 371.24017L548.3031 369.2558L544.4125 369.2558L544.4125 368.61517L548.225 362.70892L549.3812 362.70892L549.3812 368.3808ZM545.64685 368.3808L548.3031 368.3808L548.3031 364.1933L548.1625 364.42767L545.64685 368.3808ZM557.1625 367.59955Q557.1625 369.5058 556.5062 370.4433Q555.8656 371.36517 554.475 371.36517Q553.1156 371.36517 552.45935 370.45892Q551.8031 369.55267 551.77185 367.74017L551.77185 366.30267Q551.77185 364.41205 552.4125 363.5058Q553.0687 362.58392 554.45935 362.58392Q555.83435 362.58392 556.4906 363.47455Q557.14685 364.34955 557.1625 366.1933L557.1625 367.59955ZM556.0687 366.11517Q556.0687 364.74017 555.6781 364.11517Q555.3031 363.47455 554.45935 363.47455Q553.6312 363.47455 553.2406 364.11517Q552.8656 364.74017 552.8656 366.03705L552.8656 367.77142Q552.8656 369.14642 553.2562 369.8183Q553.6625 370.47455 554.475 370.47455Q555.27185 370.47455 555.6625 369.84955Q556.0531 369.22455 556.0687 367.89642L556.0687 366.11517ZM558.9437 370.67767Q558.9437 370.39642 559.1 370.20892Q559.27185 370.02142 559.6 370.02142Q559.9437 370.02142 560.1156 370.20892Q560.2875 370.39642 560.2875 370.67767Q560.2875 370.9433 560.1156 371.1308Q559.9437 371.30267 559.6 371.30267Q559.27185 371.30267 559.1 371.1308Q558.9437 370.9433 558.9437 370.67767ZM565.95935 367.49017Q565.6312 367.89642 565.14685 368.14642Q564.6781 368.3808 564.1156 368.3808Q563.3812 368.3808 562.83435 368.02142Q562.2875 367.66205 561.9906 367.0058Q561.6937 366.33392 561.6937 365.53705Q561.6937 364.6933 562.0062 364.0058Q562.33435 363.3183 562.9281 362.95892Q563.5375 362.58392 564.33435 362.58392Q565.6 362.58392 566.3187 363.53705Q567.0531 364.49017 567.0531 366.11517L567.0531 366.42767Q567.0531 368.92767 566.0687 370.0683Q565.08435 371.20892 563.1 371.24017L562.8812 371.24017L562.8812 370.33392L563.1156 370.33392Q564.45935 370.30267 565.1781 369.6308Q565.89685 368.95892 565.95935 367.49017ZM564.2875 367.49017Q564.83435 367.49017 565.2875 367.16205Q565.7562 366.8183 565.975 366.33392L565.975 365.89642Q565.975 364.83392 565.5062 364.16205Q565.0375 363.49017 564.33435 363.49017Q563.6156 363.49017 563.1781 364.03705Q562.7562 364.58392 562.7562 365.49017Q562.7562 366.36517 563.1625 366.92767Q563.58435 367.49017 564.2875 367.49017ZM568.70935 364.34955Q568.70935 363.58392 569.1937 363.08392Q569.6937 362.58392 570.45935 362.58392Q571.2406 362.58392 571.725 363.08392Q572.20935 363.58392 572.20935 364.3808L572.20935 364.80267Q572.20935 365.5683 571.70935 366.0683Q571.225 366.55267 570.475 366.55267Q569.70935 366.55267 569.20935 366.0683Q568.70935 365.5683 568.70935 364.7558L568.70935 364.34955ZM569.52185 364.80267Q569.52185 365.2558 569.77185 365.55267Q570.0375 365.84955 570.475 365.84955Q570.89685 365.84955 571.14685 365.5683Q571.39685 365.27142 571.39685 364.77142L571.39685 364.34955Q571.39685 363.89642 571.14685 363.59955Q570.89685 363.28705 570.45935 363.28705Q570.02185 363.28705 569.77185 363.59955Q569.52185 363.89642 569.52185 364.36517L569.52185 364.80267ZM572.8656 369.14642Q572.8656 368.3808 573.35 367.89642Q573.85 367.39642 574.6156 367.39642Q575.3812 367.39642 575.8656 367.89642Q576.3656 368.3808 576.3656 369.1933L576.3656 369.59955Q576.3656 370.36517 575.8812 370.86517Q575.39685 371.36517 574.6312 371.36517Q573.8656 371.36517 573.3656 370.8808Q572.8656 370.3808 572.8656 369.5683L572.8656 369.14642ZM573.6781 369.59955Q573.6781 370.0683 573.9281 370.36517Q574.1937 370.66205 574.6312 370.66205Q575.0531 370.66205 575.3031 370.3808Q575.5531 370.08392 575.5531 369.58392L575.5531 369.14642Q575.5531 368.67767 575.2875 368.39642Q575.0375 368.09955 574.6156 368.09955Q574.1937 368.09955 573.9281 368.39642Q573.6781 368.67767 573.6781 369.17767L573.6781 369.59955ZM570.725 370.59955L570.1 370.20892L574.27185 363.53705L574.8812 363.92767L570.725 370.59955Z" fill-rule="nonzero"/><path stroke="#757575" stroke-width="1.0" stroke-linecap="butt" d="M577.1 357.74017L492.46667 357.74017L321.40387 357.74017" fill-rule="nonzero"/><path fill="#9e9e9e" d="M323.40387 357.74017C323.40387 356.6356 322.50845 355.74017 321.40387 355.74017C320.29932 355.74017 319.40387 356.6356 319.40387 357.74017C319.40387 358.84476 320.29932 359.74017 321.40387 359.74017C322.50845 359.74017 323.40387 358.84476 323.40387 357.74017" fill-rule="nonzero"/><path fill="#757575" d="M35.478127 41.9L33.5875 41.9L33.5875 35.321877L26.43125 35.321877L26.43125 41.9L24.55625 41.9L24.55625 27.681252L26.43125 27.681252L26.43125 33.790627L33.5875 33.790627L33.5875 27.681252L35.478127 27.681252L35.478127 41.9ZM37.790627 36.525Q37.790627 34.9625 38.4 33.728127Q39.009377 32.478127 40.0875 31.806252Q41.18125 31.134377 42.5875 31.134377Q44.74375 31.134377 46.071877 32.634377Q47.415627 34.11875 47.415627 36.603127L47.415627 36.728127Q47.415627 38.275 46.821877 39.509377Q46.228127 40.728127 45.11875 41.415627Q44.025 42.103127 42.603127 42.103127Q40.4625 42.103127 39.11875 40.603127Q37.790627 39.103127 37.790627 36.65L37.790627 36.525ZM39.603127 36.728127Q39.603127 38.49375 40.415627 39.55625Q41.24375 40.61875 42.603127 40.61875Q43.978127 40.61875 44.790627 39.540627Q45.603127 38.4625 45.603127 36.525Q45.603127 34.775 44.775 33.696877Q43.946877 32.61875 42.5875 32.61875Q41.24375 32.61875 40.415627 33.68125Q39.603127 34.74375 39.603127 36.728127ZM58.61875 39.415627L60.65 31.337502L62.4625 31.337502L59.384377 41.9L57.915627 41.9L55.353127 33.884377L52.853127 41.9L51.384377 41.9L48.321877 31.337502L50.11875 31.337502L52.196877 39.24375L54.665627 31.337502L56.11875 31.337502L58.61875 39.415627ZM68.79063 36.525Q68.79063 34.9625 69.4 33.728127Q70.00938 32.478127 71.0875 31.806252Q72.18125 31.134377 73.5875 31.134377Q75.74375 31.134377 77.07188 32.634377Q78.41563 34.11875 78.41563 36.603127L78.41563 36.728127Q78.41563 38.275 77.82188 39.509377Q77.22813 40.728127 76.11875 41.415627Q75.025 42.103127 73.60313 42.103127Q71.4625 42.103127 70.11875 40.603127Q68.79063 39.103127 68.79063 36.65L68.79063 36.525ZM70.60313 36.728127Q70.60313 38.49375 71.41563 39.55625Q72.24375 40.61875 73.60313 40.61875Q74.97813 40.61875 75.79063 39.540627Q76.60313 38.4625 76.60313 36.525Q76.60313 34.775 75.775 33.696877Q74.94688 32.61875 73.5875 32.61875Q72.24375 32.61875 71.41563 33.68125Q70.60313 34.74375 70.60313 36.728127ZM81.15 41.9L81.15 32.728127L79.49375 32.728127L79.49375 31.337502L81.15 31.337502L81.15 30.243752Q81.15 28.556252 82.05625 27.634377Q82.97813 26.696877 84.63438 26.696877Q85.25938 26.696877 85.86875 26.853127L85.775 28.321877Q85.32188 28.243752 84.80625 28.243752Q83.91563 28.243752 83.43125 28.759377Q82.9625 29.259377 82.9625 30.212502L82.9625 31.337502L85.2125 31.337502L85.2125 32.728127L82.9625 32.728127L82.9625 41.9L81.15 41.9ZM89.7125 28.775002L89.7125 31.337502L91.69688 31.337502L91.69688 32.728127L89.7125 32.728127L89.7125 39.275Q89.7125 39.915627 89.97813 40.24375Q90.24375 40.55625 90.88438 40.55625Q91.19688 40.55625 91.74375 40.43125L91.74375 41.9Q91.025 42.103127 90.35313 42.103127Q89.15 42.103127 88.525 41.36875Q87.91563 40.634377 87.91563 39.275L87.91563 32.728127L85.99375 32.728127L85.99375 31.337502L87.91563 31.337502L87.91563 28.775002L89.7125 28.775002ZM98.65 42.103127Q96.50938 42.103127 95.15 40.696877Q93.80625 39.275 93.80625 36.915627L93.80625 36.571877Q93.80625 35.009377 94.4 33.775Q95.00938 32.540627 96.0875 31.837502Q97.16563 31.134377 98.43125 31.134377Q100.49375 31.134377 101.63438 32.49375Q102.775 33.853127 102.775 36.384377L102.775 37.134377L95.61875 37.134377Q95.65 38.696877 96.525 39.665627Q97.4 40.61875 98.74375 40.61875Q99.7125 40.61875 100.36875 40.228127Q101.04063 39.8375 101.54063 39.196877L102.63438 40.05625Q101.30625 42.103127 98.65 42.103127ZM98.43125 32.61875Q97.3375 32.61875 96.5875 33.415627Q95.85313 34.2125 95.68125 35.65L100.9625 35.65L100.9625 35.509377Q100.88438 34.134377 100.2125 33.384377Q99.55625 32.61875 98.43125 32.61875ZM106.97813 31.337502L107.04063 32.665627Q108.24375 31.134377 110.19688 31.134377Q113.55625 31.134377 113.57188 34.915627L113.57188 41.9L111.775 41.9L111.775 34.9Q111.75938 33.759377 111.24375 33.2125Q110.74375 32.665627 109.65 32.665627Q108.775 32.665627 108.10313 33.134377Q107.44688 33.603127 107.07188 34.36875L107.07188 41.9L105.275 41.9L105.275 31.337502L106.97813 31.337502ZM120.82188 36.525Q120.82188 34.103127 121.97813 32.61875Q123.13438 31.134377 124.99375 31.134377Q126.85313 31.134377 127.93125 32.4L127.93125 26.900002L129.74374 26.900002L129.74374 41.9L128.0875 41.9L127.99375 40.759377Q126.91563 42.103127 124.97813 42.103127Q123.15 42.103127 121.97813 40.603127Q120.82188 39.0875 120.82188 36.665627L120.82188 36.525ZM122.63438 36.728127Q122.63438 38.525 123.36875 39.540627Q124.11875 40.55625 125.43125 40.55625Q127.15 40.55625 127.93125 39.025L127.93125 34.165627Q127.13438 32.665627 125.44688 32.665627Q124.11875 32.665627 123.36875 33.696877Q122.63438 34.728127 122.63438 36.728127ZM131.79062 36.525Q131.79062 34.9625 132.4 33.728127Q133.00937 32.478127 134.0875 31.806252Q135.18124 31.134377 136.5875 31.134377Q138.74374 31.134377 140.07187 32.634377Q141.41562 34.11875 141.41562 36.603127L141.41562 36.728127Q141.41562 38.275 140.82187 39.509377Q140.22812 40.728127 139.11874 41.415627Q138.025 42.103127 136.60312 42.103127Q134.4625 42.103127 133.11874 40.603127Q131.79062 39.103127 131.79062 36.65L131.79062 36.525ZM133.60312 36.728127Q133.60312 38.49375 134.41562 39.55625Q135.24374 40.61875 136.60312 40.61875Q137.97812 40.61875 138.79062 39.540627Q139.60312 38.4625 139.60312 36.525Q139.60312 34.775 138.775 33.696877Q137.94687 32.61875 136.5875 32.61875Q135.24374 32.61875 134.41562 33.68125Q133.60312 34.74375 133.60312 36.728127ZM151.72812 39.259377L154.18124 31.337502L156.11874 31.337502L151.86874 43.525Q150.88437 46.165627 148.74374 46.165627L148.4 46.134377L147.72812 46.009377L147.72812 44.540627L148.2125 44.5875Q149.13437 44.5875 149.63437 44.2125Q150.15 43.8375 150.47812 42.853127L150.88437 41.775L147.11874 31.337502L149.0875 31.337502L151.72812 39.259377ZM156.79062 36.525Q156.79062 34.9625 157.4 33.728127Q158.00937 32.478127 159.0875 31.806252Q160.18124 31.134377 161.5875 31.134377Q163.74374 31.134377 165.07187 32.634377Q166.41562 34.11875 166.41562 36.603127L166.41562 36.728127Q166.41562 38.275 165.82187 39.509377Q165.22812 40.728127 164.11874 41.415627Q163.025 42.103127 161.60312 42.103127Q159.4625 42.103127 158.11874 40.603127Q156.79062 39.103127 156.79062 36.65L156.79062 36.525ZM158.60312 36.728127Q158.60312 38.49375 159.41562 39.55625Q160.24374 40.61875 161.60312 40.61875Q162.97812 40.61875 163.79062 39.540627Q164.60312 38.4625 164.60312 36.525Q164.60312 34.775 163.775 33.696877Q162.94687 32.61875 161.5875 32.61875Q160.24374 32.61875 159.41562 33.68125Q158.60312 34.74375 158.60312 36.728127ZM174.79062 40.853127Q173.74374 42.103127 171.69687 42.103127Q170.00937 42.103127 169.11874 41.11875Q168.24374 40.134377 168.22812 38.2125L168.22812 31.337502L170.04062 31.337502L170.04062 38.165627Q170.04062 40.55625 171.99374 40.55625Q174.05624 40.55625 174.74374 39.025L174.74374 31.337502L176.55624 31.337502L176.55624 41.9L174.8375 41.9L174.79062 40.853127ZM193.61874 39.415627L195.65 31.337502L197.4625 31.337502L194.38437 41.9L192.91562 41.9L190.35312 33.884377L187.85312 41.9L186.38437 41.9L183.32187 31.337502L185.11874 31.337502L187.19687 39.24375L189.66562 31.337502L191.11874 31.337502L193.61874 39.415627ZM198.79062 36.525Q198.79062 34.9625 199.4 33.728127Q200.00937 32.478127 201.0875 31.806252Q202.18124 31.134377 203.5875 31.134377Q205.74374 31.134377 207.07187 32.634377Q208.41562 34.11875 208.41562 36.603127L208.41562 36.728127Q208.41562 38.275 207.82187 39.509377Q207.22812 40.728127 206.11874 41.415627Q205.025 42.103127 203.60312 42.103127Q201.4625 42.103127 200.11874 40.603127Q198.79062 39.103127 198.79062 36.65L198.79062 36.525ZM200.60312 36.728127Q200.60312 38.49375 201.41562 39.55625Q202.24374 40.61875 203.60312 40.61875Q204.97812 40.61875 205.79062 39.540627Q206.60312 38.4625 206.60312 36.525Q206.60312 34.775 205.775 33.696877Q204.94687 32.61875 203.5875 32.61875Q202.24374 32.61875 201.41562 33.68125Q200.60312 34.74375 200.60312 36.728127ZM215.36874 32.946877Q214.9625 32.884377 214.49374 32.884377Q212.7125 32.884377 212.07187 34.4L212.07187 41.9L210.275 41.9L210.275 31.337502L212.025 31.337502L212.05624 32.55625Q212.94687 31.134377 214.57187 31.134377Q215.10312 31.134377 215.36874 31.275002L215.36874 32.946877ZM220.2125 37.009377L219.0875 38.18125L219.0875 41.9L217.275 41.9L217.275 26.900002L219.0875 26.900002L219.0875 35.978127L220.05624 34.80625L223.3375 31.337502L225.54062 31.337502L221.43124 35.74375L226.025 41.9L223.9 41.9L220.2125 37.009377ZM241.61874 39.415627L243.65 31.337502L245.4625 31.337502L242.38437 41.9L240.91562 41.9L238.35312 33.884377L235.85312 41.9L234.38437 41.9L231.32187 31.337502L233.11874 31.337502L235.19687 39.24375L237.66562 31.337502L239.11874 31.337502L241.61874 39.415627ZM249.22812 41.9L247.43124 41.9L247.43124 31.337502L249.22812 31.337502L249.22812 41.9ZM247.275 28.525002Q247.275 28.087502 247.54062 27.790627Q247.82187 27.478127 248.3375 27.478127Q248.86874 27.478127 249.13437 27.790627Q249.41562 28.087502 249.41562 28.525002Q249.41562 28.962502 249.13437 29.259377Q248.86874 29.556252 248.3375 29.556252Q247.82187 29.556252 247.54062 29.259377Q247.275 28.962502 247.275 28.525002ZM254.7125 28.775002L254.7125 31.337502L256.69687 31.337502L256.69687 32.728127L254.7125 32.728127L254.7125 39.275Q254.7125 39.915627 254.97812 40.24375Q255.24374 40.55625 255.88437 40.55625Q256.19687 40.55625 256.74374 40.43125L256.74374 41.9Q256.025 42.103127 255.35312 42.103127Q254.15 42.103127 253.525 41.36875Q252.91562 40.634377 252.91562 39.275L252.91562 32.728127L250.99374 32.728127L250.99374 31.337502L252.91562 31.337502L252.91562 28.775002L254.7125 28.775002ZM261.07187 32.61875Q262.275 31.134377 264.19687 31.134377Q267.55624 31.134377 267.57187 34.915627L267.57187 41.9L265.775 41.9L265.775 34.9Q265.75937 33.759377 265.24374 33.2125Q264.74374 32.665627 263.65 32.665627Q262.775 32.665627 262.10312 33.134377Q261.44687 33.603127 261.07187 34.36875L261.07187 41.9L259.275 41.9L259.275 26.900002L261.07187 26.900002L261.07187 32.61875ZM280.75937 36.15L277.43124 36.15L277.43124 41.9L275.54062 41.9L275.54062 27.681252L280.24374 27.681252Q282.65 27.681252 283.94687 28.775002Q285.24374 29.868752 285.24374 31.962502Q285.24374 33.290627 284.525 34.275Q283.80624 35.259377 282.525 35.74375L285.86874 41.775L285.86874 41.9L283.85312 41.9L280.75937 36.15ZM277.43124 34.61875L280.30624 34.61875Q281.69687 34.61875 282.525 33.9Q283.35312 33.165627 283.35312 31.962502Q283.35312 30.634377 282.55624 29.931252Q281.775 29.228127 280.29062 29.228127L277.43124 29.228127L277.43124 34.61875ZM293.79062 40.853127Q292.74374 42.103127 290.69687 42.103127Q289.00937 42.103127 288.11874 41.11875Q287.24374 40.134377 287.22812 38.2125L287.22812 31.337502L289.04062 31.337502L289.04062 38.165627Q289.04062 40.55625 290.99374 40.55625Q293.05624 40.55625 293.74374 39.025L293.74374 31.337502L295.55624 31.337502L295.55624 41.9L293.8375 41.9L293.79062 40.853127ZM304.41562 39.103127Q304.41562 38.36875 303.86874 37.9625Q303.32187 37.55625 301.94687 37.259377Q300.57187 36.9625 299.75937 36.55625Q298.9625 36.15 298.57187 35.5875Q298.19687 35.009377 298.19687 34.228127Q298.19687 32.93125 299.29062 32.040627Q300.38437 31.134377 302.10312 31.134377Q303.9 31.134377 305.00937 32.071877Q306.13437 32.99375 306.13437 34.43125L304.30624 34.43125Q304.30624 33.696877 303.68124 33.165627Q303.05624 32.61875 302.10312 32.61875Q301.10312 32.61875 300.54062 33.05625Q299.99374 33.478127 299.99374 34.18125Q299.99374 34.821877 300.50937 35.165627Q301.025 35.49375 302.38437 35.80625Q303.74374 36.103127 304.57187 36.525Q305.41562 36.93125 305.82187 37.525Q306.22812 38.11875 306.22812 38.9625Q306.22812 40.384377 305.0875 41.24375Q303.9625 42.103127 302.15 42.103127Q300.88437 42.103127 299.9 41.65Q298.93124 41.196877 298.36874 40.4Q297.82187 39.5875 297.82187 38.65L299.63437 38.65Q299.68124 39.55625 300.35312 40.0875Q301.04062 40.61875 302.15 40.61875Q303.18124 40.61875 303.79062 40.2125Q304.41562 39.790627 304.41562 39.103127ZM310.7125 28.775002L310.7125 31.337502L312.69687 31.337502L312.69687 32.728127L310.7125 32.728127L310.7125 39.275Q310.7125 39.915627 310.97812 40.24375Q311.24374 40.55625 311.88437 40.55625Q312.19687 40.55625 312.74374 40.43125L312.74374 41.9Q312.025 42.103127 311.35312 42.103127Q310.15 42.103127 309.525 41.36875Q308.91562 40.634377 308.91562 39.275L308.91562 32.728127L306.99374 32.728127L306.99374 31.337502L308.91562 31.337502L308.91562 28.775002L310.7125 28.775002ZM317.38437 37.9Q317.4 36.728127 317.65 36.05625Q317.9 35.384377 318.65 34.571877L319.93124 33.24375Q320.74374 32.321877 320.74374 31.259377Q320.74374 30.228127 320.19687 29.650002Q319.66562 29.071877 318.65 29.071877Q317.65 29.071877 317.04062 29.603127Q316.44687 30.118752 316.44687 31.009377L314.63437 31.009377Q314.65 29.431252 315.75937 28.462502Q316.86874 27.478127 318.65 27.478127Q320.49374 27.478127 321.525 28.478127Q322.55624 29.462502 322.55624 31.196877Q322.55624 32.9 320.97812 34.571877L319.9 35.61875Q319.19687 36.415627 319.19687 37.9L317.38437 37.9ZM317.30624 40.99375Q317.30624 40.55625 317.57187 40.259377Q317.85312 39.9625 318.36874 39.9625Q318.9 39.9625 319.16562 40.259377Q319.44687 40.55625 319.44687 40.99375Q319.44687 41.43125 319.16562 41.728127Q318.9 42.009377 318.36874 42.009377Q317.85312 42.009377 317.57187 41.728127Q317.30624 41.43125 317.30624 40.99375Z" fill-rule="nonzero"/></svg>