<svg version="1.1" viewBox="0.0 0.0 745.0 371.0" fill="none" stroke="none" stroke-linecap="square" stroke-miterlimit="10" width="745" height="371" xmlns:xlink="http://www.w3.org/1999/xlink" xmlns="http://www.w3.org/2000/svg"><path fill="#ffffff" d="M0 0L745.0 0L745.0 371.0L0 371.0L0 0Z" fill-rule="nonzero"/><path stroke="#333333" stroke-width="1.0" stroke-linecap="butt" d="M78.5 298.5L726.5 298.5" fill-rule="nonzero"/><path stroke="#cccccc" stroke-width="1.0" stroke-linecap="butt" d="M78.5 251.5L726.5 251.5" fill-rule="nonzero"/><path stroke="#cccccc" stroke-width="1.0" stroke-linecap="butt" d="M78.5 204.5L726.5 204.5" fill-rule="nonzero"/><path stroke="#cccccc" stroke-width="1.0" stroke-linecap="butt" d="M78.5 156.5L726.5 156.5" fill-rule="nonzero"/><path stroke="#cccccc" stroke-width="1.0" stroke-linecap="butt" d="M78.5 109.5L726.5 109.5" fill-rule="nonzero"/><path stroke="#cccccc" stroke-width="1.0" stroke-linecap="butt" d="M78.5 62.5L726.5 62.5" fill-rule="nonzero"/><clipPath id="id_0"><path d="M78.55 62.416668L726.45 62.416668L726.45 298.45L78.55 298.45L78.55 62.416668Z" clip-rule="nonzero"/></clipPath><path stroke="#000000" stroke-width="0.0" stroke-linecap="butt" stroke-opacity="0.0" clip-path="url(#id_0)" d="M200.0 298.0L121.0 298.0L121.0 283.0C121.0 281.89542 121.89543 281.0 123.0 281.0L198.0 281.0C199.10457 281.0 200.0 281.89542 200.0 283.0Z" fill-rule="nonzero"/><path fill="#4472c4" clip-path="url(#id_0)" d="M200.0 298.0L121.0 298.0L121.0 283.0C121.0 281.89542 121.89543 281.0 123.0 281.0L198.0 281.0C199.10457 281.0 200.0 281.89542 200.0 283.0Z" fill-rule="nonzero"/><path stroke="#000000" stroke-width="0.0" stroke-linecap="butt" stroke-opacity="0.0" clip-path="url(#id_0)" d="M321.0 298.0L242.0 298.0L242.0 227.0C242.0 225.89543 242.89543 225.0 244.0 225.0L319.0 225.0C320.10458 225.0 321.0 225.89543 321.0 227.0Z" fill-rule="nonzero"/><path fill="#4472c4" clip-path="url(#id_0)" d="M321.0 298.0L242.0 298.0L242.0 227.0C242.0 225.89543 242.89543 225.0 244.0 225.0L319.0 225.0C320.10458 225.0 321.0 225.89543 321.0 227.0Z" fill-rule="nonzero"/><path stroke="#000000" stroke-width="0.0" stroke-linecap="butt" stroke-opacity="0.0" clip-path="url(#id_0)" d="M443.0 298.0L364.0 298.0L364.0 123.0C364.0 121.89543 364.89542 121.0 366.0 121.0L441.0 121.0C442.10458 121.0 443.0 121.89543 443.0 123.0Z" fill-rule="nonzero"/><path fill="#4472c4" clip-path="url(#id_0)" d="M443.0 298.0L364.0 298.0L364.0 123.0C364.0 121.89543 364.89542 121.0 366.0 121.0L441.0 121.0C442.10458 121.0 443.0 121.89543 443.0 123.0Z" fill-rule="nonzero"/><path stroke="#000000" stroke-width="0.0" stroke-linecap="butt" stroke-opacity="0.0" clip-path="url(#id_0)" d="M564.0 298.0L485.0 298.0L485.0 89.0C485.0 87.89543 485.89542 87.0 487.0 87.0L562.0 87.0C563.10455 87.0 564.0 87.89543 564.0 89.0Z" fill-rule="nonzero"/><path fill="#4472c4" clip-path="url(#id_0)" d="M564.0 298.0L485.0 298.0L485.0 89.0C485.0 87.89543 485.89542 87.0 487.0 87.0L562.0 87.0C563.10455 87.0 564.0 87.89543 564.0 89.0Z" fill-rule="nonzero"/><path stroke="#000000" stroke-width="0.0" stroke-linecap="butt" stroke-opacity="0.0" clip-path="url(#id_0)" d="M685.0 298.0L606.0 298.0L606.0 240.0C606.0 238.89543 606.89545 238.0 608.0 238.0L683.0 238.0C684.10455 238.0 685.0 238.89543 685.0 240.0Z" fill-rule="nonzero"/><path fill="#4472c4" clip-path="url(#id_0)" d="M685.0 298.0L606.0 298.0L606.0 240.0C606.0 238.89543 606.89545 238.0 608.0 238.0L683.0 238.0C684.10455 238.0 685.0 238.89543 685.0 240.0Z" fill-rule="nonzero"/><path fill="#000000" d="M379.98438 349.45L379.98438 340.91876L382.40625 340.91876Q383.51562 340.91876 384.35938 341.41876Q385.21875 341.90314 385.6875 342.8094Q386.15625 343.71564 386.15625 344.90314L386.15625 345.4344Q386.15625 346.65314 385.6875 347.5594Q385.23438 348.46564 384.35938 348.95Q383.5 349.4344 382.35938 349.45L379.98438 349.45ZM381.10938 341.84064L381.10938 348.52814L382.29688 348.52814Q383.59375 348.52814 384.3125 347.73126Q385.04688 346.91876 385.04688 345.41876L385.04688 344.91876Q385.04688 343.46564 384.35938 342.66876Q383.6875 341.85626 382.42188 341.84064L381.10938 341.84064ZM391.73438 348.825Q391.10938 349.575 389.875 349.575Q388.85938 349.575 388.32812 348.98126Q387.79688 348.3875 387.79688 347.23126L387.79688 343.10626L388.875 343.10626L388.875 347.2Q388.875 348.65314 390.04688 348.65314Q391.29688 348.65314 391.70312 347.71564L391.70312 343.10626L392.79688 343.10626L392.79688 349.45L391.76562 349.45L391.73438 348.825ZM397.89062 344.075Q397.64062 344.04376 397.35938 344.04376Q396.28125 344.04376 395.90625 344.95L395.90625 349.45L394.82812 349.45L394.82812 343.10626L395.875 343.10626L395.89062 343.84064Q396.42188 342.9969 397.40625 342.9969Q397.71875 342.9969 397.89062 343.075L397.89062 344.075ZM402.73438 349.45Q402.64062 349.2625 402.57812 348.77814Q401.82812 349.575 400.78125 349.575Q399.84375 349.575 399.23438 349.04376Q398.64062 348.5125 398.64062 347.6844Q398.64062 346.7 399.39062 346.15314Q400.14062 345.60626 401.51562 345.60626L402.5625 345.60626L402.5625 345.10626Q402.5625 344.54376 402.21875 344.21564Q401.89062 343.8719 401.21875 343.8719Q400.64062 343.8719 400.25 344.16876Q399.85938 344.45 399.85938 344.8719L398.76562 344.8719Q398.76562 344.3875 399.09375 343.95Q399.4375 343.5125 400.01562 343.2625Q400.59375 342.9969 401.28125 342.9969Q402.39062 342.9969 403.0 343.54376Q403.625 344.09064 403.65625 345.04376L403.65625 347.96564Q403.65625 348.84064 403.875 349.35626L403.875 349.45L402.73438 349.45ZM400.9375 348.6219Q401.45312 348.6219 401.90625 348.35626Q402.35938 348.09064 402.5625 347.66876L402.5625 346.3719L401.71875 346.3719Q399.71875 346.3719 399.71875 347.54376Q399.71875 348.04376 400.0625 348.34064Q400.40625 348.6219 400.9375 348.6219ZM407.29688 341.575L407.29688 343.10626L408.46875 343.10626L408.46875 343.95L407.29688 343.95L407.29688 347.8719Q407.29688 348.2625 407.45312 348.45Q407.60938 348.6375 407.98438 348.6375Q408.17188 348.6375 408.5 348.575L408.5 349.45Q408.07812 349.575 407.67188 349.575Q406.95312 349.575 406.57812 349.1375Q406.20312 348.6844 406.20312 347.8719L406.20312 343.95L405.04688 343.95L405.04688 343.10626L406.20312 343.10626L406.20312 341.575L407.29688 341.575ZM411.0 349.45L409.92188 349.45L409.92188 343.10626L411.0 343.10626L411.0 349.45ZM409.82812 341.4344Q409.82812 341.16876 409.98438 340.98126Q410.15625 340.79376 410.46875 340.79376Q410.78125 340.79376 410.9375 340.98126Q411.10938 341.16876 411.10938 341.4344Q411.10938 341.6844 410.9375 341.8719Q410.78125 342.04376 410.46875 342.04376Q410.15625 342.04376 409.98438 341.8719Q409.82812 341.6844 409.82812 341.4344ZM412.53125 346.21564Q412.53125 345.29376 412.89062 344.54376Q413.26562 343.79376 413.92188 343.40314Q414.57812 342.9969 415.40625 342.9969Q416.70312 342.9969 417.5 343.8875Q418.3125 344.77814 418.3125 346.27814L418.3125 346.35626Q418.3125 347.27814 417.95312 348.0125Q417.59375 348.7469 416.9375 349.16876Q416.28125 349.575 415.42188 349.575Q414.14062 349.575 413.32812 348.6844Q412.53125 347.77814 412.53125 346.29376L412.53125 346.21564ZM413.625 346.35626Q413.625 347.40314 414.10938 348.04376Q414.60938 348.6844 415.42188 348.6844Q416.25 348.6844 416.73438 348.04376Q417.21875 347.3875 417.21875 346.21564Q417.21875 345.1844 416.71875 344.54376Q416.23438 343.8875 415.40625 343.8875Q414.60938 343.8875 414.10938 344.52814Q413.625 345.15314 413.625 346.35626ZM420.84375 343.10626L420.875 343.90314Q421.60938 342.9969 422.78125 342.9969Q424.79688 342.9969 424.8125 345.2625L424.8125 349.45L423.71875 349.45L423.71875 345.2469Q423.71875 344.575 423.40625 344.2469Q423.10938 343.91876 422.45312 343.91876Q421.92188 343.91876 421.51562 344.2Q421.125 344.48126 420.90625 344.9344L420.90625 349.45L419.82812 349.45L419.82812 343.10626L420.84375 343.10626Z" fill-rule="nonzero"/><path fill="#000000" d="M27.096888 212.05833L27.096888 214.07396L30.550013 214.07396L30.550013 215.19896L22.018763 215.19896L22.018763 212.37083Q22.018763 210.93333 22.675013 210.16771Q23.331263 209.38646 24.581263 209.38646Q25.378138 209.38646 25.971888 209.82396Q26.565638 210.24583 26.862513 211.01146L30.471888 209.01146L30.550013 209.01146L30.550013 210.21458L27.096888 212.05833ZM26.175013 214.07396L26.175013 212.33958Q26.175013 211.49583 25.753138 211.01146Q25.315638 210.51146 24.581263 210.51146Q23.800013 210.51146 23.378138 210.98021Q22.956263 211.44896 22.940638 212.33958L22.940638 214.07396L26.175013 214.07396ZM30.675013 205.73021Q30.675013 207.02708 29.831263 207.83958Q28.971888 208.63646 27.550013 208.63646L27.362513 208.63646Q26.409388 208.63646 25.675013 208.27708Q24.925013 207.91771 24.518763 207.27708Q24.096888 206.62083 24.096888 205.87083Q24.096888 204.63646 24.909388 203.94896Q25.721888 203.26146 27.237513 203.26146L27.690638 203.26146L27.690638 207.55833Q28.628138 207.52708 29.206263 207.01146Q29.784388 206.48021 29.784388 205.66771Q29.784388 205.10521 29.550013 204.71458Q29.315638 204.30833 28.925013 203.99583L29.440638 203.33958Q30.675013 204.13646 30.675013 205.73021ZM24.987513 205.87083Q24.987513 206.52708 25.471888 206.98021Q25.940638 207.41771 26.800013 207.51146L26.800013 204.33958L26.721888 204.33958Q25.893763 204.38646 25.440638 204.79271Q24.987513 205.18333 24.987513 205.87083ZM28.862513 198.66771Q28.425013 198.66771 28.190638 199.01146Q27.940638 199.33958 27.768763 200.16771Q27.596888 200.98021 27.346888 201.46458Q27.096888 201.94896 26.768763 202.18333Q26.425013 202.40208 25.956263 202.40208Q25.175013 202.40208 24.643763 201.74583Q24.096888 201.08958 24.096888 200.05833Q24.096888 198.98021 24.659388 198.32396Q25.206263 197.65208 26.065638 197.65208L26.065638 198.73021Q25.628138 198.73021 25.315638 199.12083Q24.987513 199.49583 24.987513 200.05833Q24.987513 200.65208 25.253138 200.99583Q25.503138 201.32396 25.909388 201.32396Q26.300013 201.32396 26.503138 201.01146Q26.706263 200.69896 26.893763 199.88646Q27.065638 199.07396 27.315638 198.57396Q27.565638 198.07396 27.925013 197.83958Q28.284388 197.58958 28.784388 197.58958Q29.643763 197.58958 30.159388 198.27708Q30.675013 198.94896 30.675013 200.02708Q30.675013 200.79271 30.409388 201.38646Q30.128138 201.96458 29.643763 202.29271Q29.159388 202.62083 28.596888 202.62083L28.596888 201.54271Q29.143763 201.51146 29.471888 201.10521Q29.784388 200.69896 29.784388 200.02708Q29.784388 199.41771 29.534388 199.04271Q29.284388 198.66771 28.862513 198.66771ZM27.456263 191.01146Q28.893763 191.01146 29.784388 191.66771Q30.675013 192.32396 30.675013 193.46458Q30.675013 194.62083 29.940638 195.27708L32.98751 195.27708L32.98751 196.35521L24.206263 196.35521L24.206263 195.37083L24.909388 195.32396Q24.096888 194.65208 24.096888 193.48021Q24.096888 192.33958 24.956263 191.68333Q25.815638 191.01146 27.346888 191.01146L27.456263 191.01146ZM27.331263 192.08958Q26.253138 192.08958 25.643763 192.55833Q25.018763 193.01146 25.018763 193.80833Q25.018763 194.79271 25.878138 195.27708L28.909388 195.27708Q29.784388 194.79271 29.784388 193.79271Q29.784388 193.01146 29.175013 192.55833Q28.550013 192.08958 27.331263 192.08958ZM27.315638 189.65208Q26.393763 189.65208 25.643763 189.29271Q24.893763 188.91771 24.503138 188.26146Q24.096888 187.60521 24.096888 186.77708Q24.096888 185.48021 24.987513 184.68333Q25.878138 183.87083 27.378138 183.87083L27.456263 183.87083Q28.378138 183.87083 29.112513 184.23021Q29.846888 184.58958 30.268763 185.24583Q30.675013 185.90208 30.675013 186.76146Q30.675013 188.04271 29.784388 188.85521Q28.878138 189.65208 27.393763 189.65208L27.315638 189.65208ZM27.456263 188.55833Q28.503138 188.55833 29.143763 188.07396Q29.784388 187.57396 29.784388 186.76146Q29.784388 185.93333 29.143763 185.44896Q28.487513 184.96458 27.315638 184.96458Q26.284388 184.96458 25.643763 185.46458Q24.987513 185.94896 24.987513 186.77708Q24.987513 187.57396 25.628138 188.07396Q26.253138 188.55833 27.456263 188.55833ZM24.206263 181.33958L25.003138 181.30833Q24.096888 180.57396 24.096888 179.40208Q24.096888 177.38646 26.362513 177.37083L30.550013 177.37083L30.550013 178.46458L26.346888 178.46458Q25.675013 178.46458 25.346888 178.77708Q25.018763 179.07396 25.018763 179.73021Q25.018763 180.26146 25.300013 180.66771Q25.581263 181.05833 26.034388 181.27708L30.550013 181.27708L30.550013 182.35521L24.206263 182.35521L24.206263 181.33958ZM28.862513 171.66771Q28.425013 171.66771 28.190638 172.01146Q27.940638 172.33958 27.768763 173.16771Q27.596888 173.98021 27.346888 174.46458Q27.096888 174.94896 26.768763 175.18333Q26.425013 175.40208 25.956263 175.40208Q25.175013 175.40208 24.643763 174.74583Q24.096888 174.08958 24.096888 173.05833Q24.096888 171.98021 24.659388 171.32396Q25.206263 170.65208 26.065638 170.65208L26.065638 171.73021Q25.628138 171.73021 25.315638 172.12083Q24.987513 172.49583 24.987513 173.05833Q24.987513 173.65208 25.253138 173.99583Q25.503138 174.32396 25.909388 174.32396Q26.300013 174.32396 26.503138 174.01146Q26.706263 173.69896 26.893763 172.88646Q27.065638 172.07396 27.315638 171.57396Q27.565638 171.07396 27.925013 170.83958Q28.284388 170.58958 28.784388 170.58958Q29.643763 170.58958 30.159388 171.27708Q30.675013 171.94896 30.675013 173.02708Q30.675013 173.79271 30.409388 174.38646Q30.128138 174.96458 29.643763 175.29271Q29.159388 175.62083 28.596888 175.62083L28.596888 174.54271Q29.143763 174.51146 29.471888 174.10521Q29.784388 173.69896 29.784388 173.02708Q29.784388 172.41771 29.534388 172.04271Q29.284388 171.66771 28.862513 171.66771ZM30.675013 166.73021Q30.675013 168.02708 29.831263 168.83958Q28.971888 169.63646 27.550013 169.63646L27.362513 169.63646Q26.409388 169.63646 25.675013 169.27708Q24.925013 168.91771 24.518763 168.27708Q24.096888 167.62083 24.096888 166.87083Q24.096888 165.63646 24.909388 164.94896Q25.721888 164.26146 27.237513 164.26146L27.690638 164.26146L27.690638 168.55833Q28.628138 168.52708 29.206263 168.01146Q29.784388 167.48021 29.784388 166.66771Q29.784388 166.10521 29.550013 165.71458Q29.315638 165.30833 28.925013 164.99583L29.440638 164.33958Q30.675013 165.13646 30.675013 166.73021ZM24.987513 166.87083Q24.987513 167.52708 25.471888 167.98021Q25.940638 168.41771 26.800013 168.51146L26.800013 165.33958L26.721888 165.33958Q25.893763 165.38646 25.440638 165.79271Q24.987513 166.18333 24.987513 166.87083ZM28.862513 159.66771Q28.425013 159.66771 28.190638 160.01146Q27.940638 160.33958 27.768763 161.16771Q27.596888 161.98021 27.346888 162.46458Q27.096888 162.94896 26.768763 163.18333Q26.425013 163.40208 25.956263 163.40208Q25.175013 163.40208 24.643763 162.74583Q24.096888 162.08958 24.096888 161.05833Q24.096888 159.98021 24.659388 159.32396Q25.206263 158.65208 26.065638 158.65208L26.065638 159.73021Q25.628138 159.73021 25.315638 160.12083Q24.987513 160.49583 24.987513 161.05833Q24.987513 161.65208 25.253138 161.99583Q25.503138 162.32396 25.909388 162.32396Q26.300013 162.32396 26.503138 162.01146Q26.706263 161.69896 26.893763 160.88646Q27.065638 160.07396 27.315638 159.57396Q27.565638 159.07396 27.925013 158.83958Q28.284388 158.58958 28.784388 158.58958Q29.643763 158.58958 30.159388 159.27708Q30.675013 159.94896 30.675013 161.02708Q30.675013 161.79271 30.409388 162.38646Q30.128138 162.96458 29.643763 163.29271Q29.159388 163.62083 28.596888 163.62083L28.596888 162.54271Q29.143763 162.51146 29.471888 162.10521Q29.784388 161.69896 29.784388 161.02708Q29.784388 160.41771 29.534388 160.04271Q29.284388 159.66771 28.862513 159.66771Z" fill-rule="nonzero"/><path fill="#000000" d="M71.6125 299.3094Q71.6125 301.21564 70.95625 302.15314Q70.31563 303.075 68.925 303.075Q67.56563 303.075 66.90938 302.16876Q66.25313 301.2625 66.22188 299.45L66.22188 298.0125Q66.22188 296.1219 66.8625 295.21564Q67.51875 294.29376 68.90938 294.29376Q70.28438 294.29376 70.94063 295.1844Q71.59688 296.0594 71.6125 297.90314L71.6125 299.3094ZM70.51875 297.825Q70.51875 296.45 70.12813 295.825Q69.75313 295.1844 68.90938 295.1844Q68.08125 295.1844 67.69063 295.825Q67.31563 296.45 67.31563 297.7469L67.31563 299.48126Q67.31563 300.85626 67.70625 301.52814Q68.1125 302.1844 68.925 302.1844Q69.72188 302.1844 70.1125 301.5594Q70.50313 300.9344 70.51875 299.60626L70.51875 297.825Z" fill-rule="nonzero"/><path fill="#000000" d="M64.84688 255.74333L59.253124 255.74333L59.253124 254.96208L62.20625 251.68083Q62.8625 250.93083 63.1125 250.4777Q63.3625 250.00896 63.3625 249.50896Q63.3625 248.83708 62.95625 248.4152Q62.565624 247.9777 61.878124 247.9777Q61.08125 247.9777 60.628124 248.44646Q60.175 248.89958 60.175 249.7277L59.096874 249.7277Q59.096874 248.5402 59.846874 247.82146Q60.6125 247.08708 61.878124 247.08708Q63.08125 247.08708 63.76875 247.71208Q64.45625 248.33708 64.45625 249.38396Q64.45625 250.63396 62.846874 252.38396L60.565624 254.8527L64.84688 254.8527L64.84688 255.74333ZM66.75313 251.46208L67.19063 247.21208L71.56563 247.21208L71.56563 248.21208L68.1125 248.21208L67.84688 250.5402Q68.4875 250.1652 69.28438 250.1652Q70.44063 250.1652 71.12813 250.94646Q71.81563 251.71208 71.81563 253.02458Q71.81563 254.33708 71.09688 255.1027Q70.39375 255.86833 69.1125 255.86833Q67.9875 255.86833 67.26875 255.24333Q66.55 254.6027 66.45625 253.49333L67.47188 253.49333Q67.58125 254.2277 68.00313 254.6027Q68.425 254.9777 69.1125 254.9777Q69.8625 254.9777 70.3 254.46208Q70.7375 253.94646 70.7375 253.0402Q70.7375 252.18083 70.26875 251.6652Q69.8 251.14958 69.01875 251.14958Q68.31563 251.14958 67.90938 251.44646L67.62813 251.68083L66.75313 251.46208Z" fill-rule="nonzero"/><path fill="#000000" d="M59.753124 204.25542L60.190624 200.00542L64.56563 200.00542L64.56563 201.00542L61.1125 201.00542L60.846874 203.33354Q61.4875 202.95854 62.284374 202.95854Q63.440624 202.95854 64.12813 203.73979Q64.81563 204.50542 64.81563 205.81792Q64.81563 207.13042 64.09688 207.89604Q63.39375 208.66167 62.1125 208.66167Q60.9875 208.66167 60.26875 208.03667Q59.55 207.39604 59.45625 206.28667L60.471874 206.28667Q60.58125 207.02104 61.003124 207.39604Q61.425 207.77104 62.1125 207.77104Q62.8625 207.77104 63.3 207.25542Q63.7375 206.73979 63.7375 205.83354Q63.7375 204.97417 63.26875 204.45854Q62.8 203.94292 62.01875 203.94292Q61.315624 203.94292 60.909374 204.23979L60.628124 204.47417L59.753124 204.25542ZM71.6125 204.89604Q71.6125 206.80229 70.95625 207.73979Q70.31563 208.66167 68.925 208.66167Q67.56563 208.66167 66.90938 207.75542Q66.25313 206.84917 66.22188 205.03667L66.22188 203.59917Q66.22188 201.70854 66.8625 200.80229Q67.51875 199.88042 68.90938 199.88042Q70.28438 199.88042 70.94063 200.77104Q71.59688 201.64604 71.6125 203.48979L71.6125 204.89604ZM70.51875 203.41167Q70.51875 202.03667 70.12813 201.41167Q69.75313 200.77104 68.90938 200.77104Q68.08125 200.77104 67.69063 201.41167Q67.31563 202.03667 67.31563 203.33354L67.31563 205.06792Q67.31563 206.44292 67.70625 207.11479Q68.1125 207.77104 68.925 207.77104Q69.72188 207.77104 70.1125 207.14604Q70.50313 206.52104 70.51875 205.19292L70.51875 203.41167Z" fill-rule="nonzero"/><path fill="#000000" d="M64.76875 153.40813L61.2375 161.33L60.096874 161.33L63.6125 153.68938L59.003124 153.68938L59.003124 152.79875L64.76875 152.79875L64.76875 153.40813ZM66.75313 157.04875L67.19063 152.79875L71.56563 152.79875L71.56563 153.79875L68.1125 153.79875L67.84688 156.12688Q68.4875 155.75188 69.28438 155.75188Q70.44063 155.75188 71.12813 156.53313Q71.81563 157.29875 71.81563 158.61125Q71.81563 159.92375 71.09688 160.68938Q70.39375 161.455 69.1125 161.455Q67.9875 161.455 67.26875 160.83Q66.55 160.18938 66.45625 159.08L67.47188 159.08Q67.58125 159.81438 68.00313 160.18938Q68.425 160.56438 69.1125 160.56438Q69.8625 160.56438 70.3 160.04875Q70.7375 159.53313 70.7375 158.62688Q70.7375 157.7675 70.26875 157.25188Q69.8 156.73625 69.01875 156.73625Q68.31563 156.73625 67.90938 157.03313L67.62813 157.2675L66.75313 157.04875Z" fill-rule="nonzero"/><path fill="#000000" d="M55.815624 114.12334L54.7375 114.12334L54.7375 106.90459L52.55 107.70146L52.55 106.71709L55.659374 105.54521L55.815624 105.54521L55.815624 114.12334ZM64.6125 110.48271Q64.6125 112.38896 63.95625 113.32646Q63.315624 114.24834 61.925 114.24834Q60.565624 114.24834 59.909374 113.34209Q59.253124 112.43584 59.221874 110.62334L59.221874 109.18584Q59.221874 107.29521 59.8625 106.38896Q60.51875 105.46709 61.909374 105.46709Q63.284374 105.46709 63.940624 106.35771Q64.59688 107.23271 64.6125 109.07646L64.6125 110.48271ZM63.51875 108.99834Q63.51875 107.62334 63.128124 106.99834Q62.753124 106.35771 61.909374 106.35771Q61.08125 106.35771 60.690624 106.99834Q60.315624 107.62334 60.315624 108.92021L60.315624 110.65459Q60.315624 112.02959 60.70625 112.70146Q61.1125 113.35771 61.925 113.35771Q62.721874 113.35771 63.1125 112.73271Q63.503124 112.10771 63.51875 110.77959L63.51875 108.99834ZM71.6125 110.48271Q71.6125 112.38896 70.95625 113.32646Q70.31563 114.24834 68.925 114.24834Q67.56563 114.24834 66.90938 113.34209Q66.25313 112.43584 66.22188 110.62334L66.22188 109.18584Q66.22188 107.29521 66.8625 106.38896Q67.51875 105.46709 68.90938 105.46709Q70.28438 105.46709 70.94063 106.35771Q71.59688 107.23271 71.6125 109.07646L71.6125 110.48271ZM70.51875 108.99834Q70.51875 107.62334 70.12813 106.99834Q69.75313 106.35771 68.90938 106.35771Q68.08125 106.35771 67.69063 106.99834Q67.31563 107.62334 67.31563 108.92021L67.31563 110.65459Q67.31563 112.02959 67.70625 112.70146Q68.1125 113.35771 68.925 113.35771Q69.72188 113.35771 70.1125 112.73271Q70.50313 112.10771 70.51875 110.77959L70.51875 108.99834Z" fill-rule="nonzero"/><path fill="#000000" d="M55.815624 66.916664L54.7375 66.916664L54.7375 59.697914L52.55 60.49479L52.55 59.510414L55.659374 58.33854L55.815624 58.33854L55.815624 66.916664ZM64.84688 66.916664L59.253124 66.916664L59.253124 66.135414L62.20625 62.854164Q62.8625 62.104164 63.1125 61.65104Q63.3625 61.18229 63.3625 60.68229Q63.3625 60.010414 62.95625 59.58854Q62.565624 59.15104 61.878124 59.15104Q61.08125 59.15104 60.628124 59.61979Q60.175 60.072914 60.175 60.90104L59.096874 60.90104Q59.096874 59.71354 59.846874 58.99479Q60.6125 58.260414 61.878124 58.260414Q63.08125 58.260414 63.76875 58.885414Q64.45625 59.510414 64.45625 60.55729Q64.45625 61.80729 62.846874 63.55729L60.565624 66.02604L64.84688 66.02604L64.84688 66.916664ZM66.75313 62.635414L67.19063 58.385414L71.56563 58.385414L71.56563 59.385414L68.1125 59.385414L67.84688 61.71354Q68.4875 61.33854 69.28438 61.33854Q70.44063 61.33854 71.12813 62.11979Q71.81563 62.885414 71.81563 64.197914Q71.81563 65.510414 71.09688 66.27604Q70.39375 67.041664 69.1125 67.041664Q67.9875 67.041664 67.26875 66.416664Q66.55 65.77604 66.45625 64.666664L67.47188 64.666664Q67.58125 65.40104 68.00313 65.77604Q68.425 66.15104 69.1125 66.15104Q69.8625 66.15104 70.3 65.635414Q70.7375 65.11979 70.7375 64.21354Q70.7375 63.354164 70.26875 62.83854Q69.8 62.322914 69.01875 62.322914Q68.31563 62.322914 67.90938 62.61979L67.62813 62.854164L66.75313 62.635414Z" fill-rule="nonzero"/><path fill="#000000" d="M119.919395 315.52814L123.96627 315.52814L123.96627 316.45L118.77877 316.45L118.77877 307.91876L119.919395 307.91876L119.919395 315.52814ZM127.24752 316.575Q125.950645 316.575 125.138145 315.73126Q124.34127 314.8719 124.34127 313.45L124.34127 313.2625Q124.34127 312.3094 124.700645 311.575Q125.06002 310.825 125.700645 310.41876Q126.356895 309.9969 127.106895 309.9969Q128.34128 309.9969 129.02878 310.8094Q129.71628 311.6219 129.71628 313.1375L129.71628 313.59064L125.419395 313.59064Q125.450645 314.52814 125.96627 315.10626Q126.49752 315.6844 127.31002 315.6844Q127.87252 315.6844 128.26315 315.45Q128.6694 315.21564 128.9819 314.825L129.63815 315.34064Q128.84128 316.575 127.24752 316.575ZM127.106895 310.8875Q126.450645 310.8875 125.99752 311.3719Q125.56002 311.84064 125.46627 312.7L128.63815 312.7L128.63815 312.6219Q128.59128 311.79376 128.18503 311.34064Q127.794395 310.8875 127.106895 310.8875ZM134.31003 314.7625Q134.31003 314.325 133.96628 314.09064Q133.63815 313.84064 132.81003 313.66876Q131.99753 313.4969 131.51315 313.2469Q131.02878 312.9969 130.7944 312.66876Q130.57565 312.325 130.57565 311.85626Q130.57565 311.075 131.2319 310.54376Q131.88815 309.9969 132.9194 309.9969Q133.99753 309.9969 134.65378 310.5594Q135.32565 311.10626 135.32565 311.96564L134.24753 311.96564Q134.24753 311.52814 133.8569 311.21564Q133.4819 310.8875 132.9194 310.8875Q132.32565 310.8875 131.9819 311.15314Q131.65378 311.40314 131.65378 311.8094Q131.65378 312.2 131.96628 312.40314Q132.27878 312.60626 133.09128 312.79376Q133.90378 312.96564 134.40378 313.21564Q134.90378 313.46564 135.13815 313.825Q135.38815 314.1844 135.38815 314.6844Q135.38815 315.54376 134.70065 316.0594Q134.02878 316.575 132.95065 316.575Q132.18503 316.575 131.59128 316.3094Q131.01315 316.02814 130.68503 315.54376Q130.3569 315.0594 130.3569 314.4969L131.43503 314.4969Q131.46628 315.04376 131.87253 315.3719Q132.27878 315.6844 132.95065 315.6844Q133.56003 315.6844 133.93503 315.4344Q134.31003 315.1844 134.31003 314.7625ZM140.31003 314.7625Q140.31003 314.325 139.96628 314.09064Q139.63815 313.84064 138.81003 313.66876Q137.99753 313.4969 137.51315 313.2469Q137.02878 312.9969 136.7944 312.66876Q136.57565 312.325 136.57565 311.85626Q136.57565 311.075 137.2319 310.54376Q137.88815 309.9969 138.9194 309.9969Q139.99753 309.9969 140.65378 310.5594Q141.32565 311.10626 141.32565 311.96564L140.24753 311.96564Q140.24753 311.52814 139.8569 311.21564Q139.4819 310.8875 138.9194 310.8875Q138.32565 310.8875 137.9819 311.15314Q137.65378 311.40314 137.65378 311.8094Q137.65378 312.2 137.96628 312.40314Q138.27878 312.60626 139.09128 312.79376Q139.90378 312.96564 140.40378 313.21564Q140.90378 313.46564 141.13815 313.825Q141.38815 314.1844 141.38815 314.6844Q141.38815 315.54376 140.70065 316.0594Q140.02878 316.575 138.95065 316.575Q138.18503 316.575 137.59128 316.3094Q137.01315 316.02814 136.68503 315.54376Q136.3569 315.0594 136.3569 314.4969L137.43503 314.4969Q137.46628 315.04376 137.87253 315.3719Q138.27878 315.6844 138.95065 315.6844Q139.56003 315.6844 139.93503 315.4344Q140.31003 315.1844 140.31003 314.7625ZM147.09128 308.575L147.09128 310.10626L148.26315 310.10626L148.26315 310.95L147.09128 310.95L147.09128 314.8719Q147.09128 315.2625 147.24753 315.45Q147.40378 315.6375 147.77878 315.6375Q147.96628 315.6375 148.2944 315.575L148.2944 316.45Q147.87253 316.575 147.46628 316.575Q146.74753 316.575 146.37253 316.1375Q145.99753 315.6844 145.99753 314.8719L145.99753 310.95L144.84128 310.95L144.84128 310.10626L145.99753 310.10626L145.99753 308.575L147.09128 308.575ZM150.70065 310.8719Q151.4194 309.9969 152.57565 309.9969Q154.59128 309.9969 154.6069 312.2625L154.6069 316.45L153.51315 316.45L153.51315 312.2469Q153.51315 311.575 153.20065 311.2469Q152.90378 310.91876 152.24753 310.91876Q151.71628 310.91876 151.31003 311.2Q150.9194 311.48126 150.70065 311.9344L150.70065 316.45L149.62253 316.45L149.62253 307.45L150.70065 307.45L150.70065 310.8719ZM160.52878 316.45Q160.43503 316.2625 160.37253 315.77814Q159.62253 316.575 158.57565 316.575Q157.63815 316.575 157.02878 316.04376Q156.43503 315.5125 156.43503 314.6844Q156.43503 313.7 157.18503 313.15314Q157.93503 312.60626 159.31003 312.60626L160.3569 312.60626L160.3569 312.10626Q160.3569 311.54376 160.01315 311.21564Q159.68503 310.8719 159.01315 310.8719Q158.43503 310.8719 158.0444 311.16876Q157.65378 311.45 157.65378 311.8719L156.56003 311.8719Q156.56003 311.3875 156.88815 310.95Q157.2319 310.5125 157.81003 310.2625Q158.38815 309.9969 159.07565 309.9969Q160.18503 309.9969 160.7944 310.54376Q161.4194 311.09064 161.45065 312.04376L161.45065 314.96564Q161.45065 315.84064 161.6694 316.35626L161.6694 316.45L160.52878 316.45ZM158.7319 315.6219Q159.24753 315.6219 159.70065 315.35626Q160.15378 315.09064 160.3569 314.66876L160.3569 313.3719L159.51315 313.3719Q157.51315 313.3719 157.51315 314.54376Q157.51315 315.04376 157.8569 315.34064Q158.20065 315.6219 158.7319 315.6219ZM164.63815 310.10626L164.6694 310.90314Q165.40378 309.9969 166.57565 309.9969Q168.59128 309.9969 168.6069 312.2625L168.6069 316.45L167.51315 316.45L167.51315 312.2469Q167.51315 311.575 167.20065 311.2469Q166.90378 310.91876 166.24753 310.91876Q165.71628 310.91876 165.31003 311.2Q164.9194 311.48126 164.70065 311.9344L164.70065 316.45L163.62253 316.45L163.62253 310.10626L164.63815 310.10626ZM177.52878 316.45Q177.43503 316.2625 177.37253 315.77814Q176.62253 316.575 175.57565 316.575Q174.63815 316.575 174.02878 316.04376Q173.43503 315.5125 173.43503 314.6844Q173.43503 313.7 174.18503 313.15314Q174.93503 312.60626 176.31003 312.60626L177.3569 312.60626L177.3569 312.10626Q177.3569 311.54376 177.01315 311.21564Q176.68503 310.8719 176.01315 310.8719Q175.43503 310.8719 175.0444 311.16876Q174.65378 311.45 174.65378 311.8719L173.56003 311.8719Q173.56003 311.3875 173.88815 310.95Q174.2319 310.5125 174.81003 310.2625Q175.38815 309.9969 176.07565 309.9969Q177.18503 309.9969 177.7944 310.54376Q178.4194 311.09064 178.45065 312.04376L178.45065 314.96564Q178.45065 315.84064 178.6694 316.35626L178.6694 316.45L177.52878 316.45ZM175.7319 315.6219Q176.24753 315.6219 176.70065 315.35626Q177.15378 315.09064 177.3569 314.66876L177.3569 313.3719L176.51315 313.3719Q174.51315 313.3719 174.51315 314.54376Q174.51315 315.04376 174.8569 315.34064Q175.20065 315.6219 175.7319 315.6219ZM183.3569 313.23126Q183.3569 311.7625 184.0444 310.8875Q184.7319 309.9969 185.8569 309.9969Q186.96628 309.9969 187.62253 310.7469L187.62253 307.45L188.70065 307.45L188.70065 316.45L187.70065 316.45L187.65378 315.7625Q186.99753 316.575 185.84128 316.575Q184.74753 316.575 184.0444 315.66876Q183.3569 314.7625 183.3569 313.3094L183.3569 313.23126ZM184.43503 313.35626Q184.43503 314.4344 184.87253 315.04376Q185.32565 315.65314 186.1069 315.65314Q187.13815 315.65314 187.62253 314.71564L187.62253 311.8094Q187.13815 310.91876 186.12253 310.91876Q185.32565 310.91876 184.87253 311.52814Q184.43503 312.1375 184.43503 313.35626ZM194.52878 316.45Q194.43503 316.2625 194.37253 315.77814Q193.62253 316.575 192.57565 316.575Q191.63815 316.575 191.02878 316.04376Q190.43503 315.5125 190.43503 314.6844Q190.43503 313.7 191.18503 313.15314Q191.93503 312.60626 193.31003 312.60626L194.3569 312.60626L194.3569 312.10626Q194.3569 311.54376 194.01315 311.21564Q193.68503 310.8719 193.01315 310.8719Q192.43503 310.8719 192.0444 311.16876Q191.65378 311.45 191.65378 311.8719L190.56003 311.8719Q190.56003 311.3875 190.88815 310.95Q191.2319 310.5125 191.81003 310.2625Q192.38815 309.9969 193.07565 309.9969Q194.18503 309.9969 194.7944 310.54376Q195.4194 311.09064 195.45065 312.04376L195.45065 314.96564Q195.45065 315.84064 195.6694 316.35626L195.6694 316.45L194.52878 316.45ZM192.7319 315.6219Q193.24753 315.6219 193.70065 315.35626Q194.15378 315.09064 194.3569 314.66876L194.3569 313.3719L193.51315 313.3719Q191.51315 313.3719 191.51315 314.54376Q191.51315 315.04376 191.8569 315.34064Q192.20065 315.6219 192.7319 315.6219ZM199.68503 314.85626L201.1694 310.10626L202.32565 310.10626L199.77878 317.4344Q199.18503 319.0125 197.90378 319.0125L197.68503 318.9969L197.2944 318.91876L197.2944 318.04376L197.57565 318.0594Q198.13815 318.0594 198.43503 317.84064Q198.74753 317.6219 198.95065 317.02814L199.18503 316.3719L196.9194 310.10626L198.1069 310.10626L199.68503 314.85626Z" fill-rule="nonzero"/><path fill="#000000" d="M237.5222 315.52814L241.56908 315.52814L241.56908 316.45L236.38158 316.45L236.38158 307.91876L237.5222 307.91876L237.5222 315.52814ZM244.85033 316.575Q243.55345 316.575 242.74095 315.73126Q241.94408 314.8719 241.94408 313.45L241.94408 313.2625Q241.94408 312.3094 242.30345 311.575Q242.66283 310.825 243.30345 310.41876Q243.9597 309.9969 244.7097 309.9969Q245.94408 309.9969 246.63158 310.8094Q247.31908 311.6219 247.31908 313.1375L247.31908 313.59064L243.0222 313.59064Q243.05345 314.52814 243.56908 315.10626Q244.10033 315.6844 244.91283 315.6844Q245.47533 315.6844 245.86595 315.45Q246.2722 315.21564 246.5847 314.825L247.24095 315.34064Q246.44408 316.575 244.85033 316.575ZM244.7097 310.8875Q244.05345 310.8875 243.60033 311.3719Q243.16283 311.84064 243.06908 312.7L246.24095 312.7L246.24095 312.6219Q246.19408 311.79376 245.78783 311.34064Q245.3972 310.8875 244.7097 310.8875ZM251.91283 314.7625Q251.91283 314.325 251.56908 314.09064Q251.24095 313.84064 250.41283 313.66876Q249.60033 313.4969 249.11595 313.2469Q248.63158 312.9969 248.3972 312.66876Q248.17845 312.325 248.17845 311.85626Q248.17845 311.075 248.8347 310.54376Q249.49095 309.9969 250.5222 309.9969Q251.60033 309.9969 252.25658 310.5594Q252.92845 311.10626 252.92845 311.96564L251.85033 311.96564Q251.85033 311.52814 251.4597 311.21564Q251.0847 310.8875 250.5222 310.8875Q249.92845 310.8875 249.5847 311.15314Q249.25658 311.40314 249.25658 311.8094Q249.25658 312.2 249.56908 312.40314Q249.88158 312.60626 250.69408 312.79376Q251.50658 312.96564 252.00658 313.21564Q252.50658 313.46564 252.74095 313.825Q252.99095 314.1844 252.99095 314.6844Q252.99095 315.54376 252.30345 316.0594Q251.63158 316.575 250.55345 316.575Q249.78783 316.575 249.19408 316.3094Q248.61595 316.02814 248.28783 315.54376Q247.9597 315.0594 247.9597 314.4969L249.03783 314.4969Q249.06908 315.04376 249.47533 315.3719Q249.88158 315.6844 250.55345 315.6844Q251.16283 315.6844 251.53783 315.4344Q251.91283 315.1844 251.91283 314.7625ZM257.91284 314.7625Q257.91284 314.325 257.5691 314.09064Q257.24097 313.84064 256.41284 313.66876Q255.60033 313.4969 255.11595 313.2469Q254.63158 312.9969 254.3972 312.66876Q254.17845 312.325 254.17845 311.85626Q254.17845 311.075 254.8347 310.54376Q255.49095 309.9969 256.52222 309.9969Q257.60034 309.9969 258.2566 310.5594Q258.92847 311.10626 258.92847 311.96564L257.85034 311.96564Q257.85034 311.52814 257.45972 311.21564Q257.08472 310.8875 256.52222 310.8875Q255.92845 310.8875 255.5847 311.15314Q255.25658 311.40314 255.25658 311.8094Q255.25658 312.2 255.56908 312.40314Q255.88158 312.60626 256.6941 312.79376Q257.5066 312.96564 258.0066 313.21564Q258.5066 313.46564 258.74097 313.825Q258.99097 314.1844 258.99097 314.6844Q258.99097 315.54376 258.30347 316.0594Q257.6316 316.575 256.55347 316.575Q255.78783 316.575 255.19408 316.3094Q254.61595 316.02814 254.28783 315.54376Q253.9597 315.0594 253.9597 314.4969L255.03783 314.4969Q255.06908 315.04376 255.47533 315.3719Q255.88158 315.6844 256.55347 315.6844Q257.16284 315.6844 257.53784 315.4344Q257.91284 315.1844 257.91284 314.7625ZM264.6941 308.575L264.6941 310.10626L265.86597 310.10626L265.86597 310.95L264.6941 310.95L264.6941 314.8719Q264.6941 315.2625 264.85034 315.45Q265.0066 315.6375 265.3816 315.6375Q265.5691 315.6375 265.89722 315.575L265.89722 316.45Q265.47534 316.575 265.0691 316.575Q264.35034 316.575 263.97534 316.1375Q263.60034 315.6844 263.60034 314.8719L263.60034 310.95L262.4441 310.95L262.4441 310.10626L263.60034 310.10626L263.60034 308.575L264.6941 308.575ZM268.30347 310.8719Q269.02222 309.9969 270.17847 309.9969Q272.1941 309.9969 272.20972 312.2625L272.20972 316.45L271.11597 316.45L271.11597 312.2469Q271.11597 311.575 270.80347 311.2469Q270.5066 310.91876 269.85034 310.91876Q269.3191 310.91876 268.91284 311.2Q268.52222 311.48126 268.30347 311.9344L268.30347 316.45L267.22534 316.45L267.22534 307.45L268.30347 307.45L268.30347 310.8719ZM278.1316 316.45Q278.03784 316.2625 277.97534 315.77814Q277.22534 316.575 276.17847 316.575Q275.24097 316.575 274.6316 316.04376Q274.03784 315.5125 274.03784 314.6844Q274.03784 313.7 274.78784 313.15314Q275.53784 312.60626 276.91284 312.60626L277.95972 312.60626L277.95972 312.10626Q277.95972 311.54376 277.61597 311.21564Q277.28784 310.8719 276.61597 310.8719Q276.03784 310.8719 275.64722 311.16876Q275.2566 311.45 275.2566 311.8719L274.16284 311.8719Q274.16284 311.3875 274.49097 310.95Q274.83472 310.5125 275.41284 310.2625Q275.99097 309.9969 276.67847 309.9969Q277.78784 309.9969 278.39722 310.54376Q279.02222 311.09064 279.05347 312.04376L279.05347 314.96564Q279.05347 315.84064 279.27222 316.35626L279.27222 316.45L278.1316 316.45ZM276.33472 315.6219Q276.85034 315.6219 277.30347 315.35626Q277.7566 315.09064 277.95972 314.66876L277.95972 313.3719L277.11597 313.3719Q275.11597 313.3719 275.11597 314.54376Q275.11597 315.04376 275.45972 315.34064Q275.80347 315.6219 276.33472 315.6219ZM282.24097 310.10626L282.27222 310.90314Q283.0066 309.9969 284.17847 309.9969Q286.1941 309.9969 286.20972 312.2625L286.20972 316.45L285.11597 316.45L285.11597 312.2469Q285.11597 311.575 284.80347 311.2469Q284.5066 310.91876 283.85034 310.91876Q283.3191 310.91876 282.91284 311.2Q282.52222 311.48126 282.30347 311.9344L282.30347 316.45L281.22534 316.45L281.22534 310.10626L282.24097 310.10626ZM295.1316 316.45Q295.03784 316.2625 294.97534 315.77814Q294.22534 316.575 293.17847 316.575Q292.24097 316.575 291.6316 316.04376Q291.03784 315.5125 291.03784 314.6844Q291.03784 313.7 291.78784 313.15314Q292.53784 312.60626 293.91284 312.60626L294.95972 312.60626L294.95972 312.10626Q294.95972 311.54376 294.61597 311.21564Q294.28784 310.8719 293.61597 310.8719Q293.03784 310.8719 292.64722 311.16876Q292.2566 311.45 292.2566 311.8719L291.16284 311.8719Q291.16284 311.3875 291.49097 310.95Q291.83472 310.5125 292.41284 310.2625Q292.99097 309.9969 293.67847 309.9969Q294.78784 309.9969 295.39722 310.54376Q296.02222 311.09064 296.05347 312.04376L296.05347 314.96564Q296.05347 315.84064 296.27222 316.35626L296.27222 316.45L295.1316 316.45ZM293.33472 315.6219Q293.85034 315.6219 294.30347 315.35626Q294.7566 315.09064 294.95972 314.66876L294.95972 313.3719L294.11597 313.3719Q292.11597 313.3719 292.11597 314.54376Q292.11597 315.04376 292.45972 315.34064Q292.80347 315.6219 293.33472 315.6219ZM306.83472 314.95L308.05347 310.10626L309.1316 310.10626L307.28784 316.45L306.41284 316.45L304.86597 311.6375L303.36597 316.45L302.49097 316.45L300.64722 310.10626L301.72534 310.10626L302.97534 314.85626L304.45972 310.10626L305.3191 310.10626L306.83472 314.95ZM312.85034 316.575Q311.55347 316.575 310.74097 315.73126Q309.9441 314.8719 309.9441 313.45L309.9441 313.2625Q309.9441 312.3094 310.30347 311.575Q310.66284 310.825 311.30347 310.41876Q311.95972 309.9969 312.70972 309.9969Q313.9441 309.9969 314.6316 310.8094Q315.3191 311.6219 315.3191 313.1375L315.3191 313.59064L311.02222 313.59064Q311.05347 314.52814 311.5691 315.10626Q312.10034 315.6844 312.91284 315.6844Q313.47534 315.6844 313.86597 315.45Q314.27222 315.21564 314.58472 314.825L315.24097 315.34064Q314.4441 316.575 312.85034 316.575ZM312.70972 310.8875Q312.05347 310.8875 311.60034 311.3719Q311.16284 311.84064 311.0691 312.7L314.24097 312.7L314.24097 312.6219Q314.1941 311.79376 313.78784 311.34064Q313.39722 310.8875 312.70972 310.8875ZM318.85034 316.575Q317.55347 316.575 316.74097 315.73126Q315.9441 314.8719 315.9441 313.45L315.9441 313.2625Q315.9441 312.3094 316.30347 311.575Q316.66284 310.825 317.30347 310.41876Q317.95972 309.9969 318.70972 309.9969Q319.9441 309.9969 320.6316 310.8094Q321.3191 311.6219 321.3191 313.1375L321.3191 313.59064L317.02222 313.59064Q317.05347 314.52814 317.5691 315.10626Q318.10034 315.6844 318.91284 315.6844Q319.47534 315.6844 319.86597 315.45Q320.27222 315.21564 320.58472 314.825L321.24097 315.34064Q320.4441 316.575 318.85034 316.575ZM318.70972 310.8875Q318.05347 310.8875 317.60034 311.3719Q317.16284 311.84064 317.0691 312.7L320.24097 312.7L320.24097 312.6219Q320.1941 311.79376 319.78784 311.34064Q319.39722 310.8875 318.70972 310.8875ZM323.99097 313.5125L323.30347 314.21564L323.30347 316.45L322.22534 316.45L322.22534 307.45L323.30347 307.45L323.30347 312.8875L323.8816 312.2L325.86597 310.10626L327.17847 310.10626L324.70972 312.7625L327.47534 316.45L326.1941 316.45L323.99097 313.5125Z" fill-rule="nonzero"/><path fill="#000000" d="M354.125 315.52814L358.17188 315.52814L358.17188 316.45L352.98438 316.45L352.98438 307.91876L354.125 307.91876L354.125 315.52814ZM361.45312 316.575Q360.15625 316.575 359.34375 315.73126Q358.54688 314.8719 358.54688 313.45L358.54688 313.2625Q358.54688 312.3094 358.90625 311.575Q359.26562 310.825 359.90625 310.41876Q360.5625 309.9969 361.3125 309.9969Q362.54688 309.9969 363.23438 310.8094Q363.92188 311.6219 363.92188 313.1375L363.92188 313.59064L359.625 313.59064Q359.65625 314.52814 360.17188 315.10626Q360.70312 315.6844 361.51562 315.6844Q362.07812 315.6844 362.46875 315.45Q362.875 315.21564 363.1875 314.825L363.84375 315.34064Q363.04688 316.575 361.45312 316.575ZM361.3125 310.8875Q360.65625 310.8875 360.20312 311.3719Q359.76562 311.84064 359.67188 312.7L362.84375 312.7L362.84375 312.6219Q362.79688 311.79376 362.39062 311.34064Q362.0 310.8875 361.3125 310.8875ZM368.51562 314.7625Q368.51562 314.325 368.17188 314.09064Q367.84375 313.84064 367.01562 313.66876Q366.20312 313.4969 365.71875 313.2469Q365.23438 312.9969 365.0 312.66876Q364.78125 312.325 364.78125 311.85626Q364.78125 311.075 365.4375 310.54376Q366.09375 309.9969 367.125 309.9969Q368.20312 309.9969 368.85938 310.5594Q369.53125 311.10626 369.53125 311.96564L368.45312 311.96564Q368.45312 311.52814 368.0625 311.21564Q367.6875 310.8875 367.125 310.8875Q366.53125 310.8875 366.1875 311.15314Q365.85938 311.40314 365.85938 311.8094Q365.85938 312.2 366.17188 312.40314Q366.48438 312.60626 367.29688 312.79376Q368.10938 312.96564 368.60938 313.21564Q369.10938 313.46564 369.34375 313.825Q369.59375 314.1844 369.59375 314.6844Q369.59375 315.54376 368.90625 316.0594Q368.23438 316.575 367.15625 316.575Q366.39062 316.575 365.79688 316.3094Q365.21875 316.02814 364.89062 315.54376Q364.5625 315.0594 364.5625 314.4969L365.64062 314.4969Q365.67188 315.04376 366.07812 315.3719Q366.48438 315.6844 367.15625 315.6844Q367.76562 315.6844 368.14062 315.4344Q368.51562 315.1844 368.51562 314.7625ZM374.51562 314.7625Q374.51562 314.325 374.17188 314.09064Q373.84375 313.84064 373.01562 313.66876Q372.20312 313.4969 371.71875 313.2469Q371.23438 312.9969 371.0 312.66876Q370.78125 312.325 370.78125 311.85626Q370.78125 311.075 371.4375 310.54376Q372.09375 309.9969 373.125 309.9969Q374.20312 309.9969 374.85938 310.5594Q375.53125 311.10626 375.53125 311.96564L374.45312 311.96564Q374.45312 311.52814 374.0625 311.21564Q373.6875 310.8875 373.125 310.8875Q372.53125 310.8875 372.1875 311.15314Q371.85938 311.40314 371.85938 311.8094Q371.85938 312.2 372.17188 312.40314Q372.48438 312.60626 373.29688 312.79376Q374.10938 312.96564 374.60938 313.21564Q375.10938 313.46564 375.34375 313.825Q375.59375 314.1844 375.59375 314.6844Q375.59375 315.54376 374.90625 316.0594Q374.23438 316.575 373.15625 316.575Q372.39062 316.575 371.79688 316.3094Q371.21875 316.02814 370.89062 315.54376Q370.5625 315.0594 370.5625 314.4969L371.64062 314.4969Q371.67188 315.04376 372.07812 315.3719Q372.48438 315.6844 373.15625 315.6844Q373.76562 315.6844 374.14062 315.4344Q374.51562 315.1844 374.51562 314.7625ZM381.29688 308.575L381.29688 310.10626L382.46875 310.10626L382.46875 310.95L381.29688 310.95L381.29688 314.8719Q381.29688 315.2625 381.45312 315.45Q381.60938 315.6375 381.98438 315.6375Q382.17188 315.6375 382.5 315.575L382.5 316.45Q382.07812 316.575 381.67188 316.575Q380.95312 316.575 380.57812 316.1375Q380.20312 315.6844 380.20312 314.8719L380.20312 310.95L379.04688 310.95L379.04688 310.10626L380.20312 310.10626L380.20312 308.575L381.29688 308.575ZM384.90625 310.8719Q385.625 309.9969 386.78125 309.9969Q388.79688 309.9969 388.8125 312.2625L388.8125 316.45L387.71875 316.45L387.71875 312.2469Q387.71875 311.575 387.40625 311.2469Q387.10938 310.91876 386.45312 310.91876Q385.92188 310.91876 385.51562 311.2Q385.125 311.48126 384.90625 311.9344L384.90625 316.45L383.82812 316.45L383.82812 307.45L384.90625 307.45L384.90625 310.8719ZM394.73438 316.45Q394.64062 316.2625 394.57812 315.77814Q393.82812 316.575 392.78125 316.575Q391.84375 316.575 391.23438 316.04376Q390.64062 315.5125 390.64062 314.6844Q390.64062 313.7 391.39062 313.15314Q392.14062 312.60626 393.51562 312.60626L394.5625 312.60626L394.5625 312.10626Q394.5625 311.54376 394.21875 311.21564Q393.89062 310.8719 393.21875 310.8719Q392.64062 310.8719 392.25 311.16876Q391.85938 311.45 391.85938 311.8719L390.76562 311.8719Q390.76562 311.3875 391.09375 310.95Q391.4375 310.5125 392.01562 310.2625Q392.59375 309.9969 393.28125 309.9969Q394.39062 309.9969 395.0 310.54376Q395.625 311.09064 395.65625 312.04376L395.65625 314.96564Q395.65625 315.84064 395.875 316.35626L395.875 316.45L394.73438 316.45ZM392.9375 315.6219Q393.45312 315.6219 393.90625 315.35626Q394.35938 315.09064 394.5625 314.66876L394.5625 313.3719L393.71875 313.3719Q391.71875 313.3719 391.71875 314.54376Q391.71875 315.04376 392.0625 315.34064Q392.40625 315.6219 392.9375 315.6219ZM398.84375 310.10626L398.875 310.90314Q399.60938 309.9969 400.78125 309.9969Q402.79688 309.9969 402.8125 312.2625L402.8125 316.45L401.71875 316.45L401.71875 312.2469Q401.71875 311.575 401.40625 311.2469Q401.10938 310.91876 400.45312 310.91876Q399.92188 310.91876 399.51562 311.2Q399.125 311.48126 398.90625 311.9344L398.90625 316.45L397.82812 316.45L397.82812 310.10626L398.84375 310.10626ZM411.73438 316.45Q411.64062 316.2625 411.57812 315.77814Q410.82812 316.575 409.78125 316.575Q408.84375 316.575 408.23438 316.04376Q407.64062 315.5125 407.64062 314.6844Q407.64062 313.7 408.39062 313.15314Q409.14062 312.60626 410.51562 312.60626L411.5625 312.60626L411.5625 312.10626Q411.5625 311.54376 411.21875 311.21564Q410.89062 310.8719 410.21875 310.8719Q409.64062 310.8719 409.25 311.16876Q408.85938 311.45 408.85938 311.8719L407.76562 311.8719Q407.76562 311.3875 408.09375 310.95Q408.4375 310.5125 409.01562 310.2625Q409.59375 309.9969 410.28125 309.9969Q411.39062 309.9969 412.0 310.54376Q412.625 311.09064 412.65625 312.04376L412.65625 314.96564Q412.65625 315.84064 412.875 316.35626L412.875 316.45L411.73438 316.45ZM409.9375 315.6219Q410.45312 315.6219 410.90625 315.35626Q411.35938 315.09064 411.5625 314.66876L411.5625 313.3719L410.71875 313.3719Q408.71875 313.3719 408.71875 314.54376Q408.71875 315.04376 409.0625 315.34064Q409.40625 315.6219 409.9375 315.6219ZM418.84375 310.10626L418.875 310.8094Q419.5625 309.9969 420.75 309.9969Q422.07812 309.9969 422.5625 311.0125Q422.875 310.5594 423.375 310.27814Q423.89062 309.9969 424.57812 309.9969Q426.67188 309.9969 426.70312 312.2L426.70312 316.45L425.625 316.45L425.625 312.2625Q425.625 311.59064 425.3125 311.2625Q425.0 310.91876 424.26562 310.91876Q423.65625 310.91876 423.25 311.27814Q422.85938 311.6375 422.79688 312.2469L422.79688 316.45L421.71875 316.45L421.71875 312.29376Q421.71875 310.91876 420.35938 310.91876Q419.29688 310.91876 418.90625 311.825L418.90625 316.45L417.8125 316.45L417.8125 310.10626L418.84375 310.10626ZM428.53125 313.21564Q428.53125 312.29376 428.89062 311.54376Q429.26562 310.79376 429.92188 310.40314Q430.57812 309.9969 431.40625 309.9969Q432.70312 309.9969 433.5 310.8875Q434.3125 311.77814 434.3125 313.27814L434.3125 313.35626Q434.3125 314.27814 433.95312 315.0125Q433.59375 315.7469 432.9375 316.16876Q432.28125 316.575 431.42188 316.575Q430.14062 316.575 429.32812 315.6844Q428.53125 314.77814 428.53125 313.29376L428.53125 313.21564ZM429.625 313.35626Q429.625 314.40314 430.10938 315.04376Q430.60938 315.6844 431.42188 315.6844Q432.25 315.6844 432.73438 315.04376Q433.21875 314.3875 433.21875 313.21564Q433.21875 312.1844 432.71875 311.54376Q432.23438 310.8875 431.40625 310.8875Q430.60938 310.8875 430.10938 311.52814Q429.625 312.15314 429.625 313.35626ZM436.84375 310.10626L436.875 310.90314Q437.60938 309.9969 438.78125 309.9969Q440.79688 309.9969 440.8125 312.2625L440.8125 316.45L439.71875 316.45L439.71875 312.2469Q439.71875 311.575 439.40625 311.2469Q439.10938 310.91876 438.45312 310.91876Q437.92188 310.91876 437.51562 311.2Q437.125 311.48126 436.90625 311.9344L436.90625 316.45L435.82812 316.45L435.82812 310.10626L436.84375 310.10626ZM444.29688 308.575L444.29688 310.10626L445.46875 310.10626L445.46875 310.95L444.29688 310.95L444.29688 314.8719Q444.29688 315.2625 444.45312 315.45Q444.60938 315.6375 444.98438 315.6375Q445.17188 315.6375 445.5 315.575L445.5 316.45Q445.07812 316.575 444.67188 316.575Q443.95312 316.575 443.57812 316.1375Q443.20312 315.6844 443.20312 314.8719L443.20312 310.95L442.04688 310.95L442.04688 310.10626L443.20312 310.10626L443.20312 308.575L444.29688 308.575ZM447.90625 310.8719Q448.625 309.9969 449.78125 309.9969Q451.79688 309.9969 451.8125 312.2625L451.8125 316.45L450.71875 316.45L450.71875 312.2469Q450.71875 311.575 450.40625 311.2469Q450.10938 310.91876 449.45312 310.91876Q448.92188 310.91876 448.51562 311.2Q448.125 311.48126 447.90625 311.9344L447.90625 316.45L446.82812 316.45L446.82812 307.45L447.90625 307.45L447.90625 310.8719Z" fill-rule="nonzero"/><path fill="#000000" d="M481.7278 315.52814L485.7747 315.52814L485.7747 316.45L480.5872 316.45L480.5872 307.91876L481.7278 307.91876L481.7278 315.52814ZM489.05594 316.575Q487.75906 316.575 486.94656 315.73126Q486.1497 314.8719 486.1497 313.45L486.1497 313.2625Q486.1497 312.3094 486.50906 311.575Q486.86844 310.825 487.50906 310.41876Q488.1653 309.9969 488.9153 309.9969Q490.1497 309.9969 490.8372 310.8094Q491.5247 311.6219 491.5247 313.1375L491.5247 313.59064L487.2278 313.59064Q487.25906 314.52814 487.7747 315.10626Q488.30594 315.6844 489.11844 315.6844Q489.68094 315.6844 490.07156 315.45Q490.4778 315.21564 490.7903 314.825L491.44656 315.34064Q490.6497 316.575 489.05594 316.575ZM488.9153 310.8875Q488.25906 310.8875 487.80594 311.3719Q487.36844 311.84064 487.2747 312.7L490.44656 312.7L490.44656 312.6219Q490.3997 311.79376 489.99344 311.34064Q489.6028 310.8875 488.9153 310.8875ZM496.11844 314.7625Q496.11844 314.325 495.7747 314.09064Q495.44656 313.84064 494.61844 313.66876Q493.80594 313.4969 493.32156 313.2469Q492.8372 312.9969 492.6028 312.66876Q492.38406 312.325 492.38406 311.85626Q492.38406 311.075 493.0403 310.54376Q493.69656 309.9969 494.7278 309.9969Q495.80594 309.9969 496.4622 310.5594Q497.13406 311.10626 497.13406 311.96564L496.05594 311.96564Q496.05594 311.52814 495.6653 311.21564Q495.2903 310.8875 494.7278 310.8875Q494.13406 310.8875 493.7903 311.15314Q493.4622 311.40314 493.4622 311.8094Q493.4622 312.2 493.7747 312.40314Q494.0872 312.60626 494.8997 312.79376Q495.7122 312.96564 496.2122 313.21564Q496.7122 313.46564 496.94656 313.825Q497.19656 314.1844 497.19656 314.6844Q497.19656 315.54376 496.50906 316.0594Q495.8372 316.575 494.75906 316.575Q493.99344 316.575 493.3997 316.3094Q492.82156 316.02814 492.49344 315.54376Q492.1653 315.0594 492.1653 314.4969L493.24344 314.4969Q493.2747 315.04376 493.68094 315.3719Q494.0872 315.6844 494.75906 315.6844Q495.36844 315.6844 495.74344 315.4344Q496.11844 315.1844 496.11844 314.7625ZM502.11844 314.7625Q502.11844 314.325 501.7747 314.09064Q501.44656 313.84064 500.61844 313.66876Q499.80594 313.4969 499.32156 313.2469Q498.8372 312.9969 498.6028 312.66876Q498.38406 312.325 498.38406 311.85626Q498.38406 311.075 499.0403 310.54376Q499.69656 309.9969 500.7278 309.9969Q501.80594 309.9969 502.4622 310.5594Q503.13406 311.10626 503.13406 311.96564L502.05594 311.96564Q502.05594 311.52814 501.6653 311.21564Q501.2903 310.8875 500.7278 310.8875Q500.13406 310.8875 499.7903 311.15314Q499.4622 311.40314 499.4622 311.8094Q499.4622 312.2 499.7747 312.40314Q500.0872 312.60626 500.8997 312.79376Q501.7122 312.96564 502.2122 313.21564Q502.7122 313.46564 502.94656 313.825Q503.19656 314.1844 503.19656 314.6844Q503.19656 315.54376 502.50906 316.0594Q501.8372 316.575 500.75906 316.575Q499.99344 316.575 499.3997 316.3094Q498.82156 316.02814 498.49344 315.54376Q498.1653 315.0594 498.1653 314.4969L499.24344 314.4969Q499.2747 315.04376 499.68094 315.3719Q500.0872 315.6844 500.75906 315.6844Q501.36844 315.6844 501.74344 315.4344Q502.11844 315.1844 502.11844 314.7625ZM508.8997 308.575L508.8997 310.10626L510.07156 310.10626L510.07156 310.95L508.8997 310.95L508.8997 314.8719Q508.8997 315.2625 509.05594 315.45Q509.2122 315.6375 509.5872 315.6375Q509.7747 315.6375 510.1028 315.575L510.1028 316.45Q509.68094 316.575 509.2747 316.575Q508.55594 316.575 508.18094 316.1375Q507.80594 315.6844 507.80594 314.8719L507.80594 310.95L506.6497 310.95L506.6497 310.10626L507.80594 310.10626L507.80594 308.575L508.8997 308.575ZM512.50903 310.8719Q513.2278 309.9969 514.38403 309.9969Q516.39966 309.9969 516.4153 312.2625L516.4153 316.45L515.32153 316.45L515.32153 312.2469Q515.32153 311.575 515.00903 311.2469Q514.71216 310.91876 514.0559 310.91876Q513.52466 310.91876 513.1184 311.2Q512.7278 311.48126 512.50903 311.9344L512.50903 316.45L511.43094 316.45L511.43094 307.45L512.50903 307.45L512.50903 310.8719ZM522.33716 316.45Q522.2434 316.2625 522.1809 315.77814Q521.4309 316.575 520.38403 316.575Q519.44653 316.575 518.83716 316.04376Q518.2434 315.5125 518.2434 314.6844Q518.2434 313.7 518.9934 313.15314Q519.7434 312.60626 521.1184 312.60626L522.1653 312.60626L522.1653 312.10626Q522.1653 311.54376 521.82153 311.21564Q521.4934 310.8719 520.82153 310.8719Q520.2434 310.8719 519.8528 311.16876Q519.46216 311.45 519.46216 311.8719L518.3684 311.8719Q518.3684 311.3875 518.69653 310.95Q519.0403 310.5125 519.6184 310.2625Q520.19653 309.9969 520.88403 309.9969Q521.9934 309.9969 522.6028 310.54376Q523.2278 311.09064 523.25903 312.04376L523.25903 314.96564Q523.25903 315.84064 523.4778 316.35626L523.4778 316.45L522.33716 316.45ZM520.5403 315.6219Q521.0559 315.6219 521.50903 315.35626Q521.96216 315.09064 522.1653 314.66876L522.1653 313.3719L521.32153 313.3719Q519.32153 313.3719 519.32153 314.54376Q519.32153 315.04376 519.6653 315.34064Q520.00903 315.6219 520.5403 315.6219ZM526.44653 310.10626L526.4778 310.90314Q527.21216 309.9969 528.38403 309.9969Q530.39966 309.9969 530.4153 312.2625L530.4153 316.45L529.32153 316.45L529.32153 312.2469Q529.32153 311.575 529.00903 311.2469Q528.71216 310.91876 528.0559 310.91876Q527.52466 310.91876 527.1184 311.2Q526.7278 311.48126 526.50903 311.9344L526.50903 316.45L525.4309 316.45L525.4309 310.10626L526.44653 310.10626ZM539.33716 316.45Q539.2434 316.2625 539.1809 315.77814Q538.4309 316.575 537.38403 316.575Q536.44653 316.575 535.83716 316.04376Q535.2434 315.5125 535.2434 314.6844Q535.2434 313.7 535.9934 313.15314Q536.7434 312.60626 538.1184 312.60626L539.1653 312.60626L539.1653 312.10626Q539.1653 311.54376 538.82153 311.21564Q538.4934 310.8719 537.82153 310.8719Q537.2434 310.8719 536.8528 311.16876Q536.46216 311.45 536.46216 311.8719L535.3684 311.8719Q535.3684 311.3875 535.69653 310.95Q536.0403 310.5125 536.6184 310.2625Q537.19653 309.9969 537.88403 309.9969Q538.9934 309.9969 539.6028 310.54376Q540.2278 311.09064 540.25903 312.04376L540.25903 314.96564Q540.25903 315.84064 540.4778 316.35626L540.4778 316.45L539.33716 316.45ZM537.5403 315.6219Q538.0559 315.6219 538.50903 315.35626Q538.96216 315.09064 539.1653 314.66876L539.1653 313.3719L538.32153 313.3719Q536.32153 313.3719 536.32153 314.54376Q536.32153 315.04376 536.6653 315.34064Q537.00903 315.6219 537.5403 315.6219ZM547.4934 314.85626L548.9778 310.10626L550.13403 310.10626L547.58716 317.4344Q546.9934 319.0125 545.71216 319.0125L545.4934 318.9969L545.1028 318.91876L545.1028 318.04376L545.38403 318.0594Q545.94653 318.0594 546.2434 317.84064Q546.5559 317.6219 546.75903 317.02814L546.9934 316.3719L544.7278 310.10626L545.9153 310.10626L547.4934 314.85626ZM554.0559 316.575Q552.75903 316.575 551.94653 315.73126Q551.14966 314.8719 551.14966 313.45L551.14966 313.2625Q551.14966 312.3094 551.50903 311.575Q551.8684 310.825 552.50903 310.41876Q553.1653 309.9969 553.9153 309.9969Q555.14966 309.9969 555.83716 310.8094Q556.52466 311.6219 556.52466 313.1375L556.52466 313.59064L552.2278 313.59064Q552.25903 314.52814 552.77466 315.10626Q553.3059 315.6844 554.1184 315.6844Q554.6809 315.6844 555.07153 315.45Q555.4778 315.21564 555.7903 314.825L556.44653 315.34064Q555.64966 316.575 554.0559 316.575ZM553.9153 310.8875Q553.25903 310.8875 552.8059 311.3719Q552.3684 311.84064 552.27466 312.7L555.44653 312.7L555.44653 312.6219Q555.39966 311.79376 554.9934 311.34064Q554.6028 310.8875 553.9153 310.8875ZM561.33716 316.45Q561.2434 316.2625 561.1809 315.77814Q560.4309 316.575 559.38403 316.575Q558.44653 316.575 557.83716 316.04376Q557.2434 315.5125 557.2434 314.6844Q557.2434 313.7 557.9934 313.15314Q558.7434 312.60626 560.1184 312.60626L561.1653 312.60626L561.1653 312.10626Q561.1653 311.54376 560.82153 311.21564Q560.4934 310.8719 559.82153 310.8719Q559.2434 310.8719 558.8528 311.16876Q558.46216 311.45 558.46216 311.8719L557.3684 311.8719Q557.3684 311.3875 557.69653 310.95Q558.0403 310.5125 558.6184 310.2625Q559.19653 309.9969 559.88403 309.9969Q560.9934 309.9969 561.6028 310.54376Q562.2278 311.09064 562.25903 312.04376L562.25903 314.96564Q562.25903 315.84064 562.4778 316.35626L562.4778 316.45L561.33716 316.45ZM559.5403 315.6219Q560.0559 315.6219 560.50903 315.35626Q560.96216 315.09064 561.1653 314.66876L561.1653 313.3719L560.32153 313.3719Q558.32153 313.3719 558.32153 314.54376Q558.32153 315.04376 558.6653 315.34064Q559.00903 315.6219 559.5403 315.6219ZM567.4934 311.075Q567.2434 311.04376 566.96216 311.04376Q565.88403 311.04376 565.50903 311.95L565.50903 316.45L564.4309 316.45L564.4309 310.10626L565.4778 310.10626L565.4934 310.84064Q566.02466 309.9969 567.00903 309.9969Q567.32153 309.9969 567.4934 310.075L567.4934 311.075Z" fill-rule="nonzero"/><path fill="#000000" d="M601.6431 307.91876L604.44 314.8719L607.22125 307.91876L608.69 307.91876L608.69 316.45L607.565 316.45L607.565 313.1219L607.6744 309.54376L604.8619 316.45L604.0025 316.45L601.2056 309.5594L601.315 313.1219L601.315 316.45L600.19 316.45L600.19 307.91876L601.6431 307.91876ZM609.7369 313.21564Q609.7369 312.29376 610.09625 311.54376Q610.47125 310.79376 611.1275 310.40314Q611.78375 309.9969 612.6119 309.9969Q613.90875 309.9969 614.7056 310.8875Q615.5181 311.77814 615.5181 313.27814L615.5181 313.35626Q615.5181 314.27814 615.15875 315.0125Q614.7994 315.7469 614.1431 316.16876Q613.4869 316.575 612.6275 316.575Q611.34625 316.575 610.53375 315.6844Q609.7369 314.77814 609.7369 313.29376L609.7369 313.21564ZM610.8306 313.35626Q610.8306 314.40314 611.315 315.04376Q611.815 315.6844 612.6275 315.6844Q613.4556 315.6844 613.94 315.04376Q614.4244 314.3875 614.4244 313.21564Q614.4244 312.1844 613.9244 311.54376Q613.44 310.8875 612.6119 310.8875Q611.815 310.8875 611.315 311.52814Q610.8306 312.15314 610.8306 313.35626ZM620.09625 311.075Q619.84625 311.04376 619.565 311.04376Q618.4869 311.04376 618.1119 311.95L618.1119 316.45L617.03375 316.45L617.03375 310.10626L618.0806 310.10626L618.09625 310.84064Q618.6275 309.9969 619.6119 309.9969Q619.9244 309.9969 620.09625 310.075L620.09625 311.075ZM623.65875 316.575Q622.3619 316.575 621.5494 315.73126Q620.7525 314.8719 620.7525 313.45L620.7525 313.2625Q620.7525 312.3094 621.1119 311.575Q621.47125 310.825 622.1119 310.41876Q622.7681 309.9969 623.5181 309.9969Q624.7525 309.9969 625.44 310.8094Q626.1275 311.6219 626.1275 313.1375L626.1275 313.59064L621.8306 313.59064Q621.8619 314.52814 622.3775 315.10626Q622.90875 315.6844 623.72125 315.6844Q624.28375 315.6844 624.6744 315.45Q625.0806 315.21564 625.3931 314.825L626.0494 315.34064Q625.2525 316.575 623.65875 316.575ZM623.5181 310.8875Q622.8619 310.8875 622.40875 311.3719Q621.97125 311.84064 621.8775 312.7L625.0494 312.7L625.0494 312.6219Q625.0025 311.79376 624.59625 311.34064Q624.2056 310.8875 623.5181 310.8875ZM631.5025 308.575L631.5025 310.10626L632.6744 310.10626L632.6744 310.95L631.5025 310.95L631.5025 314.8719Q631.5025 315.2625 631.65875 315.45Q631.815 315.6375 632.19 315.6375Q632.3775 315.6375 632.7056 315.575L632.7056 316.45Q632.28375 316.575 631.8775 316.575Q631.15875 316.575 630.78375 316.1375Q630.40875 315.6844 630.40875 314.8719L630.40875 310.95L629.2525 310.95L629.2525 310.10626L630.40875 310.10626L630.40875 308.575L631.5025 308.575ZM635.1119 310.8719Q635.8306 309.9969 636.9869 309.9969Q639.0025 309.9969 639.0181 312.2625L639.0181 316.45L637.9244 316.45L637.9244 312.2469Q637.9244 311.575 637.6119 311.2469Q637.315 310.91876 636.65875 310.91876Q636.1275 310.91876 635.72125 311.2Q635.3306 311.48126 635.1119 311.9344L635.1119 316.45L634.03375 316.45L634.03375 307.45L635.1119 307.45L635.1119 310.8719ZM644.94 316.45Q644.84625 316.2625 644.78375 315.77814Q644.03375 316.575 642.9869 316.575Q642.0494 316.575 641.44 316.04376Q640.84625 315.5125 640.84625 314.6844Q640.84625 313.7 641.59625 313.15314Q642.34625 312.60626 643.72125 312.60626L644.7681 312.60626L644.7681 312.10626Q644.7681 311.54376 644.4244 311.21564Q644.09625 310.8719 643.4244 310.8719Q642.84625 310.8719 642.4556 311.16876Q642.065 311.45 642.065 311.8719L640.97125 311.8719Q640.97125 311.3875 641.2994 310.95Q641.6431 310.5125 642.22125 310.2625Q642.7994 309.9969 643.4869 309.9969Q644.59625 309.9969 645.2056 310.54376Q645.8306 311.09064 645.8619 312.04376L645.8619 314.96564Q645.8619 315.84064 646.0806 316.35626L646.0806 316.45L644.94 316.45ZM643.1431 315.6219Q643.65875 315.6219 644.1119 315.35626Q644.565 315.09064 644.7681 314.66876L644.7681 313.3719L643.9244 313.3719Q641.9244 313.3719 641.9244 314.54376Q641.9244 315.04376 642.2681 315.34064Q642.6119 315.6219 643.1431 315.6219ZM649.0494 310.10626L649.0806 310.90314Q649.815 309.9969 650.9869 309.9969Q653.0025 309.9969 653.0181 312.2625L653.0181 316.45L651.9244 316.45L651.9244 312.2469Q651.9244 311.575 651.6119 311.2469Q651.315 310.91876 650.65875 310.91876Q650.1275 310.91876 649.72125 311.2Q649.3306 311.48126 649.1119 311.9344L649.1119 316.45L648.03375 316.45L648.03375 310.10626L649.0494 310.10626ZM661.94 316.45Q661.84625 316.2625 661.78375 315.77814Q661.03375 316.575 659.9869 316.575Q659.0494 316.575 658.44 316.04376Q657.84625 315.5125 657.84625 314.6844Q657.84625 313.7 658.59625 313.15314Q659.34625 312.60626 660.72125 312.60626L661.7681 312.60626L661.7681 312.10626Q661.7681 311.54376 661.4244 311.21564Q661.09625 310.8719 660.4244 310.8719Q659.84625 310.8719 659.4556 311.16876Q659.065 311.45 659.065 311.8719L657.97125 311.8719Q657.97125 311.3875 658.2994 310.95Q658.6431 310.5125 659.22125 310.2625Q659.7994 309.9969 660.4869 309.9969Q661.59625 309.9969 662.2056 310.54376Q662.8306 311.09064 662.8619 312.04376L662.8619 314.96564Q662.8619 315.84064 663.0806 316.35626L663.0806 316.45L661.94 316.45ZM660.1431 315.6219Q660.65875 315.6219 661.1119 315.35626Q661.565 315.09064 661.7681 314.66876L661.7681 313.3719L660.9244 313.3719Q658.9244 313.3719 658.9244 314.54376Q658.9244 315.04376 659.2681 315.34064Q659.6119 315.6219 660.1431 315.6219ZM670.09625 314.85626L671.5806 310.10626L672.7369 310.10626L670.19 317.4344Q669.59625 319.0125 668.315 319.0125L668.09625 318.9969L667.7056 318.91876L667.7056 318.04376L667.9869 318.0594Q668.5494 318.0594 668.84625 317.84064Q669.15875 317.6219 669.3619 317.02814L669.59625 316.3719L667.3306 310.10626L668.5181 310.10626L670.09625 314.85626ZM676.65875 316.575Q675.3619 316.575 674.5494 315.73126Q673.7525 314.8719 673.7525 313.45L673.7525 313.2625Q673.7525 312.3094 674.1119 311.575Q674.47125 310.825 675.1119 310.41876Q675.7681 309.9969 676.5181 309.9969Q677.7525 309.9969 678.44 310.8094Q679.1275 311.6219 679.1275 313.1375L679.1275 313.59064L674.8306 313.59064Q674.8619 314.52814 675.3775 315.10626Q675.90875 315.6844 676.72125 315.6844Q677.28375 315.6844 677.6744 315.45Q678.0806 315.21564 678.3931 314.825L679.0494 315.34064Q678.2525 316.575 676.65875 316.575ZM676.5181 310.8875Q675.8619 310.8875 675.40875 311.3719Q674.97125 311.84064 674.8775 312.7L678.0494 312.7L678.0494 312.6219Q678.0025 311.79376 677.59625 311.34064Q677.2056 310.8875 676.5181 310.8875ZM683.94 316.45Q683.84625 316.2625 683.78375 315.77814Q683.03375 316.575 681.9869 316.575Q681.0494 316.575 680.44 316.04376Q679.84625 315.5125 679.84625 314.6844Q679.84625 313.7 680.59625 313.15314Q681.34625 312.60626 682.72125 312.60626L683.7681 312.60626L683.7681 312.10626Q683.7681 311.54376 683.4244 311.21564Q683.09625 310.8719 682.4244 310.8719Q681.84625 310.8719 681.4556 311.16876Q681.065 311.45 681.065 311.8719L679.97125 311.8719Q679.97125 311.3875 680.2994 310.95Q680.6431 310.5125 681.22125 310.2625Q681.7994 309.9969 682.4869 309.9969Q683.59625 309.9969 684.2056 310.54376Q684.8306 311.09064 684.8619 312.04376L684.8619 314.96564Q684.8619 315.84064 685.0806 316.35626L685.0806 316.45L683.94 316.45ZM682.1431 315.6219Q682.65875 315.6219 683.1119 315.35626Q683.565 315.09064 683.7681 314.66876L683.7681 313.3719L682.9244 313.3719Q680.9244 313.3719 680.9244 314.54376Q680.9244 315.04376 681.2681 315.34064Q681.6119 315.6219 682.1431 315.6219ZM690.09625 311.075Q689.84625 311.04376 689.565 311.04376Q688.4869 311.04376 688.1119 311.95L688.1119 316.45L687.03375 316.45L687.03375 310.10626L688.0806 310.10626L688.09625 310.84064Q688.6275 309.9969 689.6119 309.9969Q689.9244 309.9969 690.09625 310.075L690.09625 311.075Z" fill-rule="nonzero"/><path fill="#757575" d="M31.128124 37.55L29.2375 37.55L29.2375 30.971874L22.08125 30.971874L22.08125 37.55L20.20625 37.55L20.20625 23.33125L22.08125 23.33125L22.08125 29.440624L29.2375 29.440624L29.2375 23.33125L31.128124 23.33125L31.128124 37.55ZM33.440624 32.175Q33.440624 30.6125 34.05 29.378124Q34.659374 28.128124 35.7375 27.45625Q36.83125 26.784374 38.2375 26.784374Q40.39375 26.784374 41.721874 28.284374Q43.065624 29.76875 43.065624 32.253124L43.065624 32.378124Q43.065624 33.925 42.471874 35.159374Q41.878124 36.378124 40.76875 37.065624Q39.675 37.753124 38.253124 37.753124Q36.1125 37.753124 34.76875 36.253124Q33.440624 34.753124 33.440624 32.3L33.440624 32.175ZM35.253124 32.378124Q35.253124 34.14375 36.065624 35.20625Q36.89375 36.26875 38.253124 36.26875Q39.628124 36.26875 40.440624 35.190624Q41.253124 34.1125 41.253124 32.175Q41.253124 30.425 40.425 29.346874Q39.596874 28.26875 38.2375 28.26875Q36.89375 28.26875 36.065624 29.33125Q35.253124 30.39375 35.253124 32.378124ZM54.26875 35.065624L56.3 26.9875L58.1125 26.9875L55.034374 37.55L53.565624 37.55L51.003124 29.534374L48.503124 37.55L47.034374 37.55L43.971874 26.9875L45.76875 26.9875L47.846874 34.89375L50.315624 26.9875L51.76875 26.9875L54.26875 35.065624ZM66.87813 37.55L65.08125 37.55L65.08125 22.55L66.87813 22.55L66.87813 37.55ZM69.44063 32.175Q69.44063 30.6125 70.05 29.378124Q70.65938 28.128124 71.7375 27.45625Q72.83125 26.784374 74.2375 26.784374Q76.39375 26.784374 77.72188 28.284374Q79.06563 29.76875 79.06563 32.253124L79.06563 32.378124Q79.06563 33.925 78.47188 35.159374Q77.87813 36.378124 76.76875 37.065624Q75.675 37.753124 74.25313 37.753124Q72.1125 37.753124 70.76875 36.253124Q69.44063 34.753124 69.44063 32.3L69.44063 32.175ZM71.25313 32.378124Q71.25313 34.14375 72.06563 35.20625Q72.89375 36.26875 74.25313 36.26875Q75.62813 36.26875 76.44063 35.190624Q77.25313 34.1125 77.25313 32.175Q77.25313 30.425 76.425 29.346874Q75.59688 28.26875 74.2375 28.26875Q72.89375 28.26875 72.06563 29.33125Q71.25313 30.39375 71.25313 32.378124ZM82.62813 26.9875L82.69063 28.315624Q83.89375 26.784374 85.84688 26.784374Q89.20625 26.784374 89.22188 30.565624L89.22188 37.55L87.425 37.55L87.425 30.55Q87.40938 29.409374 86.89375 28.8625Q86.39375 28.315624 85.3 28.315624Q84.425 28.315624 83.75313 28.784374Q83.09688 29.253124 82.72188 30.01875L82.72188 37.55L80.925 37.55L80.925 26.9875L82.62813 26.9875ZM91.4875 32.175Q91.4875 29.70625 92.62813 28.253124Q93.76875 26.784374 95.65938 26.784374Q97.59688 26.784374 98.675 28.159374L98.76875 26.9875L100.40938 26.9875L100.40938 37.3Q100.40938 39.346874 99.19063 40.51875Q97.9875 41.70625 95.925 41.70625Q94.78438 41.70625 93.69063 41.221874Q92.59688 40.7375 92.01875 39.878124L92.95625 38.8Q94.12813 40.2375 95.8 40.2375Q97.12813 40.2375 97.8625 39.4875Q98.59688 38.753124 98.59688 37.409374L98.59688 36.4875Q97.51875 37.753124 95.64375 37.753124Q93.78438 37.753124 92.62813 36.253124Q91.4875 34.753124 91.4875 32.175ZM93.3 32.378124Q93.3 34.175 94.03438 35.190624Q94.76875 36.20625 96.08125 36.20625Q97.8 36.20625 98.59688 34.659374L98.59688 29.83125Q97.76875 28.315624 96.1125 28.315624Q94.78438 28.315624 94.03438 29.346874Q93.3 30.378124 93.3 32.378124ZM107.47188 32.175Q107.47188 29.753124 108.62813 28.26875Q109.78438 26.784374 111.64375 26.784374Q113.50313 26.784374 114.58125 28.05L114.58125 22.55L116.39375 22.55L116.39375 37.55L114.7375 37.55L114.64375 36.409374Q113.56563 37.753124 111.62813 37.753124Q109.8 37.753124 108.62813 36.253124Q107.47188 34.7375 107.47188 32.315624L107.47188 32.175ZM109.28438 32.378124Q109.28438 34.175 110.01875 35.190624Q110.76875 36.20625 112.08125 36.20625Q113.8 36.20625 114.58125 34.675L114.58125 29.815624Q113.78438 28.315624 112.09688 28.315624Q110.76875 28.315624 110.01875 29.346874Q109.28438 30.378124 109.28438 32.378124ZM120.87813 37.55L119.08125 37.55L119.08125 26.9875L120.87813 26.9875L120.87813 37.55ZM118.925 24.175Q118.925 23.7375 119.19063 23.440624Q119.47188 23.128124 119.9875 23.128124Q120.51875 23.128124 120.78438 23.440624Q121.06563 23.7375 121.06563 24.175Q121.06563 24.6125 120.78438 24.909374Q120.51875 25.20625 119.9875 25.20625Q119.47188 25.20625 119.19063 24.909374Q118.925 24.6125 118.925 24.175ZM123.47188 32.175Q123.47188 29.753124 124.62813 28.26875Q125.78438 26.784374 127.64375 26.784374Q129.50313 26.784374 130.58125 28.05L130.58125 22.55L132.39375 22.55L132.39375 37.55L130.7375 37.55L130.64375 36.409374Q129.56563 37.753124 127.62813 37.753124Q125.8 37.753124 124.62813 36.253124Q123.47188 34.7375 123.47188 32.315624L123.47188 32.175ZM125.28438 32.378124Q125.28438 34.175 126.01875 35.190624Q126.76875 36.20625 128.08125 36.20625Q129.8 36.20625 130.58125 34.675L130.58125 29.815624Q129.78438 28.315624 128.09688 28.315624Q126.76875 28.315624 126.01875 29.346874Q125.28438 30.378124 125.28438 32.378124ZM143.37813 34.909374L145.83125 26.9875L147.76875 26.9875L143.51875 39.175Q142.53438 41.815624 140.39375 41.815624L140.05 41.784374L139.37813 41.659374L139.37813 40.190624L139.8625 40.2375Q140.78438 40.2375 141.28438 39.8625Q141.8 39.4875 142.12813 38.503124L142.53438 37.425L138.76875 26.9875L140.7375 26.9875L143.37813 34.909374ZM148.44063 32.175Q148.44063 30.6125 149.05 29.378124Q149.65938 28.128124 150.7375 27.45625Q151.83125 26.784374 153.2375 26.784374Q155.39375 26.784374 156.72188 28.284374Q158.06563 29.76875 158.06563 32.253124L158.06563 32.378124Q158.06563 33.925 157.47188 35.159374Q156.87813 36.378124 155.76875 37.065624Q154.675 37.753124 153.25313 37.753124Q151.1125 37.753124 149.76875 36.253124Q148.44063 34.753124 148.44063 32.3L148.44063 32.175ZM150.25313 32.378124Q150.25313 34.14375 151.06563 35.20625Q151.89375 36.26875 153.25313 36.26875Q154.62813 36.26875 155.44063 35.190624Q156.25313 34.1125 156.25313 32.175Q156.25313 30.425 155.425 29.346874Q154.59688 28.26875 153.2375 28.26875Q151.89375 28.26875 151.06563 29.33125Q150.25313 30.39375 150.25313 32.378124ZM166.44063 36.503124Q165.39375 37.753124 163.34688 37.753124Q161.65938 37.753124 160.76875 36.76875Q159.89375 35.784374 159.87813 33.8625L159.87813 26.9875L161.69063 26.9875L161.69063 33.815624Q161.69063 36.20625 163.64375 36.20625Q165.70625 36.20625 166.39375 34.675L166.39375 26.9875L168.20625 26.9875L168.20625 37.55L166.4875 37.55L166.44063 36.503124ZM182.44063 36.503124Q181.39375 37.753124 179.34688 37.753124Q177.65938 37.753124 176.76875 36.76875Q175.89375 35.784374 175.87813 33.8625L175.87813 26.9875L177.69063 26.9875L177.69063 33.815624Q177.69063 36.20625 179.64375 36.20625Q181.70625 36.20625 182.39375 34.675L182.39375 26.9875L184.20625 26.9875L184.20625 37.55L182.4875 37.55L182.44063 36.503124ZM193.06563 34.753124Q193.06563 34.01875 192.51875 33.6125Q191.97188 33.20625 190.59688 32.909374Q189.22188 32.6125 188.40938 32.20625Q187.6125 31.8 187.22188 31.2375Q186.84688 30.659374 186.84688 29.878124Q186.84688 28.58125 187.94063 27.690624Q189.03438 26.784374 190.75313 26.784374Q192.55 26.784374 193.65938 27.721874Q194.78438 28.64375 194.78438 30.08125L192.95625 30.08125Q192.95625 29.346874 192.33125 28.815624Q191.70625 28.26875 190.75313 28.26875Q189.75313 28.26875 189.19063 28.70625Q188.64375 29.128124 188.64375 29.83125Q188.64375 30.471874 189.15938 30.815624Q189.675 31.14375 191.03438 31.45625Q192.39375 31.753124 193.22188 32.175Q194.06563 32.58125 194.47188 33.175Q194.87813 33.76875 194.87813 34.6125Q194.87813 36.034374 193.7375 36.89375Q192.6125 37.753124 190.8 37.753124Q189.53438 37.753124 188.55 37.3Q187.58125 36.846874 187.01875 36.05Q186.47188 35.2375 186.47188 34.3L188.28438 34.3Q188.33125 35.20625 189.00313 35.7375Q189.69063 36.26875 190.8 36.26875Q191.83125 36.26875 192.44063 35.8625Q193.06563 35.440624 193.06563 34.753124ZM201.3 37.753124Q199.15938 37.753124 197.8 36.346874Q196.45625 34.925 196.45625 32.565624L196.45625 32.221874Q196.45625 30.659374 197.05 29.425Q197.65938 28.190624 198.7375 27.4875Q199.81563 26.784374 201.08125 26.784374Q203.14375 26.784374 204.28438 28.14375Q205.425 29.503124 205.425 32.034374L205.425 32.784374L198.26875 32.784374Q198.3 34.346874 199.175 35.315624Q200.05 36.26875 201.39375 36.26875Q202.3625 36.26875 203.01875 35.878124Q203.69063 35.4875 204.19063 34.846874L205.28438 35.70625Q203.95625 37.753124 201.3 37.753124ZM201.08125 28.26875Q199.9875 28.26875 199.2375 29.065624Q198.50313 29.8625 198.33125 31.3L203.6125 31.3L203.6125 31.159374Q203.53438 29.784374 202.8625 29.034374Q202.20625 28.26875 201.08125 28.26875ZM218.40938 31.8L215.08125 31.8L215.08125 37.55L213.19063 37.55L213.19063 23.33125L217.89375 23.33125Q220.3 23.33125 221.59688 24.425Q222.89375 25.51875 222.89375 27.6125Q222.89375 28.940624 222.175 29.925Q221.45625 30.909374 220.175 31.39375L223.51875 37.425L223.51875 37.55L221.50313 37.55L218.40938 31.8ZM215.08125 30.26875L217.95625 30.26875Q219.34688 30.26875 220.175 29.55Q221.00313 28.815624 221.00313 27.6125Q221.00313 26.284374 220.20625 25.58125Q219.425 24.878124 217.94063 24.878124L215.08125 24.878124L215.08125 30.26875ZM231.44063 36.503124Q230.39375 37.753124 228.34688 37.753124Q226.65938 37.753124 225.76875 36.76875Q224.89375 35.784374 224.87813 33.8625L224.87813 26.9875L226.69063 26.9875L226.69063 33.815624Q226.69063 36.20625 228.64375 36.20625Q230.70625 36.20625 231.39375 34.675L231.39375 26.9875L233.20625 26.9875L233.20625 37.55L231.4875 37.55L231.44063 36.503124ZM242.06563 34.753124Q242.06563 34.01875 241.51875 33.6125Q240.97188 33.20625 239.59688 32.909374Q238.22188 32.6125 237.40938 32.20625Q236.6125 31.8 236.22188 31.2375Q235.84688 30.659374 235.84688 29.878124Q235.84688 28.58125 236.94063 27.690624Q238.03438 26.784374 239.75313 26.784374Q241.55 26.784374 242.65938 27.721874Q243.78438 28.64375 243.78438 30.08125L241.95625 30.08125Q241.95625 29.346874 241.33125 28.815624Q240.70625 28.26875 239.75313 28.26875Q238.75313 28.26875 238.19063 28.70625Q237.64375 29.128124 237.64375 29.83125Q237.64375 30.471874 238.15938 30.815624Q238.675 31.14375 240.03438 31.45625Q241.39375 31.753124 242.22188 32.175Q243.06563 32.58125 243.47188 33.175Q243.87813 33.76875 243.87813 34.6125Q243.87813 36.034374 242.7375 36.89375Q241.6125 37.753124 239.8 37.753124Q238.53438 37.753124 237.55 37.3Q236.58125 36.846874 236.01875 36.05Q235.47188 35.2375 235.47188 34.3L237.28438 34.3Q237.33125 35.20625 238.00313 35.7375Q238.69063 36.26875 239.8 36.26875Q240.83125 36.26875 241.44063 35.8625Q242.06563 35.440624 242.06563 34.753124ZM248.3625 24.425L248.3625 26.9875L250.34688 26.9875L250.34688 28.378124L248.3625 28.378124L248.3625 34.925Q248.3625 35.565624 248.62813 35.89375Q248.89375 36.20625 249.53438 36.20625Q249.84688 36.20625 250.39375 36.08125L250.39375 37.55Q249.675 37.753124 249.00313 37.753124Q247.8 37.753124 247.175 37.01875Q246.56563 36.284374 246.56563 34.925L246.56563 28.378124L244.64375 28.378124L244.64375 26.9875L246.56563 26.9875L246.56563 24.425L248.3625 24.425ZM266.8625 32.378124Q266.8625 34.8 265.7531 36.284374Q264.64374 37.753124 262.76874 37.753124Q260.7531 37.753124 259.65936 36.33125L259.58124 37.55L257.925 37.55L257.925 22.55L259.72186 22.55L259.72186 28.14375Q260.8156 26.784374 262.7375 26.784374Q264.65936 26.784374 265.7531 28.2375Q266.8625 29.690624 266.8625 32.221874L266.8625 32.378124ZM265.05 32.175Q265.05 30.33125 264.33124 29.33125Q263.6281 28.315624 262.3 28.315624Q260.5031 28.315624 259.72186 29.9875L259.72186 34.55Q260.55 36.20625 262.3156 36.20625Q263.6125 36.20625 264.33124 35.20625Q265.05 34.20625 265.05 32.175ZM273.3 37.753124Q271.15936 37.753124 269.8 36.346874Q268.45624 34.925 268.45624 32.565624L268.45624 32.221874Q268.45624 30.659374 269.05 29.425Q269.65936 28.190624 270.7375 27.4875Q271.8156 26.784374 273.08124 26.784374Q275.14374 26.784374 276.28436 28.14375Q277.425 29.503124 277.425 32.034374L277.425 32.784374L270.26874 32.784374Q270.3 34.346874 271.175 35.315624Q272.05 36.26875 273.39374 36.26875Q274.3625 36.26875 275.01874 35.878124Q275.6906 35.4875 276.1906 34.846874L277.28436 35.70625Q275.95624 37.753124 273.3 37.753124ZM273.08124 28.26875Q271.9875 28.26875 271.2375 29.065624Q270.5031 29.8625 270.33124 31.3L275.6125 31.3L275.6125 31.159374Q275.53436 29.784374 274.8625 29.034374Q274.20624 28.26875 273.08124 28.26875ZM280.8 37.55L280.8 28.378124L279.14374 28.378124L279.14374 26.9875L280.8 26.9875L280.8 25.89375Q280.8 24.20625 281.70624 23.284374Q282.6281 22.346874 284.28436 22.346874Q284.90936 22.346874 285.51874 22.503124L285.425 23.971874Q284.97186 23.89375 284.45624 23.89375Q283.5656 23.89375 283.08124 24.409374Q282.6125 24.909374 282.6125 25.8625L282.6125 26.9875L284.8625 26.9875L284.8625 28.378124L282.6125 28.378124L282.6125 37.55L280.8 37.55ZM286.4406 32.175Q286.4406 30.6125 287.05 29.378124Q287.65936 28.128124 288.7375 27.45625Q289.83124 26.784374 291.2375 26.784374Q293.39374 26.784374 294.72186 28.284374Q296.0656 29.76875 296.0656 32.253124L296.0656 32.378124Q296.0656 33.925 295.47186 35.159374Q294.8781 36.378124 293.76874 37.065624Q292.675 37.753124 291.2531 37.753124Q289.1125 37.753124 287.76874 36.253124Q286.4406 34.753124 286.4406 32.3L286.4406 32.175ZM288.2531 32.378124Q288.2531 34.14375 289.0656 35.20625Q289.89374 36.26875 291.2531 36.26875Q292.6281 36.26875 293.4406 35.190624Q294.2531 34.1125 294.2531 32.175Q294.2531 30.425 293.425 29.346874Q292.59686 28.26875 291.2375 28.26875Q289.89374 28.26875 289.0656 29.33125Q288.2531 30.39375 288.2531 32.378124ZM303.01874 28.596874Q302.6125 28.534374 302.14374 28.534374Q300.3625 28.534374 299.72186 30.05L299.72186 37.55L297.925 37.55L297.925 26.9875L299.675 26.9875L299.70624 28.20625Q300.59686 26.784374 302.22186 26.784374Q302.7531 26.784374 303.01874 26.925L303.01874 28.596874ZM309.3 37.753124Q307.15936 37.753124 305.8 36.346874Q304.45624 34.925 304.45624 32.565624L304.45624 32.221874Q304.45624 30.659374 305.05 29.425Q305.65936 28.190624 306.7375 27.4875Q307.8156 26.784374 309.08124 26.784374Q311.14374 26.784374 312.28436 28.14375Q313.425 29.503124 313.425 32.034374L313.425 32.784374L306.26874 32.784374Q306.3 34.346874 307.175 35.315624Q308.05 36.26875 309.39374 36.26875Q310.3625 36.26875 311.01874 35.878124Q311.6906 35.4875 312.1906 34.846874L313.28436 35.70625Q311.95624 37.753124 309.3 37.753124ZM309.08124 28.26875Q307.9875 28.26875 307.2375 29.065624Q306.5031 29.8625 306.33124 31.3L311.6125 31.3L311.6125 31.159374Q311.53436 29.784374 310.8625 29.034374Q310.20624 28.26875 309.08124 28.26875ZM324.3781 34.909374L326.83124 26.9875L328.76874 26.9875L324.51874 39.175Q323.53436 41.815624 321.39374 41.815624L321.05 41.784374L320.3781 41.659374L320.3781 40.190624L320.8625 40.2375Q321.78436 40.2375 322.28436 39.8625Q322.8 39.4875 323.1281 38.503124L323.53436 37.425L319.76874 26.9875L321.7375 26.9875L324.3781 34.909374ZM329.4406 32.175Q329.4406 30.6125 330.05 29.378124Q330.65936 28.128124 331.7375 27.45625Q332.83124 26.784374 334.2375 26.784374Q336.39374 26.784374 337.72186 28.284374Q339.0656 29.76875 339.0656 32.253124L339.0656 32.378124Q339.0656 33.925 338.47186 35.159374Q337.8781 36.378124 336.76874 37.065624Q335.675 37.753124 334.2531 37.753124Q332.1125 37.753124 330.76874 36.253124Q329.4406 34.753124 329.4406 32.3L329.4406 32.175ZM331.2531 32.378124Q331.2531 34.14375 332.0656 35.20625Q332.89374 36.26875 334.2531 36.26875Q335.6281 36.26875 336.4406 35.190624Q337.2531 34.1125 337.2531 32.175Q337.2531 30.425 336.425 29.346874Q335.59686 28.26875 334.2375 28.26875Q332.89374 28.26875 332.0656 29.33125Q331.2531 30.39375 331.2531 32.378124ZM347.4406 36.503124Q346.39374 37.753124 344.34686 37.753124Q342.65936 37.753124 341.76874 36.76875Q340.89374 35.784374 340.8781 33.8625L340.8781 26.9875L342.6906 26.9875L342.6906 33.815624Q342.6906 36.20625 344.64374 36.20625Q346.70624 36.20625 347.39374 34.675L347.39374 26.9875L349.20624 26.9875L349.20624 37.55L347.4875 37.55L347.4406 36.503124ZM357.01874 28.596874Q356.6125 28.534374 356.14374 28.534374Q354.3625 28.534374 353.72186 30.05L353.72186 37.55L351.925 37.55L351.925 26.9875L353.675 26.9875L353.70624 28.20625Q354.59686 26.784374 356.22186 26.784374Q356.7531 26.784374 357.01874 26.925L357.01874 28.596874ZM370.0656 34.753124Q370.0656 34.01875 369.51874 33.6125Q368.97186 33.20625 367.59686 32.909374Q366.22186 32.6125 365.40936 32.20625Q364.6125 31.8 364.22186 31.2375Q363.84686 30.659374 363.84686 29.878124Q363.84686 28.58125 364.9406 27.690624Q366.03436 26.784374 367.7531 26.784374Q369.55 26.784374 370.65936 27.721874Q371.78436 28.64375 371.78436 30.08125L369.95624 30.08125Q369.95624 29.346874 369.33124 28.815624Q368.70624 28.26875 367.7531 28.26875Q366.7531 28.26875 366.1906 28.70625Q365.64374 29.128124 365.64374 29.83125Q365.64374 30.471874 366.15936 30.815624Q366.675 31.14375 368.03436 31.45625Q369.39374 31.753124 370.22186 32.175Q371.0656 32.58125 371.47186 33.175Q371.8781 33.76875 371.8781 34.6125Q371.8781 36.034374 370.7375 36.89375Q369.6125 37.753124 367.8 37.753124Q366.53436 37.753124 365.55 37.3Q364.58124 36.846874 364.01874 36.05Q363.47186 35.2375 363.47186 34.3L365.28436 34.3Q365.33124 35.20625 366.0031 35.7375Q366.6906 36.26875 367.8 36.26875Q368.83124 36.26875 369.4406 35.8625Q370.0656 35.440624 370.0656 34.753124ZM376.3625 24.425L376.3625 26.9875L378.34686 26.9875L378.34686 28.378124L376.3625 28.378124L376.3625 34.925Q376.3625 35.565624 376.6281 35.89375Q376.89374 36.20625 377.53436 36.20625Q377.84686 36.20625 378.39374 36.08125L378.39374 37.55Q377.675 37.753124 377.0031 37.753124Q375.8 37.753124 375.175 37.01875Q374.5656 36.284374 374.5656 34.925L374.5656 28.378124L372.64374 28.378124L372.64374 26.9875L374.5656 26.9875L374.5656 24.425L376.3625 24.425ZM380.4406 32.175Q380.4406 30.6125 381.05 29.378124Q381.65936 28.128124 382.7375 27.45625Q383.83124 26.784374 385.2375 26.784374Q387.39374 26.784374 388.72186 28.284374Q390.0656 29.76875 390.0656 32.253124L390.0656 32.378124Q390.0656 33.925 389.47186 35.159374Q388.8781 36.378124 387.76874 37.065624Q386.675 37.753124 385.2531 37.753124Q383.1125 37.753124 381.76874 36.253124Q380.4406 34.753124 380.4406 32.3L380.4406 32.175ZM382.2531 32.378124Q382.2531 34.14375 383.0656 35.20625Q383.89374 36.26875 385.2531 36.26875Q386.6281 36.26875 387.4406 35.190624Q388.2531 34.1125 388.2531 32.175Q388.2531 30.425 387.425 29.346874Q386.59686 28.26875 385.2375 28.26875Q383.89374 28.26875 383.0656 29.33125Q382.2531 30.39375 382.2531 32.378124ZM400.84686 32.378124Q400.84686 34.8 399.7375 36.284374Q398.64374 37.753124 396.7531 37.753124Q394.83124 37.753124 393.72186 36.51875L393.72186 41.6125L391.925 41.6125L391.925 26.9875L393.5656 26.9875L393.65936 28.159374Q394.7531 26.784374 396.72186 26.784374Q398.6281 26.784374 399.7375 28.221874Q400.84686 29.659374 400.84686 32.221874L400.84686 32.378124ZM399.03436 32.175Q399.03436 30.39375 398.26874 29.3625Q397.51874 28.315624 396.1906 28.315624Q394.55 28.315624 393.72186 29.76875L393.72186 34.83125Q394.53436 36.26875 396.20624 36.26875Q397.5031 36.26875 398.26874 35.2375Q399.03436 34.20625 399.03436 32.175ZM411.84686 32.378124Q411.84686 34.8 410.7375 36.284374Q409.64374 37.753124 407.7531 37.753124Q405.83124 37.753124 404.72186 36.51875L404.72186 41.6125L402.925 41.6125L402.925 26.9875L404.5656 26.9875L404.65936 28.159374Q405.7531 26.784374 407.72186 26.784374Q409.6281 26.784374 410.7375 28.221874Q411.84686 29.659374 411.84686 32.221874L411.84686 32.378124ZM410.03436 32.175Q410.03436 30.39375 409.26874 29.3625Q408.51874 28.315624 407.1906 28.315624Q405.55 28.315624 404.72186 29.76875L404.72186 34.83125Q405.53436 36.26875 407.20624 36.26875Q408.5031 36.26875 409.26874 35.2375Q410.03436 34.20625 410.03436 32.175ZM418.3 37.753124Q416.15936 37.753124 414.8 36.346874Q413.45624 34.925 413.45624 32.565624L413.45624 32.221874Q413.45624 30.659374 414.05 29.425Q414.65936 28.190624 415.7375 27.4875Q416.8156 26.784374 418.08124 26.784374Q420.14374 26.784374 421.28436 28.14375Q422.425 29.503124 422.425 32.034374L422.425 32.784374L415.26874 32.784374Q415.3 34.346874 416.175 35.315624Q417.05 36.26875 418.39374 36.26875Q419.3625 36.26875 420.01874 35.878124Q420.6906 35.4875 421.1906 34.846874L422.28436 35.70625Q420.95624 37.753124 418.3 37.753124ZM418.08124 28.26875Q416.9875 28.26875 416.2375 29.065624Q415.5031 29.8625 415.33124 31.3L420.6125 31.3L420.6125 31.159374Q420.53436 29.784374 419.8625 29.034374Q419.20624 28.26875 418.08124 28.26875ZM424.47186 32.175Q424.47186 29.753124 425.6281 28.26875Q426.78436 26.784374 428.64374 26.784374Q430.5031 26.784374 431.58124 28.05L431.58124 22.55L433.39374 22.55L433.39374 37.55L431.7375 37.55L431.64374 36.409374Q430.5656 37.753124 428.6281 37.753124Q426.8 37.753124 425.6281 36.253124Q424.47186 34.7375 424.47186 32.315624L424.47186 32.175ZM426.28436 32.378124Q426.28436 34.175 427.01874 35.190624Q427.76874 36.20625 429.08124 36.20625Q430.8 36.20625 431.58124 34.675L431.58124 29.815624Q430.78436 28.315624 429.09686 28.315624Q427.76874 28.315624 427.01874 29.346874Q426.28436 30.378124 426.28436 32.378124ZM438.03436 33.55Q438.05 32.378124 438.3 31.70625Q438.55 31.034374 439.3 30.221874L440.58124 28.89375Q441.39374 27.971874 441.39374 26.909374Q441.39374 25.878124 440.84686 25.3Q440.3156 24.721874 439.3 24.721874Q438.3 24.721874 437.6906 25.253124Q437.09686 25.76875 437.09686 26.659374L435.28436 26.659374Q435.3 25.08125 436.40936 24.1125Q437.51874 23.128124 439.3 23.128124Q441.14374 23.128124 442.175 24.128124Q443.20624 25.1125 443.20624 26.846874Q443.20624 28.55 441.6281 30.221874L440.55 31.26875Q439.84686 32.065624 439.84686 33.55L438.03436 33.55ZM437.95624 36.64375Q437.95624 36.20625 438.22186 35.909374Q438.5031 35.6125 439.01874 35.6125Q439.55 35.6125 439.8156 35.909374Q440.09686 36.20625 440.09686 36.64375Q440.09686 37.08125 439.8156 37.378124Q439.55 37.659374 439.01874 37.659374Q438.5031 37.659374 438.22186 37.378124Q437.95624 37.08125 437.95624 36.64375Z" fill-rule="nonzero"/></svg>