<svg version="1.1" viewBox="0.0 0.0 784.0 545.0" fill="none" stroke="none" stroke-linecap="square" stroke-miterlimit="10" width="784" height="545" xmlns:xlink="http://www.w3.org/1999/xlink" xmlns="http://www.w3.org/2000/svg"><path fill="#ffffff" d="M0 0L784.0 0L784.0 545.0L0 545.0L0 0Z" fill-rule="nonzero"/><path fill="#305089" d="M616.1667 310.39584C616.1667 349.9359 594.842 388.01846 556.4577 417.02664L556.4577 383.40164C594.842 354.39346 616.1667 316.3109 616.1667 276.77084Z" fill-rule="nonzero"/><path fill="#4472c4" d="M392.0 119.854164C481.108 119.854164 561.75494 156.79854 597.4239 213.95886C633.09283 271.11917 617.01 337.64038 556.4577 383.40164L392.0 276.77084Z" fill-rule="nonzero"/><path fill="#ffd34d" d="M383.751 119.96044C386.4995 119.889595 389.24963 119.854164 392.0 119.854164L392.0 276.77084Z" fill-rule="nonzero"/><path fill="#c0c0c0" d="M362.9025 121.18171C369.82108 120.547714 376.77814 120.14018 383.751 119.96044L392.0 276.77084Z" fill-rule="nonzero"/><path fill="#f2a46f" d="M330.03076 125.96915C340.80164 123.80036 351.7897 122.20006 362.9025 121.18171L392.0 276.77084Z" fill-rule="nonzero"/><path fill="#7c9cd6" d="M294.1812 135.58206C305.7164 131.66606 317.7102 128.44997 330.03076 125.96915L392.0 276.77084Z" fill-rule="nonzero"/><path fill="#70ad47" d="M258.9229 150.49661C269.99677 144.77809 281.79938 139.78549 294.1812 135.58206L392.0 276.77084Z" fill-rule="nonzero"/><path fill="#5b9bd5" d="M191.16566 207.06451C207.00365 184.70505 230.23213 165.31248 258.9229 150.49661L392.0 276.77084Z" fill-rule="nonzero"/><path fill="#b38600" d="M189.71272 378.01218C175.3089 356.8972 167.83333 333.79462 167.83333 310.39584L167.83333 276.77084C167.83333 300.16962 175.3089 323.2722 189.71272 344.38718Z" fill-rule="nonzero"/><path fill="#ffc000" d="M189.71272 344.38718C160.03838 300.8867 160.57411 250.25256 191.16566 207.06451L392.0 276.77084Z" fill-rule="nonzero"/><path fill="#747474" d="M346.7325 464.0798C278.03973 454.16544 219.93549 422.31662 189.71272 378.01218L189.71272 344.38718C219.93549 388.69162 278.03973 420.54044 346.7325 430.4548Z" fill-rule="nonzero"/><path fill="#a5a5a5" d="M346.7325 430.4548C278.03973 420.54044 219.93549 388.69162 189.71272 344.38718L392.0 276.77084Z" fill-rule="nonzero"/><path fill="#a65822" d="M556.4577 417.02664C503.13333 457.3256 423.58743 475.17218 346.7325 464.0798L346.7325 430.4548C423.58743 441.54718 503.13333 423.7006 556.4577 383.40164Z" fill-rule="nonzero"/><path fill="#ed7d31" d="M556.4577 383.40164C503.13333 423.7006 423.58743 441.54718 346.7325 430.4548L392.0 276.77084Z" fill-rule="nonzero"/><path fill="#1a1a1a" d="M34.796875 80.121574Q34.796875 81.371574 34.375 82.309074Q33.953125 83.23095 33.171875 83.73095Q32.40625 84.23095 31.375 84.23095Q30.375 84.23095 29.59375 83.73095Q28.8125 83.23095 28.375 82.3247Q27.953125 81.402824 27.9375 80.184074L27.9375 79.5747Q27.9375 78.340324 28.359375 77.402824Q28.796875 76.465324 29.578125 75.965324Q30.359375 75.4497 31.375 75.4497Q32.390625 75.4497 33.171875 75.9497Q33.953125 76.4497 34.375 77.3872Q34.796875 78.3247 34.796875 79.5747L34.796875 80.121574ZM33.6875 79.559074Q33.6875 78.04345 33.078125 77.23095Q32.46875 76.41845 31.375 76.41845Q30.296875 76.41845 29.6875 77.23095Q29.078125 78.04345 29.0625 79.48095L29.0625 80.121574Q29.0625 81.590324 29.671875 82.434074Q30.296875 83.2622 31.375 83.2622Q32.46875 83.2622 33.0625 82.48095Q33.671875 81.684074 33.6875 80.1997L33.6875 79.559074ZM37.546875 76.23095L37.546875 77.7622L38.71875 77.7622L38.71875 78.60595L37.546875 78.60595L37.546875 82.527824Q37.546875 82.91845 37.703125 83.10595Q37.859375 83.29345 38.234375 83.29345Q38.421875 83.29345 38.75 83.23095L38.75 84.10595Q38.328125 84.23095 37.921875 84.23095Q37.203125 84.23095 36.828125 83.79345Q36.453125 83.340324 36.453125 82.527824L36.453125 78.60595L35.296875 78.60595L35.296875 77.7622L36.453125 77.7622L36.453125 76.23095L37.546875 76.23095ZM41.15625 78.527824Q41.875 77.652824 43.03125 77.652824Q45.046875 77.652824 45.0625 79.91845L45.0625 84.10595L43.96875 84.10595L43.96875 79.902824Q43.96875 79.23095 43.65625 78.902824Q43.359375 78.5747 42.703125 78.5747Q42.171875 78.5747 41.765625 78.85595Q41.375 79.1372 41.15625 79.590324L41.15625 84.10595L40.078125 84.10595L40.078125 75.10595L41.15625 75.10595L41.15625 78.527824ZM49.703125 84.23095Q48.40625 84.23095 47.59375 83.3872Q46.796875 82.527824 46.796875 81.10595L46.796875 80.91845Q46.796875 79.965324 47.15625 79.23095Q47.515625 78.48095 48.15625 78.0747Q48.8125 77.652824 49.5625 77.652824Q50.796875 77.652824 51.484375 78.465324Q52.171875 79.277824 52.171875 80.79345L52.171875 81.246574L47.875 81.246574Q47.90625 82.184074 48.421875 82.7622Q48.953125 83.340324 49.765625 83.340324Q50.328125 83.340324 50.71875 83.10595Q51.125 82.871574 51.4375 82.48095L52.09375 82.996574Q51.296875 84.23095 49.703125 84.23095ZM49.5625 78.54345Q48.90625 78.54345 48.453125 79.027824Q48.015625 79.496574 47.921875 80.35595L51.09375 80.35595L51.09375 80.277824Q51.046875 79.4497 50.640625 78.996574Q50.25 78.54345 49.5625 78.54345ZM56.140625 78.73095Q55.890625 78.6997 55.609375 78.6997Q54.53125 78.6997 54.15625 79.60595L54.15625 84.10595L53.078125 84.10595L53.078125 77.7622L54.125 77.7622L54.140625 78.496574Q54.671875 77.652824 55.65625 77.652824Q55.96875 77.652824 56.140625 77.73095L56.140625 78.73095Z" fill-rule="nonzero"/><path fill="#9e9e9e" d="M31.515625 102.10595L30.4375 102.10595L30.4375 94.8872L28.25 95.684074L28.25 94.6997L31.359375 93.527824L31.515625 93.527824L31.515625 102.10595ZM35.09375 101.54345Q35.09375 101.2622 35.25 101.0747Q35.421875 100.8872 35.75 100.8872Q36.09375 100.8872 36.265625 101.0747Q36.4375 101.2622 36.4375 101.54345Q36.4375 101.809074 36.265625 101.996574Q36.09375 102.16845 35.75 102.16845Q35.421875 102.16845 35.25 101.996574Q35.09375 101.809074 35.09375 101.54345ZM38.453125 97.8247L38.890625 93.5747L43.265625 93.5747L43.265625 94.5747L39.8125 94.5747L39.546875 96.902824Q40.1875 96.527824 40.984375 96.527824Q42.140625 96.527824 42.828125 97.309074Q43.515625 98.0747 43.515625 99.3872Q43.515625 100.6997 42.796875 101.465324Q42.09375 102.23095 40.8125 102.23095Q39.6875 102.23095 38.96875 101.60595Q38.25 100.965324 38.15625 99.85595L39.171875 99.85595Q39.28125 100.590324 39.703125 100.965324Q40.125 101.340324 40.8125 101.340324Q41.5625 101.340324 42.0 100.8247Q42.4375 100.309074 42.4375 99.402824Q42.4375 98.54345 41.96875 98.027824Q41.5 97.5122 40.71875 97.5122Q40.015625 97.5122 39.609375 97.809074L39.328125 98.04345L38.453125 97.8247ZM44.859375 95.215324Q44.859375 94.4497 45.34375 93.9497Q45.84375 93.4497 46.609375 93.4497Q47.390625 93.4497 47.875 93.9497Q48.359375 94.4497 48.359375 95.246574L48.359375 95.66845Q48.359375 96.434074 47.859375 96.934074Q47.375 97.41845 46.625 97.41845Q45.859375 97.41845 45.359375 96.934074Q44.859375 96.434074 44.859375 95.621574L44.859375 95.215324ZM45.671875 95.66845Q45.671875 96.121574 45.921875 96.41845Q46.1875 96.715324 46.625 96.715324Q47.046875 96.715324 47.296875 96.434074Q47.546875 96.1372 47.546875 95.6372L47.546875 95.215324Q47.546875 94.7622 47.296875 94.465324Q47.046875 94.152824 46.609375 94.152824Q46.171875 94.152824 45.921875 94.465324Q45.671875 94.7622 45.671875 95.23095L45.671875 95.66845ZM49.015625 100.0122Q49.015625 99.246574 49.5 98.7622Q50.0 98.2622 50.765625 98.2622Q51.53125 98.2622 52.015625 98.7622Q52.515625 99.246574 52.515625 100.059074L52.515625 100.465324Q52.515625 101.23095 52.03125 101.73095Q51.546875 102.23095 50.78125 102.23095Q50.015625 102.23095 49.515625 101.746574Q49.015625 101.246574 49.015625 100.434074L49.015625 100.0122ZM49.828125 100.465324Q49.828125 100.934074 50.078125 101.23095Q50.34375 101.527824 50.78125 101.527824Q51.203125 101.527824 51.453125 101.246574Q51.703125 100.9497 51.703125 100.4497L51.703125 100.0122Q51.703125 99.54345 51.4375 99.2622Q51.1875 98.965324 50.765625 98.965324Q50.34375 98.965324 50.078125 99.2622Q49.828125 99.54345 49.828125 100.04345L49.828125 100.465324ZM46.875 101.465324L46.25 101.0747L50.421875 94.402824L51.03125 94.79345L46.875 101.465324Z" fill-rule="nonzero"/><path stroke="#757575" stroke-width="1.0" stroke-linecap="butt" d="M27.25 88.60595L161.83333 88.60595L374.24106 128.21924" fill-rule="nonzero"/><path fill="#9e9e9e" d="M376.24106 128.21924C376.24106 127.11466 375.34564 126.21924 374.24106 126.21924C373.1365 126.21924 372.24106 127.11466 372.24106 128.21924C372.24106 129.3238 373.1365 130.21924 374.24106 130.21924C375.34564 130.21924 376.24106 129.3238 376.24106 128.21924" fill-rule="nonzero"/><path fill="#1a1a1a" d="M32.953125 114.871574L29.375 114.871574L28.578125 117.10595L27.421875 117.10595L30.671875 108.5747L31.65625 108.5747L34.921875 117.10595L33.765625 117.10595L32.953125 114.871574ZM29.71875 113.9497L32.625 113.9497L31.171875 109.965324L29.71875 113.9497ZM37.09375 110.7622L37.125 111.559074Q37.859375 110.652824 39.03125 110.652824Q41.046875 110.652824 41.0625 112.91845L41.0625 117.10595L39.96875 117.10595L39.96875 112.902824Q39.96875 112.23095 39.65625 111.902824Q39.359375 111.5747 38.703125 111.5747Q38.171875 111.5747 37.765625 111.85595Q37.375 112.1372 37.15625 112.590324L37.15625 117.10595L36.078125 117.10595L36.078125 110.7622L37.09375 110.7622ZM42.8125 113.8872Q42.8125 112.41845 43.5 111.54345Q44.1875 110.652824 45.3125 110.652824Q46.421875 110.652824 47.078125 111.402824L47.078125 108.10595L48.15625 108.10595L48.15625 117.10595L47.15625 117.10595L47.109375 116.41845Q46.453125 117.23095 45.296875 117.23095Q44.203125 117.23095 43.5 116.3247Q42.8125 115.41845 42.8125 113.965324L42.8125 113.8872ZM43.890625 114.0122Q43.890625 115.090324 44.328125 115.6997Q44.78125 116.309074 45.5625 116.309074Q46.59375 116.309074 47.078125 115.371574L47.078125 112.465324Q46.59375 111.5747 45.578125 111.5747Q44.78125 111.5747 44.328125 112.184074Q43.890625 112.79345 43.890625 114.0122ZM53.140625 111.73095Q52.890625 111.6997 52.609375 111.6997Q51.53125 111.6997 51.15625 112.60595L51.15625 117.10595L50.078125 117.10595L50.078125 110.7622L51.125 110.7622L51.140625 111.496574Q51.671875 110.652824 52.65625 110.652824Q52.96875 110.652824 53.140625 110.73095L53.140625 111.73095ZM53.78125 113.871574Q53.78125 112.9497 54.140625 112.1997Q54.515625 111.4497 55.171875 111.059074Q55.828125 110.652824 56.65625 110.652824Q57.953125 110.652824 58.75 111.54345Q59.5625 112.434074 59.5625 113.934074L59.5625 114.0122Q59.5625 114.934074 59.203125 115.66845Q58.84375 116.402824 58.1875 116.8247Q57.53125 117.23095 56.671875 117.23095Q55.390625 117.23095 54.578125 116.340324Q53.78125 115.434074 53.78125 113.9497L53.78125 113.871574ZM54.875 114.0122Q54.875 115.059074 55.359375 115.6997Q55.859375 116.340324 56.671875 116.340324Q57.5 116.340324 57.984375 115.6997Q58.46875 115.04345 58.46875 113.871574Q58.46875 112.840324 57.96875 112.1997Q57.484375 111.54345 56.65625 111.54345Q55.859375 111.54345 55.359375 112.184074Q54.875 112.809074 54.875 114.0122ZM62.25 117.10595L61.171875 117.10595L61.171875 110.7622L62.25 110.7622L62.25 117.10595ZM61.078125 109.090324Q61.078125 108.8247 61.234375 108.6372Q61.40625 108.4497 61.71875 108.4497Q62.03125 108.4497 62.1875 108.6372Q62.359375 108.8247 62.359375 109.090324Q62.359375 109.340324 62.1875 109.527824Q62.03125 109.6997 61.71875 109.6997Q61.40625 109.6997 61.234375 109.527824Q61.078125 109.340324 61.078125 109.090324ZM63.8125 113.8872Q63.8125 112.41845 64.5 111.54345Q65.1875 110.652824 66.3125 110.652824Q67.421875 110.652824 68.078125 111.402824L68.078125 108.10595L69.15625 108.10595L69.15625 117.10595L68.15625 117.10595L68.109375 116.41845Q67.453125 117.23095 66.296875 117.23095Q65.203125 117.23095 64.5 116.3247Q63.8125 115.41845 63.8125 113.965324L63.8125 113.8872ZM64.890625 114.0122Q64.890625 115.090324 65.328125 115.6997Q65.78125 116.309074 66.5625 116.309074Q67.59375 116.309074 68.078125 115.371574L68.078125 112.465324Q67.59375 111.5747 66.578125 111.5747Q65.78125 111.5747 65.328125 112.184074Q64.890625 112.79345 64.890625 114.0122Z" fill-rule="nonzero"/><path fill="#9e9e9e" d="M33.546875 135.10596L27.953125 135.10596L27.953125 134.3247L30.90625 131.04346Q31.5625 130.29346 31.8125 129.84033Q32.0625 129.37158 32.0625 128.87158Q32.0625 128.1997 31.65625 127.77783Q31.265625 127.34033 30.578125 127.34033Q29.78125 127.34033 29.328125 127.80908Q28.875 128.2622 28.875 129.09033L27.796875 129.09033Q27.796875 127.90283 28.546875 127.18408Q29.3125 126.44971 30.578125 126.44971Q31.78125 126.44971 32.46875 127.07471Q33.15625 127.69971 33.15625 128.74658Q33.15625 129.99658 31.546875 131.74658L29.265625 134.21533L33.546875 134.21533L33.546875 135.10596ZM35.09375 134.54346Q35.09375 134.2622 35.25 134.0747Q35.421875 133.8872 35.75 133.8872Q36.09375 133.8872 36.265625 134.0747Q36.4375 134.2622 36.4375 134.54346Q36.4375 134.80908 36.265625 134.99658Q36.09375 135.16846 35.75 135.16846Q35.421875 135.16846 35.25 134.99658Q35.09375 134.80908 35.09375 134.54346ZM42.53125 132.24658L43.71875 132.24658L43.71875 133.12158L42.53125 133.12158L42.53125 135.10596L41.453125 135.10596L41.453125 133.12158L37.5625 133.12158L37.5625 132.48096L41.375 126.57471L42.53125 126.57471L42.53125 132.24658ZM38.796875 132.24658L41.453125 132.24658L41.453125 128.05908L41.3125 128.29346L38.796875 132.24658ZM44.859375 128.21533Q44.859375 127.44971 45.34375 126.94971Q45.84375 126.44971 46.609375 126.44971Q47.390625 126.44971 47.875 126.94971Q48.359375 127.44971 48.359375 128.24658L48.359375 128.66846Q48.359375 129.43408 47.859375 129.93408Q47.375 130.41846 46.625 130.41846Q45.859375 130.41846 45.359375 129.93408Q44.859375 129.43408 44.859375 128.62158L44.859375 128.21533ZM45.671875 128.66846Q45.671875 129.12158 45.921875 129.41846Q46.1875 129.71533 46.625 129.71533Q47.046875 129.71533 47.296875 129.43408Q47.546875 129.1372 47.546875 128.6372L47.546875 128.21533Q47.546875 127.76221 47.296875 127.46533Q47.046875 127.15283 46.609375 127.15283Q46.171875 127.15283 45.921875 127.46533Q45.671875 127.76221 45.671875 128.23096L45.671875 128.66846ZM49.015625 133.0122Q49.015625 132.24658 49.5 131.7622Q50.0 131.2622 50.765625 131.2622Q51.53125 131.2622 52.015625 131.7622Q52.515625 132.24658 52.515625 133.05908L52.515625 133.46533Q52.515625 134.23096 52.03125 134.73096Q51.546875 135.23096 50.78125 135.23096Q50.015625 135.23096 49.515625 134.74658Q49.015625 134.24658 49.015625 133.43408L49.015625 133.0122ZM49.828125 133.46533Q49.828125 133.93408 50.078125 134.23096Q50.34375 134.52783 50.78125 134.52783Q51.203125 134.52783 51.453125 134.24658Q51.703125 133.9497 51.703125 133.4497L51.703125 133.0122Q51.703125 132.54346 51.4375 132.2622Q51.1875 131.96533 50.765625 131.96533Q50.34375 131.96533 50.078125 132.2622Q49.828125 132.54346 49.828125 133.04346L49.828125 133.46533ZM46.875 134.46533L46.25 134.0747L50.421875 127.40283L51.03125 127.79346L46.875 134.46533Z" fill-rule="nonzero"/><path stroke="#757575" stroke-width="1.0" stroke-linecap="butt" d="M27.25 121.60595L161.83333 121.60595L348.6215 130.82536" fill-rule="nonzero"/><path fill="#9e9e9e" d="M350.6215 130.82536C350.6215 129.72078 349.72604 128.82536 348.6215 128.82536C347.5169 128.82536 346.6215 129.72078 346.6215 130.82536C346.6215 131.92993 347.5169 132.82536 348.6215 132.82536C349.72604 132.82536 350.6215 131.92993 350.6215 130.82536" fill-rule="nonzero"/><path fill="#1a1a1a" d="M28.234375 150.10596L28.234375 141.5747L31.03125 141.5747Q32.421875 141.5747 33.109375 142.15283Q33.8125 142.71533 33.8125 143.84033Q33.8125 144.4497 33.46875 144.91846Q33.140625 145.37158 32.546875 145.62158Q33.25 145.80908 33.640625 146.35596Q34.046875 146.8872 34.046875 147.6372Q34.046875 148.79346 33.296875 149.4497Q32.5625 150.10596 31.203125 150.10596L28.234375 150.10596ZM29.359375 146.12158L29.359375 149.18408L31.21875 149.18408Q32.015625 149.18408 32.46875 148.77783Q32.921875 148.37158 32.921875 147.65283Q32.921875 146.12158 31.234375 146.12158L29.359375 146.12158ZM29.359375 145.21533L31.0625 145.21533Q31.796875 145.21533 32.234375 144.85596Q32.6875 144.48096 32.6875 143.84033Q32.6875 143.1372 32.28125 142.8247Q31.875 142.49658 31.03125 142.49658L29.359375 142.49658L29.359375 145.21533ZM37.75 146.30908Q36.3125 145.8872 35.640625 145.27783Q34.984375 144.66846 34.984375 143.77783Q34.984375 142.77783 35.78125 142.12158Q36.59375 141.4497 37.890625 141.4497Q38.765625 141.4497 39.453125 141.79346Q40.140625 142.1372 40.515625 142.73096Q40.90625 143.3247 40.90625 144.04346L39.765625 144.04346Q39.765625 143.2622 39.265625 142.8247Q38.78125 142.3872 37.890625 142.3872Q37.0625 142.3872 36.59375 142.7622Q36.125 143.12158 36.125 143.7622Q36.125 144.29346 36.5625 144.65283Q37.015625 145.0122 38.078125 145.30908Q39.140625 145.60596 39.734375 145.96533Q40.34375 146.3247 40.625 146.80908Q40.921875 147.29346 40.921875 147.93408Q40.921875 148.98096 40.109375 149.60596Q39.296875 150.23096 37.953125 150.23096Q37.0625 150.23096 36.296875 149.8872Q35.546875 149.54346 35.125 148.96533Q34.71875 148.37158 34.71875 147.6372L35.84375 147.6372Q35.84375 148.40283 36.421875 148.85596Q37.0 149.30908 37.953125 149.30908Q38.84375 149.30908 39.3125 148.9497Q39.78125 148.5747 39.78125 147.9497Q39.78125 147.3247 39.34375 146.98096Q38.90625 146.6372 37.75 146.30908ZM42.234375 150.10596L42.234375 141.5747L44.65625 141.5747Q45.765625 141.5747 46.609375 142.0747Q47.46875 142.55908 47.9375 143.46533Q48.40625 144.37158 48.40625 145.55908L48.40625 146.09033Q48.40625 147.30908 47.9375 148.21533Q47.484375 149.12158 46.609375 149.60596Q45.75 150.09033 44.609375 150.10596L42.234375 150.10596ZM43.359375 142.49658L43.359375 149.18408L44.546875 149.18408Q45.84375 149.18408 46.5625 148.3872Q47.296875 147.5747 47.296875 146.0747L47.296875 145.5747Q47.296875 144.12158 46.609375 143.3247Q45.9375 142.5122 44.671875 142.49658L43.359375 142.49658Z" fill-rule="nonzero"/><path fill="#9e9e9e" d="M33.546875 168.10596L27.953125 168.10596L27.953125 167.3247L30.90625 164.04346Q31.5625 163.29346 31.8125 162.84033Q32.0625 162.37158 32.0625 161.87158Q32.0625 161.1997 31.65625 160.77783Q31.265625 160.34033 30.578125 160.34033Q29.78125 160.34033 29.328125 160.80908Q28.875 161.2622 28.875 162.09033L27.796875 162.09033Q27.796875 160.90283 28.546875 160.18408Q29.3125 159.4497 30.578125 159.4497Q31.78125 159.4497 32.46875 160.0747Q33.15625 160.6997 33.15625 161.74658Q33.15625 162.99658 31.546875 164.74658L29.265625 167.21533L33.546875 167.21533L33.546875 168.10596ZM35.09375 167.54346Q35.09375 167.2622 35.25 167.0747Q35.421875 166.8872 35.75 166.8872Q36.09375 166.8872 36.265625 167.0747Q36.4375 167.2622 36.4375 167.54346Q36.4375 167.80908 36.265625 167.99658Q36.09375 168.16846 35.75 168.16846Q35.421875 168.16846 35.25 167.99658Q35.09375 167.80908 35.09375 167.54346ZM43.46875 160.18408L39.9375 168.10596L38.796875 168.10596L42.3125 160.46533L37.703125 160.46533L37.703125 159.5747L43.46875 159.5747L43.46875 160.18408ZM44.859375 161.21533Q44.859375 160.4497 45.34375 159.9497Q45.84375 159.4497 46.609375 159.4497Q47.390625 159.4497 47.875 159.9497Q48.359375 160.4497 48.359375 161.24658L48.359375 161.66846Q48.359375 162.43408 47.859375 162.93408Q47.375 163.41846 46.625 163.41846Q45.859375 163.41846 45.359375 162.93408Q44.859375 162.43408 44.859375 161.62158L44.859375 161.21533ZM45.671875 161.66846Q45.671875 162.12158 45.921875 162.41846Q46.1875 162.71533 46.625 162.71533Q47.046875 162.71533 47.296875 162.43408Q47.546875 162.1372 47.546875 161.6372L47.546875 161.21533Q47.546875 160.7622 47.296875 160.46533Q47.046875 160.15283 46.609375 160.15283Q46.171875 160.15283 45.921875 160.46533Q45.671875 160.7622 45.671875 161.23096L45.671875 161.66846ZM49.015625 166.0122Q49.015625 165.24658 49.5 164.7622Q50.0 164.2622 50.765625 164.2622Q51.53125 164.2622 52.015625 164.7622Q52.515625 165.24658 52.515625 166.05908L52.515625 166.46533Q52.515625 167.23096 52.03125 167.73096Q51.546875 168.23096 50.78125 168.23096Q50.015625 168.23096 49.515625 167.74658Q49.015625 167.24658 49.015625 166.43408L49.015625 166.0122ZM49.828125 166.46533Q49.828125 166.93408 50.078125 167.23096Q50.34375 167.52783 50.78125 167.52783Q51.203125 167.52783 51.453125 167.24658Q51.703125 166.9497 51.703125 166.4497L51.703125 166.0122Q51.703125 165.54346 51.4375 165.2622Q51.1875 164.96533 50.765625 164.96533Q50.34375 164.96533 50.078125 165.2622Q49.828125 165.54346 49.828125 166.04346L49.828125 166.46533ZM46.875 167.46533L46.25 167.0747L50.421875 160.40283L51.03125 160.79346L46.875 167.46533Z" fill-rule="nonzero"/><path stroke="#757575" stroke-width="1.0" stroke-linecap="butt" d="M27.25 154.60596L161.83333 154.60596L315.8209 137.56409" fill-rule="nonzero"/><path fill="#9e9e9e" d="M317.8209 137.56409C317.8209 136.45952 316.92548 135.56409 315.8209 135.56409C314.71634 135.56409 313.8209 136.45952 313.8209 137.56409C313.8209 138.66866 314.71634 139.56409 315.8209 139.56409C316.92548 139.56409 317.8209 138.66866 317.8209 137.56409" fill-rule="nonzero"/><path fill="#1a1a1a" d="M29.25 183.10596L28.171875 183.10596L28.171875 176.7622L29.25 176.7622L29.25 183.10596ZM28.078125 175.09033Q28.078125 174.8247 28.234375 174.6372Q28.40625 174.4497 28.71875 174.4497Q29.03125 174.4497 29.1875 174.6372Q29.359375 174.8247 29.359375 175.09033Q29.359375 175.34033 29.1875 175.52783Q29.03125 175.6997 28.71875 175.6997Q28.40625 175.6997 28.234375 175.52783Q28.078125 175.34033 28.078125 175.09033ZM37.796875 179.12158Q37.796875 180.37158 37.375 181.30908Q36.953125 182.23096 36.171875 182.73096Q35.40625 183.23096 34.375 183.23096Q33.375 183.23096 32.59375 182.73096Q31.8125 182.23096 31.375 181.3247Q30.953125 180.40283 30.9375 179.18408L30.9375 178.5747Q30.9375 177.34033 31.359375 176.40283Q31.796875 175.46533 32.578125 174.96533Q33.359375 174.4497 34.375 174.4497Q35.390625 174.4497 36.171875 174.9497Q36.953125 175.4497 37.375 176.3872Q37.796875 177.3247 37.796875 178.5747L37.796875 179.12158ZM36.6875 178.55908Q36.6875 177.04346 36.078125 176.23096Q35.46875 175.41846 34.375 175.41846Q33.296875 175.41846 32.6875 176.23096Q32.078125 177.04346 32.0625 178.48096L32.0625 179.12158Q32.0625 180.59033 32.671875 181.43408Q33.296875 182.2622 34.375 182.2622Q35.46875 182.2622 36.0625 181.48096Q36.671875 180.68408 36.6875 179.1997L36.6875 178.55908ZM41.75 179.30908Q40.3125 178.8872 39.640625 178.27783Q38.984375 177.66846 38.984375 176.77783Q38.984375 175.77783 39.78125 175.12158Q40.59375 174.4497 41.890625 174.4497Q42.765625 174.4497 43.453125 174.79346Q44.140625 175.1372 44.515625 175.73096Q44.90625 176.3247 44.90625 177.04346L43.765625 177.04346Q43.765625 176.2622 43.265625 175.8247Q42.78125 175.3872 41.890625 175.3872Q41.0625 175.3872 40.59375 175.7622Q40.125 176.12158 40.125 176.7622Q40.125 177.29346 40.5625 177.65283Q41.015625 178.0122 42.078125 178.30908Q43.140625 178.60596 43.734375 178.96533Q44.34375 179.3247 44.625 179.80908Q44.921875 180.29346 44.921875 180.93408Q44.921875 181.98096 44.109375 182.60596Q43.296875 183.23096 41.953125 183.23096Q41.0625 183.23096 40.296875 182.8872Q39.546875 182.54346 39.125 181.96533Q38.71875 181.37158 38.71875 180.6372L39.84375 180.6372Q39.84375 181.40283 40.421875 181.85596Q41.0 182.30908 41.953125 182.30908Q42.84375 182.30908 43.3125 181.9497Q43.78125 181.5747 43.78125 180.9497Q43.78125 180.3247 43.34375 179.98096Q42.90625 179.6372 41.75 179.30908Z" fill-rule="nonzero"/><path fill="#9e9e9e" d="M33.546875 201.10596L27.953125 201.10596L27.953125 200.3247L30.90625 197.04346Q31.5625 196.29346 31.8125 195.84033Q32.0625 195.37158 32.0625 194.87158Q32.0625 194.1997 31.65625 193.77783Q31.265625 193.34033 30.578125 193.34033Q29.78125 193.34033 29.328125 193.80908Q28.875 194.2622 28.875 195.09033L27.796875 195.09033Q27.796875 193.90283 28.546875 193.18408Q29.3125 192.4497 30.578125 192.4497Q31.78125 192.4497 32.46875 193.0747Q33.15625 193.6997 33.15625 194.74658Q33.15625 195.99658 31.546875 197.74658L29.265625 200.21533L33.546875 200.21533L33.546875 201.10596ZM35.09375 200.54346Q35.09375 200.2622 35.25 200.0747Q35.421875 199.8872 35.75 199.8872Q36.09375 199.8872 36.265625 200.0747Q36.4375 200.2622 36.4375 200.54346Q36.4375 200.80908 36.265625 200.99658Q36.09375 201.16846 35.75 201.16846Q35.421875 201.16846 35.25 200.99658Q35.09375 200.80908 35.09375 200.54346ZM42.109375 197.35596Q41.78125 197.7622 41.296875 198.0122Q40.828125 198.24658 40.265625 198.24658Q39.53125 198.24658 38.984375 197.8872Q38.4375 197.52783 38.140625 196.87158Q37.84375 196.1997 37.84375 195.40283Q37.84375 194.55908 38.15625 193.87158Q38.484375 193.18408 39.078125 192.8247Q39.6875 192.4497 40.484375 192.4497Q41.75 192.4497 42.46875 193.40283Q43.203125 194.35596 43.203125 195.98096L43.203125 196.29346Q43.203125 198.79346 42.21875 199.93408Q41.234375 201.0747 39.25 201.10596L39.03125 201.10596L39.03125 200.1997L39.265625 200.1997Q40.609375 200.16846 41.328125 199.49658Q42.046875 198.8247 42.109375 197.35596ZM40.4375 197.35596Q40.984375 197.35596 41.4375 197.02783Q41.90625 196.68408 42.125 196.1997L42.125 195.7622Q42.125 194.6997 41.65625 194.02783Q41.1875 193.35596 40.484375 193.35596Q39.765625 193.35596 39.328125 193.90283Q38.90625 194.4497 38.90625 195.35596Q38.90625 196.23096 39.3125 196.79346Q39.734375 197.35596 40.4375 197.35596ZM44.859375 194.21533Q44.859375 193.4497 45.34375 192.9497Q45.84375 192.4497 46.609375 192.4497Q47.390625 192.4497 47.875 192.9497Q48.359375 193.4497 48.359375 194.24658L48.359375 194.66846Q48.359375 195.43408 47.859375 195.93408Q47.375 196.41846 46.625 196.41846Q45.859375 196.41846 45.359375 195.93408Q44.859375 195.43408 44.859375 194.62158L44.859375 194.21533ZM45.671875 194.66846Q45.671875 195.12158 45.921875 195.41846Q46.1875 195.71533 46.625 195.71533Q47.046875 195.71533 47.296875 195.43408Q47.546875 195.1372 47.546875 194.6372L47.546875 194.21533Q47.546875 193.7622 47.296875 193.46533Q47.046875 193.15283 46.609375 193.15283Q46.171875 193.15283 45.921875 193.46533Q45.671875 193.7622 45.671875 194.23096L45.671875 194.66846ZM49.015625 199.0122Q49.015625 198.24658 49.5 197.7622Q50.0 197.2622 50.765625 197.2622Q51.53125 197.2622 52.015625 197.7622Q52.515625 198.24658 52.515625 199.05908L52.515625 199.46533Q52.515625 200.23096 52.03125 200.73096Q51.546875 201.23096 50.78125 201.23096Q50.015625 201.23096 49.515625 200.74658Q49.015625 200.24658 49.015625 199.43408L49.015625 199.0122ZM49.828125 199.46533Q49.828125 199.93408 50.078125 200.23096Q50.34375 200.52783 50.78125 200.52783Q51.203125 200.52783 51.453125 200.24658Q51.703125 199.9497 51.703125 199.4497L51.703125 199.0122Q51.703125 198.54346 51.4375 198.2622Q51.1875 197.96533 50.765625 197.96533Q50.34375 197.96533 50.078125 198.2622Q49.828125 198.54346 49.828125 199.04346L49.828125 199.46533ZM46.875 200.46533L46.25 200.0747L50.421875 193.40283L51.03125 193.79346L46.875 200.46533Z" fill-rule="nonzero"/><path stroke="#757575" stroke-width="1.0" stroke-linecap="butt" d="M27.25 187.60596L161.83333 187.60596L281.8585 149.18616" fill-rule="nonzero"/><path fill="#9e9e9e" d="M283.8585 149.18616C283.8585 148.08159 282.96307 147.18616 281.8585 147.18616C280.75394 147.18616 279.8585 148.08159 279.8585 149.18616C279.8585 150.29073 280.75394 151.18616 281.8585 151.18616C282.96307 151.18616 283.8585 150.29073 283.8585 149.18616" fill-rule="nonzero"/><path fill="#1a1a1a" d="M33.0625 212.16846L29.359375 212.16846L29.359375 215.18408L33.65625 215.18408L33.65625 216.10596L28.234375 216.10596L28.234375 207.5747L33.609375 207.5747L33.609375 208.49658L29.359375 208.49658L29.359375 211.24658L33.0625 211.24658L33.0625 212.16846ZM36.09375 209.7622L36.125 210.46533Q36.8125 209.65283 38.0 209.65283Q39.328125 209.65283 39.8125 210.66846Q40.125 210.21533 40.625 209.93408Q41.140625 209.65283 41.828125 209.65283Q43.921875 209.65283 43.953125 211.85596L43.953125 216.10596L42.875 216.10596L42.875 211.91846Q42.875 211.24658 42.5625 210.91846Q42.25 210.5747 41.515625 210.5747Q40.90625 210.5747 40.5 210.93408Q40.109375 211.29346 40.046875 211.90283L40.046875 216.10596L38.96875 216.10596L38.96875 211.9497Q38.96875 210.5747 37.609375 210.5747Q36.546875 210.5747 36.15625 211.48096L36.15625 216.10596L35.0625 216.10596L35.0625 209.7622L36.09375 209.7622ZM51.4375 213.0122Q51.4375 214.46533 50.765625 215.35596Q50.109375 216.23096 48.984375 216.23096Q47.78125 216.23096 47.125 215.37158L47.0625 216.10596L46.078125 216.10596L46.078125 207.10596L47.15625 207.10596L47.15625 210.46533Q47.8125 209.65283 48.96875 209.65283Q50.125 209.65283 50.78125 210.52783Q51.4375 211.3872 51.4375 212.91846L51.4375 213.0122ZM50.359375 212.8872Q50.359375 211.77783 49.921875 211.18408Q49.5 210.5747 48.703125 210.5747Q47.625 210.5747 47.15625 211.55908L47.15625 214.30908Q47.65625 215.30908 48.703125 215.30908Q49.484375 215.30908 49.921875 214.6997Q50.359375 214.09033 50.359375 212.8872ZM55.703125 216.23096Q54.40625 216.23096 53.59375 215.3872Q52.796875 214.52783 52.796875 213.10596L52.796875 212.91846Q52.796875 211.96533 53.15625 211.23096Q53.515625 210.48096 54.15625 210.0747Q54.8125 209.65283 55.5625 209.65283Q56.796875 209.65283 57.484375 210.46533Q58.171875 211.27783 58.171875 212.79346L58.171875 213.24658L53.875 213.24658Q53.90625 214.18408 54.421875 214.7622Q54.953125 215.34033 55.765625 215.34033Q56.328125 215.34033 56.71875 215.10596Q57.125 214.87158 57.4375 214.48096L58.09375 214.99658Q57.296875 216.23096 55.703125 216.23096ZM55.5625 210.54346Q54.90625 210.54346 54.453125 211.02783Q54.015625 211.49658 53.921875 212.35596L57.09375 212.35596L57.09375 212.27783Q57.046875 211.4497 56.640625 210.99658Q56.25 210.54346 55.5625 210.54346ZM58.8125 212.8872Q58.8125 211.41846 59.5 210.54346Q60.1875 209.65283 61.3125 209.65283Q62.421875 209.65283 63.078125 210.40283L63.078125 207.10596L64.15625 207.10596L64.15625 216.10596L63.15625 216.10596L63.109375 215.41846Q62.453125 216.23096 61.296875 216.23096Q60.203125 216.23096 59.5 215.3247Q58.8125 214.41846 58.8125 212.96533L58.8125 212.8872ZM59.890625 213.0122Q59.890625 214.09033 60.328125 214.6997Q60.78125 215.30908 61.5625 215.30908Q62.59375 215.30908 63.078125 214.37158L63.078125 211.46533Q62.59375 210.5747 61.578125 210.5747Q60.78125 210.5747 60.328125 211.18408Q59.890625 211.79346 59.890625 213.0122ZM65.8125 212.8872Q65.8125 211.41846 66.5 210.54346Q67.1875 209.65283 68.3125 209.65283Q69.421875 209.65283 70.078125 210.40283L70.078125 207.10596L71.15625 207.10596L71.15625 216.10596L70.15625 216.10596L70.109375 215.41846Q69.453125 216.23096 68.296875 216.23096Q67.203125 216.23096 66.5 215.3247Q65.8125 214.41846 65.8125 212.96533L65.8125 212.8872ZM66.890625 213.0122Q66.890625 214.09033 67.328125 214.6997Q67.78125 215.30908 68.5625 215.30908Q69.59375 215.30908 70.078125 214.37158L70.078125 211.46533Q69.59375 210.5747 68.578125 210.5747Q67.78125 210.5747 67.328125 211.18408Q66.890625 211.79346 66.890625 213.0122ZM75.703125 216.23096Q74.40625 216.23096 73.59375 215.3872Q72.796875 214.52783 72.796875 213.10596L72.796875 212.91846Q72.796875 211.96533 73.15625 211.23096Q73.515625 210.48096 74.15625 210.0747Q74.8125 209.65283 75.5625 209.65283Q76.796875 209.65283 77.484375 210.46533Q78.171875 211.27783 78.171875 212.79346L78.171875 213.24658L73.875 213.24658Q73.90625 214.18408 74.421875 214.7622Q74.953125 215.34033 75.765625 215.34033Q76.328125 215.34033 76.71875 215.10596Q77.125 214.87158 77.4375 214.48096L78.09375 214.99658Q77.296875 216.23096 75.703125 216.23096ZM75.5625 210.54346Q74.90625 210.54346 74.453125 211.02783Q74.015625 211.49658 73.921875 212.35596L77.09375 212.35596L77.09375 212.27783Q77.046875 211.4497 76.640625 210.99658Q76.25 210.54346 75.5625 210.54346ZM78.8125 212.8872Q78.8125 211.41846 79.5 210.54346Q80.1875 209.65283 81.3125 209.65283Q82.421875 209.65283 83.078125 210.40283L83.078125 207.10596L84.15625 207.10596L84.15625 216.10596L83.15625 216.10596L83.109375 215.41846Q82.453125 216.23096 81.296875 216.23096Q80.203125 216.23096 79.5 215.3247Q78.8125 214.41846 78.8125 212.96533L78.8125 212.8872ZM79.890625 213.0122Q79.890625 214.09033 80.328125 214.6997Q80.78125 215.30908 81.5625 215.30908Q82.59375 215.30908 83.078125 214.37158L83.078125 211.46533Q82.59375 210.5747 81.578125 210.5747Q80.78125 210.5747 80.328125 211.18408Q79.890625 211.79346 79.890625 213.0122Z" fill-rule="nonzero"/><path fill="#9e9e9e" d="M33.46875 226.18408L29.9375 234.10596L28.796875 234.10596L32.3125 226.46533L27.703125 226.46533L27.703125 225.5747L33.46875 225.5747L33.46875 226.18408ZM35.09375 233.54346Q35.09375 233.2622 35.25 233.0747Q35.421875 232.8872 35.75 232.8872Q36.09375 232.8872 36.265625 233.0747Q36.4375 233.2622 36.4375 233.54346Q36.4375 233.80908 36.265625 233.99658Q36.09375 234.16846 35.75 234.16846Q35.421875 234.16846 35.25 233.99658Q35.09375 233.80908 35.09375 233.54346ZM42.21875 225.5747L42.21875 226.48096L42.015625 226.48096Q40.75 226.5122 40.0 227.24658Q39.25 227.96533 39.125 229.27783Q39.8125 228.5122 40.96875 228.5122Q42.078125 228.5122 42.75 229.29346Q43.421875 230.0747 43.421875 231.3247Q43.421875 232.6372 42.703125 233.43408Q41.984375 234.23096 40.765625 234.23096Q39.546875 234.23096 38.78125 233.29346Q38.03125 232.34033 38.03125 230.85596L38.03125 230.4497Q38.03125 228.09033 39.03125 226.84033Q40.03125 225.59033 42.015625 225.5747L42.21875 225.5747ZM40.796875 229.41846Q40.234375 229.41846 39.765625 229.74658Q39.296875 230.0747 39.109375 230.59033L39.109375 230.98096Q39.109375 232.04346 39.578125 232.68408Q40.0625 233.3247 40.765625 233.3247Q41.5 233.3247 41.921875 232.79346Q42.34375 232.24658 42.34375 231.37158Q42.34375 230.49658 41.921875 229.96533Q41.5 229.41846 40.796875 229.41846ZM44.859375 227.21533Q44.859375 226.4497 45.34375 225.9497Q45.84375 225.4497 46.609375 225.4497Q47.390625 225.4497 47.875 225.9497Q48.359375 226.4497 48.359375 227.24658L48.359375 227.66846Q48.359375 228.43408 47.859375 228.93408Q47.375 229.41846 46.625 229.41846Q45.859375 229.41846 45.359375 228.93408Q44.859375 228.43408 44.859375 227.62158L44.859375 227.21533ZM45.671875 227.66846Q45.671875 228.12158 45.921875 228.41846Q46.1875 228.71533 46.625 228.71533Q47.046875 228.71533 47.296875 228.43408Q47.546875 228.1372 47.546875 227.6372L47.546875 227.21533Q47.546875 226.7622 47.296875 226.46533Q47.046875 226.15283 46.609375 226.15283Q46.171875 226.15283 45.921875 226.46533Q45.671875 226.7622 45.671875 227.23096L45.671875 227.66846ZM49.015625 232.0122Q49.015625 231.24658 49.5 230.7622Q50.0 230.2622 50.765625 230.2622Q51.53125 230.2622 52.015625 230.7622Q52.515625 231.24658 52.515625 232.05908L52.515625 232.46533Q52.515625 233.23096 52.03125 233.73096Q51.546875 234.23096 50.78125 234.23096Q50.015625 234.23096 49.515625 233.74658Q49.015625 233.24658 49.015625 232.43408L49.015625 232.0122ZM49.828125 232.46533Q49.828125 232.93408 50.078125 233.23096Q50.34375 233.52783 50.78125 233.52783Q51.203125 233.52783 51.453125 233.24658Q51.703125 232.9497 51.703125 232.4497L51.703125 232.0122Q51.703125 231.54346 51.4375 231.2622Q51.1875 230.96533 50.765625 230.96533Q50.34375 230.96533 50.078125 231.2622Q49.828125 231.54346 49.828125 232.04346L49.828125 232.46533ZM46.875 233.46533L46.25 233.0747L50.421875 226.40283L51.03125 226.79346L46.875 233.46533Z" fill-rule="nonzero"/><path stroke="#757575" stroke-width="1.0" stroke-linecap="butt" d="M27.25 220.60596L161.83333 220.60596L228.81326 180.99268" fill-rule="nonzero"/><path fill="#9e9e9e" d="M230.81326 180.99268C230.81326 179.8881 229.91783 178.99268 228.81326 178.99268C227.7087 178.99268 226.81326 179.8881 226.81326 180.99268C226.81326 182.09724 227.7087 182.99268 228.81326 182.99268C229.91783 182.99268 230.81326 182.09724 230.81326 180.99268" fill-rule="nonzero"/><path fill="#1a1a1a" d="M30.078125 268.47928L30.25 269.60428L30.484375 268.58865L32.171875 262.63553L33.125 262.63553L34.765625 268.58865L35.0 269.6199L35.1875 268.46365L36.515625 262.63553L37.640625 262.63553L35.578125 271.16678L34.546875 271.16678L32.78125 264.94803L32.65625 264.29178L32.515625 264.94803L30.703125 271.16678L29.671875 271.16678L27.609375 262.63553L28.734375 262.63553L30.078125 268.47928ZM41.703125 271.29178Q40.40625 271.29178 39.59375 270.44803Q38.796875 269.58865 38.796875 268.16678L38.796875 267.97928Q38.796875 267.02615 39.15625 266.29178Q39.515625 265.54178 40.15625 265.13553Q40.8125 264.71365 41.5625 264.71365Q42.796875 264.71365 43.484375 265.52615Q44.171875 266.33865 44.171875 267.85428L44.171875 268.3074L39.875 268.3074Q39.90625 269.2449 40.421875 269.82303Q40.953125 270.40115 41.765625 270.40115Q42.328125 270.40115 42.71875 270.16678Q43.125 269.9324 43.4375 269.54178L44.09375 270.0574Q43.296875 271.29178 41.703125 271.29178ZM41.5625 265.60428Q40.90625 265.60428 40.453125 266.08865Q40.015625 266.5574 39.921875 267.41678L43.09375 267.41678L43.09375 267.33865Q43.046875 266.51053 42.640625 266.0574Q42.25 265.60428 41.5625 265.60428ZM50.4375 268.07303Q50.4375 269.52615 49.765625 270.41678Q49.109375 271.29178 47.984375 271.29178Q46.78125 271.29178 46.125 270.4324L46.0625 271.16678L45.078125 271.16678L45.078125 262.16678L46.15625 262.16678L46.15625 265.52615Q46.8125 264.71365 47.96875 264.71365Q49.125 264.71365 49.78125 265.58865Q50.4375 266.44803 50.4375 267.97928L50.4375 268.07303ZM49.359375 267.94803Q49.359375 266.83865 48.921875 266.2449Q48.5 265.63553 47.703125 265.63553Q46.625 265.63553 46.15625 266.6199L46.15625 269.3699Q46.65625 270.3699 47.703125 270.3699Q48.484375 270.3699 48.921875 269.76053Q49.359375 269.15115 49.359375 267.94803ZM56.953125 268.9324L53.375 268.9324L52.578125 271.16678L51.421875 271.16678L54.671875 262.63553L55.65625 262.63553L58.921875 271.16678L57.765625 271.16678L56.953125 268.9324ZM53.71875 268.01053L56.625 268.01053L55.171875 264.02615L53.71875 268.01053ZM63.765625 269.47928Q63.765625 269.04178 63.421875 268.8074Q63.09375 268.5574 62.265625 268.38553Q61.453125 268.21365 60.96875 267.96365Q60.484375 267.71365 60.25 267.38553Q60.03125 267.04178 60.03125 266.57303Q60.03125 265.79178 60.6875 265.26053Q61.34375 264.71365 62.375 264.71365Q63.453125 264.71365 64.109375 265.27615Q64.78125 265.82303 64.78125 266.6824L63.703125 266.6824Q63.703125 266.2449 63.3125 265.9324Q62.9375 265.60428 62.375 265.60428Q61.78125 265.60428 61.4375 265.8699Q61.109375 266.1199 61.109375 266.52615Q61.109375 266.91678 61.421875 267.1199Q61.734375 267.32303 62.546875 267.51053Q63.359375 267.6824 63.859375 267.9324Q64.359375 268.1824 64.59375 268.54178Q64.84375 268.90115 64.84375 269.40115Q64.84375 270.26053 64.15625 270.77615Q63.484375 271.29178 62.40625 271.29178Q61.640625 271.29178 61.046875 271.02615Q60.46875 270.7449 60.140625 270.26053Q59.8125 269.77615 59.8125 269.21365L60.890625 269.21365Q60.921875 269.76053 61.328125 270.08865Q61.734375 270.40115 62.40625 270.40115Q63.015625 270.40115 63.390625 270.15115Q63.765625 269.90115 63.765625 269.47928ZM69.765625 269.47928Q69.765625 269.04178 69.421875 268.8074Q69.09375 268.5574 68.265625 268.38553Q67.453125 268.21365 66.96875 267.96365Q66.484375 267.71365 66.25 267.38553Q66.03125 267.04178 66.03125 266.57303Q66.03125 265.79178 66.6875 265.26053Q67.34375 264.71365 68.375 264.71365Q69.453125 264.71365 70.109375 265.27615Q70.78125 265.82303 70.78125 266.6824L69.703125 266.6824Q69.703125 266.2449 69.3125 265.9324Q68.9375 265.60428 68.375 265.60428Q67.78125 265.60428 67.4375 265.8699Q67.109375 266.1199 67.109375 266.52615Q67.109375 266.91678 67.421875 267.1199Q67.734375 267.32303 68.546875 267.51053Q69.359375 267.6824 69.859375 267.9324Q70.359375 268.1824 70.59375 268.54178Q70.84375 268.90115 70.84375 269.40115Q70.84375 270.26053 70.15625 270.77615Q69.484375 271.29178 68.40625 271.29178Q67.640625 271.29178 67.046875 271.02615Q66.46875 270.7449 66.140625 270.26053Q65.8125 269.77615 65.8125 269.21365L66.890625 269.21365Q66.921875 269.76053 67.328125 270.08865Q67.734375 270.40115 68.40625 270.40115Q69.015625 270.40115 69.390625 270.15115Q69.765625 269.90115 69.765625 269.47928ZM74.703125 271.29178Q73.40625 271.29178 72.59375 270.44803Q71.796875 269.58865 71.796875 268.16678L71.796875 267.97928Q71.796875 267.02615 72.15625 266.29178Q72.515625 265.54178 73.15625 265.13553Q73.8125 264.71365 74.5625 264.71365Q75.796875 264.71365 76.484375 265.52615Q77.171875 266.33865 77.171875 267.85428L77.171875 268.3074L72.875 268.3074Q72.90625 269.2449 73.421875 269.82303Q73.953125 270.40115 74.765625 270.40115Q75.328125 270.40115 75.71875 270.16678Q76.125 269.9324 76.4375 269.54178L77.09375 270.0574Q76.296875 271.29178 74.703125 271.29178ZM74.5625 265.60428Q73.90625 265.60428 73.453125 266.08865Q73.015625 266.5574 72.921875 267.41678L76.09375 267.41678L76.09375 267.33865Q76.046875 266.51053 75.640625 266.0574Q75.25 265.60428 74.5625 265.60428ZM79.09375 264.82303L79.125 265.52615Q79.8125 264.71365 81.0 264.71365Q82.328125 264.71365 82.8125 265.72928Q83.125 265.27615 83.625 264.9949Q84.140625 264.71365 84.828125 264.71365Q86.921875 264.71365 86.953125 266.91678L86.953125 271.16678L85.875 271.16678L85.875 266.97928Q85.875 266.3074 85.5625 265.97928Q85.25 265.63553 84.515625 265.63553Q83.90625 265.63553 83.5 265.9949Q83.109375 266.35428 83.046875 266.96365L83.046875 271.16678L81.96875 271.16678L81.96875 267.01053Q81.96875 265.63553 80.609375 265.63553Q79.546875 265.63553 79.15625 266.54178L79.15625 271.16678L78.0625 271.16678L78.0625 264.82303L79.09375 264.82303ZM94.4375 268.07303Q94.4375 269.52615 93.765625 270.41678Q93.109375 271.29178 91.984375 271.29178Q90.78125 271.29178 90.125 270.4324L90.0625 271.16678L89.078125 271.16678L89.078125 262.16678L90.15625 262.16678L90.15625 265.52615Q90.8125 264.71365 91.96875 264.71365Q93.125 264.71365 93.78125 265.58865Q94.4375 266.44803 94.4375 267.97928L94.4375 268.07303ZM93.359375 267.94803Q93.359375 266.83865 92.921875 266.2449Q92.5 265.63553 91.703125 265.63553Q90.625 265.63553 90.15625 266.6199L90.15625 269.3699Q90.65625 270.3699 91.703125 270.3699Q92.484375 270.3699 92.921875 269.76053Q93.359375 269.15115 93.359375 267.94803ZM97.25 271.16678L96.171875 271.16678L96.171875 262.16678L97.25 262.16678L97.25 271.16678ZM101.140625 269.57303L102.625 264.82303L103.78125 264.82303L101.234375 272.15115Q100.640625 273.72928 99.359375 273.72928L99.140625 273.71365L98.75 273.63553L98.75 272.76053L99.03125 272.77615Q99.59375 272.77615 99.890625 272.5574Q100.203125 272.33865 100.40625 271.7449L100.640625 271.08865L98.375 264.82303L99.5625 264.82303L101.140625 269.57303Z" fill-rule="nonzero"/><path fill="#9e9e9e" d="M31.515625 289.16678L30.4375 289.16678L30.4375 281.94803L28.25 282.7449L28.25 281.76053L31.359375 280.58865L31.515625 280.58865L31.515625 289.16678ZM39.53125 286.3074L40.71875 286.3074L40.71875 287.1824L39.53125 287.1824L39.53125 289.16678L38.453125 289.16678L38.453125 287.1824L34.5625 287.1824L34.5625 286.54178L38.375 280.63553L39.53125 280.63553L39.53125 286.3074ZM35.796875 286.3074L38.453125 286.3074L38.453125 282.1199L38.3125 282.35428L35.796875 286.3074ZM42.09375 288.60428Q42.09375 288.32303 42.25 288.13553Q42.421875 287.94803 42.75 287.94803Q43.09375 287.94803 43.265625 288.13553Q43.4375 288.32303 43.4375 288.60428Q43.4375 288.8699 43.265625 289.0574Q43.09375 289.22928 42.75 289.22928Q42.421875 289.22928 42.25 289.0574Q42.09375 288.8699 42.09375 288.60428ZM49.53125 286.3074L50.71875 286.3074L50.71875 287.1824L49.53125 287.1824L49.53125 289.16678L48.453125 289.16678L48.453125 287.1824L44.5625 287.1824L44.5625 286.54178L48.375 280.63553L49.53125 280.63553L49.53125 286.3074ZM45.796875 286.3074L48.453125 286.3074L48.453125 282.1199L48.3125 282.35428L45.796875 286.3074ZM51.859375 282.27615Q51.859375 281.51053 52.34375 281.01053Q52.84375 280.51053 53.609375 280.51053Q54.390625 280.51053 54.875 281.01053Q55.359375 281.51053 55.359375 282.3074L55.359375 282.72928Q55.359375 283.4949 54.859375 283.9949Q54.375 284.47928 53.625 284.47928Q52.859375 284.47928 52.359375 283.9949Q51.859375 283.4949 51.859375 282.6824L51.859375 282.27615ZM52.671875 282.72928Q52.671875 283.1824 52.921875 283.47928Q53.1875 283.77615 53.625 283.77615Q54.046875 283.77615 54.296875 283.4949Q54.546875 283.19803 54.546875 282.69803L54.546875 282.27615Q54.546875 281.82303 54.296875 281.52615Q54.046875 281.21365 53.609375 281.21365Q53.171875 281.21365 52.921875 281.52615Q52.671875 281.82303 52.671875 282.29178L52.671875 282.72928ZM56.015625 287.07303Q56.015625 286.3074 56.5 285.82303Q57.0 285.32303 57.765625 285.32303Q58.53125 285.32303 59.015625 285.82303Q59.515625 286.3074 59.515625 287.1199L59.515625 287.52615Q59.515625 288.29178 59.03125 288.79178Q58.546875 289.29178 57.78125 289.29178Q57.015625 289.29178 56.515625 288.8074Q56.015625 288.3074 56.015625 287.4949L56.015625 287.07303ZM56.828125 287.52615Q56.828125 287.9949 57.078125 288.29178Q57.34375 288.58865 57.78125 288.58865Q58.203125 288.58865 58.453125 288.3074Q58.703125 288.01053 58.703125 287.51053L58.703125 287.07303Q58.703125 286.60428 58.4375 286.32303Q58.1875 286.02615 57.765625 286.02615Q57.34375 286.02615 57.078125 286.32303Q56.828125 286.60428 56.828125 287.10428L56.828125 287.52615ZM53.875 288.52615L53.25 288.13553L57.421875 281.46365L58.03125 281.85428L53.875 288.52615Z" fill-rule="nonzero"/><path stroke="#757575" stroke-width="1.0" stroke-linecap="butt" d="M27.25 275.66678L161.83333 275.66678L179.0475 275.66678" fill-rule="nonzero"/><path fill="#9e9e9e" d="M181.0475 275.66678C181.0475 274.56223 180.15208 273.66678 179.0475 273.66678C177.94293 273.66678 177.0475 274.56223 177.0475 275.66678C177.0475 276.77136 177.94293 277.66678 179.0475 277.66678C180.15208 277.66678 181.0475 276.77136 181.0475 275.66678" fill-rule="nonzero"/><path fill="#1a1a1a" d="M29.09375 383.2962L29.125 383.99933Q29.8125 383.18683 31.0 383.18683Q32.328125 383.18683 32.8125 384.20245Q33.125 383.74933 33.625 383.46808Q34.140625 383.18683 34.828125 383.18683Q36.921875 383.18683 36.953125 385.38995L36.953125 389.63995L35.875 389.63995L35.875 385.45245Q35.875 384.78058 35.5625 384.45245Q35.25 384.1087 34.515625 384.1087Q33.90625 384.1087 33.5 384.46808Q33.109375 384.82745 33.046875 385.43683L33.046875 389.63995L31.96875 389.63995L31.96875 385.4837Q31.96875 384.1087 30.609375 384.1087Q29.546875 384.1087 29.15625 385.01495L29.15625 389.63995L28.0625 389.63995L28.0625 383.2962L29.09375 383.2962ZM42.984375 389.63995Q42.890625 389.45245 42.828125 388.96808Q42.078125 389.76495 41.03125 389.76495Q40.09375 389.76495 39.484375 389.2337Q38.890625 388.70245 38.890625 387.87433Q38.890625 386.88995 39.640625 386.34308Q40.390625 385.7962 41.765625 385.7962L42.8125 385.7962L42.8125 385.2962Q42.8125 384.7337 42.46875 384.40558Q42.140625 384.06183 41.46875 384.06183Q40.890625 384.06183 40.5 384.3587Q40.109375 384.63995 40.109375 385.06183L39.015625 385.06183Q39.015625 384.57745 39.34375 384.13995Q39.6875 383.70245 40.265625 383.45245Q40.84375 383.18683 41.53125 383.18683Q42.640625 383.18683 43.25 383.7337Q43.875 384.28058 43.90625 385.2337L43.90625 388.15558Q43.90625 389.03058 44.125 389.5462L44.125 389.63995L42.984375 389.63995ZM41.1875 388.81183Q41.703125 388.81183 42.15625 388.5462Q42.609375 388.28058 42.8125 387.8587L42.8125 386.56183L41.96875 386.56183Q39.96875 386.56183 39.96875 387.7337Q39.96875 388.2337 40.3125 388.53058Q40.65625 388.81183 41.1875 388.81183ZM48.609375 388.87433Q49.1875 388.87433 49.625 388.53058Q50.0625 388.1712 50.109375 387.63995L51.140625 387.63995Q51.109375 388.18683 50.75 388.68683Q50.40625 389.1712 49.828125 389.46808Q49.265625 389.76495 48.609375 389.76495Q47.3125 389.76495 46.546875 388.90558Q45.796875 388.03058 45.796875 386.53058L45.796875 386.34308Q45.796875 385.4212 46.125 384.70245Q46.46875 383.9837 47.09375 383.59308Q47.734375 383.18683 48.609375 383.18683Q49.671875 383.18683 50.375 383.82745Q51.09375 384.45245 51.140625 385.4837L50.109375 385.4837Q50.0625 384.8587 49.640625 384.46808Q49.21875 384.07745 48.609375 384.07745Q47.78125 384.07745 47.328125 384.6712Q46.875 385.26495 46.875 386.38995L46.875 386.59308Q46.875 387.68683 47.328125 388.28058Q47.78125 388.87433 48.609375 388.87433ZM58.796875 385.65558Q58.796875 386.90558 58.375 387.84308Q57.953125 388.76495 57.171875 389.26495Q56.40625 389.76495 55.375 389.76495Q54.375 389.76495 53.59375 389.26495Q52.8125 388.76495 52.375 387.8587Q51.953125 386.93683 51.9375 385.71808L51.9375 385.1087Q51.9375 383.87433 52.359375 382.93683Q52.796875 381.99933 53.578125 381.49933Q54.359375 380.9837 55.375 380.9837Q56.390625 380.9837 57.171875 381.4837Q57.953125 381.9837 58.375 382.9212Q58.796875 383.8587 58.796875 385.1087L58.796875 385.65558ZM57.6875 385.09308Q57.6875 383.57745 57.078125 382.76495Q56.46875 381.95245 55.375 381.95245Q54.296875 381.95245 53.6875 382.76495Q53.078125 383.57745 53.0625 385.01495L53.0625 385.65558Q53.0625 387.12433 53.671875 387.96808Q54.296875 388.7962 55.375 388.7962Q56.46875 388.7962 57.0625 388.01495Q57.671875 387.21808 57.6875 385.7337L57.6875 385.09308ZM62.75 385.84308Q61.3125 385.4212 60.640625 384.81183Q59.984375 384.20245 59.984375 383.31183Q59.984375 382.31183 60.78125 381.65558Q61.59375 380.9837 62.890625 380.9837Q63.765625 380.9837 64.453125 381.32745Q65.140625 381.6712 65.515625 382.26495Q65.90625 382.8587 65.90625 383.57745L64.765625 383.57745Q64.765625 382.7962 64.265625 382.3587Q63.78125 381.9212 62.890625 381.9212Q62.0625 381.9212 61.59375 382.2962Q61.125 382.65558 61.125 383.2962Q61.125 383.82745 61.5625 384.18683Q62.015625 384.5462 63.078125 384.84308Q64.140625 385.13995 64.734375 385.49933Q65.34375 385.8587 65.625 386.34308Q65.921875 386.82745 65.921875 387.46808Q65.921875 388.51495 65.109375 389.13995Q64.296875 389.76495 62.953125 389.76495Q62.0625 389.76495 61.296875 389.4212Q60.546875 389.07745 60.125 388.49933Q59.71875 387.90558 59.71875 387.1712L60.84375 387.1712Q60.84375 387.93683 61.421875 388.38995Q62.0 388.84308 62.953125 388.84308Q63.84375 388.84308 64.3125 388.4837Q64.78125 388.1087 64.78125 387.4837Q64.78125 386.8587 64.34375 386.51495Q63.90625 386.1712 62.75 385.84308Z" fill-rule="nonzero"/><path fill="#9e9e9e" d="M31.515625 407.63995L30.4375 407.63995L30.4375 400.4212L28.25 401.21808L28.25 400.2337L31.359375 399.06183L31.515625 399.06183L31.515625 407.63995ZM39.53125 404.78058L40.71875 404.78058L40.71875 405.65558L39.53125 405.65558L39.53125 407.63995L38.453125 407.63995L38.453125 405.65558L34.5625 405.65558L34.5625 405.01495L38.375 399.1087L39.53125 399.1087L39.53125 404.78058ZM35.796875 404.78058L38.453125 404.78058L38.453125 400.59308L38.3125 400.82745L35.796875 404.78058ZM42.09375 407.07745Q42.09375 406.7962 42.25 406.6087Q42.421875 406.4212 42.75 406.4212Q43.09375 406.4212 43.265625 406.6087Q43.4375 406.7962 43.4375 407.07745Q43.4375 407.34308 43.265625 407.53058Q43.09375 407.70245 42.75 407.70245Q42.421875 407.70245 42.25 407.53058Q42.09375 407.34308 42.09375 407.07745ZM50.46875 399.71808L46.9375 407.63995L45.796875 407.63995L49.3125 399.99933L44.703125 399.99933L44.703125 399.1087L50.46875 399.1087L50.46875 399.71808ZM51.859375 400.74933Q51.859375 399.9837 52.34375 399.4837Q52.84375 398.9837 53.609375 398.9837Q54.390625 398.9837 54.875 399.4837Q55.359375 399.9837 55.359375 400.78058L55.359375 401.20245Q55.359375 401.96808 54.859375 402.46808Q54.375 402.95245 53.625 402.95245Q52.859375 402.95245 52.359375 402.46808Q51.859375 401.96808 51.859375 401.15558L51.859375 400.74933ZM52.671875 401.20245Q52.671875 401.65558 52.921875 401.95245Q53.1875 402.24933 53.625 402.24933Q54.046875 402.24933 54.296875 401.96808Q54.546875 401.6712 54.546875 401.1712L54.546875 400.74933Q54.546875 400.2962 54.296875 399.99933Q54.046875 399.68683 53.609375 399.68683Q53.171875 399.68683 52.921875 399.99933Q52.671875 400.2962 52.671875 400.76495L52.671875 401.20245ZM56.015625 405.5462Q56.015625 404.78058 56.5 404.2962Q57.0 403.7962 57.765625 403.7962Q58.53125 403.7962 59.015625 404.2962Q59.515625 404.78058 59.515625 405.59308L59.515625 405.99933Q59.515625 406.76495 59.03125 407.26495Q58.546875 407.76495 57.78125 407.76495Q57.015625 407.76495 56.515625 407.28058Q56.015625 406.78058 56.015625 405.96808L56.015625 405.5462ZM56.828125 405.99933Q56.828125 406.46808 57.078125 406.76495Q57.34375 407.06183 57.78125 407.06183Q58.203125 407.06183 58.453125 406.78058Q58.703125 406.4837 58.703125 405.9837L58.703125 405.5462Q58.703125 405.07745 58.4375 404.7962Q58.1875 404.49933 57.765625 404.49933Q57.34375 404.49933 57.078125 404.7962Q56.828125 405.07745 56.828125 405.57745L56.828125 405.99933ZM53.875 406.99933L53.25 406.6087L57.421875 399.93683L58.03125 400.32745L53.875 406.99933Z" fill-rule="nonzero"/><path stroke="#757575" stroke-width="1.0" stroke-linecap="butt" d="M27.25 394.13995L161.83333 394.13995L260.70654 394.13995" fill-rule="nonzero"/><path fill="#9e9e9e" d="M262.70654 394.13995C262.70654 393.03537 261.81113 392.13995 260.70654 392.13995C259.602 392.13995 258.70654 393.03537 258.70654 394.13995C258.70654 395.2445 259.602 396.13995 260.70654 396.13995C261.81113 396.13995 262.70654 395.2445 262.70654 394.13995" fill-rule="nonzero"/><path fill="#1a1a1a" d="M729.875 211.67758L733.9219 211.67758L733.9219 212.59946L728.7344 212.59946L728.7344 204.0682L729.875 204.0682L729.875 211.67758ZM735.75 212.59946L734.6719 212.59946L734.6719 206.2557L735.75 206.2557L735.75 212.59946ZM734.5781 204.58383Q734.5781 204.3182 734.7344 204.1307Q734.90625 203.9432 735.21875 203.9432Q735.53125 203.9432 735.6875 204.1307Q735.8594 204.3182 735.8594 204.58383Q735.8594 204.83383 735.6875 205.02133Q735.53125 205.1932 735.21875 205.1932Q734.90625 205.1932 734.7344 205.02133Q734.5781 204.83383 734.5781 204.58383ZM738.59375 206.2557L738.625 207.05258Q739.3594 206.14633 740.53125 206.14633Q742.5469 206.14633 742.5625 208.41196L742.5625 212.59946L741.46875 212.59946L741.46875 208.39633Q741.46875 207.72446 741.15625 207.39633Q740.8594 207.0682 740.2031 207.0682Q739.6719 207.0682 739.2656 207.34946Q738.875 207.6307 738.65625 208.08383L738.65625 212.59946L737.5781 212.59946L737.5781 206.2557L738.59375 206.2557ZM748.4844 211.97446Q747.8594 212.72446 746.625 212.72446Q745.6094 212.72446 745.0781 212.1307Q744.5469 211.53696 744.5469 210.3807L744.5469 206.2557L745.625 206.2557L745.625 210.34946Q745.625 211.80258 746.7969 211.80258Q748.0469 211.80258 748.4531 210.86508L748.4531 206.2557L749.5469 206.2557L749.5469 212.59946L748.5156 212.59946L748.4844 211.97446ZM753.7031 208.5682L755.1094 206.2557L756.375 206.2557L754.2969 209.39633L756.4375 212.59946L755.1875 212.59946L753.71875 210.22446L752.25 212.59946L750.9844 212.59946L753.125 209.39633L751.0625 206.2557L752.3125 206.2557L753.7031 208.5682Z" fill-rule="nonzero"/><path fill="#9e9e9e" d="M726.03125 225.80258L726.84375 225.80258Q727.625 225.78696 728.0625 225.39633Q728.5 225.0057 728.5 224.33383Q728.5 222.83383 727.0 222.83383Q726.2969 222.83383 725.875 223.24008Q725.46875 223.64633 725.46875 224.30258L724.375 224.30258Q724.375 223.28696 725.1094 222.61508Q725.8594 221.9432 727.0 221.9432Q728.2031 221.9432 728.8906 222.58383Q729.5781 223.22446 729.5781 224.36508Q729.5781 224.92758 729.21875 225.4432Q728.8594 225.95883 728.2344 226.22446Q728.9375 226.4432 729.3125 226.95883Q729.7031 227.47446 729.7031 228.22446Q729.7031 229.36508 728.9531 230.05258Q728.2031 230.72446 727.0 230.72446Q725.8125 230.72446 725.0469 230.0682Q724.2969 229.41196 724.2969 228.34946L725.3906 228.34946Q725.3906 229.02133 725.8281 229.42758Q726.2656 229.83383 727.0156 229.83383Q727.7969 229.83383 728.2031 229.42758Q728.625 229.0057 728.625 228.24008Q728.625 227.5057 728.1719 227.11508Q727.71875 226.70883 726.84375 226.6932L726.03125 226.6932L726.03125 225.80258ZM735.71875 222.0682L735.71875 222.97446L735.5156 222.97446Q734.25 223.0057 733.5 223.74008Q732.75 224.45883 732.625 225.77133Q733.3125 225.0057 734.46875 225.0057Q735.5781 225.0057 736.25 225.78696Q736.9219 226.5682 736.9219 227.8182Q736.9219 229.1307 736.2031 229.92758Q735.4844 230.72446 734.2656 230.72446Q733.0469 230.72446 732.28125 229.78696Q731.53125 228.83383 731.53125 227.34946L731.53125 226.9432Q731.53125 224.58383 732.53125 223.33383Q733.53125 222.08383 735.5156 222.0682L735.71875 222.0682ZM734.2969 225.91196Q733.7344 225.91196 733.2656 226.24008Q732.7969 226.5682 732.6094 227.08383L732.6094 227.47446Q732.6094 228.53696 733.0781 229.17758Q733.5625 229.8182 734.2656 229.8182Q735.0 229.8182 735.4219 229.28696Q735.84375 228.74008 735.84375 227.86508Q735.84375 226.99008 735.4219 226.45883Q735.0 225.91196 734.2969 225.91196ZM738.59375 230.03696Q738.59375 229.7557 738.75 229.5682Q738.9219 229.3807 739.25 229.3807Q739.59375 229.3807 739.7656 229.5682Q739.9375 229.7557 739.9375 230.03696Q739.9375 230.30258 739.7656 230.49008Q739.59375 230.66196 739.25 230.66196Q738.9219 230.66196 738.75 230.49008Q738.59375 230.30258 738.59375 230.03696ZM745.6094 226.84946Q745.28125 227.2557 744.7969 227.5057Q744.3281 227.74008 743.7656 227.74008Q743.03125 227.74008 742.4844 227.3807Q741.9375 227.02133 741.6406 226.36508Q741.34375 225.6932 741.34375 224.89633Q741.34375 224.05258 741.65625 223.36508Q741.9844 222.67758 742.5781 222.3182Q743.1875 221.9432 743.9844 221.9432Q745.25 221.9432 745.96875 222.89633Q746.7031 223.84946 746.7031 225.47446L746.7031 225.78696Q746.7031 228.28696 745.71875 229.42758Q744.7344 230.5682 742.75 230.59946L742.53125 230.59946L742.53125 229.6932L742.7656 229.6932Q744.1094 229.66196 744.8281 228.99008Q745.5469 228.3182 745.6094 226.84946ZM743.9375 226.84946Q744.4844 226.84946 744.9375 226.52133Q745.40625 226.17758 745.625 225.6932L745.625 225.2557Q745.625 224.1932 745.15625 223.52133Q744.6875 222.84946 743.9844 222.84946Q743.2656 222.84946 742.8281 223.39633Q742.40625 223.9432 742.40625 224.84946Q742.40625 225.72446 742.8125 226.28696Q743.2344 226.84946 743.9375 226.84946ZM748.3594 223.70883Q748.3594 222.9432 748.84375 222.4432Q749.34375 221.9432 750.1094 221.9432Q750.8906 221.9432 751.375 222.4432Q751.8594 222.9432 751.8594 223.74008L751.8594 224.16196Q751.8594 224.92758 751.3594 225.42758Q750.875 225.91196 750.125 225.91196Q749.3594 225.91196 748.8594 225.42758Q748.3594 224.92758 748.3594 224.11508L748.3594 223.70883ZM749.1719 224.16196Q749.1719 224.61508 749.4219 224.91196Q749.6875 225.20883 750.125 225.20883Q750.5469 225.20883 750.7969 224.92758Q751.0469 224.6307 751.0469 224.1307L751.0469 223.70883Q751.0469 223.2557 750.7969 222.95883Q750.5469 222.64633 750.1094 222.64633Q749.6719 222.64633 749.4219 222.95883Q749.1719 223.2557 749.1719 223.72446L749.1719 224.16196ZM752.5156 228.5057Q752.5156 227.74008 753.0 227.2557Q753.5 226.7557 754.2656 226.7557Q755.03125 226.7557 755.5156 227.2557Q756.0156 227.74008 756.0156 228.55258L756.0156 228.95883Q756.0156 229.72446 755.53125 230.22446Q755.0469 230.72446 754.28125 230.72446Q753.5156 230.72446 753.0156 230.24008Q752.5156 229.74008 752.5156 228.92758L752.5156 228.5057ZM753.3281 228.95883Q753.3281 229.42758 753.5781 229.72446Q753.84375 230.02133 754.28125 230.02133Q754.7031 230.02133 754.9531 229.74008Q755.2031 229.4432 755.2031 228.9432L755.2031 228.5057Q755.2031 228.03696 754.9375 227.7557Q754.6875 227.45883 754.2656 227.45883Q753.84375 227.45883 753.5781 227.7557Q753.3281 228.03696 753.3281 228.53696L753.3281 228.95883ZM750.375 229.95883L749.75 229.5682L753.9219 222.89633L754.53125 223.28696L750.375 229.95883Z" fill-rule="nonzero"/><path stroke="#757575" stroke-width="1.0" stroke-linecap="butt" d="M756.75 217.09946L622.1667 217.09946L587.1527 217.09946" fill-rule="nonzero"/><path fill="#9e9e9e" d="M589.1527 217.09946C589.1527 215.99489 588.25726 215.09946 587.1527 215.09946C586.0481 215.09946 585.1527 215.99489 585.1527 217.09946C585.1527 218.20403 586.0481 219.09946 587.1527 219.09946C588.25726 219.09946 589.1527 218.20403 589.1527 217.09946" fill-rule="nonzero"/><path fill="#1a1a1a" d="M709.5781 411.54102L709.75 412.66602L709.9844 411.6504L711.6719 405.69727L712.625 405.69727L714.2656 411.6504L714.5 412.68164L714.6875 411.5254L716.0156 405.69727L717.1406 405.69727L715.0781 414.22852L714.0469 414.22852L712.28125 408.00977L712.15625 407.35352L712.0156 408.00977L710.2031 414.22852L709.1719 414.22852L707.1094 405.69727L708.2344 405.69727L709.5781 411.54102ZM719.75 414.22852L718.6719 414.22852L718.6719 407.88477L719.75 407.88477L719.75 414.22852ZM718.5781 406.2129Q718.5781 405.94727 718.7344 405.75977Q718.90625 405.57227 719.21875 405.57227Q719.53125 405.57227 719.6875 405.75977Q719.8594 405.94727 719.8594 406.2129Q719.8594 406.4629 719.6875 406.6504Q719.53125 406.82227 719.21875 406.82227Q718.90625 406.82227 718.7344 406.6504Q718.5781 406.4629 718.5781 406.2129ZM722.59375 407.88477L722.625 408.68164Q723.3594 407.7754 724.53125 407.7754Q726.5469 407.7754 726.5625 410.04102L726.5625 414.22852L725.46875 414.22852L725.46875 410.0254Q725.46875 409.35352 725.15625 409.0254Q724.8594 408.69727 724.2031 408.69727Q723.6719 408.69727 723.2656 408.97852Q722.875 409.25977 722.65625 409.7129L722.65625 414.22852L721.5781 414.22852L721.5781 407.88477L722.59375 407.88477ZM728.3125 411.00977Q728.3125 409.54102 729.0 408.66602Q729.6875 407.7754 730.8125 407.7754Q731.9219 407.7754 732.5781 408.5254L732.5781 405.22852L733.65625 405.22852L733.65625 414.22852L732.65625 414.22852L732.6094 413.54102Q731.9531 414.35352 730.7969 414.35352Q729.7031 414.35352 729.0 413.44727Q728.3125 412.54102 728.3125 411.0879L728.3125 411.00977ZM729.3906 411.13477Q729.3906 412.2129 729.8281 412.82227Q730.28125 413.43164 731.0625 413.43164Q732.09375 413.43164 732.5781 412.49414L732.5781 409.5879Q732.09375 408.69727 731.0781 408.69727Q730.28125 408.69727 729.8281 409.30664Q729.3906 409.91602 729.3906 411.13477ZM735.28125 410.99414Q735.28125 410.07227 735.6406 409.32227Q736.0156 408.57227 736.6719 408.18164Q737.3281 407.7754 738.15625 407.7754Q739.4531 407.7754 740.25 408.66602Q741.0625 409.55664 741.0625 411.05664L741.0625 411.13477Q741.0625 412.05664 740.7031 412.79102Q740.34375 413.5254 739.6875 413.94727Q739.03125 414.35352 738.1719 414.35352Q736.8906 414.35352 736.0781 413.4629Q735.28125 412.55664 735.28125 411.07227L735.28125 410.99414ZM736.375 411.13477Q736.375 412.18164 736.8594 412.82227Q737.3594 413.4629 738.1719 413.4629Q739.0 413.4629 739.4844 412.82227Q739.96875 412.16602 739.96875 410.99414Q739.96875 409.9629 739.46875 409.32227Q738.9844 408.66602 738.15625 408.66602Q737.3594 408.66602 736.8594 409.30664Q736.375 409.93164 736.375 411.13477ZM748.1875 412.72852L749.40625 407.88477L750.4844 407.88477L748.6406 414.22852L747.7656 414.22852L746.21875 409.41602L744.71875 414.22852L743.84375 414.22852L742.0 407.88477L743.0781 407.88477L744.3281 412.63477L745.8125 407.88477L746.6719 407.88477L748.1875 412.72852ZM755.2656 412.54102Q755.2656 412.10352 754.9219 411.86914Q754.59375 411.61914 753.7656 411.44727Q752.9531 411.2754 752.46875 411.0254Q751.9844 410.7754 751.75 410.44727Q751.53125 410.10352 751.53125 409.63477Q751.53125 408.85352 752.1875 408.32227Q752.84375 407.7754 753.875 407.7754Q754.9531 407.7754 755.6094 408.3379Q756.28125 408.88477 756.28125 409.74414L755.2031 409.74414Q755.2031 409.30664 754.8125 408.99414Q754.4375 408.66602 753.875 408.66602Q753.28125 408.66602 752.9375 408.93164Q752.6094 409.18164 752.6094 409.5879Q752.6094 409.97852 752.9219 410.18164Q753.2344 410.38477 754.0469 410.57227Q754.8594 410.74414 755.3594 410.99414Q755.8594 411.24414 756.09375 411.60352Q756.34375 411.9629 756.34375 412.4629Q756.34375 413.32227 755.65625 413.8379Q754.9844 414.35352 753.90625 414.35352Q753.1406 414.35352 752.5469 414.0879Q751.96875 413.80664 751.6406 413.32227Q751.3125 412.8379 751.3125 412.2754L752.3906 412.2754Q752.4219 412.82227 752.8281 413.1504Q753.2344 413.4629 753.90625 413.4629Q754.5156 413.4629 754.8906 413.2129Q755.2656 412.9629 755.2656 412.54102Z" fill-rule="nonzero"/><path fill="#9e9e9e" d="M728.0156 432.22852L726.9375 432.22852L726.9375 425.00977L724.75 425.80664L724.75 424.82227L727.8594 423.6504L728.0156 423.6504L728.0156 432.22852ZM735.71875 423.69727L735.71875 424.60352L735.5156 424.60352Q734.25 424.63477 733.5 425.36914Q732.75 426.0879 732.625 427.4004Q733.3125 426.63477 734.46875 426.63477Q735.5781 426.63477 736.25 427.41602Q736.9219 428.19727 736.9219 429.44727Q736.9219 430.75977 736.2031 431.55664Q735.4844 432.35352 734.2656 432.35352Q733.0469 432.35352 732.28125 431.41602Q731.53125 430.4629 731.53125 428.97852L731.53125 428.57227Q731.53125 426.2129 732.53125 424.9629Q733.53125 423.7129 735.5156 423.69727L735.71875 423.69727ZM734.2969 427.54102Q733.7344 427.54102 733.2656 427.86914Q732.7969 428.19727 732.6094 428.7129L732.6094 429.10352Q732.6094 430.16602 733.0781 430.80664Q733.5625 431.44727 734.2656 431.44727Q735.0 431.44727 735.4219 430.91602Q735.84375 430.36914 735.84375 429.49414Q735.84375 428.61914 735.4219 428.0879Q735.0 427.54102 734.2969 427.54102ZM738.59375 431.66602Q738.59375 431.38477 738.75 431.19727Q738.9219 431.00977 739.25 431.00977Q739.59375 431.00977 739.7656 431.19727Q739.9375 431.38477 739.9375 431.66602Q739.9375 431.93164 739.7656 432.11914Q739.59375 432.29102 739.25 432.29102Q738.9219 432.29102 738.75 432.11914Q738.59375 431.93164 738.59375 431.66602ZM743.03125 427.43164L743.84375 427.43164Q744.625 427.41602 745.0625 427.0254Q745.5 426.63477 745.5 425.9629Q745.5 424.4629 744.0 424.4629Q743.2969 424.4629 742.875 424.86914Q742.46875 425.2754 742.46875 425.93164L741.375 425.93164Q741.375 424.91602 742.1094 424.24414Q742.8594 423.57227 744.0 423.57227Q745.2031 423.57227 745.8906 424.2129Q746.5781 424.85352 746.5781 425.99414Q746.5781 426.55664 746.21875 427.07227Q745.8594 427.5879 745.2344 427.85352Q745.9375 428.07227 746.3125 428.5879Q746.7031 429.10352 746.7031 429.85352Q746.7031 430.99414 745.9531 431.68164Q745.2031 432.35352 744.0 432.35352Q742.8125 432.35352 742.0469 431.69727Q741.2969 431.04102 741.2969 429.97852L742.3906 429.97852Q742.3906 430.6504 742.8281 431.05664Q743.2656 431.4629 744.0156 431.4629Q744.7969 431.4629 745.2031 431.05664Q745.625 430.63477 745.625 429.86914Q745.625 429.13477 745.1719 428.74414Q744.71875 428.3379 743.84375 428.32227L743.03125 428.32227L743.03125 427.43164ZM748.3594 425.3379Q748.3594 424.57227 748.84375 424.07227Q749.34375 423.57227 750.1094 423.57227Q750.8906 423.57227 751.375 424.07227Q751.8594 424.57227 751.8594 425.36914L751.8594 425.79102Q751.8594 426.55664 751.3594 427.05664Q750.875 427.54102 750.125 427.54102Q749.3594 427.54102 748.8594 427.05664Q748.3594 426.55664 748.3594 425.74414L748.3594 425.3379ZM749.1719 425.79102Q749.1719 426.24414 749.4219 426.54102Q749.6875 426.8379 750.125 426.8379Q750.5469 426.8379 750.7969 426.55664Q751.0469 426.25977 751.0469 425.75977L751.0469 425.3379Q751.0469 424.88477 750.7969 424.5879Q750.5469 424.2754 750.1094 424.2754Q749.6719 424.2754 749.4219 424.5879Q749.1719 424.88477 749.1719 425.35352L749.1719 425.79102ZM752.5156 430.13477Q752.5156 429.36914 753.0 428.88477Q753.5 428.38477 754.2656 428.38477Q755.03125 428.38477 755.5156 428.88477Q756.0156 429.36914 756.0156 430.18164L756.0156 430.5879Q756.0156 431.35352 755.53125 431.85352Q755.0469 432.35352 754.28125 432.35352Q753.5156 432.35352 753.0156 431.86914Q752.5156 431.36914 752.5156 430.55664L752.5156 430.13477ZM753.3281 430.5879Q753.3281 431.05664 753.5781 431.35352Q753.84375 431.6504 754.28125 431.6504Q754.7031 431.6504 754.9531 431.36914Q755.2031 431.07227 755.2031 430.57227L755.2031 430.13477Q755.2031 429.66602 754.9375 429.38477Q754.6875 429.0879 754.2656 429.0879Q753.84375 429.0879 753.5781 429.38477Q753.3281 429.66602 753.3281 430.16602L753.3281 430.5879ZM750.375 431.5879L749.75 431.19727L753.9219 424.5254L754.53125 424.91602L750.375 431.5879Z" fill-rule="nonzero"/><path stroke="#757575" stroke-width="1.0" stroke-linecap="butt" d="M756.75 418.72852L622.1667 418.72852L456.9981 418.72852" fill-rule="nonzero"/><path fill="#9e9e9e" d="M458.9981 418.72852C458.9981 417.62393 458.1027 416.72852 456.9981 416.72852C455.89355 416.72852 454.9981 417.62393 454.9981 418.72852C454.9981 419.8331 455.89355 420.72852 456.9981 420.72852C458.1027 420.72852 458.9981 419.8331 458.9981 418.72852" fill-rule="nonzero"/><path fill="#757575" d="M31.96875 41.765625L32.234375 43.640625L32.640625 41.953125L35.453125 32.03125L37.03125 32.03125L39.78125 41.953125L40.171875 43.671875L40.46875 41.75L42.6875 32.03125L44.5625 32.03125L41.125 46.25L39.40625 46.25L36.484375 35.890625L36.25 34.796875L36.03125 35.890625L33.0 46.25L31.28125 46.25L27.84375 32.03125L29.71875 32.03125L31.96875 41.765625ZM48.421875 36.96875Q49.625 35.484375 51.546875 35.484375Q54.90625 35.484375 54.921875 39.265625L54.921875 46.25L53.125 46.25L53.125 39.25Q53.109375 38.109375 52.59375 37.5625Q52.09375 37.015625 51.0 37.015625Q50.125 37.015625 49.453125 37.484375Q48.796875 37.953125 48.421875 38.71875L48.421875 46.25L46.625 46.25L46.625 31.25L48.421875 31.25L48.421875 36.96875ZM64.140625 46.25Q63.984375 45.9375 63.890625 45.140625Q62.625 46.453125 60.875 46.453125Q59.3125 46.453125 58.3125 45.5625Q57.3125 44.671875 57.3125 43.3125Q57.3125 41.671875 58.5625 40.765625Q59.828125 39.84375 62.09375 39.84375L63.859375 39.84375L63.859375 39.015625Q63.859375 38.0625 63.28125 37.5Q62.71875 36.9375 61.625 36.9375Q60.65625 36.9375 60.0 37.4375Q59.34375 37.921875 59.34375 38.609375L57.53125 38.609375Q57.53125 37.828125 58.09375 37.09375Q58.65625 36.34375 59.609375 35.921875Q60.578125 35.484375 61.734375 35.484375Q63.5625 35.484375 64.59375 36.40625Q65.625 37.3125 65.671875 38.921875L65.671875 43.78125Q65.671875 45.234375 66.03125 46.09375L66.03125 46.25L64.140625 46.25ZM61.140625 44.875Q62.0 44.875 62.75 44.4375Q63.515625 44.0 63.859375 43.296875L63.859375 41.125L62.4375 41.125Q59.125 41.125 59.125 43.0625Q59.125 43.921875 59.6875 44.40625Q60.25 44.875 61.140625 44.875ZM71.0625 33.125L71.0625 35.6875L73.046875 35.6875L73.046875 37.078125L71.0625 37.078125L71.0625 43.625Q71.0625 44.265625 71.328125 44.59375Q71.59375 44.90625 72.234375 44.90625Q72.546875 44.90625 73.09375 44.78125L73.09375 46.25Q72.375 46.453125 71.703125 46.453125Q70.5 46.453125 69.875 45.71875Q69.265625 44.984375 69.265625 43.625L69.265625 37.078125L67.34375 37.078125L67.34375 35.6875L69.265625 35.6875L69.265625 33.125L71.0625 33.125ZM89.546875 41.078125Q89.546875 43.5 88.4375 44.984375Q87.34375 46.453125 85.453125 46.453125Q83.53125 46.453125 82.421875 45.21875L82.421875 50.3125L80.625 50.3125L80.625 35.6875L82.265625 35.6875L82.359375 36.859375Q83.453125 35.484375 85.421875 35.484375Q87.328125 35.484375 88.4375 36.921875Q89.546875 38.359375 89.546875 40.921875L89.546875 41.078125ZM87.734375 40.875Q87.734375 39.09375 86.96875 38.0625Q86.21875 37.015625 84.890625 37.015625Q83.25 37.015625 82.421875 38.46875L82.421875 43.53125Q83.234375 44.96875 84.90625 44.96875Q86.203125 44.96875 86.96875 43.9375Q87.734375 42.90625 87.734375 40.875ZM93.578125 46.25L91.78125 46.25L91.78125 31.25L93.578125 31.25L93.578125 46.25ZM103.140625 46.25Q102.984375 45.9375 102.890625 45.140625Q101.625 46.453125 99.875 46.453125Q98.3125 46.453125 97.3125 45.5625Q96.3125 44.671875 96.3125 43.3125Q96.3125 41.671875 97.5625 40.765625Q98.828125 39.84375 101.09375 39.84375L102.859375 39.84375L102.859375 39.015625Q102.859375 38.0625 102.28125 37.5Q101.71875 36.9375 100.625 36.9375Q99.65625 36.9375 99.0 37.4375Q98.34375 37.921875 98.34375 38.609375L96.53125 38.609375Q96.53125 37.828125 97.09375 37.09375Q97.65625 36.34375 98.609375 35.921875Q99.578125 35.484375 100.734375 35.484375Q102.5625 35.484375 103.59375 36.40625Q104.625 37.3125 104.671875 38.921875L104.671875 43.78125Q104.671875 45.234375 105.03125 46.09375L105.03125 46.25L103.140625 46.25ZM100.140625 44.875Q101.0 44.875 101.75 44.4375Q102.515625 44.0 102.859375 43.296875L102.859375 41.125L101.4375 41.125Q98.125 41.125 98.125 43.0625Q98.125 43.921875 98.6875 44.40625Q99.25 44.875 100.140625 44.875ZM110.0625 33.125L110.0625 35.6875L112.046875 35.6875L112.046875 37.078125L110.0625 37.078125L110.0625 43.625Q110.0625 44.265625 110.328125 44.59375Q110.59375 44.90625 111.234375 44.90625Q111.546875 44.90625 112.09375 44.78125L112.09375 46.25Q111.375 46.453125 110.703125 46.453125Q109.5 46.453125 108.875 45.71875Q108.265625 44.984375 108.265625 43.625L108.265625 37.078125L106.34375 37.078125L106.34375 35.6875L108.265625 35.6875L108.265625 33.125L110.0625 33.125ZM115.5 46.25L115.5 37.078125L113.84375 37.078125L113.84375 35.6875L115.5 35.6875L115.5 34.59375Q115.5 32.90625 116.40625 31.984375Q117.328125 31.046875 118.984375 31.046875Q119.609375 31.046875 120.21875 31.203125L120.125 32.671875Q119.671875 32.59375 119.15625 32.59375Q118.265625 32.59375 117.78125 33.109375Q117.3125 33.609375 117.3125 34.5625L117.3125 35.6875L119.5625 35.6875L119.5625 37.078125L117.3125 37.078125L117.3125 46.25L115.5 46.25ZM121.140625 40.875Q121.140625 39.3125 121.75 38.078125Q122.359375 36.828125 123.4375 36.15625Q124.53125 35.484375 125.9375 35.484375Q128.09375 35.484375 129.42188 36.984375Q130.76562 38.46875 130.76562 40.953125L130.76562 41.078125Q130.76562 42.625 130.17188 43.859375Q129.57812 45.078125 128.46875 45.765625Q127.375 46.453125 125.953125 46.453125Q123.8125 46.453125 122.46875 44.953125Q121.140625 43.453125 121.140625 41.0L121.140625 40.875ZM122.953125 41.078125Q122.953125 42.84375 123.765625 43.90625Q124.59375 44.96875 125.953125 44.96875Q127.328125 44.96875 128.14062 43.890625Q128.95312 42.8125 128.95312 40.875Q128.95312 39.125 128.125 38.046875Q127.296875 36.96875 125.9375 36.96875Q124.59375 36.96875 123.765625 38.03125Q122.953125 39.09375 122.953125 41.078125ZM137.71875 37.296875Q137.3125 37.234375 136.84375 37.234375Q135.0625 37.234375 134.42188 38.75L134.42188 46.25L132.625 46.25L132.625 35.6875L134.375 35.6875L134.40625 36.90625Q135.29688 35.484375 136.92188 35.484375Q137.45312 35.484375 137.71875 35.625L137.71875 37.296875ZM141.3125 35.6875L141.35938 36.859375Q142.53125 35.484375 144.5 35.484375Q146.71875 35.484375 147.51562 37.1875Q148.04688 36.421875 148.89062 35.953125Q149.73438 35.484375 150.89062 35.484375Q154.35938 35.484375 154.42188 39.171875L154.42188 46.25L152.60938 46.25L152.60938 39.28125Q152.60938 38.140625 152.09375 37.578125Q151.57812 37.015625 150.35938 37.015625Q149.35938 37.015625 148.6875 37.625Q148.03125 38.21875 147.92188 39.234375L147.92188 46.25L146.10938 46.25L146.10938 39.328125Q146.10938 37.015625 143.84375 37.015625Q142.0625 37.015625 141.42188 38.53125L141.42188 46.25L139.60938 46.25L139.60938 35.6875L141.3125 35.6875ZM163.76562 43.453125Q163.76562 42.71875 163.21875 42.3125Q162.67188 41.90625 161.29688 41.609375Q159.92188 41.3125 159.10938 40.90625Q158.3125 40.5 157.92188 39.9375Q157.54688 39.359375 157.54688 38.578125Q157.54688 37.28125 158.64062 36.390625Q159.73438 35.484375 161.45312 35.484375Q163.25 35.484375 164.35938 36.421875Q165.48438 37.34375 165.48438 38.78125L163.65625 38.78125Q163.65625 38.046875 163.03125 37.515625Q162.40625 36.96875 161.45312 36.96875Q160.45312 36.96875 159.89062 37.40625Q159.34375 37.828125 159.34375 38.53125Q159.34375 39.171875 159.85938 39.515625Q160.375 39.84375 161.73438 40.15625Q163.09375 40.453125 163.92188 40.875Q164.76562 41.28125 165.17188 41.875Q165.57812 42.46875 165.57812 43.3125Q165.57812 44.734375 164.4375 45.59375Q163.3125 46.453125 161.5 46.453125Q160.23438 46.453125 159.25 46.0Q158.28125 45.546875 157.71875 44.75Q157.17188 43.9375 157.17188 43.0L158.98438 43.0Q159.03125 43.90625 159.70312 44.4375Q160.39062 44.96875 161.5 44.96875Q162.53125 44.96875 163.14062 44.5625Q163.76562 44.140625 163.76562 43.453125ZM179.14062 46.25Q178.98438 45.9375 178.89062 45.140625Q177.625 46.453125 175.875 46.453125Q174.3125 46.453125 173.3125 45.5625Q172.3125 44.671875 172.3125 43.3125Q172.3125 41.671875 173.5625 40.765625Q174.82812 39.84375 177.09375 39.84375L178.85938 39.84375L178.85938 39.015625Q178.85938 38.0625 178.28125 37.5Q177.71875 36.9375 176.625 36.9375Q175.65625 36.9375 175.0 37.4375Q174.34375 37.921875 174.34375 38.609375L172.53125 38.609375Q172.53125 37.828125 173.09375 37.09375Q173.65625 36.34375 174.60938 35.921875Q175.57812 35.484375 176.73438 35.484375Q178.5625 35.484375 179.59375 36.40625Q180.625 37.3125 180.67188 38.921875L180.67188 43.78125Q180.67188 45.234375 181.03125 46.09375L181.03125 46.25L179.14062 46.25ZM176.14062 44.875Q177.0 44.875 177.75 44.4375Q178.51562 44.0 178.85938 43.296875L178.85938 41.125L177.4375 41.125Q174.125 41.125 174.125 43.0625Q174.125 43.921875 174.6875 44.40625Q175.25 44.875 176.14062 44.875ZM188.71875 37.296875Q188.3125 37.234375 187.84375 37.234375Q186.0625 37.234375 185.42188 38.75L185.42188 46.25L183.625 46.25L183.625 35.6875L185.375 35.6875L185.40625 36.90625Q186.29688 35.484375 187.92188 35.484375Q188.45312 35.484375 188.71875 35.625L188.71875 37.296875ZM195.0 46.453125Q192.85938 46.453125 191.5 45.046875Q190.15625 43.625 190.15625 41.265625L190.15625 40.921875Q190.15625 39.359375 190.75 38.125Q191.35938 36.890625 192.4375 36.1875Q193.51562 35.484375 194.78125 35.484375Q196.84375 35.484375 197.98438 36.84375Q199.125 38.203125 199.125 40.734375L199.125 41.484375L191.96875 41.484375Q192.0 43.046875 192.875 44.015625Q193.75 44.96875 195.09375 44.96875Q196.0625 44.96875 196.71875 44.578125Q197.39062 44.1875 197.89062 43.546875L198.98438 44.40625Q197.65625 46.453125 195.0 46.453125ZM194.78125 36.96875Q193.6875 36.96875 192.9375 37.765625Q192.20312 38.5625 192.03125 40.0L197.3125 40.0L197.3125 39.859375Q197.23438 38.484375 196.5625 37.734375Q195.90625 36.96875 194.78125 36.96875ZM210.07812 43.609375L212.53125 35.6875L214.46875 35.6875L210.21875 47.875Q209.23438 50.515625 207.09375 50.515625L206.75 50.484375L206.07812 50.359375L206.07812 48.890625L206.5625 48.9375Q207.48438 48.9375 207.98438 48.5625Q208.5 48.1875 208.82812 47.203125L209.23438 46.125L205.46875 35.6875L207.4375 35.6875L210.07812 43.609375ZM215.14062 40.875Q215.14062 39.3125 215.75 38.078125Q216.35938 36.828125 217.4375 36.15625Q218.53125 35.484375 219.9375 35.484375Q222.09375 35.484375 223.42188 36.984375Q224.76562 38.46875 224.76562 40.953125L224.76562 41.078125Q224.76562 42.625 224.17188 43.859375Q223.57812 45.078125 222.46875 45.765625Q221.375 46.453125 219.95312 46.453125Q217.8125 46.453125 216.46875 44.953125Q215.14062 43.453125 215.14062 41.0L215.14062 40.875ZM216.95312 41.078125Q216.95312 42.84375 217.76562 43.90625Q218.59375 44.96875 219.95312 44.96875Q221.32812 44.96875 222.14062 43.890625Q222.95312 42.8125 222.95312 40.875Q222.95312 39.125 222.125 38.046875Q221.29688 36.96875 219.9375 36.96875Q218.59375 36.96875 217.76562 38.03125Q216.95312 39.09375 216.95312 41.078125ZM233.14062 45.203125Q232.09375 46.453125 230.04688 46.453125Q228.35938 46.453125 227.46875 45.46875Q226.59375 44.484375 226.57812 42.5625L226.57812 35.6875L228.39062 35.6875L228.39062 42.515625Q228.39062 44.90625 230.34375 44.90625Q232.40625 44.90625 233.09375 43.375L233.09375 35.6875L234.90625 35.6875L234.90625 46.25L233.1875 46.25L233.14062 45.203125ZM245.0625 33.125L245.0625 35.6875L247.04688 35.6875L247.04688 37.078125L245.0625 37.078125L245.0625 43.625Q245.0625 44.265625 245.32812 44.59375Q245.59375 44.90625 246.23438 44.90625Q246.54688 44.90625 247.09375 44.78125L247.09375 46.25Q246.375 46.453125 245.70312 46.453125Q244.5 46.453125 243.875 45.71875Q243.26562 44.984375 243.26562 43.625L243.26562 37.078125L241.34375 37.078125L241.34375 35.6875L243.26562 35.6875L243.26562 33.125L245.0625 33.125ZM256.14062 46.25Q255.98438 45.9375 255.89062 45.140625Q254.625 46.453125 252.875 46.453125Q251.3125 46.453125 250.3125 45.5625Q249.3125 44.671875 249.3125 43.3125Q249.3125 41.671875 250.5625 40.765625Q251.82812 39.84375 254.09375 39.84375L255.85938 39.84375L255.85938 39.015625Q255.85938 38.0625 255.28125 37.5Q254.71875 36.9375 253.625 36.9375Q252.65625 36.9375 252.0 37.4375Q251.34375 37.921875 251.34375 38.609375L249.53125 38.609375Q249.53125 37.828125 250.09375 37.09375Q250.65625 36.34375 251.60938 35.921875Q252.57812 35.484375 253.73438 35.484375Q255.5625 35.484375 256.59375 36.40625Q257.625 37.3125 257.67188 38.921875L257.67188 43.78125Q257.67188 45.234375 258.03125 46.09375L258.03125 46.25L256.14062 46.25ZM253.14062 44.875Q254.0 44.875 254.75 44.4375Q255.51562 44.0 255.85938 43.296875L255.85938 41.125L254.4375 41.125Q251.125 41.125 251.125 43.0625Q251.125 43.921875 251.6875 44.40625Q252.25 44.875 253.14062 44.875ZM265.71875 37.296875Q265.3125 37.234375 264.84375 37.234375Q263.0625 37.234375 262.42188 38.75L262.42188 46.25L260.625 46.25L260.625 35.6875L262.375 35.6875L262.40625 36.90625Q263.29688 35.484375 264.92188 35.484375Q265.45312 35.484375 265.71875 35.625L265.71875 37.296875ZM267.1875 40.875Q267.1875 38.40625 268.32812 36.953125Q269.46875 35.484375 271.35938 35.484375Q273.29688 35.484375 274.375 36.859375L274.46875 35.6875L276.10938 35.6875L276.10938 46.0Q276.10938 48.046875 274.89062 49.21875Q273.6875 50.40625 271.625 50.40625Q270.48438 50.40625 269.39062 49.921875Q268.29688 49.4375 267.71875 48.578125L268.65625 47.5Q269.82812 48.9375 271.5 48.9375Q272.82812 48.9375 273.5625 48.1875Q274.29688 47.453125 274.29688 46.109375L274.29688 45.1875Q273.21875 46.453125 271.34375 46.453125Q269.48438 46.453125 268.32812 44.953125Q267.1875 43.453125 267.1875 40.875ZM269.0 41.078125Q269.0 42.875 269.73438 43.890625Q270.46875 44.90625 271.78125 44.90625Q273.5 44.90625 274.29688 43.359375L274.29688 38.53125Q273.46875 37.015625 271.8125 37.015625Q270.48438 37.015625 269.73438 38.046875Q269.0 39.078125 269.0 41.078125ZM283.0 46.453125Q280.85938 46.453125 279.5 45.046875Q278.15625 43.625 278.15625 41.265625L278.15625 40.921875Q278.15625 39.359375 278.75 38.125Q279.35938 36.890625 280.4375 36.1875Q281.51562 35.484375 282.78125 35.484375Q284.84375 35.484375 285.98438 36.84375Q287.125 38.203125 287.125 40.734375L287.125 41.484375L279.96875 41.484375Q280.0 43.046875 280.875 44.015625Q281.75 44.96875 283.09375 44.96875Q284.0625 44.96875 284.71875 44.578125Q285.39062 44.1875 285.89062 43.546875L286.98438 44.40625Q285.65625 46.453125 283.0 46.453125ZM282.78125 36.96875Q281.6875 36.96875 280.9375 37.765625Q280.20312 38.5625 280.03125 40.0L285.3125 40.0L285.3125 39.859375Q285.23438 38.484375 284.5625 37.734375Q283.90625 36.96875 282.78125 36.96875ZM292.0625 33.125L292.0625 35.6875L294.04688 35.6875L294.04688 37.078125L292.0625 37.078125L292.0625 43.625Q292.0625 44.265625 292.32812 44.59375Q292.59375 44.90625 293.23438 44.90625Q293.54688 44.90625 294.09375 44.78125L294.09375 46.25Q293.375 46.453125 292.70312 46.453125Q291.5 46.453125 290.875 45.71875Q290.26562 44.984375 290.26562 43.625L290.26562 37.078125L288.34375 37.078125L288.34375 35.6875L290.26562 35.6875L290.26562 33.125L292.0625 33.125ZM298.57812 46.25L296.78125 46.25L296.78125 35.6875L298.57812 35.6875L298.57812 46.25ZM296.625 32.875Q296.625 32.4375 296.89062 32.140625Q297.17188 31.828125 297.6875 31.828125Q298.21875 31.828125 298.48438 32.140625Q298.76562 32.4375 298.76562 32.875Q298.76562 33.3125 298.48438 33.609375Q298.21875 33.90625 297.6875 33.90625Q297.17188 33.90625 296.89062 33.609375Q296.625 33.3125 296.625 32.875ZM303.32812 35.6875L303.39062 37.015625Q304.59375 35.484375 306.54688 35.484375Q309.90625 35.484375 309.92188 39.265625L309.92188 46.25L308.125 46.25L308.125 39.25Q308.10938 38.109375 307.59375 37.5625Q307.09375 37.015625 306.0 37.015625Q305.125 37.015625 304.45312 37.484375Q303.79688 37.953125 303.42188 38.71875L303.42188 46.25L301.625 46.25L301.625 35.6875L303.32812 35.6875ZM312.1875 40.875Q312.1875 38.40625 313.32812 36.953125Q314.46875 35.484375 316.35938 35.484375Q318.29688 35.484375 319.375 36.859375L319.46875 35.6875L321.10938 35.6875L321.10938 46.0Q321.10938 48.046875 319.89062 49.21875Q318.6875 50.40625 316.625 50.40625Q315.48438 50.40625 314.39062 49.921875Q313.29688 49.4375 312.71875 48.578125L313.65625 47.5Q314.82812 48.9375 316.5 48.9375Q317.82812 48.9375 318.5625 48.1875Q319.29688 47.453125 319.29688 46.109375L319.29688 45.1875Q318.21875 46.453125 316.34375 46.453125Q314.48438 46.453125 313.32812 44.953125Q312.1875 43.453125 312.1875 40.875ZM314.0 41.078125Q314.0 42.875 314.73438 43.890625Q315.46875 44.90625 316.78125 44.90625Q318.5 44.90625 319.29688 43.359375L319.29688 38.53125Q318.46875 37.015625 316.8125 37.015625Q315.48438 37.015625 314.73438 38.046875Q314.0 39.078125 314.0 41.078125ZM325.73438 42.25Q325.75 41.078125 326.0 40.40625Q326.25 39.734375 327.0 38.921875L328.28125 37.59375Q329.09375 36.671875 329.09375 35.609375Q329.09375 34.578125 328.54688 34.0Q328.01562 33.421875 327.0 33.421875Q326.0 33.421875 325.39062 33.953125Q324.79688 34.46875 324.79688 35.359375L322.98438 35.359375Q323.0 33.78125 324.10938 32.8125Q325.21875 31.828125 327.0 31.828125Q328.84375 31.828125 329.875 32.828125Q330.90625 33.8125 330.90625 35.546875Q330.90625 37.25 329.32812 38.921875L328.25 39.96875Q327.54688 40.765625 327.54688 42.25L325.73438 42.25ZM325.65625 45.34375Q325.65625 44.90625 325.92188 44.609375Q326.20312 44.3125 326.71875 44.3125Q327.25 44.3125 327.51562 44.609375Q327.79688 44.90625 327.79688 45.34375Q327.79688 45.78125 327.51562 46.078125Q327.25 46.359375 326.71875 46.359375Q326.20312 46.359375 325.92188 46.078125Q325.65625 45.78125 325.65625 45.34375Z" fill-rule="nonzero"/></svg>