<svg version="1.1" viewBox="0.0 0.0 665.0 334.0" fill="none" stroke="none" stroke-linecap="square" stroke-miterlimit="10" width="665" height="334" xmlns:xlink="http://www.w3.org/1999/xlink" xmlns="http://www.w3.org/2000/svg"><path fill="#ffffff" d="M0 0L665.0 0L665.0 334.0L0 334.0L0 0Z" fill-rule="nonzero"/><path stroke="#333333" stroke-width="1.0" stroke-linecap="butt" d="M84.5 248.5L648.5 248.5" fill-rule="nonzero"/><path stroke="#cccccc" stroke-width="1.0" stroke-linecap="butt" d="M84.5 185.5L648.5 185.5" fill-rule="nonzero"/><path stroke="#cccccc" stroke-width="1.0" stroke-linecap="butt" d="M84.5 122.5L648.5 122.5" fill-rule="nonzero"/><path stroke="#cccccc" stroke-width="1.0" stroke-linecap="butt" d="M84.5 59.5L648.5 59.5" fill-rule="nonzero"/><clipPath id="id_0"><path d="M84.7 59.333332L648.3 59.333332L648.3 248.3L84.7 248.3L84.7 59.333332Z" clip-rule="nonzero"/></clipPath><path stroke="#000000" stroke-width="0.0" stroke-linecap="butt" stroke-opacity="0.0" clip-path="url(#id_0)" d="M174.0 248.0L116.0 248.0L116.0 247.0C116.0 246.44771 116.447716 246.0 117.0 246.0L173.0 246.0C173.55229 246.0 174.0 246.44771 174.0 247.0Z" fill-rule="nonzero"/><path fill="#4472c4" clip-path="url(#id_0)" d="M174.0 248.0L116.0 248.0L116.0 247.0C116.0 246.44771 116.447716 246.0 117.0 246.0L173.0 246.0C173.55229 246.0 174.0 246.44771 174.0 247.0Z" fill-rule="nonzero"/><path stroke="#000000" stroke-width="0.0" stroke-linecap="butt" stroke-opacity="0.0" clip-path="url(#id_0)" d="M262.0 248.0L204.0 248.0L204.0 165.0C204.0 163.89543 204.89543 163.0 206.0 163.0L260.0 163.0C261.10458 163.0 262.0 163.89543 262.0 165.0Z" fill-rule="nonzero"/><path fill="#4472c4" clip-path="url(#id_0)" d="M262.0 248.0L204.0 248.0L204.0 165.0C204.0 163.89543 204.89543 163.0 206.0 163.0L260.0 163.0C261.10458 163.0 262.0 163.89543 262.0 165.0Z" fill-rule="nonzero"/><path stroke="#000000" stroke-width="0.0" stroke-linecap="butt" stroke-opacity="0.0" clip-path="url(#id_0)" d="M351.0 248.0L293.0 248.0L293.0 174.0C293.0 172.89543 293.89542 172.0 295.0 172.0L349.0 172.0C350.10458 172.0 351.0 172.89543 351.0 174.0Z" fill-rule="nonzero"/><path fill="#4472c4" clip-path="url(#id_0)" d="M351.0 248.0L293.0 248.0L293.0 174.0C293.0 172.89543 293.89542 172.0 295.0 172.0L349.0 172.0C350.10458 172.0 351.0 172.89543 351.0 174.0Z" fill-rule="nonzero"/><path stroke="#000000" stroke-width="0.0" stroke-linecap="butt" stroke-opacity="0.0" clip-path="url(#id_0)" d="M440.0 248.0L382.0 248.0L382.0 205.0C382.0 203.89543 382.89542 203.0 384.0 203.0L438.0 203.0C439.10458 203.0 440.0 203.89543 440.0 205.0Z" fill-rule="nonzero"/><path fill="#4472c4" clip-path="url(#id_0)" d="M440.0 248.0L382.0 248.0L382.0 205.0C382.0 203.89543 382.89542 203.0 384.0 203.0L438.0 203.0C439.10458 203.0 440.0 203.89543 440.0 205.0Z" fill-rule="nonzero"/><path stroke="#000000" stroke-width="0.0" stroke-linecap="butt" stroke-opacity="0.0" clip-path="url(#id_0)" d="M529.0 248.0L471.0 248.0L471.0 236.0C471.0 234.89543 471.89542 234.0 473.0 234.0L527.0 234.0C528.10455 234.0 529.0 234.89543 529.0 236.0Z" fill-rule="nonzero"/><path fill="#4472c4" clip-path="url(#id_0)" d="M529.0 248.0L471.0 248.0L471.0 236.0C471.0 234.89543 471.89542 234.0 473.0 234.0L527.0 234.0C528.10455 234.0 529.0 234.89543 529.0 236.0Z" fill-rule="nonzero"/><path stroke="#000000" stroke-width="0.0" stroke-linecap="butt" stroke-opacity="0.0" clip-path="url(#id_0)" d="M617.0 248.0L559.0 248.0L559.0 85.0C559.0 83.89543 559.89545 83.0 561.0 83.0L615.0 83.0C616.10455 83.0 617.0 83.89543 617.0 85.0Z" fill-rule="nonzero"/><path fill="#4472c4" clip-path="url(#id_0)" d="M617.0 248.0L559.0 248.0L559.0 85.0C559.0 83.89543 559.89545 83.0 561.0 83.0L615.0 83.0C616.10455 83.0 617.0 83.89543 617.0 85.0Z" fill-rule="nonzero"/><path fill="#000000" d="M353.125 310.84686L351.10938 310.84686L351.10938 314.3L349.98438 314.3L349.98438 305.76874L352.8125 305.76874Q354.25 305.76874 355.01562 306.425Q355.79688 307.08124 355.79688 308.33124Q355.79688 309.1281 355.35938 309.72186Q354.9375 310.3156 354.17188 310.6125L356.17188 314.22186L356.17188 314.3L354.96875 314.3L353.125 310.84686ZM351.10938 309.925L352.84375 309.925Q353.6875 309.925 354.17188 309.5031Q354.67188 309.0656 354.67188 308.33124Q354.67188 307.55 354.20312 307.1281Q353.73438 306.70624 352.84375 306.6906L351.10938 306.6906L351.10938 309.925ZM360.73438 314.3Q360.64062 314.1125 360.57812 313.6281Q359.82812 314.425 358.78125 314.425Q357.84375 314.425 357.23438 313.89374Q356.64062 313.3625 356.64062 312.53436Q356.64062 311.55 357.39062 311.0031Q358.14062 310.45624 359.51562 310.45624L360.5625 310.45624L360.5625 309.95624Q360.5625 309.39374 360.21875 309.0656Q359.89062 308.72186 359.21875 308.72186Q358.64062 308.72186 358.25 309.01874Q357.85938 309.3 357.85938 309.72186L356.76562 309.72186Q356.76562 309.2375 357.09375 308.8Q357.4375 308.3625 358.01562 308.1125Q358.59375 307.84686 359.28125 307.84686Q360.39062 307.84686 361.0 308.39374Q361.625 308.9406 361.65625 309.89374L361.65625 312.8156Q361.65625 313.6906 361.875 314.20624L361.875 314.3L360.73438 314.3ZM358.9375 313.47186Q359.45312 313.47186 359.90625 313.20624Q360.35938 312.9406 360.5625 312.51874L360.5625 311.22186L359.71875 311.22186Q357.71875 311.22186 357.71875 312.39374Q357.71875 312.89374 358.0625 313.1906Q358.40625 313.47186 358.9375 313.47186ZM365.29688 306.425L365.29688 307.95624L366.46875 307.95624L366.46875 308.8L365.29688 308.8L365.29688 312.72186Q365.29688 313.1125 365.45312 313.3Q365.60938 313.4875 365.98438 313.4875Q366.17188 313.4875 366.5 313.425L366.5 314.3Q366.07812 314.425 365.67188 314.425Q364.95312 314.425 364.57812 313.9875Q364.20312 313.53436 364.20312 312.72186L364.20312 308.8L363.04688 308.8L363.04688 307.95624L364.20312 307.95624L364.20312 306.425L365.29688 306.425ZM369.0 314.3L367.92188 314.3L367.92188 307.95624L369.0 307.95624L369.0 314.3ZM367.82812 306.28436Q367.82812 306.01874 367.98438 305.83124Q368.15625 305.64374 368.46875 305.64374Q368.78125 305.64374 368.9375 305.83124Q369.10938 306.01874 369.10938 306.28436Q369.10938 306.53436 368.9375 306.72186Q368.78125 306.89374 368.46875 306.89374Q368.15625 306.89374 367.98438 306.72186Q367.82812 306.53436 367.82812 306.28436ZM371.84375 307.95624L371.875 308.7531Q372.60938 307.84686 373.78125 307.84686Q375.79688 307.84686 375.8125 310.1125L375.8125 314.3L374.71875 314.3L374.71875 310.09686Q374.71875 309.425 374.40625 309.09686Q374.10938 308.76874 373.45312 308.76874Q372.92188 308.76874 372.51562 309.05Q372.125 309.33124 371.90625 309.78436L371.90625 314.3L370.82812 314.3L370.82812 307.95624L371.84375 307.95624ZM377.5625 311.08124Q377.5625 309.59686 378.25 308.72186Q378.9375 307.84686 380.0625 307.84686Q381.21875 307.84686 381.875 308.65936L381.92188 307.95624L382.92188 307.95624L382.92188 314.14374Q382.92188 315.3781 382.1875 316.08124Q381.45312 316.8 380.23438 316.8Q379.54688 316.8 378.89062 316.5031Q378.23438 316.20624 377.89062 315.70624L378.45312 315.05Q379.14062 315.90936 380.15625 315.90936Q380.9375 315.90936 381.375 315.45624Q381.82812 315.01874 381.82812 314.20624L381.82812 313.65936Q381.17188 314.425 380.04688 314.425Q378.9375 314.425 378.25 313.53436Q377.5625 312.6281 377.5625 311.08124ZM378.65625 311.20624Q378.65625 312.26874 379.09375 312.89374Q379.53125 313.5031 380.32812 313.5031Q381.34375 313.5031 381.82812 312.5656L381.82812 309.675Q381.32812 308.76874 380.32812 308.76874Q379.54688 308.76874 379.09375 309.3781Q378.65625 309.9875 378.65625 311.20624Z" fill-rule="nonzero"/><path fill="#000000" d="M29.699987 190.67604L29.699987 192.17604L26.231237 195.09792L26.231237 196.73854L29.699987 196.73854L29.699987 197.89479L20.981237 197.89479L20.981237 195.45729Q20.981237 194.66042 21.090612 194.12917Q21.184362 193.59792 21.449987 193.17604Q21.746862 192.70729 22.199987 192.44167Q22.653112 192.17604 23.340612 192.17604Q24.293737 192.17604 24.934362 192.66042Q25.559362 193.12917 25.887487 193.95729L29.699987 190.67604ZM23.434362 193.39479Q23.059362 193.39479 22.778112 193.51979Q22.481237 193.64479 22.278112 193.95729Q22.106237 194.20729 22.043737 194.55104Q21.965612 194.89479 21.965612 195.36354L21.965612 196.73854L25.262487 196.73854L25.262487 195.56667Q25.262487 195.00417 25.168737 194.59792Q25.074987 194.19167 24.809362 193.91042Q24.559362 193.64479 24.246862 193.51979Q23.918737 193.39479 23.434362 193.39479ZM26.543737 184.50417L26.543737 189.33229Q27.137487 189.33229 27.590612 189.14479Q28.043737 188.95729 28.324987 188.64479Q28.606237 188.34792 28.746862 187.92604Q28.887487 187.50417 28.887487 187.00417Q28.887487 186.33229 28.621862 185.66042Q28.356237 184.97292 28.106237 184.69167L28.106237 184.62917L29.293737 184.62917Q29.528112 185.19167 29.699987 185.76979Q29.856237 186.34792 29.856237 186.98854Q29.856237 188.61354 28.981237 189.53542Q28.090612 190.44167 26.465612 190.44167Q24.856237 190.44167 23.918737 189.56667Q22.965612 188.69167 22.965612 187.26979Q22.965612 185.94167 23.746862 185.22292Q24.512487 184.50417 25.949987 184.50417L26.543737 184.50417ZM25.699987 185.58229Q24.824987 185.58229 24.356237 186.01979Q23.887487 186.44167 23.887487 187.31667Q23.887487 188.20729 24.403112 188.73854Q24.918737 189.25417 25.699987 189.33229L25.699987 185.58229ZM27.809362 178.30104Q28.715612 178.30104 29.293737 179.05104Q29.856237 179.78542 29.856237 181.06667Q29.856237 181.80104 29.684362 182.41042Q29.512487 183.00417 29.309362 183.42604L28.074987 183.42604L28.074987 183.36354Q28.465612 182.84792 28.699987 182.20729Q28.918737 181.56667 28.918737 180.97292Q28.918737 180.25417 28.684362 179.84792Q28.449987 179.42604 27.949987 179.42604Q27.559362 179.42604 27.371862 179.66042Q27.168737 179.87917 27.028112 180.50417Q26.981237 180.73854 26.918737 181.12917Q26.840612 181.50417 26.746862 181.81667Q26.528112 182.67604 26.090612 183.03542Q25.637487 183.39479 24.996862 183.39479Q24.590612 183.39479 24.231237 183.22292Q23.871862 183.05104 23.590612 182.72292Q23.324987 182.39479 23.168737 181.89479Q22.996862 181.37917 22.996862 180.75417Q22.996862 180.16042 23.137487 179.56667Q23.278112 178.95729 23.481237 178.56667L24.668737 178.56667L24.668737 178.62917Q24.356237 179.05104 24.153112 179.66042Q23.934362 180.25417 23.934362 180.83229Q23.934362 181.44167 24.168737 181.86354Q24.387487 182.26979 24.840612 182.26979Q25.246862 182.26979 25.449987 182.01979Q25.668737 181.76979 25.793737 181.22292Q25.856237 180.91042 25.934362 180.53542Q25.996862 180.16042 26.059362 179.91042Q26.231237 179.14479 26.668737 178.72292Q27.090612 178.30104 27.809362 178.30104ZM26.340612 171.22292Q27.137487 171.22292 27.809362 171.45729Q28.465612 171.67604 28.918737 172.09792Q29.356237 172.48854 29.590612 173.01979Q29.824987 173.53542 29.824987 174.11354Q29.824987 174.62917 29.715612 175.05104Q29.606237 175.45729 29.371862 175.87917L32.121864 175.87917L32.121864 176.98854L23.153112 176.98854L23.153112 175.87917L23.840612 175.87917Q23.465612 175.44167 23.215612 174.89479Q22.965612 174.34792 22.965612 173.72292Q22.965612 172.53542 23.871862 171.87917Q24.762487 171.22292 26.340612 171.22292ZM26.371862 172.36354Q25.199987 172.36354 24.621862 172.76979Q24.028112 173.16042 24.028112 174.00417Q24.028112 174.47292 24.231237 174.95729Q24.434362 175.44167 24.762487 175.87917L28.481237 175.87917Q28.684362 175.41042 28.762487 175.08229Q28.840612 174.73854 28.840612 174.31667Q28.840612 173.39479 28.215612 172.87917Q27.590612 172.36354 26.371862 172.36354ZM26.434362 164.41042Q28.028112 164.41042 28.965612 165.23854Q29.887487 166.05104 29.887487 167.42604Q29.887487 168.81667 28.965612 169.62917Q28.028112 170.44167 26.434362 170.44167Q24.824987 170.44167 23.903112 169.62917Q22.965612 168.81667 22.965612 167.42604Q22.965612 166.05104 23.903112 165.23854Q24.824987 164.41042 26.434362 164.41042ZM26.434362 165.53542Q25.153112 165.53542 24.543737 166.03542Q23.918737 166.53542 23.918737 167.42604Q23.918737 168.31667 24.543737 168.81667Q25.153112 169.30104 26.434362 169.30104Q27.653112 169.30104 28.293737 168.81667Q28.934362 168.31667 28.934362 167.42604Q28.934362 166.53542 28.309362 166.03542Q27.668737 165.53542 26.434362 165.53542ZM29.699987 157.50417L29.699987 158.61354L25.965612 158.61354Q25.528112 158.61354 25.137487 158.67604Q24.731237 158.72292 24.512487 158.86354Q24.262487 159.00417 24.153112 159.28542Q24.028112 159.55104 24.028112 159.98854Q24.028112 160.44167 24.246862 160.94167Q24.465612 161.42604 24.809362 161.87917L29.699987 161.87917L29.699987 162.98854L23.153112 162.98854L23.153112 161.87917L23.887487 161.87917Q23.449987 161.36354 23.215612 160.81667Q22.965612 160.26979 22.965612 159.67604Q22.965612 158.62917 23.606237 158.06667Q24.246862 157.50417 25.449987 157.50417L29.699987 157.50417ZM27.809362 150.30104Q28.715612 150.30104 29.293737 151.05104Q29.856237 151.78542 29.856237 153.06667Q29.856237 153.80104 29.684362 154.41042Q29.512487 155.00417 29.309362 155.42604L28.074987 155.42604L28.074987 155.36354Q28.465612 154.84792 28.699987 154.20729Q28.918737 153.56667 28.918737 152.97292Q28.918737 152.25417 28.684362 151.84792Q28.449987 151.42604 27.949987 151.42604Q27.559362 151.42604 27.371862 151.66042Q27.168737 151.87917 27.028112 152.50417Q26.981237 152.73854 26.918737 153.12917Q26.840612 153.50417 26.746862 153.81667Q26.528112 154.67604 26.090612 155.03542Q25.637487 155.39479 24.996862 155.39479Q24.590612 155.39479 24.231237 155.22292Q23.871862 155.05104 23.590612 154.72292Q23.324987 154.39479 23.168737 153.89479Q22.996862 153.37917 22.996862 152.75417Q22.996862 152.16042 23.137487 151.56667Q23.278112 150.95729 23.481237 150.56667L24.668737 150.56667L24.668737 150.62917Q24.356237 151.05104 24.153112 151.66042Q23.934362 152.25417 23.934362 152.83229Q23.934362 153.44167 24.168737 153.86354Q24.387487 154.26979 24.840612 154.26979Q25.246862 154.26979 25.449987 154.01979Q25.668737 153.76979 25.793737 153.22292Q25.856237 152.91042 25.934362 152.53542Q25.996862 152.16042 26.059362 151.91042Q26.231237 151.14479 26.668737 150.72292Q27.090612 150.30104 27.809362 150.30104ZM26.543737 143.50417L26.543737 148.33229Q27.137487 148.33229 27.590612 148.14479Q28.043737 147.95729 28.324987 147.64479Q28.606237 147.34792 28.746862 146.92604Q28.887487 146.50417 28.887487 146.00417Q28.887487 145.33229 28.621862 144.66042Q28.356237 143.97292 28.106237 143.69167L28.106237 143.62917L29.293737 143.62917Q29.528112 144.19167 29.699987 144.76979Q29.856237 145.34792 29.856237 145.98854Q29.856237 147.61354 28.981237 148.53542Q28.090612 149.44167 26.465612 149.44167Q24.856237 149.44167 23.918737 148.56667Q22.965612 147.69167 22.965612 146.26979Q22.965612 144.94167 23.746862 144.22292Q24.512487 143.50417 25.949987 143.50417L26.543737 143.50417ZM25.699987 144.58229Q24.824987 144.58229 24.356237 145.01979Q23.887487 145.44167 23.887487 146.31667Q23.887487 147.20729 24.403112 147.73854Q24.918737 148.25417 25.699987 148.33229L25.699987 144.58229ZM27.809362 137.30104Q28.715612 137.30104 29.293737 138.05104Q29.856237 138.78542 29.856237 140.06667Q29.856237 140.80104 29.684362 141.41042Q29.512487 142.00417 29.309362 142.42604L28.074987 142.42604L28.074987 142.36354Q28.465612 141.84792 28.699987 141.20729Q28.918737 140.56667 28.918737 139.97292Q28.918737 139.25417 28.684362 138.84792Q28.449987 138.42604 27.949987 138.42604Q27.559362 138.42604 27.371862 138.66042Q27.168737 138.87917 27.028112 139.50417Q26.981237 139.73854 26.918737 140.12917Q26.840612 140.50417 26.746862 140.81667Q26.528112 141.67604 26.090612 142.03542Q25.637487 142.39479 24.996862 142.39479Q24.590612 142.39479 24.231237 142.22292Q23.871862 142.05104 23.590612 141.72292Q23.324987 141.39479 23.168737 140.89479Q22.996862 140.37917 22.996862 139.75417Q22.996862 139.16042 23.137487 138.56667Q23.278112 137.95729 23.481237 137.56667L24.668737 137.56667L24.668737 137.62917Q24.356237 138.05104 24.153112 138.66042Q23.934362 139.25417 23.934362 139.83229Q23.934362 140.44167 24.168737 140.86354Q24.387487 141.26979 24.840612 141.26979Q25.246862 141.26979 25.449987 141.01979Q25.668737 140.76979 25.793737 140.22292Q25.856237 139.91042 25.934362 139.53542Q25.996862 139.16042 26.059362 138.91042Q26.231237 138.14479 26.668737 137.72292Q27.090612 137.30104 27.809362 137.30104Z" fill-rule="nonzero"/><path fill="#000000" d="M77.7625 249.15938Q77.7625 251.06563 77.10625 252.00313Q76.46562 252.925 75.075 252.925Q73.71562 252.925 73.05937 252.01875Q72.40312 251.1125 72.37187 249.3L72.37187 247.8625Q72.37187 245.97188 73.0125 245.06563Q73.66875 244.14375 75.05937 244.14375Q76.43437 244.14375 77.09062 245.03438Q77.74687 245.90938 77.7625 247.75313L77.7625 249.15938ZM76.66875 247.675Q76.66875 246.3 76.27812 245.675Q75.90312 245.03438 75.05937 245.03438Q74.23125 245.03438 73.84062 245.675Q73.46562 246.3 73.46562 247.59688L73.46562 249.33125Q73.46562 250.70625 73.85625 251.37813Q74.2625 252.03438 75.075 252.03438Q75.87187 252.03438 76.2625 251.40938Q76.65312 250.78438 76.66875 249.45625L76.66875 247.675Z" fill-rule="nonzero"/><path fill="#000000" d="M58.903126 185.52986L59.340626 181.27986L63.715626 181.27986L63.715626 182.27986L60.2625 182.27986L59.996876 184.60799Q60.6375 184.23299 61.434376 184.23299Q62.590626 184.23299 63.278126 185.01424Q63.965626 185.77986 63.965626 187.09236Q63.965626 188.40486 63.246876 189.17049Q62.54375 189.93611 61.2625 189.93611Q60.1375 189.93611 59.41875 189.31111Q58.7 188.67049 58.60625 187.56111L59.621876 187.56111Q59.73125 188.29549 60.153126 188.67049Q60.575 189.04549 61.2625 189.04549Q62.0125 189.04549 62.45 188.52986Q62.8875 188.01424 62.8875 187.10799Q62.8875 186.24861 62.41875 185.73299Q61.95 185.21736 61.16875 185.21736Q60.465626 185.21736 60.059376 185.51424L59.778126 185.74861L58.903126 185.52986ZM70.7625 186.17049Q70.7625 188.07674 70.10625 189.01424Q69.46562 189.93611 68.075 189.93611Q66.71562 189.93611 66.05937 189.02986Q65.40312 188.12361 65.37187 186.31111L65.37187 184.87361Q65.37187 182.98299 66.0125 182.07674Q66.66875 181.15486 68.05937 181.15486Q69.43437 181.15486 70.09062 182.04549Q70.74687 182.92049 70.7625 184.76424L70.7625 186.17049ZM69.66875 184.68611Q69.66875 183.31111 69.27812 182.68611Q68.90312 182.04549 68.05937 182.04549Q67.23125 182.04549 66.84062 182.68611Q66.46562 183.31111 66.46562 184.60799L66.46562 186.34236Q66.46562 187.71736 66.85625 188.38924Q67.2625 189.04549 68.075 189.04549Q68.87187 189.04549 69.2625 188.42049Q69.65312 187.79549 69.66875 186.46736L69.66875 184.68611ZM77.7625 186.17049Q77.7625 188.07674 77.10625 189.01424Q76.46562 189.93611 75.075 189.93611Q73.71562 189.93611 73.05937 189.02986Q72.40312 188.12361 72.37187 186.31111L72.37187 184.87361Q72.37187 182.98299 73.0125 182.07674Q73.66875 181.15486 75.05937 181.15486Q76.43437 181.15486 77.09062 182.04549Q77.74687 182.92049 77.7625 184.76424L77.7625 186.17049ZM76.66875 184.68611Q76.66875 183.31111 76.27812 182.68611Q75.90312 182.04549 75.05937 182.04549Q74.23125 182.04549 73.84062 182.68611Q73.46562 183.31111 73.46562 184.60799L73.46562 186.34236Q73.46562 187.71736 73.85625 188.38924Q74.2625 189.04549 75.075 189.04549Q75.87187 189.04549 76.2625 188.42049Q76.65312 187.79549 76.66875 186.46736L76.66875 184.68611Z" fill-rule="nonzero"/><path fill="#000000" d="M54.965626 126.82222L53.8875 126.82222L53.8875 119.60347L51.7 120.400345L51.7 119.41597L54.809376 118.244095L54.965626 118.244095L54.965626 126.82222ZM63.7625 123.181595Q63.7625 125.087845 63.10625 126.025345Q62.465626 126.94722 61.075 126.94722Q59.715626 126.94722 59.059376 126.04097Q58.403126 125.13472 58.371876 123.32222L58.371876 121.88472Q58.371876 119.994095 59.0125 119.087845Q59.66875 118.16597 61.059376 118.16597Q62.434376 118.16597 63.090626 119.056595Q63.746876 119.931595 63.7625 121.775345L63.7625 123.181595ZM62.66875 121.69722Q62.66875 120.32222 62.278126 119.69722Q61.903126 119.056595 61.059376 119.056595Q60.23125 119.056595 59.840626 119.69722Q59.465626 120.32222 59.465626 121.619095L59.465626 123.35347Q59.465626 124.72847 59.85625 125.400345Q60.2625 126.056595 61.075 126.056595Q61.871876 126.056595 62.2625 125.431595Q62.653126 124.806595 62.66875 123.47847L62.66875 121.69722ZM70.7625 123.181595Q70.7625 125.087845 70.10625 126.025345Q69.46562 126.94722 68.075 126.94722Q66.71562 126.94722 66.05937 126.04097Q65.40312 125.13472 65.37187 123.32222L65.37187 121.88472Q65.37187 119.994095 66.0125 119.087845Q66.66875 118.16597 68.05937 118.16597Q69.43437 118.16597 70.09062 119.056595Q70.74687 119.931595 70.7625 121.775345L70.7625 123.181595ZM69.66875 121.69722Q69.66875 120.32222 69.27812 119.69722Q68.90312 119.056595 68.05937 119.056595Q67.23125 119.056595 66.84062 119.69722Q66.46562 120.32222 66.46562 121.619095L66.46562 123.35347Q66.46562 124.72847 66.85625 125.400345Q67.2625 126.056595 68.075 126.056595Q68.87187 126.056595 69.2625 125.431595Q69.65312 124.806595 69.66875 123.47847L69.66875 121.69722ZM77.7625 123.181595Q77.7625 125.087845 77.10625 126.025345Q76.46562 126.94722 75.075 126.94722Q73.71562 126.94722 73.05937 126.04097Q72.40312 125.13472 72.37187 123.32222L72.37187 121.88472Q72.37187 119.994095 73.0125 119.087845Q73.66875 118.16597 75.05937 118.16597Q76.43437 118.16597 77.09062 119.056595Q77.74687 119.931595 77.7625 121.775345L77.7625 123.181595ZM76.66875 121.69722Q76.66875 120.32222 76.27812 119.69722Q75.90312 119.056595 75.05937 119.056595Q74.23125 119.056595 73.84062 119.69722Q73.46562 120.32222 73.46562 121.619095L73.46562 123.35347Q73.46562 124.72847 73.85625 125.400345Q74.2625 126.056595 75.075 126.056595Q75.87187 126.056595 76.2625 125.431595Q76.65312 124.806595 76.66875 123.47847L76.66875 121.69722Z" fill-rule="nonzero"/><path fill="#000000" d="M54.965626 63.833332L53.8875 63.833332L53.8875 56.614582L51.7 57.411457L51.7 56.427082L54.809376 55.255207L54.965626 55.255207L54.965626 63.833332ZM58.903126 59.552082L59.340626 55.302082L63.715626 55.302082L63.715626 56.302082L60.2625 56.302082L59.996876 58.630207Q60.6375 58.255207 61.434376 58.255207Q62.590626 58.255207 63.278126 59.036457Q63.965626 59.802082 63.965626 61.114582Q63.965626 62.427082 63.246876 63.192707Q62.54375 63.958332 61.2625 63.958332Q60.1375 63.958332 59.41875 63.333332Q58.7 62.692707 58.60625 61.583332L59.621876 61.583332Q59.73125 62.317707 60.153126 62.692707Q60.575 63.067707 61.2625 63.067707Q62.0125 63.067707 62.45 62.552082Q62.8875 62.036457 62.8875 61.130207Q62.8875 60.270832 62.41875 59.755207Q61.95 59.239582 61.16875 59.239582Q60.465626 59.239582 60.059376 59.536457L59.778126 59.770832L58.903126 59.552082ZM70.7625 60.192707Q70.7625 62.098957 70.10625 63.036457Q69.46562 63.958332 68.075 63.958332Q66.71562 63.958332 66.05937 63.052082Q65.40312 62.145832 65.37187 60.333332L65.37187 58.895832Q65.37187 57.005207 66.0125 56.098957Q66.66875 55.177082 68.05937 55.177082Q69.43437 55.177082 70.09062 56.067707Q70.74687 56.942707 70.7625 58.786457L70.7625 60.192707ZM69.66875 58.708332Q69.66875 57.333332 69.27812 56.708332Q68.90312 56.067707 68.05937 56.067707Q67.23125 56.067707 66.84062 56.708332Q66.46562 57.333332 66.46562 58.630207L66.46562 60.364582Q66.46562 61.739582 66.85625 62.411457Q67.2625 63.067707 68.075 63.067707Q68.87187 63.067707 69.2625 62.442707Q69.65312 61.817707 69.66875 60.489582L69.66875 58.708332ZM77.7625 60.192707Q77.7625 62.098957 77.10625 63.036457Q76.46562 63.958332 75.075 63.958332Q73.71562 63.958332 73.05937 63.052082Q72.40312 62.145832 72.37187 60.333332L72.37187 58.895832Q72.37187 57.005207 73.0125 56.098957Q73.66875 55.177082 75.05937 55.177082Q76.43437 55.177082 77.09062 56.067707Q77.74687 56.942707 77.7625 58.786457L77.7625 60.192707ZM76.66875 58.708332Q76.66875 57.333332 76.27812 56.708332Q75.90312 56.067707 75.05937 56.067707Q74.23125 56.067707 73.84062 56.708332Q73.46562 57.333332 73.46562 58.630207L73.46562 60.364582Q73.46562 61.739582 73.85625 62.411457Q74.2625 63.067707 75.075 63.067707Q75.87187 63.067707 76.2625 62.442707Q76.65312 61.817707 76.66875 60.489582L76.66875 58.708332Z" fill-rule="nonzero"/><path fill="#000000" d="M124.90711 265.175Q124.46961 265.8 123.68836 266.1125Q122.90711 266.425 121.87586 266.425Q120.84461 266.425 120.03211 265.9406Q119.21961 265.4406 118.78211 264.53436Q118.34461 263.6281 118.32899 262.4406L118.32899 261.70624Q118.32899 259.76874 119.21961 258.70624Q120.12586 257.64374 121.75086 257.64374Q123.09461 257.64374 123.90711 258.33124Q124.71961 259.01874 124.90711 260.26874L123.78211 260.26874Q123.45399 258.58124 121.76649 258.58124Q120.62586 258.58124 120.04774 259.3781Q119.46961 260.15936 119.45399 261.675L119.45399 262.3625Q119.45399 263.8 120.11024 264.65936Q120.76649 265.5031 121.89149 265.5031Q122.51649 265.5031 122.98524 265.3625Q123.46961 265.22186 123.78211 264.8781L123.78211 262.97186L121.81336 262.97186L121.81336 262.05L124.90711 262.05L124.90711 265.175ZM126.14149 263.0656Q126.14149 262.14374 126.50086 261.39374Q126.87586 260.64374 127.53211 260.2531Q128.18835 259.84686 129.01648 259.84686Q130.31335 259.84686 131.11023 260.7375Q131.92273 261.6281 131.92273 263.1281L131.92273 263.20624Q131.92273 264.1281 131.56335 264.8625Q131.20398 265.59686 130.54773 266.01874Q129.89148 266.425 129.0321 266.425Q127.75086 266.425 126.93836 265.53436Q126.14149 264.6281 126.14149 263.14374L126.14149 263.0656ZM127.23524 263.20624Q127.23524 264.2531 127.71961 264.89374Q128.2196 265.53436 129.0321 265.53436Q129.86023 265.53436 130.3446 264.89374Q130.82898 264.2375 130.82898 263.0656Q130.82898 262.03436 130.32898 261.39374Q129.8446 260.7375 129.01648 260.7375Q128.2196 260.7375 127.71961 261.3781Q127.23524 262.0031 127.23524 263.20624ZM134.9071 258.425L134.9071 259.95624L136.07898 259.95624L136.07898 260.8L134.9071 260.8L134.9071 264.72186Q134.9071 265.1125 135.06335 265.3Q135.2196 265.4875 135.5946 265.4875Q135.7821 265.4875 136.11023 265.425L136.11023 266.3Q135.68835 266.425 135.2821 266.425Q134.56335 266.425 134.18835 265.9875Q133.81335 265.53436 133.81335 264.72186L133.81335 260.8L132.6571 260.8L132.6571 259.95624L133.81335 259.95624L133.81335 258.425L134.9071 258.425ZM146.04773 264.8L147.26648 259.95624L148.3446 259.95624L146.50085 266.3L145.62585 266.3L144.07898 261.4875L142.57898 266.3L141.70398 266.3L139.86023 259.95624L140.93835 259.95624L142.18835 264.70624L143.67273 259.95624L144.5321 259.95624L146.04773 264.8ZM149.14148 263.0656Q149.14148 262.14374 149.50085 261.39374Q149.87585 260.64374 150.5321 260.2531Q151.18835 259.84686 152.01648 259.84686Q153.31335 259.84686 154.11023 260.7375Q154.92273 261.6281 154.92273 263.1281L154.92273 263.20624Q154.92273 264.1281 154.56335 264.8625Q154.20398 265.59686 153.54773 266.01874Q152.89148 266.425 152.0321 266.425Q150.75085 266.425 149.93835 265.53436Q149.14148 264.6281 149.14148 263.14374L149.14148 263.0656ZM150.23523 263.20624Q150.23523 264.2531 150.7196 264.89374Q151.2196 265.53436 152.0321 265.53436Q152.86023 265.53436 153.3446 264.89374Q153.82898 264.2375 153.82898 263.0656Q153.82898 262.03436 153.32898 261.39374Q152.8446 260.7375 152.01648 260.7375Q151.2196 260.7375 150.7196 261.3781Q150.23523 262.0031 150.23523 263.20624ZM159.50085 260.925Q159.25085 260.89374 158.9696 260.89374Q157.89148 260.89374 157.51648 261.8L157.51648 266.3L156.43835 266.3L156.43835 259.95624L157.48523 259.95624L157.50085 260.6906Q158.0321 259.84686 159.01648 259.84686Q159.32898 259.84686 159.50085 259.925L159.50085 260.925ZM164.12585 264.6125Q164.12585 264.175 163.7821 263.9406Q163.45398 263.6906 162.62585 263.51874Q161.81335 263.34686 161.32898 263.09686Q160.8446 262.84686 160.61023 262.51874Q160.39148 262.175 160.39148 261.70624Q160.39148 260.925 161.04773 260.39374Q161.70398 259.84686 162.73523 259.84686Q163.81335 259.84686 164.4696 260.40936Q165.14148 260.95624 165.14148 261.8156L164.06335 261.8156Q164.06335 261.3781 163.67273 261.0656Q163.29773 260.7375 162.73523 260.7375Q162.14148 260.7375 161.79773 261.0031Q161.4696 261.2531 161.4696 261.65936Q161.4696 262.05 161.7821 262.2531Q162.0946 262.45624 162.9071 262.64374Q163.7196 262.8156 164.2196 263.0656Q164.7196 263.3156 164.95398 263.675Q165.20398 264.03436 165.20398 264.53436Q165.20398 265.39374 164.51648 265.90936Q163.8446 266.425 162.76648 266.425Q162.00085 266.425 161.4071 266.15936Q160.82898 265.8781 160.50085 265.39374Q160.17273 264.90936 160.17273 264.34686L161.25085 264.34686Q161.2821 264.89374 161.68835 265.22186Q162.0946 265.53436 162.76648 265.53436Q163.37585 265.53436 163.75085 265.28436Q164.12585 265.03436 164.12585 264.6125ZM169.06335 266.425Q167.76648 266.425 166.95398 265.58124Q166.1571 264.72186 166.1571 263.3L166.1571 263.1125Q166.1571 262.15936 166.51648 261.425Q166.87585 260.675 167.51648 260.26874Q168.17273 259.84686 168.92273 259.84686Q170.1571 259.84686 170.8446 260.65936Q171.5321 261.47186 171.5321 262.9875L171.5321 263.4406L167.23523 263.4406Q167.26648 264.3781 167.7821 264.95624Q168.31335 265.53436 169.12585 265.53436Q169.68835 265.53436 170.07898 265.3Q170.48523 265.0656 170.79773 264.675L171.45398 265.1906Q170.6571 266.425 169.06335 266.425ZM168.92273 260.7375Q168.26648 260.7375 167.81335 261.22186Q167.37585 261.6906 167.2821 262.55L170.45398 262.55L170.45398 262.47186Q170.4071 261.64374 170.00085 261.1906Q169.61023 260.7375 168.92273 260.7375Z" fill-rule="nonzero"/><path fill="#000000" d="M211.41301 266.3L210.28801 266.3L205.99113 259.72186L205.99113 266.3L204.85051 266.3L204.85051 257.76874L205.99113 257.76874L210.28801 264.3781L210.28801 257.76874L211.41301 257.76874L211.41301 266.3ZM213.39738 263.0656Q213.39738 262.14374 213.75676 261.39374Q214.13176 260.64374 214.78801 260.2531Q215.44426 259.84686 216.27238 259.84686Q217.56926 259.84686 218.36613 260.7375Q219.17863 261.6281 219.17863 263.1281L219.17863 263.20624Q219.17863 264.1281 218.81926 264.8625Q218.45988 265.59686 217.80363 266.01874Q217.14738 266.425 216.28801 266.425Q215.00676 266.425 214.19426 265.53436Q213.39738 264.6281 213.39738 263.14374L213.39738 263.0656ZM214.49113 263.20624Q214.49113 264.2531 214.97551 264.89374Q215.47551 265.53436 216.28801 265.53436Q217.11613 265.53436 217.60051 264.89374Q218.08488 264.2375 218.08488 263.0656Q218.08488 262.03436 217.58488 261.39374Q217.10051 260.7375 216.27238 260.7375Q215.47551 260.7375 214.97551 261.3781Q214.49113 262.0031 214.49113 263.20624ZM226.22551 265.53436Q226.80363 265.53436 227.24113 265.1906Q227.67863 264.83124 227.72551 264.3L228.75676 264.3Q228.72551 264.84686 228.36613 265.34686Q228.02238 265.83124 227.44426 266.1281Q226.88176 266.425 226.22551 266.425Q224.92863 266.425 224.16301 265.5656Q223.41301 264.6906 223.41301 263.1906L223.41301 263.0031Q223.41301 262.08124 223.74113 261.3625Q224.08488 260.64374 224.70988 260.2531Q225.35051 259.84686 226.22551 259.84686Q227.28801 259.84686 227.99113 260.4875Q228.70988 261.1125 228.75676 262.14374L227.72551 262.14374Q227.67863 261.51874 227.25676 261.1281Q226.83488 260.7375 226.22551 260.7375Q225.39738 260.7375 224.94426 261.33124Q224.49113 261.925 224.49113 263.05L224.49113 263.2531Q224.49113 264.34686 224.94426 264.9406Q225.39738 265.53436 226.22551 265.53436ZM230.77238 260.72186Q231.49113 259.84686 232.64738 259.84686Q234.66301 259.84686 234.67863 262.1125L234.67863 266.3L233.58488 266.3L233.58488 262.09686Q233.58488 261.425 233.27238 261.09686Q232.97551 260.76874 232.31926 260.76874Q231.78801 260.76874 231.38176 261.05Q230.99113 261.33124 230.77238 261.78436L230.77238 266.3L229.69426 266.3L229.69426 257.3L230.77238 257.3L230.77238 260.72186ZM240.60051 266.3Q240.50676 266.1125 240.44426 265.6281Q239.69426 266.425 238.64738 266.425Q237.70988 266.425 237.10051 265.89374Q236.50676 265.3625 236.50676 264.53436Q236.50676 263.55 237.25676 263.0031Q238.00676 262.45624 239.38176 262.45624L240.42863 262.45624L240.42863 261.95624Q240.42863 261.39374 240.08488 261.0656Q239.75676 260.72186 239.08488 260.72186Q238.50676 260.72186 238.11613 261.01874Q237.72551 261.3 237.72551 261.72186L236.63176 261.72186Q236.63176 261.2375 236.95988 260.8Q237.30363 260.3625 237.88176 260.1125Q238.45988 259.84686 239.14738 259.84686Q240.25676 259.84686 240.86613 260.39374Q241.49113 260.9406 241.52238 261.89374L241.52238 264.8156Q241.52238 265.6906 241.74113 266.20624L241.74113 266.3L240.60051 266.3ZM238.80363 265.47186Q239.31926 265.47186 239.77238 265.20624Q240.22551 264.9406 240.42863 264.51874L240.42863 263.22186L239.58488 263.22186Q237.58488 263.22186 237.58488 264.39374Q237.58488 264.89374 237.92863 265.1906Q238.27238 265.47186 238.80363 265.47186ZM244.70988 259.95624L244.74113 260.7531Q245.47551 259.84686 246.64738 259.84686Q248.66301 259.84686 248.67863 262.1125L248.67863 266.3L247.58488 266.3L247.58488 262.09686Q247.58488 261.425 247.27238 261.09686Q246.97551 260.76874 246.31926 260.76874Q245.78801 260.76874 245.38176 261.05Q244.99113 261.33124 244.77238 261.78436L244.77238 266.3L243.69426 266.3L243.69426 259.95624L244.70988 259.95624ZM250.42863 263.08124Q250.42863 261.59686 251.11613 260.72186Q251.80363 259.84686 252.92863 259.84686Q254.08488 259.84686 254.74113 260.65936L254.78801 259.95624L255.78801 259.95624L255.78801 266.14374Q255.78801 267.3781 255.05363 268.08124Q254.31926 268.8 253.10051 268.8Q252.41301 268.8 251.75676 268.5031Q251.10051 268.20624 250.75676 267.70624L251.31926 267.05Q252.00676 267.90936 253.02238 267.90936Q253.80363 267.90936 254.24113 267.45624Q254.69426 267.01874 254.69426 266.20624L254.69426 265.65936Q254.03801 266.425 252.91301 266.425Q251.80363 266.425 251.11613 265.53436Q250.42863 264.6281 250.42863 263.08124ZM251.52238 263.20624Q251.52238 264.26874 251.95988 264.89374Q252.39738 265.5031 253.19426 265.5031Q254.20988 265.5031 254.69426 264.5656L254.69426 261.675Q254.19426 260.76874 253.19426 260.76874Q252.41301 260.76874 251.95988 261.3781Q251.52238 261.9875 251.52238 263.20624ZM260.31927 266.425Q259.0224 266.425 258.2099 265.58124Q257.41302 264.72186 257.41302 263.3L257.41302 263.1125Q257.41302 262.15936 257.7724 261.425Q258.13177 260.675 258.7724 260.26874Q259.42865 259.84686 260.17865 259.84686Q261.41302 259.84686 262.10052 260.65936Q262.78802 261.47186 262.78802 262.9875L262.78802 263.4406L258.49115 263.4406Q258.5224 264.3781 259.03802 264.95624Q259.56927 265.53436 260.38177 265.53436Q260.94427 265.53436 261.3349 265.3Q261.74115 265.0656 262.05365 264.675L262.7099 265.1906Q261.91302 266.425 260.31927 266.425ZM260.17865 260.7375Q259.5224 260.7375 259.06927 261.22186Q258.63177 261.6906 258.53802 262.55L261.7099 262.55L261.7099 262.47186Q261.66302 261.64374 261.25677 261.1906Q260.86615 260.7375 260.17865 260.7375Z" fill-rule="nonzero"/><path fill="#000000" d="M310.12204 262.5031Q308.68454 262.08124 308.01266 261.47186Q307.3564 260.8625 307.3564 259.97186Q307.3564 258.97186 308.1533 258.3156Q308.9658 257.64374 310.26266 257.64374Q311.13766 257.64374 311.82516 257.9875Q312.51266 258.33124 312.88766 258.925Q313.2783 259.51874 313.2783 260.2375L312.13766 260.2375Q312.13766 259.45624 311.63766 259.01874Q311.1533 258.58124 310.26266 258.58124Q309.43454 258.58124 308.9658 258.95624Q308.49704 259.3156 308.49704 259.95624Q308.49704 260.4875 308.93454 260.84686Q309.38766 261.20624 310.45016 261.5031Q311.51266 261.8 312.1064 262.15936Q312.7158 262.51874 312.99704 263.0031Q313.2939 263.4875 313.2939 264.1281Q313.2939 265.175 312.4814 265.8Q311.6689 266.425 310.32516 266.425Q309.43454 266.425 308.6689 266.08124Q307.9189 265.7375 307.49704 265.15936Q307.0908 264.5656 307.0908 263.83124L308.2158 263.83124Q308.2158 264.59686 308.7939 265.05Q309.37204 265.5031 310.32516 265.5031Q311.2158 265.5031 311.68454 265.14374Q312.1533 264.76874 312.1533 264.14374Q312.1533 263.51874 311.7158 263.175Q311.2783 262.83124 310.12204 262.5031ZM315.62204 266.3L314.5439 266.3L314.5439 257.3L315.62204 257.3L315.62204 266.3ZM318.62204 266.3L317.5439 266.3L317.5439 259.95624L318.62204 259.95624L318.62204 266.3ZM317.45016 258.28436Q317.45016 258.01874 317.6064 257.83124Q317.7783 257.64374 318.0908 257.64374Q318.4033 257.64374 318.55954 257.83124Q318.7314 258.01874 318.7314 258.28436Q318.7314 258.53436 318.55954 258.72186Q318.4033 258.89374 318.0908 258.89374Q317.7783 258.89374 317.6064 258.72186Q317.45016 258.53436 317.45016 258.28436ZM320.18454 263.08124Q320.18454 261.59686 320.87204 260.72186Q321.55954 259.84686 322.68454 259.84686Q323.8408 259.84686 324.49704 260.65936L324.5439 259.95624L325.5439 259.95624L325.5439 266.14374Q325.5439 267.3781 324.80954 268.08124Q324.07516 268.8 322.8564 268.8Q322.1689 268.8 321.51266 268.5031Q320.8564 268.20624 320.51266 267.70624L321.07516 267.05Q321.76266 267.90936 322.7783 267.90936Q323.55954 267.90936 323.99704 267.45624Q324.45016 267.01874 324.45016 266.20624L324.45016 265.65936Q323.7939 266.425 322.6689 266.425Q321.55954 266.425 320.87204 265.53436Q320.18454 264.6281 320.18454 263.08124ZM321.2783 263.20624Q321.2783 264.26874 321.7158 264.89374Q322.1533 265.5031 322.95016 265.5031Q323.9658 265.5031 324.45016 264.5656L324.45016 261.675Q323.95016 260.76874 322.95016 260.76874Q322.1689 260.76874 321.7158 261.3781Q321.2783 261.9875 321.2783 263.20624ZM328.5283 260.72186Q329.24704 259.84686 330.4033 259.84686Q332.4189 259.84686 332.43454 262.1125L332.43454 266.3L331.3408 266.3L331.3408 262.09686Q331.3408 261.425 331.0283 261.09686Q330.7314 260.76874 330.07516 260.76874Q329.5439 260.76874 329.13766 261.05Q328.74704 261.33124 328.5283 261.78436L328.5283 266.3L327.45016 266.3L327.45016 257.3L328.5283 257.3L328.5283 260.72186ZM335.9189 258.425L335.9189 259.95624L337.0908 259.95624L337.0908 260.8L335.9189 260.8L335.9189 264.72186Q335.9189 265.1125 336.07516 265.3Q336.2314 265.4875 336.6064 265.4875Q336.7939 265.4875 337.12204 265.425L337.12204 266.3Q336.70016 266.425 336.2939 266.425Q335.57516 266.425 335.20016 265.9875Q334.82516 265.53436 334.82516 264.72186L334.82516 260.8L333.6689 260.8L333.6689 259.95624L334.82516 259.95624L334.82516 258.425L335.9189 258.425Z" fill-rule="nonzero"/><path fill="#000000" d="M288.12204 281.3L287.0439 281.3L287.0439 274.95624L288.12204 274.95624L288.12204 281.3ZM286.95016 273.28436Q286.95016 273.01874 287.1064 272.83124Q287.2783 272.64374 287.5908 272.64374Q287.9033 272.64374 288.05954 272.83124Q288.2314 273.01874 288.2314 273.28436Q288.2314 273.53436 288.05954 273.72186Q287.9033 273.89374 287.5908 273.89374Q287.2783 273.89374 287.1064 273.72186Q286.95016 273.53436 286.95016 273.28436ZM290.9658 274.95624L290.99704 275.65936Q291.68454 274.84686 292.87204 274.84686Q294.20016 274.84686 294.68454 275.8625Q294.99704 275.40936 295.49704 275.1281Q296.01266 274.84686 296.70016 274.84686Q298.7939 274.84686 298.82516 277.05L298.82516 281.3L297.74704 281.3L297.74704 277.1125Q297.74704 276.4406 297.43454 276.1125Q297.12204 275.76874 296.38766 275.76874Q295.7783 275.76874 295.37204 276.1281Q294.9814 276.4875 294.9189 277.09686L294.9189 281.3L293.8408 281.3L293.8408 277.14374Q293.8408 275.76874 292.4814 275.76874Q291.4189 275.76874 291.0283 276.675L291.0283 281.3L289.93454 281.3L289.93454 274.95624L290.9658 274.95624ZM306.2939 278.20624Q306.2939 279.64374 305.63766 280.53436Q304.9814 281.425 303.8408 281.425Q302.68454 281.425 302.0283 280.6906L302.0283 283.7375L300.95016 283.7375L300.95016 274.95624L301.93454 274.95624L301.9814 275.65936Q302.6533 274.84686 303.82516 274.84686Q304.9658 274.84686 305.62204 275.70624Q306.2939 276.5656 306.2939 278.09686L306.2939 278.20624ZM305.2158 278.08124Q305.2158 277.0031 304.74704 276.39374Q304.2939 275.76874 303.49704 275.76874Q302.51266 275.76874 302.0283 276.6281L302.0283 279.65936Q302.51266 280.53436 303.51266 280.53436Q304.2939 280.53436 304.74704 279.925Q305.2158 279.3 305.2158 278.08124ZM311.01266 275.925Q310.76266 275.89374 310.4814 275.89374Q309.4033 275.89374 309.0283 276.8L309.0283 281.3L307.95016 281.3L307.95016 274.95624L308.99704 274.95624L309.01266 275.6906Q309.5439 274.84686 310.5283 274.84686Q310.8408 274.84686 311.01266 274.925L311.01266 275.925ZM311.6533 278.0656Q311.6533 277.14374 312.01266 276.39374Q312.38766 275.64374 313.0439 275.2531Q313.70016 274.84686 314.5283 274.84686Q315.82516 274.84686 316.62204 275.7375Q317.43454 276.6281 317.43454 278.1281L317.43454 278.20624Q317.43454 279.1281 317.07516 279.8625Q316.7158 280.59686 316.05954 281.01874Q315.4033 281.425 314.5439 281.425Q313.26266 281.425 312.45016 280.53436Q311.6533 279.6281 311.6533 278.14374L311.6533 278.0656ZM312.74704 278.20624Q312.74704 279.2531 313.2314 279.89374Q313.7314 280.53436 314.5439 280.53436Q315.37204 280.53436 315.8564 279.89374Q316.3408 279.2375 316.3408 278.0656Q316.3408 277.03436 315.8408 276.39374Q315.3564 275.7375 314.5283 275.7375Q313.7314 275.7375 313.2314 276.3781Q312.74704 277.0031 312.74704 278.20624ZM321.0283 279.83124L322.6064 274.95624L323.7158 274.95624L321.43454 281.3L320.6064 281.3L318.30954 274.95624L319.4189 274.95624L321.0283 279.83124ZM327.57516 281.425Q326.2783 281.425 325.4658 280.58124Q324.6689 279.72186 324.6689 278.3L324.6689 278.1125Q324.6689 277.15936 325.0283 276.425Q325.38766 275.675 326.0283 275.26874Q326.68454 274.84686 327.43454 274.84686Q328.6689 274.84686 329.3564 275.65936Q330.0439 276.47186 330.0439 277.9875L330.0439 278.4406L325.74704 278.4406Q325.7783 279.3781 326.2939 279.95624Q326.82516 280.53436 327.63766 280.53436Q328.20016 280.53436 328.5908 280.3Q328.99704 280.0656 329.30954 279.675L329.9658 280.1906Q329.1689 281.425 327.57516 281.425ZM327.43454 275.7375Q326.7783 275.7375 326.32516 276.22186Q325.88766 276.6906 325.7939 277.55L328.9658 277.55L328.9658 277.47186Q328.9189 276.64374 328.51266 276.1906Q328.12204 275.7375 327.43454 275.7375ZM331.9658 274.95624L331.99704 275.65936Q332.68454 274.84686 333.87204 274.84686Q335.20016 274.84686 335.68454 275.8625Q335.99704 275.40936 336.49704 275.1281Q337.01266 274.84686 337.70016 274.84686Q339.7939 274.84686 339.82516 277.05L339.82516 281.3L338.74704 281.3L338.74704 277.1125Q338.74704 276.4406 338.43454 276.1125Q338.12204 275.76874 337.38766 275.76874Q336.7783 275.76874 336.37204 276.1281Q335.9814 276.4875 335.9189 277.09686L335.9189 281.3L334.8408 281.3L334.8408 277.14374Q334.8408 275.76874 333.4814 275.76874Q332.4189 275.76874 332.0283 276.675L332.0283 281.3L330.93454 281.3L330.93454 274.95624L331.9658 274.95624ZM344.57516 281.425Q343.2783 281.425 342.4658 280.58124Q341.6689 279.72186 341.6689 278.3L341.6689 278.1125Q341.6689 277.15936 342.0283 276.425Q342.38766 275.675 343.0283 275.26874Q343.68454 274.84686 344.43454 274.84686Q345.6689 274.84686 346.3564 275.65936Q347.0439 276.47186 347.0439 277.9875L347.0439 278.4406L342.74704 278.4406Q342.7783 279.3781 343.2939 279.95624Q343.82516 280.53436 344.63766 280.53436Q345.20016 280.53436 345.5908 280.3Q345.99704 280.0656 346.30954 279.675L346.9658 280.1906Q346.1689 281.425 344.57516 281.425ZM344.43454 275.7375Q343.7783 275.7375 343.32516 276.22186Q342.88766 276.6906 342.7939 277.55L345.9658 277.55L345.9658 277.47186Q345.9189 276.64374 345.51266 276.1906Q345.12204 275.7375 344.43454 275.7375ZM348.9658 274.95624L348.99704 275.7531Q349.7314 274.84686 350.9033 274.84686Q352.9189 274.84686 352.93454 277.1125L352.93454 281.3L351.8408 281.3L351.8408 277.09686Q351.8408 276.425 351.5283 276.09686Q351.2314 275.76874 350.57516 275.76874Q350.0439 275.76874 349.63766 276.05Q349.24704 276.33124 349.0283 276.78436L349.0283 281.3L347.95016 281.3L347.95016 274.95624L348.9658 274.95624ZM356.4189 273.425L356.4189 274.95624L357.5908 274.95624L357.5908 275.8L356.4189 275.8L356.4189 279.72186Q356.4189 280.1125 356.57516 280.3Q356.7314 280.4875 357.1064 280.4875Q357.2939 280.4875 357.62204 280.425L357.62204 281.3Q357.20016 281.425 356.7939 281.425Q356.07516 281.425 355.70016 280.9875Q355.32516 280.53436 355.32516 279.72186L355.32516 275.8L354.1689 275.8L354.1689 274.95624L355.32516 274.95624L355.32516 273.425L356.4189 273.425Z" fill-rule="nonzero"/><path fill="#000000" d="M398.87796 262.5031Q397.44046 262.08124 396.7686 261.47186Q396.11234 260.8625 396.11234 259.97186Q396.11234 258.97186 396.9092 258.3156Q397.7217 257.64374 399.0186 257.64374Q399.8936 257.64374 400.5811 257.9875Q401.2686 258.33124 401.6436 258.925Q402.0342 259.51874 402.0342 260.2375L400.8936 260.2375Q400.8936 259.45624 400.3936 259.01874Q399.9092 258.58124 399.0186 258.58124Q398.19046 258.58124 397.7217 258.95624Q397.25296 259.3156 397.25296 259.95624Q397.25296 260.4875 397.69046 260.84686Q398.1436 261.20624 399.2061 261.5031Q400.2686 261.8 400.86234 262.15936Q401.4717 262.51874 401.75296 263.0031Q402.04984 263.4875 402.04984 264.1281Q402.04984 265.175 401.23734 265.8Q400.42484 266.425 399.0811 266.425Q398.19046 266.425 397.42484 266.08124Q396.67484 265.7375 396.25296 265.15936Q395.8467 264.5656 395.8467 263.83124L396.9717 263.83124Q396.9717 264.59686 397.54984 265.05Q398.12796 265.5031 399.0811 265.5031Q399.9717 265.5031 400.44046 265.14374Q400.9092 264.76874 400.9092 264.14374Q400.9092 263.51874 400.4717 263.175Q400.0342 262.83124 398.87796 262.5031ZM402.9092 263.0656Q402.9092 262.14374 403.2686 261.39374Q403.6436 260.64374 404.29984 260.2531Q404.9561 259.84686 405.7842 259.84686Q407.0811 259.84686 407.87796 260.7375Q408.69046 261.6281 408.69046 263.1281L408.69046 263.20624Q408.69046 264.1281 408.3311 264.8625Q407.9717 265.59686 407.31546 266.01874Q406.6592 266.425 405.79984 266.425Q404.5186 266.425 403.7061 265.53436Q402.9092 264.6281 402.9092 263.14374L402.9092 263.0656ZM404.00296 263.20624Q404.00296 264.2531 404.48734 264.89374Q404.98734 265.53436 405.79984 265.53436Q406.62796 265.53436 407.11234 264.89374Q407.5967 264.2375 407.5967 263.0656Q407.5967 262.03436 407.0967 261.39374Q406.61234 260.7375 405.7842 260.7375Q404.98734 260.7375 404.48734 261.3781Q404.00296 262.0031 404.00296 263.20624ZM411.2217 259.95624L411.25296 260.65936Q411.94046 259.84686 413.12796 259.84686Q414.4561 259.84686 414.94046 260.8625Q415.25296 260.40936 415.75296 260.1281Q416.2686 259.84686 416.9561 259.84686Q419.04984 259.84686 419.0811 262.05L419.0811 266.3L418.00296 266.3L418.00296 262.1125Q418.00296 261.4406 417.69046 261.1125Q417.37796 260.76874 416.6436 260.76874Q416.0342 260.76874 415.62796 261.1281Q415.23734 261.4875 415.17484 262.09686L415.17484 266.3L414.0967 266.3L414.0967 262.14374Q414.0967 260.76874 412.73734 260.76874Q411.67484 260.76874 411.2842 261.675L411.2842 266.3L410.19046 266.3L410.19046 259.95624L411.2217 259.95624ZM423.8311 266.425Q422.5342 266.425 421.7217 265.58124Q420.92484 264.72186 420.92484 263.3L420.92484 263.1125Q420.92484 262.15936 421.2842 261.425Q421.6436 260.675 422.2842 260.26874Q422.94046 259.84686 423.69046 259.84686Q424.92484 259.84686 425.61234 260.65936Q426.29984 261.47186 426.29984 262.9875L426.29984 263.4406L422.00296 263.4406Q422.0342 264.3781 422.54984 264.95624Q423.0811 265.53436 423.8936 265.53436Q424.4561 265.53436 424.8467 265.3Q425.25296 265.0656 425.56546 264.675L426.2217 265.1906Q425.42484 266.425 423.8311 266.425ZM423.69046 260.7375Q423.0342 260.7375 422.5811 261.22186Q422.1436 261.6906 422.04984 262.55L425.2217 262.55L425.2217 262.47186Q425.17484 261.64374 424.7686 261.1906Q424.37796 260.7375 423.69046 260.7375Z" fill-rule="nonzero"/><path fill="#000000" d="M376.87796 281.3L375.79984 281.3L375.79984 274.95624L376.87796 274.95624L376.87796 281.3ZM375.7061 273.28436Q375.7061 273.01874 375.86234 272.83124Q376.0342 272.64374 376.3467 272.64374Q376.6592 272.64374 376.81546 272.83124Q376.98734 273.01874 376.98734 273.28436Q376.98734 273.53436 376.81546 273.72186Q376.6592 273.89374 376.3467 273.89374Q376.0342 273.89374 375.86234 273.72186Q375.7061 273.53436 375.7061 273.28436ZM379.7217 274.95624L379.75296 275.65936Q380.44046 274.84686 381.62796 274.84686Q382.9561 274.84686 383.44046 275.8625Q383.75296 275.40936 384.25296 275.1281Q384.7686 274.84686 385.4561 274.84686Q387.54984 274.84686 387.5811 277.05L387.5811 281.3L386.50296 281.3L386.50296 277.1125Q386.50296 276.4406 386.19046 276.1125Q385.87796 275.76874 385.1436 275.76874Q384.5342 275.76874 384.12796 276.1281Q383.73734 276.4875 383.67484 277.09686L383.67484 281.3L382.5967 281.3L382.5967 277.14374Q382.5967 275.76874 381.23734 275.76874Q380.17484 275.76874 379.7842 276.675L379.7842 281.3L378.69046 281.3L378.69046 274.95624L379.7217 274.95624ZM395.04984 278.20624Q395.04984 279.64374 394.3936 280.53436Q393.73734 281.425 392.5967 281.425Q391.44046 281.425 390.7842 280.6906L390.7842 283.7375L389.7061 283.7375L389.7061 274.95624L390.69046 274.95624L390.73734 275.65936Q391.4092 274.84686 392.5811 274.84686Q393.7217 274.84686 394.37796 275.70624Q395.04984 276.5656 395.04984 278.09686L395.04984 278.20624ZM393.9717 278.08124Q393.9717 277.0031 393.50296 276.39374Q393.04984 275.76874 392.25296 275.76874Q391.2686 275.76874 390.7842 276.6281L390.7842 279.65936Q391.2686 280.53436 392.2686 280.53436Q393.04984 280.53436 393.50296 279.925Q393.9717 279.3 393.9717 278.08124ZM399.7686 275.925Q399.5186 275.89374 399.23734 275.89374Q398.1592 275.89374 397.7842 276.8L397.7842 281.3L396.7061 281.3L396.7061 274.95624L397.75296 274.95624L397.7686 275.6906Q398.29984 274.84686 399.2842 274.84686Q399.5967 274.84686 399.7686 274.925L399.7686 275.925ZM400.4092 278.0656Q400.4092 277.14374 400.7686 276.39374Q401.1436 275.64374 401.79984 275.2531Q402.4561 274.84686 403.2842 274.84686Q404.5811 274.84686 405.37796 275.7375Q406.19046 276.6281 406.19046 278.1281L406.19046 278.20624Q406.19046 279.1281 405.8311 279.8625Q405.4717 280.59686 404.81546 281.01874Q404.1592 281.425 403.29984 281.425Q402.0186 281.425 401.2061 280.53436Q400.4092 279.6281 400.4092 278.14374L400.4092 278.0656ZM401.50296 278.20624Q401.50296 279.2531 401.98734 279.89374Q402.48734 280.53436 403.29984 280.53436Q404.12796 280.53436 404.61234 279.89374Q405.0967 279.2375 405.0967 278.0656Q405.0967 277.03436 404.5967 276.39374Q404.11234 275.7375 403.2842 275.7375Q402.48734 275.7375 401.98734 276.3781Q401.50296 277.0031 401.50296 278.20624ZM409.7842 279.83124L411.36234 274.95624L412.4717 274.95624L410.19046 281.3L409.36234 281.3L407.06546 274.95624L408.17484 274.95624L409.7842 279.83124ZM416.3311 281.425Q415.0342 281.425 414.2217 280.58124Q413.42484 279.72186 413.42484 278.3L413.42484 278.1125Q413.42484 277.15936 413.7842 276.425Q414.1436 275.675 414.7842 275.26874Q415.44046 274.84686 416.19046 274.84686Q417.42484 274.84686 418.11234 275.65936Q418.79984 276.47186 418.79984 277.9875L418.79984 278.4406L414.50296 278.4406Q414.5342 279.3781 415.04984 279.95624Q415.5811 280.53436 416.3936 280.53436Q416.9561 280.53436 417.3467 280.3Q417.75296 280.0656 418.06546 279.675L418.7217 280.1906Q417.92484 281.425 416.3311 281.425ZM416.19046 275.7375Q415.5342 275.7375 415.0811 276.22186Q414.6436 276.6906 414.54984 277.55L417.7217 277.55L417.7217 277.47186Q417.67484 276.64374 417.2686 276.1906Q416.87796 275.7375 416.19046 275.7375ZM420.7217 274.95624L420.75296 275.65936Q421.44046 274.84686 422.62796 274.84686Q423.9561 274.84686 424.44046 275.8625Q424.75296 275.40936 425.25296 275.1281Q425.7686 274.84686 426.4561 274.84686Q428.54984 274.84686 428.5811 277.05L428.5811 281.3L427.50296 281.3L427.50296 277.1125Q427.50296 276.4406 427.19046 276.1125Q426.87796 275.76874 426.1436 275.76874Q425.5342 275.76874 425.12796 276.1281Q424.73734 276.4875 424.67484 277.09686L424.67484 281.3L423.5967 281.3L423.5967 277.14374Q423.5967 275.76874 422.23734 275.76874Q421.17484 275.76874 420.7842 276.675L420.7842 281.3L419.69046 281.3L419.69046 274.95624L420.7217 274.95624ZM433.3311 281.425Q432.0342 281.425 431.2217 280.58124Q430.42484 279.72186 430.42484 278.3L430.42484 278.1125Q430.42484 277.15936 430.7842 276.425Q431.1436 275.675 431.7842 275.26874Q432.44046 274.84686 433.19046 274.84686Q434.42484 274.84686 435.11234 275.65936Q435.79984 276.47186 435.79984 277.9875L435.79984 278.4406L431.50296 278.4406Q431.5342 279.3781 432.04984 279.95624Q432.5811 280.53436 433.3936 280.53436Q433.9561 280.53436 434.3467 280.3Q434.75296 280.0656 435.06546 279.675L435.7217 280.1906Q434.92484 281.425 433.3311 281.425ZM433.19046 275.7375Q432.5342 275.7375 432.0811 276.22186Q431.6436 276.6906 431.54984 277.55L434.7217 277.55L434.7217 277.47186Q434.67484 276.64374 434.2686 276.1906Q433.87796 275.7375 433.19046 275.7375ZM437.7217 274.95624L437.75296 275.7531Q438.48734 274.84686 439.6592 274.84686Q441.67484 274.84686 441.69046 277.1125L441.69046 281.3L440.5967 281.3L440.5967 277.09686Q440.5967 276.425 440.2842 276.09686Q439.98734 275.76874 439.3311 275.76874Q438.79984 275.76874 438.3936 276.05Q438.00296 276.33124 437.7842 276.78436L437.7842 281.3L436.7061 281.3L436.7061 274.95624L437.7217 274.95624ZM445.17484 273.425L445.17484 274.95624L446.3467 274.95624L446.3467 275.8L445.17484 275.8L445.17484 279.72186Q445.17484 280.1125 445.3311 280.3Q445.48734 280.4875 445.86234 280.4875Q446.04984 280.4875 446.37796 280.425L446.37796 281.3Q445.9561 281.425 445.54984 281.425Q444.8311 281.425 444.4561 280.9875Q444.0811 280.53436 444.0811 279.72186L444.0811 275.8L442.92484 275.8L442.92484 274.95624L444.0811 274.95624L444.0811 273.425L445.17484 273.425Z" fill-rule="nonzero"/><path fill="#000000" d="M485.83698 264.0656L482.25885 264.0656L481.46198 266.3L480.30573 266.3L483.55573 257.76874L484.5401 257.76874L487.80573 266.3L486.64948 266.3L485.83698 264.0656ZM482.6026 263.14374L485.50885 263.14374L484.05573 259.15936L482.6026 263.14374ZM493.13385 266.3L492.05573 266.3L492.05573 257.3L493.13385 257.3L493.13385 266.3ZM494.6651 263.0656Q494.6651 262.14374 495.02448 261.39374Q495.39948 260.64374 496.05573 260.2531Q496.71198 259.84686 497.5401 259.84686Q498.83698 259.84686 499.63385 260.7375Q500.44635 261.6281 500.44635 263.1281L500.44635 263.20624Q500.44635 264.1281 500.08698 264.8625Q499.7276 265.59686 499.07135 266.01874Q498.4151 266.425 497.55573 266.425Q496.27448 266.425 495.46198 265.53436Q494.6651 264.6281 494.6651 263.14374L494.6651 263.0656ZM495.75885 263.20624Q495.75885 264.2531 496.24323 264.89374Q496.74323 265.53436 497.55573 265.53436Q498.38385 265.53436 498.86823 264.89374Q499.3526 264.2375 499.3526 263.0656Q499.3526 262.03436 498.8526 261.39374Q498.36823 260.7375 497.5401 260.7375Q496.74323 260.7375 496.24323 261.3781Q495.75885 262.0031 495.75885 263.20624ZM503.43073 258.425L503.43073 259.95624L504.6026 259.95624L504.6026 260.8L503.43073 260.8L503.43073 264.72186Q503.43073 265.1125 503.58698 265.3Q503.74323 265.4875 504.11823 265.4875Q504.30573 265.4875 504.63385 265.425L504.63385 266.3Q504.21198 266.425 503.80573 266.425Q503.08698 266.425 502.71198 265.9875Q502.33698 265.53436 502.33698 264.72186L502.33698 260.8L501.18073 260.8L501.18073 259.95624L502.33698 259.95624L502.33698 258.425L503.43073 258.425ZM508.6651 263.0656Q508.6651 262.14374 509.02448 261.39374Q509.39948 260.64374 510.05573 260.2531Q510.71198 259.84686 511.5401 259.84686Q512.837 259.84686 513.63385 260.7375Q514.44635 261.6281 514.44635 263.1281L514.44635 263.20624Q514.44635 264.1281 514.087 264.8625Q513.7276 265.59686 513.07135 266.01874Q512.4151 266.425 511.55573 266.425Q510.27448 266.425 509.46198 265.53436Q508.6651 264.6281 508.6651 263.14374L508.6651 263.0656ZM509.75885 263.20624Q509.75885 264.2531 510.24323 264.89374Q510.74323 265.53436 511.55573 265.53436Q512.38385 265.53436 512.8682 264.89374Q513.3526 264.2375 513.3526 263.0656Q513.3526 262.03436 512.8526 261.39374Q512.3682 260.7375 511.5401 260.7375Q510.74323 260.7375 510.24323 261.3781Q509.75885 262.0031 509.75885 263.20624ZM516.4932 266.3L516.4932 260.8L515.4932 260.8L515.4932 259.95624L516.4932 259.95624L516.4932 259.3156Q516.4932 258.28436 517.0245 257.7375Q517.57135 257.175 518.57135 257.175Q518.94635 257.175 519.32135 257.26874L519.25885 258.15936Q518.9776 258.09686 518.6807 258.09686Q518.1495 258.09686 517.8526 258.40936Q517.57135 258.72186 517.57135 259.28436L517.57135 259.95624L518.9307 259.95624L518.9307 260.8L517.57135 260.8L517.57135 266.3L516.4932 266.3Z" fill-rule="nonzero"/><path fill="#000000" d="M465.63385 281.3L464.55573 281.3L464.55573 274.95624L465.63385 274.95624L465.63385 281.3ZM464.46198 273.28436Q464.46198 273.01874 464.61823 272.83124Q464.7901 272.64374 465.1026 272.64374Q465.4151 272.64374 465.57135 272.83124Q465.74323 273.01874 465.74323 273.28436Q465.74323 273.53436 465.57135 273.72186Q465.4151 273.89374 465.1026 273.89374Q464.7901 273.89374 464.61823 273.72186Q464.46198 273.53436 464.46198 273.28436ZM468.4776 274.95624L468.50885 275.65936Q469.19635 274.84686 470.38385 274.84686Q471.71198 274.84686 472.19635 275.8625Q472.50885 275.40936 473.00885 275.1281Q473.52448 274.84686 474.21198 274.84686Q476.30573 274.84686 476.33698 277.05L476.33698 281.3L475.25885 281.3L475.25885 277.1125Q475.25885 276.4406 474.94635 276.1125Q474.63385 275.76874 473.89948 275.76874Q473.2901 275.76874 472.88385 276.1281Q472.49323 276.4875 472.43073 277.09686L472.43073 281.3L471.3526 281.3L471.3526 277.14374Q471.3526 275.76874 469.99323 275.76874Q468.93073 275.76874 468.5401 276.675L468.5401 281.3L467.44635 281.3L467.44635 274.95624L468.4776 274.95624ZM483.80573 278.20624Q483.80573 279.64374 483.14948 280.53436Q482.49323 281.425 481.3526 281.425Q480.19635 281.425 479.5401 280.6906L479.5401 283.7375L478.46198 283.7375L478.46198 274.95624L479.44635 274.95624L479.49323 275.65936Q480.1651 274.84686 481.33698 274.84686Q482.4776 274.84686 483.13385 275.70624Q483.80573 276.5656 483.80573 278.09686L483.80573 278.20624ZM482.7276 278.08124Q482.7276 277.0031 482.25885 276.39374Q481.80573 275.76874 481.00885 275.76874Q480.02448 275.76874 479.5401 276.6281L479.5401 279.65936Q480.02448 280.53436 481.02448 280.53436Q481.80573 280.53436 482.25885 279.925Q482.7276 279.3 482.7276 278.08124ZM488.52448 275.925Q488.27448 275.89374 487.99323 275.89374Q486.9151 275.89374 486.5401 276.8L486.5401 281.3L485.46198 281.3L485.46198 274.95624L486.50885 274.95624L486.52448 275.6906Q487.05573 274.84686 488.0401 274.84686Q488.3526 274.84686 488.52448 274.925L488.52448 275.925ZM489.1651 278.0656Q489.1651 277.14374 489.52448 276.39374Q489.89948 275.64374 490.55573 275.2531Q491.21198 274.84686 492.0401 274.84686Q493.33698 274.84686 494.13385 275.7375Q494.94635 276.6281 494.94635 278.1281L494.94635 278.20624Q494.94635 279.1281 494.58698 279.8625Q494.2276 280.59686 493.57135 281.01874Q492.9151 281.425 492.05573 281.425Q490.77448 281.425 489.96198 280.53436Q489.1651 279.6281 489.1651 278.14374L489.1651 278.0656ZM490.25885 278.20624Q490.25885 279.2531 490.74323 279.89374Q491.24323 280.53436 492.05573 280.53436Q492.88385 280.53436 493.36823 279.89374Q493.8526 279.2375 493.8526 278.0656Q493.8526 277.03436 493.3526 276.39374Q492.86823 275.7375 492.0401 275.7375Q491.24323 275.7375 490.74323 276.3781Q490.25885 277.0031 490.25885 278.20624ZM498.5401 279.83124L500.11823 274.95624L501.2276 274.95624L498.94635 281.3L498.11823 281.3L495.82135 274.95624L496.93073 274.95624L498.5401 279.83124ZM505.08698 281.425Q503.7901 281.425 502.9776 280.58124Q502.18073 279.72186 502.18073 278.3L502.18073 278.1125Q502.18073 277.15936 502.5401 276.425Q502.89948 275.675 503.5401 275.26874Q504.19635 274.84686 504.94635 274.84686Q506.18073 274.84686 506.86823 275.65936Q507.55573 276.47186 507.55573 277.9875L507.55573 278.4406L503.25885 278.4406Q503.2901 279.3781 503.80573 279.95624Q504.33698 280.53436 505.14948 280.53436Q505.71198 280.53436 506.1026 280.3Q506.50885 280.0656 506.82135 279.675L507.4776 280.1906Q506.68073 281.425 505.08698 281.425ZM504.94635 275.7375Q504.2901 275.7375 503.83698 276.22186Q503.39948 276.6906 503.30573 277.55L506.4776 277.55L506.4776 277.47186Q506.43073 276.64374 506.02448 276.1906Q505.63385 275.7375 504.94635 275.7375ZM509.4776 274.95624L509.50885 275.65936Q510.19635 274.84686 511.38385 274.84686Q512.712 274.84686 513.19635 275.8625Q513.50885 275.40936 514.00885 275.1281Q514.5245 274.84686 515.212 274.84686Q517.3057 274.84686 517.337 277.05L517.337 281.3L516.25885 281.3L516.25885 277.1125Q516.25885 276.4406 515.94635 276.1125Q515.63385 275.76874 514.8995 275.76874Q514.2901 275.76874 513.88385 276.1281Q513.4932 276.4875 513.4307 277.09686L513.4307 281.3L512.3526 281.3L512.3526 277.14374Q512.3526 275.76874 510.99323 275.76874Q509.93073 275.76874 509.5401 276.675L509.5401 281.3L508.44635 281.3L508.44635 274.95624L509.4776 274.95624ZM522.087 281.425Q520.7901 281.425 519.9776 280.58124Q519.1807 279.72186 519.1807 278.3L519.1807 278.1125Q519.1807 277.15936 519.5401 276.425Q519.8995 275.675 520.5401 275.26874Q521.19635 274.84686 521.94635 274.84686Q523.1807 274.84686 523.8682 275.65936Q524.5557 276.47186 524.5557 277.9875L524.5557 278.4406L520.25885 278.4406Q520.2901 279.3781 520.8057 279.95624Q521.337 280.53436 522.1495 280.53436Q522.712 280.53436 523.1026 280.3Q523.50885 280.0656 523.82135 279.675L524.4776 280.1906Q523.6807 281.425 522.087 281.425ZM521.94635 275.7375Q521.2901 275.7375 520.837 276.22186Q520.3995 276.6906 520.3057 277.55L523.4776 277.55L523.4776 277.47186Q523.4307 276.64374 523.0245 276.1906Q522.63385 275.7375 521.94635 275.7375ZM526.4776 274.95624L526.50885 275.7531Q527.2432 274.84686 528.4151 274.84686Q530.4307 274.84686 530.44635 277.1125L530.44635 281.3L529.3526 281.3L529.3526 277.09686Q529.3526 276.425 529.0401 276.09686Q528.7432 275.76874 528.087 275.76874Q527.5557 275.76874 527.1495 276.05Q526.75885 276.33124 526.5401 276.78436L526.5401 281.3L525.462 281.3L525.462 274.95624L526.4776 274.95624ZM533.9307 273.425L533.9307 274.95624L535.1026 274.95624L535.1026 275.8L533.9307 275.8L533.9307 279.72186Q533.9307 280.1125 534.087 280.3Q534.2432 280.4875 534.6182 280.4875Q534.8057 280.4875 535.13385 280.425L535.13385 281.3Q534.712 281.425 534.3057 281.425Q533.587 281.425 533.212 280.9875Q532.837 280.53436 532.837 279.72186L532.837 275.8L531.6807 275.8L531.6807 274.95624L532.837 274.95624L532.837 273.425L533.9307 273.425Z" fill-rule="nonzero"/><path fill="#000000" d="M558.0929 266.3L556.9679 266.3L556.9679 257.76874L558.0929 257.76874L558.0929 266.3ZM562.4523 263.08124Q562.4523 261.6125 563.1398 260.7375Q563.8273 259.84686 564.9523 259.84686Q566.06165 259.84686 566.7179 260.59686L566.7179 257.3L567.796 257.3L567.796 266.3L566.796 266.3L566.74915 265.6125Q566.0929 266.425 564.93665 266.425Q563.8429 266.425 563.1398 265.51874Q562.4523 264.6125 562.4523 263.15936L562.4523 263.08124ZM563.5304 263.20624Q563.5304 264.28436 563.9679 264.89374Q564.421 265.5031 565.2023 265.5031Q566.2335 265.5031 566.7179 264.5656L566.7179 261.65936Q566.2335 260.76874 565.2179 260.76874Q564.421 260.76874 563.9679 261.3781Q563.5304 261.9875 563.5304 263.20624ZM569.421 263.0656Q569.421 262.14374 569.7804 261.39374Q570.1554 260.64374 570.81165 260.2531Q571.4679 259.84686 572.296 259.84686Q573.5929 259.84686 574.3898 260.7375Q575.2023 261.6281 575.2023 263.1281L575.2023 263.20624Q575.2023 264.1281 574.8429 264.8625Q574.4835 265.59686 573.8273 266.01874Q573.171 266.425 572.31165 266.425Q571.0304 266.425 570.2179 265.53436Q569.421 264.6281 569.421 263.14374L569.421 263.0656ZM570.5148 263.20624Q570.5148 264.2531 570.99915 264.89374Q571.49915 265.53436 572.31165 265.53436Q573.1398 265.53436 573.62415 264.89374Q574.1085 264.2375 574.1085 263.0656Q574.1085 262.03436 573.6085 261.39374Q573.12415 260.7375 572.296 260.7375Q571.49915 260.7375 570.99915 261.3781Q570.5148 262.0031 570.5148 263.20624ZM577.7335 259.95624L577.7648 260.7531Q578.49915 259.84686 579.671 259.84686Q581.68665 259.84686 581.7023 262.1125L581.7023 266.3L580.6085 266.3L580.6085 262.09686Q580.6085 261.425 580.296 261.09686Q579.99915 260.76874 579.3429 260.76874Q578.81165 260.76874 578.4054 261.05Q578.0148 261.33124 577.796 261.78436L577.796 266.3L576.7179 266.3L576.7179 259.95624L577.7335 259.95624ZM584.37415 257.95624L584.24915 260.1125L583.49915 260.1125L583.49915 257.3L584.37415 257.3L584.37415 257.95624ZM587.18665 258.425L587.18665 259.95624L588.3585 259.95624L588.3585 260.8L587.18665 260.8L587.18665 264.72186Q587.18665 265.1125 587.3429 265.3Q587.49915 265.4875 587.87415 265.4875Q588.06165 265.4875 588.3898 265.425L588.3898 266.3Q587.9679 266.425 587.56165 266.425Q586.8429 266.425 586.4679 265.9875Q586.0929 265.53436 586.0929 264.72186L586.0929 260.8L584.93665 260.8L584.93665 259.95624L586.0929 259.95624L586.0929 258.425L587.18665 258.425ZM594.4835 263.3625L593.796 264.0656L593.796 266.3L592.7179 266.3L592.7179 257.3L593.796 257.3L593.796 262.7375L594.37415 262.05L596.3585 259.95624L597.671 259.95624L595.2023 262.6125L597.9679 266.3L596.68665 266.3L594.4835 263.3625ZM599.7335 259.95624L599.7648 260.7531Q600.49915 259.84686 601.671 259.84686Q603.68665 259.84686 603.7023 262.1125L603.7023 266.3L602.6085 266.3L602.6085 262.09686Q602.6085 261.425 602.296 261.09686Q601.99915 260.76874 601.3429 260.76874Q600.81165 260.76874 600.4054 261.05Q600.0148 261.33124 599.796 261.78436L599.796 266.3L598.7179 266.3L598.7179 259.95624L599.7335 259.95624ZM605.421 263.0656Q605.421 262.14374 605.7804 261.39374Q606.1554 260.64374 606.81165 260.2531Q607.4679 259.84686 608.296 259.84686Q609.5929 259.84686 610.3898 260.7375Q611.2023 261.6281 611.2023 263.1281L611.2023 263.20624Q611.2023 264.1281 610.8429 264.8625Q610.4835 265.59686 609.8273 266.01874Q609.171 266.425 608.31165 266.425Q607.0304 266.425 606.2179 265.53436Q605.421 264.6281 605.421 263.14374L605.421 263.0656ZM606.5148 263.20624Q606.5148 264.2531 606.99915 264.89374Q607.49915 265.53436 608.31165 265.53436Q609.1398 265.53436 609.62415 264.89374Q610.1085 264.2375 610.1085 263.0656Q610.1085 262.03436 609.6085 261.39374Q609.12415 260.7375 608.296 260.7375Q607.49915 260.7375 606.99915 261.3781Q606.5148 262.0031 606.5148 263.20624ZM618.3273 264.8L619.546 259.95624L620.62415 259.95624L618.7804 266.3L617.9054 266.3L616.3585 261.4875L614.8585 266.3L613.9835 266.3L612.1398 259.95624L613.2179 259.95624L614.4679 264.70624L615.9523 259.95624L616.81165 259.95624L618.3273 264.8Z" fill-rule="nonzero"/><path fill="#757575" d="M29.278126 35.7L27.3875 35.7L27.3875 29.121876L20.23125 29.121876L20.23125 35.7L18.35625 35.7L18.35625 21.48125L20.23125 21.48125L20.23125 27.590626L27.3875 27.590626L27.3875 21.48125L29.278126 21.48125L29.278126 35.7ZM31.590626 30.325Q31.590626 28.7625 32.2 27.528126Q32.809376 26.278126 33.8875 25.60625Q34.98125 24.934376 36.3875 24.934376Q38.54375 24.934376 39.871876 26.434376Q41.215626 27.91875 41.215626 30.403126L41.215626 30.528126Q41.215626 32.075 40.621876 33.309376Q40.028126 34.528126 38.91875 35.215626Q37.825 35.903126 36.403126 35.903126Q34.2625 35.903126 32.91875 34.403126Q31.590626 32.903126 31.590626 30.45L31.590626 30.325ZM33.403126 30.528126Q33.403126 32.29375 34.215626 33.35625Q35.04375 34.41875 36.403126 34.41875Q37.778126 34.41875 38.590626 33.340626Q39.403126 32.2625 39.403126 30.325Q39.403126 28.575 38.575 27.496876Q37.746876 26.41875 36.3875 26.41875Q35.04375 26.41875 34.215626 27.48125Q33.403126 28.54375 33.403126 30.528126ZM52.41875 33.215626L54.45 25.1375L56.2625 25.1375L53.184376 35.7L51.715626 35.7L49.153126 27.684376L46.653126 35.7L45.184376 35.7L42.121876 25.1375L43.91875 25.1375L45.996876 33.04375L48.465626 25.1375L49.91875 25.1375L52.41875 33.215626ZM64.87187 26.41875Q66.075 24.934376 67.99687 24.934376Q71.35625 24.934376 71.37187 28.715626L71.37187 35.7L69.575 35.7L69.575 28.7Q69.55937 27.559376 69.04375 27.0125Q68.54375 26.465626 67.45 26.465626Q66.575 26.465626 65.90312 26.934376Q65.24687 27.403126 64.87187 28.16875L64.87187 35.7L63.075 35.7L63.075 20.7L64.87187 20.7L64.87187 26.41875ZM80.59062 35.7Q80.43437 35.3875 80.34062 34.590626Q79.075 35.903126 77.325 35.903126Q75.7625 35.903126 74.7625 35.0125Q73.7625 34.121876 73.7625 32.7625Q73.7625 31.121876 75.0125 30.215626Q76.27812 29.29375 78.54375 29.29375L80.30937 29.29375L80.30937 28.465626Q80.30937 27.5125 79.73125 26.95Q79.16875 26.3875 78.075 26.3875Q77.10625 26.3875 76.45 26.8875Q75.79375 27.371876 75.79375 28.059376L73.98125 28.059376Q73.98125 27.278126 74.54375 26.54375Q75.10625 25.79375 76.05937 25.371876Q77.02812 24.934376 78.18437 24.934376Q80.0125 24.934376 81.04375 25.85625Q82.075 26.7625 82.12187 28.371876L82.12187 33.23125Q82.12187 34.684376 82.48125 35.54375L82.48125 35.7L80.59062 35.7ZM77.59062 34.325Q78.45 34.325 79.2 33.8875Q79.96562 33.45 80.30937 32.746876L80.30937 30.575L78.8875 30.575Q75.575 30.575 75.575 32.5125Q75.575 33.371876 76.1375 33.85625Q76.7 34.325 77.59062 34.325ZM91.21562 32.903126Q91.21562 32.16875 90.66875 31.7625Q90.12187 31.35625 88.74687 31.059376Q87.37187 30.7625 86.55937 30.35625Q85.7625 29.95 85.37187 29.3875Q84.99687 28.809376 84.99687 28.028126Q84.99687 26.73125 86.09062 25.840626Q87.18437 24.934376 88.90312 24.934376Q90.7 24.934376 91.80937 25.871876Q92.93437 26.79375 92.93437 28.23125L91.10625 28.23125Q91.10625 27.496876 90.48125 26.965626Q89.85625 26.41875 88.90312 26.41875Q87.90312 26.41875 87.34062 26.85625Q86.79375 27.278126 86.79375 27.98125Q86.79375 28.621876 87.30937 28.965626Q87.825 29.29375 89.18437 29.60625Q90.54375 29.903126 91.37187 30.325Q92.21562 30.73125 92.62187 31.325Q93.02812 31.91875 93.02812 32.7625Q93.02812 34.184376 91.8875 35.04375Q90.7625 35.903126 88.95 35.903126Q87.68437 35.903126 86.7 35.45Q85.73125 34.996876 85.16875 34.2Q84.62187 33.3875 84.62187 32.45L86.43437 32.45Q86.48125 33.35625 87.15312 33.8875Q87.84062 34.41875 88.95 34.41875Q89.98125 34.41875 90.59062 34.0125Q91.21562 33.590626 91.21562 32.903126ZM101.40312 22.028126L101.10625 25.528126L100.02812 25.528126L100.04375 20.7L101.40312 20.7L101.40312 22.028126ZM104.04375 22.028126L103.74687 25.528126L102.66875 25.528126L102.66875 20.7L104.04375 20.7L104.04375 22.028126ZM116.85625 33.840626Q116.12187 34.871876 114.825 35.3875Q113.54375 35.903126 111.825 35.903126Q110.075 35.903126 108.73125 35.090626Q107.3875 34.2625 106.65312 32.7625Q105.91875 31.2625 105.8875 29.278126L105.8875 28.028126Q105.8875 24.825 107.3875 23.059376Q108.8875 21.278126 111.60625 21.278126Q113.825 21.278126 115.18437 22.41875Q116.54375 23.559376 116.85625 25.653126L114.98125 25.653126Q114.45 22.825 111.62187 22.825Q109.73125 22.825 108.7625 24.153126Q107.79375 25.48125 107.77812 27.98125L107.77812 29.153126Q107.77812 31.54375 108.87187 32.95Q109.96562 34.35625 111.825 34.35625Q112.8875 34.35625 113.66875 34.121876Q114.46562 33.8875 114.98125 33.340626L114.98125 30.1375L111.7 30.1375L111.7 28.621876L116.85625 28.621876L116.85625 33.840626ZM130.35625 21.48125L130.35625 31.153126Q130.35625 33.153126 129.09062 34.434376Q127.84062 35.715626 125.7 35.871876L125.2 35.903126Q122.85625 35.903126 121.46562 34.6375Q120.09062 33.371876 120.075 31.16875L120.075 21.48125L121.91875 21.48125L121.91875 31.10625Q121.91875 32.653126 122.7625 33.5125Q123.62187 34.35625 125.2 34.35625Q126.79375 34.35625 127.6375 33.5125Q128.48125 32.66875 128.48125 31.121876L128.48125 21.48125L130.35625 21.48125ZM135.35625 35.7L133.48125 35.7L133.48125 21.48125L135.35625 21.48125L135.35625 35.7ZM143.35625 35.7L143.35625 21.48125L147.37187 21.48125Q149.21562 21.48125 150.6375 22.309376Q152.075 23.121876 152.84062 24.6375Q153.62187 26.153126 153.6375 28.10625L153.6375 29.0125Q153.6375 31.028126 152.85625 32.54375Q152.075 34.059376 150.6375 34.871876Q149.2 35.684376 147.29375 35.7L143.35625 35.7ZM145.23125 23.028126L145.23125 34.16875L147.2 34.16875Q149.37187 34.16875 150.575 32.825Q151.77812 31.465626 151.77812 28.98125L151.77812 28.153126Q151.77812 25.73125 150.6375 24.3875Q149.49687 23.04375 147.41875 23.028126L145.23125 23.028126ZM160.45 35.903126Q158.30937 35.903126 156.95 34.496876Q155.60625 33.075 155.60625 30.715626L155.60625 30.371876Q155.60625 28.809376 156.2 27.575Q156.80937 26.340626 157.8875 25.6375Q158.96562 24.934376 160.23125 24.934376Q162.29375 24.934376 163.43437 26.29375Q164.575 27.653126 164.575 30.184376L164.575 30.934376L157.41875 30.934376Q157.45 32.496876 158.325 33.465626Q159.2 34.41875 160.54375 34.41875Q161.5125 34.41875 162.16875 34.028126Q162.84062 33.6375 163.34062 32.996876L164.43437 33.85625Q163.10625 35.903126 160.45 35.903126ZM160.23125 26.41875Q159.1375 26.41875 158.3875 27.215626Q157.65312 28.0125 157.48125 29.45L162.7625 29.45L162.7625 29.309376Q162.68437 27.934376 162.0125 27.184376Q161.35625 26.41875 160.23125 26.41875ZM170.55937 33.246876L173.16875 25.1375L175.0125 25.1375L171.23125 35.7L169.85625 35.7L166.02812 25.1375L167.87187 25.1375L170.55937 33.246876ZM181.45 35.903126Q179.30937 35.903126 177.95 34.496876Q176.60625 33.075 176.60625 30.715626L176.60625 30.371876Q176.60625 28.809376 177.2 27.575Q177.80937 26.340626 178.8875 25.6375Q179.96562 24.934376 181.23125 24.934376Q183.29375 24.934376 184.43437 26.29375Q185.575 27.653126 185.575 30.184376L185.575 30.934376L178.41875 30.934376Q178.45 32.496876 179.325 33.465626Q180.2 34.41875 181.54375 34.41875Q182.5125 34.41875 183.16875 34.028126Q183.84062 33.6375 184.34062 32.996876L185.43437 33.85625Q184.10625 35.903126 181.45 35.903126ZM181.23125 26.41875Q180.1375 26.41875 179.3875 27.215626Q178.65312 28.0125 178.48125 29.45L183.7625 29.45L183.7625 29.309376Q183.68437 27.934376 183.0125 27.184376Q182.35625 26.41875 181.23125 26.41875ZM190.02812 35.7L188.23125 35.7L188.23125 20.7L190.02812 20.7L190.02812 35.7ZM192.59062 30.325Q192.59062 28.7625 193.2 27.528126Q193.80937 26.278126 194.8875 25.60625Q195.98125 24.934376 197.3875 24.934376Q199.54375 24.934376 200.87187 26.434376Q202.21562 27.91875 202.21562 30.403126L202.21562 30.528126Q202.21562 32.075 201.62187 33.309376Q201.02812 34.528126 199.91875 35.215626Q198.825 35.903126 197.40312 35.903126Q195.2625 35.903126 193.91875 34.403126Q192.59062 32.903126 192.59062 30.45L192.59062 30.325ZM194.40312 30.528126Q194.40312 32.29375 195.21562 33.35625Q196.04375 34.41875 197.40312 34.41875Q198.77812 34.41875 199.59062 33.340626Q200.40312 32.2625 200.40312 30.325Q200.40312 28.575 199.575 27.496876Q198.74687 26.41875 197.3875 26.41875Q196.04375 26.41875 195.21562 27.48125Q194.40312 28.54375 194.40312 30.528126ZM212.99687 30.528126Q212.99687 32.95 211.8875 34.434376Q210.79375 35.903126 208.90312 35.903126Q206.98125 35.903126 205.87187 34.66875L205.87187 39.7625L204.075 39.7625L204.075 25.1375L205.71562 25.1375L205.80937 26.309376Q206.90312 24.934376 208.87187 24.934376Q210.77812 24.934376 211.8875 26.371876Q212.99687 27.809376 212.99687 30.371876L212.99687 30.528126ZM211.18437 30.325Q211.18437 28.54375 210.41875 27.5125Q209.66875 26.465626 208.34062 26.465626Q206.7 26.465626 205.87187 27.91875L205.87187 32.98125Q206.68437 34.41875 208.35625 34.41875Q209.65312 34.41875 210.41875 33.3875Q211.18437 32.35625 211.18437 30.325ZM216.7625 25.1375L216.80937 26.309376Q217.98125 24.934376 219.95 24.934376Q222.16875 24.934376 222.96562 26.6375Q223.49687 25.871876 224.34062 25.403126Q225.18437 24.934376 226.34062 24.934376Q229.80937 24.934376 229.87187 28.621876L229.87187 35.7L228.05937 35.7L228.05937 28.73125Q228.05937 27.590626 227.54375 27.028126Q227.02812 26.465626 225.80937 26.465626Q224.80937 26.465626 224.1375 27.075Q223.48125 27.66875 223.37187 28.684376L223.37187 35.7L221.55937 35.7L221.55937 28.778126Q221.55937 26.465626 219.29375 26.465626Q217.5125 26.465626 216.87187 27.98125L216.87187 35.7L215.05937 35.7L215.05937 25.1375L216.7625 25.1375ZM237.45 35.903126Q235.30937 35.903126 233.95 34.496876Q232.60625 33.075 232.60625 30.715626L232.60625 30.371876Q232.60625 28.809376 233.2 27.575Q233.80937 26.340626 234.8875 25.6375Q235.96562 24.934376 237.23125 24.934376Q239.29375 24.934376 240.43437 26.29375Q241.575 27.653126 241.575 30.184376L241.575 30.934376L234.41875 30.934376Q234.45 32.496876 235.325 33.465626Q236.2 34.41875 237.54375 34.41875Q238.5125 34.41875 239.16875 34.028126Q239.84062 33.6375 240.34062 32.996876L241.43437 33.85625Q240.10625 35.903126 237.45 35.903126ZM237.23125 26.41875Q236.1375 26.41875 235.3875 27.215626Q234.65312 28.0125 234.48125 29.45L239.7625 29.45L239.7625 29.309376Q239.68437 27.934376 239.0125 27.184376Q238.35625 26.41875 237.23125 26.41875ZM245.77812 25.1375L245.84062 26.465626Q247.04375 24.934376 248.99687 24.934376Q252.35625 24.934376 252.37187 28.715626L252.37187 35.7L250.575 35.7L250.575 28.7Q250.55937 27.559376 250.04375 27.0125Q249.54375 26.465626 248.45 26.465626Q247.575 26.465626 246.90312 26.934376Q246.24687 27.403126 245.87187 28.16875L245.87187 35.7L244.075 35.7L244.075 25.1375L245.77812 25.1375ZM257.5125 22.575L257.5125 25.1375L259.4969 25.1375L259.4969 26.528126L257.5125 26.528126L257.5125 33.075Q257.5125 33.715626 257.77814 34.04375Q258.04376 34.35625 258.6844 34.35625Q258.9969 34.35625 259.54376 34.23125L259.54376 35.7Q258.825 35.903126 258.15314 35.903126Q256.95 35.903126 256.325 35.16875Q255.71562 34.434376 255.71562 33.075L255.71562 26.528126L253.79375 26.528126L253.79375 25.1375L255.71562 25.1375L255.71562 22.575L257.5125 22.575ZM263.40314 22.028126L263.10626 25.528126L262.02814 25.528126L262.04376 20.7L263.40314 20.7L263.40314 22.028126ZM266.04376 22.028126L265.7469 25.528126L264.66876 25.528126L264.66876 20.7L266.04376 20.7L266.04376 22.028126ZM275.02814 35.7L273.23126 35.7L273.23126 25.1375L275.02814 25.1375L275.02814 35.7ZM273.075 22.325Q273.075 21.8875 273.34064 21.590626Q273.6219 21.278126 274.1375 21.278126Q274.66876 21.278126 274.9344 21.590626Q275.21564 21.8875 275.21564 22.325Q275.21564 22.7625 274.9344 23.059376Q274.66876 23.35625 274.1375 23.35625Q273.6219 23.35625 273.34064 23.059376Q273.075 22.7625 273.075 22.325ZM279.7625 25.1375L279.8094 26.309376Q280.98126 24.934376 282.95 24.934376Q285.16876 24.934376 285.96564 26.6375Q286.4969 25.871876 287.34064 25.403126Q288.1844 24.934376 289.34064 24.934376Q292.8094 24.934376 292.8719 28.621876L292.8719 35.7L291.0594 35.7L291.0594 28.73125Q291.0594 27.590626 290.54376 27.028126Q290.02814 26.465626 288.8094 26.465626Q287.8094 26.465626 287.1375 27.075Q286.48126 27.66875 286.3719 28.684376L286.3719 35.7L284.5594 35.7L284.5594 28.778126Q284.5594 26.465626 282.29376 26.465626Q280.5125 26.465626 279.8719 27.98125L279.8719 35.7L278.0594 35.7L278.0594 25.1375L279.7625 25.1375ZM304.9969 30.528126Q304.9969 32.95 303.8875 34.434376Q302.79376 35.903126 300.90314 35.903126Q298.98126 35.903126 297.8719 34.66875L297.8719 39.7625L296.075 39.7625L296.075 25.1375L297.71564 25.1375L297.8094 26.309376Q298.90314 24.934376 300.8719 24.934376Q302.77814 24.934376 303.8875 26.371876Q304.9969 27.809376 304.9969 30.371876L304.9969 30.528126ZM303.1844 30.325Q303.1844 28.54375 302.41876 27.5125Q301.66876 26.465626 300.34064 26.465626Q298.7 26.465626 297.8719 27.91875L297.8719 32.98125Q298.6844 34.41875 300.35626 34.41875Q301.65314 34.41875 302.41876 33.3875Q303.1844 32.35625 303.1844 30.325ZM312.16876 26.746876Q311.7625 26.684376 311.29376 26.684376Q309.5125 26.684376 308.8719 28.2L308.8719 35.7L307.075 35.7L307.075 25.1375L308.825 25.1375L308.85626 26.35625Q309.7469 24.934376 311.3719 24.934376Q311.90314 24.934376 312.16876 25.075L312.16876 26.746876ZM313.59064 30.325Q313.59064 28.7625 314.2 27.528126Q314.8094 26.278126 315.8875 25.60625Q316.98126 24.934376 318.3875 24.934376Q320.54376 24.934376 321.8719 26.434376Q323.21564 27.91875 323.21564 30.403126L323.21564 30.528126Q323.21564 32.075 322.6219 33.309376Q322.02814 34.528126 320.91876 35.215626Q319.825 35.903126 318.40314 35.903126Q316.2625 35.903126 314.91876 34.403126Q313.59064 32.903126 313.59064 30.45L313.59064 30.325ZM315.40314 30.528126Q315.40314 32.29375 316.21564 33.35625Q317.04376 34.41875 318.40314 34.41875Q319.77814 34.41875 320.59064 33.340626Q321.40314 32.2625 321.40314 30.325Q321.40314 28.575 320.575 27.496876Q319.7469 26.41875 318.3875 26.41875Q317.04376 26.41875 316.21564 27.48125Q315.40314 28.54375 315.40314 30.528126ZM328.5594 33.246876L331.16876 25.1375L333.0125 25.1375L329.23126 35.7L327.85626 35.7L324.02814 25.1375L325.8719 25.1375L328.5594 33.246876ZM339.45 35.903126Q337.3094 35.903126 335.95 34.496876Q334.60626 33.075 334.60626 30.715626L334.60626 30.371876Q334.60626 28.809376 335.2 27.575Q335.8094 26.340626 336.8875 25.6375Q337.96564 24.934376 339.23126 24.934376Q341.29376 24.934376 342.4344 26.29375Q343.575 27.653126 343.575 30.184376L343.575 30.934376L336.41876 30.934376Q336.45 32.496876 337.325 33.465626Q338.2 34.41875 339.54376 34.41875Q340.5125 34.41875 341.16876 34.028126Q341.84064 33.6375 342.34064 32.996876L343.4344 33.85625Q342.10626 35.903126 339.45 35.903126ZM339.23126 26.41875Q338.1375 26.41875 337.3875 27.215626Q336.65314 28.0125 336.48126 29.45L341.7625 29.45L341.7625 29.309376Q341.6844 27.934376 341.0125 27.184376Q340.35626 26.41875 339.23126 26.41875ZM345.6219 30.325Q345.6219 27.903126 346.77814 26.41875Q347.9344 24.934376 349.79376 24.934376Q351.65314 24.934376 352.73126 26.2L352.73126 20.7L354.54376 20.7L354.54376 35.7L352.8875 35.7L352.79376 34.559376Q351.71564 35.903126 349.77814 35.903126Q347.95 35.903126 346.77814 34.403126Q345.6219 32.8875 345.6219 30.465626L345.6219 30.325ZM347.4344 30.528126Q347.4344 32.325 348.16876 33.340626Q348.91876 34.35625 350.23126 34.35625Q351.95 34.35625 352.73126 32.825L352.73126 27.965626Q351.9344 26.465626 350.2469 26.465626Q348.91876 26.465626 348.16876 27.496876Q347.4344 28.528126 347.4344 30.528126ZM364.02814 35.7L362.23126 35.7L362.23126 25.1375L364.02814 25.1375L364.02814 35.7ZM362.075 22.325Q362.075 21.8875 362.34064 21.590626Q362.6219 21.278126 363.1375 21.278126Q363.66876 21.278126 363.9344 21.590626Q364.21564 21.8875 364.21564 22.325Q364.21564 22.7625 363.9344 23.059376Q363.66876 23.35625 363.1375 23.35625Q362.6219 23.35625 362.34064 23.059376Q362.075 22.7625 362.075 22.325ZM368.77814 25.1375L368.84064 26.465626Q370.04376 24.934376 371.9969 24.934376Q375.35626 24.934376 375.3719 28.715626L375.3719 35.7L373.575 35.7L373.575 28.7Q373.5594 27.559376 373.04376 27.0125Q372.54376 26.465626 371.45 26.465626Q370.575 26.465626 369.90314 26.934376Q369.2469 27.403126 368.8719 28.16875L368.8719 35.7L367.075 35.7L367.075 25.1375L368.77814 25.1375ZM385.5125 22.575L385.5125 25.1375L387.4969 25.1375L387.4969 26.528126L385.5125 26.528126L385.5125 33.075Q385.5125 33.715626 385.77814 34.04375Q386.04376 34.35625 386.6844 34.35625Q386.9969 34.35625 387.54376 34.23125L387.54376 35.7Q386.825 35.903126 386.15314 35.903126Q384.95 35.903126 384.325 35.16875Q383.71564 34.434376 383.71564 33.075L383.71564 26.528126L381.79376 26.528126L381.79376 25.1375L383.71564 25.1375L383.71564 22.575L385.5125 22.575ZM391.8719 26.41875Q393.075 24.934376 394.9969 24.934376Q398.35626 24.934376 398.3719 28.715626L398.3719 35.7L396.575 35.7L396.575 28.7Q396.5594 27.559376 396.04376 27.0125Q395.54376 26.465626 394.45 26.465626Q393.575 26.465626 392.90314 26.934376Q392.2469 27.403126 391.8719 28.16875L391.8719 35.7L390.075 35.7L390.075 20.7L391.8719 20.7L391.8719 26.41875ZM405.45 35.903126Q403.3094 35.903126 401.95 34.496876Q400.60626 33.075 400.60626 30.715626L400.60626 30.371876Q400.60626 28.809376 401.2 27.575Q401.8094 26.340626 402.8875 25.6375Q403.96564 24.934376 405.23126 24.934376Q407.29376 24.934376 408.4344 26.29375Q409.575 27.653126 409.575 30.184376L409.575 30.934376L402.41876 30.934376Q402.45 32.496876 403.325 33.465626Q404.2 34.41875 405.54376 34.41875Q406.5125 34.41875 407.16876 34.028126Q407.84064 33.6375 408.34064 32.996876L409.4344 33.85625Q408.10626 35.903126 405.45 35.903126ZM405.23126 26.41875Q404.1375 26.41875 403.3875 27.215626Q402.65314 28.0125 402.48126 29.45L407.7625 29.45L407.7625 29.309376Q407.6844 27.934376 407.0125 27.184376Q406.35626 26.41875 405.23126 26.41875ZM419.02814 35.7L417.23126 35.7L417.23126 20.7L419.02814 20.7L419.02814 35.7ZM428.59064 35.7Q428.4344 35.3875 428.34064 34.590626Q427.075 35.903126 425.325 35.903126Q423.7625 35.903126 422.7625 35.0125Q421.7625 34.121876 421.7625 32.7625Q421.7625 31.121876 423.0125 30.215626Q424.27814 29.29375 426.54376 29.29375L428.3094 29.29375L428.3094 28.465626Q428.3094 27.5125 427.73126 26.95Q427.16876 26.3875 426.075 26.3875Q425.10626 26.3875 424.45 26.8875Q423.79376 27.371876 423.79376 28.059376L421.98126 28.059376Q421.98126 27.278126 422.54376 26.54375Q423.10626 25.79375 424.0594 25.371876Q425.02814 24.934376 426.1844 24.934376Q428.0125 24.934376 429.04376 25.85625Q430.075 26.7625 430.1219 28.371876L430.1219 33.23125Q430.1219 34.684376 430.48126 35.54375L430.48126 35.7L428.59064 35.7ZM425.59064 34.325Q426.45 34.325 427.2 33.8875Q427.96564 33.45 428.3094 32.746876L428.3094 30.575L426.8875 30.575Q423.575 30.575 423.575 32.5125Q423.575 33.371876 424.1375 33.85625Q424.7 34.325 425.59064 34.325ZM439.21564 32.903126Q439.21564 32.16875 438.66876 31.7625Q438.1219 31.35625 436.7469 31.059376Q435.3719 30.7625 434.5594 30.35625Q433.7625 29.95 433.3719 29.3875Q432.9969 28.809376 432.9969 28.028126Q432.9969 26.73125 434.09064 25.840626Q435.1844 24.934376 436.90314 24.934376Q438.7 24.934376 439.8094 25.871876Q440.9344 26.79375 440.9344 28.23125L439.10626 28.23125Q439.10626 27.496876 438.48126 26.965626Q437.85626 26.41875 436.90314 26.41875Q435.90314 26.41875 435.34064 26.85625Q434.79376 27.278126 434.79376 27.98125Q434.79376 28.621876 435.3094 28.965626Q435.825 29.29375 437.1844 29.60625Q438.54376 29.903126 439.3719 30.325Q440.21564 30.73125 440.6219 31.325Q441.02814 31.91875 441.02814 32.7625Q441.02814 34.184376 439.8875 35.04375Q438.7625 35.903126 436.95 35.903126Q435.6844 35.903126 434.7 35.45Q433.73126 34.996876 433.16876 34.2Q432.6219 33.3875 432.6219 32.45L434.4344 32.45Q434.48126 33.35625 435.15314 33.8875Q435.84064 34.41875 436.95 34.41875Q437.98126 34.41875 438.59064 34.0125Q439.21564 33.590626 439.21564 32.903126ZM445.5125 22.575L445.5125 25.1375L447.4969 25.1375L447.4969 26.528126L445.5125 26.528126L445.5125 33.075Q445.5125 33.715626 445.77814 34.04375Q446.04376 34.35625 446.6844 34.35625Q446.9969 34.35625 447.54376 34.23125L447.54376 35.7Q446.825 35.903126 446.15314 35.903126Q444.95 35.903126 444.325 35.16875Q443.71564 34.434376 443.71564 33.075L443.71564 26.528126L441.79376 26.528126L441.79376 25.1375L443.71564 25.1375L443.71564 22.575L445.5125 22.575ZM458.52814 33.059376L460.98126 25.1375L462.91876 25.1375L458.66876 37.325Q457.6844 39.965626 455.54376 39.965626L455.2 39.934376L454.52814 39.809376L454.52814 38.340626L455.0125 38.3875Q455.9344 38.3875 456.4344 38.0125Q456.95 37.6375 457.27814 36.653126L457.6844 35.575L453.91876 25.1375L455.8875 25.1375L458.52814 33.059376ZM468.45 35.903126Q466.3094 35.903126 464.95 34.496876Q463.60626 33.075 463.60626 30.715626L463.60626 30.371876Q463.60626 28.809376 464.2 27.575Q464.8094 26.340626 465.8875 25.6375Q466.96564 24.934376 468.23126 24.934376Q470.29376 24.934376 471.4344 26.29375Q472.575 27.653126 472.575 30.184376L472.575 30.934376L465.41876 30.934376Q465.45 32.496876 466.325 33.465626Q467.2 34.41875 468.54376 34.41875Q469.5125 34.41875 470.16876 34.028126Q470.84064 33.6375 471.34064 32.996876L472.4344 33.85625Q471.10626 35.903126 468.45 35.903126ZM468.23126 26.41875Q467.1375 26.41875 466.3875 27.215626Q465.65314 28.0125 465.48126 29.45L470.7625 29.45L470.7625 29.309376Q470.6844 27.934376 470.0125 27.184376Q469.35626 26.41875 468.23126 26.41875ZM481.59064 35.7Q481.4344 35.3875 481.34064 34.590626Q480.075 35.903126 478.325 35.903126Q476.7625 35.903126 475.7625 35.0125Q474.7625 34.121876 474.7625 32.7625Q474.7625 31.121876 476.0125 30.215626Q477.27814 29.29375 479.54376 29.29375L481.3094 29.29375L481.3094 28.465626Q481.3094 27.5125 480.73126 26.95Q480.16876 26.3875 479.075 26.3875Q478.10626 26.3875 477.45 26.8875Q476.79376 27.371876 476.79376 28.059376L474.98126 28.059376Q474.98126 27.278126 475.54376 26.54375Q476.10626 25.79375 477.0594 25.371876Q478.02814 24.934376 479.1844 24.934376Q481.0125 24.934376 482.04376 25.85625Q483.075 26.7625 483.1219 28.371876L483.1219 33.23125Q483.1219 34.684376 483.48126 35.54375L483.48126 35.7L481.59064 35.7ZM478.59064 34.325Q479.45 34.325 480.2 33.8875Q480.96564 33.45 481.3094 32.746876L481.3094 30.575L479.8875 30.575Q476.575 30.575 476.575 32.5125Q476.575 33.371876 477.1375 33.85625Q477.7 34.325 478.59064 34.325ZM491.16876 26.746876Q490.7625 26.684376 490.29376 26.684376Q488.5125 26.684376 487.8719 28.2L487.8719 35.7L486.075 35.7L486.075 25.1375L487.825 25.1375L487.85626 26.35625Q488.7469 24.934376 490.3719 24.934376Q490.90314 24.934376 491.16876 25.075L491.16876 26.746876ZM495.1844 31.7Q495.2 30.528126 495.45 29.85625Q495.7 29.184376 496.45 28.371876L497.73126 27.04375Q498.54376 26.121876 498.54376 25.059376Q498.54376 24.028126 497.9969 23.45Q497.46564 22.871876 496.45 22.871876Q495.45 22.871876 494.84064 23.403126Q494.2469 23.91875 494.2469 24.809376L492.4344 24.809376Q492.45 23.23125 493.5594 22.2625Q494.66876 21.278126 496.45 21.278126Q498.29376 21.278126 499.325 22.278126Q500.35626 23.2625 500.35626 24.996876Q500.35626 26.7 498.77814 28.371876L497.7 29.41875Q496.9969 30.215626 496.9969 31.7L495.1844 31.7ZM495.10626 34.79375Q495.10626 34.35625 495.3719 34.059376Q495.65314 33.7625 496.16876 33.7625Q496.7 33.7625 496.96564 34.059376Q497.2469 34.35625 497.2469 34.79375Q497.2469 35.23125 496.96564 35.528126Q496.7 35.809376 496.16876 35.809376Q495.65314 35.809376 495.3719 35.528126Q495.10626 35.23125 495.10626 34.79375Z" fill-rule="nonzero"/></svg>