<svg version="1.1" viewBox="0.0 0.0 702.0 371.0" fill="none" stroke="none" stroke-linecap="square" stroke-miterlimit="10" width="702" height="371" xmlns:xlink="http://www.w3.org/1999/xlink" xmlns="http://www.w3.org/2000/svg"><path fill="#ffffff" d="M0 0L702.0 0L702.0 371.0L0 371.0L0 0Z" fill-rule="nonzero"/><path stroke="#333333" stroke-width="1.0" stroke-linecap="butt" d="M85.5 283.5L683.5 283.5" fill-rule="nonzero"/><path stroke="#cccccc" stroke-width="1.0" stroke-linecap="butt" d="M85.5 239.5L683.5 239.5" fill-rule="nonzero"/><path stroke="#cccccc" stroke-width="1.0" stroke-linecap="butt" d="M85.5 195.5L683.5 195.5" fill-rule="nonzero"/><path stroke="#cccccc" stroke-width="1.0" stroke-linecap="butt" d="M85.5 150.5L683.5 150.5" fill-rule="nonzero"/><path stroke="#cccccc" stroke-width="1.0" stroke-linecap="butt" d="M85.5 106.5L683.5 106.5" fill-rule="nonzero"/><path stroke="#cccccc" stroke-width="1.0" stroke-linecap="butt" d="M85.5 62.5L683.5 62.5" fill-rule="nonzero"/><clipPath id="id_0"><path d="M85.55 62.416668L683.45 62.416668L683.45 283.45L85.55 283.45L85.55 62.416668Z" clip-rule="nonzero"/></clipPath><path stroke="#000000" stroke-width="0.0" stroke-linecap="butt" stroke-opacity="0.0" clip-path="url(#id_0)" d="M198.0 283.0L125.0 283.0L125.0 162.0C125.0 160.89543 125.89543 160.0 127.0 160.0L196.0 160.0C197.10457 160.0 198.0 160.89543 198.0 162.0Z" fill-rule="nonzero"/><path fill="#4472c4" clip-path="url(#id_0)" d="M198.0 283.0L125.0 283.0L125.0 162.0C125.0 160.89543 125.89543 160.0 127.0 160.0L196.0 160.0C197.10457 160.0 198.0 160.89543 198.0 162.0Z" fill-rule="nonzero"/><path stroke="#000000" stroke-width="0.0" stroke-linecap="butt" stroke-opacity="0.0" clip-path="url(#id_0)" d="M310.0 283.0L237.0 283.0L237.0 258.0C237.0 256.89542 237.89543 256.0 239.0 256.0L308.0 256.0C309.10458 256.0 310.0 256.89542 310.0 258.0Z" fill-rule="nonzero"/><path fill="#4472c4" clip-path="url(#id_0)" d="M310.0 283.0L237.0 283.0L237.0 258.0C237.0 256.89542 237.89543 256.0 239.0 256.0L308.0 256.0C309.10458 256.0 310.0 256.89542 310.0 258.0Z" fill-rule="nonzero"/><path stroke="#000000" stroke-width="0.0" stroke-linecap="butt" stroke-opacity="0.0" clip-path="url(#id_0)" d="M422.0 283.0L349.0 283.0L349.0 93.0C349.0 91.89543 349.89542 91.0 351.0 91.0L420.0 91.0C421.10458 91.0 422.0 91.89543 422.0 93.0Z" fill-rule="nonzero"/><path fill="#4472c4" clip-path="url(#id_0)" d="M422.0 283.0L349.0 283.0L349.0 93.0C349.0 91.89543 349.89542 91.0 351.0 91.0L420.0 91.0C421.10458 91.0 422.0 91.89543 422.0 93.0Z" fill-rule="nonzero"/><path stroke="#000000" stroke-width="0.0" stroke-linecap="butt" stroke-opacity="0.0" clip-path="url(#id_0)" d="M533.0 283.0L460.0 283.0L460.0 77.0C460.0 75.89543 460.89542 75.0 462.0 75.0L531.0 75.0C532.10455 75.0 533.0 75.89543 533.0 77.0Z" fill-rule="nonzero"/><path fill="#4472c4" clip-path="url(#id_0)" d="M533.0 283.0L460.0 283.0L460.0 77.0C460.0 75.89543 460.89542 75.0 462.0 75.0L531.0 75.0C532.10455 75.0 533.0 75.89543 533.0 77.0Z" fill-rule="nonzero"/><path stroke="#000000" stroke-width="0.0" stroke-linecap="butt" stroke-opacity="0.0" clip-path="url(#id_0)" d="M645.0 283.0L572.0 283.0L572.0 254.0C572.0 252.89543 572.89545 252.0 574.0 252.0L643.0 252.0C644.10455 252.0 645.0 252.89543 645.0 254.0Z" fill-rule="nonzero"/><path fill="#4472c4" clip-path="url(#id_0)" d="M645.0 283.0L572.0 283.0L572.0 254.0C572.0 252.89543 572.89545 252.0 574.0 252.0L643.0 252.0C644.10455 252.0 645.0 252.89543 645.0 254.0Z" fill-rule="nonzero"/><path fill="#000000" d="M343.98438 349.45L343.98438 340.91876L346.40625 340.91876Q347.51562 340.91876 348.35938 341.41876Q349.21875 341.90314 349.6875 342.8094Q350.15625 343.71564 350.15625 344.90314L350.15625 345.4344Q350.15625 346.65314 349.6875 347.5594Q349.23438 348.46564 348.35938 348.95Q347.5 349.4344 346.35938 349.45L343.98438 349.45ZM345.10938 341.84064L345.10938 348.52814L346.29688 348.52814Q347.59375 348.52814 348.3125 347.73126Q349.04688 346.91876 349.04688 345.41876L349.04688 344.91876Q349.04688 343.46564 348.35938 342.66876Q347.6875 341.85626 346.42188 341.84064L345.10938 341.84064ZM355.73438 348.825Q355.10938 349.575 353.875 349.575Q352.85938 349.575 352.32812 348.98126Q351.79688 348.3875 351.79688 347.23126L351.79688 343.10626L352.875 343.10626L352.875 347.2Q352.875 348.65314 354.04688 348.65314Q355.29688 348.65314 355.70312 347.71564L355.70312 343.10626L356.79688 343.10626L356.79688 349.45L355.76562 349.45L355.73438 348.825ZM361.89062 344.075Q361.64062 344.04376 361.35938 344.04376Q360.28125 344.04376 359.90625 344.95L359.90625 349.45L358.82812 349.45L358.82812 343.10626L359.875 343.10626L359.89062 343.84064Q360.42188 342.9969 361.40625 342.9969Q361.71875 342.9969 361.89062 343.075L361.89062 344.075ZM366.73438 349.45Q366.64062 349.2625 366.57812 348.77814Q365.82812 349.575 364.78125 349.575Q363.84375 349.575 363.23438 349.04376Q362.64062 348.5125 362.64062 347.6844Q362.64062 346.7 363.39062 346.15314Q364.14062 345.60626 365.51562 345.60626L366.5625 345.60626L366.5625 345.10626Q366.5625 344.54376 366.21875 344.21564Q365.89062 343.8719 365.21875 343.8719Q364.64062 343.8719 364.25 344.16876Q363.85938 344.45 363.85938 344.8719L362.76562 344.8719Q362.76562 344.3875 363.09375 343.95Q363.4375 343.5125 364.01562 343.2625Q364.59375 342.9969 365.28125 342.9969Q366.39062 342.9969 367.0 343.54376Q367.625 344.09064 367.65625 345.04376L367.65625 347.96564Q367.65625 348.84064 367.875 349.35626L367.875 349.45L366.73438 349.45ZM364.9375 348.6219Q365.45312 348.6219 365.90625 348.35626Q366.35938 348.09064 366.5625 347.66876L366.5625 346.3719L365.71875 346.3719Q363.71875 346.3719 363.71875 347.54376Q363.71875 348.04376 364.0625 348.34064Q364.40625 348.6219 364.9375 348.6219ZM371.29688 341.575L371.29688 343.10626L372.46875 343.10626L372.46875 343.95L371.29688 343.95L371.29688 347.8719Q371.29688 348.2625 371.45312 348.45Q371.60938 348.6375 371.98438 348.6375Q372.17188 348.6375 372.5 348.575L372.5 349.45Q372.07812 349.575 371.67188 349.575Q370.95312 349.575 370.57812 349.1375Q370.20312 348.6844 370.20312 347.8719L370.20312 343.95L369.04688 343.95L369.04688 343.10626L370.20312 343.10626L370.20312 341.575L371.29688 341.575ZM375.0 349.45L373.92188 349.45L373.92188 343.10626L375.0 343.10626L375.0 349.45ZM373.82812 341.4344Q373.82812 341.16876 373.98438 340.98126Q374.15625 340.79376 374.46875 340.79376Q374.78125 340.79376 374.9375 340.98126Q375.10938 341.16876 375.10938 341.4344Q375.10938 341.6844 374.9375 341.8719Q374.78125 342.04376 374.46875 342.04376Q374.15625 342.04376 373.98438 341.8719Q373.82812 341.6844 373.82812 341.4344ZM376.53125 346.21564Q376.53125 345.29376 376.89062 344.54376Q377.26562 343.79376 377.92188 343.40314Q378.57812 342.9969 379.40625 342.9969Q380.70312 342.9969 381.5 343.8875Q382.3125 344.77814 382.3125 346.27814L382.3125 346.35626Q382.3125 347.27814 381.95312 348.0125Q381.59375 348.7469 380.9375 349.16876Q380.28125 349.575 379.42188 349.575Q378.14062 349.575 377.32812 348.6844Q376.53125 347.77814 376.53125 346.29376L376.53125 346.21564ZM377.625 346.35626Q377.625 347.40314 378.10938 348.04376Q378.60938 348.6844 379.42188 348.6844Q380.25 348.6844 380.73438 348.04376Q381.21875 347.3875 381.21875 346.21564Q381.21875 345.1844 380.71875 344.54376Q380.23438 343.8875 379.40625 343.8875Q378.60938 343.8875 378.10938 344.52814Q377.625 345.15314 377.625 346.35626ZM384.84375 343.10626L384.875 343.90314Q385.60938 342.9969 386.78125 342.9969Q388.79688 342.9969 388.8125 345.2625L388.8125 349.45L387.71875 349.45L387.71875 345.2469Q387.71875 344.575 387.40625 344.2469Q387.10938 343.91876 386.45312 343.91876Q385.92188 343.91876 385.51562 344.2Q385.125 344.48126 384.90625 344.9344L384.90625 349.45L383.82812 349.45L383.82812 343.10626L384.84375 343.10626ZM393.53125 346.21564Q393.53125 345.29376 393.89062 344.54376Q394.26562 343.79376 394.92188 343.40314Q395.57812 342.9969 396.40625 342.9969Q397.70312 342.9969 398.5 343.8875Q399.3125 344.77814 399.3125 346.27814L399.3125 346.35626Q399.3125 347.27814 398.95312 348.0125Q398.59375 348.7469 397.9375 349.16876Q397.28125 349.575 396.42188 349.575Q395.14062 349.575 394.32812 348.6844Q393.53125 347.77814 393.53125 346.29376L393.53125 346.21564ZM394.625 346.35626Q394.625 347.40314 395.10938 348.04376Q395.60938 348.6844 396.42188 348.6844Q397.25 348.6844 397.73438 348.04376Q398.21875 347.3875 398.21875 346.21564Q398.21875 345.1844 397.71875 344.54376Q397.23438 343.8875 396.40625 343.8875Q395.60938 343.8875 395.10938 344.52814Q394.625 345.15314 394.625 346.35626ZM401.35938 349.45L401.35938 343.95L400.35938 343.95L400.35938 343.10626L401.35938 343.10626L401.35938 342.46564Q401.35938 341.4344 401.89062 340.8875Q402.4375 340.325 403.4375 340.325Q403.8125 340.325 404.1875 340.41876L404.125 341.3094Q403.84375 341.2469 403.54688 341.2469Q403.01562 341.2469 402.71875 341.5594Q402.4375 341.8719 402.4375 342.4344L402.4375 343.10626L403.79688 343.10626L403.79688 343.95L402.4375 343.95L402.4375 349.45L401.35938 349.45ZM411.73438 348.825Q411.10938 349.575 409.875 349.575Q408.85938 349.575 408.32812 348.98126Q407.79688 348.3875 407.79688 347.23126L407.79688 343.10626L408.875 343.10626L408.875 347.2Q408.875 348.65314 410.04688 348.65314Q411.29688 348.65314 411.70312 347.71564L411.70312 343.10626L412.79688 343.10626L412.79688 349.45L411.76562 349.45L411.73438 348.825ZM418.51562 347.7625Q418.51562 347.325 418.17188 347.09064Q417.84375 346.84064 417.01562 346.66876Q416.20312 346.4969 415.71875 346.2469Q415.23438 345.9969 415.0 345.66876Q414.78125 345.325 414.78125 344.85626Q414.78125 344.075 415.4375 343.54376Q416.09375 342.9969 417.125 342.9969Q418.20312 342.9969 418.85938 343.5594Q419.53125 344.10626 419.53125 344.96564L418.45312 344.96564Q418.45312 344.52814 418.0625 344.21564Q417.6875 343.8875 417.125 343.8875Q416.53125 343.8875 416.1875 344.15314Q415.85938 344.40314 415.85938 344.8094Q415.85938 345.2 416.17188 345.40314Q416.48438 345.60626 417.29688 345.79376Q418.10938 345.96564 418.60938 346.21564Q419.10938 346.46564 419.34375 346.825Q419.59375 347.1844 419.59375 347.6844Q419.59375 348.54376 418.90625 349.0594Q418.23438 349.575 417.15625 349.575Q416.39062 349.575 415.79688 349.3094Q415.21875 349.02814 414.89062 348.54376Q414.5625 348.0594 414.5625 347.4969L415.64062 347.4969Q415.67188 348.04376 416.07812 348.3719Q416.48438 348.6844 417.15625 348.6844Q417.76562 348.6844 418.14062 348.4344Q418.51562 348.1844 418.51562 347.7625ZM423.45312 349.575Q422.15625 349.575 421.34375 348.73126Q420.54688 347.8719 420.54688 346.45L420.54688 346.2625Q420.54688 345.3094 420.90625 344.575Q421.26562 343.825 421.90625 343.41876Q422.5625 342.9969 423.3125 342.9969Q424.54688 342.9969 425.23438 343.8094Q425.92188 344.6219 425.92188 346.1375L425.92188 346.59064L421.625 346.59064Q421.65625 347.52814 422.17188 348.10626Q422.70312 348.6844 423.51562 348.6844Q424.07812 348.6844 424.46875 348.45Q424.875 348.21564 425.1875 347.825L425.84375 348.34064Q425.04688 349.575 423.45312 349.575ZM423.3125 343.8875Q422.65625 343.8875 422.20312 344.3719Q421.76562 344.84064 421.67188 345.7L424.84375 345.7L424.84375 345.6219Q424.79688 344.79376 424.39062 344.34064Q424.0 343.8875 423.3125 343.8875Z" fill-rule="nonzero"/><path fill="#000000" d="M27.096888 212.05833L27.096888 214.07396L30.550013 214.07396L30.550013 215.19896L22.018763 215.19896L22.018763 212.37083Q22.018763 210.93333 22.675013 210.16771Q23.331263 209.38646 24.581263 209.38646Q25.378138 209.38646 25.971888 209.82396Q26.565638 210.24583 26.862513 211.01146L30.471888 209.01146L30.550013 209.01146L30.550013 210.21458L27.096888 212.05833ZM26.175013 214.07396L26.175013 212.33958Q26.175013 211.49583 25.753138 211.01146Q25.315638 210.51146 24.581263 210.51146Q23.800013 210.51146 23.378138 210.98021Q22.956263 211.44896 22.940638 212.33958L22.940638 214.07396L26.175013 214.07396ZM30.675013 205.73021Q30.675013 207.02708 29.831263 207.83958Q28.971888 208.63646 27.550013 208.63646L27.362513 208.63646Q26.409388 208.63646 25.675013 208.27708Q24.925013 207.91771 24.518763 207.27708Q24.096888 206.62083 24.096888 205.87083Q24.096888 204.63646 24.909388 203.94896Q25.721888 203.26146 27.237513 203.26146L27.690638 203.26146L27.690638 207.55833Q28.628138 207.52708 29.206263 207.01146Q29.784388 206.48021 29.784388 205.66771Q29.784388 205.10521 29.550013 204.71458Q29.315638 204.30833 28.925013 203.99583L29.440638 203.33958Q30.675013 204.13646 30.675013 205.73021ZM24.987513 205.87083Q24.987513 206.52708 25.471888 206.98021Q25.940638 207.41771 26.800013 207.51146L26.800013 204.33958L26.721888 204.33958Q25.893763 204.38646 25.440638 204.79271Q24.987513 205.18333 24.987513 205.87083ZM28.862513 198.66771Q28.425013 198.66771 28.190638 199.01146Q27.940638 199.33958 27.768763 200.16771Q27.596888 200.98021 27.346888 201.46458Q27.096888 201.94896 26.768763 202.18333Q26.425013 202.40208 25.956263 202.40208Q25.175013 202.40208 24.643763 201.74583Q24.096888 201.08958 24.096888 200.05833Q24.096888 198.98021 24.659388 198.32396Q25.206263 197.65208 26.065638 197.65208L26.065638 198.73021Q25.628138 198.73021 25.315638 199.12083Q24.987513 199.49583 24.987513 200.05833Q24.987513 200.65208 25.253138 200.99583Q25.503138 201.32396 25.909388 201.32396Q26.300013 201.32396 26.503138 201.01146Q26.706263 200.69896 26.893763 199.88646Q27.065638 199.07396 27.315638 198.57396Q27.565638 198.07396 27.925013 197.83958Q28.284388 197.58958 28.784388 197.58958Q29.643763 197.58958 30.159388 198.27708Q30.675013 198.94896 30.675013 200.02708Q30.675013 200.79271 30.409388 201.38646Q30.128138 201.96458 29.643763 202.29271Q29.159388 202.62083 28.596888 202.62083L28.596888 201.54271Q29.143763 201.51146 29.471888 201.10521Q29.784388 200.69896 29.784388 200.02708Q29.784388 199.41771 29.534388 199.04271Q29.284388 198.66771 28.862513 198.66771ZM27.456263 191.01146Q28.893763 191.01146 29.784388 191.66771Q30.675013 192.32396 30.675013 193.46458Q30.675013 194.62083 29.940638 195.27708L32.98751 195.27708L32.98751 196.35521L24.206263 196.35521L24.206263 195.37083L24.909388 195.32396Q24.096888 194.65208 24.096888 193.48021Q24.096888 192.33958 24.956263 191.68333Q25.815638 191.01146 27.346888 191.01146L27.456263 191.01146ZM27.331263 192.08958Q26.253138 192.08958 25.643763 192.55833Q25.018763 193.01146 25.018763 193.80833Q25.018763 194.79271 25.878138 195.27708L28.909388 195.27708Q29.784388 194.79271 29.784388 193.79271Q29.784388 193.01146 29.175013 192.55833Q28.550013 192.08958 27.331263 192.08958ZM27.315638 189.65208Q26.393763 189.65208 25.643763 189.29271Q24.893763 188.91771 24.503138 188.26146Q24.096888 187.60521 24.096888 186.77708Q24.096888 185.48021 24.987513 184.68333Q25.878138 183.87083 27.378138 183.87083L27.456263 183.87083Q28.378138 183.87083 29.112513 184.23021Q29.846888 184.58958 30.268763 185.24583Q30.675013 185.90208 30.675013 186.76146Q30.675013 188.04271 29.784388 188.85521Q28.878138 189.65208 27.393763 189.65208L27.315638 189.65208ZM27.456263 188.55833Q28.503138 188.55833 29.143763 188.07396Q29.784388 187.57396 29.784388 186.76146Q29.784388 185.93333 29.143763 185.44896Q28.487513 184.96458 27.315638 184.96458Q26.284388 184.96458 25.643763 185.46458Q24.987513 185.94896 24.987513 186.77708Q24.987513 187.57396 25.628138 188.07396Q26.253138 188.55833 27.456263 188.55833ZM24.206263 181.33958L25.003138 181.30833Q24.096888 180.57396 24.096888 179.40208Q24.096888 177.38646 26.362513 177.37083L30.550013 177.37083L30.550013 178.46458L26.346888 178.46458Q25.675013 178.46458 25.346888 178.77708Q25.018763 179.07396 25.018763 179.73021Q25.018763 180.26146 25.300013 180.66771Q25.581263 181.05833 26.034388 181.27708L30.550013 181.27708L30.550013 182.35521L24.206263 182.35521L24.206263 181.33958ZM28.862513 171.66771Q28.425013 171.66771 28.190638 172.01146Q27.940638 172.33958 27.768763 173.16771Q27.596888 173.98021 27.346888 174.46458Q27.096888 174.94896 26.768763 175.18333Q26.425013 175.40208 25.956263 175.40208Q25.175013 175.40208 24.643763 174.74583Q24.096888 174.08958 24.096888 173.05833Q24.096888 171.98021 24.659388 171.32396Q25.206263 170.65208 26.065638 170.65208L26.065638 171.73021Q25.628138 171.73021 25.315638 172.12083Q24.987513 172.49583 24.987513 173.05833Q24.987513 173.65208 25.253138 173.99583Q25.503138 174.32396 25.909388 174.32396Q26.300013 174.32396 26.503138 174.01146Q26.706263 173.69896 26.893763 172.88646Q27.065638 172.07396 27.315638 171.57396Q27.565638 171.07396 27.925013 170.83958Q28.284388 170.58958 28.784388 170.58958Q29.643763 170.58958 30.159388 171.27708Q30.675013 171.94896 30.675013 173.02708Q30.675013 173.79271 30.409388 174.38646Q30.128138 174.96458 29.643763 175.29271Q29.159388 175.62083 28.596888 175.62083L28.596888 174.54271Q29.143763 174.51146 29.471888 174.10521Q29.784388 173.69896 29.784388 173.02708Q29.784388 172.41771 29.534388 172.04271Q29.284388 171.66771 28.862513 171.66771ZM30.675013 166.73021Q30.675013 168.02708 29.831263 168.83958Q28.971888 169.63646 27.550013 169.63646L27.362513 169.63646Q26.409388 169.63646 25.675013 169.27708Q24.925013 168.91771 24.518763 168.27708Q24.096888 167.62083 24.096888 166.87083Q24.096888 165.63646 24.909388 164.94896Q25.721888 164.26146 27.237513 164.26146L27.690638 164.26146L27.690638 168.55833Q28.628138 168.52708 29.206263 168.01146Q29.784388 167.48021 29.784388 166.66771Q29.784388 166.10521 29.550013 165.71458Q29.315638 165.30833 28.925013 164.99583L29.440638 164.33958Q30.675013 165.13646 30.675013 166.73021ZM24.987513 166.87083Q24.987513 167.52708 25.471888 167.98021Q25.940638 168.41771 26.800013 168.51146L26.800013 165.33958L26.721888 165.33958Q25.893763 165.38646 25.440638 165.79271Q24.987513 166.18333 24.987513 166.87083ZM28.862513 159.66771Q28.425013 159.66771 28.190638 160.01146Q27.940638 160.33958 27.768763 161.16771Q27.596888 161.98021 27.346888 162.46458Q27.096888 162.94896 26.768763 163.18333Q26.425013 163.40208 25.956263 163.40208Q25.175013 163.40208 24.643763 162.74583Q24.096888 162.08958 24.096888 161.05833Q24.096888 159.98021 24.659388 159.32396Q25.206263 158.65208 26.065638 158.65208L26.065638 159.73021Q25.628138 159.73021 25.315638 160.12083Q24.987513 160.49583 24.987513 161.05833Q24.987513 161.65208 25.253138 161.99583Q25.503138 162.32396 25.909388 162.32396Q26.300013 162.32396 26.503138 162.01146Q26.706263 161.69896 26.893763 160.88646Q27.065638 160.07396 27.315638 159.57396Q27.565638 159.07396 27.925013 158.83958Q28.284388 158.58958 28.784388 158.58958Q29.643763 158.58958 30.159388 159.27708Q30.675013 159.94896 30.675013 161.02708Q30.675013 161.79271 30.409388 162.38646Q30.128138 162.96458 29.643763 163.29271Q29.159388 163.62083 28.596888 163.62083L28.596888 162.54271Q29.143763 162.51146 29.471888 162.10521Q29.784388 161.69896 29.784388 161.02708Q29.784388 160.41771 29.534388 160.04271Q29.284388 159.66771 28.862513 159.66771Z" fill-rule="nonzero"/><path fill="#000000" d="M78.6125 284.3094Q78.6125 286.21564 77.95625 287.15314Q77.31563 288.075 75.925 288.075Q74.56563 288.075 73.90938 287.16876Q73.25313 286.2625 73.22188 284.45L73.22188 283.0125Q73.22188 281.1219 73.8625 280.21564Q74.51875 279.29376 75.90938 279.29376Q77.28438 279.29376 77.94063 280.1844Q78.59688 281.0594 78.6125 282.90314L78.6125 284.3094ZM77.51875 282.825Q77.51875 281.45 77.12813 280.825Q76.75313 280.1844 75.90938 280.1844Q75.08125 280.1844 74.69063 280.825Q74.31563 281.45 74.31563 282.7469L74.31563 284.48126Q74.31563 285.85626 74.70625 286.52814Q75.1125 287.1844 75.925 287.1844Q76.72188 287.1844 77.1125 286.5594Q77.50313 285.9344 77.51875 284.60626L77.51875 282.825Z" fill-rule="nonzero"/><path fill="#000000" d="M64.84688 243.74333L59.253124 243.74333L59.253124 242.96208L62.20625 239.68083Q62.8625 238.93083 63.1125 238.4777Q63.3625 238.00896 63.3625 237.50896Q63.3625 236.83708 62.95625 236.4152Q62.565624 235.9777 61.878124 235.9777Q61.08125 235.9777 60.628124 236.44646Q60.175 236.89958 60.175 237.7277L59.096874 237.7277Q59.096874 236.5402 59.846874 235.82146Q60.6125 235.08708 61.878124 235.08708Q63.08125 235.08708 63.76875 235.71208Q64.45625 236.33708 64.45625 237.38396Q64.45625 238.63396 62.846874 240.38396L60.565624 242.8527L64.84688 242.8527L64.84688 243.74333ZM66.75313 239.46208L67.19063 235.21208L71.56563 235.21208L71.56563 236.21208L68.1125 236.21208L67.84688 238.5402Q68.4875 238.1652 69.28438 238.1652Q70.44063 238.1652 71.12813 238.94646Q71.81563 239.71208 71.81563 241.02458Q71.81563 242.33708 71.09688 243.1027Q70.39375 243.86833 69.1125 243.86833Q67.9875 243.86833 67.26875 243.24333Q66.55 242.6027 66.45625 241.49333L67.47188 241.49333Q67.58125 242.2277 68.00313 242.6027Q68.425 242.9777 69.1125 242.9777Q69.8625 242.9777 70.3 242.46208Q70.7375 241.94646 70.7375 241.0402Q70.7375 240.18083 70.26875 239.6652Q69.8 239.14958 69.01875 239.14958Q68.31563 239.14958 67.90938 239.44646L67.62813 239.68083L66.75313 239.46208ZM78.6125 240.1027Q78.6125 242.00896 77.95625 242.94646Q77.31563 243.86833 75.925 243.86833Q74.56563 243.86833 73.90938 242.96208Q73.25313 242.05583 73.22188 240.24333L73.22188 238.80583Q73.22188 236.9152 73.8625 236.00896Q74.51875 235.08708 75.90938 235.08708Q77.28438 235.08708 77.94063 235.9777Q78.59688 236.8527 78.6125 238.69646L78.6125 240.1027ZM77.51875 238.61833Q77.51875 237.24333 77.12813 236.61833Q76.75313 235.9777 75.90938 235.9777Q75.08125 235.9777 74.69063 236.61833Q74.31563 237.24333 74.31563 238.5402L74.31563 240.27458Q74.31563 241.64958 74.70625 242.32146Q75.1125 242.9777 75.925 242.9777Q76.72188 242.9777 77.1125 242.3527Q77.50313 241.7277 77.51875 240.39958L77.51875 238.61833Z" fill-rule="nonzero"/><path fill="#000000" d="M59.753124 195.25542L60.190624 191.00542L64.56563 191.00542L64.56563 192.00542L61.1125 192.00542L60.846874 194.33354Q61.4875 193.95854 62.284374 193.95854Q63.440624 193.95854 64.12813 194.73979Q64.81563 195.50542 64.81563 196.81792Q64.81563 198.13042 64.09688 198.89604Q63.39375 199.66167 62.1125 199.66167Q60.9875 199.66167 60.26875 199.03667Q59.55 198.39604 59.45625 197.28667L60.471874 197.28667Q60.58125 198.02104 61.003124 198.39604Q61.425 198.77104 62.1125 198.77104Q62.8625 198.77104 63.3 198.25542Q63.7375 197.73979 63.7375 196.83354Q63.7375 195.97417 63.26875 195.45854Q62.8 194.94292 62.01875 194.94292Q61.315624 194.94292 60.909374 195.23979L60.628124 195.47417L59.753124 195.25542ZM71.6125 195.89604Q71.6125 197.80229 70.95625 198.73979Q70.31563 199.66167 68.925 199.66167Q67.56563 199.66167 66.90938 198.75542Q66.25313 197.84917 66.22188 196.03667L66.22188 194.59917Q66.22188 192.70854 66.8625 191.80229Q67.51875 190.88042 68.90938 190.88042Q70.28438 190.88042 70.94063 191.77104Q71.59688 192.64604 71.6125 194.48979L71.6125 195.89604ZM70.51875 194.41167Q70.51875 193.03667 70.12813 192.41167Q69.75313 191.77104 68.90938 191.77104Q68.08125 191.77104 67.69063 192.41167Q67.31563 193.03667 67.31563 194.33354L67.31563 196.06792Q67.31563 197.44292 67.70625 198.11479Q68.1125 198.77104 68.925 198.77104Q69.72188 198.77104 70.1125 198.14604Q70.50313 197.52104 70.51875 196.19292L70.51875 194.41167ZM78.6125 195.89604Q78.6125 197.80229 77.95625 198.73979Q77.31563 199.66167 75.925 199.66167Q74.56563 199.66167 73.90938 198.75542Q73.25313 197.84917 73.22188 196.03667L73.22188 194.59917Q73.22188 192.70854 73.8625 191.80229Q74.51875 190.88042 75.90938 190.88042Q77.28438 190.88042 77.94063 191.77104Q78.59688 192.64604 78.6125 194.48979L78.6125 195.89604ZM77.51875 194.41167Q77.51875 193.03667 77.12813 192.41167Q76.75313 191.77104 75.90938 191.77104Q75.08125 191.77104 74.69063 192.41167Q74.31563 193.03667 74.31563 194.33354L74.31563 196.06792Q74.31563 197.44292 74.70625 198.11479Q75.1125 198.77104 75.925 198.77104Q76.72188 198.77104 77.1125 198.14604Q77.50313 197.52104 77.51875 196.19292L77.51875 194.41167Z" fill-rule="nonzero"/><path fill="#000000" d="M64.76875 147.40813L61.2375 155.33L60.096874 155.33L63.6125 147.68938L59.003124 147.68938L59.003124 146.79875L64.76875 146.79875L64.76875 147.40813ZM66.75313 151.04875L67.19063 146.79875L71.56563 146.79875L71.56563 147.79875L68.1125 147.79875L67.84688 150.12688Q68.4875 149.75188 69.28438 149.75188Q70.44063 149.75188 71.12813 150.53313Q71.81563 151.29875 71.81563 152.61125Q71.81563 153.92375 71.09688 154.68938Q70.39375 155.455 69.1125 155.455Q67.9875 155.455 67.26875 154.83Q66.55 154.18938 66.45625 153.08L67.47188 153.08Q67.58125 153.81438 68.00313 154.18938Q68.425 154.56438 69.1125 154.56438Q69.8625 154.56438 70.3 154.04875Q70.7375 153.53313 70.7375 152.62688Q70.7375 151.7675 70.26875 151.25188Q69.8 150.73625 69.01875 150.73625Q68.31563 150.73625 67.90938 151.03313L67.62813 151.2675L66.75313 151.04875ZM78.6125 151.68938Q78.6125 153.59563 77.95625 154.53313Q77.31563 155.455 75.925 155.455Q74.56563 155.455 73.90938 154.54875Q73.25313 153.6425 73.22188 151.83L73.22188 150.3925Q73.22188 148.50188 73.8625 147.59563Q74.51875 146.67375 75.90938 146.67375Q77.28438 146.67375 77.94063 147.56438Q78.59688 148.43938 78.6125 150.28313L78.6125 151.68938ZM77.51875 150.205Q77.51875 148.83 77.12813 148.205Q76.75313 147.56438 75.90938 147.56438Q75.08125 147.56438 74.69063 148.205Q74.31563 148.83 74.31563 150.12688L74.31563 151.86125Q74.31563 153.23625 74.70625 153.90813Q75.1125 154.56438 75.925 154.56438Q76.72188 154.56438 77.1125 153.93938Q77.50313 153.31438 77.51875 151.98625L77.51875 150.205Z" fill-rule="nonzero"/><path fill="#000000" d="M55.815624 111.12334L54.7375 111.12334L54.7375 103.90459L52.55 104.70146L52.55 103.71709L55.659374 102.54521L55.815624 102.54521L55.815624 111.12334ZM64.6125 107.48271Q64.6125 109.38896 63.95625 110.32646Q63.315624 111.24834 61.925 111.24834Q60.565624 111.24834 59.909374 110.34209Q59.253124 109.43584 59.221874 107.62334L59.221874 106.18584Q59.221874 104.29521 59.8625 103.38896Q60.51875 102.46709 61.909374 102.46709Q63.284374 102.46709 63.940624 103.35771Q64.59688 104.23271 64.6125 106.07646L64.6125 107.48271ZM63.51875 105.99834Q63.51875 104.62334 63.128124 103.99834Q62.753124 103.35771 61.909374 103.35771Q61.08125 103.35771 60.690624 103.99834Q60.315624 104.62334 60.315624 105.92021L60.315624 107.65459Q60.315624 109.02959 60.70625 109.70146Q61.1125 110.35771 61.925 110.35771Q62.721874 110.35771 63.1125 109.73271Q63.503124 109.10771 63.51875 107.77959L63.51875 105.99834ZM71.6125 107.48271Q71.6125 109.38896 70.95625 110.32646Q70.31563 111.24834 68.925 111.24834Q67.56563 111.24834 66.90938 110.34209Q66.25313 109.43584 66.22188 107.62334L66.22188 106.18584Q66.22188 104.29521 66.8625 103.38896Q67.51875 102.46709 68.90938 102.46709Q70.28438 102.46709 70.94063 103.35771Q71.59688 104.23271 71.6125 106.07646L71.6125 107.48271ZM70.51875 105.99834Q70.51875 104.62334 70.12813 103.99834Q69.75313 103.35771 68.90938 103.35771Q68.08125 103.35771 67.69063 103.99834Q67.31563 104.62334 67.31563 105.92021L67.31563 107.65459Q67.31563 109.02959 67.70625 109.70146Q68.1125 110.35771 68.925 110.35771Q69.72188 110.35771 70.1125 109.73271Q70.50313 109.10771 70.51875 107.77959L70.51875 105.99834ZM78.6125 107.48271Q78.6125 109.38896 77.95625 110.32646Q77.31563 111.24834 75.925 111.24834Q74.56563 111.24834 73.90938 110.34209Q73.25313 109.43584 73.22188 107.62334L73.22188 106.18584Q73.22188 104.29521 73.8625 103.38896Q74.51875 102.46709 75.90938 102.46709Q77.28438 102.46709 77.94063 103.35771Q78.59688 104.23271 78.6125 106.07646L78.6125 107.48271ZM77.51875 105.99834Q77.51875 104.62334 77.12813 103.99834Q76.75313 103.35771 75.90938 103.35771Q75.08125 103.35771 74.69063 103.99834Q74.31563 104.62334 74.31563 105.92021L74.31563 107.65459Q74.31563 109.02959 74.70625 109.70146Q75.1125 110.35771 75.925 110.35771Q76.72188 110.35771 77.1125 109.73271Q77.50313 109.10771 77.51875 107.77959L77.51875 105.99834Z" fill-rule="nonzero"/><path fill="#000000" d="M55.815624 66.916664L54.7375 66.916664L54.7375 59.697914L52.55 60.49479L52.55 59.510414L55.659374 58.33854L55.815624 58.33854L55.815624 66.916664ZM64.84688 66.916664L59.253124 66.916664L59.253124 66.135414L62.20625 62.854164Q62.8625 62.104164 63.1125 61.65104Q63.3625 61.18229 63.3625 60.68229Q63.3625 60.010414 62.95625 59.58854Q62.565624 59.15104 61.878124 59.15104Q61.08125 59.15104 60.628124 59.61979Q60.175 60.072914 60.175 60.90104L59.096874 60.90104Q59.096874 59.71354 59.846874 58.99479Q60.6125 58.260414 61.878124 58.260414Q63.08125 58.260414 63.76875 58.885414Q64.45625 59.510414 64.45625 60.55729Q64.45625 61.80729 62.846874 63.55729L60.565624 66.02604L64.84688 66.02604L64.84688 66.916664ZM66.75313 62.635414L67.19063 58.385414L71.56563 58.385414L71.56563 59.385414L68.1125 59.385414L67.84688 61.71354Q68.4875 61.33854 69.28438 61.33854Q70.44063 61.33854 71.12813 62.11979Q71.81563 62.885414 71.81563 64.197914Q71.81563 65.510414 71.09688 66.27604Q70.39375 67.041664 69.1125 67.041664Q67.9875 67.041664 67.26875 66.416664Q66.55 65.77604 66.45625 64.666664L67.47188 64.666664Q67.58125 65.40104 68.00313 65.77604Q68.425 66.15104 69.1125 66.15104Q69.8625 66.15104 70.3 65.635414Q70.7375 65.11979 70.7375 64.21354Q70.7375 63.354164 70.26875 62.83854Q69.8 62.322914 69.01875 62.322914Q68.31563 62.322914 67.90938 62.61979L67.62813 62.854164L66.75313 62.635414ZM78.6125 63.27604Q78.6125 65.18229 77.95625 66.11979Q77.31563 67.041664 75.925 67.041664Q74.56563 67.041664 73.90938 66.135414Q73.25313 65.229164 73.22188 63.416664L73.22188 61.979164Q73.22188 60.08854 73.8625 59.18229Q74.51875 58.260414 75.90938 58.260414Q77.28438 58.260414 77.94063 59.15104Q78.59688 60.02604 78.6125 61.86979L78.6125 63.27604ZM77.51875 61.791664Q77.51875 60.416664 77.12813 59.791664Q76.75313 59.15104 75.90938 59.15104Q75.08125 59.15104 74.69063 59.791664Q74.31563 60.416664 74.31563 61.71354L74.31563 63.447914Q74.31563 64.822914 74.70625 65.49479Q75.1125 66.15104 75.925 66.15104Q76.72188 66.15104 77.1125 65.52604Q77.50313 64.90104 77.51875 63.572914L77.51875 61.791664Z" fill-rule="nonzero"/><path fill="#000000" d="M135.6891 301.45L134.5641 301.45L134.5641 292.91876L135.6891 292.91876L135.6891 301.45ZM140.04848 298.23126Q140.04848 296.7625 140.73598 295.8875Q141.42348 294.9969 142.54848 294.9969Q143.65785 294.9969 144.3141 295.7469L144.3141 292.45L145.39223 292.45L145.39223 301.45L144.39223 301.45L144.34535 300.7625Q143.6891 301.575 142.53285 301.575Q141.4391 301.575 140.73598 300.66876Q140.04848 299.7625 140.04848 298.3094L140.04848 298.23126ZM141.1266 298.35626Q141.1266 299.4344 141.5641 300.04376Q142.01723 300.65314 142.79848 300.65314Q143.82973 300.65314 144.3141 299.71564L144.3141 296.8094Q143.82973 295.91876 142.8141 295.91876Q142.01723 295.91876 141.5641 296.52814Q141.1266 297.1375 141.1266 298.35626ZM147.01723 298.21564Q147.01723 297.29376 147.3766 296.54376Q147.7516 295.79376 148.40785 295.40314Q149.0641 294.9969 149.89223 294.9969Q151.1891 294.9969 151.98598 295.8875Q152.79848 296.77814 152.79848 298.27814L152.79848 298.35626Q152.79848 299.27814 152.4391 300.0125Q152.07973 300.7469 151.42348 301.16876Q150.76723 301.575 149.90785 301.575Q148.6266 301.575 147.8141 300.6844Q147.01723 299.77814 147.01723 298.29376L147.01723 298.21564ZM148.11098 298.35626Q148.11098 299.40314 148.59535 300.04376Q149.09535 300.6844 149.90785 300.6844Q150.73598 300.6844 151.22035 300.04376Q151.70473 299.3875 151.70473 298.21564Q151.70473 297.1844 151.20473 296.54376Q150.72035 295.8875 149.89223 295.8875Q149.09535 295.8875 148.59535 296.52814Q148.11098 297.15314 148.11098 298.35626ZM155.32973 295.10626L155.36098 295.90314Q156.09535 294.9969 157.26723 294.9969Q159.28285 294.9969 159.29848 297.2625L159.29848 301.45L158.20473 301.45L158.20473 297.2469Q158.20473 296.575 157.89223 296.2469Q157.59535 295.91876 156.9391 295.91876Q156.40785 295.91876 156.0016 296.2Q155.61098 296.48126 155.39223 296.9344L155.39223 301.45L154.3141 301.45L154.3141 295.10626L155.32973 295.10626ZM161.97035 293.10626L161.84535 295.2625L161.09535 295.2625L161.09535 292.45L161.97035 292.45L161.97035 293.10626ZM164.78285 293.575L164.78285 295.10626L165.95473 295.10626L165.95473 295.95L164.78285 295.95L164.78285 299.8719Q164.78285 300.2625 164.9391 300.45Q165.09535 300.6375 165.47035 300.6375Q165.65785 300.6375 165.98598 300.575L165.98598 301.45Q165.5641 301.575 165.15785 301.575Q164.4391 301.575 164.0641 301.1375Q163.6891 300.6844 163.6891 299.8719L163.6891 295.95L162.53285 295.95L162.53285 295.10626L163.6891 295.10626L163.6891 293.575L164.78285 293.575ZM170.84535 301.45L170.84535 295.95L169.84535 295.95L169.84535 295.10626L170.84535 295.10626L170.84535 294.46564Q170.84535 293.4344 171.3766 292.8875Q171.92348 292.325 172.92348 292.325Q173.29848 292.325 173.67348 292.41876L173.61098 293.3094Q173.32973 293.2469 173.03285 293.2469Q172.5016 293.2469 172.20473 293.5594Q171.92348 293.8719 171.92348 294.4344L171.92348 295.10626L173.28285 295.10626L173.28285 295.95L171.92348 295.95L171.92348 301.45L170.84535 301.45ZM176.9391 301.575Q175.64223 301.575 174.82973 300.73126Q174.03285 299.8719 174.03285 298.45L174.03285 298.2625Q174.03285 297.3094 174.39223 296.575Q174.7516 295.825 175.39223 295.41876Q176.04848 294.9969 176.79848 294.9969Q178.03285 294.9969 178.72035 295.8094Q179.40785 296.6219 179.40785 298.1375L179.40785 298.59064L175.11098 298.59064Q175.14223 299.52814 175.65785 300.10626Q176.1891 300.6844 177.0016 300.6844Q177.5641 300.6844 177.95473 300.45Q178.36098 300.21564 178.67348 299.825L179.32973 300.34064Q178.53285 301.575 176.9391 301.575ZM176.79848 295.8875Q176.14223 295.8875 175.6891 296.3719Q175.2516 296.84064 175.15785 297.7L178.32973 297.7L178.32973 297.6219Q178.28285 296.79376 177.8766 296.34064Q177.48598 295.8875 176.79848 295.8875ZM182.9391 301.575Q181.64223 301.575 180.82973 300.73126Q180.03285 299.8719 180.03285 298.45L180.03285 298.2625Q180.03285 297.3094 180.39223 296.575Q180.7516 295.825 181.39223 295.41876Q182.04848 294.9969 182.79848 294.9969Q184.03285 294.9969 184.72035 295.8094Q185.40785 296.6219 185.40785 298.1375L185.40785 298.59064L181.11098 298.59064Q181.14223 299.52814 181.65785 300.10626Q182.1891 300.6844 183.0016 300.6844Q183.5641 300.6844 183.95473 300.45Q184.36098 300.21564 184.67348 299.825L185.32973 300.34064Q184.53285 301.575 182.9391 301.575ZM182.79848 295.8875Q182.14223 295.8875 181.6891 296.3719Q181.2516 296.84064 181.15785 297.7L184.32973 297.7L184.32973 297.6219Q184.28285 296.79376 183.8766 296.34064Q183.48598 295.8875 182.79848 295.8875ZM187.48598 301.45L186.40785 301.45L186.40785 292.45L187.48598 292.45L187.48598 301.45Z" fill-rule="nonzero"/><path fill="#000000" d="M128.15787 313.35626Q128.15787 314.79376 127.50161 315.6844Q126.84536 316.575 125.704735 316.575Q124.548485 316.575 123.892235 315.84064L123.892235 318.8875L122.81411 318.8875L122.81411 310.10626L123.798485 310.10626L123.84536 310.8094Q124.517235 309.9969 125.68911 309.9969Q126.829735 309.9969 127.485985 310.85626Q128.15787 311.71564 128.15787 313.2469L128.15787 313.35626ZM127.079735 313.23126Q127.079735 312.15314 126.610985 311.54376Q126.15786 310.91876 125.360985 310.91876Q124.37661 310.91876 123.892235 311.77814L123.892235 314.8094Q124.37661 315.6844 125.37661 315.6844Q126.15786 315.6844 126.610985 315.075Q127.079735 314.45 127.079735 313.23126ZM132.87662 311.075Q132.62662 311.04376 132.34537 311.04376Q131.26724 311.04376 130.89224 311.95L130.89224 316.45L129.81412 316.45L129.81412 310.10626L130.861 310.10626L130.87662 310.84064Q131.40787 309.9969 132.39224 309.9969Q132.70474 309.9969 132.87662 310.075L132.87662 311.075ZM133.51724 313.21564Q133.51724 312.29376 133.87662 311.54376Q134.25162 310.79376 134.90787 310.40314Q135.56412 309.9969 136.39224 309.9969Q137.68912 309.9969 138.486 310.8875Q139.2985 311.77814 139.2985 313.27814L139.2985 313.35626Q139.2985 314.27814 138.93912 315.0125Q138.57974 315.7469 137.9235 316.16876Q137.26724 316.575 136.40787 316.575Q135.12662 316.575 134.31412 315.6844Q133.51724 314.77814 133.51724 313.29376L133.51724 313.21564ZM134.611 313.35626Q134.611 314.40314 135.09537 315.04376Q135.59537 315.6844 136.40787 315.6844Q137.236 315.6844 137.72037 315.04376Q138.20474 314.3875 138.20474 313.21564Q138.20474 312.1844 137.70474 311.54376Q137.22037 310.8875 136.39224 310.8875Q135.59537 310.8875 135.09537 311.52814Q134.611 312.15314 134.611 313.35626ZM140.5485 313.23126Q140.5485 311.7625 141.236 310.8875Q141.9235 309.9969 143.0485 309.9969Q144.15787 309.9969 144.81412 310.7469L144.81412 307.45L145.89224 307.45L145.89224 316.45L144.89224 316.45L144.84537 315.7625Q144.18912 316.575 143.03287 316.575Q141.93912 316.575 141.236 315.66876Q140.5485 314.7625 140.5485 313.3094L140.5485 313.23126ZM141.62662 313.35626Q141.62662 314.4344 142.06412 315.04376Q142.51724 315.65314 143.2985 315.65314Q144.32974 315.65314 144.81412 314.71564L144.81412 311.8094Q144.32974 310.91876 143.31412 310.91876Q142.51724 310.91876 142.06412 311.52814Q141.62662 312.1375 141.62662 313.35626ZM151.72037 315.825Q151.09537 316.575 149.861 316.575Q148.84537 316.575 148.31412 315.98126Q147.78287 315.3875 147.78287 314.23126L147.78287 310.10626L148.861 310.10626L148.861 314.2Q148.861 315.65314 150.03287 315.65314Q151.28287 315.65314 151.68912 314.71564L151.68912 310.10626L152.78287 310.10626L152.78287 316.45L151.75162 316.45L151.72037 315.825ZM157.34537 315.6844Q157.9235 315.6844 158.361 315.34064Q158.7985 314.98126 158.84537 314.45L159.87662 314.45Q159.84537 314.9969 159.486 315.4969Q159.14224 315.98126 158.56412 316.27814Q158.00162 316.575 157.34537 316.575Q156.0485 316.575 155.28287 315.71564Q154.53287 314.84064 154.53287 313.34064L154.53287 313.15314Q154.53287 312.23126 154.861 311.5125Q155.20474 310.79376 155.82974 310.40314Q156.47037 309.9969 157.34537 309.9969Q158.40787 309.9969 159.111 310.6375Q159.82974 311.2625 159.87662 312.29376L158.84537 312.29376Q158.7985 311.66876 158.37662 311.27814Q157.95474 310.8875 157.34537 310.8875Q156.51724 310.8875 156.06412 311.48126Q155.611 312.075 155.611 313.2L155.611 313.40314Q155.611 314.4969 156.06412 315.09064Q156.51724 315.6844 157.34537 315.6844ZM162.28287 308.575L162.28287 310.10626L163.45474 310.10626L163.45474 310.95L162.28287 310.95L162.28287 314.8719Q162.28287 315.2625 162.43912 315.45Q162.59537 315.6375 162.97037 315.6375Q163.15787 315.6375 163.486 315.575L163.486 316.45Q163.06412 316.575 162.65787 316.575Q161.93912 316.575 161.56412 316.1375Q161.18912 315.6844 161.18912 314.8719L161.18912 310.95L160.03287 310.95L160.03287 310.10626L161.18912 310.10626L161.18912 308.575L162.28287 308.575ZM165.986 316.45L164.90787 316.45L164.90787 310.10626L165.986 310.10626L165.986 316.45ZM164.81412 308.4344Q164.81412 308.16876 164.97037 307.98126Q165.14224 307.79376 165.45474 307.79376Q165.76724 307.79376 165.9235 307.98126Q166.09537 308.16876 166.09537 308.4344Q166.09537 308.6844 165.9235 308.8719Q165.76724 309.04376 165.45474 309.04376Q165.14224 309.04376 164.97037 308.8719Q164.81412 308.6844 164.81412 308.4344ZM169.89224 314.98126L171.47037 310.10626L172.57974 310.10626L170.2985 316.45L169.47037 316.45L167.1735 310.10626L168.28287 310.10626L169.89224 314.98126ZM176.43912 316.575Q175.14224 316.575 174.32974 315.73126Q173.53287 314.8719 173.53287 313.45L173.53287 313.2625Q173.53287 312.3094 173.89224 311.575Q174.25162 310.825 174.89224 310.41876Q175.5485 309.9969 176.2985 309.9969Q177.53287 309.9969 178.22037 310.8094Q178.90787 311.6219 178.90787 313.1375L178.90787 313.59064L174.611 313.59064Q174.64224 314.52814 175.15787 315.10626Q175.68912 315.6844 176.50162 315.6844Q177.06412 315.6844 177.45474 315.45Q177.861 315.21564 178.1735 314.825L178.82974 315.34064Q178.03287 316.575 176.43912 316.575ZM176.2985 310.8875Q175.64224 310.8875 175.18912 311.3719Q174.75162 311.84064 174.65787 312.7L177.82974 312.7L177.82974 312.6219Q177.78287 311.79376 177.37662 311.34064Q176.986 310.8875 176.2985 310.8875ZM179.76724 318.15314L179.15787 317.73126Q179.70474 316.96564 179.736 316.1375L179.736 315.16876L180.7985 315.16876L180.7985 316.0125Q180.7985 316.60626 180.50162 317.2Q180.20474 317.79376 179.76724 318.15314ZM186.87662 314.85626L188.361 310.10626L189.51724 310.10626L186.97037 317.4344Q186.37662 319.0125 185.09537 319.0125L184.87662 318.9969L184.486 318.91876L184.486 318.04376L184.76724 318.0594Q185.32974 318.0594 185.62662 317.84064Q185.93912 317.6219 186.14224 317.02814L186.37662 316.3719L184.111 310.10626L185.2985 310.10626L186.87662 314.85626ZM193.43912 316.575Q192.14224 316.575 191.32974 315.73126Q190.53287 314.8719 190.53287 313.45L190.53287 313.2625Q190.53287 312.3094 190.89224 311.575Q191.25162 310.825 191.89224 310.41876Q192.5485 309.9969 193.2985 309.9969Q194.53287 309.9969 195.22037 310.8094Q195.90787 311.6219 195.90787 313.1375L195.90787 313.59064L191.611 313.59064Q191.64224 314.52814 192.15787 315.10626Q192.68912 315.6844 193.50162 315.6844Q194.06412 315.6844 194.45474 315.45Q194.861 315.21564 195.1735 314.825L195.82974 315.34064Q195.03287 316.575 193.43912 316.575ZM193.2985 310.8875Q192.64224 310.8875 192.18912 311.3719Q191.75162 311.84064 191.65787 312.7L194.82974 312.7L194.82974 312.6219Q194.78287 311.79376 194.37662 311.34064Q193.986 310.8875 193.2985 310.8875ZM198.28287 308.575L198.28287 310.10626L199.45474 310.10626L199.45474 310.95L198.28287 310.95L198.28287 314.8719Q198.28287 315.2625 198.43912 315.45Q198.59537 315.6375 198.97037 315.6375Q199.15787 315.6375 199.486 315.575L199.486 316.45Q199.06412 316.575 198.65787 316.575Q197.93912 316.575 197.56412 316.1375Q197.18912 315.6844 197.18912 314.8719L197.18912 310.95L196.03287 310.95L196.03287 310.10626L197.18912 310.10626L197.18912 308.575L198.28287 308.575Z" fill-rule="nonzero"/><path fill="#000000" d="M228.868 300.52814L232.91487 300.52814L232.91487 301.45L227.72737 301.45L227.72737 292.91876L228.868 292.91876L228.868 300.52814ZM236.19612 301.575Q234.89925 301.575 234.08675 300.73126Q233.28987 299.8719 233.28987 298.45L233.28987 298.2625Q233.28987 297.3094 233.64925 296.575Q234.00862 295.825 234.64925 295.41876Q235.3055 294.9969 236.0555 294.9969Q237.28987 294.9969 237.97737 295.8094Q238.66487 296.6219 238.66487 298.1375L238.66487 298.59064L234.368 298.59064Q234.39925 299.52814 234.91487 300.10626Q235.44612 300.6844 236.25862 300.6844Q236.82112 300.6844 237.21175 300.45Q237.618 300.21564 237.9305 299.825L238.58675 300.34064Q237.78987 301.575 236.19612 301.575ZM236.0555 295.8875Q235.39925 295.8875 234.94612 296.3719Q234.50862 296.84064 234.41487 297.7L237.58675 297.7L237.58675 297.6219Q237.53987 296.79376 237.13362 296.34064Q236.743 295.8875 236.0555 295.8875ZM243.25862 299.7625Q243.25862 299.325 242.91487 299.09064Q242.58675 298.84064 241.75862 298.66876Q240.94612 298.4969 240.46175 298.2469Q239.97737 297.9969 239.743 297.66876Q239.52425 297.325 239.52425 296.85626Q239.52425 296.075 240.1805 295.54376Q240.83675 294.9969 241.868 294.9969Q242.94612 294.9969 243.60237 295.5594Q244.27425 296.10626 244.27425 296.96564L243.19612 296.96564Q243.19612 296.52814 242.8055 296.21564Q242.4305 295.8875 241.868 295.8875Q241.27425 295.8875 240.9305 296.15314Q240.60237 296.40314 240.60237 296.8094Q240.60237 297.2 240.91487 297.40314Q241.22737 297.60626 242.03987 297.79376Q242.85237 297.96564 243.35237 298.21564Q243.85237 298.46564 244.08675 298.825Q244.33675 299.1844 244.33675 299.6844Q244.33675 300.54376 243.64925 301.0594Q242.97737 301.575 241.89925 301.575Q241.13362 301.575 240.53987 301.3094Q239.96175 301.02814 239.63362 300.54376Q239.3055 300.0594 239.3055 299.4969L240.38362 299.4969Q240.41487 300.04376 240.82112 300.3719Q241.22737 300.6844 241.89925 300.6844Q242.50862 300.6844 242.88362 300.4344Q243.25862 300.1844 243.25862 299.7625ZM249.25862 299.7625Q249.25862 299.325 248.91487 299.09064Q248.58675 298.84064 247.75862 298.66876Q246.94612 298.4969 246.46175 298.2469Q245.97737 297.9969 245.743 297.66876Q245.52425 297.325 245.52425 296.85626Q245.52425 296.075 246.1805 295.54376Q246.83675 294.9969 247.868 294.9969Q248.94612 294.9969 249.60237 295.5594Q250.27425 296.10626 250.27425 296.96564L249.19612 296.96564Q249.19612 296.52814 248.8055 296.21564Q248.4305 295.8875 247.868 295.8875Q247.27425 295.8875 246.9305 296.15314Q246.60237 296.40314 246.60237 296.8094Q246.60237 297.2 246.91487 297.40314Q247.22737 297.60626 248.03987 297.79376Q248.85237 297.96564 249.35237 298.21564Q249.85237 298.46564 250.08675 298.825Q250.33675 299.1844 250.33675 299.6844Q250.33675 300.54376 249.64925 301.0594Q248.97737 301.575 247.89925 301.575Q247.13362 301.575 246.53987 301.3094Q245.96175 301.02814 245.63362 300.54376Q245.3055 300.0594 245.3055 299.4969L246.38362 299.4969Q246.41487 300.04376 246.82112 300.3719Q247.22737 300.6844 247.89925 300.6844Q248.50862 300.6844 248.88362 300.4344Q249.25862 300.1844 249.25862 299.7625ZM256.03986 293.575L256.03986 295.10626L257.21173 295.10626L257.21173 295.95L256.03986 295.95L256.03986 299.8719Q256.03986 300.2625 256.1961 300.45Q256.35236 300.6375 256.72736 300.6375Q256.91486 300.6375 257.24298 300.575L257.24298 301.45Q256.8211 301.575 256.41486 301.575Q255.69612 301.575 255.32112 301.1375Q254.94612 300.6844 254.94612 299.8719L254.94612 295.95L253.78987 295.95L253.78987 295.10626L254.94612 295.10626L254.94612 293.575L256.03986 293.575ZM259.64923 295.8719Q260.36798 294.9969 261.52423 294.9969Q263.53986 294.9969 263.55548 297.2625L263.55548 301.45L262.46173 301.45L262.46173 297.2469Q262.46173 296.575 262.14923 296.2469Q261.85236 295.91876 261.1961 295.91876Q260.66486 295.91876 260.2586 296.2Q259.86798 296.48126 259.64923 296.9344L259.64923 301.45L258.5711 301.45L258.5711 292.45L259.64923 292.45L259.64923 295.8719ZM269.47736 301.45Q269.3836 301.2625 269.3211 300.77814Q268.5711 301.575 267.52423 301.575Q266.58673 301.575 265.97736 301.04376Q265.3836 300.5125 265.3836 299.6844Q265.3836 298.7 266.1336 298.15314Q266.8836 297.60626 268.2586 297.60626L269.30548 297.60626L269.30548 297.10626Q269.30548 296.54376 268.96173 296.21564Q268.6336 295.8719 267.96173 295.8719Q267.3836 295.8719 266.99298 296.16876Q266.60236 296.45 266.60236 296.8719L265.5086 296.8719Q265.5086 296.3875 265.83673 295.95Q266.18048 295.5125 266.7586 295.2625Q267.33673 294.9969 268.02423 294.9969Q269.1336 294.9969 269.74298 295.54376Q270.36798 296.09064 270.39923 297.04376L270.39923 299.96564Q270.39923 300.84064 270.61798 301.35626L270.61798 301.45L269.47736 301.45ZM267.68048 300.6219Q268.1961 300.6219 268.64923 300.35626Q269.10236 300.09064 269.30548 299.66876L269.30548 298.3719L268.46173 298.3719Q266.46173 298.3719 266.46173 299.54376Q266.46173 300.04376 266.80548 300.34064Q267.14923 300.6219 267.68048 300.6219ZM273.58673 295.10626L273.61798 295.90314Q274.35236 294.9969 275.52423 294.9969Q277.53986 294.9969 277.55548 297.2625L277.55548 301.45L276.46173 301.45L276.46173 297.2469Q276.46173 296.575 276.14923 296.2469Q275.85236 295.91876 275.1961 295.91876Q274.66486 295.91876 274.2586 296.2Q273.86798 296.48126 273.64923 296.9344L273.64923 301.45L272.5711 301.45L272.5711 295.10626L273.58673 295.10626ZM286.47736 301.45Q286.3836 301.2625 286.3211 300.77814Q285.5711 301.575 284.52423 301.575Q283.58673 301.575 282.97736 301.04376Q282.3836 300.5125 282.3836 299.6844Q282.3836 298.7 283.1336 298.15314Q283.8836 297.60626 285.2586 297.60626L286.30548 297.60626L286.30548 297.10626Q286.30548 296.54376 285.96173 296.21564Q285.6336 295.8719 284.96173 295.8719Q284.3836 295.8719 283.99298 296.16876Q283.60236 296.45 283.60236 296.8719L282.5086 296.8719Q282.5086 296.3875 282.83673 295.95Q283.18048 295.5125 283.7586 295.2625Q284.33673 294.9969 285.02423 294.9969Q286.1336 294.9969 286.74298 295.54376Q287.36798 296.09064 287.39923 297.04376L287.39923 299.96564Q287.39923 300.84064 287.61798 301.35626L287.61798 301.45L286.47736 301.45ZM284.68048 300.6219Q285.1961 300.6219 285.64923 300.35626Q286.10236 300.09064 286.30548 299.66876L286.30548 298.3719L285.46173 298.3719Q283.46173 298.3719 283.46173 299.54376Q283.46173 300.04376 283.80548 300.34064Q284.14923 300.6219 284.68048 300.6219ZM298.18048 299.95L299.39923 295.10626L300.47736 295.10626L298.6336 301.45L297.7586 301.45L296.21173 296.6375L294.71173 301.45L293.83673 301.45L291.99298 295.10626L293.0711 295.10626L294.3211 299.85626L295.80548 295.10626L296.66486 295.10626L298.18048 299.95ZM304.1961 301.575Q302.89923 301.575 302.08673 300.73126Q301.28986 299.8719 301.28986 298.45L301.28986 298.2625Q301.28986 297.3094 301.64923 296.575Q302.0086 295.825 302.64923 295.41876Q303.30548 294.9969 304.05548 294.9969Q305.28986 294.9969 305.97736 295.8094Q306.66486 296.6219 306.66486 298.1375L306.66486 298.59064L302.36798 298.59064Q302.39923 299.52814 302.91486 300.10626Q303.4461 300.6844 304.2586 300.6844Q304.8211 300.6844 305.21173 300.45Q305.61798 300.21564 305.93048 299.825L306.58673 300.34064Q305.78986 301.575 304.1961 301.575ZM304.05548 295.8875Q303.39923 295.8875 302.9461 296.3719Q302.5086 296.84064 302.41486 297.7L305.58673 297.7L305.58673 297.6219Q305.53986 296.79376 305.1336 296.34064Q304.74298 295.8875 304.05548 295.8875ZM310.1961 301.575Q308.89923 301.575 308.08673 300.73126Q307.28986 299.8719 307.28986 298.45L307.28986 298.2625Q307.28986 297.3094 307.64923 296.575Q308.0086 295.825 308.64923 295.41876Q309.30548 294.9969 310.05548 294.9969Q311.28986 294.9969 311.97736 295.8094Q312.66486 296.6219 312.66486 298.1375L312.66486 298.59064L308.36798 298.59064Q308.39923 299.52814 308.91486 300.10626Q309.4461 300.6844 310.2586 300.6844Q310.8211 300.6844 311.21173 300.45Q311.61798 300.21564 311.93048 299.825L312.58673 300.34064Q311.78986 301.575 310.1961 301.575ZM310.05548 295.8875Q309.39923 295.8875 308.9461 296.3719Q308.5086 296.84064 308.41486 297.7L311.58673 297.7L311.58673 297.6219Q311.53986 296.79376 311.1336 296.34064Q310.74298 295.8875 310.05548 295.8875ZM315.33673 298.5125L314.64923 299.21564L314.64923 301.45L313.5711 301.45L313.5711 292.45L314.64923 292.45L314.64923 297.8875L315.22736 297.2L317.21173 295.10626L318.52423 295.10626L316.05548 297.7625L318.8211 301.45L317.53986 301.45L315.33673 298.5125Z" fill-rule="nonzero"/><path fill="#000000" d="M336.125 300.52814L340.17188 300.52814L340.17188 301.45L334.98438 301.45L334.98438 292.91876L336.125 292.91876L336.125 300.52814ZM343.45312 301.575Q342.15625 301.575 341.34375 300.73126Q340.54688 299.8719 340.54688 298.45L340.54688 298.2625Q340.54688 297.3094 340.90625 296.575Q341.26562 295.825 341.90625 295.41876Q342.5625 294.9969 343.3125 294.9969Q344.54688 294.9969 345.23438 295.8094Q345.92188 296.6219 345.92188 298.1375L345.92188 298.59064L341.625 298.59064Q341.65625 299.52814 342.17188 300.10626Q342.70312 300.6844 343.51562 300.6844Q344.07812 300.6844 344.46875 300.45Q344.875 300.21564 345.1875 299.825L345.84375 300.34064Q345.04688 301.575 343.45312 301.575ZM343.3125 295.8875Q342.65625 295.8875 342.20312 296.3719Q341.76562 296.84064 341.67188 297.7L344.84375 297.7L344.84375 297.6219Q344.79688 296.79376 344.39062 296.34064Q344.0 295.8875 343.3125 295.8875ZM350.51562 299.7625Q350.51562 299.325 350.17188 299.09064Q349.84375 298.84064 349.01562 298.66876Q348.20312 298.4969 347.71875 298.2469Q347.23438 297.9969 347.0 297.66876Q346.78125 297.325 346.78125 296.85626Q346.78125 296.075 347.4375 295.54376Q348.09375 294.9969 349.125 294.9969Q350.20312 294.9969 350.85938 295.5594Q351.53125 296.10626 351.53125 296.96564L350.45312 296.96564Q350.45312 296.52814 350.0625 296.21564Q349.6875 295.8875 349.125 295.8875Q348.53125 295.8875 348.1875 296.15314Q347.85938 296.40314 347.85938 296.8094Q347.85938 297.2 348.17188 297.40314Q348.48438 297.60626 349.29688 297.79376Q350.10938 297.96564 350.60938 298.21564Q351.10938 298.46564 351.34375 298.825Q351.59375 299.1844 351.59375 299.6844Q351.59375 300.54376 350.90625 301.0594Q350.23438 301.575 349.15625 301.575Q348.39062 301.575 347.79688 301.3094Q347.21875 301.02814 346.89062 300.54376Q346.5625 300.0594 346.5625 299.4969L347.64062 299.4969Q347.67188 300.04376 348.07812 300.3719Q348.48438 300.6844 349.15625 300.6844Q349.76562 300.6844 350.14062 300.4344Q350.51562 300.1844 350.51562 299.7625ZM356.51562 299.7625Q356.51562 299.325 356.17188 299.09064Q355.84375 298.84064 355.01562 298.66876Q354.20312 298.4969 353.71875 298.2469Q353.23438 297.9969 353.0 297.66876Q352.78125 297.325 352.78125 296.85626Q352.78125 296.075 353.4375 295.54376Q354.09375 294.9969 355.125 294.9969Q356.20312 294.9969 356.85938 295.5594Q357.53125 296.10626 357.53125 296.96564L356.45312 296.96564Q356.45312 296.52814 356.0625 296.21564Q355.6875 295.8875 355.125 295.8875Q354.53125 295.8875 354.1875 296.15314Q353.85938 296.40314 353.85938 296.8094Q353.85938 297.2 354.17188 297.40314Q354.48438 297.60626 355.29688 297.79376Q356.10938 297.96564 356.60938 298.21564Q357.10938 298.46564 357.34375 298.825Q357.59375 299.1844 357.59375 299.6844Q357.59375 300.54376 356.90625 301.0594Q356.23438 301.575 355.15625 301.575Q354.39062 301.575 353.79688 301.3094Q353.21875 301.02814 352.89062 300.54376Q352.5625 300.0594 352.5625 299.4969L353.64062 299.4969Q353.67188 300.04376 354.07812 300.3719Q354.48438 300.6844 355.15625 300.6844Q355.76562 300.6844 356.14062 300.4344Q356.51562 300.1844 356.51562 299.7625ZM363.29688 293.575L363.29688 295.10626L364.46875 295.10626L364.46875 295.95L363.29688 295.95L363.29688 299.8719Q363.29688 300.2625 363.45312 300.45Q363.60938 300.6375 363.98438 300.6375Q364.17188 300.6375 364.5 300.575L364.5 301.45Q364.07812 301.575 363.67188 301.575Q362.95312 301.575 362.57812 301.1375Q362.20312 300.6844 362.20312 299.8719L362.20312 295.95L361.04688 295.95L361.04688 295.10626L362.20312 295.10626L362.20312 293.575L363.29688 293.575ZM366.90625 295.8719Q367.625 294.9969 368.78125 294.9969Q370.79688 294.9969 370.8125 297.2625L370.8125 301.45L369.71875 301.45L369.71875 297.2469Q369.71875 296.575 369.40625 296.2469Q369.10938 295.91876 368.45312 295.91876Q367.92188 295.91876 367.51562 296.2Q367.125 296.48126 366.90625 296.9344L366.90625 301.45L365.82812 301.45L365.82812 292.45L366.90625 292.45L366.90625 295.8719ZM376.73438 301.45Q376.64062 301.2625 376.57812 300.77814Q375.82812 301.575 374.78125 301.575Q373.84375 301.575 373.23438 301.04376Q372.64062 300.5125 372.64062 299.6844Q372.64062 298.7 373.39062 298.15314Q374.14062 297.60626 375.51562 297.60626L376.5625 297.60626L376.5625 297.10626Q376.5625 296.54376 376.21875 296.21564Q375.89062 295.8719 375.21875 295.8719Q374.64062 295.8719 374.25 296.16876Q373.85938 296.45 373.85938 296.8719L372.76562 296.8719Q372.76562 296.3875 373.09375 295.95Q373.4375 295.5125 374.01562 295.2625Q374.59375 294.9969 375.28125 294.9969Q376.39062 294.9969 377.0 295.54376Q377.625 296.09064 377.65625 297.04376L377.65625 299.96564Q377.65625 300.84064 377.875 301.35626L377.875 301.45L376.73438 301.45ZM374.9375 300.6219Q375.45312 300.6219 375.90625 300.35626Q376.35938 300.09064 376.5625 299.66876L376.5625 298.3719L375.71875 298.3719Q373.71875 298.3719 373.71875 299.54376Q373.71875 300.04376 374.0625 300.34064Q374.40625 300.6219 374.9375 300.6219ZM380.84375 295.10626L380.875 295.90314Q381.60938 294.9969 382.78125 294.9969Q384.79688 294.9969 384.8125 297.2625L384.8125 301.45L383.71875 301.45L383.71875 297.2469Q383.71875 296.575 383.40625 296.2469Q383.10938 295.91876 382.45312 295.91876Q381.92188 295.91876 381.51562 296.2Q381.125 296.48126 380.90625 296.9344L380.90625 301.45L379.82812 301.45L379.82812 295.10626L380.84375 295.10626ZM393.73438 301.45Q393.64062 301.2625 393.57812 300.77814Q392.82812 301.575 391.78125 301.575Q390.84375 301.575 390.23438 301.04376Q389.64062 300.5125 389.64062 299.6844Q389.64062 298.7 390.39062 298.15314Q391.14062 297.60626 392.51562 297.60626L393.5625 297.60626L393.5625 297.10626Q393.5625 296.54376 393.21875 296.21564Q392.89062 295.8719 392.21875 295.8719Q391.64062 295.8719 391.25 296.16876Q390.85938 296.45 390.85938 296.8719L389.76562 296.8719Q389.76562 296.3875 390.09375 295.95Q390.4375 295.5125 391.01562 295.2625Q391.59375 294.9969 392.28125 294.9969Q393.39062 294.9969 394.0 295.54376Q394.625 296.09064 394.65625 297.04376L394.65625 299.96564Q394.65625 300.84064 394.875 301.35626L394.875 301.45L393.73438 301.45ZM391.9375 300.6219Q392.45312 300.6219 392.90625 300.35626Q393.35938 300.09064 393.5625 299.66876L393.5625 298.3719L392.71875 298.3719Q390.71875 298.3719 390.71875 299.54376Q390.71875 300.04376 391.0625 300.34064Q391.40625 300.6219 391.9375 300.6219ZM400.84375 295.10626L400.875 295.8094Q401.5625 294.9969 402.75 294.9969Q404.07812 294.9969 404.5625 296.0125Q404.875 295.5594 405.375 295.27814Q405.89062 294.9969 406.57812 294.9969Q408.67188 294.9969 408.70312 297.2L408.70312 301.45L407.625 301.45L407.625 297.2625Q407.625 296.59064 407.3125 296.2625Q407.0 295.91876 406.26562 295.91876Q405.65625 295.91876 405.25 296.27814Q404.85938 296.6375 404.79688 297.2469L404.79688 301.45L403.71875 301.45L403.71875 297.29376Q403.71875 295.91876 402.35938 295.91876Q401.29688 295.91876 400.90625 296.825L400.90625 301.45L399.8125 301.45L399.8125 295.10626L400.84375 295.10626ZM410.53125 298.21564Q410.53125 297.29376 410.89062 296.54376Q411.26562 295.79376 411.92188 295.40314Q412.57812 294.9969 413.40625 294.9969Q414.70312 294.9969 415.5 295.8875Q416.3125 296.77814 416.3125 298.27814L416.3125 298.35626Q416.3125 299.27814 415.95312 300.0125Q415.59375 300.7469 414.9375 301.16876Q414.28125 301.575 413.42188 301.575Q412.14062 301.575 411.32812 300.6844Q410.53125 299.77814 410.53125 298.29376L410.53125 298.21564ZM411.625 298.35626Q411.625 299.40314 412.10938 300.04376Q412.60938 300.6844 413.42188 300.6844Q414.25 300.6844 414.73438 300.04376Q415.21875 299.3875 415.21875 298.21564Q415.21875 297.1844 414.71875 296.54376Q414.23438 295.8875 413.40625 295.8875Q412.60938 295.8875 412.10938 296.52814Q411.625 297.15314 411.625 298.35626ZM418.84375 295.10626L418.875 295.90314Q419.60938 294.9969 420.78125 294.9969Q422.79688 294.9969 422.8125 297.2625L422.8125 301.45L421.71875 301.45L421.71875 297.2469Q421.71875 296.575 421.40625 296.2469Q421.10938 295.91876 420.45312 295.91876Q419.92188 295.91876 419.51562 296.2Q419.125 296.48126 418.90625 296.9344L418.90625 301.45L417.82812 301.45L417.82812 295.10626L418.84375 295.10626ZM426.29688 293.575L426.29688 295.10626L427.46875 295.10626L427.46875 295.95L426.29688 295.95L426.29688 299.8719Q426.29688 300.2625 426.45312 300.45Q426.60938 300.6375 426.98438 300.6375Q427.17188 300.6375 427.5 300.575L427.5 301.45Q427.07812 301.575 426.67188 301.575Q425.95312 301.575 425.57812 301.1375Q425.20312 300.6844 425.20312 299.8719L425.20312 295.95L424.04688 295.95L424.04688 295.10626L425.20312 295.10626L425.20312 293.575L426.29688 293.575ZM429.90625 295.8719Q430.625 294.9969 431.78125 294.9969Q433.79688 294.9969 433.8125 297.2625L433.8125 301.45L432.71875 301.45L432.71875 297.2469Q432.71875 296.575 432.40625 296.2469Q432.10938 295.91876 431.45312 295.91876Q430.92188 295.91876 430.51562 296.2Q430.125 296.48126 429.90625 296.9344L429.90625 301.45L428.82812 301.45L428.82812 292.45L429.90625 292.45L429.90625 295.8719Z" fill-rule="nonzero"/><path fill="#000000" d="M454.38202 300.52814L458.4289 300.52814L458.4289 301.45L453.2414 301.45L453.2414 292.91876L454.38202 292.91876L454.38202 300.52814ZM461.71014 301.575Q460.41327 301.575 459.60077 300.73126Q458.8039 299.8719 458.8039 298.45L458.8039 298.2625Q458.8039 297.3094 459.16327 296.575Q459.52264 295.825 460.16327 295.41876Q460.81952 294.9969 461.56952 294.9969Q462.8039 294.9969 463.4914 295.8094Q464.1789 296.6219 464.1789 298.1375L464.1789 298.59064L459.88202 298.59064Q459.91327 299.52814 460.4289 300.10626Q460.96014 300.6844 461.77264 300.6844Q462.33514 300.6844 462.72577 300.45Q463.13202 300.21564 463.44452 299.825L464.10077 300.34064Q463.3039 301.575 461.71014 301.575ZM461.56952 295.8875Q460.91327 295.8875 460.46014 296.3719Q460.02264 296.84064 459.9289 297.7L463.10077 297.7L463.10077 297.6219Q463.0539 296.79376 462.64764 296.34064Q462.25702 295.8875 461.56952 295.8875ZM468.77264 299.7625Q468.77264 299.325 468.4289 299.09064Q468.10077 298.84064 467.27264 298.66876Q466.46014 298.4969 465.97577 298.2469Q465.4914 297.9969 465.25702 297.66876Q465.03827 297.325 465.03827 296.85626Q465.03827 296.075 465.69452 295.54376Q466.35077 294.9969 467.38202 294.9969Q468.46014 294.9969 469.1164 295.5594Q469.78827 296.10626 469.78827 296.96564L468.71014 296.96564Q468.71014 296.52814 468.31952 296.21564Q467.94452 295.8875 467.38202 295.8875Q466.78827 295.8875 466.44452 296.15314Q466.1164 296.40314 466.1164 296.8094Q466.1164 297.2 466.4289 297.40314Q466.7414 297.60626 467.5539 297.79376Q468.3664 297.96564 468.8664 298.21564Q469.3664 298.46564 469.60077 298.825Q469.85077 299.1844 469.85077 299.6844Q469.85077 300.54376 469.16327 301.0594Q468.4914 301.575 467.41327 301.575Q466.64764 301.575 466.0539 301.3094Q465.47577 301.02814 465.14764 300.54376Q464.81952 300.0594 464.81952 299.4969L465.89764 299.4969Q465.9289 300.04376 466.33514 300.3719Q466.7414 300.6844 467.41327 300.6844Q468.02264 300.6844 468.39764 300.4344Q468.77264 300.1844 468.77264 299.7625ZM474.77264 299.7625Q474.77264 299.325 474.4289 299.09064Q474.10077 298.84064 473.27264 298.66876Q472.46014 298.4969 471.97577 298.2469Q471.4914 297.9969 471.25702 297.66876Q471.03827 297.325 471.03827 296.85626Q471.03827 296.075 471.69452 295.54376Q472.35077 294.9969 473.38202 294.9969Q474.46014 294.9969 475.1164 295.5594Q475.78827 296.10626 475.78827 296.96564L474.71014 296.96564Q474.71014 296.52814 474.31952 296.21564Q473.94452 295.8875 473.38202 295.8875Q472.78827 295.8875 472.44452 296.15314Q472.1164 296.40314 472.1164 296.8094Q472.1164 297.2 472.4289 297.40314Q472.7414 297.60626 473.5539 297.79376Q474.3664 297.96564 474.8664 298.21564Q475.3664 298.46564 475.60077 298.825Q475.85077 299.1844 475.85077 299.6844Q475.85077 300.54376 475.16327 301.0594Q474.4914 301.575 473.41327 301.575Q472.64764 301.575 472.0539 301.3094Q471.47577 301.02814 471.14764 300.54376Q470.81952 300.0594 470.81952 299.4969L471.89764 299.4969Q471.9289 300.04376 472.33514 300.3719Q472.7414 300.6844 473.41327 300.6844Q474.02264 300.6844 474.39764 300.4344Q474.77264 300.1844 474.77264 299.7625ZM481.5539 293.575L481.5539 295.10626L482.72577 295.10626L482.72577 295.95L481.5539 295.95L481.5539 299.8719Q481.5539 300.2625 481.71014 300.45Q481.8664 300.6375 482.2414 300.6375Q482.4289 300.6375 482.75702 300.575L482.75702 301.45Q482.33514 301.575 481.9289 301.575Q481.21014 301.575 480.83514 301.1375Q480.46014 300.6844 480.46014 299.8719L480.46014 295.95L479.3039 295.95L479.3039 295.10626L480.46014 295.10626L480.46014 293.575L481.5539 293.575ZM485.16327 295.8719Q485.88202 294.9969 487.03827 294.9969Q489.0539 294.9969 489.06952 297.2625L489.06952 301.45L487.97577 301.45L487.97577 297.2469Q487.97577 296.575 487.66327 296.2469Q487.3664 295.91876 486.71014 295.91876Q486.1789 295.91876 485.77264 296.2Q485.38202 296.48126 485.16327 296.9344L485.16327 301.45L484.08514 301.45L484.08514 292.45L485.16327 292.45L485.16327 295.8719ZM494.9914 301.45Q494.89764 301.2625 494.83514 300.77814Q494.08514 301.575 493.03827 301.575Q492.10077 301.575 491.4914 301.04376Q490.89764 300.5125 490.89764 299.6844Q490.89764 298.7 491.64764 298.15314Q492.39764 297.60626 493.77264 297.60626L494.81952 297.60626L494.81952 297.10626Q494.81952 296.54376 494.47577 296.21564Q494.14764 295.8719 493.47577 295.8719Q492.89764 295.8719 492.50702 296.16876Q492.1164 296.45 492.1164 296.8719L491.02264 296.8719Q491.02264 296.3875 491.35077 295.95Q491.69452 295.5125 492.27264 295.2625Q492.85077 294.9969 493.53827 294.9969Q494.64764 294.9969 495.25702 295.54376Q495.88202 296.09064 495.91327 297.04376L495.91327 299.96564Q495.91327 300.84064 496.13202 301.35626L496.13202 301.45L494.9914 301.45ZM493.19452 300.6219Q493.71014 300.6219 494.16327 300.35626Q494.6164 300.09064 494.81952 299.66876L494.81952 298.3719L493.97577 298.3719Q491.97577 298.3719 491.97577 299.54376Q491.97577 300.04376 492.31952 300.34064Q492.66327 300.6219 493.19452 300.6219ZM499.10077 295.10626L499.13202 295.90314Q499.8664 294.9969 501.03827 294.9969Q503.0539 294.9969 503.06952 297.2625L503.06952 301.45L501.97577 301.45L501.97577 297.2469Q501.97577 296.575 501.66327 296.2469Q501.3664 295.91876 500.71014 295.91876Q500.1789 295.91876 499.77264 296.2Q499.38202 296.48126 499.16327 296.9344L499.16327 301.45L498.08514 301.45L498.08514 295.10626L499.10077 295.10626ZM511.9914 301.45Q511.89764 301.2625 511.83514 300.77814Q511.08514 301.575 510.03827 301.575Q509.10077 301.575 508.4914 301.04376Q507.89764 300.5125 507.89764 299.6844Q507.89764 298.7 508.64764 298.15314Q509.39764 297.60626 510.77264 297.60626L511.81952 297.60626L511.81952 297.10626Q511.81952 296.54376 511.47577 296.21564Q511.14764 295.8719 510.47577 295.8719Q509.89764 295.8719 509.50702 296.16876Q509.1164 296.45 509.1164 296.8719L508.02264 296.8719Q508.02264 296.3875 508.35077 295.95Q508.69452 295.5125 509.27264 295.2625Q509.85077 294.9969 510.53827 294.9969Q511.64764 294.9969 512.257 295.54376Q512.882 296.09064 512.91327 297.04376L512.91327 299.96564Q512.91327 300.84064 513.132 301.35626L513.132 301.45L511.9914 301.45ZM510.19452 300.6219Q510.71014 300.6219 511.16327 300.35626Q511.6164 300.09064 511.81952 299.66876L511.81952 298.3719L510.97577 298.3719Q508.97577 298.3719 508.97577 299.54376Q508.97577 300.04376 509.31952 300.34064Q509.66327 300.6219 510.19452 300.6219ZM520.14764 299.85626L521.632 295.10626L522.78827 295.10626L520.2414 302.4344Q519.64764 304.0125 518.3664 304.0125L518.14764 303.9969L517.757 303.91876L517.757 303.04376L518.03827 303.0594Q518.60077 303.0594 518.89764 302.84064Q519.21014 302.6219 519.41327 302.02814L519.64764 301.3719L517.382 295.10626L518.5695 295.10626L520.14764 299.85626ZM526.71014 301.575Q525.41327 301.575 524.60077 300.73126Q523.8039 299.8719 523.8039 298.45L523.8039 298.2625Q523.8039 297.3094 524.16327 296.575Q524.52264 295.825 525.16327 295.41876Q525.8195 294.9969 526.5695 294.9969Q527.8039 294.9969 528.4914 295.8094Q529.1789 296.6219 529.1789 298.1375L529.1789 298.59064L524.882 298.59064Q524.91327 299.52814 525.4289 300.10626Q525.96014 300.6844 526.77264 300.6844Q527.33514 300.6844 527.72577 300.45Q528.132 300.21564 528.4445 299.825L529.10077 300.34064Q528.3039 301.575 526.71014 301.575ZM526.5695 295.8875Q525.91327 295.8875 525.46014 296.3719Q525.02264 296.84064 524.9289 297.7L528.10077 297.7L528.10077 297.6219Q528.0539 296.79376 527.64764 296.34064Q527.257 295.8875 526.5695 295.8875ZM533.9914 301.45Q533.89764 301.2625 533.83514 300.77814Q533.08514 301.575 532.03827 301.575Q531.10077 301.575 530.4914 301.04376Q529.89764 300.5125 529.89764 299.6844Q529.89764 298.7 530.64764 298.15314Q531.39764 297.60626 532.77264 297.60626L533.8195 297.60626L533.8195 297.10626Q533.8195 296.54376 533.47577 296.21564Q533.14764 295.8719 532.47577 295.8719Q531.89764 295.8719 531.507 296.16876Q531.1164 296.45 531.1164 296.8719L530.02264 296.8719Q530.02264 296.3875 530.35077 295.95Q530.6945 295.5125 531.27264 295.2625Q531.85077 294.9969 532.53827 294.9969Q533.64764 294.9969 534.257 295.54376Q534.882 296.09064 534.91327 297.04376L534.91327 299.96564Q534.91327 300.84064 535.132 301.35626L535.132 301.45L533.9914 301.45ZM532.1945 300.6219Q532.71014 300.6219 533.16327 300.35626Q533.6164 300.09064 533.8195 299.66876L533.8195 298.3719L532.97577 298.3719Q530.97577 298.3719 530.97577 299.54376Q530.97577 300.04376 531.3195 300.34064Q531.66327 300.6219 532.1945 300.6219ZM540.14764 296.075Q539.89764 296.04376 539.6164 296.04376Q538.53827 296.04376 538.16327 296.95L538.16327 301.45L537.08514 301.45L537.08514 295.10626L538.132 295.10626L538.14764 295.84064Q538.6789 294.9969 539.66327 294.9969Q539.97577 294.9969 540.14764 295.075L540.14764 296.075Z" fill-rule="nonzero"/><path fill="#000000" d="M564.95154 292.91876L567.7484 299.8719L570.52966 292.91876L571.9984 292.91876L571.9984 301.45L570.8734 301.45L570.8734 298.1219L570.9828 294.54376L568.1703 301.45L567.3109 301.45L564.51404 294.5594L564.6234 298.1219L564.6234 301.45L563.4984 301.45L563.4984 292.91876L564.95154 292.91876ZM573.0453 298.21564Q573.0453 297.29376 573.40466 296.54376Q573.77966 295.79376 574.4359 295.40314Q575.09216 294.9969 575.9203 294.9969Q577.21716 294.9969 578.01404 295.8875Q578.82654 296.77814 578.82654 298.27814L578.82654 298.35626Q578.82654 299.27814 578.46716 300.0125Q578.1078 300.7469 577.45154 301.16876Q576.7953 301.575 575.9359 301.575Q574.65466 301.575 573.84216 300.6844Q573.0453 299.77814 573.0453 298.29376L573.0453 298.21564ZM574.13904 298.35626Q574.13904 299.40314 574.6234 300.04376Q575.1234 300.6844 575.9359 300.6844Q576.76404 300.6844 577.2484 300.04376Q577.7328 299.3875 577.7328 298.21564Q577.7328 297.1844 577.2328 296.54376Q576.7484 295.8875 575.9203 295.8875Q575.1234 295.8875 574.6234 296.52814Q574.13904 297.15314 574.13904 298.35626ZM583.40466 296.075Q583.15466 296.04376 582.8734 296.04376Q581.7953 296.04376 581.4203 296.95L581.4203 301.45L580.34216 301.45L580.34216 295.10626L581.38904 295.10626L581.40466 295.84064Q581.9359 294.9969 582.9203 294.9969Q583.2328 294.9969 583.40466 295.075L583.40466 296.075ZM586.96716 301.575Q585.6703 301.575 584.8578 300.73126Q584.0609 299.8719 584.0609 298.45L584.0609 298.2625Q584.0609 297.3094 584.4203 296.575Q584.77966 295.825 585.4203 295.41876Q586.07654 294.9969 586.82654 294.9969Q588.0609 294.9969 588.7484 295.8094Q589.4359 296.6219 589.4359 298.1375L589.4359 298.59064L585.13904 298.59064Q585.1703 299.52814 585.6859 300.10626Q586.21716 300.6844 587.02966 300.6844Q587.59216 300.6844 587.9828 300.45Q588.38904 300.21564 588.70154 299.825L589.3578 300.34064Q588.5609 301.575 586.96716 301.575ZM586.82654 295.8875Q586.1703 295.8875 585.71716 296.3719Q585.27966 296.84064 585.1859 297.7L588.3578 297.7L588.3578 297.6219Q588.3109 296.79376 587.90466 296.34064Q587.51404 295.8875 586.82654 295.8875ZM594.8109 293.575L594.8109 295.10626L595.9828 295.10626L595.9828 295.95L594.8109 295.95L594.8109 299.8719Q594.8109 300.2625 594.96716 300.45Q595.1234 300.6375 595.4984 300.6375Q595.6859 300.6375 596.01404 300.575L596.01404 301.45Q595.59216 301.575 595.1859 301.575Q594.46716 301.575 594.09216 301.1375Q593.71716 300.6844 593.71716 299.8719L593.71716 295.95L592.5609 295.95L592.5609 295.10626L593.71716 295.10626L593.71716 293.575L594.8109 293.575ZM598.4203 295.8719Q599.13904 294.9969 600.2953 294.9969Q602.3109 294.9969 602.32654 297.2625L602.32654 301.45L601.2328 301.45L601.2328 297.2469Q601.2328 296.575 600.9203 296.2469Q600.6234 295.91876 599.96716 295.91876Q599.4359 295.91876 599.02966 296.2Q598.63904 296.48126 598.4203 296.9344L598.4203 301.45L597.34216 301.45L597.34216 292.45L598.4203 292.45L598.4203 295.8719ZM608.2484 301.45Q608.15466 301.2625 608.09216 300.77814Q607.34216 301.575 606.2953 301.575Q605.3578 301.575 604.7484 301.04376Q604.15466 300.5125 604.15466 299.6844Q604.15466 298.7 604.90466 298.15314Q605.65466 297.60626 607.02966 297.60626L608.07654 297.60626L608.07654 297.10626Q608.07654 296.54376 607.7328 296.21564Q607.40466 295.8719 606.7328 295.8719Q606.15466 295.8719 605.76404 296.16876Q605.3734 296.45 605.3734 296.8719L604.27966 296.8719Q604.27966 296.3875 604.6078 295.95Q604.95154 295.5125 605.52966 295.2625Q606.1078 294.9969 606.7953 294.9969Q607.90466 294.9969 608.51404 295.54376Q609.13904 296.09064 609.1703 297.04376L609.1703 299.96564Q609.1703 300.84064 609.38904 301.35626L609.38904 301.45L608.2484 301.45ZM606.45154 300.6219Q606.96716 300.6219 607.4203 300.35626Q607.8734 300.09064 608.07654 299.66876L608.07654 298.3719L607.2328 298.3719Q605.2328 298.3719 605.2328 299.54376Q605.2328 300.04376 605.57654 300.34064Q605.9203 300.6219 606.45154 300.6219ZM612.3578 295.10626L612.38904 295.90314Q613.1234 294.9969 614.2953 294.9969Q616.3109 294.9969 616.32654 297.2625L616.32654 301.45L615.2328 301.45L615.2328 297.2469Q615.2328 296.575 614.9203 296.2469Q614.6234 295.91876 613.96716 295.91876Q613.4359 295.91876 613.02966 296.2Q612.63904 296.48126 612.4203 296.9344L612.4203 301.45L611.34216 301.45L611.34216 295.10626L612.3578 295.10626ZM625.2484 301.45Q625.15466 301.2625 625.09216 300.77814Q624.34216 301.575 623.2953 301.575Q622.3578 301.575 621.7484 301.04376Q621.15466 300.5125 621.15466 299.6844Q621.15466 298.7 621.90466 298.15314Q622.65466 297.60626 624.02966 297.60626L625.07654 297.60626L625.07654 297.10626Q625.07654 296.54376 624.7328 296.21564Q624.40466 295.8719 623.7328 295.8719Q623.15466 295.8719 622.76404 296.16876Q622.3734 296.45 622.3734 296.8719L621.27966 296.8719Q621.27966 296.3875 621.6078 295.95Q621.95154 295.5125 622.52966 295.2625Q623.1078 294.9969 623.7953 294.9969Q624.90466 294.9969 625.51404 295.54376Q626.13904 296.09064 626.1703 297.04376L626.1703 299.96564Q626.1703 300.84064 626.38904 301.35626L626.38904 301.45L625.2484 301.45ZM623.45154 300.6219Q623.96716 300.6219 624.4203 300.35626Q624.8734 300.09064 625.07654 299.66876L625.07654 298.3719L624.2328 298.3719Q622.2328 298.3719 622.2328 299.54376Q622.2328 300.04376 622.57654 300.34064Q622.9203 300.6219 623.45154 300.6219ZM633.40466 299.85626L634.88904 295.10626L636.0453 295.10626L633.4984 302.4344Q632.90466 304.0125 631.6234 304.0125L631.40466 303.9969L631.01404 303.91876L631.01404 303.04376L631.2953 303.0594Q631.8578 303.0594 632.15466 302.84064Q632.46716 302.6219 632.6703 302.02814L632.90466 301.3719L630.63904 295.10626L631.82654 295.10626L633.40466 299.85626ZM639.96716 301.575Q638.6703 301.575 637.8578 300.73126Q637.0609 299.8719 637.0609 298.45L637.0609 298.2625Q637.0609 297.3094 637.4203 296.575Q637.77966 295.825 638.4203 295.41876Q639.07654 294.9969 639.82654 294.9969Q641.0609 294.9969 641.7484 295.8094Q642.4359 296.6219 642.4359 298.1375L642.4359 298.59064L638.13904 298.59064Q638.1703 299.52814 638.6859 300.10626Q639.21716 300.6844 640.02966 300.6844Q640.59216 300.6844 640.9828 300.45Q641.38904 300.21564 641.70154 299.825L642.3578 300.34064Q641.5609 301.575 639.96716 301.575ZM639.82654 295.8875Q639.1703 295.8875 638.71716 296.3719Q638.27966 296.84064 638.1859 297.7L641.3578 297.7L641.3578 297.6219Q641.3109 296.79376 640.90466 296.34064Q640.51404 295.8875 639.82654 295.8875ZM647.2484 301.45Q647.15466 301.2625 647.09216 300.77814Q646.34216 301.575 645.2953 301.575Q644.3578 301.575 643.7484 301.04376Q643.15466 300.5125 643.15466 299.6844Q643.15466 298.7 643.90466 298.15314Q644.65466 297.60626 646.02966 297.60626L647.07654 297.60626L647.07654 297.10626Q647.07654 296.54376 646.7328 296.21564Q646.40466 295.8719 645.7328 295.8719Q645.15466 295.8719 644.76404 296.16876Q644.3734 296.45 644.3734 296.8719L643.27966 296.8719Q643.27966 296.3875 643.6078 295.95Q643.95154 295.5125 644.52966 295.2625Q645.1078 294.9969 645.7953 294.9969Q646.90466 294.9969 647.51404 295.54376Q648.13904 296.09064 648.1703 297.04376L648.1703 299.96564Q648.1703 300.84064 648.38904 301.35626L648.38904 301.45L647.2484 301.45ZM645.45154 300.6219Q645.96716 300.6219 646.4203 300.35626Q646.8734 300.09064 647.07654 299.66876L647.07654 298.3719L646.2328 298.3719Q644.2328 298.3719 644.2328 299.54376Q644.2328 300.04376 644.57654 300.34064Q644.9203 300.6219 645.45154 300.6219ZM653.40466 296.075Q653.15466 296.04376 652.8734 296.04376Q651.7953 296.04376 651.4203 296.95L651.4203 301.45L650.34216 301.45L650.34216 295.10626L651.38904 295.10626L651.40466 295.84064Q651.9359 294.9969 652.9203 294.9969Q653.2328 294.9969 653.40466 295.075L653.40466 296.075Z" fill-rule="nonzero"/><path fill="#757575" d="M30.01875 24.878124L25.45625 24.878124L25.45625 37.55L23.596874 37.55L23.596874 24.878124L19.034374 24.878124L19.034374 23.33125L30.01875 23.33125L30.01875 24.878124ZM33.878124 37.55L32.08125 37.55L32.08125 26.9875L33.878124 26.9875L33.878124 37.55ZM31.925 24.175Q31.925 23.7375 32.190624 23.440624Q32.471874 23.128124 32.9875 23.128124Q33.51875 23.128124 33.784374 23.440624Q34.065624 23.7375 34.065624 24.175Q34.065624 24.6125 33.784374 24.909374Q33.51875 25.20625 32.9875 25.20625Q32.471874 25.20625 32.190624 24.909374Q31.925 24.6125 31.925 24.175ZM38.6125 26.9875L38.659374 28.159374Q39.83125 26.784374 41.8 26.784374Q44.01875 26.784374 44.815624 28.4875Q45.346874 27.721874 46.190624 27.253124Q47.034374 26.784374 48.190624 26.784374Q51.659374 26.784374 51.721874 30.471874L51.721874 37.55L49.909374 37.55L49.909374 30.58125Q49.909374 29.440624 49.39375 28.878124Q48.878124 28.315624 47.659374 28.315624Q46.659374 28.315624 45.9875 28.925Q45.33125 29.51875 45.221874 30.534374L45.221874 37.55L43.409374 37.55L43.409374 30.628124Q43.409374 28.315624 41.14375 28.315624Q39.3625 28.315624 38.721874 29.83125L38.721874 37.55L36.909374 37.55L36.909374 26.9875L38.6125 26.9875ZM59.3 37.753124Q57.159374 37.753124 55.8 36.346874Q54.45625 34.925 54.45625 32.565624L54.45625 32.221874Q54.45625 30.659374 55.05 29.425Q55.659374 28.190624 56.7375 27.4875Q57.815624 26.784374 59.08125 26.784374Q61.14375 26.784374 62.284374 28.14375Q63.425 29.503124 63.425 32.034374L63.425 32.784374L56.26875 32.784374Q56.3 34.346874 57.175 35.315624Q58.05 36.26875 59.39375 36.26875Q60.3625 36.26875 61.01875 35.878124Q61.690624 35.4875 62.190624 34.846874L63.284374 35.70625Q61.95625 37.753124 59.3 37.753124ZM59.08125 28.26875Q57.9875 28.26875 57.2375 29.065624Q56.503124 29.8625 56.33125 31.3L61.6125 31.3L61.6125 31.159374Q61.534374 29.784374 60.8625 29.034374Q60.20625 28.26875 59.08125 28.26875ZM73.3625 24.425L73.3625 26.9875L75.34688 26.9875L75.34688 28.378124L73.3625 28.378124L73.3625 34.925Q73.3625 35.565624 73.62813 35.89375Q73.89375 36.20625 74.53438 36.20625Q74.84688 36.20625 75.39375 36.08125L75.39375 37.55Q74.675 37.753124 74.00313 37.753124Q72.8 37.753124 72.175 37.01875Q71.56563 36.284374 71.56563 34.925L71.56563 28.378124L69.64375 28.378124L69.64375 26.9875L71.56563 26.9875L71.56563 24.425L73.3625 24.425ZM77.44063 32.175Q77.44063 30.6125 78.05 29.378124Q78.65938 28.128124 79.7375 27.45625Q80.83125 26.784374 82.2375 26.784374Q84.39375 26.784374 85.72188 28.284374Q87.06563 29.76875 87.06563 32.253124L87.06563 32.378124Q87.06563 33.925 86.47188 35.159374Q85.87813 36.378124 84.76875 37.065624Q83.675 37.753124 82.25313 37.753124Q80.1125 37.753124 78.76875 36.253124Q77.44063 34.753124 77.44063 32.3L77.44063 32.175ZM79.25313 32.378124Q79.25313 34.14375 80.06563 35.20625Q80.89375 36.26875 82.25313 36.26875Q83.62813 36.26875 84.44063 35.190624Q85.25313 34.1125 85.25313 32.175Q85.25313 30.425 84.425 29.346874Q83.59688 28.26875 82.2375 28.26875Q80.89375 28.26875 80.06563 29.33125Q79.25313 30.39375 79.25313 32.378124ZM96.08125 31.9875L96.08125 37.55L94.20625 37.55L94.20625 23.33125L99.44063 23.33125Q101.78438 23.33125 103.09688 24.51875Q104.425 25.70625 104.425 27.675Q104.425 29.753124 103.12813 30.878124Q101.83125 31.9875 99.425 31.9875L96.08125 31.9875ZM96.08125 30.45625L99.44063 30.45625Q100.95625 30.45625 101.75313 29.753124Q102.55 29.034374 102.55 27.690624Q102.55 26.425 101.75313 25.675Q100.95625 24.909374 99.55 24.878124L96.08125 24.878124L96.08125 30.45625ZM111.3 37.753124Q109.15938 37.753124 107.8 36.346874Q106.45625 34.925 106.45625 32.565624L106.45625 32.221874Q106.45625 30.659374 107.05 29.425Q107.65938 28.190624 108.7375 27.4875Q109.81563 26.784374 111.08125 26.784374Q113.14375 26.784374 114.28438 28.14375Q115.425 29.503124 115.425 32.034374L115.425 32.784374L108.26875 32.784374Q108.3 34.346874 109.175 35.315624Q110.05 36.26875 111.39375 36.26875Q112.3625 36.26875 113.01875 35.878124Q113.69063 35.4875 114.19063 34.846874L115.28438 35.70625Q113.95625 37.753124 111.3 37.753124ZM111.08125 28.26875Q109.9875 28.26875 109.2375 29.065624Q108.50313 29.8625 108.33125 31.3L113.6125 31.3L113.6125 31.159374Q113.53438 29.784374 112.8625 29.034374Q112.20625 28.26875 111.08125 28.26875ZM123.01875 28.596874Q122.6125 28.534374 122.14375 28.534374Q120.3625 28.534374 119.72188 30.05L119.72188 37.55L117.925 37.55L117.925 26.9875L119.675 26.9875L119.70625 28.20625Q120.59688 26.784374 122.22188 26.784374Q122.75313 26.784374 123.01875 26.925L123.01875 28.596874ZM129.15938 36.26875Q130.12813 36.26875 130.84688 35.690624Q131.56563 35.096874 131.64375 34.221874L133.3625 34.221874Q133.3 35.128124 132.72188 35.95625Q132.15938 36.76875 131.19063 37.26875Q130.2375 37.753124 129.15938 37.753124Q127.00313 37.753124 125.72188 36.315624Q124.45625 34.8625 124.45625 32.3625L124.45625 32.065624Q124.45625 30.51875 125.01875 29.315624Q125.58125 28.1125 126.64375 27.45625Q127.70625 26.784374 129.14375 26.784374Q130.925 26.784374 132.09688 27.846874Q133.28438 28.909374 133.3625 30.6125L131.64375 30.6125Q131.56563 29.596874 130.8625 28.940624Q130.175 28.26875 129.14375 28.26875Q127.76875 28.26875 127.00313 29.26875Q126.25313 30.253124 126.25313 32.128124L126.25313 32.471874Q126.25313 34.3 127.00313 35.284374Q127.75313 36.26875 129.15938 36.26875ZM139.3 37.753124Q137.15938 37.753124 135.8 36.346874Q134.45625 34.925 134.45625 32.565624L134.45625 32.221874Q134.45625 30.659374 135.05 29.425Q135.65938 28.190624 136.7375 27.4875Q137.81563 26.784374 139.08125 26.784374Q141.14375 26.784374 142.28438 28.14375Q143.425 29.503124 143.425 32.034374L143.425 32.784374L136.26875 32.784374Q136.3 34.346874 137.175 35.315624Q138.05 36.26875 139.39375 36.26875Q140.3625 36.26875 141.01875 35.878124Q141.69063 35.4875 142.19063 34.846874L143.28438 35.70625Q141.95625 37.753124 139.3 37.753124ZM139.08125 28.26875Q137.9875 28.26875 137.2375 29.065624Q136.50313 29.8625 136.33125 31.3L141.6125 31.3L141.6125 31.159374Q141.53438 29.784374 140.8625 29.034374Q140.20625 28.26875 139.08125 28.26875ZM147.87813 37.55L146.08125 37.55L146.08125 26.9875L147.87813 26.9875L147.87813 37.55ZM145.925 24.175Q145.925 23.7375 146.19063 23.440624Q146.47188 23.128124 146.9875 23.128124Q147.51875 23.128124 147.78438 23.440624Q148.06563 23.7375 148.06563 24.175Q148.06563 24.6125 147.78438 24.909374Q147.51875 25.20625 146.9875 25.20625Q146.47188 25.20625 146.19063 24.909374Q145.925 24.6125 145.925 24.175ZM154.40938 35.096874L157.01875 26.9875L158.8625 26.9875L155.08125 37.55L153.70625 37.55L149.87813 26.9875L151.72188 26.9875L154.40938 35.096874ZM165.3 37.753124Q163.15938 37.753124 161.8 36.346874Q160.45625 34.925 160.45625 32.565624L160.45625 32.221874Q160.45625 30.659374 161.05 29.425Q161.65938 28.190624 162.7375 27.4875Q163.81563 26.784374 165.08125 26.784374Q167.14375 26.784374 168.28438 28.14375Q169.425 29.503124 169.425 32.034374L169.425 32.784374L162.26875 32.784374Q162.3 34.346874 163.175 35.315624Q164.05 36.26875 165.39375 36.26875Q166.3625 36.26875 167.01875 35.878124Q167.69063 35.4875 168.19063 34.846874L169.28438 35.70625Q167.95625 37.753124 165.3 37.753124ZM165.08125 28.26875Q163.9875 28.26875 163.2375 29.065624Q162.50313 29.8625 162.33125 31.3L167.6125 31.3L167.6125 31.159374Q167.53438 29.784374 166.8625 29.034374Q166.20625 28.26875 165.08125 28.26875ZM171.47188 32.175Q171.47188 29.753124 172.62813 28.26875Q173.78438 26.784374 175.64375 26.784374Q177.50313 26.784374 178.58125 28.05L178.58125 22.55L180.39375 22.55L180.39375 37.55L178.7375 37.55L178.64375 36.409374Q177.56563 37.753124 175.62813 37.753124Q173.8 37.753124 172.62813 36.253124Q171.47188 34.7375 171.47188 32.315624L171.47188 32.175ZM173.28438 32.378124Q173.28438 34.175 174.01875 35.190624Q174.76875 36.20625 176.08125 36.20625Q177.8 36.20625 178.58125 34.675L178.58125 29.815624Q177.78438 28.315624 176.09688 28.315624Q174.76875 28.315624 174.01875 29.346874Q173.28438 30.378124 173.28438 32.378124ZM198.20625 23.33125L198.20625 33.003124Q198.20625 35.003124 196.94063 36.284374Q195.69063 37.565624 193.55 37.721874L193.05 37.753124Q190.70625 37.753124 189.31563 36.4875Q187.94063 35.221874 187.925 33.01875L187.925 23.33125L189.76875 23.33125L189.76875 32.95625Q189.76875 34.503124 190.6125 35.3625Q191.47188 36.20625 193.05 36.20625Q194.64375 36.20625 195.4875 35.3625Q196.33125 34.51875 196.33125 32.971874L196.33125 23.33125L198.20625 23.33125ZM207.06563 34.753124Q207.06563 34.01875 206.51875 33.6125Q205.97188 33.20625 204.59688 32.909374Q203.22188 32.6125 202.40938 32.20625Q201.6125 31.8 201.22188 31.2375Q200.84688 30.659374 200.84688 29.878124Q200.84688 28.58125 201.94063 27.690624Q203.03438 26.784374 204.75313 26.784374Q206.55 26.784374 207.65938 27.721874Q208.78438 28.64375 208.78438 30.08125L206.95625 30.08125Q206.95625 29.346874 206.33125 28.815624Q205.70625 28.26875 204.75313 28.26875Q203.75313 28.26875 203.19063 28.70625Q202.64375 29.128124 202.64375 29.83125Q202.64375 30.471874 203.15938 30.815624Q203.675 31.14375 205.03438 31.45625Q206.39375 31.753124 207.22188 32.175Q208.06563 32.58125 208.47188 33.175Q208.87813 33.76875 208.87813 34.6125Q208.87813 36.034374 207.7375 36.89375Q206.6125 37.753124 204.8 37.753124Q203.53438 37.753124 202.55 37.3Q201.58125 36.846874 201.01875 36.05Q200.47188 35.2375 200.47188 34.3L202.28438 34.3Q202.33125 35.20625 203.00313 35.7375Q203.69063 36.26875 204.8 36.26875Q205.83125 36.26875 206.44063 35.8625Q207.06563 35.440624 207.06563 34.753124ZM215.3 37.753124Q213.15938 37.753124 211.8 36.346874Q210.45625 34.925 210.45625 32.565624L210.45625 32.221874Q210.45625 30.659374 211.05 29.425Q211.65938 28.190624 212.7375 27.4875Q213.81563 26.784374 215.08125 26.784374Q217.14375 26.784374 218.28438 28.14375Q219.425 29.503124 219.425 32.034374L219.425 32.784374L212.26875 32.784374Q212.3 34.346874 213.175 35.315624Q214.05 36.26875 215.39375 36.26875Q216.3625 36.26875 217.01875 35.878124Q217.69063 35.4875 218.19063 34.846874L219.28438 35.70625Q217.95625 37.753124 215.3 37.753124ZM215.08125 28.26875Q213.9875 28.26875 213.2375 29.065624Q212.50313 29.8625 212.33125 31.3L217.6125 31.3L217.6125 31.159374Q217.53438 29.784374 216.8625 29.034374Q216.20625 28.26875 215.08125 28.26875ZM227.01875 28.596874Q226.6125 28.534374 226.14375 28.534374Q224.3625 28.534374 223.72188 30.05L223.72188 37.55L221.925 37.55L221.925 26.9875L223.675 26.9875L223.70625 28.20625Q224.59688 26.784374 226.22188 26.784374Q226.75313 26.784374 227.01875 26.925L227.01875 28.596874ZM236.08125 31.9875L236.08125 37.55L234.20625 37.55L234.20625 23.33125L239.44063 23.33125Q241.78438 23.33125 243.09688 24.51875Q244.425 25.70625 244.425 27.675Q244.425 29.753124 243.12813 30.878124Q241.83125 31.9875 239.425 31.9875L236.08125 31.9875ZM236.08125 30.45625L239.44063 30.45625Q240.95625 30.45625 241.75313 29.753124Q242.55 29.034374 242.55 27.690624Q242.55 26.425 241.75313 25.675Q240.95625 24.909374 239.55 24.878124L236.08125 24.878124L236.08125 30.45625ZM252.01875 28.596874Q251.6125 28.534374 251.14375 28.534374Q249.3625 28.534374 248.72188 30.05L248.72188 37.55L246.925 37.55L246.925 26.9875L248.675 26.9875L248.70625 28.20625Q249.59688 26.784374 251.22188 26.784374Q251.75313 26.784374 252.01875 26.925L252.01875 28.596874ZM253.44063 32.175Q253.44063 30.6125 254.05 29.378124Q254.65938 28.128124 255.7375 27.45625Q256.83124 26.784374 258.2375 26.784374Q260.39374 26.784374 261.72186 28.284374Q263.0656 29.76875 263.0656 32.253124L263.0656 32.378124Q263.0656 33.925 262.47186 35.159374Q261.8781 36.378124 260.76874 37.065624Q259.675 37.753124 258.2531 37.753124Q256.1125 37.753124 254.76875 36.253124Q253.44063 34.753124 253.44063 32.3L253.44063 32.175ZM255.25313 32.378124Q255.25313 34.14375 256.0656 35.20625Q256.89374 36.26875 258.2531 36.26875Q259.6281 36.26875 260.4406 35.190624Q261.2531 34.1125 261.2531 32.175Q261.2531 30.425 260.425 29.346874Q259.59686 28.26875 258.2375 28.26875Q256.89374 28.26875 256.0656 29.33125Q255.25313 30.39375 255.25313 32.378124ZM264.47186 32.175Q264.47186 29.753124 265.6281 28.26875Q266.78436 26.784374 268.64374 26.784374Q270.5031 26.784374 271.58124 28.05L271.58124 22.55L273.39374 22.55L273.39374 37.55L271.7375 37.55L271.64374 36.409374Q270.5656 37.753124 268.6281 37.753124Q266.8 37.753124 265.6281 36.253124Q264.47186 34.7375 264.47186 32.315624L264.47186 32.175ZM266.28436 32.378124Q266.28436 34.175 267.01874 35.190624Q267.76874 36.20625 269.08124 36.20625Q270.8 36.20625 271.58124 34.675L271.58124 29.815624Q270.78436 28.315624 269.09686 28.315624Q267.76874 28.315624 267.01874 29.346874Q266.28436 30.378124 266.28436 32.378124ZM282.4406 36.503124Q281.39374 37.753124 279.34686 37.753124Q277.65936 37.753124 276.76874 36.76875Q275.89374 35.784374 275.8781 33.8625L275.8781 26.9875L277.6906 26.9875L277.6906 33.815624Q277.6906 36.20625 279.64374 36.20625Q281.70624 36.20625 282.39374 34.675L282.39374 26.9875L284.20624 26.9875L284.20624 37.55L282.4875 37.55L282.4406 36.503124ZM291.15936 36.26875Q292.1281 36.26875 292.84686 35.690624Q293.5656 35.096874 293.64374 34.221874L295.3625 34.221874Q295.3 35.128124 294.72186 35.95625Q294.15936 36.76875 293.1906 37.26875Q292.2375 37.753124 291.15936 37.753124Q289.0031 37.753124 287.72186 36.315624Q286.45624 34.8625 286.45624 32.3625L286.45624 32.065624Q286.45624 30.51875 287.01874 29.315624Q287.58124 28.1125 288.64374 27.45625Q289.70624 26.784374 291.14374 26.784374Q292.925 26.784374 294.09686 27.846874Q295.28436 28.909374 295.3625 30.6125L293.64374 30.6125Q293.5656 29.596874 292.8625 28.940624Q292.175 28.26875 291.14374 28.26875Q289.76874 28.26875 289.0031 29.26875Q288.2531 30.253124 288.2531 32.128124L288.2531 32.471874Q288.2531 34.3 289.0031 35.284374Q289.7531 36.26875 291.15936 36.26875ZM299.3625 24.425L299.3625 26.9875L301.34686 26.9875L301.34686 28.378124L299.3625 28.378124L299.3625 34.925Q299.3625 35.565624 299.6281 35.89375Q299.89374 36.20625 300.53436 36.20625Q300.84686 36.20625 301.39374 36.08125L301.39374 37.55Q300.675 37.753124 300.0031 37.753124Q298.8 37.753124 298.175 37.01875Q297.5656 36.284374 297.5656 34.925L297.5656 28.378124L295.64374 28.378124L295.64374 26.9875L297.5656 26.9875L297.5656 24.425L299.3625 24.425ZM305.8781 37.55L304.08124 37.55L304.08124 26.9875L305.8781 26.9875L305.8781 37.55ZM303.925 24.175Q303.925 23.7375 304.1906 23.440624Q304.47186 23.128124 304.9875 23.128124Q305.51874 23.128124 305.78436 23.440624Q306.0656 23.7375 306.0656 24.175Q306.0656 24.6125 305.78436 24.909374Q305.51874 25.20625 304.9875 25.20625Q304.47186 25.20625 304.1906 24.909374Q303.925 24.6125 303.925 24.175ZM312.40936 35.096874L315.01874 26.9875L316.8625 26.9875L313.08124 37.55L311.70624 37.55L307.8781 26.9875L309.72186 26.9875L312.40936 35.096874ZM320.8781 37.55L319.08124 37.55L319.08124 26.9875L320.8781 26.9875L320.8781 37.55ZM318.925 24.175Q318.925 23.7375 319.1906 23.440624Q319.47186 23.128124 319.9875 23.128124Q320.51874 23.128124 320.78436 23.440624Q321.0656 23.7375 321.0656 24.175Q321.0656 24.6125 320.78436 24.909374Q320.51874 25.20625 319.9875 25.20625Q319.47186 25.20625 319.1906 24.909374Q318.925 24.6125 318.925 24.175ZM326.3625 24.425L326.3625 26.9875L328.34686 26.9875L328.34686 28.378124L326.3625 28.378124L326.3625 34.925Q326.3625 35.565624 326.6281 35.89375Q326.89374 36.20625 327.53436 36.20625Q327.84686 36.20625 328.39374 36.08125L328.39374 37.55Q327.675 37.753124 327.0031 37.753124Q325.8 37.753124 325.175 37.01875Q324.5656 36.284374 324.5656 34.925L324.5656 28.378124L322.64374 28.378124L322.64374 26.9875L324.5656 26.9875L324.5656 24.425L326.3625 24.425ZM334.3781 34.909374L336.83124 26.9875L338.76874 26.9875L334.51874 39.175Q333.53436 41.815624 331.39374 41.815624L331.05 41.784374L330.3781 41.659374L330.3781 40.190624L330.8625 40.2375Q331.78436 40.2375 332.28436 39.8625Q332.8 39.4875 333.1281 38.503124L333.53436 37.425L329.76874 26.9875L331.7375 26.9875L334.3781 34.909374Z" fill-rule="nonzero"/></svg>