<svg version="1.1" viewBox="0.0 0.0 600.0 371.0" fill="none" stroke="none" stroke-linecap="square" stroke-miterlimit="10" width="600" height="371" xmlns:xlink="http://www.w3.org/1999/xlink" xmlns="http://www.w3.org/2000/svg"><path fill="#ffffff" d="M0 0L600.0 0L600.0 371.0L0 371.0L0 0Z" fill-rule="nonzero"/><path stroke="#333333" stroke-width="1.0" stroke-linecap="butt" d="M84.5 272.5L581.5 272.5" fill-rule="nonzero"/><path stroke="#cccccc" stroke-width="1.0" stroke-linecap="butt" d="M84.5 202.5L581.5 202.5" fill-rule="nonzero"/><path stroke="#cccccc" stroke-width="1.0" stroke-linecap="butt" d="M84.5 132.5L581.5 132.5" fill-rule="nonzero"/><path stroke="#cccccc" stroke-width="1.0" stroke-linecap="butt" d="M84.5 61.5L581.5 61.5" fill-rule="nonzero"/><clipPath id="id_0"><path d="M84.55 61.916668L581.45 61.916668L581.45 272.45L84.55 272.45L84.55 61.916668Z" clip-rule="nonzero"/></clipPath><path stroke="#000000" stroke-width="2.0" stroke-linecap="butt" stroke-opacity="0.0" clip-path="url(#id_0)" d="M163.0 272.0L112.0 272.0L112.0 73.0C112.0 71.89543 112.89543 71.0 114.0 71.0L161.0 71.0C162.10457 71.0 163.0 71.89543 163.0 73.0Z" fill-rule="nonzero"/><path fill="#3c78d8" clip-path="url(#id_0)" d="M163.0 272.0L112.0 272.0L112.0 73.0C112.0 71.89543 112.89543 71.0 114.0 71.0L161.0 71.0C162.10457 71.0 163.0 71.89543 163.0 73.0Z" fill-rule="nonzero"/><path stroke="#000000" stroke-width="2.0" stroke-linecap="butt" stroke-opacity="0.0" clip-path="url(#id_0)" d="M242.0 272.0L191.0 272.0L191.0 186.0C191.0 184.89543 191.89543 184.0 193.0 184.0L240.0 184.0C241.10457 184.0 242.0 184.89543 242.0 186.0Z" fill-rule="nonzero"/><path fill="#3c78d8" clip-path="url(#id_0)" d="M242.0 272.0L191.0 272.0L191.0 186.0C191.0 184.89543 191.89543 184.0 193.0 184.0L240.0 184.0C241.10457 184.0 242.0 184.89543 242.0 186.0Z" fill-rule="nonzero"/><path stroke="#000000" stroke-width="2.0" stroke-linecap="butt" stroke-opacity="0.0" clip-path="url(#id_0)" d="M320.0 272.0L269.0 272.0L269.0 265.0C269.0 263.89542 269.89542 263.0 271.0 263.0L318.0 263.0C319.10458 263.0 320.0 263.89542 320.0 265.0Z" fill-rule="nonzero"/><path fill="#3c78d8" clip-path="url(#id_0)" d="M320.0 272.0L269.0 272.0L269.0 265.0C269.0 263.89542 269.89542 263.0 271.0 263.0L318.0 263.0C319.10458 263.0 320.0 263.89542 320.0 265.0Z" fill-rule="nonzero"/><path stroke="#000000" stroke-width="2.0" stroke-linecap="butt" stroke-opacity="0.0" clip-path="url(#id_0)" d="M398.0 272.0L347.0 272.0L347.0 270.0C347.0 268.89542 347.89542 268.0 349.0 268.0L396.0 268.0C397.10458 268.0 398.0 268.89542 398.0 270.0Z" fill-rule="nonzero"/><path fill="#3c78d8" clip-path="url(#id_0)" d="M398.0 272.0L347.0 272.0L347.0 270.0C347.0 268.89542 347.89542 268.0 349.0 268.0L396.0 268.0C397.10458 268.0 398.0 268.89542 398.0 270.0Z" fill-rule="nonzero"/><path stroke="#000000" stroke-width="2.0" stroke-linecap="butt" stroke-opacity="0.0" clip-path="url(#id_0)" d="M476.0 272.0L425.0 272.0L425.0 271.0C425.0 270.44772 425.44772 270.0 426.0 270.0L475.0 270.0C475.55228 270.0 476.0 270.44772 476.0 271.0Z" fill-rule="nonzero"/><path fill="#3c78d8" clip-path="url(#id_0)" d="M476.0 272.0L425.0 272.0L425.0 271.0C425.0 270.44772 425.44772 270.0 426.0 270.0L475.0 270.0C475.55228 270.0 476.0 270.44772 476.0 271.0Z" fill-rule="nonzero"/><path stroke="#000000" stroke-width="2.0" stroke-linecap="butt" stroke-opacity="0.0" clip-path="url(#id_0)" d="M555.0 272.0L504.0 272.0L504.0 271.5C504.0 271.22385 504.22385 271.0 504.5 271.0L554.5 271.0C554.7761 271.0 555.0 271.22385 555.0 271.5Z" fill-rule="nonzero"/><path fill="#3c78d8" clip-path="url(#id_0)" d="M555.0 272.0L504.0 272.0L504.0 271.5C504.0 271.22385 504.22385 271.0 504.5 271.0L554.5 271.0C554.7761 271.0 555.0 271.22385 555.0 271.5Z" fill-rule="nonzero"/><path fill="#000000" d="M315.375 349.45L312.04688 340.85626L313.28125 340.85626L315.51562 347.10626Q315.78125 347.85626 315.96875 348.5125Q316.17188 347.8094 316.4375 347.10626L318.75 340.85626L319.90625 340.85626L316.54688 349.45L315.375 349.45ZM325.04688 347.45L326.14062 347.575Q325.89062 348.52814 325.1875 349.0594Q324.48438 349.59064 323.40625 349.59064Q322.04688 349.59064 321.23438 348.7469Q320.4375 347.90314 320.4375 346.3875Q320.4375 344.825 321.25 343.96564Q322.0625 343.09064 323.34375 343.09064Q324.59375 343.09064 325.375 343.9344Q326.17188 344.77814 326.17188 346.325Q326.17188 346.41876 326.17188 346.60626L321.53125 346.60626Q321.59375 347.6375 322.10938 348.1844Q322.625 348.71564 323.40625 348.71564Q323.98438 348.71564 324.39062 348.41876Q324.8125 348.10626 325.04688 347.45ZM321.59375 345.7469L325.0625 345.7469Q325.0 344.95 324.67188 344.5594Q324.15625 343.95 323.35938 343.95Q322.625 343.95 322.125 344.4344Q321.64062 344.91876 321.59375 345.7469ZM327.78125 349.45L327.78125 343.23126L328.73438 343.23126L328.73438 344.16876Q329.09375 343.5125 329.39062 343.3094Q329.70312 343.09064 330.07812 343.09064Q330.60938 343.09064 331.15625 343.41876L330.79688 344.40314Q330.40625 344.16876 330.03125 344.16876Q329.67188 344.16876 329.39062 344.3875Q329.125 344.59064 329.01562 344.96564Q328.82812 345.52814 328.82812 346.1844L328.82812 349.45L327.78125 349.45ZM331.375 347.59064L332.40625 347.4344Q332.5 348.0594 332.89062 348.3875Q333.29688 348.71564 334.03125 348.71564Q334.75 348.71564 335.09375 348.4344Q335.45312 348.1375 335.45312 347.73126Q335.45312 347.3719 335.14062 347.16876Q334.92188 347.02814 334.0625 346.8094Q332.90625 346.5125 332.45312 346.3094Q332.01562 346.09064 331.78125 345.71564Q331.54688 345.34064 331.54688 344.8719Q331.54688 344.46564 331.73438 344.10626Q331.92188 343.7469 332.25 343.5125Q332.5 343.34064 332.92188 343.21564Q333.34375 343.09064 333.84375 343.09064Q334.5625 343.09064 335.10938 343.3094Q335.67188 343.5125 335.9375 343.8719Q336.20312 344.23126 336.29688 344.825L335.26562 344.96564Q335.20312 344.4969 334.85938 344.23126Q334.53125 343.95 333.90625 343.95Q333.1875 343.95 332.875 344.2Q332.5625 344.4344 332.5625 344.7625Q332.5625 344.96564 332.6875 345.1219Q332.82812 345.29376 333.09375 345.40314Q333.25 345.46564 334.03125 345.66876Q335.15625 345.98126 335.59375 346.16876Q336.03125 346.35626 336.28125 346.71564Q336.53125 347.075 336.53125 347.6219Q336.53125 348.15314 336.21875 348.6219Q335.92188 349.075 335.34375 349.34064Q334.76562 349.59064 334.03125 349.59064Q332.8125 349.59064 332.17188 349.09064Q331.54688 348.575 331.375 347.59064ZM337.79688 342.075L337.79688 340.85626L338.85938 340.85626L338.85938 342.075L337.79688 342.075ZM337.79688 349.45L337.79688 343.23126L338.85938 343.23126L338.85938 349.45L337.79688 349.45ZM340.40625 346.34064Q340.40625 344.60626 341.35938 343.77814Q342.15625 343.09064 343.3125 343.09064Q344.59375 343.09064 345.40625 343.9344Q346.23438 344.7625 346.23438 346.2469Q346.23438 347.45 345.875 348.1375Q345.51562 348.825 344.8125 349.21564Q344.125 349.59064 343.3125 349.59064Q342.01562 349.59064 341.20312 348.7625Q340.40625 347.91876 340.40625 346.34064ZM341.48438 346.34064Q341.48438 347.52814 342.0 348.1219Q342.53125 348.71564 343.3125 348.71564Q344.10938 348.71564 344.625 348.1219Q345.14062 347.52814 345.14062 346.3094Q345.14062 345.15314 344.60938 344.5594Q344.09375 343.96564 343.3125 343.96564Q342.53125 343.96564 342.0 344.5594Q341.48438 345.1375 341.48438 346.34064ZM347.79688 349.45L347.79688 343.23126L348.73438 343.23126L348.73438 344.10626Q349.42188 343.09064 350.71875 343.09064Q351.28125 343.09064 351.75 343.29376Q352.23438 343.4969 352.46875 343.825Q352.70312 344.15314 352.79688 344.59064Q352.84375 344.8875 352.84375 345.6219L352.84375 349.45L351.79688 349.45L351.79688 345.66876Q351.79688 345.0125 351.67188 344.7Q351.54688 344.3875 351.23438 344.2Q350.92188 343.9969 350.5 343.9969Q349.82812 343.9969 349.32812 344.4344Q348.84375 344.85626 348.84375 346.04376L348.84375 349.45L347.79688 349.45Z" fill-rule="nonzero"/><path fill="#000000" d="M29.550013 217.74583L20.956263 217.74583L20.956263 213.93333Q20.956263 212.77708 21.190638 212.18333Q21.425013 211.58958 22.018763 211.23021Q22.596888 210.87083 23.300013 210.87083Q24.221888 210.87083 24.846888 211.46458Q25.471888 212.05833 25.643763 213.29271Q25.862513 212.83958 26.065638 212.60521Q26.518763 212.10521 27.206263 211.66771L29.550013 210.16771L29.550013 211.60521L27.768763 212.73021Q26.987513 213.23021 26.581263 213.55833Q26.175013 213.87083 26.018763 214.13646Q25.846888 214.38646 25.768763 214.65208Q25.737513 214.83958 25.737513 215.27708L25.737513 216.60521L29.550013 216.60521L29.550013 217.74583ZM24.753138 216.60521L24.753138 214.15208Q24.753138 213.38646 24.596888 212.94896Q24.425013 212.49583 24.081263 212.27708Q23.721888 212.04271 23.300013 212.04271Q22.690638 212.04271 22.300013 212.49583Q21.909388 212.93333 21.909388 213.88646L21.909388 216.60521L24.753138 216.60521ZM27.550013 204.63646L27.675013 203.54271Q28.628138 203.79271 29.159388 204.49583Q29.690638 205.19896 29.690638 206.27708Q29.690638 207.63646 28.846888 208.44896Q28.003138 209.24583 26.487513 209.24583Q24.925013 209.24583 24.065638 208.43333Q23.190638 207.62083 23.190638 206.33958Q23.190638 205.08958 24.034388 204.30833Q24.878138 203.51146 26.425013 203.51146Q26.518763 203.51146 26.706263 203.51146L26.706263 208.15208Q27.737513 208.08958 28.284388 207.57396Q28.815638 207.05833 28.815638 206.27708Q28.815638 205.69896 28.518763 205.29271Q28.206263 204.87083 27.550013 204.63646ZM25.846888 208.08958L25.846888 204.62083Q25.050013 204.68333 24.659388 205.01146Q24.050013 205.52708 24.050013 206.32396Q24.050013 207.05833 24.534388 207.55833Q25.018763 208.04271 25.846888 208.08958ZM27.690638 202.30833L27.534388 201.27708Q28.159388 201.18333 28.487513 200.79271Q28.815638 200.38646 28.815638 199.65208Q28.815638 198.93333 28.534388 198.58958Q28.237513 198.23021 27.831263 198.23021Q27.471888 198.23021 27.268763 198.54271Q27.128138 198.76146 26.909388 199.62083Q26.612513 200.77708 26.409388 201.23021Q26.190638 201.66771 25.815638 201.90208Q25.440638 202.13646 24.971888 202.13646Q24.565638 202.13646 24.206263 201.94896Q23.846888 201.76146 23.612513 201.43333Q23.440638 201.18333 23.315638 200.76146Q23.190638 200.33958 23.190638 199.83958Q23.190638 199.12083 23.409388 198.57396Q23.612513 198.01146 23.971888 197.74583Q24.331263 197.48021 24.925013 197.38646L25.065638 198.41771Q24.596888 198.48021 24.331263 198.82396Q24.050013 199.15208 24.050013 199.77708Q24.050013 200.49583 24.300013 200.80833Q24.534388 201.12083 24.862513 201.12083Q25.065638 201.12083 25.221888 200.99583Q25.393763 200.85521 25.503138 200.58958Q25.565638 200.43333 25.768763 199.65208Q26.081263 198.52708 26.268763 198.08958Q26.456263 197.65208 26.815638 197.40208Q27.175013 197.15208 27.721888 197.15208Q28.253138 197.15208 28.721888 197.46458Q29.175013 197.76146 29.440638 198.33958Q29.690638 198.91771 29.690638 199.65208Q29.690638 200.87083 29.190638 201.51146Q28.675013 202.13646 27.690638 202.30833ZM31.940638 195.88646L23.331263 195.88646L23.331263 194.93333L24.128138 194.93333Q23.659388 194.58958 23.425013 194.16771Q23.190638 193.73021 23.190638 193.12083Q23.190638 192.32396 23.596888 191.71458Q24.003138 191.10521 24.753138 190.80833Q25.503138 190.49583 26.393763 190.49583Q27.346888 190.49583 28.112513 190.83958Q28.878138 191.16771 29.284388 191.82396Q29.690638 192.48021 29.690638 193.19896Q29.690638 193.73021 29.471888 194.15208Q29.237513 194.57396 28.909388 194.83958L31.940638 194.83958L31.940638 195.88646ZM26.471888 194.93333Q27.675013 194.93333 28.253138 194.44896Q28.815638 193.96458 28.815638 193.27708Q28.815638 192.57396 28.221888 192.07396Q27.628138 191.57396 26.378138 191.57396Q25.190638 191.57396 24.612513 192.05833Q24.018763 192.54271 24.018763 193.23021Q24.018763 193.90208 24.643763 194.41771Q25.268763 194.93333 26.471888 194.93333ZM26.440638 189.27708Q24.706263 189.27708 23.878138 188.32396Q23.190638 187.52708 23.190638 186.37083Q23.190638 185.08958 24.034388 184.27708Q24.862513 183.44896 26.346888 183.44896Q27.550013 183.44896 28.237513 183.80833Q28.925013 184.16771 29.315638 184.87083Q29.690638 185.55833 29.690638 186.37083Q29.690638 187.66771 28.862513 188.48021Q28.018763 189.27708 26.440638 189.27708ZM26.440638 188.19896Q27.628138 188.19896 28.221888 187.68333Q28.815638 187.15208 28.815638 186.37083Q28.815638 185.57396 28.221888 185.05833Q27.628138 184.54271 26.409388 184.54271Q25.253138 184.54271 24.659388 185.07396Q24.065638 185.58958 24.065638 186.37083Q24.065638 187.15208 24.659388 187.68333Q25.237513 188.19896 26.440638 188.19896ZM29.550013 181.88646L23.331263 181.88646L23.331263 180.94896L24.206263 180.94896Q23.190638 180.26146 23.190638 178.96458Q23.190638 178.40208 23.393763 177.93333Q23.596888 177.44896 23.925013 177.21458Q24.253138 176.98021 24.690638 176.88646Q24.987513 176.83958 25.721888 176.83958L29.550013 176.83958L29.550013 177.88646L25.768763 177.88646Q25.112513 177.88646 24.800013 178.01146Q24.487513 178.13646 24.300013 178.44896Q24.096888 178.76146 24.096888 179.18333Q24.096888 179.85521 24.534388 180.35521Q24.956263 180.83958 26.143763 180.83958L29.550013 180.83958L29.550013 181.88646ZM27.690638 175.30833L27.534388 174.27708Q28.159388 174.18333 28.487513 173.79271Q28.815638 173.38646 28.815638 172.65208Q28.815638 171.93333 28.534388 171.58958Q28.237513 171.23021 27.831263 171.23021Q27.471888 171.23021 27.268763 171.54271Q27.128138 171.76146 26.909388 172.62083Q26.612513 173.77708 26.409388 174.23021Q26.190638 174.66771 25.815638 174.90208Q25.440638 175.13646 24.971888 175.13646Q24.565638 175.13646 24.206263 174.94896Q23.846888 174.76146 23.612513 174.43333Q23.440638 174.18333 23.315638 173.76146Q23.190638 173.33958 23.190638 172.83958Q23.190638 172.12083 23.409388 171.57396Q23.612513 171.01146 23.971888 170.74583Q24.331263 170.48021 24.925013 170.38646L25.065638 171.41771Q24.596888 171.48021 24.331263 171.82396Q24.050013 172.15208 24.050013 172.77708Q24.050013 173.49583 24.300013 173.80833Q24.534388 174.12083 24.862513 174.12083Q25.065638 174.12083 25.221888 173.99583Q25.393763 173.85521 25.503138 173.58958Q25.565638 173.43333 25.768763 172.65208Q26.081263 171.52708 26.268763 171.08958Q26.456263 170.65208 26.815638 170.40208Q27.175013 170.15208 27.721888 170.15208Q28.253138 170.15208 28.721888 170.46458Q29.175013 170.76146 29.440638 171.33958Q29.690638 171.91771 29.690638 172.65208Q29.690638 173.87083 29.190638 174.51146Q28.675013 175.13646 27.690638 175.30833ZM27.550013 164.63646L27.675013 163.54271Q28.628138 163.79271 29.159388 164.49583Q29.690638 165.19896 29.690638 166.27708Q29.690638 167.63646 28.846888 168.44896Q28.003138 169.24583 26.487513 169.24583Q24.925013 169.24583 24.065638 168.43333Q23.190638 167.62083 23.190638 166.33958Q23.190638 165.08958 24.034388 164.30833Q24.878138 163.51146 26.425013 163.51146Q26.518763 163.51146 26.706263 163.51146L26.706263 168.15208Q27.737513 168.08958 28.284388 167.57396Q28.815638 167.05833 28.815638 166.27708Q28.815638 165.69896 28.518763 165.29271Q28.206263 164.87083 27.550013 164.63646ZM25.846888 168.08958L25.846888 164.62083Q25.050013 164.68333 24.659388 165.01146Q24.050013 165.52708 24.050013 166.32396Q24.050013 167.05833 24.534388 167.55833Q25.018763 168.04271 25.846888 168.08958ZM27.690638 162.30833L27.534388 161.27708Q28.159388 161.18333 28.487513 160.79271Q28.815638 160.38646 28.815638 159.65208Q28.815638 158.93333 28.534388 158.58958Q28.237513 158.23021 27.831263 158.23021Q27.471888 158.23021 27.268763 158.54271Q27.128138 158.76146 26.909388 159.62083Q26.612513 160.77708 26.409388 161.23021Q26.190638 161.66771 25.815638 161.90208Q25.440638 162.13646 24.971888 162.13646Q24.565638 162.13646 24.206263 161.94896Q23.846888 161.76146 23.612513 161.43333Q23.440638 161.18333 23.315638 160.76146Q23.190638 160.33958 23.190638 159.83958Q23.190638 159.12083 23.409388 158.57396Q23.612513 158.01146 23.971888 157.74583Q24.331263 157.48021 24.925013 157.38646L25.065638 158.41771Q24.596888 158.48021 24.331263 158.82396Q24.050013 159.15208 24.050013 159.77708Q24.050013 160.49583 24.300013 160.80833Q24.534388 161.12083 24.862513 161.12083Q25.065638 161.12083 25.221888 160.99583Q25.393763 160.85521 25.503138 160.58958Q25.565638 160.43333 25.768763 159.65208Q26.081263 158.52708 26.268763 158.08958Q26.456263 157.65208 26.815638 157.40208Q27.175013 157.15208 27.721888 157.15208Q28.253138 157.15208 28.721888 157.46458Q29.175013 157.76146 29.440638 158.33958Q29.690638 158.91771 29.690638 159.65208Q29.690638 160.87083 29.190638 161.51146Q28.675013 162.13646 27.690638 162.30833Z" fill-rule="nonzero"/><path fill="#000000" d="M72.05 272.21564Q72.05 270.6844 72.3625 269.7625Q72.675 268.825 73.28438 268.325Q73.90938 267.825 74.84688 267.825Q75.53438 267.825 76.05 268.10626Q76.58125 268.3875 76.925 268.91876Q77.26875 269.4344 77.45625 270.1844Q77.64375 270.9344 77.64375 272.21564Q77.64375 273.73126 77.33125 274.65314Q77.03438 275.575 76.40938 276.09064Q75.8 276.59064 74.84688 276.59064Q73.6125 276.59064 72.89375 275.7Q72.05 274.6375 72.05 272.21564ZM73.12813 272.21564Q73.12813 274.325 73.62813 275.02814Q74.12813 275.73126 74.84688 275.73126Q75.58125 275.73126 76.06563 275.02814Q76.56563 274.325 76.56563 272.21564Q76.56563 270.09064 76.06563 269.40314Q75.58125 268.7 74.83125 268.7Q74.1125 268.7 73.675 269.3094Q73.12813 270.09064 73.12813 272.21564Z" fill-rule="nonzero"/><path fill="#000000" d="M56.596874 205.25659L56.596874 206.27222L50.909374 206.27222Q50.909374 205.89722 51.034374 205.53784Q51.253124 204.95972 51.721874 204.39722Q52.20625 203.83472 53.1125 203.10034Q54.51875 201.94409 55.003124 201.27222Q55.503124 200.60034 55.503124 200.00659Q55.503124 199.38159 55.05 198.95972Q54.596874 198.52222 53.878124 198.52222Q53.1125 198.52222 52.659374 198.97534Q52.20625 199.42847 52.190624 200.24097L51.1125 200.13159Q51.221874 198.91284 51.940624 198.28784Q52.675 197.64722 53.909374 197.64722Q55.14375 197.64722 55.8625 198.33472Q56.58125 199.02222 56.58125 200.03784Q56.58125 200.55347 56.3625 201.05347Q56.159374 201.53784 55.659374 202.10034Q55.175 202.64722 54.05 203.60034Q53.096874 204.39722 52.815624 204.69409Q52.55 204.97534 52.378124 205.25659L56.596874 205.25659ZM58.05 202.03784Q58.05 200.50659 58.3625 199.58472Q58.675 198.64722 59.284374 198.14722Q59.909374 197.64722 60.846874 197.64722Q61.534374 197.64722 62.05 197.92847Q62.58125 198.20972 62.925 198.74097Q63.26875 199.25659 63.45625 200.00659Q63.64375 200.75659 63.64375 202.03784Q63.64375 203.55347 63.33125 204.47534Q63.034374 205.39722 62.409374 205.91284Q61.8 206.41284 60.846874 206.41284Q59.6125 206.41284 58.89375 205.52222Q58.05 204.45972 58.05 202.03784ZM59.128124 202.03784Q59.128124 204.14722 59.628124 204.85034Q60.128124 205.55347 60.846874 205.55347Q61.58125 205.55347 62.065624 204.85034Q62.565624 204.14722 62.565624 202.03784Q62.565624 199.91284 62.065624 199.22534Q61.58125 198.52222 60.83125 198.52222Q60.1125 198.52222 59.675 199.13159Q59.128124 199.91284 59.128124 202.03784ZM65.05 202.03784Q65.05 200.50659 65.3625 199.58472Q65.675 198.64722 66.28438 198.14722Q66.90938 197.64722 67.84688 197.64722Q68.53438 197.64722 69.05 197.92847Q69.58125 198.20972 69.925 198.74097Q70.26875 199.25659 70.45625 200.00659Q70.64375 200.75659 70.64375 202.03784Q70.64375 203.55347 70.33125 204.47534Q70.03438 205.39722 69.40938 205.91284Q68.8 206.41284 67.84688 206.41284Q66.6125 206.41284 65.89375 205.52222Q65.05 204.45972 65.05 202.03784ZM66.12813 202.03784Q66.12813 204.14722 66.62813 204.85034Q67.12813 205.55347 67.84688 205.55347Q68.58125 205.55347 69.06563 204.85034Q69.56563 204.14722 69.56563 202.03784Q69.56563 199.91284 69.06563 199.22534Q68.58125 198.52222 67.83125 198.52222Q67.1125 198.52222 66.675 199.13159Q66.12813 199.91284 66.12813 202.03784ZM72.05 202.03784Q72.05 200.50659 72.3625 199.58472Q72.675 198.64722 73.28438 198.14722Q73.90938 197.64722 74.84688 197.64722Q75.53438 197.64722 76.05 197.92847Q76.58125 198.20972 76.925 198.74097Q77.26875 199.25659 77.45625 200.00659Q77.64375 200.75659 77.64375 202.03784Q77.64375 203.55347 77.33125 204.47534Q77.03438 205.39722 76.40938 205.91284Q75.8 206.41284 74.84688 206.41284Q73.6125 206.41284 72.89375 205.52222Q72.05 204.45972 72.05 202.03784ZM73.12813 202.03784Q73.12813 204.14722 73.62813 204.85034Q74.12813 205.55347 74.84688 205.55347Q75.58125 205.55347 76.06563 204.85034Q76.56563 204.14722 76.56563 202.03784Q76.56563 199.91284 76.06563 199.22534Q75.58125 198.52222 74.83125 198.52222Q74.1125 198.52222 73.675 199.13159Q73.12813 199.91284 73.12813 202.03784Z" fill-rule="nonzero"/><path fill="#000000" d="M54.425 136.09445L54.425 134.03195L50.70625 134.03195L50.70625 133.0632L54.628124 127.5007L55.4875 127.5007L55.4875 133.0632L56.64375 133.0632L56.64375 134.03195L55.4875 134.03195L55.4875 136.09445L54.425 136.09445ZM54.425 133.0632L54.425 129.20383L51.7375 133.0632L54.425 133.0632ZM58.05 131.86008Q58.05 130.32883 58.3625 129.40695Q58.675 128.46945 59.284374 127.96945Q59.909374 127.46945 60.846874 127.46945Q61.534374 127.46945 62.05 127.7507Q62.58125 128.03195 62.925 128.5632Q63.26875 129.07883 63.45625 129.82883Q63.64375 130.57883 63.64375 131.86008Q63.64375 133.3757 63.33125 134.29758Q63.034374 135.21945 62.409374 135.73508Q61.8 136.23508 60.846874 136.23508Q59.6125 136.23508 58.89375 135.34445Q58.05 134.28195 58.05 131.86008ZM59.128124 131.86008Q59.128124 133.96945 59.628124 134.67258Q60.128124 135.3757 60.846874 135.3757Q61.58125 135.3757 62.065624 134.67258Q62.565624 133.96945 62.565624 131.86008Q62.565624 129.73508 62.065624 129.04758Q61.58125 128.34445 60.83125 128.34445Q60.1125 128.34445 59.675 128.95383Q59.128124 129.73508 59.128124 131.86008ZM65.05 131.86008Q65.05 130.32883 65.3625 129.40695Q65.675 128.46945 66.28438 127.96945Q66.90938 127.46945 67.84688 127.46945Q68.53438 127.46945 69.05 127.7507Q69.58125 128.03195 69.925 128.5632Q70.26875 129.07883 70.45625 129.82883Q70.64375 130.57883 70.64375 131.86008Q70.64375 133.3757 70.33125 134.29758Q70.03438 135.21945 69.40938 135.73508Q68.8 136.23508 67.84688 136.23508Q66.6125 136.23508 65.89375 135.34445Q65.05 134.28195 65.05 131.86008ZM66.12813 131.86008Q66.12813 133.96945 66.62813 134.67258Q67.12813 135.3757 67.84688 135.3757Q68.58125 135.3757 69.06563 134.67258Q69.56563 133.96945 69.56563 131.86008Q69.56563 129.73508 69.06563 129.04758Q68.58125 128.34445 67.83125 128.34445Q67.1125 128.34445 66.675 128.95383Q66.12813 129.73508 66.12813 131.86008ZM72.05 131.86008Q72.05 130.32883 72.3625 129.40695Q72.675 128.46945 73.28438 127.96945Q73.90938 127.46945 74.84688 127.46945Q75.53438 127.46945 76.05 127.7507Q76.58125 128.03195 76.925 128.5632Q77.26875 129.07883 77.45625 129.82883Q77.64375 130.57883 77.64375 131.86008Q77.64375 133.3757 77.33125 134.29758Q77.03438 135.21945 76.40938 135.73508Q75.8 136.23508 74.84688 136.23508Q73.6125 136.23508 72.89375 135.34445Q72.05 134.28195 72.05 131.86008ZM73.12813 131.86008Q73.12813 133.96945 73.62813 134.67258Q74.12813 135.3757 74.84688 135.3757Q75.58125 135.3757 76.06563 134.67258Q76.56563 133.96945 76.56563 131.86008Q76.56563 129.73508 76.06563 129.04758Q75.58125 128.34445 74.83125 128.34445Q74.1125 128.34445 73.675 128.95383Q73.12813 129.73508 73.12813 131.86008Z" fill-rule="nonzero"/><path fill="#000000" d="M56.51875 59.43229L55.471874 59.510414Q55.33125 58.885414 55.08125 58.604164Q54.64375 58.15104 54.01875 58.15104Q53.51875 58.15104 53.128124 58.43229Q52.64375 58.80729 52.346874 59.510414Q52.065624 60.197914 52.05 61.479164Q52.425 60.90104 52.971874 60.61979Q53.534374 60.33854 54.14375 60.33854Q55.190624 60.33854 55.925 61.11979Q56.675 61.90104 56.675 63.11979Q56.675 63.93229 56.315624 64.635414Q55.971874 65.322914 55.3625 65.697914Q54.753124 66.05729 53.9875 66.05729Q52.659374 66.05729 51.83125 65.08854Q51.003124 64.11979 51.003124 61.90104Q51.003124 59.40104 51.925 58.27604Q52.721874 57.291664 54.08125 57.291664Q55.096874 57.291664 55.7375 57.86979Q56.39375 58.43229 56.51875 59.43229ZM52.221874 63.135414Q52.221874 63.68229 52.440624 64.18229Q52.675 64.666664 53.08125 64.93229Q53.503124 65.197914 53.971874 65.197914Q54.628124 65.197914 55.1125 64.666664Q55.596874 64.11979 55.596874 63.197914Q55.596874 62.30729 55.1125 61.791664Q54.64375 61.27604 53.925 61.27604Q53.20625 61.27604 52.70625 61.791664Q52.221874 62.30729 52.221874 63.135414ZM58.05 61.68229Q58.05 60.15104 58.3625 59.229164Q58.675 58.291664 59.284374 57.791664Q59.909374 57.291664 60.846874 57.291664Q61.534374 57.291664 62.05 57.572914Q62.58125 57.854164 62.925 58.385414Q63.26875 58.90104 63.45625 59.65104Q63.64375 60.40104 63.64375 61.68229Q63.64375 63.197914 63.33125 64.11979Q63.034374 65.041664 62.409374 65.55729Q61.8 66.05729 60.846874 66.05729Q59.6125 66.05729 58.89375 65.166664Q58.05 64.104164 58.05 61.68229ZM59.128124 61.68229Q59.128124 63.791664 59.628124 64.49479Q60.128124 65.197914 60.846874 65.197914Q61.58125 65.197914 62.065624 64.49479Q62.565624 63.791664 62.565624 61.68229Q62.565624 59.55729 62.065624 58.86979Q61.58125 58.166664 60.83125 58.166664Q60.1125 58.166664 59.675 58.77604Q59.128124 59.55729 59.128124 61.68229ZM65.05 61.68229Q65.05 60.15104 65.3625 59.229164Q65.675 58.291664 66.28438 57.791664Q66.90938 57.291664 67.84688 57.291664Q68.53438 57.291664 69.05 57.572914Q69.58125 57.854164 69.925 58.385414Q70.26875 58.90104 70.45625 59.65104Q70.64375 60.40104 70.64375 61.68229Q70.64375 63.197914 70.33125 64.11979Q70.03438 65.041664 69.40938 65.55729Q68.8 66.05729 67.84688 66.05729Q66.6125 66.05729 65.89375 65.166664Q65.05 64.104164 65.05 61.68229ZM66.12813 61.68229Q66.12813 63.791664 66.62813 64.49479Q67.12813 65.197914 67.84688 65.197914Q68.58125 65.197914 69.06563 64.49479Q69.56563 63.791664 69.56563 61.68229Q69.56563 59.55729 69.06563 58.86979Q68.58125 58.166664 67.83125 58.166664Q67.1125 58.166664 66.675 58.77604Q66.12813 59.55729 66.12813 61.68229ZM72.05 61.68229Q72.05 60.15104 72.3625 59.229164Q72.675 58.291664 73.28438 57.791664Q73.90938 57.291664 74.84688 57.291664Q75.53438 57.291664 76.05 57.572914Q76.58125 57.854164 76.925 58.385414Q77.26875 58.90104 77.45625 59.65104Q77.64375 60.40104 77.64375 61.68229Q77.64375 63.197914 77.33125 64.11979Q77.03438 65.041664 76.40938 65.55729Q75.8 66.05729 74.84688 66.05729Q73.6125 66.05729 72.89375 65.166664Q72.05 64.104164 72.05 61.68229ZM73.12813 61.68229Q73.12813 63.791664 73.62813 64.49479Q74.12813 65.197914 74.84688 65.197914Q75.58125 65.197914 76.06563 64.49479Q76.56563 63.791664 76.56563 61.68229Q76.56563 59.55729 76.06563 58.86979Q75.58125 58.166664 74.83125 58.166664Q74.1125 58.166664 73.675 58.77604Q73.12813 59.55729 73.12813 61.68229Z" fill-rule="nonzero"/><path fill="#000000" d="M123.93258 286.4344L125.05758 286.73126Q124.698204 288.1219 123.77633 288.85626Q122.854454 289.59064 121.510704 289.59064Q120.12008 289.59064 119.24508 289.02814Q118.37008 288.46564 117.916954 287.40314Q117.46383 286.325 117.46383 285.09064Q117.46383 283.7469 117.979454 282.7469Q118.49508 281.7469 119.43258 281.23126Q120.385704 280.71564 121.52633 280.71564Q122.80758 280.71564 123.68258 281.3719Q124.573204 282.02814 124.916954 283.21564L123.791954 283.48126Q123.49508 282.54376 122.916954 282.1219Q122.354454 281.6844 121.49508 281.6844Q120.510704 281.6844 119.83883 282.16876Q119.18258 282.6375 118.90133 283.4344Q118.635704 284.23126 118.635704 285.09064Q118.635704 286.1844 118.948204 286.9969Q119.27633 287.8094 119.948204 288.21564Q120.62008 288.6219 121.416954 288.6219Q122.37008 288.6219 123.02633 288.075Q123.698204 287.52814 123.93258 286.4344ZM130.74509 289.45L130.74509 288.52814Q130.01071 289.59064 128.76071 289.59064Q128.21384 289.59064 127.729454 289.3875Q127.260704 289.16876 127.02633 288.85626Q126.791954 288.52814 126.698204 288.0594Q126.635704 287.7625 126.635704 287.075L126.635704 283.23126L127.698204 283.23126L127.698204 286.6844Q127.698204 287.4969 127.760704 287.79376Q127.854454 288.2 128.16696 288.45Q128.49509 288.6844 128.97946 288.6844Q129.44821 288.6844 129.85446 288.45Q130.27634 288.2 130.44821 287.77814Q130.63571 287.35626 130.63571 286.5594L130.63571 283.23126L131.68259 283.23126L131.68259 289.45L130.74509 289.45ZM133.65134 289.45L133.65134 283.23126L134.60446 283.23126L134.60446 284.16876Q134.96384 283.5125 135.26071 283.3094Q135.57321 283.09064 135.94821 283.09064Q136.47946 283.09064 137.02634 283.41876L136.66696 284.40314Q136.27634 284.16876 135.90134 284.16876Q135.54196 284.16876 135.26071 284.3875Q134.99509 284.59064 134.88571 284.96564Q134.69821 285.52814 134.69821 286.1844L134.69821 289.45L133.65134 289.45ZM137.65134 289.45L137.65134 283.23126L138.60446 283.23126L138.60446 284.16876Q138.96384 283.5125 139.26071 283.3094Q139.57321 283.09064 139.94821 283.09064Q140.47946 283.09064 141.02634 283.41876L140.66696 284.40314Q140.27634 284.16876 139.90134 284.16876Q139.54196 284.16876 139.26071 284.3875Q138.99509 284.59064 138.88571 284.96564Q138.69821 285.52814 138.69821 286.1844L138.69821 289.45L137.65134 289.45ZM145.91696 287.45L147.01071 287.575Q146.76071 288.52814 146.05759 289.0594Q145.35446 289.59064 144.27634 289.59064Q142.91696 289.59064 142.10446 288.7469Q141.30759 287.90314 141.30759 286.3875Q141.30759 284.825 142.12009 283.96564Q142.93259 283.09064 144.21384 283.09064Q145.46384 283.09064 146.24509 283.9344Q147.04196 284.77814 147.04196 286.325Q147.04196 286.41876 147.04196 286.60626L142.40134 286.60626Q142.46384 287.6375 142.97946 288.1844Q143.49509 288.71564 144.27634 288.71564Q144.85446 288.71564 145.26071 288.41876Q145.68259 288.10626 145.91696 287.45ZM142.46384 285.7469L145.93259 285.7469Q145.87009 284.95 145.54196 284.5594Q145.02634 283.95 144.22946 283.95Q143.49509 283.95 142.99509 284.4344Q142.51071 284.91876 142.46384 285.7469ZM148.66696 289.45L148.66696 283.23126L149.60446 283.23126L149.60446 284.10626Q150.29196 283.09064 151.58884 283.09064Q152.15134 283.09064 152.62009 283.29376Q153.10446 283.4969 153.33884 283.825Q153.57321 284.15314 153.66696 284.59064Q153.71384 284.8875 153.71384 285.6219L153.71384 289.45L152.66696 289.45L152.66696 285.66876Q152.66696 285.0125 152.54196 284.7Q152.41696 284.3875 152.10446 284.2Q151.79196 283.9969 151.37009 283.9969Q150.69821 283.9969 150.19821 284.4344Q149.71384 284.85626 149.71384 286.04376L149.71384 289.45L148.66696 289.45ZM157.96384 288.5125L158.12009 289.4344Q157.66696 289.52814 157.32321 289.52814Q156.74509 289.52814 156.43259 289.35626Q156.12009 289.16876 155.97946 288.8719Q155.85446 288.575 155.85446 287.6219L155.85446 284.04376L155.08884 284.04376L155.08884 283.23126L155.85446 283.23126L155.85446 281.6844L156.90134 281.0594L156.90134 283.23126L157.96384 283.23126L157.96384 284.04376L156.90134 284.04376L156.90134 287.6844Q156.90134 288.1375 156.94821 288.2625Q157.01071 288.3875 157.13571 288.46564Q157.26071 288.54376 157.49509 288.54376Q157.68259 288.54376 157.96384 288.5125Z" fill-rule="nonzero"/><path fill="#000000" d="M120.416954 300.6844L121.479454 300.59064Q121.55758 301.2469 121.83883 301.65314Q122.12008 302.0594 122.698204 302.325Q123.291954 302.575 124.02633 302.575Q124.666954 302.575 125.166954 302.3875Q125.666954 302.1844 125.90133 301.85626Q126.15133 301.5125 126.15133 301.1219Q126.15133 300.71564 125.916954 300.41876Q125.68258 300.10626 125.15133 299.90314Q124.791954 299.7625 123.604454 299.48126Q122.43258 299.2 121.96383 298.95Q121.33883 298.6219 121.041954 298.15314Q120.74508 297.66876 120.74508 297.075Q120.74508 296.4344 121.104454 295.8719Q121.479454 295.29376 122.18258 295.0125Q122.90133 294.71564 123.760704 294.71564Q124.71383 294.71564 125.448204 295.02814Q126.18258 295.325 126.573204 295.9344Q126.96383 296.52814 126.99508 297.27814L125.90133 297.35626Q125.80758 296.54376 125.291954 296.1375Q124.791954 295.71564 123.80758 295.71564Q122.77633 295.71564 122.30758 296.09064Q121.83883 296.46564 121.83883 296.9969Q121.83883 297.46564 122.166954 297.7625Q122.49508 298.0594 123.87008 298.3719Q125.260704 298.6844 125.77633 298.91876Q126.52633 299.27814 126.885704 299.8094Q127.24508 300.325 127.24508 301.02814Q127.24508 301.71564 126.854454 302.325Q126.46383 302.91876 125.729454 303.2625Q124.99508 303.59064 124.073204 303.59064Q122.90133 303.59064 122.104454 303.2625Q121.323204 302.91876 120.87008 302.23126Q120.43258 301.54376 120.416954 300.6844ZM130.96384 302.5125L131.12009 303.4344Q130.66696 303.52814 130.32321 303.52814Q129.74509 303.52814 129.43259 303.35626Q129.12009 303.16876 128.97946 302.8719Q128.85446 302.575 128.85446 301.6219L128.85446 298.04376L128.08884 298.04376L128.08884 297.23126L128.85446 297.23126L128.85446 295.6844L129.90134 295.0594L129.90134 297.23126L130.96384 297.23126L130.96384 298.04376L129.90134 298.04376L129.90134 301.6844Q129.90134 302.1375 129.94821 302.2625Q130.01071 302.3875 130.13571 302.46564Q130.26071 302.54376 130.49509 302.54376Q130.68259 302.54376 130.96384 302.5125ZM135.72946 302.6844Q135.13571 303.1844 134.58884 303.3875Q134.05759 303.59064 133.43259 303.59064Q132.40134 303.59064 131.85446 303.09064Q131.30759 302.59064 131.30759 301.8094Q131.30759 301.35626 131.51071 300.98126Q131.71384 300.59064 132.05759 300.3719Q132.40134 300.1375 132.82321 300.02814Q133.12009 299.9344 133.76071 299.85626Q135.02634 299.71564 135.63571 299.4969Q135.63571 299.27814 135.63571 299.23126Q135.63571 298.575 135.33884 298.3094Q134.93259 297.96564 134.13571 297.96564Q133.40134 297.96564 133.04196 298.23126Q132.68259 298.48126 132.51071 299.1375L131.47946 298.9969Q131.62009 298.34064 131.94821 297.9344Q132.27634 297.52814 132.88571 297.3094Q133.49509 297.09064 134.29196 297.09064Q135.08884 297.09064 135.58884 297.27814Q136.08884 297.46564 136.32321 297.7469Q136.55759 298.02814 136.65134 298.46564Q136.69821 298.73126 136.69821 299.4344L136.69821 300.84064Q136.69821 302.3094 136.76071 302.7Q136.83884 303.09064 137.04196 303.45L135.93259 303.45Q135.77634 303.1219 135.72946 302.6844ZM135.63571 300.325Q135.05759 300.5594 133.91696 300.73126Q133.26071 300.825 132.99509 300.95Q132.72946 301.0594 132.57321 301.27814Q132.43259 301.4969 132.43259 301.77814Q132.43259 302.2 132.74509 302.48126Q133.07321 302.7625 133.68259 302.7625Q134.29196 302.7625 134.76071 302.4969Q135.24509 302.23126 135.46384 301.7625Q135.63571 301.40314 135.63571 300.71564L135.63571 300.325ZM139.63571 303.45L138.65134 303.45L138.65134 294.85626L139.71384 294.85626L139.71384 297.91876Q140.38571 297.09064 141.41696 297.09064Q141.99509 297.09064 142.49509 297.325Q143.01071 297.54376 143.33884 297.96564Q143.68259 298.3875 143.87009 298.98126Q144.05759 299.575 144.05759 300.2469Q144.05759 301.84064 143.26071 302.71564Q142.46384 303.59064 141.37009 303.59064Q140.26071 303.59064 139.63571 302.66876L139.63571 303.45ZM139.62009 300.29376Q139.62009 301.40314 139.93259 301.90314Q140.43259 302.71564 141.27634 302.71564Q141.96384 302.71564 142.46384 302.1219Q142.97946 301.52814 142.97946 300.325Q142.97946 299.10626 142.49509 298.52814Q142.01071 297.95 141.32321 297.95Q140.63571 297.95 140.12009 298.5594Q139.62009 299.15314 139.62009 300.29376ZM145.63571 303.45L145.63571 294.85626L146.69821 294.85626L146.69821 303.45L145.63571 303.45ZM152.91696 301.45L154.01071 301.575Q153.76071 302.52814 153.05759 303.0594Q152.35446 303.59064 151.27634 303.59064Q149.91696 303.59064 149.10446 302.7469Q148.30759 301.90314 148.30759 300.3875Q148.30759 298.825 149.12009 297.96564Q149.93259 297.09064 151.21384 297.09064Q152.46384 297.09064 153.24509 297.9344Q154.04196 298.77814 154.04196 300.325Q154.04196 300.41876 154.04196 300.60626L149.40134 300.60626Q149.46384 301.6375 149.97946 302.1844Q150.49509 302.71564 151.27634 302.71564Q151.85446 302.71564 152.26071 302.41876Q152.68259 302.10626 152.91696 301.45ZM149.46384 299.7469L152.93259 299.7469Q152.87009 298.95 152.54196 298.5594Q152.02634 297.95 151.22946 297.95Q150.49509 297.95 149.99509 298.4344Q149.51071 298.91876 149.46384 299.7469Z" fill-rule="nonzero"/><path fill="#000000" d="M115.30758 317.45L115.30758 308.85626L119.12008 308.85626Q120.27633 308.85626 120.87008 309.09064Q121.46383 309.325 121.823204 309.91876Q122.18258 310.4969 122.18258 311.2Q122.18258 312.1219 121.58883 312.7469Q120.99508 313.3719 119.760704 313.54376Q120.21383 313.7625 120.448204 313.96564Q120.948204 314.41876 121.385704 315.10626L122.885704 317.45L121.448204 317.45L120.323204 315.66876Q119.823204 314.8875 119.49508 314.48126Q119.18258 314.075 118.916954 313.91876Q118.666954 313.7469 118.40133 313.66876Q118.21383 313.6375 117.77633 313.6375L116.448204 313.6375L116.448204 317.45L115.30758 317.45ZM116.448204 312.65314L118.90133 312.65314Q119.666954 312.65314 120.104454 312.4969Q120.55758 312.325 120.77633 311.98126Q121.010704 311.6219 121.010704 311.2Q121.010704 310.59064 120.55758 310.2Q120.12008 309.8094 119.166954 309.8094L116.448204 309.8094L116.448204 312.65314ZM128.41696 315.45L129.51071 315.575Q129.26071 316.52814 128.55759 317.0594Q127.854454 317.59064 126.77633 317.59064Q125.416954 317.59064 124.604454 316.7469Q123.80758 315.90314 123.80758 314.3875Q123.80758 312.825 124.62008 311.96564Q125.43258 311.09064 126.71383 311.09064Q127.96383 311.09064 128.74509 311.9344Q129.54196 312.77814 129.54196 314.325Q129.54196 314.41876 129.54196 314.60626L124.90133 314.60626Q124.96383 315.6375 125.479454 316.1844Q125.99508 316.71564 126.77633 316.71564Q127.354454 316.71564 127.760704 316.41876Q128.18259 316.10626 128.41696 315.45ZM124.96383 313.7469L128.43259 313.7469Q128.37009 312.95 128.04196 312.5594Q127.52633 311.95 126.729454 311.95Q125.99508 311.95 125.49508 312.4344Q125.010704 312.91876 124.96383 313.7469ZM131.13571 317.45L131.13571 308.85626L132.19821 308.85626L132.19821 317.45L131.13571 317.45ZM138.41696 315.45L139.51071 315.575Q139.26071 316.52814 138.55759 317.0594Q137.85446 317.59064 136.77634 317.59064Q135.41696 317.59064 134.60446 316.7469Q133.80759 315.90314 133.80759 314.3875Q133.80759 312.825 134.62009 311.96564Q135.43259 311.09064 136.71384 311.09064Q137.96384 311.09064 138.74509 311.9344Q139.54196 312.77814 139.54196 314.325Q139.54196 314.41876 139.54196 314.60626L134.90134 314.60626Q134.96384 315.6375 135.47946 316.1844Q135.99509 316.71564 136.77634 316.71564Q137.35446 316.71564 137.76071 316.41876Q138.18259 316.10626 138.41696 315.45ZM134.96384 313.7469L138.43259 313.7469Q138.37009 312.95 138.04196 312.5594Q137.52634 311.95 136.72946 311.95Q135.99509 311.95 135.49509 312.4344Q135.01071 312.91876 134.96384 313.7469ZM145.22946 316.6844Q144.63571 317.1844 144.08884 317.3875Q143.55759 317.59064 142.93259 317.59064Q141.90134 317.59064 141.35446 317.09064Q140.80759 316.59064 140.80759 315.8094Q140.80759 315.35626 141.01071 314.98126Q141.21384 314.59064 141.55759 314.3719Q141.90134 314.1375 142.32321 314.02814Q142.62009 313.9344 143.26071 313.85626Q144.52634 313.71564 145.13571 313.4969Q145.13571 313.27814 145.13571 313.23126Q145.13571 312.575 144.83884 312.3094Q144.43259 311.96564 143.63571 311.96564Q142.90134 311.96564 142.54196 312.23126Q142.18259 312.48126 142.01071 313.1375L140.97946 312.9969Q141.12009 312.34064 141.44821 311.9344Q141.77634 311.52814 142.38571 311.3094Q142.99509 311.09064 143.79196 311.09064Q144.58884 311.09064 145.08884 311.27814Q145.58884 311.46564 145.82321 311.7469Q146.05759 312.02814 146.15134 312.46564Q146.19821 312.73126 146.19821 313.4344L146.19821 314.84064Q146.19821 316.3094 146.26071 316.7Q146.33884 317.09064 146.54196 317.45L145.43259 317.45Q145.27634 317.1219 145.22946 316.6844ZM145.13571 314.325Q144.55759 314.5594 143.41696 314.73126Q142.76071 314.825 142.49509 314.95Q142.22946 315.0594 142.07321 315.27814Q141.93259 315.4969 141.93259 315.77814Q141.93259 316.2 142.24509 316.48126Q142.57321 316.7625 143.18259 316.7625Q143.79196 316.7625 144.26071 316.4969Q144.74509 316.23126 144.96384 315.7625Q145.13571 315.40314 145.13571 314.71564L145.13571 314.325ZM147.74509 315.59064L148.77634 315.4344Q148.87009 316.0594 149.26071 316.3875Q149.66696 316.71564 150.40134 316.71564Q151.12009 316.71564 151.46384 316.4344Q151.82321 316.1375 151.82321 315.73126Q151.82321 315.3719 151.51071 315.16876Q151.29196 315.02814 150.43259 314.8094Q149.27634 314.5125 148.82321 314.3094Q148.38571 314.09064 148.15134 313.71564Q147.91696 313.34064 147.91696 312.8719Q147.91696 312.46564 148.10446 312.10626Q148.29196 311.7469 148.62009 311.5125Q148.87009 311.34064 149.29196 311.21564Q149.71384 311.09064 150.21384 311.09064Q150.93259 311.09064 151.47946 311.3094Q152.04196 311.5125 152.30759 311.8719Q152.57321 312.23126 152.66696 312.825L151.63571 312.96564Q151.57321 312.4969 151.22946 312.23126Q150.90134 311.95 150.27634 311.95Q149.55759 311.95 149.24509 312.2Q148.93259 312.4344 148.93259 312.7625Q148.93259 312.96564 149.05759 313.1219Q149.19821 313.29376 149.46384 313.40314Q149.62009 313.46564 150.40134 313.66876Q151.52634 313.98126 151.96384 314.16876Q152.40134 314.35626 152.65134 314.71564Q152.90134 315.075 152.90134 315.6219Q152.90134 316.15314 152.58884 316.6219Q152.29196 317.075 151.71384 317.34064Q151.13571 317.59064 150.40134 317.59064Q149.18259 317.59064 148.54196 317.09064Q147.91696 316.575 147.74509 315.59064ZM158.41696 315.45L159.51071 315.575Q159.26071 316.52814 158.55759 317.0594Q157.85446 317.59064 156.77634 317.59064Q155.41696 317.59064 154.60446 316.7469Q153.80759 315.90314 153.80759 314.3875Q153.80759 312.825 154.62009 311.96564Q155.43259 311.09064 156.71384 311.09064Q157.96384 311.09064 158.74509 311.9344Q159.54196 312.77814 159.54196 314.325Q159.54196 314.41876 159.54196 314.60626L154.90134 314.60626Q154.96384 315.6375 155.47946 316.1844Q155.99509 316.71564 156.77634 316.71564Q157.35446 316.71564 157.76071 316.41876Q158.18259 316.10626 158.41696 315.45ZM154.96384 313.7469L158.43259 313.7469Q158.37009 312.95 158.04196 312.5594Q157.52634 311.95 156.72946 311.95Q155.99509 311.95 155.49509 312.4344Q155.01071 312.91876 154.96384 313.7469Z" fill-rule="nonzero"/><path fill="#000000" d="M197.54391 289.45L197.54391 280.85626L198.70016 280.85626L203.21579 287.60626L203.21579 280.85626L204.30954 280.85626L204.30954 289.45L203.13766 289.45L198.62204 282.7L198.62204 289.45L197.54391 289.45ZM206.41891 282.075L206.41891 280.85626L207.48141 280.85626L207.48141 282.075L206.41891 282.075ZM206.41891 289.45L206.41891 283.23126L207.48141 283.23126L207.48141 289.45L206.41891 289.45ZM209.21579 289.96564L210.24704 290.1219Q210.30954 290.59064 210.60641 290.8094Q210.99704 291.10626 211.66891 291.10626Q212.40329 291.10626 212.79391 290.8094Q213.20016 290.5125 213.34079 289.9969Q213.43454 289.66876 213.41891 288.6375Q212.73141 289.45 211.70016 289.45Q210.41891 289.45 209.71579 288.52814Q209.01266 287.59064 209.01266 286.3094Q209.01266 285.41876 209.32516 284.66876Q209.65329 283.90314 210.26266 283.4969Q210.87204 283.09064 211.70016 283.09064Q212.80954 283.09064 213.52829 283.98126L213.52829 283.23126L214.49704 283.23126L214.49704 288.60626Q214.49704 290.0594 214.20016 290.66876Q213.90329 291.27814 213.26266 291.6219Q212.62204 291.98126 211.68454 291.98126Q210.57516 291.98126 209.88766 291.48126Q209.20016 290.98126 209.21579 289.96564ZM210.09079 286.23126Q210.09079 287.45 210.57516 288.0125Q211.05954 288.575 211.79391 288.575Q212.52829 288.575 213.01266 288.0125Q213.51266 287.45 213.51266 286.2625Q213.51266 285.1219 212.99704 284.54376Q212.49704 283.96564 211.77829 283.96564Q211.07516 283.96564 210.57516 284.54376Q210.09079 285.10626 210.09079 286.23126ZM216.41891 289.45L216.41891 280.85626L217.46579 280.85626L217.46579 283.9344Q218.20016 283.09064 219.32516 283.09064Q220.02829 283.09064 220.52829 283.3719Q221.04391 283.6375 221.26266 284.1219Q221.48141 284.59064 221.48141 285.5125L221.48141 289.45L220.43454 289.45L220.43454 285.5125Q220.43454 284.71564 220.09079 284.35626Q219.74704 283.9969 219.12204 283.9969Q218.65329 283.9969 218.23141 284.2469Q217.82516 284.48126 217.63766 284.90314Q217.46579 285.3094 217.46579 286.04376L217.46579 289.45L216.41891 289.45ZM225.71579 288.5125L225.87204 289.4344Q225.41891 289.52814 225.07516 289.52814Q224.49704 289.52814 224.18454 289.35626Q223.87204 289.16876 223.73141 288.8719Q223.60641 288.575 223.60641 287.6219L223.60641 284.04376L222.84079 284.04376L222.84079 283.23126L223.60641 283.23126L223.60641 281.6844L224.65329 281.0594L224.65329 283.23126L225.71579 283.23126L225.71579 284.04376L224.65329 284.04376L224.65329 287.6844Q224.65329 288.1375 224.70016 288.2625Q224.76266 288.3875 224.88766 288.46564Q225.01266 288.54376 225.24704 288.54376Q225.43454 288.54376 225.71579 288.5125ZM226.38766 289.45L226.38766 280.85626L227.45016 280.85626L227.45016 289.45L226.38766 289.45ZM229.37204 291.84064L229.24704 290.85626Q229.59079 290.95 229.85641 290.95Q230.20016 290.95 230.40329 290.825Q230.62204 290.71564 230.76266 290.5125Q230.85641 290.34064 231.09079 289.71564Q231.10641 289.6375 231.18454 289.46564L228.80954 283.23126L229.95016 283.23126L231.24704 286.825Q231.49704 287.5125 231.70016 288.27814Q231.88766 287.54376 232.13766 286.85626L233.46579 283.23126L234.51266 283.23126L232.15329 289.5594Q231.76266 290.575 231.55954 290.96564Q231.27829 291.4969 230.90329 291.73126Q230.54391 291.98126 230.04391 291.98126Q229.74704 291.98126 229.37204 291.84064Z" fill-rule="nonzero"/><path fill="#000000" d="M270.7959 289.45L270.7959 280.85626L274.0459 280.85626Q274.88965 280.85626 275.34277 280.9344Q275.9834 281.04376 276.40527 281.34064Q276.84277 281.6375 277.09277 282.16876Q277.3584 282.7 277.3584 283.34064Q277.3584 284.4344 276.65527 285.2Q275.96777 285.95 274.13965 285.95L271.93652 285.95L271.93652 289.45L270.7959 289.45ZM271.93652 284.95L274.15527 284.95Q275.26465 284.95 275.71777 284.54376Q276.18652 284.1219 276.18652 283.3719Q276.18652 282.84064 275.90527 282.46564Q275.63965 282.075 275.20215 281.95Q274.90527 281.8719 274.13965 281.8719L271.93652 281.8719L271.93652 284.95ZM278.65527 289.45L278.65527 283.23126L279.6084 283.23126L279.6084 284.16876Q279.96777 283.5125 280.26465 283.3094Q280.57715 283.09064 280.95215 283.09064Q281.4834 283.09064 282.03027 283.41876L281.6709 284.40314Q281.28027 284.16876 280.90527 284.16876Q280.5459 284.16876 280.26465 284.3875Q279.99902 284.59064 279.88965 284.96564Q279.70215 285.52814 279.70215 286.1844L279.70215 289.45L278.65527 289.45ZM286.9209 287.45L288.01465 287.575Q287.76465 288.52814 287.06152 289.0594Q286.3584 289.59064 285.28027 289.59064Q283.9209 289.59064 283.1084 288.7469Q282.31152 287.90314 282.31152 286.3875Q282.31152 284.825 283.12402 283.96564Q283.93652 283.09064 285.21777 283.09064Q286.46777 283.09064 287.24902 283.9344Q288.0459 284.77814 288.0459 286.325Q288.0459 286.41876 288.0459 286.60626L283.40527 286.60626Q283.46777 287.6375 283.9834 288.1844Q284.49902 288.71564 285.28027 288.71564Q285.8584 288.71564 286.26465 288.41876Q286.68652 288.10626 286.9209 287.45ZM283.46777 285.7469L286.93652 285.7469Q286.87402 284.95 286.5459 284.5594Q286.03027 283.95 285.2334 283.95Q284.49902 283.95 283.99902 284.4344Q283.51465 284.91876 283.46777 285.7469ZM291.38965 289.45L289.03027 283.23126L290.13965 283.23126L291.4834 286.95Q291.68652 287.5594 291.87402 288.2Q292.01465 287.71564 292.26465 287.02814L293.65527 283.23126L294.7334 283.23126L292.37402 289.45L291.38965 289.45ZM295.6709 282.075L295.6709 280.85626L296.7334 280.85626L296.7334 282.075L295.6709 282.075ZM295.6709 289.45L295.6709 283.23126L296.7334 283.23126L296.7334 289.45L295.6709 289.45ZM298.28027 286.34064Q298.28027 284.60626 299.2334 283.77814Q300.03027 283.09064 301.18652 283.09064Q302.46777 283.09064 303.28027 283.9344Q304.1084 284.7625 304.1084 286.2469Q304.1084 287.45 303.74902 288.1375Q303.38965 288.825 302.68652 289.21564Q301.99902 289.59064 301.18652 289.59064Q299.88965 289.59064 299.07715 288.7625Q298.28027 287.91876 298.28027 286.34064ZM299.3584 286.34064Q299.3584 287.52814 299.87402 288.1219Q300.40527 288.71564 301.18652 288.71564Q301.9834 288.71564 302.49902 288.1219Q303.01465 287.52814 303.01465 286.3094Q303.01465 285.15314 302.4834 284.5594Q301.96777 283.96564 301.18652 283.96564Q300.40527 283.96564 299.87402 284.5594Q299.3584 285.1375 299.3584 286.34064ZM309.74902 289.45L309.74902 288.52814Q309.01465 289.59064 307.76465 289.59064Q307.21777 289.59064 306.7334 289.3875Q306.26465 289.16876 306.03027 288.85626Q305.7959 288.52814 305.70215 288.0594Q305.63965 287.7625 305.63965 287.075L305.63965 283.23126L306.70215 283.23126L306.70215 286.6844Q306.70215 287.4969 306.76465 287.79376Q306.8584 288.2 307.1709 288.45Q307.49902 288.6844 307.9834 288.6844Q308.45215 288.6844 308.8584 288.45Q309.28027 288.2 309.45215 287.77814Q309.63965 287.35626 309.63965 286.5594L309.63965 283.23126L310.68652 283.23126L310.68652 289.45L309.74902 289.45ZM312.24902 287.59064L313.28027 287.4344Q313.37402 288.0594 313.76465 288.3875Q314.1709 288.71564 314.90527 288.71564Q315.62402 288.71564 315.96777 288.4344Q316.32715 288.1375 316.32715 287.73126Q316.32715 287.3719 316.01465 287.16876Q315.7959 287.02814 314.93652 286.8094Q313.78027 286.5125 313.32715 286.3094Q312.88965 286.09064 312.65527 285.71564Q312.4209 285.34064 312.4209 284.8719Q312.4209 284.46564 312.6084 284.10626Q312.7959 283.7469 313.12402 283.5125Q313.37402 283.34064 313.7959 283.21564Q314.21777 283.09064 314.71777 283.09064Q315.43652 283.09064 315.9834 283.3094Q316.5459 283.5125 316.81152 283.8719Q317.07715 284.23126 317.1709 284.825L316.13965 284.96564Q316.07715 284.4969 315.7334 284.23126Q315.40527 283.95 314.78027 283.95Q314.06152 283.95 313.74902 284.2Q313.43652 284.4344 313.43652 284.7625Q313.43652 284.96564 313.56152 285.1219Q313.70215 285.29376 313.96777 285.40314Q314.12402 285.46564 314.90527 285.66876Q316.03027 285.98126 316.46777 286.16876Q316.90527 286.35626 317.15527 286.71564Q317.40527 287.075 317.40527 287.6219Q317.40527 288.15314 317.09277 288.6219Q316.7959 289.075 316.21777 289.34064Q315.63965 289.59064 314.90527 289.59064Q313.68652 289.59064 313.0459 289.09064Q312.4209 288.575 312.24902 287.59064Z" fill-rule="nonzero"/><path fill="#000000" d="M276.9209 300.6844L277.9834 300.59064Q278.06152 301.2469 278.34277 301.65314Q278.62402 302.0594 279.20215 302.325Q279.7959 302.575 280.53027 302.575Q281.1709 302.575 281.6709 302.3875Q282.1709 302.1844 282.40527 301.85626Q282.65527 301.5125 282.65527 301.1219Q282.65527 300.71564 282.4209 300.41876Q282.18652 300.10626 281.65527 299.90314Q281.2959 299.7625 280.1084 299.48126Q278.93652 299.2 278.46777 298.95Q277.84277 298.6219 277.5459 298.15314Q277.24902 297.66876 277.24902 297.075Q277.24902 296.4344 277.6084 295.8719Q277.9834 295.29376 278.68652 295.0125Q279.40527 294.71564 280.26465 294.71564Q281.21777 294.71564 281.95215 295.02814Q282.68652 295.325 283.07715 295.9344Q283.46777 296.52814 283.49902 297.27814L282.40527 297.35626Q282.31152 296.54376 281.7959 296.1375Q281.2959 295.71564 280.31152 295.71564Q279.28027 295.71564 278.81152 296.09064Q278.34277 296.46564 278.34277 296.9969Q278.34277 297.46564 278.6709 297.7625Q278.99902 298.0594 280.37402 298.3719Q281.76465 298.6844 282.28027 298.91876Q283.03027 299.27814 283.38965 299.8094Q283.74902 300.325 283.74902 301.02814Q283.74902 301.71564 283.3584 302.325Q282.96777 302.91876 282.2334 303.2625Q281.49902 303.59064 280.57715 303.59064Q279.40527 303.59064 278.6084 303.2625Q277.82715 302.91876 277.37402 302.23126Q276.93652 301.54376 276.9209 300.6844ZM287.46777 302.5125L287.62402 303.4344Q287.1709 303.52814 286.82715 303.52814Q286.24902 303.52814 285.93652 303.35626Q285.62402 303.16876 285.4834 302.8719Q285.3584 302.575 285.3584 301.6219L285.3584 298.04376L284.59277 298.04376L284.59277 297.23126L285.3584 297.23126L285.3584 295.6844L286.40527 295.0594L286.40527 297.23126L287.46777 297.23126L287.46777 298.04376L286.40527 298.04376L286.40527 301.6844Q286.40527 302.1375 286.45215 302.2625Q286.51465 302.3875 286.63965 302.46564Q286.76465 302.54376 286.99902 302.54376Q287.18652 302.54376 287.46777 302.5125ZM292.2334 302.6844Q291.63965 303.1844 291.09277 303.3875Q290.56152 303.59064 289.93652 303.59064Q288.90527 303.59064 288.3584 303.09064Q287.81152 302.59064 287.81152 301.8094Q287.81152 301.35626 288.01465 300.98126Q288.21777 300.59064 288.56152 300.3719Q288.90527 300.1375 289.32715 300.02814Q289.62402 299.9344 290.26465 299.85626Q291.53027 299.71564 292.13965 299.4969Q292.13965 299.27814 292.13965 299.23126Q292.13965 298.575 291.84277 298.3094Q291.43652 297.96564 290.63965 297.96564Q289.90527 297.96564 289.5459 298.23126Q289.18652 298.48126 289.01465 299.1375L287.9834 298.9969Q288.12402 298.34064 288.45215 297.9344Q288.78027 297.52814 289.38965 297.3094Q289.99902 297.09064 290.7959 297.09064Q291.59277 297.09064 292.09277 297.27814Q292.59277 297.46564 292.82715 297.7469Q293.06152 298.02814 293.15527 298.46564Q293.20215 298.73126 293.20215 299.4344L293.20215 300.84064Q293.20215 302.3094 293.26465 302.7Q293.34277 303.09064 293.5459 303.45L292.43652 303.45Q292.28027 303.1219 292.2334 302.6844ZM292.13965 300.325Q291.56152 300.5594 290.4209 300.73126Q289.76465 300.825 289.49902 300.95Q289.2334 301.0594 289.07715 301.27814Q288.93652 301.4969 288.93652 301.77814Q288.93652 302.2 289.24902 302.48126Q289.57715 302.7625 290.18652 302.7625Q290.7959 302.7625 291.26465 302.4969Q291.74902 302.23126 291.96777 301.7625Q292.13965 301.40314 292.13965 300.71564L292.13965 300.325ZM296.13965 303.45L295.15527 303.45L295.15527 294.85626L296.21777 294.85626L296.21777 297.91876Q296.88965 297.09064 297.9209 297.09064Q298.49902 297.09064 298.99902 297.325Q299.51465 297.54376 299.84277 297.96564Q300.18652 298.3875 300.37402 298.98126Q300.56152 299.575 300.56152 300.2469Q300.56152 301.84064 299.76465 302.71564Q298.96777 303.59064 297.87402 303.59064Q296.76465 303.59064 296.13965 302.66876L296.13965 303.45ZM296.12402 300.29376Q296.12402 301.40314 296.43652 301.90314Q296.93652 302.71564 297.78027 302.71564Q298.46777 302.71564 298.96777 302.1219Q299.4834 301.52814 299.4834 300.325Q299.4834 299.10626 298.99902 298.52814Q298.51465 297.95 297.82715 297.95Q297.13965 297.95 296.62402 298.5594Q296.12402 299.15314 296.12402 300.29376ZM302.13965 303.45L302.13965 294.85626L303.20215 294.85626L303.20215 303.45L302.13965 303.45ZM309.4209 301.45L310.51465 301.575Q310.26465 302.52814 309.56152 303.0594Q308.8584 303.59064 307.78027 303.59064Q306.4209 303.59064 305.6084 302.7469Q304.81152 301.90314 304.81152 300.3875Q304.81152 298.825 305.62402 297.96564Q306.43652 297.09064 307.71777 297.09064Q308.96777 297.09064 309.74902 297.9344Q310.5459 298.77814 310.5459 300.325Q310.5459 300.41876 310.5459 300.60626L305.90527 300.60626Q305.96777 301.6375 306.4834 302.1844Q306.99902 302.71564 307.78027 302.71564Q308.3584 302.71564 308.76465 302.41876Q309.18652 302.10626 309.4209 301.45ZM305.96777 299.7469L309.43652 299.7469Q309.37402 298.95 309.0459 298.5594Q308.53027 297.95 307.7334 297.95Q306.99902 297.95 306.49902 298.4344Q306.01465 298.91876 305.96777 299.7469Z" fill-rule="nonzero"/><path fill="#000000" d="M271.81152 317.45L271.81152 308.85626L275.62402 308.85626Q276.78027 308.85626 277.37402 309.09064Q277.96777 309.325 278.32715 309.91876Q278.68652 310.4969 278.68652 311.2Q278.68652 312.1219 278.09277 312.7469Q277.49902 313.3719 276.26465 313.54376Q276.71777 313.7625 276.95215 313.96564Q277.45215 314.41876 277.88965 315.10626L279.38965 317.45L277.95215 317.45L276.82715 315.66876Q276.32715 314.8875 275.99902 314.48126Q275.68652 314.075 275.4209 313.91876Q275.1709 313.7469 274.90527 313.66876Q274.71777 313.6375 274.28027 313.6375L272.95215 313.6375L272.95215 317.45L271.81152 317.45ZM272.95215 312.65314L275.40527 312.65314Q276.1709 312.65314 276.6084 312.4969Q277.06152 312.325 277.28027 311.98126Q277.51465 311.6219 277.51465 311.2Q277.51465 310.59064 277.06152 310.2Q276.62402 309.8094 275.6709 309.8094L272.95215 309.8094L272.95215 312.65314ZM284.9209 315.45L286.01465 315.575Q285.76465 316.52814 285.06152 317.0594Q284.3584 317.59064 283.28027 317.59064Q281.9209 317.59064 281.1084 316.7469Q280.31152 315.90314 280.31152 314.3875Q280.31152 312.825 281.12402 311.96564Q281.93652 311.09064 283.21777 311.09064Q284.46777 311.09064 285.24902 311.9344Q286.0459 312.77814 286.0459 314.325Q286.0459 314.41876 286.0459 314.60626L281.40527 314.60626Q281.46777 315.6375 281.9834 316.1844Q282.49902 316.71564 283.28027 316.71564Q283.8584 316.71564 284.26465 316.41876Q284.68652 316.10626 284.9209 315.45ZM281.46777 313.7469L284.93652 313.7469Q284.87402 312.95 284.5459 312.5594Q284.03027 311.95 283.2334 311.95Q282.49902 311.95 281.99902 312.4344Q281.51465 312.91876 281.46777 313.7469ZM287.63965 317.45L287.63965 308.85626L288.70215 308.85626L288.70215 317.45L287.63965 317.45ZM294.9209 315.45L296.01465 315.575Q295.76465 316.52814 295.06152 317.0594Q294.3584 317.59064 293.28027 317.59064Q291.9209 317.59064 291.1084 316.7469Q290.31152 315.90314 290.31152 314.3875Q290.31152 312.825 291.12402 311.96564Q291.93652 311.09064 293.21777 311.09064Q294.46777 311.09064 295.24902 311.9344Q296.0459 312.77814 296.0459 314.325Q296.0459 314.41876 296.0459 314.60626L291.40527 314.60626Q291.46777 315.6375 291.9834 316.1844Q292.49902 316.71564 293.28027 316.71564Q293.8584 316.71564 294.26465 316.41876Q294.68652 316.10626 294.9209 315.45ZM291.46777 313.7469L294.93652 313.7469Q294.87402 312.95 294.5459 312.5594Q294.03027 311.95 293.2334 311.95Q292.49902 311.95 291.99902 312.4344Q291.51465 312.91876 291.46777 313.7469ZM301.7334 316.6844Q301.13965 317.1844 300.59277 317.3875Q300.06152 317.59064 299.43652 317.59064Q298.40527 317.59064 297.8584 317.09064Q297.31152 316.59064 297.31152 315.8094Q297.31152 315.35626 297.51465 314.98126Q297.71777 314.59064 298.06152 314.3719Q298.40527 314.1375 298.82715 314.02814Q299.12402 313.9344 299.76465 313.85626Q301.03027 313.71564 301.63965 313.4969Q301.63965 313.27814 301.63965 313.23126Q301.63965 312.575 301.34277 312.3094Q300.93652 311.96564 300.13965 311.96564Q299.40527 311.96564 299.0459 312.23126Q298.68652 312.48126 298.51465 313.1375L297.4834 312.9969Q297.62402 312.34064 297.95215 311.9344Q298.28027 311.52814 298.88965 311.3094Q299.49902 311.09064 300.2959 311.09064Q301.09277 311.09064 301.59277 311.27814Q302.09277 311.46564 302.32715 311.7469Q302.56152 312.02814 302.65527 312.46564Q302.70215 312.73126 302.70215 313.4344L302.70215 314.84064Q302.70215 316.3094 302.76465 316.7Q302.84277 317.09064 303.0459 317.45L301.93652 317.45Q301.78027 317.1219 301.7334 316.6844ZM301.63965 314.325Q301.06152 314.5594 299.9209 314.73126Q299.26465 314.825 298.99902 314.95Q298.7334 315.0594 298.57715 315.27814Q298.43652 315.4969 298.43652 315.77814Q298.43652 316.2 298.74902 316.48126Q299.07715 316.7625 299.68652 316.7625Q300.2959 316.7625 300.76465 316.4969Q301.24902 316.23126 301.46777 315.7625Q301.63965 315.40314 301.63965 314.71564L301.63965 314.325ZM304.24902 315.59064L305.28027 315.4344Q305.37402 316.0594 305.76465 316.3875Q306.1709 316.71564 306.90527 316.71564Q307.62402 316.71564 307.96777 316.4344Q308.32715 316.1375 308.32715 315.73126Q308.32715 315.3719 308.01465 315.16876Q307.7959 315.02814 306.93652 314.8094Q305.78027 314.5125 305.32715 314.3094Q304.88965 314.09064 304.65527 313.71564Q304.4209 313.34064 304.4209 312.8719Q304.4209 312.46564 304.6084 312.10626Q304.7959 311.7469 305.12402 311.5125Q305.37402 311.34064 305.7959 311.21564Q306.21777 311.09064 306.71777 311.09064Q307.43652 311.09064 307.9834 311.3094Q308.5459 311.5125 308.81152 311.8719Q309.07715 312.23126 309.1709 312.825L308.13965 312.96564Q308.07715 312.4969 307.7334 312.23126Q307.40527 311.95 306.78027 311.95Q306.06152 311.95 305.74902 312.2Q305.43652 312.4344 305.43652 312.7625Q305.43652 312.96564 305.56152 313.1219Q305.70215 313.29376 305.96777 313.40314Q306.12402 313.46564 306.90527 313.66876Q308.03027 313.98126 308.46777 314.16876Q308.90527 314.35626 309.15527 314.71564Q309.40527 315.075 309.40527 315.6219Q309.40527 316.15314 309.09277 316.6219Q308.7959 317.075 308.21777 317.34064Q307.63965 317.59064 306.90527 317.59064Q305.68652 317.59064 305.0459 317.09064Q304.4209 316.575 304.24902 315.59064ZM314.9209 315.45L316.01465 315.575Q315.76465 316.52814 315.06152 317.0594Q314.3584 317.59064 313.28027 317.59064Q311.9209 317.59064 311.1084 316.7469Q310.31152 315.90314 310.31152 314.3875Q310.31152 312.825 311.12402 311.96564Q311.93652 311.09064 313.21777 311.09064Q314.46777 311.09064 315.24902 311.9344Q316.0459 312.77814 316.0459 314.325Q316.0459 314.41876 316.0459 314.60626L311.40527 314.60626Q311.46777 315.6375 311.9834 316.1844Q312.49902 316.71564 313.28027 316.71564Q313.8584 316.71564 314.26465 316.41876Q314.68652 316.10626 314.9209 315.45ZM311.46777 313.7469L314.93652 313.7469Q314.87402 312.95 314.5459 312.5594Q314.03027 311.95 313.2334 311.95Q312.49902 311.95 311.99902 312.4344Q311.51465 312.91876 311.46777 313.7469Z" fill-rule="nonzero"/><path fill="#000000" d="M360.50098 289.45L360.50098 280.85626L363.73535 280.85626Q364.71973 280.85626 365.31348 281.1219Q365.90723 281.3875 366.23535 281.9344Q366.5791 282.46564 366.5791 283.0594Q366.5791 283.60626 366.28223 284.09064Q365.98535 284.575 365.37598 284.8719Q366.15723 285.10626 366.56348 285.66876Q366.98535 286.21564 366.98535 286.96564Q366.98535 287.5594 366.73535 288.09064Q366.48535 288.60626 366.11035 288.8875Q365.73535 289.16876 365.15723 289.3094Q364.59473 289.45 363.78223 289.45L360.50098 289.45ZM361.6416 284.46564L363.50098 284.46564Q364.25098 284.46564 364.5791 284.3719Q365.0166 284.2469 365.23535 283.95Q365.4541 283.6375 365.4541 283.1844Q365.4541 282.7625 365.25098 282.4344Q365.04785 282.10626 364.65723 281.9969Q364.28223 281.8719 363.36035 281.8719L361.6416 281.8719L361.6416 284.46564ZM361.6416 288.4344L363.78223 288.4344Q364.3291 288.4344 364.54785 288.3875Q364.9541 288.325 365.2041 288.16876Q365.46973 287.9969 365.6416 287.6844Q365.81348 287.3719 365.81348 286.96564Q365.81348 286.48126 365.56348 286.1219Q365.3291 285.7625 364.8916 285.6219Q364.4541 285.48126 363.62598 285.48126L361.6416 285.48126L361.6416 288.4344ZM372.67285 287.45L373.7666 287.575Q373.5166 288.52814 372.81348 289.0594Q372.11035 289.59064 371.03223 289.59064Q369.67285 289.59064 368.86035 288.7469Q368.06348 287.90314 368.06348 286.3875Q368.06348 284.825 368.87598 283.96564Q369.68848 283.09064 370.96973 283.09064Q372.21973 283.09064 373.00098 283.9344Q373.79785 284.77814 373.79785 286.325Q373.79785 286.41876 373.79785 286.60626L369.15723 286.60626Q369.21973 287.6375 369.73535 288.1844Q370.25098 288.71564 371.03223 288.71564Q371.61035 288.71564 372.0166 288.41876Q372.43848 288.10626 372.67285 287.45ZM369.21973 285.7469L372.68848 285.7469Q372.62598 284.95 372.29785 284.5594Q371.78223 283.95 370.98535 283.95Q370.25098 283.95 369.75098 284.4344Q369.2666 284.91876 369.21973 285.7469ZM377.71973 288.5125L377.87598 289.4344Q377.42285 289.52814 377.0791 289.52814Q376.50098 289.52814 376.18848 289.35626Q375.87598 289.16876 375.73535 288.8719Q375.61035 288.575 375.61035 287.6219L375.61035 284.04376L374.84473 284.04376L374.84473 283.23126L375.61035 283.23126L375.61035 281.6844L376.65723 281.0594L376.65723 283.23126L377.71973 283.23126L377.71973 284.04376L376.65723 284.04376L376.65723 287.6844Q376.65723 288.1375 376.7041 288.2625Q376.7666 288.3875 376.8916 288.46564Q377.0166 288.54376 377.25098 288.54376Q377.43848 288.54376 377.71973 288.5125ZM382.48535 288.6844Q381.8916 289.1844 381.34473 289.3875Q380.81348 289.59064 380.18848 289.59064Q379.15723 289.59064 378.61035 289.09064Q378.06348 288.59064 378.06348 287.8094Q378.06348 287.35626 378.2666 286.98126Q378.46973 286.59064 378.81348 286.3719Q379.15723 286.1375 379.5791 286.02814Q379.87598 285.9344 380.5166 285.85626Q381.78223 285.71564 382.3916 285.4969Q382.3916 285.27814 382.3916 285.23126Q382.3916 284.575 382.09473 284.3094Q381.68848 283.96564 380.8916 283.96564Q380.15723 283.96564 379.79785 284.23126Q379.43848 284.48126 379.2666 285.1375L378.23535 284.9969Q378.37598 284.34064 378.7041 283.9344Q379.03223 283.52814 379.6416 283.3094Q380.25098 283.09064 381.04785 283.09064Q381.84473 283.09064 382.34473 283.27814Q382.84473 283.46564 383.0791 283.7469Q383.31348 284.02814 383.40723 284.46564Q383.4541 284.73126 383.4541 285.4344L383.4541 286.84064Q383.4541 288.3094 383.5166 288.7Q383.59473 289.09064 383.79785 289.45L382.68848 289.45Q382.53223 289.1219 382.48535 288.6844ZM382.3916 286.325Q381.81348 286.5594 380.67285 286.73126Q380.0166 286.825 379.75098 286.95Q379.48535 287.0594 379.3291 287.27814Q379.18848 287.4969 379.18848 287.77814Q379.18848 288.2 379.50098 288.48126Q379.8291 288.7625 380.43848 288.7625Q381.04785 288.7625 381.5166 288.4969Q382.00098 288.23126 382.21973 287.7625Q382.3916 287.40314 382.3916 286.71564L382.3916 286.325Z" fill-rule="nonzero"/><path fill="#000000" d="M350.06348 303.45L350.06348 294.85626L353.87598 294.85626Q355.03223 294.85626 355.62598 295.09064Q356.21973 295.325 356.5791 295.91876Q356.93848 296.4969 356.93848 297.2Q356.93848 298.1219 356.34473 298.7469Q355.75098 299.3719 354.5166 299.54376Q354.96973 299.7625 355.2041 299.96564Q355.7041 300.41876 356.1416 301.10626L357.6416 303.45L356.2041 303.45L355.0791 301.66876Q354.5791 300.8875 354.25098 300.48126Q353.93848 300.075 353.67285 299.91876Q353.42285 299.7469 353.15723 299.66876Q352.96973 299.6375 352.53223 299.6375L351.2041 299.6375L351.2041 303.45L350.06348 303.45ZM351.2041 298.65314L353.65723 298.65314Q354.42285 298.65314 354.86035 298.4969Q355.31348 298.325 355.53223 297.98126Q355.7666 297.6219 355.7666 297.2Q355.7666 296.59064 355.31348 296.2Q354.87598 295.8094 353.92285 295.8094L351.2041 295.8094L351.2041 298.65314ZM363.17285 301.45L364.2666 301.575Q364.0166 302.52814 363.31348 303.0594Q362.61035 303.59064 361.53223 303.59064Q360.17285 303.59064 359.36035 302.7469Q358.56348 301.90314 358.56348 300.3875Q358.56348 298.825 359.37598 297.96564Q360.18848 297.09064 361.46973 297.09064Q362.71973 297.09064 363.50098 297.9344Q364.29785 298.77814 364.29785 300.325Q364.29785 300.41876 364.29785 300.60626L359.65723 300.60626Q359.71973 301.6375 360.23535 302.1844Q360.75098 302.71564 361.53223 302.71564Q362.11035 302.71564 362.5166 302.41876Q362.93848 302.10626 363.17285 301.45ZM359.71973 299.7469L363.18848 299.7469Q363.12598 298.95 362.79785 298.5594Q362.28223 297.95 361.48535 297.95Q360.75098 297.95 360.25098 298.4344Q359.7666 298.91876 359.71973 299.7469ZM365.8916 303.45L365.8916 294.85626L366.9541 294.85626L366.9541 303.45L365.8916 303.45ZM373.17285 301.45L374.2666 301.575Q374.0166 302.52814 373.31348 303.0594Q372.61035 303.59064 371.53223 303.59064Q370.17285 303.59064 369.36035 302.7469Q368.56348 301.90314 368.56348 300.3875Q368.56348 298.825 369.37598 297.96564Q370.18848 297.09064 371.46973 297.09064Q372.71973 297.09064 373.50098 297.9344Q374.29785 298.77814 374.29785 300.325Q374.29785 300.41876 374.29785 300.60626L369.65723 300.60626Q369.71973 301.6375 370.23535 302.1844Q370.75098 302.71564 371.53223 302.71564Q372.11035 302.71564 372.5166 302.41876Q372.93848 302.10626 373.17285 301.45ZM369.71973 299.7469L373.18848 299.7469Q373.12598 298.95 372.79785 298.5594Q372.28223 297.95 371.48535 297.95Q370.75098 297.95 370.25098 298.4344Q369.7666 298.91876 369.71973 299.7469ZM379.98535 302.6844Q379.3916 303.1844 378.84473 303.3875Q378.31348 303.59064 377.68848 303.59064Q376.65723 303.59064 376.11035 303.09064Q375.56348 302.59064 375.56348 301.8094Q375.56348 301.35626 375.7666 300.98126Q375.96973 300.59064 376.31348 300.3719Q376.65723 300.1375 377.0791 300.02814Q377.37598 299.9344 378.0166 299.85626Q379.28223 299.71564 379.8916 299.4969Q379.8916 299.27814 379.8916 299.23126Q379.8916 298.575 379.59473 298.3094Q379.18848 297.96564 378.3916 297.96564Q377.65723 297.96564 377.29785 298.23126Q376.93848 298.48126 376.7666 299.1375L375.73535 298.9969Q375.87598 298.34064 376.2041 297.9344Q376.53223 297.52814 377.1416 297.3094Q377.75098 297.09064 378.54785 297.09064Q379.34473 297.09064 379.84473 297.27814Q380.34473 297.46564 380.5791 297.7469Q380.81348 298.02814 380.90723 298.46564Q380.9541 298.73126 380.9541 299.4344L380.9541 300.84064Q380.9541 302.3094 381.0166 302.7Q381.09473 303.09064 381.29785 303.45L380.18848 303.45Q380.03223 303.1219 379.98535 302.6844ZM379.8916 300.325Q379.31348 300.5594 378.17285 300.73126Q377.5166 300.825 377.25098 300.95Q376.98535 301.0594 376.8291 301.27814Q376.68848 301.4969 376.68848 301.77814Q376.68848 302.2 377.00098 302.48126Q377.3291 302.7625 377.93848 302.7625Q378.54785 302.7625 379.0166 302.4969Q379.50098 302.23126 379.71973 301.7625Q379.8916 301.40314 379.8916 300.71564L379.8916 300.325ZM382.50098 301.59064L383.53223 301.4344Q383.62598 302.0594 384.0166 302.3875Q384.42285 302.71564 385.15723 302.71564Q385.87598 302.71564 386.21973 302.4344Q386.5791 302.1375 386.5791 301.73126Q386.5791 301.3719 386.2666 301.16876Q386.04785 301.02814 385.18848 300.8094Q384.03223 300.5125 383.5791 300.3094Q383.1416 300.09064 382.90723 299.71564Q382.67285 299.34064 382.67285 298.8719Q382.67285 298.46564 382.86035 298.10626Q383.04785 297.7469 383.37598 297.5125Q383.62598 297.34064 384.04785 297.21564Q384.46973 297.09064 384.96973 297.09064Q385.68848 297.09064 386.23535 297.3094Q386.79785 297.5125 387.06348 297.8719Q387.3291 298.23126 387.42285 298.825L386.3916 298.96564Q386.3291 298.4969 385.98535 298.23126Q385.65723 297.95 385.03223 297.95Q384.31348 297.95 384.00098 298.2Q383.68848 298.4344 383.68848 298.7625Q383.68848 298.96564 383.81348 299.1219Q383.9541 299.29376 384.21973 299.40314Q384.37598 299.46564 385.15723 299.66876Q386.28223 299.98126 386.71973 300.16876Q387.15723 300.35626 387.40723 300.71564Q387.65723 301.075 387.65723 301.6219Q387.65723 302.15314 387.34473 302.6219Q387.04785 303.075 386.46973 303.34064Q385.8916 303.59064 385.15723 303.59064Q383.93848 303.59064 383.29785 303.09064Q382.67285 302.575 382.50098 301.59064ZM393.17285 301.45L394.2666 301.575Q394.0166 302.52814 393.31348 303.0594Q392.61035 303.59064 391.53223 303.59064Q390.17285 303.59064 389.36035 302.7469Q388.56348 301.90314 388.56348 300.3875Q388.56348 298.825 389.37598 297.96564Q390.18848 297.09064 391.46973 297.09064Q392.71973 297.09064 393.50098 297.9344Q394.29785 298.77814 394.29785 300.325Q394.29785 300.41876 394.29785 300.60626L389.65723 300.60626Q389.71973 301.6375 390.23535 302.1844Q390.75098 302.71564 391.53223 302.71564Q392.11035 302.71564 392.5166 302.41876Q392.93848 302.10626 393.17285 301.45ZM389.71973 299.7469L393.18848 299.7469Q393.12598 298.95 392.79785 298.5594Q392.28223 297.95 391.48535 297.95Q390.75098 297.95 390.25098 298.4344Q389.7666 298.91876 389.71973 299.7469Z" fill-rule="nonzero"/><path fill="#000000" d="M422.94046 286.4344L424.06546 286.73126Q423.7061 288.1219 422.7842 288.85626Q421.86234 289.59064 420.5186 289.59064Q419.12796 289.59064 418.25296 289.02814Q417.37796 288.46564 416.92484 287.40314Q416.4717 286.325 416.4717 285.09064Q416.4717 283.7469 416.98734 282.7469Q417.50296 281.7469 418.44046 281.23126Q419.3936 280.71564 420.5342 280.71564Q421.81546 280.71564 422.69046 281.3719Q423.5811 282.02814 423.92484 283.21564L422.79984 283.48126Q422.50296 282.54376 421.92484 282.1219Q421.36234 281.6844 420.50296 281.6844Q419.5186 281.6844 418.8467 282.16876Q418.19046 282.6375 417.9092 283.4344Q417.6436 284.23126 417.6436 285.09064Q417.6436 286.1844 417.9561 286.9969Q418.2842 287.8094 418.9561 288.21564Q419.62796 288.6219 420.42484 288.6219Q421.37796 288.6219 422.0342 288.075Q422.7061 287.52814 422.94046 286.4344ZM429.75296 289.45L429.75296 288.52814Q429.0186 289.59064 427.7686 289.59064Q427.2217 289.59064 426.73734 289.3875Q426.2686 289.16876 426.0342 288.85626Q425.79984 288.52814 425.7061 288.0594Q425.6436 287.7625 425.6436 287.075L425.6436 283.23126L426.7061 283.23126L426.7061 286.6844Q426.7061 287.4969 426.7686 287.79376Q426.86234 288.2 427.17484 288.45Q427.50296 288.6844 427.98734 288.6844Q428.4561 288.6844 428.86234 288.45Q429.2842 288.2 429.4561 287.77814Q429.6436 287.35626 429.6436 286.5594L429.6436 283.23126L430.69046 283.23126L430.69046 289.45L429.75296 289.45ZM432.25296 287.59064L433.2842 287.4344Q433.37796 288.0594 433.7686 288.3875Q434.17484 288.71564 434.9092 288.71564Q435.62796 288.71564 435.9717 288.4344Q436.3311 288.1375 436.3311 287.73126Q436.3311 287.3719 436.0186 287.16876Q435.79984 287.02814 434.94046 286.8094Q433.7842 286.5125 433.3311 286.3094Q432.8936 286.09064 432.6592 285.71564Q432.42484 285.34064 432.42484 284.8719Q432.42484 284.46564 432.61234 284.10626Q432.79984 283.7469 433.12796 283.5125Q433.37796 283.34064 433.79984 283.21564Q434.2217 283.09064 434.7217 283.09064Q435.44046 283.09064 435.98734 283.3094Q436.54984 283.5125 436.81546 283.8719Q437.0811 284.23126 437.17484 284.825L436.1436 284.96564Q436.0811 284.4969 435.73734 284.23126Q435.4092 283.95 434.7842 283.95Q434.06546 283.95 433.75296 284.2Q433.44046 284.4344 433.44046 284.7625Q433.44046 284.96564 433.56546 285.1219Q433.7061 285.29376 433.9717 285.40314Q434.12796 285.46564 434.9092 285.66876Q436.0342 285.98126 436.4717 286.16876Q436.9092 286.35626 437.1592 286.71564Q437.4092 287.075 437.4092 287.6219Q437.4092 288.15314 437.0967 288.6219Q436.79984 289.075 436.2217 289.34064Q435.6436 289.59064 434.9092 289.59064Q433.69046 289.59064 433.04984 289.09064Q432.42484 288.575 432.25296 287.59064ZM440.9717 288.5125L441.12796 289.4344Q440.67484 289.52814 440.3311 289.52814Q439.75296 289.52814 439.44046 289.35626Q439.12796 289.16876 438.98734 288.8719Q438.86234 288.575 438.86234 287.6219L438.86234 284.04376L438.0967 284.04376L438.0967 283.23126L438.86234 283.23126L438.86234 281.6844L439.9092 281.0594L439.9092 283.23126L440.9717 283.23126L440.9717 284.04376L439.9092 284.04376L439.9092 287.6844Q439.9092 288.1375 439.9561 288.2625Q440.0186 288.3875 440.1436 288.46564Q440.2686 288.54376 440.50296 288.54376Q440.69046 288.54376 440.9717 288.5125ZM441.2842 286.34064Q441.2842 284.60626 442.23734 283.77814Q443.0342 283.09064 444.19046 283.09064Q445.4717 283.09064 446.2842 283.9344Q447.11234 284.7625 447.11234 286.2469Q447.11234 287.45 446.75296 288.1375Q446.3936 288.825 445.69046 289.21564Q445.00296 289.59064 444.19046 289.59064Q442.8936 289.59064 442.0811 288.7625Q441.2842 287.91876 441.2842 286.34064ZM442.36234 286.34064Q442.36234 287.52814 442.87796 288.1219Q443.4092 288.71564 444.19046 288.71564Q444.98734 288.71564 445.50296 288.1219Q446.0186 287.52814 446.0186 286.3094Q446.0186 285.15314 445.48734 284.5594Q444.9717 283.96564 444.19046 283.96564Q443.4092 283.96564 442.87796 284.5594Q442.36234 285.1375 442.36234 286.34064ZM448.67484 289.45L448.67484 283.23126L449.61234 283.23126L449.61234 284.10626Q449.9092 283.6375 450.3936 283.3719Q450.87796 283.09064 451.50296 283.09064Q452.19046 283.09064 452.62796 283.3719Q453.0811 283.65314 453.25296 284.16876Q454.00296 283.09064 455.17484 283.09064Q456.11234 283.09064 456.5967 283.60626Q457.0967 284.10626 457.0967 285.1844L457.0967 289.45L456.04984 289.45L456.04984 285.52814Q456.04984 284.90314 455.94046 284.6219Q455.8467 284.34064 455.5811 284.16876Q455.31546 283.9969 454.94046 283.9969Q454.2842 283.9969 453.8467 284.4344Q453.42484 284.8719 453.42484 285.84064L453.42484 289.45L452.36234 289.45L452.36234 285.40314Q452.36234 284.7 452.0967 284.35626Q451.8467 283.9969 451.2686 283.9969Q450.81546 283.9969 450.44046 284.23126Q450.06546 284.46564 449.8936 284.91876Q449.7217 285.3719 449.7217 286.21564L449.7217 289.45L448.67484 289.45ZM461.86234 289.45L461.86234 280.85626L467.6592 280.85626L467.6592 281.8719L463.00296 281.8719L463.00296 284.52814L467.0342 284.52814L467.0342 285.54376L463.00296 285.54376L463.00296 289.45L461.86234 289.45ZM468.2842 286.34064Q468.2842 284.60626 469.23734 283.77814Q470.0342 283.09064 471.19046 283.09064Q472.4717 283.09064 473.2842 283.9344Q474.11234 284.7625 474.11234 286.2469Q474.11234 287.45 473.75296 288.1375Q473.3936 288.825 472.69046 289.21564Q472.00296 289.59064 471.19046 289.59064Q469.8936 289.59064 469.0811 288.7625Q468.2842 287.91876 468.2842 286.34064ZM469.36234 286.34064Q469.36234 287.52814 469.87796 288.1219Q470.4092 288.71564 471.19046 288.71564Q471.98734 288.71564 472.50296 288.1219Q473.0186 287.52814 473.0186 286.3094Q473.0186 285.15314 472.48734 284.5594Q471.9717 283.96564 471.19046 283.96564Q470.4092 283.96564 469.87796 284.5594Q469.36234 285.1375 469.36234 286.34064ZM475.6592 289.45L475.6592 283.23126L476.61234 283.23126L476.61234 284.16876Q476.9717 283.5125 477.2686 283.3094Q477.5811 283.09064 477.9561 283.09064Q478.48734 283.09064 479.0342 283.41876L478.67484 284.40314Q478.2842 284.16876 477.9092 284.16876Q477.54984 284.16876 477.2686 284.3875Q477.00296 284.59064 476.8936 284.96564Q476.7061 285.52814 476.7061 286.1844L476.7061 289.45L475.6592 289.45ZM479.67484 289.45L479.67484 280.85626L480.73734 280.85626L480.73734 285.7625L483.2217 283.23126L484.5967 283.23126L482.2061 285.52814L484.8311 289.45L483.5342 289.45L481.4717 286.2625L480.73734 286.98126L480.73734 289.45L479.67484 289.45Z" fill-rule="nonzero"/><path fill="#000000" d="M497.7549 289.45L497.7549 280.85626L498.8799 280.85626L498.8799 289.45L497.7549 289.45ZM507.45804 289.45L507.45804 288.66876Q506.8643 289.59064 505.72366 289.59064Q504.97366 289.59064 504.34866 289.1844Q503.72366 288.7625 503.3799 288.02814Q503.03616 287.29376 503.03616 286.34064Q503.03616 285.41876 503.34866 284.65314Q503.66116 283.8875 504.28616 283.4969Q504.91116 283.09064 505.6768 283.09064Q506.2393 283.09064 506.6768 283.325Q507.1143 283.5594 507.39554 283.9344L507.39554 280.85626L508.4424 280.85626L508.4424 289.45L507.45804 289.45ZM504.1299 286.34064Q504.1299 287.54376 504.6299 288.1375Q505.1299 288.71564 505.8174 288.71564Q506.5049 288.71564 506.9893 288.15314Q507.47366 287.59064 507.47366 286.4344Q507.47366 285.15314 506.97366 284.5594Q506.4893 283.96564 505.77054 283.96564Q505.0674 283.96564 504.59866 284.54376Q504.1299 285.10626 504.1299 286.34064ZM510.03616 286.34064Q510.03616 284.60626 510.9893 283.77814Q511.78616 283.09064 512.9424 283.09064Q514.22363 283.09064 515.03613 283.9344Q515.86426 284.7625 515.86426 286.2469Q515.86426 287.45 515.5049 288.1375Q515.1455 288.825 514.4424 289.21564Q513.7549 289.59064 512.9424 289.59064Q511.64554 289.59064 510.83304 288.7625Q510.03616 287.91876 510.03616 286.34064ZM511.1143 286.34064Q511.1143 287.52814 511.6299 288.1219Q512.16113 288.71564 512.9424 288.71564Q513.73926 288.71564 514.2549 288.1219Q514.7705 287.52814 514.7705 286.3094Q514.7705 285.15314 514.23926 284.5594Q513.72363 283.96564 512.9424 283.96564Q512.16113 283.96564 511.6299 284.5594Q511.1143 285.1375 511.1143 286.34064ZM517.42676 289.45L517.42676 283.23126L518.36426 283.23126L518.36426 284.10626Q519.05176 283.09064 520.34863 283.09064Q520.91113 283.09064 521.3799 283.29376Q521.86426 283.4969 522.09863 283.825Q522.333 284.15314 522.42676 284.59064Q522.47363 284.8875 522.47363 285.6219L522.47363 289.45L521.42676 289.45L521.42676 285.66876Q521.42676 285.0125 521.30176 284.7Q521.17676 284.3875 520.86426 284.2Q520.55176 283.9969 520.1299 283.9969Q519.458 283.9969 518.958 284.4344Q518.47363 284.85626 518.47363 286.04376L518.47363 289.45L517.42676 289.45ZM524.42676 283.90314L524.16113 282.29376L524.16113 280.85626L525.36426 280.85626L525.36426 282.29376L525.083 283.90314L524.42676 283.90314ZM528.72363 288.5125L528.8799 289.4344Q528.42676 289.52814 528.083 289.52814Q527.5049 289.52814 527.1924 289.35626Q526.8799 289.16876 526.73926 288.8719Q526.61426 288.575 526.61426 287.6219L526.61426 284.04376L525.84863 284.04376L525.84863 283.23126L526.61426 283.23126L526.61426 281.6844L527.66113 281.0594L527.66113 283.23126L528.72363 283.23126L528.72363 284.04376L527.66113 284.04376L527.66113 287.6844Q527.66113 288.1375 527.708 288.2625Q527.7705 288.3875 527.8955 288.46564Q528.0205 288.54376 528.2549 288.54376Q528.4424 288.54376 528.72363 288.5125ZM532.42676 289.45L532.42676 280.85626L533.48926 280.85626L533.48926 285.7625L535.97363 283.23126L537.34863 283.23126L534.958 285.52814L537.583 289.45L536.28613 289.45L534.22363 286.2625L533.48926 286.98126L533.48926 289.45L532.42676 289.45ZM538.42676 289.45L538.42676 283.23126L539.36426 283.23126L539.36426 284.10626Q540.05176 283.09064 541.34863 283.09064Q541.91113 283.09064 542.3799 283.29376Q542.86426 283.4969 543.09863 283.825Q543.333 284.15314 543.42676 284.59064Q543.47363 284.8875 543.47363 285.6219L543.47363 289.45L542.42676 289.45L542.42676 285.66876Q542.42676 285.0125 542.30176 284.7Q542.17676 284.3875 541.86426 284.2Q541.55176 283.9969 541.1299 283.9969Q540.458 283.9969 539.958 284.4344Q539.47363 284.85626 539.47363 286.04376L539.47363 289.45L538.42676 289.45ZM545.03613 286.34064Q545.03613 284.60626 545.98926 283.77814Q546.78613 283.09064 547.9424 283.09064Q549.22363 283.09064 550.03613 283.9344Q550.86426 284.7625 550.86426 286.2469Q550.86426 287.45 550.5049 288.1375Q550.1455 288.825 549.4424 289.21564Q548.7549 289.59064 547.9424 289.59064Q546.6455 289.59064 545.833 288.7625Q545.03613 287.91876 545.03613 286.34064ZM546.11426 286.34064Q546.11426 287.52814 546.6299 288.1219Q547.16113 288.71564 547.9424 288.71564Q548.73926 288.71564 549.2549 288.1219Q549.7705 287.52814 549.7705 286.3094Q549.7705 285.15314 549.23926 284.5594Q548.72363 283.96564 547.9424 283.96564Q547.16113 283.96564 546.6299 284.5594Q546.11426 285.1375 546.11426 286.34064ZM553.5674 289.45L551.66113 283.23126L552.7549 283.23126L553.73926 286.825L554.11426 288.15314Q554.1455 288.0594 554.4424 286.8719L555.42676 283.23126L556.5049 283.23126L557.4424 286.84064L557.7549 288.02814L558.11426 286.825L559.17676 283.23126L560.208 283.23126L558.2549 289.45L557.16113 289.45L556.17676 285.71564L555.92676 284.66876L554.67676 289.45L553.5674 289.45Z" fill-rule="nonzero"/><path fill="#757575" d="M22.596874 37.55L18.8 23.2375L20.7375 23.2375L22.909374 32.6125Q23.26875 34.096874 23.51875 35.55Q24.065624 33.253124 24.159374 32.89375L26.89375 23.2375L29.175 23.2375L31.221874 30.471874Q32.003124 33.175 32.346874 35.55Q32.6125 34.190624 33.05 32.425L35.3 23.2375L37.20625 23.2375L33.284374 37.55L31.45625 37.55L28.440624 26.64375Q28.05 25.26875 27.9875 24.95625Q27.753124 25.940624 27.565624 26.64375L24.534374 37.55L22.596874 37.55ZM38.8625 37.55L38.8625 23.2375L40.628124 23.2375L40.628124 28.3625Q41.8625 26.940624 43.7375 26.940624Q44.878124 26.940624 45.721874 27.39375Q46.58125 27.846874 46.940624 28.659374Q47.315624 29.45625 47.315624 30.971874L47.315624 37.55L45.565624 37.55L45.565624 30.971874Q45.565624 29.659374 44.9875 29.065624Q44.409374 28.45625 43.378124 28.45625Q42.596874 28.45625 41.89375 28.8625Q41.20625 29.26875 40.909374 29.971874Q40.628124 30.659374 40.628124 31.878124L40.628124 37.55L38.8625 37.55ZM49.878124 25.253124L49.878124 23.2375L51.64375 23.2375L51.64375 25.253124L49.878124 25.253124ZM49.878124 37.55L49.878124 27.175L51.64375 27.175L51.64375 37.55L49.878124 37.55ZM60.64375 33.753124L62.3625 33.971874Q62.08125 35.76875 60.909374 36.784374Q59.753124 37.784374 58.05 37.784374Q55.925 37.784374 54.628124 36.39375Q53.33125 35.003124 53.33125 32.409374Q53.33125 30.721874 53.878124 29.471874Q54.440624 28.20625 55.58125 27.58125Q56.721874 26.940624 58.065624 26.940624Q59.753124 26.940624 60.815624 27.8Q61.89375 28.659374 62.20625 30.221874L60.4875 30.4875Q60.253124 29.440624 59.628124 28.925Q59.003124 28.39375 58.128124 28.39375Q56.8 28.39375 55.971874 29.346874Q55.14375 30.3 55.14375 32.346874Q55.14375 34.440624 55.940624 35.39375Q56.7375 36.33125 58.034374 36.33125Q59.065624 36.33125 59.753124 35.70625Q60.45625 35.065624 60.64375 33.753124ZM63.8625 37.55L63.8625 23.2375L65.62813 23.2375L65.62813 28.3625Q66.8625 26.940624 68.7375 26.940624Q69.87813 26.940624 70.72188 27.39375Q71.58125 27.846874 71.94063 28.659374Q72.31563 29.45625 72.31563 30.971874L72.31563 37.55L70.56563 37.55L70.56563 30.971874Q70.56563 29.659374 69.9875 29.065624Q69.40938 28.45625 68.37813 28.45625Q67.59688 28.45625 66.89375 28.8625Q66.20625 29.26875 65.90938 29.971874Q65.62813 30.659374 65.62813 31.878124L65.62813 37.55L63.8625 37.55ZM83.75313 37.55L79.8 27.175L81.65938 27.175L83.89375 33.39375Q84.25313 34.39375 84.55 35.471874Q84.78438 34.659374 85.20625 33.503124L87.50313 27.175L89.31563 27.175L85.39375 37.55L83.75313 37.55ZM97.97188 34.20625L99.78438 34.440624Q99.3625 36.01875 98.19063 36.909374Q97.03438 37.784374 95.22188 37.784374Q92.95625 37.784374 91.6125 36.39375Q90.28438 34.9875 90.28438 32.45625Q90.28438 29.83125 91.62813 28.39375Q92.97188 26.940624 95.12813 26.940624Q97.20625 26.940624 98.51875 28.3625Q99.84688 29.76875 99.84688 32.346874Q99.84688 32.503124 99.83125 32.815624L92.09688 32.815624Q92.19063 34.51875 93.06563 35.425Q93.94063 36.33125 95.2375 36.33125Q96.20625 36.33125 96.87813 35.83125Q97.56563 35.315624 97.97188 34.20625ZM92.19063 31.3625L97.9875 31.3625Q97.87813 30.065624 97.33125 29.409374Q96.4875 28.39375 95.14375 28.39375Q93.94063 28.39375 93.1125 29.20625Q92.28438 30.003124 92.19063 31.3625ZM101.84688 37.55L101.84688 27.175L103.425 27.175L103.425 28.753124Q104.03438 27.64375 104.55 27.3Q105.06563 26.940624 105.675 26.940624Q106.56563 26.940624 107.4875 27.503124L106.87813 29.14375Q106.2375 28.753124 105.59688 28.753124Q105.01875 28.753124 104.55 29.1125Q104.09688 29.45625 103.89375 30.065624Q103.6125 31.003124 103.6125 32.1125L103.6125 37.55L101.84688 37.55ZM108.15938 34.45625L109.90938 34.175Q110.05 35.221874 110.72188 35.784374Q111.39375 36.33125 112.59688 36.33125Q113.8 36.33125 114.37813 35.846874Q114.97188 35.346874 114.97188 34.690624Q114.97188 34.096874 114.45625 33.753124Q114.09688 33.51875 112.65938 33.159374Q110.72188 32.659374 109.97188 32.315624Q109.2375 31.95625 108.84688 31.33125Q108.45625 30.690624 108.45625 29.925Q108.45625 29.2375 108.76875 28.64375Q109.09688 28.05 109.64375 27.659374Q110.05 27.3625 110.75313 27.159374Q111.47188 26.940624 112.28438 26.940624Q113.50313 26.940624 114.425 27.3Q115.34688 27.64375 115.78438 28.253124Q116.22188 28.846874 116.39375 29.846874L114.675 30.08125Q114.55 29.284374 113.9875 28.846874Q113.425 28.39375 112.40938 28.39375Q111.19063 28.39375 110.675 28.8Q110.15938 29.190624 110.15938 29.721874Q110.15938 30.065624 110.37813 30.346874Q110.58125 30.628124 111.05 30.815624Q111.31563 30.909374 112.59688 31.253124Q114.47188 31.753124 115.20625 32.08125Q115.94063 32.39375 116.3625 33.003124Q116.78438 33.596874 116.78438 34.503124Q116.78438 35.378124 116.26875 36.159374Q115.75313 36.940624 114.78438 37.3625Q113.81563 37.784374 112.59688 37.784374Q110.58125 37.784374 109.51875 36.940624Q108.45625 36.096874 108.15938 34.45625ZM118.87813 25.253124L118.87813 23.2375L120.64375 23.2375L120.64375 25.253124L118.87813 25.253124ZM118.87813 37.55L118.87813 27.175L120.64375 27.175L120.64375 37.55L118.87813 37.55ZM122.22188 32.3625Q122.22188 29.4875 123.81563 28.096874Q125.15938 26.940624 127.08125 26.940624Q129.22188 26.940624 130.56563 28.346874Q131.925 29.753124 131.925 32.221874Q131.925 34.221874 131.33125 35.378124Q130.7375 36.51875 129.58125 37.159374Q128.44063 37.784374 127.08125 37.784374Q124.89375 37.784374 123.55 36.39375Q122.22188 34.9875 122.22188 32.3625ZM124.01875 32.3625Q124.01875 34.3625 124.87813 35.346874Q125.75313 36.33125 127.08125 36.33125Q128.39375 36.33125 129.25313 35.346874Q130.12813 34.346874 130.12813 32.3Q130.12813 30.378124 129.25313 29.39375Q128.37813 28.39375 127.08125 28.39375Q125.75313 28.39375 124.87813 29.39375Q124.01875 30.378124 124.01875 32.3625ZM133.8625 37.55L133.8625 27.175L135.45625 27.175L135.45625 28.659374Q136.59688 26.940624 138.75313 26.940624Q139.69063 26.940624 140.47188 27.284374Q141.26875 27.6125 141.65938 28.159374Q142.05 28.70625 142.20625 29.45625Q142.3 29.95625 142.3 31.175L142.3 37.55L140.53438 37.55L140.53438 31.2375Q140.53438 30.159374 140.33125 29.628124Q140.12813 29.096874 139.59688 28.784374Q139.08125 28.471874 138.37813 28.471874Q137.25313 28.471874 136.44063 29.190624Q135.62813 29.89375 135.62813 31.878124L135.62813 37.55L133.8625 37.55ZM148.22188 41.753124Q146.76875 39.925 145.76875 37.471874Q144.76875 35.003124 144.76875 32.3625Q144.76875 30.034374 145.51875 27.909374Q146.39375 25.440624 148.22188 22.9875L149.4875 22.9875Q148.3 25.01875 147.925 25.89375Q147.33125 27.2375 146.9875 28.70625Q146.56563 30.534374 146.56563 32.378124Q146.56563 37.065624 149.4875 41.753124L148.22188 41.753124ZM151.15938 34.45625L152.90938 34.175Q153.05 35.221874 153.72188 35.784374Q154.39375 36.33125 155.59688 36.33125Q156.8 36.33125 157.37813 35.846874Q157.97188 35.346874 157.97188 34.690624Q157.97188 34.096874 157.45625 33.753124Q157.09688 33.51875 155.65938 33.159374Q153.72188 32.659374 152.97188 32.315624Q152.2375 31.95625 151.84688 31.33125Q151.45625 30.690624 151.45625 29.925Q151.45625 29.2375 151.76875 28.64375Q152.09688 28.05 152.64375 27.659374Q153.05 27.3625 153.75313 27.159374Q154.47188 26.940624 155.28438 26.940624Q156.50313 26.940624 157.425 27.3Q158.34688 27.64375 158.78438 28.253124Q159.22188 28.846874 159.39375 29.846874L157.675 30.08125Q157.55 29.284374 156.9875 28.846874Q156.425 28.39375 155.40938 28.39375Q154.19063 28.39375 153.675 28.8Q153.15938 29.190624 153.15938 29.721874Q153.15938 30.065624 153.37813 30.346874Q153.58125 30.628124 154.05 30.815624Q154.31563 30.909374 155.59688 31.253124Q157.47188 31.753124 158.20625 32.08125Q158.94063 32.39375 159.3625 33.003124Q159.78438 33.596874 159.78438 34.503124Q159.78438 35.378124 159.26875 36.159374Q158.75313 36.940624 157.78438 37.3625Q156.81563 37.784374 155.59688 37.784374Q153.58125 37.784374 152.51875 36.940624Q151.45625 36.096874 151.15938 34.45625ZM163.01875 41.753124L161.76875 41.753124Q164.675 37.065624 164.675 32.378124Q164.675 30.534374 164.26875 28.7375Q163.925 27.26875 163.33125 25.925Q162.95625 25.034374 161.76875 22.9875L163.01875 22.9875Q164.8625 25.440624 165.7375 27.909374Q166.4875 30.034374 166.4875 32.3625Q166.4875 35.003124 165.47188 37.471874Q164.47188 39.925 163.01875 41.753124ZM174.22188 32.3625Q174.22188 29.4875 175.81563 28.096874Q177.15938 26.940624 179.08125 26.940624Q181.22188 26.940624 182.56563 28.346874Q183.925 29.753124 183.925 32.221874Q183.925 34.221874 183.33125 35.378124Q182.7375 36.51875 181.58125 37.159374Q180.44063 37.784374 179.08125 37.784374Q176.89375 37.784374 175.55 36.39375Q174.22188 34.9875 174.22188 32.3625ZM176.01875 32.3625Q176.01875 34.3625 176.87813 35.346874Q177.75313 36.33125 179.08125 36.33125Q180.39375 36.33125 181.25313 35.346874Q182.12813 34.346874 182.12813 32.3Q182.12813 30.378124 181.25313 29.39375Q180.37813 28.39375 179.08125 28.39375Q177.75313 28.39375 176.87813 29.39375Q176.01875 30.378124 176.01875 32.3625ZM186.28438 37.55L186.28438 28.55L184.7375 28.55L184.7375 27.175L186.28438 27.175L186.28438 26.08125Q186.28438 25.034374 186.47188 24.51875Q186.72188 23.83125 187.3625 23.409374Q188.00313 22.9875 189.15938 22.9875Q189.90938 22.9875 190.8 23.159374L190.53438 24.690624Q189.9875 24.596874 189.50313 24.596874Q188.70625 24.596874 188.3625 24.940624Q188.03438 25.284374 188.03438 26.221874L188.03438 27.175L190.06563 27.175L190.06563 28.55L188.03438 28.55L188.03438 37.55L186.28438 37.55ZM198.12813 37.55L198.12813 23.2375L204.47188 23.2375Q206.37813 23.2375 207.37813 23.628124Q208.37813 24.003124 208.97188 24.9875Q209.56563 25.95625 209.56563 27.14375Q209.56563 28.659374 208.58125 29.70625Q207.59688 30.753124 205.53438 31.034374Q206.28438 31.39375 206.675 31.753124Q207.50313 32.503124 208.25313 33.659374L210.7375 37.55L208.3625 37.55L206.45625 34.565624Q205.62813 33.284374 205.09688 32.596874Q204.56563 31.909374 204.12813 31.64375Q203.70625 31.3625 203.26875 31.253124Q202.94063 31.190624 202.22188 31.190624L200.01875 31.190624L200.01875 37.55L198.12813 37.55ZM200.01875 29.55L204.09688 29.55Q205.39375 29.55 206.1125 29.284374Q206.84688 29.01875 207.22188 28.425Q207.6125 27.83125 207.6125 27.14375Q207.6125 26.128124 206.87813 25.471874Q206.14375 24.815624 204.55 24.815624L200.01875 24.815624L200.01875 29.55ZM218.65938 37.55L218.65938 36.01875Q217.45625 37.784374 215.37813 37.784374Q214.45625 37.784374 213.65938 37.440624Q212.8625 37.08125 212.47188 36.55Q212.09688 36.01875 211.94063 35.2375Q211.83125 34.721874 211.83125 33.596874L211.83125 27.175L213.58125 27.175L213.58125 32.925Q213.58125 34.3 213.69063 34.784374Q213.8625 35.471874 214.39375 35.878124Q214.94063 36.26875 215.72188 36.26875Q216.51875 36.26875 217.20625 35.8625Q217.90938 35.45625 218.19063 34.76875Q218.4875 34.065624 218.4875 32.7375L218.4875 27.175L220.2375 27.175L220.2375 37.55L218.65938 37.55ZM222.15938 34.45625L223.90938 34.175Q224.05 35.221874 224.72188 35.784374Q225.39375 36.33125 226.59688 36.33125Q227.8 36.33125 228.37813 35.846874Q228.97188 35.346874 228.97188 34.690624Q228.97188 34.096874 228.45625 33.753124Q228.09688 33.51875 226.65938 33.159374Q224.72188 32.659374 223.97188 32.315624Q223.2375 31.95625 222.84688 31.33125Q222.45625 30.690624 222.45625 29.925Q222.45625 29.2375 222.76875 28.64375Q223.09688 28.05 223.64375 27.659374Q224.05 27.3625 224.75313 27.159374Q225.47188 26.940624 226.28438 26.940624Q227.50313 26.940624 228.425 27.3Q229.34688 27.64375 229.78438 28.253124Q230.22188 28.846874 230.39375 29.846874L228.675 30.08125Q228.55 29.284374 227.9875 28.846874Q227.425 28.39375 226.40938 28.39375Q225.19063 28.39375 224.675 28.8Q224.15938 29.190624 224.15938 29.721874Q224.15938 30.065624 224.37813 30.346874Q224.58125 30.628124 225.05 30.815624Q225.31563 30.909374 226.59688 31.253124Q228.47188 31.753124 229.20625 32.08125Q229.94063 32.39375 230.3625 33.003124Q230.78438 33.596874 230.78438 34.503124Q230.78438 35.378124 230.26875 36.159374Q229.75313 36.940624 228.78438 37.3625Q227.81563 37.784374 226.59688 37.784374Q224.58125 37.784374 223.51875 36.940624Q222.45625 36.096874 222.15938 34.45625ZM236.70625 35.971874L236.95625 37.534374Q236.22188 37.690624 235.62813 37.690624Q234.675 37.690624 234.14375 37.39375Q233.62813 37.08125 233.40938 36.596874Q233.19063 36.096874 233.19063 34.51875L233.19063 28.55L231.90938 28.55L231.90938 27.175L233.19063 27.175L233.19063 24.6125L234.94063 23.55L234.94063 27.175L236.70625 27.175L236.70625 28.55L234.94063 28.55L234.94063 34.6125Q234.94063 35.3625 235.03438 35.58125Q235.12813 35.784374 235.33125 35.925Q235.55 36.05 235.94063 36.05Q236.22188 36.05 236.70625 35.971874ZM251.59688 37.55L251.59688 36.2375Q250.6125 37.784374 248.69063 37.784374Q247.45625 37.784374 246.40938 37.096874Q245.37813 36.409374 244.8 35.190624Q244.2375 33.971874 244.2375 32.378124Q244.2375 30.815624 244.75313 29.55Q245.26875 28.284374 246.3 27.6125Q247.34688 26.940624 248.6125 26.940624Q249.55 26.940624 250.28438 27.346874Q251.01875 27.7375 251.4875 28.3625L251.4875 23.2375L253.22188 23.2375L253.22188 37.55L251.59688 37.55ZM246.03438 32.378124Q246.03438 34.3625 246.87813 35.346874Q247.72188 36.33125 248.8625 36.33125Q250.01875 36.33125 250.81563 35.39375Q251.62813 34.45625 251.62813 32.51875Q251.62813 30.39375 250.8 29.39375Q249.9875 28.39375 248.78438 28.39375Q247.6125 28.39375 246.81563 29.3625Q246.03438 30.315624 246.03438 32.378124ZM255.22188 32.3625Q255.22188 29.4875 256.8156 28.096874Q258.15936 26.940624 260.08124 26.940624Q262.22186 26.940624 263.5656 28.346874Q264.925 29.753124 264.925 32.221874Q264.925 34.221874 264.33124 35.378124Q263.7375 36.51875 262.58124 37.159374Q261.4406 37.784374 260.08124 37.784374Q257.89374 37.784374 256.55 36.39375Q255.22188 34.9875 255.22188 32.3625ZM257.01874 32.3625Q257.01874 34.3625 257.8781 35.346874Q258.7531 36.33125 260.08124 36.33125Q261.39374 36.33125 262.2531 35.346874Q263.1281 34.346874 263.1281 32.3Q263.1281 30.378124 262.2531 29.39375Q261.3781 28.39375 260.08124 28.39375Q258.7531 28.39375 257.8781 29.39375Q257.01874 30.378124 257.01874 32.3625ZM272.78436 41.55L272.59686 39.89375Q273.175 40.05 273.59686 40.05Q274.1906 40.05 274.53436 39.846874Q274.89374 39.659374 275.1125 39.315624Q275.28436 39.05 275.65936 38.003124Q275.70624 37.846874 275.8156 37.565624L271.8781 27.175L273.76874 27.175L275.925 33.190624Q276.34686 34.33125 276.675 35.58125Q276.9875 34.378124 277.39374 33.221874L279.6125 27.175L281.3781 27.175L277.425 37.721874Q276.8 39.440624 276.4406 40.08125Q275.97186 40.95625 275.3625 41.346874Q274.76874 41.753124 273.925 41.753124Q273.40936 41.753124 272.78436 41.55ZM282.22186 32.3625Q282.22186 29.4875 283.8156 28.096874Q285.15936 26.940624 287.08124 26.940624Q289.22186 26.940624 290.5656 28.346874Q291.925 29.753124 291.925 32.221874Q291.925 34.221874 291.33124 35.378124Q290.7375 36.51875 289.58124 37.159374Q288.4406 37.784374 287.08124 37.784374Q284.89374 37.784374 283.55 36.39375Q282.22186 34.9875 282.22186 32.3625ZM284.01874 32.3625Q284.01874 34.3625 284.8781 35.346874Q285.7531 36.33125 287.08124 36.33125Q288.39374 36.33125 289.2531 35.346874Q290.1281 34.346874 290.1281 32.3Q290.1281 30.378124 289.2531 29.39375Q288.3781 28.39375 287.08124 28.39375Q285.7531 28.39375 284.8781 29.39375Q284.01874 30.378124 284.01874 32.3625ZM300.65936 37.55L300.65936 36.01875Q299.45624 37.784374 297.3781 37.784374Q296.45624 37.784374 295.65936 37.440624Q294.8625 37.08125 294.47186 36.55Q294.09686 36.01875 293.9406 35.2375Q293.83124 34.721874 293.83124 33.596874L293.83124 27.175L295.58124 27.175L295.58124 32.925Q295.58124 34.3 295.6906 34.784374Q295.8625 35.471874 296.39374 35.878124Q296.9406 36.26875 297.72186 36.26875Q298.51874 36.26875 299.20624 35.8625Q299.90936 35.45625 300.1906 34.76875Q300.4875 34.065624 300.4875 32.7375L300.4875 27.175L302.2375 27.175L302.2375 37.55L300.65936 37.55ZM317.65936 37.55L317.65936 36.01875Q316.45624 37.784374 314.3781 37.784374Q313.45624 37.784374 312.65936 37.440624Q311.8625 37.08125 311.47186 36.55Q311.09686 36.01875 310.9406 35.2375Q310.83124 34.721874 310.83124 33.596874L310.83124 27.175L312.58124 27.175L312.58124 32.925Q312.58124 34.3 312.6906 34.784374Q312.8625 35.471874 313.39374 35.878124Q313.9406 36.26875 314.72186 36.26875Q315.51874 36.26875 316.20624 35.8625Q316.90936 35.45625 317.1906 34.76875Q317.4875 34.065624 317.4875 32.7375L317.4875 27.175L319.2375 27.175L319.2375 37.55L317.65936 37.55ZM321.15936 34.45625L322.90936 34.175Q323.05 35.221874 323.72186 35.784374Q324.39374 36.33125 325.59686 36.33125Q326.8 36.33125 327.3781 35.846874Q327.97186 35.346874 327.97186 34.690624Q327.97186 34.096874 327.45624 33.753124Q327.09686 33.51875 325.65936 33.159374Q323.72186 32.659374 322.97186 32.315624Q322.2375 31.95625 321.84686 31.33125Q321.45624 30.690624 321.45624 29.925Q321.45624 29.2375 321.76874 28.64375Q322.09686 28.05 322.64374 27.659374Q323.05 27.3625 323.7531 27.159374Q324.47186 26.940624 325.28436 26.940624Q326.5031 26.940624 327.425 27.3Q328.34686 27.64375 328.78436 28.253124Q329.22186 28.846874 329.39374 29.846874L327.675 30.08125Q327.55 29.284374 326.9875 28.846874Q326.425 28.39375 325.40936 28.39375Q324.1906 28.39375 323.675 28.8Q323.15936 29.190624 323.15936 29.721874Q323.15936 30.065624 323.3781 30.346874Q323.58124 30.628124 324.05 30.815624Q324.3156 30.909374 325.59686 31.253124Q327.47186 31.753124 328.20624 32.08125Q328.9406 32.39375 329.3625 33.003124Q329.78436 33.596874 329.78436 34.503124Q329.78436 35.378124 329.26874 36.159374Q328.7531 36.940624 327.78436 37.3625Q326.8156 37.784374 325.59686 37.784374Q323.58124 37.784374 322.51874 36.940624Q321.45624 36.096874 321.15936 34.45625ZM338.97186 34.20625L340.78436 34.440624Q340.3625 36.01875 339.1906 36.909374Q338.03436 37.784374 336.22186 37.784374Q333.95624 37.784374 332.6125 36.39375Q331.28436 34.9875 331.28436 32.45625Q331.28436 29.83125 332.6281 28.39375Q333.97186 26.940624 336.1281 26.940624Q338.20624 26.940624 339.51874 28.3625Q340.84686 29.76875 340.84686 32.346874Q340.84686 32.503124 340.83124 32.815624L333.09686 32.815624Q333.1906 34.51875 334.0656 35.425Q334.9406 36.33125 336.2375 36.33125Q337.20624 36.33125 337.8781 35.83125Q338.5656 35.315624 338.97186 34.20625ZM333.1906 31.3625L338.9875 31.3625Q338.8781 30.065624 338.33124 29.409374Q337.4875 28.39375 336.14374 28.39375Q334.9406 28.39375 334.1125 29.20625Q333.28436 30.003124 333.1906 31.3625ZM346.15936 34.01875Q346.14374 33.675 346.14374 33.503124Q346.14374 32.45625 346.4406 31.70625Q346.65936 31.14375 347.14374 30.565624Q347.4875 30.14375 348.39374 29.346874Q349.3156 28.534374 349.58124 28.065624Q349.8625 27.58125 349.8625 27.01875Q349.8625 25.9875 349.05 25.221874Q348.2531 24.440624 347.09686 24.440624Q345.97186 24.440624 345.22186 25.14375Q344.47186 25.846874 344.2375 27.33125L342.425 27.1125Q342.675 25.1125 343.8781 24.05Q345.08124 22.9875 347.0656 22.9875Q349.175 22.9875 350.425 24.128124Q351.675 25.26875 351.675 26.89375Q351.675 27.83125 351.22186 28.628124Q350.78436 29.409374 349.5031 30.55Q348.64374 31.315624 348.3781 31.675Q348.1281 32.034374 347.9875 32.503124Q347.8625 32.971874 347.84686 34.01875L346.15936 34.01875ZM346.05 37.55L346.05 35.55L348.05 35.55L348.05 37.55L346.05 37.55Z" fill-rule="nonzero"/></svg>