<svg version="1.1" viewBox="0.0 0.0 600.0 371.0" fill="none" stroke="none" stroke-linecap="square" stroke-miterlimit="10" width="600" height="371" xmlns:xlink="http://www.w3.org/1999/xlink" xmlns="http://www.w3.org/2000/svg"><path fill="#ffffff" d="M0 0L600.0 0L600.0 371.0L0 371.0L0 0Z" fill-rule="nonzero"/><path stroke="#333333" stroke-width="1.0" stroke-linecap="butt" d="M84.5 300.5L581.5 300.5" fill-rule="nonzero"/><path stroke="#cccccc" stroke-width="1.0" stroke-linecap="butt" d="M84.5 252.5L581.5 252.5" fill-rule="nonzero"/><path stroke="#cccccc" stroke-width="1.0" stroke-linecap="butt" d="M84.5 205.5L581.5 205.5" fill-rule="nonzero"/><path stroke="#cccccc" stroke-width="1.0" stroke-linecap="butt" d="M84.5 157.5L581.5 157.5" fill-rule="nonzero"/><path stroke="#cccccc" stroke-width="1.0" stroke-linecap="butt" d="M84.5 109.5L581.5 109.5" fill-rule="nonzero"/><path stroke="#cccccc" stroke-width="1.0" stroke-linecap="butt" d="M84.5 61.5L581.5 61.5" fill-rule="nonzero"/><clipPath id="id_0"><path d="M84.55 61.916668L581.45 61.916668L581.45 300.45L84.55 300.45L84.55 61.916668Z" clip-rule="nonzero"/></clipPath><path stroke="#000000" stroke-width="2.0" stroke-linecap="butt" stroke-opacity="0.0" clip-path="url(#id_0)" d="M133.0 300.0L102.0 300.0L102.0 255.0C102.0 253.89543 102.89543 253.0 104.0 253.0L131.0 253.0C132.10457 253.0 133.0 253.89543 133.0 255.0Z" fill-rule="nonzero"/><path fill="#3c78d8" clip-path="url(#id_0)" d="M133.0 300.0L102.0 300.0L102.0 255.0C102.0 253.89543 102.89543 253.0 104.0 253.0L131.0 253.0C132.10457 253.0 133.0 253.89543 133.0 255.0Z" fill-rule="nonzero"/><path stroke="#000000" stroke-width="2.0" stroke-linecap="butt" stroke-opacity="0.0" clip-path="url(#id_0)" d="M181.0 300.0L150.0 300.0L150.0 213.0C150.0 211.89543 150.89543 211.0 152.0 211.0L179.0 211.0C180.10457 211.0 181.0 211.89543 181.0 213.0Z" fill-rule="nonzero"/><path fill="#3c78d8" clip-path="url(#id_0)" d="M181.0 300.0L150.0 300.0L150.0 213.0C150.0 211.89543 150.89543 211.0 152.0 211.0L179.0 211.0C180.10457 211.0 181.0 211.89543 181.0 213.0Z" fill-rule="nonzero"/><path stroke="#000000" stroke-width="2.0" stroke-linecap="butt" stroke-opacity="0.0" clip-path="url(#id_0)" d="M229.0 300.0L198.0 300.0L198.0 139.0C198.0 137.89543 198.89543 137.0 200.0 137.0L227.0 137.0C228.10457 137.0 229.0 137.89543 229.0 139.0Z" fill-rule="nonzero"/><path fill="#3c78d8" clip-path="url(#id_0)" d="M229.0 300.0L198.0 300.0L198.0 139.0C198.0 137.89543 198.89543 137.0 200.0 137.0L227.0 137.0C228.10457 137.0 229.0 137.89543 229.0 139.0Z" fill-rule="nonzero"/><path stroke="#000000" stroke-width="2.0" stroke-linecap="butt" stroke-opacity="0.0" clip-path="url(#id_0)" d="M277.0 300.0L246.0 300.0L246.0 133.0C246.0 131.89543 246.89543 131.0 248.0 131.0L275.0 131.0C276.10458 131.0 277.0 131.89543 277.0 133.0Z" fill-rule="nonzero"/><path fill="#3c78d8" clip-path="url(#id_0)" d="M277.0 300.0L246.0 300.0L246.0 133.0C246.0 131.89543 246.89543 131.0 248.0 131.0L275.0 131.0C276.10458 131.0 277.0 131.89543 277.0 133.0Z" fill-rule="nonzero"/><path stroke="#000000" stroke-width="2.0" stroke-linecap="butt" stroke-opacity="0.0" clip-path="url(#id_0)" d="M325.0 300.0L294.0 300.0L294.0 125.0C294.0 123.89543 294.89542 123.0 296.0 123.0L323.0 123.0C324.10458 123.0 325.0 123.89543 325.0 125.0Z" fill-rule="nonzero"/><path fill="#3c78d8" clip-path="url(#id_0)" d="M325.0 300.0L294.0 300.0L294.0 125.0C294.0 123.89543 294.89542 123.0 296.0 123.0L323.0 123.0C324.10458 123.0 325.0 123.89543 325.0 125.0Z" fill-rule="nonzero"/><path stroke="#000000" stroke-width="2.0" stroke-linecap="butt" stroke-opacity="0.0" clip-path="url(#id_0)" d="M373.0 300.0L342.0 300.0L342.0 97.0C342.0 95.89543 342.89542 95.0 344.0 95.0L371.0 95.0C372.10458 95.0 373.0 95.89543 373.0 97.0Z" fill-rule="nonzero"/><path fill="#3c78d8" clip-path="url(#id_0)" d="M373.0 300.0L342.0 300.0L342.0 97.0C342.0 95.89543 342.89542 95.0 344.0 95.0L371.0 95.0C372.10458 95.0 373.0 95.89543 373.0 97.0Z" fill-rule="nonzero"/><path stroke="#000000" stroke-width="2.0" stroke-linecap="butt" stroke-opacity="0.0" clip-path="url(#id_0)" d="M421.0 300.0L390.0 300.0L390.0 69.0C390.0 67.89543 390.89542 67.0 392.0 67.0L419.0 67.0C420.10458 67.0 421.0 67.89543 421.0 69.0Z" fill-rule="nonzero"/><path fill="#3c78d8" clip-path="url(#id_0)" d="M421.0 300.0L390.0 300.0L390.0 69.0C390.0 67.89543 390.89542 67.0 392.0 67.0L419.0 67.0C420.10458 67.0 421.0 67.89543 421.0 69.0Z" fill-rule="nonzero"/><path stroke="#000000" stroke-width="2.0" stroke-linecap="butt" stroke-opacity="0.0" clip-path="url(#id_0)" d="M469.0 300.0L438.0 300.0L438.0 139.0C438.0 137.89543 438.89542 137.0 440.0 137.0L467.0 137.0C468.10458 137.0 469.0 137.89543 469.0 139.0Z" fill-rule="nonzero"/><path fill="#3c78d8" clip-path="url(#id_0)" d="M469.0 300.0L438.0 300.0L438.0 139.0C438.0 137.89543 438.89542 137.0 440.0 137.0L467.0 137.0C468.10458 137.0 469.0 137.89543 469.0 139.0Z" fill-rule="nonzero"/><path stroke="#000000" stroke-width="2.0" stroke-linecap="butt" stroke-opacity="0.0" clip-path="url(#id_0)" d="M517.0 300.0L486.0 300.0L486.0 250.0C486.0 248.89543 486.89542 248.0 488.0 248.0L515.0 248.0C516.10455 248.0 517.0 248.89543 517.0 250.0Z" fill-rule="nonzero"/><path fill="#3c78d8" clip-path="url(#id_0)" d="M517.0 300.0L486.0 300.0L486.0 250.0C486.0 248.89543 486.89542 248.0 488.0 248.0L515.0 248.0C516.10455 248.0 517.0 248.89543 517.0 250.0Z" fill-rule="nonzero"/><path stroke="#000000" stroke-width="2.0" stroke-linecap="butt" stroke-opacity="0.0" clip-path="url(#id_0)" d="M565.0 300.0L534.0 300.0L534.0 290.0C534.0 288.89542 534.89545 288.0 536.0 288.0L563.0 288.0C564.10455 288.0 565.0 288.89542 565.0 290.0Z" fill-rule="nonzero"/><path fill="#3c78d8" clip-path="url(#id_0)" d="M565.0 300.0L534.0 300.0L534.0 290.0C534.0 288.89542 534.89545 288.0 536.0 288.0L563.0 288.0C564.10455 288.0 565.0 288.89542 565.0 290.0Z" fill-rule="nonzero"/><path fill="#000000" d="M308.45312 349.45L308.45312 340.85626L314.65625 340.85626L314.65625 341.8719L309.59375 341.8719L309.59375 344.4969L314.34375 344.4969L314.34375 345.5125L309.59375 345.5125L309.59375 348.4344L314.85938 348.4344L314.85938 349.45L308.45312 349.45ZM315.59375 349.45L317.85938 346.21564L315.76562 343.23126L317.07812 343.23126L318.03125 344.6844Q318.29688 345.10626 318.46875 345.3875Q318.71875 344.9969 318.9375 344.7L319.98438 343.23126L321.25 343.23126L319.09375 346.15314L321.40625 349.45L320.125 349.45L318.84375 347.5125L318.5 346.9969L316.85938 349.45L315.59375 349.45ZM322.29688 351.84064L322.29688 343.23126L323.25 343.23126L323.25 344.02814Q323.59375 343.5594 324.01562 343.325Q324.45312 343.09064 325.0625 343.09064Q325.85938 343.09064 326.46875 343.4969Q327.07812 343.90314 327.375 344.65314Q327.6875 345.40314 327.6875 346.29376Q327.6875 347.2469 327.34375 348.0125Q327.01562 348.77814 326.35938 349.1844Q325.70312 349.59064 324.98438 349.59064Q324.45312 349.59064 324.03125 349.3719Q323.60938 349.1375 323.34375 348.8094L323.34375 351.84064L322.29688 351.84064ZM323.25 346.3719Q323.25 347.575 323.73438 348.15314Q324.21875 348.71564 324.90625 348.71564Q325.60938 348.71564 326.10938 348.1219Q326.60938 347.52814 326.60938 346.27814Q326.60938 345.09064 326.125 344.5125Q325.64062 343.91876 324.95312 343.91876Q324.28125 343.91876 323.76562 344.54376Q323.25 345.16876 323.25 346.3719ZM333.54688 347.45L334.64062 347.575Q334.39062 348.52814 333.6875 349.0594Q332.98438 349.59064 331.90625 349.59064Q330.54688 349.59064 329.73438 348.7469Q328.9375 347.90314 328.9375 346.3875Q328.9375 344.825 329.75 343.96564Q330.5625 343.09064 331.84375 343.09064Q333.09375 343.09064 333.875 343.9344Q334.67188 344.77814 334.67188 346.325Q334.67188 346.41876 334.67188 346.60626L330.03125 346.60626Q330.09375 347.6375 330.60938 348.1844Q331.125 348.71564 331.90625 348.71564Q332.48438 348.71564 332.89062 348.41876Q333.3125 348.10626 333.54688 347.45ZM330.09375 345.7469L333.5625 345.7469Q333.5 344.95 333.17188 344.5594Q332.65625 343.95 331.85938 343.95Q331.125 343.95 330.625 344.4344Q330.14062 344.91876 330.09375 345.7469ZM336.28125 349.45L336.28125 343.23126L337.23438 343.23126L337.23438 344.16876Q337.59375 343.5125 337.89062 343.3094Q338.20312 343.09064 338.57812 343.09064Q339.10938 343.09064 339.65625 343.41876L339.29688 344.40314Q338.90625 344.16876 338.53125 344.16876Q338.17188 344.16876 337.89062 344.3875Q337.625 344.59064 337.51562 344.96564Q337.32812 345.52814 337.32812 346.1844L337.32812 349.45L336.28125 349.45ZM342.59375 348.5125L342.75 349.4344Q342.29688 349.52814 341.95312 349.52814Q341.375 349.52814 341.0625 349.35626Q340.75 349.16876 340.60938 348.8719Q340.48438 348.575 340.48438 347.6219L340.48438 344.04376L339.71875 344.04376L339.71875 343.23126L340.48438 343.23126L340.48438 341.6844L341.53125 341.0594L341.53125 343.23126L342.59375 343.23126L342.59375 344.04376L341.53125 344.04376L341.53125 347.6844Q341.53125 348.1375 341.57812 348.2625Q341.64062 348.3875 341.76562 348.46564Q341.89062 348.54376 342.125 348.54376Q342.3125 348.54376 342.59375 348.5125ZM343.29688 342.075L343.29688 340.85626L344.35938 340.85626L344.35938 342.075L343.29688 342.075ZM343.29688 349.45L343.29688 343.23126L344.35938 343.23126L344.35938 349.45L343.29688 349.45ZM345.875 347.59064L346.90625 347.4344Q347.0 348.0594 347.39062 348.3875Q347.79688 348.71564 348.53125 348.71564Q349.25 348.71564 349.59375 348.4344Q349.95312 348.1375 349.95312 347.73126Q349.95312 347.3719 349.64062 347.16876Q349.42188 347.02814 348.5625 346.8094Q347.40625 346.5125 346.95312 346.3094Q346.51562 346.09064 346.28125 345.71564Q346.04688 345.34064 346.04688 344.8719Q346.04688 344.46564 346.23438 344.10626Q346.42188 343.7469 346.75 343.5125Q347.0 343.34064 347.42188 343.21564Q347.84375 343.09064 348.34375 343.09064Q349.0625 343.09064 349.60938 343.3094Q350.17188 343.5125 350.4375 343.8719Q350.70312 344.23126 350.79688 344.825L349.76562 344.96564Q349.70312 344.4969 349.35938 344.23126Q349.03125 343.95 348.40625 343.95Q347.6875 343.95 347.375 344.2Q347.0625 344.4344 347.0625 344.7625Q347.0625 344.96564 347.1875 345.1219Q347.32812 345.29376 347.59375 345.40314Q347.75 345.46564 348.53125 345.66876Q349.65625 345.98126 350.09375 346.16876Q350.53125 346.35626 350.78125 346.71564Q351.03125 347.075 351.03125 347.6219Q351.03125 348.15314 350.71875 348.6219Q350.42188 349.075 349.84375 349.34064Q349.26562 349.59064 348.53125 349.59064Q347.3125 349.59064 346.67188 349.09064Q346.04688 348.575 345.875 347.59064ZM356.54688 347.45L357.64062 347.575Q357.39062 348.52814 356.6875 349.0594Q355.98438 349.59064 354.90625 349.59064Q353.54688 349.59064 352.73438 348.7469Q351.9375 347.90314 351.9375 346.3875Q351.9375 344.825 352.75 343.96564Q353.5625 343.09064 354.84375 343.09064Q356.09375 343.09064 356.875 343.9344Q357.67188 344.77814 357.67188 346.325Q357.67188 346.41876 357.67188 346.60626L353.03125 346.60626Q353.09375 347.6375 353.60938 348.1844Q354.125 348.71564 354.90625 348.71564Q355.48438 348.71564 355.89062 348.41876Q356.3125 348.10626 356.54688 347.45ZM353.09375 345.7469L356.5625 345.7469Q356.5 344.95 356.17188 344.5594Q355.65625 343.95 354.85938 343.95Q354.125 343.95 353.625 344.4344Q353.14062 344.91876 353.09375 345.7469Z" fill-rule="nonzero"/><path fill="#000000" d="M29.550013 217.74583L20.956263 217.74583L20.956263 213.93333Q20.956263 212.77708 21.190638 212.18333Q21.425013 211.58958 22.018763 211.23021Q22.596888 210.87083 23.300013 210.87083Q24.221888 210.87083 24.846888 211.46458Q25.471888 212.05833 25.643763 213.29271Q25.862513 212.83958 26.065638 212.60521Q26.518763 212.10521 27.206263 211.66771L29.550013 210.16771L29.550013 211.60521L27.768763 212.73021Q26.987513 213.23021 26.581263 213.55833Q26.175013 213.87083 26.018763 214.13646Q25.846888 214.38646 25.768763 214.65208Q25.737513 214.83958 25.737513 215.27708L25.737513 216.60521L29.550013 216.60521L29.550013 217.74583ZM24.753138 216.60521L24.753138 214.15208Q24.753138 213.38646 24.596888 212.94896Q24.425013 212.49583 24.081263 212.27708Q23.721888 212.04271 23.300013 212.04271Q22.690638 212.04271 22.300013 212.49583Q21.909388 212.93333 21.909388 213.88646L21.909388 216.60521L24.753138 216.60521ZM27.550013 204.63646L27.675013 203.54271Q28.628138 203.79271 29.159388 204.49583Q29.690638 205.19896 29.690638 206.27708Q29.690638 207.63646 28.846888 208.44896Q28.003138 209.24583 26.487513 209.24583Q24.925013 209.24583 24.065638 208.43333Q23.190638 207.62083 23.190638 206.33958Q23.190638 205.08958 24.034388 204.30833Q24.878138 203.51146 26.425013 203.51146Q26.518763 203.51146 26.706263 203.51146L26.706263 208.15208Q27.737513 208.08958 28.284388 207.57396Q28.815638 207.05833 28.815638 206.27708Q28.815638 205.69896 28.518763 205.29271Q28.206263 204.87083 27.550013 204.63646ZM25.846888 208.08958L25.846888 204.62083Q25.050013 204.68333 24.659388 205.01146Q24.050013 205.52708 24.050013 206.32396Q24.050013 207.05833 24.534388 207.55833Q25.018763 208.04271 25.846888 208.08958ZM27.690638 202.30833L27.534388 201.27708Q28.159388 201.18333 28.487513 200.79271Q28.815638 200.38646 28.815638 199.65208Q28.815638 198.93333 28.534388 198.58958Q28.237513 198.23021 27.831263 198.23021Q27.471888 198.23021 27.268763 198.54271Q27.128138 198.76146 26.909388 199.62083Q26.612513 200.77708 26.409388 201.23021Q26.190638 201.66771 25.815638 201.90208Q25.440638 202.13646 24.971888 202.13646Q24.565638 202.13646 24.206263 201.94896Q23.846888 201.76146 23.612513 201.43333Q23.440638 201.18333 23.315638 200.76146Q23.190638 200.33958 23.190638 199.83958Q23.190638 199.12083 23.409388 198.57396Q23.612513 198.01146 23.971888 197.74583Q24.331263 197.48021 24.925013 197.38646L25.065638 198.41771Q24.596888 198.48021 24.331263 198.82396Q24.050013 199.15208 24.050013 199.77708Q24.050013 200.49583 24.300013 200.80833Q24.534388 201.12083 24.862513 201.12083Q25.065638 201.12083 25.221888 200.99583Q25.393763 200.85521 25.503138 200.58958Q25.565638 200.43333 25.768763 199.65208Q26.081263 198.52708 26.268763 198.08958Q26.456263 197.65208 26.815638 197.40208Q27.175013 197.15208 27.721888 197.15208Q28.253138 197.15208 28.721888 197.46458Q29.175013 197.76146 29.440638 198.33958Q29.690638 198.91771 29.690638 199.65208Q29.690638 200.87083 29.190638 201.51146Q28.675013 202.13646 27.690638 202.30833ZM31.940638 195.88646L23.331263 195.88646L23.331263 194.93333L24.128138 194.93333Q23.659388 194.58958 23.425013 194.16771Q23.190638 193.73021 23.190638 193.12083Q23.190638 192.32396 23.596888 191.71458Q24.003138 191.10521 24.753138 190.80833Q25.503138 190.49583 26.393763 190.49583Q27.346888 190.49583 28.112513 190.83958Q28.878138 191.16771 29.284388 191.82396Q29.690638 192.48021 29.690638 193.19896Q29.690638 193.73021 29.471888 194.15208Q29.237513 194.57396 28.909388 194.83958L31.940638 194.83958L31.940638 195.88646ZM26.471888 194.93333Q27.675013 194.93333 28.253138 194.44896Q28.815638 193.96458 28.815638 193.27708Q28.815638 192.57396 28.221888 192.07396Q27.628138 191.57396 26.378138 191.57396Q25.190638 191.57396 24.612513 192.05833Q24.018763 192.54271 24.018763 193.23021Q24.018763 193.90208 24.643763 194.41771Q25.268763 194.93333 26.471888 194.93333ZM26.440638 189.27708Q24.706263 189.27708 23.878138 188.32396Q23.190638 187.52708 23.190638 186.37083Q23.190638 185.08958 24.034388 184.27708Q24.862513 183.44896 26.346888 183.44896Q27.550013 183.44896 28.237513 183.80833Q28.925013 184.16771 29.315638 184.87083Q29.690638 185.55833 29.690638 186.37083Q29.690638 187.66771 28.862513 188.48021Q28.018763 189.27708 26.440638 189.27708ZM26.440638 188.19896Q27.628138 188.19896 28.221888 187.68333Q28.815638 187.15208 28.815638 186.37083Q28.815638 185.57396 28.221888 185.05833Q27.628138 184.54271 26.409388 184.54271Q25.253138 184.54271 24.659388 185.07396Q24.065638 185.58958 24.065638 186.37083Q24.065638 187.15208 24.659388 187.68333Q25.237513 188.19896 26.440638 188.19896ZM29.550013 181.88646L23.331263 181.88646L23.331263 180.94896L24.206263 180.94896Q23.190638 180.26146 23.190638 178.96458Q23.190638 178.40208 23.393763 177.93333Q23.596888 177.44896 23.925013 177.21458Q24.253138 176.98021 24.690638 176.88646Q24.987513 176.83958 25.721888 176.83958L29.550013 176.83958L29.550013 177.88646L25.768763 177.88646Q25.112513 177.88646 24.800013 178.01146Q24.487513 178.13646 24.300013 178.44896Q24.096888 178.76146 24.096888 179.18333Q24.096888 179.85521 24.534388 180.35521Q24.956263 180.83958 26.143763 180.83958L29.550013 180.83958L29.550013 181.88646ZM27.690638 175.30833L27.534388 174.27708Q28.159388 174.18333 28.487513 173.79271Q28.815638 173.38646 28.815638 172.65208Q28.815638 171.93333 28.534388 171.58958Q28.237513 171.23021 27.831263 171.23021Q27.471888 171.23021 27.268763 171.54271Q27.128138 171.76146 26.909388 172.62083Q26.612513 173.77708 26.409388 174.23021Q26.190638 174.66771 25.815638 174.90208Q25.440638 175.13646 24.971888 175.13646Q24.565638 175.13646 24.206263 174.94896Q23.846888 174.76146 23.612513 174.43333Q23.440638 174.18333 23.315638 173.76146Q23.190638 173.33958 23.190638 172.83958Q23.190638 172.12083 23.409388 171.57396Q23.612513 171.01146 23.971888 170.74583Q24.331263 170.48021 24.925013 170.38646L25.065638 171.41771Q24.596888 171.48021 24.331263 171.82396Q24.050013 172.15208 24.050013 172.77708Q24.050013 173.49583 24.300013 173.80833Q24.534388 174.12083 24.862513 174.12083Q25.065638 174.12083 25.221888 173.99583Q25.393763 173.85521 25.503138 173.58958Q25.565638 173.43333 25.768763 172.65208Q26.081263 171.52708 26.268763 171.08958Q26.456263 170.65208 26.815638 170.40208Q27.175013 170.15208 27.721888 170.15208Q28.253138 170.15208 28.721888 170.46458Q29.175013 170.76146 29.440638 171.33958Q29.690638 171.91771 29.690638 172.65208Q29.690638 173.87083 29.190638 174.51146Q28.675013 175.13646 27.690638 175.30833ZM27.550013 164.63646L27.675013 163.54271Q28.628138 163.79271 29.159388 164.49583Q29.690638 165.19896 29.690638 166.27708Q29.690638 167.63646 28.846888 168.44896Q28.003138 169.24583 26.487513 169.24583Q24.925013 169.24583 24.065638 168.43333Q23.190638 167.62083 23.190638 166.33958Q23.190638 165.08958 24.034388 164.30833Q24.878138 163.51146 26.425013 163.51146Q26.518763 163.51146 26.706263 163.51146L26.706263 168.15208Q27.737513 168.08958 28.284388 167.57396Q28.815638 167.05833 28.815638 166.27708Q28.815638 165.69896 28.518763 165.29271Q28.206263 164.87083 27.550013 164.63646ZM25.846888 168.08958L25.846888 164.62083Q25.050013 164.68333 24.659388 165.01146Q24.050013 165.52708 24.050013 166.32396Q24.050013 167.05833 24.534388 167.55833Q25.018763 168.04271 25.846888 168.08958ZM27.690638 162.30833L27.534388 161.27708Q28.159388 161.18333 28.487513 160.79271Q28.815638 160.38646 28.815638 159.65208Q28.815638 158.93333 28.534388 158.58958Q28.237513 158.23021 27.831263 158.23021Q27.471888 158.23021 27.268763 158.54271Q27.128138 158.76146 26.909388 159.62083Q26.612513 160.77708 26.409388 161.23021Q26.190638 161.66771 25.815638 161.90208Q25.440638 162.13646 24.971888 162.13646Q24.565638 162.13646 24.206263 161.94896Q23.846888 161.76146 23.612513 161.43333Q23.440638 161.18333 23.315638 160.76146Q23.190638 160.33958 23.190638 159.83958Q23.190638 159.12083 23.409388 158.57396Q23.612513 158.01146 23.971888 157.74583Q24.331263 157.48021 24.925013 157.38646L25.065638 158.41771Q24.596888 158.48021 24.331263 158.82396Q24.050013 159.15208 24.050013 159.77708Q24.050013 160.49583 24.300013 160.80833Q24.534388 161.12083 24.862513 161.12083Q25.065638 161.12083 25.221888 160.99583Q25.393763 160.85521 25.503138 160.58958Q25.565638 160.43333 25.768763 159.65208Q26.081263 158.52708 26.268763 158.08958Q26.456263 157.65208 26.815638 157.40208Q27.175013 157.15208 27.721888 157.15208Q28.253138 157.15208 28.721888 157.46458Q29.175013 157.76146 29.440638 158.33958Q29.690638 158.91771 29.690638 159.65208Q29.690638 160.87083 29.190638 161.51146Q28.675013 162.13646 27.690638 162.30833Z" fill-rule="nonzero"/><path fill="#000000" d="M72.05 300.21564Q72.05 298.6844 72.3625 297.7625Q72.675 296.825 73.28438 296.325Q73.90938 295.825 74.84688 295.825Q75.53438 295.825 76.05 296.10626Q76.58125 296.3875 76.925 296.91876Q77.26875 297.4344 77.45625 298.1844Q77.64375 298.9344 77.64375 300.21564Q77.64375 301.73126 77.33125 302.65314Q77.03438 303.575 76.40938 304.09064Q75.8 304.59064 74.84688 304.59064Q73.6125 304.59064 72.89375 303.7Q72.05 302.6375 72.05 300.21564ZM73.12813 300.21564Q73.12813 302.325 73.62813 303.02814Q74.12813 303.73126 74.84688 303.73126Q75.58125 303.73126 76.06563 303.02814Q76.56563 302.325 76.56563 300.21564Q76.56563 298.09064 76.06563 297.40314Q75.58125 296.7 74.83125 296.7Q74.1125 296.7 73.675 297.3094Q73.12813 298.09064 73.12813 300.21564Z" fill-rule="nonzero"/><path fill="#000000" d="M63.596874 255.72772L63.596874 256.74335L57.909374 256.74335Q57.909374 256.36835 58.034374 256.00897Q58.253124 255.43085 58.721874 254.86835Q59.20625 254.30585 60.1125 253.57147Q61.51875 252.41522 62.003124 251.74335Q62.503124 251.07147 62.503124 250.47772Q62.503124 249.85272 62.05 249.43085Q61.596874 248.99335 60.878124 248.99335Q60.1125 248.99335 59.659374 249.44647Q59.20625 249.8996 59.190624 250.7121L58.1125 250.60272Q58.221874 249.38397 58.940624 248.75897Q59.675 248.11835 60.909374 248.11835Q62.14375 248.11835 62.8625 248.80585Q63.58125 249.49335 63.58125 250.50897Q63.58125 251.0246 63.3625 251.5246Q63.159374 252.00897 62.659374 252.57147Q62.175 253.11835 61.05 254.07147Q60.096874 254.86835 59.815624 255.16522Q59.55 255.44647 59.378124 255.72772L63.596874 255.72772ZM65.05 254.49335L66.15938 254.3996Q66.28438 255.2121 66.72188 255.61835Q67.175 256.0246 67.81563 256.0246Q68.56563 256.0246 69.09688 255.44647Q69.62813 254.86835 69.62813 253.93085Q69.62813 253.0246 69.1125 252.50897Q68.6125 251.97772 67.78438 251.97772Q67.28438 251.97772 66.8625 252.2121Q66.45625 252.44647 66.22188 252.80585L65.2375 252.68085L66.06563 248.2746L70.34688 248.2746L70.34688 249.2746L66.90938 249.2746L66.45625 251.5871Q67.22188 251.04022 68.06563 251.04022Q69.19063 251.04022 69.95625 251.82147Q70.7375 252.60272 70.7375 253.8371Q70.7375 254.99335 70.06563 255.85272Q69.2375 256.88397 67.81563 256.88397Q66.64375 256.88397 65.89375 256.22772Q65.15938 255.57147 65.05 254.49335ZM72.05 252.50897Q72.05 250.97772 72.3625 250.05585Q72.675 249.11835 73.28438 248.61835Q73.90938 248.11835 74.84688 248.11835Q75.53438 248.11835 76.05 248.3996Q76.58125 248.68085 76.925 249.2121Q77.26875 249.72772 77.45625 250.47772Q77.64375 251.22772 77.64375 252.50897Q77.64375 254.0246 77.33125 254.94647Q77.03438 255.86835 76.40938 256.38397Q75.8 256.88397 74.84688 256.88397Q73.6125 256.88397 72.89375 255.99335Q72.05 254.93085 72.05 252.50897ZM73.12813 252.50897Q73.12813 254.61835 73.62813 255.32147Q74.12813 256.0246 74.84688 256.0246Q75.58125 256.0246 76.06563 255.32147Q76.56563 254.61835 76.56563 252.50897Q76.56563 250.38397 76.06563 249.69647Q75.58125 248.99335 74.83125 248.99335Q74.1125 248.99335 73.675 249.60272Q73.12813 250.38397 73.12813 252.50897Z" fill-rule="nonzero"/><path fill="#000000" d="M58.05 206.78667L59.159374 206.69292Q59.284374 207.50542 59.721874 207.91167Q60.175 208.31792 60.815624 208.31792Q61.565624 208.31792 62.096874 207.73979Q62.628124 207.16167 62.628124 206.22417Q62.628124 205.31792 62.1125 204.80229Q61.6125 204.27104 60.784374 204.27104Q60.284374 204.27104 59.8625 204.50542Q59.45625 204.73979 59.221874 205.09917L58.2375 204.97417L59.065624 200.56792L63.346874 200.56792L63.346874 201.56792L59.909374 201.56792L59.45625 203.88042Q60.221874 203.33354 61.065624 203.33354Q62.190624 203.33354 62.95625 204.11479Q63.7375 204.89604 63.7375 206.13042Q63.7375 207.28667 63.065624 208.14604Q62.2375 209.17729 60.815624 209.17729Q59.64375 209.17729 58.89375 208.52104Q58.159374 207.86479 58.05 206.78667ZM65.05 204.80229Q65.05 203.27104 65.3625 202.34917Q65.675 201.41167 66.28438 200.91167Q66.90938 200.41167 67.84688 200.41167Q68.53438 200.41167 69.05 200.69292Q69.58125 200.97417 69.925 201.50542Q70.26875 202.02104 70.45625 202.77104Q70.64375 203.52104 70.64375 204.80229Q70.64375 206.31792 70.33125 207.23979Q70.03438 208.16167 69.40938 208.67729Q68.8 209.17729 67.84688 209.17729Q66.6125 209.17729 65.89375 208.28667Q65.05 207.22417 65.05 204.80229ZM66.12813 204.80229Q66.12813 206.91167 66.62813 207.61479Q67.12813 208.31792 67.84688 208.31792Q68.58125 208.31792 69.06563 207.61479Q69.56563 206.91167 69.56563 204.80229Q69.56563 202.67729 69.06563 201.98979Q68.58125 201.28667 67.83125 201.28667Q67.1125 201.28667 66.675 201.89604Q66.12813 202.67729 66.12813 204.80229ZM72.05 204.80229Q72.05 203.27104 72.3625 202.34917Q72.675 201.41167 73.28438 200.91167Q73.90938 200.41167 74.84688 200.41167Q75.53438 200.41167 76.05 200.69292Q76.58125 200.97417 76.925 201.50542Q77.26875 202.02104 77.45625 202.77104Q77.64375 203.52104 77.64375 204.80229Q77.64375 206.31792 77.33125 207.23979Q77.03438 208.16167 76.40938 208.67729Q75.8 209.17729 74.84688 209.17729Q73.6125 209.17729 72.89375 208.28667Q72.05 207.22417 72.05 204.80229ZM73.12813 204.80229Q73.12813 206.91167 73.62813 207.61479Q74.12813 208.31792 74.84688 208.31792Q75.58125 208.31792 76.06563 207.61479Q76.56563 206.91167 76.56563 204.80229Q76.56563 202.67729 76.06563 201.98979Q75.58125 201.28667 74.83125 201.28667Q74.1125 201.28667 73.675 201.89604Q73.12813 202.67729 73.12813 204.80229Z" fill-rule="nonzero"/><path fill="#000000" d="M58.1125 153.86125L58.1125 152.84563L63.675 152.84563L63.675 153.67375Q62.8625 154.54875 62.05 156.00188Q61.253124 157.43938 60.815624 158.97063Q60.4875 160.04875 60.409374 161.33L59.315624 161.33Q59.33125 160.31438 59.70625 158.87688Q60.096874 157.43938 60.8 156.11125Q61.51875 154.78313 62.33125 153.86125L58.1125 153.86125ZM65.05 159.08L66.15938 158.98625Q66.28438 159.79875 66.72188 160.205Q67.175 160.61125 67.81563 160.61125Q68.56563 160.61125 69.09688 160.03313Q69.62813 159.455 69.62813 158.5175Q69.62813 157.61125 69.1125 157.09563Q68.6125 156.56438 67.78438 156.56438Q67.28438 156.56438 66.8625 156.79875Q66.45625 157.03313 66.22188 157.3925L65.2375 157.2675L66.06563 152.86125L70.34688 152.86125L70.34688 153.86125L66.90938 153.86125L66.45625 156.17375Q67.22188 155.62688 68.06563 155.62688Q69.19063 155.62688 69.95625 156.40813Q70.7375 157.18938 70.7375 158.42375Q70.7375 159.58 70.06563 160.43938Q69.2375 161.47063 67.81563 161.47063Q66.64375 161.47063 65.89375 160.81438Q65.15938 160.15813 65.05 159.08ZM72.05 157.09563Q72.05 155.56438 72.3625 154.6425Q72.675 153.705 73.28438 153.205Q73.90938 152.705 74.84688 152.705Q75.53438 152.705 76.05 152.98625Q76.58125 153.2675 76.925 153.79875Q77.26875 154.31438 77.45625 155.06438Q77.64375 155.81438 77.64375 157.09563Q77.64375 158.61125 77.33125 159.53313Q77.03438 160.455 76.40938 160.97063Q75.8 161.47063 74.84688 161.47063Q73.6125 161.47063 72.89375 160.58Q72.05 159.5175 72.05 157.09563ZM73.12813 157.09563Q73.12813 159.205 73.62813 159.90813Q74.12813 160.61125 74.84688 160.61125Q75.58125 160.61125 76.06563 159.90813Q76.56563 159.205 76.56563 157.09563Q76.56563 154.97063 76.06563 154.28313Q75.58125 153.58 74.83125 153.58Q74.1125 153.58 73.675 154.18938Q73.12813 154.97063 73.12813 157.09563Z" fill-rule="nonzero"/><path fill="#000000" d="M55.01875 113.62334L53.971874 113.62334L53.971874 106.90459Q53.58125 107.26396 52.95625 107.63896Q52.346874 107.99834 51.8625 108.17021L51.8625 107.15459Q52.7375 106.73271 53.39375 106.15459Q54.065624 105.56084 54.346874 104.99834L55.01875 104.99834L55.01875 113.62334ZM58.05 109.38896Q58.05 107.85771 58.3625 106.93584Q58.675 105.99834 59.284374 105.49834Q59.909374 104.99834 60.846874 104.99834Q61.534374 104.99834 62.05 105.27959Q62.58125 105.56084 62.925 106.09209Q63.26875 106.60771 63.45625 107.35771Q63.64375 108.10771 63.64375 109.38896Q63.64375 110.90459 63.33125 111.82646Q63.034374 112.74834 62.409374 113.26396Q61.8 113.76396 60.846874 113.76396Q59.6125 113.76396 58.89375 112.87334Q58.05 111.81084 58.05 109.38896ZM59.128124 109.38896Q59.128124 111.49834 59.628124 112.20146Q60.128124 112.90459 60.846874 112.90459Q61.58125 112.90459 62.065624 112.20146Q62.565624 111.49834 62.565624 109.38896Q62.565624 107.26396 62.065624 106.57646Q61.58125 105.87334 60.83125 105.87334Q60.1125 105.87334 59.675 106.48271Q59.128124 107.26396 59.128124 109.38896ZM65.05 109.38896Q65.05 107.85771 65.3625 106.93584Q65.675 105.99834 66.28438 105.49834Q66.90938 104.99834 67.84688 104.99834Q68.53438 104.99834 69.05 105.27959Q69.58125 105.56084 69.925 106.09209Q70.26875 106.60771 70.45625 107.35771Q70.64375 108.10771 70.64375 109.38896Q70.64375 110.90459 70.33125 111.82646Q70.03438 112.74834 69.40938 113.26396Q68.8 113.76396 67.84688 113.76396Q66.6125 113.76396 65.89375 112.87334Q65.05 111.81084 65.05 109.38896ZM66.12813 109.38896Q66.12813 111.49834 66.62813 112.20146Q67.12813 112.90459 67.84688 112.90459Q68.58125 112.90459 69.06563 112.20146Q69.56563 111.49834 69.56563 109.38896Q69.56563 107.26396 69.06563 106.57646Q68.58125 105.87334 67.83125 105.87334Q67.1125 105.87334 66.675 106.48271Q66.12813 107.26396 66.12813 109.38896ZM72.05 109.38896Q72.05 107.85771 72.3625 106.93584Q72.675 105.99834 73.28438 105.49834Q73.90938 104.99834 74.84688 104.99834Q75.53438 104.99834 76.05 105.27959Q76.58125 105.56084 76.925 106.09209Q77.26875 106.60771 77.45625 107.35771Q77.64375 108.10771 77.64375 109.38896Q77.64375 110.90459 77.33125 111.82646Q77.03438 112.74834 76.40938 113.26396Q75.8 113.76396 74.84688 113.76396Q73.6125 113.76396 72.89375 112.87334Q72.05 111.81084 72.05 109.38896ZM73.12813 109.38896Q73.12813 111.49834 73.62813 112.20146Q74.12813 112.90459 74.84688 112.90459Q75.58125 112.90459 76.06563 112.20146Q76.56563 111.49834 76.56563 109.38896Q76.56563 107.26396 76.06563 106.57646Q75.58125 105.87334 74.83125 105.87334Q74.1125 105.87334 73.675 106.48271Q73.12813 107.26396 73.12813 109.38896Z" fill-rule="nonzero"/><path fill="#000000" d="M55.01875 65.916664L53.971874 65.916664L53.971874 59.197914Q53.58125 59.55729 52.95625 59.93229Q52.346874 60.291664 51.8625 60.46354L51.8625 59.447914Q52.7375 59.02604 53.39375 58.447914Q54.065624 57.854164 54.346874 57.291664L55.01875 57.291664L55.01875 65.916664ZM63.596874 64.90104L63.596874 65.916664L57.909374 65.916664Q57.909374 65.541664 58.034374 65.18229Q58.253124 64.604164 58.721874 64.041664Q59.20625 63.479164 60.1125 62.74479Q61.51875 61.58854 62.003124 60.916664Q62.503124 60.24479 62.503124 59.65104Q62.503124 59.02604 62.05 58.604164Q61.596874 58.166664 60.878124 58.166664Q60.1125 58.166664 59.659374 58.61979Q59.20625 59.072914 59.190624 59.885414L58.1125 59.77604Q58.221874 58.55729 58.940624 57.93229Q59.675 57.291664 60.909374 57.291664Q62.14375 57.291664 62.8625 57.979164Q63.58125 58.666664 63.58125 59.68229Q63.58125 60.197914 63.3625 60.697914Q63.159374 61.18229 62.659374 61.74479Q62.175 62.291664 61.05 63.24479Q60.096874 64.041664 59.815624 64.33854Q59.55 64.61979 59.378124 64.90104L63.596874 64.90104ZM65.05 63.666664L66.15938 63.572914Q66.28438 64.385414 66.72188 64.791664Q67.175 65.197914 67.81563 65.197914Q68.56563 65.197914 69.09688 64.61979Q69.62813 64.041664 69.62813 63.104164Q69.62813 62.197914 69.1125 61.68229Q68.6125 61.15104 67.78438 61.15104Q67.28438 61.15104 66.8625 61.385414Q66.45625 61.61979 66.22188 61.979164L65.2375 61.854164L66.06563 57.447914L70.34688 57.447914L70.34688 58.447914L66.90938 58.447914L66.45625 60.760414Q67.22188 60.21354 68.06563 60.21354Q69.19063 60.21354 69.95625 60.99479Q70.7375 61.77604 70.7375 63.010414Q70.7375 64.166664 70.06563 65.02604Q69.2375 66.05729 67.81563 66.05729Q66.64375 66.05729 65.89375 65.40104Q65.15938 64.74479 65.05 63.666664ZM72.05 61.68229Q72.05 60.15104 72.3625 59.229164Q72.675 58.291664 73.28438 57.791664Q73.90938 57.291664 74.84688 57.291664Q75.53438 57.291664 76.05 57.572914Q76.58125 57.854164 76.925 58.385414Q77.26875 58.90104 77.45625 59.65104Q77.64375 60.40104 77.64375 61.68229Q77.64375 63.197914 77.33125 64.11979Q77.03438 65.041664 76.40938 65.55729Q75.8 66.05729 74.84688 66.05729Q73.6125 66.05729 72.89375 65.166664Q72.05 64.104164 72.05 61.68229ZM73.12813 61.68229Q73.12813 63.791664 73.62813 64.49479Q74.12813 65.197914 74.84688 65.197914Q75.58125 65.197914 76.06563 64.49479Q76.56563 63.791664 76.56563 61.68229Q76.56563 59.55729 76.06563 58.86979Q75.58125 58.166664 74.83125 58.166664Q74.1125 58.166664 73.675 58.77604Q73.12813 59.55729 73.12813 61.68229Z" fill-rule="nonzero"/><path fill="#000000" d="M92.83152 317.45L92.83152 308.85626L96.065895 308.85626Q97.05027 308.85626 97.64402 309.1219Q98.23777 309.3875 98.565895 309.9344Q98.909645 310.46564 98.909645 311.0594Q98.909645 311.60626 98.61277 312.09064Q98.315895 312.575 97.70652 312.8719Q98.48777 313.10626 98.89402 313.66876Q99.315895 314.21564 99.315895 314.96564Q99.315895 315.5594 99.065895 316.09064Q98.815895 316.60626 98.440895 316.8875Q98.065895 317.16876 97.48777 317.3094Q96.92527 317.45 96.11277 317.45L92.83152 317.45ZM93.972145 312.46564L95.83152 312.46564Q96.58152 312.46564 96.909645 312.3719Q97.347145 312.2469 97.565895 311.95Q97.784645 311.6375 97.784645 311.1844Q97.784645 310.7625 97.58152 310.4344Q97.378395 310.10626 96.98777 309.9969Q96.61277 309.8719 95.690895 309.8719L93.972145 309.8719L93.972145 312.46564ZM93.972145 316.4344L96.11277 316.4344Q96.659645 316.4344 96.878395 316.3875Q97.284645 316.325 97.534645 316.16876Q97.80027 315.9969 97.972145 315.6844Q98.14402 315.3719 98.14402 314.96564Q98.14402 314.48126 97.89402 314.1219Q97.659645 313.7625 97.222145 313.6219Q96.784645 313.48126 95.95652 313.48126L93.972145 313.48126L93.972145 316.4344ZM105.003395 315.45L106.097145 315.575Q105.847145 316.52814 105.14402 317.0594Q104.440895 317.59064 103.36277 317.59064Q102.003395 317.59064 101.190895 316.7469Q100.39402 315.90314 100.39402 314.3875Q100.39402 312.825 101.20652 311.96564Q102.01902 311.09064 103.30027 311.09064Q104.55027 311.09064 105.33152 311.9344Q106.128395 312.77814 106.128395 314.325Q106.128395 314.41876 106.128395 314.60626L101.48777 314.60626Q101.55027 315.6375 102.065895 316.1844Q102.58152 316.71564 103.36277 316.71564Q103.940895 316.71564 104.347145 316.41876Q104.76902 316.10626 105.003395 315.45ZM101.55027 313.7469L105.01902 313.7469Q104.95652 312.95 104.628395 312.5594Q104.11277 311.95 103.315895 311.95Q102.58152 311.95 102.08152 312.4344Q101.597145 312.91876 101.55027 313.7469ZM107.55027 317.96564L108.58152 318.1219Q108.64402 318.59064 108.940895 318.8094Q109.33152 319.10626 110.003395 319.10626Q110.73777 319.10626 111.128395 318.8094Q111.534645 318.5125 111.67527 317.9969Q111.76902 317.66876 111.753395 316.6375Q111.065895 317.45 110.034645 317.45Q108.753395 317.45 108.05027 316.52814Q107.347145 315.59064 107.347145 314.3094Q107.347145 313.41876 107.659645 312.66876Q107.98777 311.90314 108.597145 311.4969Q109.20652 311.09064 110.034645 311.09064Q111.14402 311.09064 111.86277 311.98126L111.86277 311.23126L112.83152 311.23126L112.83152 316.60626Q112.83152 318.0594 112.534645 318.66876Q112.23777 319.27814 111.597145 319.6219Q110.95652 319.98126 110.01902 319.98126Q108.909645 319.98126 108.222145 319.48126Q107.534645 318.98126 107.55027 317.96564ZM108.42527 314.23126Q108.42527 315.45 108.909645 316.0125Q109.39402 316.575 110.128395 316.575Q110.86277 316.575 111.347145 316.0125Q111.847145 315.45 111.847145 314.2625Q111.847145 313.1219 111.33152 312.54376Q110.83152 311.96564 110.11277 311.96564Q109.409645 311.96564 108.909645 312.54376Q108.42527 313.10626 108.42527 314.23126ZM114.753395 310.075L114.753395 308.85626L115.815895 308.85626L115.815895 310.075L114.753395 310.075ZM114.753395 317.45L114.753395 311.23126L115.815895 311.23126L115.815895 317.45L114.753395 317.45ZM117.753395 317.45L117.753395 311.23126L118.690895 311.23126L118.690895 312.10626Q119.378395 311.09064 120.67527 311.09064Q121.23777 311.09064 121.70652 311.29376Q122.190895 311.4969 122.42527 311.825Q122.659645 312.15314 122.753395 312.59064Q122.80027 312.8875 122.80027 313.6219L122.80027 317.45L121.753395 317.45L121.753395 313.66876Q121.753395 313.0125 121.628395 312.7Q121.503395 312.3875 121.190895 312.2Q120.878395 311.9969 120.45652 311.9969Q119.784645 311.9969 119.284645 312.4344Q118.80027 312.85626 118.80027 314.04376L118.80027 317.45L117.753395 317.45ZM124.753395 317.45L124.753395 311.23126L125.690895 311.23126L125.690895 312.10626Q126.378395 311.09064 127.67527 311.09064Q128.23776 311.09064 128.70651 311.29376Q129.19089 311.4969 129.42526 311.825Q129.65964 312.15314 129.75339 312.59064Q129.80026 312.8875 129.80026 313.6219L129.80026 317.45L128.75339 317.45L128.75339 313.66876Q128.75339 313.0125 128.62839 312.7Q128.50339 312.3875 128.19089 312.2Q127.878395 311.9969 127.45652 311.9969Q126.784645 311.9969 126.284645 312.4344Q125.80027 312.85626 125.80027 314.04376L125.80027 317.45L124.753395 317.45ZM136.00339 315.45L137.09714 315.575Q136.84714 316.52814 136.14401 317.0594Q135.44089 317.59064 134.36276 317.59064Q133.00339 317.59064 132.19089 316.7469Q131.39401 315.90314 131.39401 314.3875Q131.39401 312.825 132.20651 311.96564Q133.01901 311.09064 134.30026 311.09064Q135.55026 311.09064 136.33151 311.9344Q137.12839 312.77814 137.12839 314.325Q137.12839 314.41876 137.12839 314.60626L132.48776 314.60626Q132.55026 315.6375 133.06589 316.1844Q133.58151 316.71564 134.36276 316.71564Q134.94089 316.71564 135.34714 316.41876Q135.76901 316.10626 136.00339 315.45ZM132.55026 313.7469L136.01901 313.7469Q135.95651 312.95 135.62839 312.5594Q135.11276 311.95 134.31589 311.95Q133.58151 311.95 133.08151 312.4344Q132.59714 312.91876 132.55026 313.7469ZM138.73776 317.45L138.73776 311.23126L139.69089 311.23126L139.69089 312.16876Q140.05026 311.5125 140.34714 311.3094Q140.65964 311.09064 141.03464 311.09064Q141.56589 311.09064 142.11276 311.41876L141.75339 312.40314Q141.36276 312.16876 140.98776 312.16876Q140.62839 312.16876 140.34714 312.3875Q140.08151 312.59064 139.97214 312.96564Q139.78464 313.52814 139.78464 314.1844L139.78464 317.45L138.73776 317.45Z" fill-rule="nonzero"/><path fill="#000000" d="M167.51306 316.4344L167.51306 317.45L161.82556 317.45Q161.82556 317.075 161.95056 316.71564Q162.16931 316.1375 162.63806 315.575Q163.12244 315.0125 164.02869 314.27814Q165.43494 313.1219 165.91931 312.45Q166.41931 311.77814 166.41931 311.1844Q166.41931 310.5594 165.96619 310.1375Q165.51306 309.7 164.79431 309.7Q164.02869 309.7 163.57556 310.15314Q163.12244 310.60626 163.10681 311.41876L162.02869 311.3094Q162.13806 310.09064 162.85681 309.46564Q163.59119 308.825 164.82556 308.825Q166.05994 308.825 166.77869 309.5125Q167.49744 310.2 167.49744 311.21564Q167.49744 311.73126 167.27869 312.23126Q167.07556 312.71564 166.57556 313.27814Q166.09119 313.825 164.96619 314.77814Q164.01306 315.575 163.73181 315.8719Q163.46619 316.15314 163.29431 316.4344L167.51306 316.4344Z" fill-rule="nonzero"/><path fill="#000000" d="M209.97585 315.1844L211.03835 315.04376Q211.21022 315.9344 211.64772 316.34064Q212.08522 316.73126 212.71022 316.73126Q213.46022 316.73126 213.97585 316.21564Q214.49147 315.7 214.49147 314.9344Q214.49147 314.21564 214.0071 313.7469Q213.53835 313.2625 212.80397 313.2625Q212.5071 313.2625 212.05397 313.3875L212.17897 312.45Q212.28835 312.46564 212.35085 312.46564Q213.02272 312.46564 213.55397 312.1219Q214.10085 311.7625 214.10085 311.02814Q214.10085 310.45 213.71022 310.075Q213.3196 309.6844 212.6946 309.6844Q212.08522 309.6844 211.66335 310.075Q211.2571 310.46564 211.14772 311.23126L210.08522 311.04376Q210.27272 309.9969 210.96022 309.41876Q211.64772 308.825 212.66335 308.825Q213.36647 308.825 213.96022 309.1375Q214.55397 309.4344 214.86647 309.95Q215.17897 310.46564 215.17897 311.0594Q215.17897 311.60626 214.8821 312.075Q214.58522 312.52814 214.0071 312.79376Q214.7571 312.96564 215.17897 313.52814Q215.60085 314.075 215.60085 314.91876Q215.60085 316.04376 214.77272 316.825Q213.96022 317.60626 212.71022 317.60626Q211.58522 317.60626 210.83522 316.9344Q210.08522 316.2469 209.97585 315.1844Z" fill-rule="nonzero"/><path fill="#000000" d="M261.3605 317.45L261.3605 315.3875L257.64175 315.3875L257.64175 314.41876L261.56363 308.85626L262.423 308.85626L262.423 314.41876L263.57925 314.41876L263.57925 315.3875L262.423 315.3875L262.423 317.45L261.3605 317.45ZM261.3605 314.41876L261.3605 310.5594L258.673 314.41876L261.3605 314.41876Z" fill-rule="nonzero"/><path fill="#000000" d="M305.99518 315.2L307.10455 315.10626Q307.22955 315.91876 307.66705 316.325Q308.12018 316.73126 308.7608 316.73126Q309.5108 316.73126 310.04205 316.15314Q310.5733 315.575 310.5733 314.6375Q310.5733 313.73126 310.05768 313.21564Q309.55768 312.6844 308.72955 312.6844Q308.22955 312.6844 307.80768 312.91876Q307.40143 313.15314 307.16705 313.5125L306.18268 313.3875L307.0108 308.98126L311.29205 308.98126L311.29205 309.98126L307.85455 309.98126L307.40143 312.29376Q308.16705 311.7469 309.0108 311.7469Q310.1358 311.7469 310.90143 312.52814Q311.68268 313.3094 311.68268 314.54376Q311.68268 315.7 311.0108 316.5594Q310.18268 317.59064 308.7608 317.59064Q307.58893 317.59064 306.83893 316.9344Q306.10455 316.27814 305.99518 315.2Z" fill-rule="nonzero"/><path fill="#000000" d="M359.47357 310.96564L358.4267 311.04376Q358.28607 310.41876 358.03607 310.1375Q357.59857 309.6844 356.97357 309.6844Q356.47357 309.6844 356.08295 309.96564Q355.59857 310.34064 355.3017 311.04376Q355.02045 311.73126 355.00482 313.0125Q355.37982 312.4344 355.9267 312.15314Q356.4892 311.8719 357.09857 311.8719Q358.14545 311.8719 358.87982 312.65314Q359.62982 313.4344 359.62982 314.65314Q359.62982 315.46564 359.27045 316.16876Q358.9267 316.85626 358.31732 317.23126Q357.70795 317.59064 356.94232 317.59064Q355.6142 317.59064 354.78607 316.6219Q353.95795 315.65314 353.95795 313.4344Q353.95795 310.9344 354.87982 309.8094Q355.6767 308.825 357.03607 308.825Q358.0517 308.825 358.69232 309.40314Q359.34857 309.96564 359.47357 310.96564ZM355.1767 314.66876Q355.1767 315.21564 355.39545 315.71564Q355.62982 316.2 356.03607 316.46564Q356.45795 316.73126 356.9267 316.73126Q357.58295 316.73126 358.06732 316.2Q358.5517 315.65314 358.5517 314.73126Q358.5517 313.84064 358.06732 313.325Q357.59857 312.8094 356.87982 312.8094Q356.16107 312.8094 355.66107 313.325Q355.1767 313.84064 355.1767 314.66876Z" fill-rule="nonzero"/><path fill="#000000" d="M402.077 309.98126L402.077 308.96564L407.6395 308.96564L407.6395 309.79376Q406.827 310.66876 406.0145 312.1219Q405.21762 313.5594 404.78012 315.09064Q404.452 316.16876 404.37387 317.45L403.28012 317.45Q403.29575 316.4344 403.67075 314.9969Q404.06137 313.5594 404.7645 312.23126Q405.48325 310.90314 406.29575 309.98126L402.077 309.98126Z" fill-rule="nonzero"/><path fill="#000000" d="M451.64914 312.79376Q450.9929 312.54376 450.66476 312.10626Q450.35226 311.65314 450.35226 311.04376Q450.35226 310.10626 451.02414 309.46564Q451.71164 308.825 452.821 308.825Q453.946 308.825 454.6335 309.48126Q455.321 310.1375 455.321 311.075Q455.321 311.66876 455.0085 312.10626Q454.696 312.54376 454.0554 312.79376Q454.85226 313.04376 455.2585 313.6219Q455.66476 314.2 455.66476 314.9969Q455.66476 316.09064 454.8835 316.84064Q454.1179 317.59064 452.83664 317.59064Q451.571 317.59064 450.78976 316.84064Q450.0085 316.09064 450.0085 314.96564Q450.0085 314.1219 450.4304 313.5594Q450.8679 312.9969 451.64914 312.79376ZM451.4304 310.9969Q451.4304 311.60626 451.821 311.9969Q452.22726 312.3875 452.85226 312.3875Q453.46164 312.3875 453.85226 312.0125Q454.2429 311.6219 454.2429 311.0594Q454.2429 310.48126 453.83664 310.09064Q453.4304 309.6844 452.83664 309.6844Q452.22726 309.6844 451.821 310.075Q451.4304 310.46564 451.4304 310.9969ZM451.10226 314.96564Q451.10226 315.41876 451.3054 315.84064Q451.52414 316.2625 451.946 316.4969Q452.3679 316.73126 452.85226 316.73126Q453.60226 316.73126 454.08664 316.2469Q454.58664 315.7625 454.58664 315.0125Q454.58664 314.2469 454.08664 313.7469Q453.58664 313.2469 452.821 313.2469Q452.071 313.2469 451.58664 313.7469Q451.10226 314.23126 451.10226 314.96564Z" fill-rule="nonzero"/><path fill="#000000" d="M498.19006 315.46564L499.2057 315.3719Q499.3307 316.09064 499.69006 316.41876Q500.06506 316.73126 500.62756 316.73126Q501.11194 316.73126 501.4713 316.5125Q501.8463 316.27814 502.0807 315.91876Q502.31506 315.54376 502.4713 314.91876Q502.62756 314.27814 502.62756 313.6219Q502.62756 313.54376 502.62756 313.40314Q502.31506 313.90314 501.7682 314.23126Q501.2213 314.54376 500.5807 314.54376Q499.50256 314.54376 498.7682 313.77814Q498.0338 312.9969 498.0338 311.73126Q498.0338 310.41876 498.79944 309.6219Q499.5807 308.825 500.73694 308.825Q501.56506 308.825 502.25256 309.27814Q502.9557 309.73126 503.31506 310.575Q503.67444 311.40314 503.67444 312.98126Q503.67444 314.6219 503.31506 315.60626Q502.9713 316.575 502.25256 317.09064Q501.54944 317.59064 500.61194 317.59064Q499.5963 317.59064 498.9557 317.04376Q498.31506 316.48126 498.19006 315.46564ZM502.50256 311.66876Q502.50256 310.7625 502.0182 310.23126Q501.54944 309.7 500.86194 309.7Q500.1588 309.7 499.62756 310.27814Q499.11194 310.84064 499.11194 311.7625Q499.11194 312.575 499.61194 313.09064Q500.11194 313.60626 500.8307 313.60626Q501.56506 313.60626 502.0338 313.09064Q502.50256 312.575 502.50256 311.66876Z" fill-rule="nonzero"/><path fill="#000000" d="M532.4966 317.45L532.4966 308.85626L538.6997 308.85626L538.6997 309.8719L533.6372 309.8719L533.6372 312.4969L538.3872 312.4969L538.3872 313.5125L533.6372 313.5125L533.6372 316.4344L538.90283 316.4344L538.90283 317.45L532.4966 317.45ZM539.6372 317.45L541.90283 314.21564L539.8091 311.23126L541.1216 311.23126L542.0747 312.6844Q542.34033 313.10626 542.5122 313.3875Q542.7622 312.9969 542.98096 312.7L544.02783 311.23126L545.29346 311.23126L543.1372 314.15314L545.4497 317.45L544.16846 317.45L542.8872 315.5125L542.54346 314.9969L540.90283 317.45L539.6372 317.45ZM546.34033 319.84064L546.34033 311.23126L547.29346 311.23126L547.29346 312.02814Q547.6372 311.5594 548.0591 311.325Q548.4966 311.09064 549.10596 311.09064Q549.90283 311.09064 550.5122 311.4969Q551.1216 311.90314 551.41846 312.65314Q551.73096 313.40314 551.73096 314.29376Q551.73096 315.2469 551.3872 316.0125Q551.0591 316.77814 550.40283 317.1844Q549.7466 317.59064 549.02783 317.59064Q548.4966 317.59064 548.0747 317.3719Q547.65283 317.1375 547.3872 316.8094L547.3872 319.84064L546.34033 319.84064ZM547.29346 314.3719Q547.29346 315.575 547.77783 316.15314Q548.2622 316.71564 548.9497 316.71564Q549.65283 316.71564 550.15283 316.1219Q550.65283 315.52814 550.65283 314.27814Q550.65283 313.09064 550.16846 312.5125Q549.6841 311.91876 548.9966 311.91876Q548.3247 311.91876 547.8091 312.54376Q547.29346 313.16876 547.29346 314.3719ZM557.59033 315.45L558.6841 315.575Q558.4341 316.52814 557.73096 317.0594Q557.02783 317.59064 555.9497 317.59064Q554.59033 317.59064 553.77783 316.7469Q552.98096 315.90314 552.98096 314.3875Q552.98096 312.825 553.79346 311.96564Q554.60596 311.09064 555.8872 311.09064Q557.1372 311.09064 557.91846 311.9344Q558.71533 312.77814 558.71533 314.325Q558.71533 314.41876 558.71533 314.60626L554.0747 314.60626Q554.1372 315.6375 554.65283 316.1844Q555.16846 316.71564 555.9497 316.71564Q556.52783 316.71564 556.9341 316.41876Q557.35596 316.10626 557.59033 315.45ZM554.1372 313.7469L557.60596 313.7469Q557.54346 312.95 557.21533 312.5594Q556.6997 311.95 555.90283 311.95Q555.16846 311.95 554.66846 312.4344Q554.1841 312.91876 554.1372 313.7469ZM560.3247 317.45L560.3247 311.23126L561.27783 311.23126L561.27783 312.16876Q561.6372 311.5125 561.9341 311.3094Q562.2466 311.09064 562.6216 311.09064Q563.15283 311.09064 563.6997 311.41876L563.34033 312.40314Q562.9497 312.16876 562.5747 312.16876Q562.21533 312.16876 561.9341 312.3875Q561.66846 312.59064 561.5591 312.96564Q561.3716 313.52814 561.3716 314.1844L561.3716 317.45L560.3247 317.45ZM566.6372 316.5125L566.79346 317.4344Q566.34033 317.52814 565.9966 317.52814Q565.41846 317.52814 565.10596 317.35626Q564.79346 317.16876 564.65283 316.8719Q564.52783 316.575 564.52783 315.6219L564.52783 312.04376L563.7622 312.04376L563.7622 311.23126L564.52783 311.23126L564.52783 309.6844L565.5747 309.0594L565.5747 311.23126L566.6372 311.23126L566.6372 312.04376L565.5747 312.04376L565.5747 315.6844Q565.5747 316.1375 565.6216 316.2625Q565.6841 316.3875 565.8091 316.46564Q565.9341 316.54376 566.16846 316.54376Q566.35596 316.54376 566.6372 316.5125Z" fill-rule="nonzero"/><path fill="#757575" d="M20.159374 37.55L20.159374 23.2375L22.05 23.2375L22.05 29.1125L29.4875 29.1125L29.4875 23.2375L31.378124 23.2375L31.378124 37.55L29.4875 37.55L29.4875 30.8L22.05 30.8L22.05 37.55L20.159374 37.55ZM33.221874 32.3625Q33.221874 29.4875 34.815624 28.096874Q36.159374 26.940624 38.08125 26.940624Q40.221874 26.940624 41.565624 28.346874Q42.925 29.753124 42.925 32.221874Q42.925 34.221874 42.33125 35.378124Q41.7375 36.51875 40.58125 37.159374Q39.440624 37.784374 38.08125 37.784374Q35.89375 37.784374 34.55 36.39375Q33.221874 34.9875 33.221874 32.3625ZM35.01875 32.3625Q35.01875 34.3625 35.878124 35.346874Q36.753124 36.33125 38.08125 36.33125Q39.39375 36.33125 40.253124 35.346874Q41.128124 34.346874 41.128124 32.3Q41.128124 30.378124 40.253124 29.39375Q39.378124 28.39375 38.08125 28.39375Q36.753124 28.39375 35.878124 29.39375Q35.01875 30.378124 35.01875 32.3625ZM46.784374 37.55L43.6125 27.175L45.425 27.175L47.08125 33.159374L47.690624 35.39375Q47.7375 35.221874 48.221874 33.253124L49.878124 27.175L51.690624 27.175L53.2375 33.190624L53.753124 35.175L54.346874 33.175L56.128124 27.175L57.83125 27.175L54.596874 37.55L52.76875 37.55L51.1125 31.33125L50.721874 29.565624L48.6125 37.55L46.784374 37.55ZM66.78438 37.55L63.6125 27.175L65.425 27.175L67.08125 33.159374L67.69063 35.39375Q67.7375 35.221874 68.22188 33.253124L69.87813 27.175L71.69063 27.175L73.2375 33.190624L73.75313 35.175L74.34688 33.175L76.12813 27.175L77.83125 27.175L74.59688 37.55L72.76875 37.55L71.1125 31.33125L70.72188 29.565624L68.6125 37.55L66.78438 37.55ZM78.22188 32.3625Q78.22188 29.4875 79.81563 28.096874Q81.15938 26.940624 83.08125 26.940624Q85.22188 26.940624 86.56563 28.346874Q87.925 29.753124 87.925 32.221874Q87.925 34.221874 87.33125 35.378124Q86.7375 36.51875 85.58125 37.159374Q84.44063 37.784374 83.08125 37.784374Q80.89375 37.784374 79.55 36.39375Q78.22188 34.9875 78.22188 32.3625ZM80.01875 32.3625Q80.01875 34.3625 80.87813 35.346874Q81.75313 36.33125 83.08125 36.33125Q84.39375 36.33125 85.25313 35.346874Q86.12813 34.346874 86.12813 32.3Q86.12813 30.378124 85.25313 29.39375Q84.37813 28.39375 83.08125 28.39375Q81.75313 28.39375 80.87813 29.39375Q80.01875 30.378124 80.01875 32.3625ZM96.65938 37.55L96.65938 36.01875Q95.45625 37.784374 93.37813 37.784374Q92.45625 37.784374 91.65938 37.440624Q90.8625 37.08125 90.47188 36.55Q90.09688 36.01875 89.94063 35.2375Q89.83125 34.721874 89.83125 33.596874L89.83125 27.175L91.58125 27.175L91.58125 32.925Q91.58125 34.3 91.69063 34.784374Q91.8625 35.471874 92.39375 35.878124Q92.94063 36.26875 93.72188 36.26875Q94.51875 36.26875 95.20625 35.8625Q95.90938 35.45625 96.19063 34.76875Q96.4875 34.065624 96.4875 32.7375L96.4875 27.175L98.2375 27.175L98.2375 37.55L96.65938 37.55ZM100.83125 37.55L100.83125 23.2375L102.58125 23.2375L102.58125 37.55L100.83125 37.55ZM111.59688 37.55L111.59688 36.2375Q110.6125 37.784374 108.69063 37.784374Q107.45625 37.784374 106.40938 37.096874Q105.37813 36.409374 104.8 35.190624Q104.2375 33.971874 104.2375 32.378124Q104.2375 30.815624 104.75313 29.55Q105.26875 28.284374 106.3 27.6125Q107.34688 26.940624 108.6125 26.940624Q109.55 26.940624 110.28438 27.346874Q111.01875 27.7375 111.4875 28.3625L111.4875 23.2375L113.22188 23.2375L113.22188 37.55L111.59688 37.55ZM106.03438 32.378124Q106.03438 34.3625 106.87813 35.346874Q107.72188 36.33125 108.8625 36.33125Q110.01875 36.33125 110.81563 35.39375Q111.62813 34.45625 111.62813 32.51875Q111.62813 30.39375 110.8 29.39375Q109.9875 28.39375 108.78438 28.39375Q107.6125 28.39375 106.81563 29.3625Q106.03438 30.315624 106.03438 32.378124ZM121.78438 41.55L121.59688 39.89375Q122.175 40.05 122.59688 40.05Q123.19063 40.05 123.53438 39.846874Q123.89375 39.659374 124.1125 39.315624Q124.28438 39.05 124.65938 38.003124Q124.70625 37.846874 124.81563 37.565624L120.87813 27.175L122.76875 27.175L124.925 33.190624Q125.34688 34.33125 125.675 35.58125Q125.9875 34.378124 126.39375 33.221874L128.6125 27.175L130.37813 27.175L126.425 37.721874Q125.8 39.440624 125.44063 40.08125Q124.97188 40.95625 124.3625 41.346874Q123.76875 41.753124 122.925 41.753124Q122.40938 41.753124 121.78438 41.55ZM131.22188 32.3625Q131.22188 29.4875 132.81563 28.096874Q134.15938 26.940624 136.08125 26.940624Q138.22188 26.940624 139.56563 28.346874Q140.925 29.753124 140.925 32.221874Q140.925 34.221874 140.33125 35.378124Q139.7375 36.51875 138.58125 37.159374Q137.44063 37.784374 136.08125 37.784374Q133.89375 37.784374 132.55 36.39375Q131.22188 34.9875 131.22188 32.3625ZM133.01875 32.3625Q133.01875 34.3625 133.87813 35.346874Q134.75313 36.33125 136.08125 36.33125Q137.39375 36.33125 138.25313 35.346874Q139.12813 34.346874 139.12813 32.3Q139.12813 30.378124 138.25313 29.39375Q137.37813 28.39375 136.08125 28.39375Q134.75313 28.39375 133.87813 29.39375Q133.01875 30.378124 133.01875 32.3625ZM149.65938 37.55L149.65938 36.01875Q148.45625 37.784374 146.37813 37.784374Q145.45625 37.784374 144.65938 37.440624Q143.8625 37.08125 143.47188 36.55Q143.09688 36.01875 142.94063 35.2375Q142.83125 34.721874 142.83125 33.596874L142.83125 27.175L144.58125 27.175L144.58125 32.925Q144.58125 34.3 144.69063 34.784374Q144.8625 35.471874 145.39375 35.878124Q145.94063 36.26875 146.72188 36.26875Q147.51875 36.26875 148.20625 35.8625Q148.90938 35.45625 149.19063 34.76875Q149.4875 34.065624 149.4875 32.7375L149.4875 27.175L151.2375 27.175L151.2375 37.55L149.65938 37.55ZM159.84688 37.55L159.84688 27.175L161.425 27.175L161.425 28.753124Q162.03438 27.64375 162.55 27.3Q163.06563 26.940624 163.675 26.940624Q164.56563 26.940624 165.4875 27.503124L164.87813 29.14375Q164.2375 28.753124 163.59688 28.753124Q163.01875 28.753124 162.55 29.1125Q162.09688 29.45625 161.89375 30.065624Q161.6125 31.003124 161.6125 32.1125L161.6125 37.55L159.84688 37.55ZM173.64375 36.26875Q172.65938 37.096874 171.75313 37.440624Q170.84688 37.784374 169.81563 37.784374Q168.1125 37.784374 167.19063 36.95625Q166.26875 36.1125 166.26875 34.815624Q166.26875 34.05 166.6125 33.425Q166.97188 32.8 167.53438 32.425Q168.09688 32.034374 168.8 31.83125Q169.31563 31.70625 170.3625 31.565624Q172.4875 31.315624 173.4875 30.971874Q173.50313 30.6125 173.50313 30.503124Q173.50313 29.440624 173.00313 28.9875Q172.33125 28.39375 171.00313 28.39375Q169.75313 28.39375 169.15938 28.83125Q168.58125 29.26875 168.3 30.378124L166.58125 30.14375Q166.81563 29.034374 167.34688 28.3625Q167.87813 27.675 168.89375 27.315624Q169.90938 26.940624 171.25313 26.940624Q172.58125 26.940624 173.40938 27.253124Q174.2375 27.565624 174.62813 28.05Q175.01875 28.51875 175.175 29.2375Q175.26875 29.690624 175.26875 30.8625L175.26875 33.20625Q175.26875 35.659374 175.37813 36.315624Q175.4875 36.95625 175.83125 37.55L173.9875 37.55Q173.72188 37.003124 173.64375 36.26875ZM173.4875 32.346874Q172.53438 32.7375 170.6125 33.003124Q169.53438 33.159374 169.08125 33.3625Q168.64375 33.55 168.39375 33.925Q168.14375 34.3 168.14375 34.76875Q168.14375 35.471874 168.675 35.940624Q169.20625 36.409374 170.2375 36.409374Q171.25313 36.409374 172.03438 35.971874Q172.83125 35.51875 173.20625 34.753124Q173.4875 34.14375 173.4875 32.9875L173.4875 32.346874ZM181.70625 35.971874L181.95625 37.534374Q181.22188 37.690624 180.62813 37.690624Q179.675 37.690624 179.14375 37.39375Q178.62813 37.08125 178.40938 36.596874Q178.19063 36.096874 178.19063 34.51875L178.19063 28.55L176.90938 28.55L176.90938 27.175L178.19063 27.175L178.19063 24.6125L179.94063 23.55L179.94063 27.175L181.70625 27.175L181.70625 28.55L179.94063 28.55L179.94063 34.6125Q179.94063 35.3625 180.03438 35.58125Q180.12813 35.784374 180.33125 35.925Q180.55 36.05 180.94063 36.05Q181.22188 36.05 181.70625 35.971874ZM190.97188 34.20625L192.78438 34.440624Q192.3625 36.01875 191.19063 36.909374Q190.03438 37.784374 188.22188 37.784374Q185.95625 37.784374 184.6125 36.39375Q183.28438 34.9875 183.28438 32.45625Q183.28438 29.83125 184.62813 28.39375Q185.97188 26.940624 188.12813 26.940624Q190.20625 26.940624 191.51875 28.3625Q192.84688 29.76875 192.84688 32.346874Q192.84688 32.503124 192.83125 32.815624L185.09688 32.815624Q185.19063 34.51875 186.06563 35.425Q186.94063 36.33125 188.2375 36.33125Q189.20625 36.33125 189.87813 35.83125Q190.56563 35.315624 190.97188 34.20625ZM185.19063 31.3625L190.9875 31.3625Q190.87813 30.065624 190.33125 29.409374Q189.4875 28.39375 188.14375 28.39375Q186.94063 28.39375 186.1125 29.20625Q185.28438 30.003124 185.19063 31.3625ZM200.78438 41.55L200.59688 39.89375Q201.175 40.05 201.59688 40.05Q202.19063 40.05 202.53438 39.846874Q202.89375 39.659374 203.1125 39.315624Q203.28438 39.05 203.65938 38.003124Q203.70625 37.846874 203.81563 37.565624L199.87813 27.175L201.76875 27.175L203.925 33.190624Q204.34688 34.33125 204.675 35.58125Q204.9875 34.378124 205.39375 33.221874L207.6125 27.175L209.37813 27.175L205.425 37.721874Q204.8 39.440624 204.44063 40.08125Q203.97188 40.95625 203.3625 41.346874Q202.76875 41.753124 201.925 41.753124Q201.40938 41.753124 200.78438 41.55ZM210.22188 32.3625Q210.22188 29.4875 211.81563 28.096874Q213.15938 26.940624 215.08125 26.940624Q217.22188 26.940624 218.56563 28.346874Q219.925 29.753124 219.925 32.221874Q219.925 34.221874 219.33125 35.378124Q218.7375 36.51875 217.58125 37.159374Q216.44063 37.784374 215.08125 37.784374Q212.89375 37.784374 211.55 36.39375Q210.22188 34.9875 210.22188 32.3625ZM212.01875 32.3625Q212.01875 34.3625 212.87813 35.346874Q213.75313 36.33125 215.08125 36.33125Q216.39375 36.33125 217.25313 35.346874Q218.12813 34.346874 218.12813 32.3Q218.12813 30.378124 217.25313 29.39375Q216.37813 28.39375 215.08125 28.39375Q213.75313 28.39375 212.87813 29.39375Q212.01875 30.378124 212.01875 32.3625ZM228.65938 37.55L228.65938 36.01875Q227.45625 37.784374 225.37813 37.784374Q224.45625 37.784374 223.65938 37.440624Q222.8625 37.08125 222.47188 36.55Q222.09688 36.01875 221.94063 35.2375Q221.83125 34.721874 221.83125 33.596874L221.83125 27.175L223.58125 27.175L223.58125 32.925Q223.58125 34.3 223.69063 34.784374Q223.8625 35.471874 224.39375 35.878124Q224.94063 36.26875 225.72188 36.26875Q226.51875 36.26875 227.20625 35.8625Q227.90938 35.45625 228.19063 34.76875Q228.4875 34.065624 228.4875 32.7375L228.4875 27.175L230.2375 27.175L230.2375 37.55L228.65938 37.55ZM232.84688 37.55L232.84688 27.175L234.425 27.175L234.425 28.753124Q235.03438 27.64375 235.55 27.3Q236.06563 26.940624 236.675 26.940624Q237.56563 26.940624 238.4875 27.503124L237.87813 29.14375Q237.2375 28.753124 236.59688 28.753124Q236.01875 28.753124 235.55 29.1125Q235.09688 29.45625 234.89375 30.065624Q234.6125 31.003124 234.6125 32.1125L234.6125 37.55L232.84688 37.55ZM252.97188 34.20625L254.78438 34.440624Q254.3625 36.01875 253.19063 36.909374Q252.03438 37.784374 250.22188 37.784374Q247.95625 37.784374 246.6125 36.39375Q245.28438 34.9875 245.28438 32.45625Q245.28438 29.83125 246.62813 28.39375Q247.97188 26.940624 250.12813 26.940624Q252.20625 26.940624 253.51875 28.3625Q254.84688 29.76875 254.84688 32.346874Q254.84688 32.503124 254.83125 32.815624L247.09688 32.815624Q247.19063 34.51875 248.06563 35.425Q248.94063 36.33125 250.2375 36.33125Q251.20625 36.33125 251.87813 35.83125Q252.56563 35.315624 252.97188 34.20625ZM247.19063 31.3625L252.9875 31.3625Q252.87813 30.065624 252.33125 29.409374Q251.4875 28.39375 250.14375 28.39375Q248.94063 28.39375 248.1125 29.20625Q247.28438 30.003124 247.19063 31.3625ZM255.69063 37.55L259.4875 32.159374L255.9875 27.175L258.175 27.175L259.76874 29.6125Q260.22186 30.3 260.4875 30.76875Q260.925 30.128124 261.28436 29.628124L263.03436 27.175L265.1281 27.175L261.55 32.065624L265.40936 37.55L263.2531 37.55L261.1125 34.33125L260.55 33.45625L257.83124 37.55L255.69063 37.55ZM266.8625 41.51875L266.8625 27.175L268.47186 27.175L268.47186 28.51875Q269.03436 27.7375 269.7375 27.346874Q270.45624 26.940624 271.47186 26.940624Q272.8 26.940624 273.8156 27.628124Q274.83124 28.315624 275.34686 29.565624Q275.8781 30.8 275.8781 32.284374Q275.8781 33.878124 275.3 35.159374Q274.7375 36.425 273.64374 37.1125Q272.55 37.784374 271.34686 37.784374Q270.47186 37.784374 269.76874 37.409374Q269.08124 37.034374 268.6281 36.471874L268.6281 41.51875L266.8625 41.51875ZM268.45624 32.425Q268.45624 34.425 269.26874 35.378124Q270.08124 36.33125 271.2375 36.33125Q272.40936 36.33125 273.2375 35.346874Q274.08124 34.3625 274.08124 32.26875Q274.08124 30.3 273.2531 29.315624Q272.4406 28.315624 271.3156 28.315624Q270.1906 28.315624 269.3156 29.378124Q268.45624 30.425 268.45624 32.425ZM284.97186 34.20625L286.78436 34.440624Q286.3625 36.01875 285.1906 36.909374Q284.03436 37.784374 282.22186 37.784374Q279.95624 37.784374 278.6125 36.39375Q277.28436 34.9875 277.28436 32.45625Q277.28436 29.83125 278.6281 28.39375Q279.97186 26.940624 282.1281 26.940624Q284.20624 26.940624 285.51874 28.3625Q286.84686 29.76875 286.84686 32.346874Q286.84686 32.503124 286.83124 32.815624L279.09686 32.815624Q279.1906 34.51875 280.0656 35.425Q280.9406 36.33125 282.2375 36.33125Q283.20624 36.33125 283.8781 35.83125Q284.5656 35.315624 284.97186 34.20625ZM279.1906 31.3625L284.9875 31.3625Q284.8781 30.065624 284.33124 29.409374Q283.4875 28.39375 282.14374 28.39375Q280.9406 28.39375 280.1125 29.20625Q279.28436 30.003124 279.1906 31.3625ZM288.84686 37.55L288.84686 27.175L290.425 27.175L290.425 28.753124Q291.03436 27.64375 291.55 27.3Q292.0656 26.940624 292.675 26.940624Q293.5656 26.940624 294.4875 27.503124L293.8781 29.14375Q293.2375 28.753124 292.59686 28.753124Q292.01874 28.753124 291.55 29.1125Q291.09686 29.45625 290.89374 30.065624Q290.6125 31.003124 290.6125 32.1125L290.6125 37.55L288.84686 37.55ZM299.70624 35.971874L299.95624 37.534374Q299.22186 37.690624 298.6281 37.690624Q297.675 37.690624 297.14374 37.39375Q296.6281 37.08125 296.40936 36.596874Q296.1906 36.096874 296.1906 34.51875L296.1906 28.55L294.90936 28.55L294.90936 27.175L296.1906 27.175L296.1906 24.6125L297.9406 23.55L297.9406 27.175L299.70624 27.175L299.70624 28.55L297.9406 28.55L297.9406 34.6125Q297.9406 35.3625 298.03436 35.58125Q298.1281 35.784374 298.33124 35.925Q298.55 36.05 298.9406 36.05Q299.22186 36.05 299.70624 35.971874ZM301.8781 25.253124L301.8781 23.2375L303.64374 23.2375L303.64374 25.253124L301.8781 25.253124ZM301.8781 37.55L301.8781 27.175L303.64374 27.175L303.64374 37.55L301.8781 37.55ZM305.15936 34.45625L306.90936 34.175Q307.05 35.221874 307.72186 35.784374Q308.39374 36.33125 309.59686 36.33125Q310.8 36.33125 311.3781 35.846874Q311.97186 35.346874 311.97186 34.690624Q311.97186 34.096874 311.45624 33.753124Q311.09686 33.51875 309.65936 33.159374Q307.72186 32.659374 306.97186 32.315624Q306.2375 31.95625 305.84686 31.33125Q305.45624 30.690624 305.45624 29.925Q305.45624 29.2375 305.76874 28.64375Q306.09686 28.05 306.64374 27.659374Q307.05 27.3625 307.7531 27.159374Q308.47186 26.940624 309.28436 26.940624Q310.5031 26.940624 311.425 27.3Q312.34686 27.64375 312.78436 28.253124Q313.22186 28.846874 313.39374 29.846874L311.675 30.08125Q311.55 29.284374 310.9875 28.846874Q310.425 28.39375 309.40936 28.39375Q308.1906 28.39375 307.675 28.8Q307.15936 29.190624 307.15936 29.721874Q307.15936 30.065624 307.3781 30.346874Q307.58124 30.628124 308.05 30.815624Q308.3156 30.909374 309.59686 31.253124Q311.47186 31.753124 312.20624 32.08125Q312.9406 32.39375 313.3625 33.003124Q313.78436 33.596874 313.78436 34.503124Q313.78436 35.378124 313.26874 36.159374Q312.7531 36.940624 311.78436 37.3625Q310.8156 37.784374 309.59686 37.784374Q307.58124 37.784374 306.51874 36.940624Q305.45624 36.096874 305.15936 34.45625ZM322.97186 34.20625L324.78436 34.440624Q324.3625 36.01875 323.1906 36.909374Q322.03436 37.784374 320.22186 37.784374Q317.95624 37.784374 316.6125 36.39375Q315.28436 34.9875 315.28436 32.45625Q315.28436 29.83125 316.6281 28.39375Q317.97186 26.940624 320.1281 26.940624Q322.20624 26.940624 323.51874 28.3625Q324.84686 29.76875 324.84686 32.346874Q324.84686 32.503124 324.83124 32.815624L317.09686 32.815624Q317.1906 34.51875 318.0656 35.425Q318.9406 36.33125 320.2375 36.33125Q321.20624 36.33125 321.8781 35.83125Q322.5656 35.315624 322.97186 34.20625ZM317.1906 31.3625L322.9875 31.3625Q322.8781 30.065624 322.33124 29.409374Q321.4875 28.39375 320.14374 28.39375Q318.9406 28.39375 318.1125 29.20625Q317.28436 30.003124 317.1906 31.3625ZM332.8781 25.253124L332.8781 23.2375L334.64374 23.2375L334.64374 25.253124L332.8781 25.253124ZM332.8781 37.55L332.8781 27.175L334.64374 27.175L334.64374 37.55L332.8781 37.55ZM336.8625 37.55L336.8625 27.175L338.45624 27.175L338.45624 28.659374Q339.59686 26.940624 341.7531 26.940624Q342.6906 26.940624 343.47186 27.284374Q344.26874 27.6125 344.65936 28.159374Q345.05 28.70625 345.20624 29.45625Q345.3 29.95625 345.3 31.175L345.3 37.55L343.53436 37.55L343.53436 31.2375Q343.53436 30.159374 343.33124 29.628124Q343.1281 29.096874 342.59686 28.784374Q342.08124 28.471874 341.3781 28.471874Q340.2531 28.471874 339.4406 29.190624Q338.6281 29.89375 338.6281 31.878124L338.6281 37.55L336.8625 37.55ZM354.1281 37.55L354.1281 23.2375L360.47186 23.2375Q362.3781 23.2375 363.3781 23.628124Q364.3781 24.003124 364.97186 24.9875Q365.5656 25.95625 365.5656 27.14375Q365.5656 28.659374 364.58124 29.70625Q363.59686 30.753124 361.53436 31.034374Q362.28436 31.39375 362.675 31.753124Q363.5031 32.503124 364.2531 33.659374L366.7375 37.55L364.3625 37.55L362.45624 34.565624Q361.6281 33.284374 361.09686 32.596874Q360.5656 31.909374 360.1281 31.64375Q359.70624 31.3625 359.26874 31.253124Q358.9406 31.190624 358.22186 31.190624L356.01874 31.190624L356.01874 37.55L354.1281 37.55ZM356.01874 29.55L360.09686 29.55Q361.39374 29.55 362.1125 29.284374Q362.84686 29.01875 363.22186 28.425Q363.6125 27.83125 363.6125 27.14375Q363.6125 26.128124 362.8781 25.471874Q362.14374 24.815624 360.55 24.815624L356.01874 24.815624L356.01874 29.55ZM374.65936 37.55L374.65936 36.01875Q373.45624 37.784374 371.3781 37.784374Q370.45624 37.784374 369.65936 37.440624Q368.8625 37.08125 368.47186 36.55Q368.09686 36.01875 367.9406 35.2375Q367.83124 34.721874 367.83124 33.596874L367.83124 27.175L369.58124 27.175L369.58124 32.925Q369.58124 34.3 369.6906 34.784374Q369.8625 35.471874 370.39374 35.878124Q370.9406 36.26875 371.72186 36.26875Q372.51874 36.26875 373.20624 35.8625Q373.90936 35.45625 374.1906 34.76875Q374.4875 34.065624 374.4875 32.7375L374.4875 27.175L376.2375 27.175L376.2375 37.55L374.65936 37.55ZM378.15936 34.45625L379.90936 34.175Q380.05 35.221874 380.72186 35.784374Q381.39374 36.33125 382.59686 36.33125Q383.8 36.33125 384.3781 35.846874Q384.97186 35.346874 384.97186 34.690624Q384.97186 34.096874 384.45624 33.753124Q384.09686 33.51875 382.65936 33.159374Q380.72186 32.659374 379.97186 32.315624Q379.2375 31.95625 378.84686 31.33125Q378.45624 30.690624 378.45624 29.925Q378.45624 29.2375 378.76874 28.64375Q379.09686 28.05 379.64374 27.659374Q380.05 27.3625 380.7531 27.159374Q381.47186 26.940624 382.28436 26.940624Q383.5031 26.940624 384.425 27.3Q385.34686 27.64375 385.78436 28.253124Q386.22186 28.846874 386.39374 29.846874L384.675 30.08125Q384.55 29.284374 383.9875 28.846874Q383.425 28.39375 382.40936 28.39375Q381.1906 28.39375 380.675 28.8Q380.15936 29.190624 380.15936 29.721874Q380.15936 30.065624 380.3781 30.346874Q380.58124 30.628124 381.05 30.815624Q381.3156 30.909374 382.59686 31.253124Q384.47186 31.753124 385.20624 32.08125Q385.9406 32.39375 386.3625 33.003124Q386.78436 33.596874 386.78436 34.503124Q386.78436 35.378124 386.26874 36.159374Q385.7531 36.940624 384.78436 37.3625Q383.8156 37.784374 382.59686 37.784374Q380.58124 37.784374 379.51874 36.940624Q378.45624 36.096874 378.15936 34.45625ZM392.70624 35.971874L392.95624 37.534374Q392.22186 37.690624 391.6281 37.690624Q390.675 37.690624 390.14374 37.39375Q389.6281 37.08125 389.40936 36.596874Q389.1906 36.096874 389.1906 34.51875L389.1906 28.55L387.90936 28.55L387.90936 27.175L389.1906 27.175L389.1906 24.6125L390.9406 23.55L390.9406 27.175L392.70624 27.175L392.70624 28.55L390.9406 28.55L390.9406 34.6125Q390.9406 35.3625 391.03436 35.58125Q391.1281 35.784374 391.33124 35.925Q391.55 36.05 391.9406 36.05Q392.22186 36.05 392.70624 35.971874ZM398.15936 34.01875Q398.14374 33.675 398.14374 33.503124Q398.14374 32.45625 398.4406 31.70625Q398.65936 31.14375 399.14374 30.565624Q399.4875 30.14375 400.39374 29.346874Q401.3156 28.534374 401.58124 28.065624Q401.8625 27.58125 401.8625 27.01875Q401.8625 25.9875 401.05 25.221874Q400.2531 24.440624 399.09686 24.440624Q397.97186 24.440624 397.22186 25.14375Q396.47186 25.846874 396.2375 27.33125L394.425 27.1125Q394.675 25.1125 395.8781 24.05Q397.08124 22.9875 399.0656 22.9875Q401.175 22.9875 402.425 24.128124Q403.675 25.26875 403.675 26.89375Q403.675 27.83125 403.22186 28.628124Q402.78436 29.409374 401.5031 30.55Q400.64374 31.315624 400.3781 31.675Q400.1281 32.034374 399.9875 32.503124Q399.8625 32.971874 399.84686 34.01875L398.15936 34.01875ZM398.05 37.55L398.05 35.55L400.05 35.55L400.05 37.55L398.05 37.55Z" fill-rule="nonzero"/></svg>