<svg version="1.1" viewBox="0.0 0.0 584.0 361.0" fill="none" stroke="none" stroke-linecap="square" stroke-miterlimit="10" width="584" height="361" xmlns:xlink="http://www.w3.org/1999/xlink" xmlns="http://www.w3.org/2000/svg"><path fill="#ffffff" d="M0 0L584.0 0L584.0 361.0L0 361.0L0 0Z" fill-rule="nonzero"/><path fill="#6fa8dc" d="M276.2339 54.946415C281.46957 54.371456 286.73282 54.083332 292.0 54.083332L292.0 198.51666Z" fill-rule="nonzero"/><path fill="#f1c232" d="M231.5156 67.35789C245.65523 60.837337 260.75623 56.646088 276.2339 54.946415L292.0 198.51666Z" fill-rule="nonzero"/><path fill="#b7b7b7" d="M152.93274 159.513C164.36105 118.76546 193.08528 85.080185 231.5156 67.35789L292.0 198.51666Z" fill-rule="nonzero"/><path fill="#ff9900" d="M262.18484 339.83914C223.0969 331.59268 189.1701 307.52527 168.46985 273.35843C147.7696 239.19162 142.14484 197.97719 152.93274 159.513L292.0 198.51666Z" fill-rule="nonzero"/><path fill="#3c78d8" d="M292.0 54.083332C347.19446 54.083332 397.56308 85.539444 421.7838 135.13567C446.00452 184.73189 439.84195 243.79547 405.90485 287.3236C371.9677 330.85178 316.19052 351.23285 262.18484 339.83914L292.0 198.51666Z" fill-rule="nonzero"/><path fill="#1a1a1a" d="M18.971874 65.083336L18.971874 56.489586L20.128124 56.489586L24.64375 63.239586L24.64375 56.489586L25.7375 56.489586L25.7375 65.083336L24.565624 65.083336L20.05 58.333336L20.05 65.083336L18.971874 65.083336ZM27.45625 61.97396Q27.45625 60.239586 28.409374 59.41146Q29.20625 58.72396 30.3625 58.72396Q31.64375 58.72396 32.45625 59.56771Q33.284374 60.395836 33.284374 61.88021Q33.284374 63.083336 32.925 63.770836Q32.565624 64.458336 31.8625 64.84896Q31.175 65.22396 30.3625 65.22396Q29.065624 65.22396 28.253124 64.395836Q27.45625 63.552086 27.45625 61.97396ZM28.534374 61.97396Q28.534374 63.16146 29.05 63.75521Q29.58125 64.34896 30.3625 64.34896Q31.159374 64.34896 31.675 63.75521Q32.190624 63.16146 32.190624 61.94271Q32.190624 60.78646 31.659374 60.19271Q31.14375 59.59896 30.3625 59.59896Q29.58125 59.59896 29.05 60.19271Q28.534374 60.770836 28.534374 61.97396ZM37.14375 64.145836L37.3 65.06771Q36.846874 65.16146 36.503124 65.16146Q35.925 65.16146 35.6125 64.989586Q35.3 64.802086 35.159374 64.50521Q35.034374 64.208336 35.034374 63.25521L35.034374 59.677086L34.26875 59.677086L34.26875 58.864586L35.034374 58.864586L35.034374 57.31771L36.08125 56.69271L36.08125 58.864586L37.14375 58.864586L37.14375 59.677086L36.08125 59.677086L36.08125 63.31771Q36.08125 63.770836 36.128124 63.895836Q36.190624 64.020836 36.315624 64.09896Q36.440624 64.177086 36.675 64.177086Q36.8625 64.177086 37.14375 64.145836ZM40.425 63.22396L41.45625 63.06771Q41.55 63.69271 41.940624 64.020836Q42.346874 64.34896 43.08125 64.34896Q43.8 64.34896 44.14375 64.06771Q44.503124 63.770836 44.503124 63.364586Q44.503124 63.00521 44.190624 62.802086Q43.971874 62.66146 43.1125 62.44271Q41.95625 62.145836 41.503124 61.94271Q41.065624 61.72396 40.83125 61.34896Q40.596874 60.97396 40.596874 60.50521Q40.596874 60.09896 40.784374 59.739586Q40.971874 59.38021 41.3 59.145836Q41.55 58.97396 41.971874 58.84896Q42.39375 58.72396 42.89375 58.72396Q43.6125 58.72396 44.159374 58.94271Q44.721874 59.145836 44.9875 59.50521Q45.253124 59.864586 45.346874 60.458336L44.315624 60.59896Q44.253124 60.13021 43.909374 59.864586Q43.58125 59.583336 42.95625 59.583336Q42.2375 59.583336 41.925 59.833336Q41.6125 60.06771 41.6125 60.395836Q41.6125 60.59896 41.7375 60.75521Q41.878124 60.927086 42.14375 61.03646Q42.3 61.09896 43.08125 61.302086Q44.20625 61.614586 44.64375 61.802086Q45.08125 61.989586 45.33125 62.34896Q45.58125 62.708336 45.58125 63.25521Q45.58125 63.78646 45.26875 64.25521Q44.971874 64.708336 44.39375 64.97396Q43.815624 65.22396 43.08125 65.22396Q41.8625 65.22396 41.221874 64.72396Q40.596874 64.208336 40.425 63.22396ZM50.925 65.083336L50.925 64.16146Q50.190624 65.22396 48.940624 65.22396Q48.39375 65.22396 47.909374 65.020836Q47.440624 64.802086 47.20625 64.489586Q46.971874 64.16146 46.878124 63.69271Q46.815624 63.395836 46.815624 62.708336L46.815624 58.864586L47.878124 58.864586L47.878124 62.31771Q47.878124 63.13021 47.940624 63.427086Q48.034374 63.833336 48.346874 64.083336Q48.675 64.31771 49.159374 64.31771Q49.628124 64.31771 50.034374 64.083336Q50.45625 63.833336 50.628124 63.41146Q50.815624 62.989586 50.815624 62.19271L50.815624 58.864586L51.8625 58.864586L51.8625 65.083336L50.925 65.083336ZM53.83125 65.083336L53.83125 58.864586L54.784374 58.864586L54.784374 59.802086Q55.14375 59.145836 55.440624 58.94271Q55.753124 58.72396 56.128124 58.72396Q56.659374 58.72396 57.20625 59.052086L56.846874 60.03646Q56.45625 59.802086 56.08125 59.802086Q55.721874 59.802086 55.440624 60.020836Q55.175 60.22396 55.065624 60.59896Q54.878124 61.16146 54.878124 61.81771L54.878124 65.083336L53.83125 65.083336ZM62.096874 63.083336L63.190624 63.208336Q62.940624 64.16146 62.2375 64.69271Q61.534374 65.22396 60.45625 65.22396Q59.096874 65.22396 58.284374 64.38021Q57.4875 63.53646 57.4875 62.020836Q57.4875 60.458336 58.3 59.59896Q59.1125 58.72396 60.39375 58.72396Q61.64375 58.72396 62.425 59.56771Q63.221874 60.41146 63.221874 61.958336Q63.221874 62.052086 63.221874 62.239586L58.58125 62.239586Q58.64375 63.270836 59.159374 63.81771Q59.675 64.34896 60.45625 64.34896Q61.034374 64.34896 61.440624 64.052086Q61.8625 63.739586 62.096874 63.083336ZM58.64375 61.38021L62.1125 61.38021Q62.05 60.583336 61.721874 60.19271Q61.20625 59.583336 60.409374 59.583336Q59.675 59.583336 59.175 60.06771Q58.690624 60.552086 58.64375 61.38021Z" fill-rule="nonzero"/><path fill="#9e9e9e" d="M22.51875 82.083336L21.471874 82.083336L21.471874 75.364586Q21.08125 75.72396 20.45625 76.09896Q19.846874 76.458336 19.3625 76.63021L19.3625 75.614586Q20.2375 75.19271 20.89375 74.614586Q21.565624 74.020836 21.846874 73.458336L22.51875 73.458336L22.51875 82.083336ZM26.14375 82.083336L26.14375 80.88021L27.346874 80.88021L27.346874 82.083336L26.14375 82.083336ZM28.6125 74.614586L28.6125 73.59896L34.175 73.59896L34.175 74.427086Q33.3625 75.302086 32.55 76.75521Q31.753124 78.19271 31.315624 79.72396Q30.9875 80.802086 30.909374 82.083336L29.815624 82.083336Q29.83125 81.06771 30.20625 79.63021Q30.596874 78.19271 31.3 76.864586Q32.01875 75.53646 32.83125 74.614586L28.6125 74.614586ZM35.753124 75.552086Q35.753124 74.63021 36.20625 73.989586Q36.675 73.34896 37.55 73.34896Q38.3625 73.34896 38.89375 73.927086Q39.425 74.50521 39.425 75.614586Q39.425 76.708336 38.878124 77.302086Q38.346874 77.88021 37.565624 77.88021Q36.784374 77.88021 36.26875 77.302086Q35.753124 76.72396 35.753124 75.552086ZM37.58125 74.06771Q37.190624 74.06771 36.925 74.41146Q36.675 74.75521 36.675 75.66146Q36.675 76.489586 36.925 76.833336Q37.190624 77.16146 37.58125 77.16146Q37.9875 77.16146 38.2375 76.81771Q38.503124 76.47396 38.503124 75.583336Q38.503124 74.739586 38.2375 74.41146Q37.971874 74.06771 37.58125 74.06771ZM37.58125 82.395836L42.284374 73.34896L43.14375 73.34896L38.45625 82.395836L37.58125 82.395836ZM41.3 80.06771Q41.3 79.145836 41.753124 78.50521Q42.221874 77.864586 43.1125 77.864586Q43.925 77.864586 44.45625 78.44271Q44.9875 79.00521 44.9875 80.13021Q44.9875 81.22396 44.440624 81.81771Q43.909374 82.395836 43.1125 82.395836Q42.346874 82.395836 41.815624 81.81771Q41.3 81.239586 41.3 80.06771ZM43.14375 78.583336Q42.7375 78.583336 42.471874 78.927086Q42.221874 79.270836 42.221874 80.177086Q42.221874 80.989586 42.4875 81.333336Q42.753124 81.677086 43.14375 81.677086Q43.534374 81.677086 43.8 81.333336Q44.065624 80.989586 44.065624 80.083336Q44.065624 79.25521 43.8 78.927086Q43.534374 78.583336 43.14375 78.583336Z" fill-rule="nonzero"/><path stroke="#757575" stroke-width="1.0" stroke-linecap="butt" d="M18.05 69.583336L141.56667 69.583336L284.49988 61.510136" fill-rule="nonzero"/><path fill="#9e9e9e" d="M286.49988 61.510136C286.49988 60.405567 285.60446 59.510136 284.49988 59.510136C283.39532 59.510136 282.49988 60.405567 282.49988 61.510136C282.49988 62.614704 283.39532 63.510136 284.49988 63.510136C285.60446 63.510136 286.49988 62.614704 286.49988 61.510136" fill-rule="nonzero"/><path fill="#1a1a1a" d="M18.971874 96.083336L18.971874 87.489586L20.128124 87.489586L24.64375 94.239586L24.64375 87.489586L25.7375 87.489586L25.7375 96.083336L24.565624 96.083336L20.05 89.333336L20.05 96.083336L18.971874 96.083336ZM27.45625 92.97396Q27.45625 91.239586 28.409374 90.41146Q29.20625 89.72396 30.3625 89.72396Q31.64375 89.72396 32.45625 90.56771Q33.284374 91.395836 33.284374 92.88021Q33.284374 94.083336 32.925 94.770836Q32.565624 95.458336 31.8625 95.84896Q31.175 96.22396 30.3625 96.22396Q29.065624 96.22396 28.253124 95.395836Q27.45625 94.552086 27.45625 92.97396ZM28.534374 92.97396Q28.534374 94.16146 29.05 94.75521Q29.58125 95.34896 30.3625 95.34896Q31.159374 95.34896 31.675 94.75521Q32.190624 94.16146 32.190624 92.94271Q32.190624 91.78646 31.659374 91.19271Q31.14375 90.59896 30.3625 90.59896Q29.58125 90.59896 29.05 91.19271Q28.534374 91.770836 28.534374 92.97396ZM35.1125 96.083336L35.1125 94.88021L36.315624 94.88021L36.315624 96.083336Q36.315624 96.739586 36.08125 97.145836Q35.846874 97.56771 35.346874 97.78646L35.05 97.333336Q35.378124 97.19271 35.534374 96.895836Q35.690624 96.614586 35.721874 96.083336L35.1125 96.083336ZM40.846874 96.083336L40.846874 89.864586L41.784374 89.864586L41.784374 90.739586Q42.08125 90.270836 42.565624 90.00521Q43.05 89.72396 43.675 89.72396Q44.3625 89.72396 44.8 90.00521Q45.253124 90.28646 45.425 90.802086Q46.175 89.72396 47.346874 89.72396Q48.284374 89.72396 48.76875 90.239586Q49.26875 90.739586 49.26875 91.81771L49.26875 96.083336L48.221874 96.083336L48.221874 92.16146Q48.221874 91.53646 48.1125 91.25521Q48.01875 90.97396 47.753124 90.802086Q47.4875 90.63021 47.1125 90.63021Q46.45625 90.63021 46.01875 91.06771Q45.596874 91.50521 45.596874 92.47396L45.596874 96.083336L44.534374 96.083336L44.534374 92.03646Q44.534374 91.333336 44.26875 90.989586Q44.01875 90.63021 43.440624 90.63021Q42.9875 90.63021 42.6125 90.864586Q42.2375 91.09896 42.065624 91.552086Q41.89375 92.00521 41.89375 92.84896L41.89375 96.083336L40.846874 96.083336ZM50.8 98.47396L50.675 97.489586Q51.01875 97.583336 51.284374 97.583336Q51.628124 97.583336 51.83125 97.458336Q52.05 97.34896 52.190624 97.145836Q52.284374 96.97396 52.51875 96.34896Q52.534374 96.270836 52.6125 96.09896L50.2375 89.864586L51.378124 89.864586L52.675 93.458336Q52.925 94.145836 53.128124 94.91146Q53.315624 94.177086 53.565624 93.489586L54.89375 89.864586L55.940624 89.864586L53.58125 96.19271Q53.190624 97.208336 52.9875 97.59896Q52.70625 98.13021 52.33125 98.364586Q51.971874 98.614586 51.471874 98.614586Q51.175 98.614586 50.8 98.47396ZM63.909374 93.802086L64.94063 93.94271Q64.76875 95.00521 64.06563 95.614586Q63.3625 96.22396 62.346874 96.22396Q61.065624 96.22396 60.284374 95.395836Q59.51875 94.552086 59.51875 92.989586Q59.51875 91.989586 59.846874 91.239586Q60.190624 90.47396 60.8625 90.09896Q61.55 89.72396 62.3625 89.72396Q63.3625 89.72396 64.00313 90.239586Q64.65938 90.739586 64.84688 91.69271L63.815624 91.84896Q63.675 91.22396 63.3 90.91146Q62.925 90.583336 62.39375 90.583336Q61.596874 90.583336 61.096874 91.16146Q60.596874 91.72396 60.596874 92.958336Q60.596874 94.22396 61.08125 94.78646Q61.565624 95.34896 62.33125 95.34896Q62.95625 95.34896 63.3625 94.97396Q63.784374 94.59896 63.909374 93.802086ZM65.45625 92.97396Q65.45625 91.239586 66.40938 90.41146Q67.20625 89.72396 68.3625 89.72396Q69.64375 89.72396 70.45625 90.56771Q71.28438 91.395836 71.28438 92.88021Q71.28438 94.083336 70.925 94.770836Q70.56563 95.458336 69.8625 95.84896Q69.175 96.22396 68.3625 96.22396Q67.06563 96.22396 66.25313 95.395836Q65.45625 94.552086 65.45625 92.97396ZM66.53438 92.97396Q66.53438 94.16146 67.05 94.75521Q67.58125 95.34896 68.3625 95.34896Q69.15938 95.34896 69.675 94.75521Q70.19063 94.16146 70.19063 92.94271Q70.19063 91.78646 69.65938 91.19271Q69.14375 90.59896 68.3625 90.59896Q67.58125 90.59896 67.05 91.19271Q66.53438 91.770836 66.53438 92.97396ZM72.84688 96.083336L72.84688 89.864586L73.78438 89.864586L73.78438 90.739586Q74.08125 90.270836 74.56563 90.00521Q75.05 89.72396 75.675 89.72396Q76.3625 89.72396 76.8 90.00521Q77.25313 90.28646 77.425 90.802086Q78.175 89.72396 79.34688 89.72396Q80.28438 89.72396 80.76875 90.239586Q81.26875 90.739586 81.26875 91.81771L81.26875 96.083336L80.22188 96.083336L80.22188 92.16146Q80.22188 91.53646 80.1125 91.25521Q80.01875 90.97396 79.75313 90.802086Q79.4875 90.63021 79.1125 90.63021Q78.45625 90.63021 78.01875 91.06771Q77.59688 91.50521 77.59688 92.47396L77.59688 96.083336L76.53438 96.083336L76.53438 92.03646Q76.53438 91.333336 76.26875 90.989586Q76.01875 90.63021 75.44063 90.63021Q74.9875 90.63021 74.6125 90.864586Q74.2375 91.09896 74.06563 91.552086Q73.89375 92.00521 73.89375 92.84896L73.89375 96.083336L72.84688 96.083336ZM82.84688 98.47396L82.84688 89.864586L83.8 89.864586L83.8 90.66146Q84.14375 90.19271 84.56563 89.958336Q85.00313 89.72396 85.6125 89.72396Q86.40938 89.72396 87.01875 90.13021Q87.62813 90.53646 87.925 91.28646Q88.2375 92.03646 88.2375 92.927086Q88.2375 93.88021 87.89375 94.645836Q87.56563 95.41146 86.90938 95.81771Q86.25313 96.22396 85.53438 96.22396Q85.00313 96.22396 84.58125 96.00521Q84.15938 95.770836 83.89375 95.44271L83.89375 98.47396L82.84688 98.47396ZM83.8 93.00521Q83.8 94.208336 84.28438 94.78646Q84.76875 95.34896 85.45625 95.34896Q86.15938 95.34896 86.65938 94.75521Q87.15938 94.16146 87.15938 92.91146Q87.15938 91.72396 86.675 91.145836Q86.19063 90.552086 85.50313 90.552086Q84.83125 90.552086 84.31563 91.177086Q83.8 91.802086 83.8 93.00521ZM93.90938 95.31771Q93.31563 95.81771 92.76875 96.020836Q92.2375 96.22396 91.6125 96.22396Q90.58125 96.22396 90.03438 95.72396Q89.4875 95.22396 89.4875 94.44271Q89.4875 93.989586 89.69063 93.614586Q89.89375 93.22396 90.2375 93.00521Q90.58125 92.770836 91.00313 92.66146Q91.3 92.56771 91.94063 92.489586Q93.20625 92.34896 93.81563 92.13021Q93.81563 91.91146 93.81563 91.864586Q93.81563 91.208336 93.51875 90.94271Q93.1125 90.59896 92.31563 90.59896Q91.58125 90.59896 91.22188 90.864586Q90.8625 91.114586 90.69063 91.770836L89.65938 91.63021Q89.8 90.97396 90.12813 90.56771Q90.45625 90.16146 91.06563 89.94271Q91.675 89.72396 92.47188 89.72396Q93.26875 89.72396 93.76875 89.91146Q94.26875 90.09896 94.50313 90.38021Q94.7375 90.66146 94.83125 91.09896Q94.87813 91.364586 94.87813 92.06771L94.87813 93.47396Q94.87813 94.94271 94.94063 95.333336Q95.01875 95.72396 95.22188 96.083336L94.1125 96.083336Q93.95625 95.75521 93.90938 95.31771ZM93.81563 92.958336Q93.2375 93.19271 92.09688 93.364586Q91.44063 93.458336 91.175 93.583336Q90.90938 93.69271 90.75313 93.91146Q90.6125 94.13021 90.6125 94.41146Q90.6125 94.833336 90.925 95.114586Q91.25313 95.395836 91.8625 95.395836Q92.47188 95.395836 92.94063 95.13021Q93.425 94.864586 93.64375 94.395836Q93.81563 94.03646 93.81563 93.34896L93.81563 92.958336ZM96.84688 96.083336L96.84688 89.864586L97.78438 89.864586L97.78438 90.739586Q98.47188 89.72396 99.76875 89.72396Q100.33125 89.72396 100.8 89.927086Q101.28438 90.13021 101.51875 90.458336Q101.75313 90.78646 101.84688 91.22396Q101.89375 91.520836 101.89375 92.25521L101.89375 96.083336L100.84688 96.083336L100.84688 92.302086Q100.84688 91.645836 100.72188 91.333336Q100.59688 91.020836 100.28438 90.833336Q99.97188 90.63021 99.55 90.63021Q98.87813 90.63021 98.37813 91.06771Q97.89375 91.489586 97.89375 92.677086L97.89375 96.083336L96.84688 96.083336ZM103.8 98.47396L103.675 97.489586Q104.01875 97.583336 104.28438 97.583336Q104.62813 97.583336 104.83125 97.458336Q105.05 97.34896 105.19063 97.145836Q105.28438 96.97396 105.51875 96.34896Q105.53438 96.270836 105.6125 96.09896L103.2375 89.864586L104.37813 89.864586L105.675 93.458336Q105.925 94.145836 106.12813 94.91146Q106.31563 94.177086 106.56563 93.489586L107.89375 89.864586L108.94063 89.864586L106.58125 96.19271Q106.19063 97.208336 105.9875 97.59896Q105.70625 98.13021 105.33125 98.364586Q104.97188 98.614586 104.47188 98.614586Q104.175 98.614586 103.8 98.47396ZM116.87813 96.083336L116.87813 95.302086Q116.28438 96.22396 115.14375 96.22396Q114.39375 96.22396 113.76875 95.81771Q113.14375 95.395836 112.8 94.66146Q112.45625 93.927086 112.45625 92.97396Q112.45625 92.052086 112.76875 91.28646Q113.08125 90.520836 113.70625 90.13021Q114.33125 89.72396 115.09688 89.72396Q115.65938 89.72396 116.09688 89.958336Q116.53438 90.19271 116.81563 90.56771L116.81563 87.489586L117.8625 87.489586L117.8625 96.083336L116.87813 96.083336ZM113.55 92.97396Q113.55 94.177086 114.05 94.770836Q114.55 95.34896 115.2375 95.34896Q115.925 95.34896 116.40938 94.78646Q116.89375 94.22396 116.89375 93.06771Q116.89375 91.78646 116.39375 91.19271Q115.90938 90.59896 115.19063 90.59896Q114.4875 90.59896 114.01875 91.177086Q113.55 91.739586 113.55 92.97396ZM119.45625 92.97396Q119.45625 91.239586 120.40938 90.41146Q121.20625 89.72396 122.3625 89.72396Q123.64375 89.72396 124.45625 90.56771Q125.28438 91.395836 125.28438 92.88021Q125.28438 94.083336 124.925 94.770836Q124.56563 95.458336 123.8625 95.84896Q123.175 96.22396 122.3625 96.22396Q121.06563 96.22396 120.25313 95.395836Q119.45625 94.552086 119.45625 92.97396ZM120.53438 92.97396Q120.53438 94.16146 121.05 94.75521Q121.58125 95.34896 122.3625 95.34896Q123.15938 95.34896 123.675 94.75521Q124.19063 94.16146 124.19063 92.94271Q124.19063 91.78646 123.65938 91.19271Q123.14375 90.59896 122.3625 90.59896Q121.58125 90.59896 121.05 91.19271Q120.53438 91.770836 120.53438 92.97396ZM131.09688 94.083336L132.19063 94.208336Q131.94063 95.16146 131.2375 95.69271Q130.53438 96.22396 129.45625 96.22396Q128.09688 96.22396 127.28438 95.38021Q126.4875 94.53646 126.4875 93.020836Q126.4875 91.458336 127.3 90.59896Q128.1125 89.72396 129.39375 89.72396Q130.64375 89.72396 131.425 90.56771Q132.22188 91.41146 132.22188 92.958336Q132.22188 93.052086 132.22188 93.239586L127.58125 93.239586Q127.64375 94.270836 128.15938 94.81771Q128.675 95.34896 129.45625 95.34896Q130.03438 95.34896 130.44063 95.052086Q130.8625 94.739586 131.09688 94.083336ZM127.64375 92.38021L131.1125 92.38021Q131.05 91.583336 130.72188 91.19271Q130.20625 90.583336 129.40938 90.583336Q128.675 90.583336 128.175 91.06771Q127.69063 91.552086 127.64375 92.38021ZM133.425 94.22396L134.45625 94.06771Q134.55 94.69271 134.94063 95.020836Q135.34688 95.34896 136.08125 95.34896Q136.8 95.34896 137.14375 95.06771Q137.50313 94.770836 137.50313 94.364586Q137.50313 94.00521 137.19063 93.802086Q136.97188 93.66146 136.1125 93.44271Q134.95625 93.145836 134.50313 92.94271Q134.06563 92.72396 133.83125 92.34896Q133.59688 91.97396 133.59688 91.50521Q133.59688 91.09896 133.78438 90.739586Q133.97188 90.38021 134.3 90.145836Q134.55 89.97396 134.97188 89.84896Q135.39375 89.72396 135.89375 89.72396Q136.6125 89.72396 137.15938 89.94271Q137.72188 90.145836 137.9875 90.50521Q138.25313 90.864586 138.34688 91.458336L137.31563 91.59896Q137.25313 91.13021 136.90938 90.864586Q136.58125 90.583336 135.95625 90.583336Q135.2375 90.583336 134.925 90.833336Q134.6125 91.06771 134.6125 91.395836Q134.6125 91.59896 134.7375 91.75521Q134.87813 91.927086 135.14375 92.03646Q135.3 92.09896 136.08125 92.302086Q137.20625 92.614586 137.64375 92.802086Q138.08125 92.989586 138.33125 93.34896Q138.58125 93.708336 138.58125 94.25521Q138.58125 94.78646 138.26875 95.25521Q137.97188 95.708336 137.39375 95.97396Q136.81563 96.22396 136.08125 96.22396Q134.8625 96.22396 134.22188 95.72396Q133.59688 95.208336 133.425 94.22396Z" fill-rule="nonzero"/><path fill="#9e9e9e" d="M18.55 110.833336L19.659374 110.739586Q19.784374 111.552086 20.221874 111.958336Q20.675 112.364586 21.315624 112.364586Q22.065624 112.364586 22.596874 111.78646Q23.128124 111.208336 23.128124 110.270836Q23.128124 109.364586 22.6125 108.84896Q22.1125 108.31771 21.284374 108.31771Q20.784374 108.31771 20.3625 108.552086Q19.95625 108.78646 19.721874 109.145836L18.7375 109.020836L19.565624 104.614586L23.846874 104.614586L23.846874 105.614586L20.409374 105.614586L19.95625 107.927086Q20.721874 107.38021 21.565624 107.38021Q22.690624 107.38021 23.45625 108.16146Q24.2375 108.94271 24.2375 110.177086Q24.2375 111.333336 23.565624 112.19271Q22.7375 113.22396 21.315624 113.22396Q20.14375 113.22396 19.39375 112.56771Q18.659374 111.91146 18.55 110.833336ZM26.14375 113.083336L26.14375 111.88021L27.346874 111.88021L27.346874 113.083336L26.14375 113.083336ZM32.51875 113.083336L31.471874 113.083336L31.471874 106.364586Q31.08125 106.72396 30.45625 107.09896Q29.846874 107.458336 29.3625 107.63021L29.3625 106.614586Q30.2375 106.19271 30.89375 105.614586Q31.565624 105.020836 31.846874 104.458336L32.51875 104.458336L32.51875 113.083336ZM35.753124 106.552086Q35.753124 105.63021 36.20625 104.989586Q36.675 104.34896 37.55 104.34896Q38.3625 104.34896 38.89375 104.927086Q39.425 105.50521 39.425 106.614586Q39.425 107.708336 38.878124 108.302086Q38.346874 108.88021 37.565624 108.88021Q36.784374 108.88021 36.26875 108.302086Q35.753124 107.72396 35.753124 106.552086ZM37.58125 105.06771Q37.190624 105.06771 36.925 105.41146Q36.675 105.75521 36.675 106.66146Q36.675 107.489586 36.925 107.833336Q37.190624 108.16146 37.58125 108.16146Q37.9875 108.16146 38.2375 107.81771Q38.503124 107.47396 38.503124 106.583336Q38.503124 105.739586 38.2375 105.41146Q37.971874 105.06771 37.58125 105.06771ZM37.58125 113.395836L42.284374 104.34896L43.14375 104.34896L38.45625 113.395836L37.58125 113.395836ZM41.3 111.06771Q41.3 110.145836 41.753124 109.50521Q42.221874 108.864586 43.1125 108.864586Q43.925 108.864586 44.45625 109.44271Q44.9875 110.00521 44.9875 111.13021Q44.9875 112.22396 44.440624 112.81771Q43.909374 113.395836 43.1125 113.395836Q42.346874 113.395836 41.815624 112.81771Q41.3 112.239586 41.3 111.06771ZM43.14375 109.583336Q42.7375 109.583336 42.471874 109.927086Q42.221874 110.270836 42.221874 111.177086Q42.221874 111.989586 42.4875 112.333336Q42.753124 112.677086 43.14375 112.677086Q43.534374 112.677086 43.8 112.333336Q44.065624 111.989586 44.065624 111.083336Q44.065624 110.25521 43.8 109.927086Q43.534374 109.583336 43.14375 109.583336Z" fill-rule="nonzero"/><path stroke="#757575" stroke-width="1.0" stroke-linecap="butt" d="M18.05 100.583336L141.56667 100.583336L255.30434 66.30294" fill-rule="nonzero"/><path fill="#9e9e9e" d="M257.30432 66.30294C257.30432 65.19837 256.4089 64.30294 255.30434 64.30294C254.19977 64.30294 253.30434 65.19837 253.30434 66.30294C253.30434 67.40751 254.19977 68.30294 255.30434 68.30294C256.4089 68.30294 257.30432 67.40751 257.30432 66.30294" fill-rule="nonzero"/><path fill="#1a1a1a" d="M21.39375 127.083336L21.39375 123.44271L18.08125 118.489586L19.471874 118.489586L21.159374 121.083336Q21.628124 121.802086 22.034374 122.53646Q22.425 121.864586 22.971874 121.020836L24.64375 118.489586L25.95625 118.489586L22.534374 123.44271L22.534374 127.083336L21.39375 127.083336ZM31.096874 125.083336L32.190624 125.208336Q31.940624 126.16146 31.2375 126.69271Q30.534374 127.22396 29.45625 127.22396Q28.096874 127.22396 27.284374 126.38021Q26.4875 125.53646 26.4875 124.020836Q26.4875 122.458336 27.3 121.59896Q28.1125 120.72396 29.39375 120.72396Q30.64375 120.72396 31.425 121.56771Q32.221874 122.41146 32.221874 123.958336Q32.221874 124.052086 32.221874 124.239586L27.58125 124.239586Q27.64375 125.270836 28.159374 125.81771Q28.675 126.34896 29.45625 126.34896Q30.034374 126.34896 30.440624 126.052086Q30.8625 125.739586 31.096874 125.083336ZM27.64375 123.38021L31.1125 123.38021Q31.05 122.583336 30.721874 122.19271Q30.20625 121.583336 29.409374 121.583336Q28.675 121.583336 28.175 122.06771Q27.690624 122.552086 27.64375 123.38021ZM33.425 125.22396L34.45625 125.06771Q34.55 125.69271 34.940624 126.020836Q35.346874 126.34896 36.08125 126.34896Q36.8 126.34896 37.14375 126.06771Q37.503124 125.770836 37.503124 125.364586Q37.503124 125.00521 37.190624 124.802086Q36.971874 124.66146 36.1125 124.44271Q34.95625 124.145836 34.503124 123.94271Q34.065624 123.72396 33.83125 123.34896Q33.596874 122.97396 33.596874 122.50521Q33.596874 122.09896 33.784374 121.739586Q33.971874 121.38021 34.3 121.145836Q34.55 120.97396 34.971874 120.84896Q35.39375 120.72396 35.89375 120.72396Q36.6125 120.72396 37.159374 120.94271Q37.721874 121.145836 37.9875 121.50521Q38.253124 121.864586 38.346874 122.458336L37.315624 122.59896Q37.253124 122.13021 36.909374 121.864586Q36.58125 121.583336 35.95625 121.583336Q35.2375 121.583336 34.925 121.833336Q34.6125 122.06771 34.6125 122.395836Q34.6125 122.59896 34.7375 122.75521Q34.878124 122.927086 35.14375 123.03646Q35.3 123.09896 36.08125 123.302086Q37.20625 123.614586 37.64375 123.802086Q38.08125 123.989586 38.33125 124.34896Q38.58125 124.708336 38.58125 125.25521Q38.58125 125.78646 38.26875 126.25521Q37.971874 126.708336 37.39375 126.97396Q36.815624 127.22396 36.08125 127.22396Q34.8625 127.22396 34.221874 126.72396Q33.596874 126.208336 33.425 125.22396ZM40.1125 127.083336L40.1125 125.88021L41.315624 125.88021L41.315624 127.083336Q41.315624 127.739586 41.08125 128.14584Q40.846874 128.56772 40.346874 128.78647L40.05 128.33334Q40.378124 128.19272 40.534374 127.895836Q40.690624 127.614586 40.721874 127.083336L40.1125 127.083336ZM46.096874 127.083336L46.096874 121.677086L45.159374 121.677086L45.159374 120.864586L46.096874 120.864586L46.096874 120.19271Q46.096874 119.56771 46.20625 119.270836Q46.3625 118.84896 46.7375 118.59896Q47.128124 118.34896 47.815624 118.34896Q48.26875 118.34896 48.8 118.458336L48.64375 119.364586Q48.315624 119.31771 48.01875 119.31771Q47.534374 119.31771 47.33125 119.520836Q47.14375 119.72396 47.14375 120.28646L47.14375 120.864586L48.3625 120.864586L48.3625 121.677086L47.14375 121.677086L47.14375 127.083336L46.096874 127.083336ZM52.925 127.083336L52.925 126.16146Q52.190624 127.22396 50.940624 127.22396Q50.39375 127.22396 49.909374 127.020836Q49.440624 126.802086 49.20625 126.489586Q48.971874 126.16146 48.878124 125.69271Q48.815624 125.395836 48.815624 124.708336L48.815624 120.864586L49.878124 120.864586L49.878124 124.31771Q49.878124 125.13021 49.940624 125.427086Q50.034374 125.833336 50.346874 126.083336Q50.675 126.31771 51.159374 126.31771Q51.628124 126.31771 52.034374 126.083336Q52.45625 125.833336 52.628124 125.41146Q52.815624 124.989586 52.815624 124.19271L52.815624 120.864586L53.8625 120.864586L53.8625 127.083336L52.925 127.083336ZM55.815624 127.083336L55.815624 118.489586L56.878124 118.489586L56.878124 127.083336L55.815624 127.083336ZM58.815624 127.083336L58.815624 118.489586L59.878124 118.489586L59.878124 127.083336L58.815624 127.083336ZM61.425 124.50521L61.425 123.44271L64.675 123.44271L64.675 124.50521L61.425 124.50521ZM68.14375 126.145836L68.3 127.06771Q67.84688 127.16146 67.50313 127.16146Q66.925 127.16146 66.6125 126.989586Q66.3 126.802086 66.15938 126.50521Q66.03438 126.208336 66.03438 125.25521L66.03438 121.677086L65.26875 121.677086L65.26875 120.864586L66.03438 120.864586L66.03438 119.31771L67.08125 118.69271L67.08125 120.864586L68.14375 120.864586L68.14375 121.677086L67.08125 121.677086L67.08125 125.31771Q67.08125 125.770836 67.12813 125.895836Q67.19063 126.020836 67.31563 126.09896Q67.44063 126.177086 67.675 126.177086Q67.8625 126.177086 68.14375 126.145836ZM68.84688 119.708336L68.84688 118.489586L69.90938 118.489586L69.90938 119.708336L68.84688 119.708336ZM68.84688 127.083336L68.84688 120.864586L69.90938 120.864586L69.90938 127.083336L68.84688 127.083336ZM71.84688 127.083336L71.84688 120.864586L72.78438 120.864586L72.78438 121.739586Q73.08125 121.270836 73.56563 121.00521Q74.05 120.72396 74.675 120.72396Q75.3625 120.72396 75.8 121.00521Q76.25313 121.28646 76.425 121.802086Q77.175 120.72396 78.34688 120.72396Q79.28438 120.72396 79.76875 121.239586Q80.26875 121.739586 80.26875 122.81771L80.26875 127.083336L79.22188 127.083336L79.22188 123.16146Q79.22188 122.53646 79.1125 122.25521Q79.01875 121.97396 78.75313 121.802086Q78.4875 121.63021 78.1125 121.63021Q77.45625 121.63021 77.01875 122.06771Q76.59688 122.50521 76.59688 123.47396L76.59688 127.083336L75.53438 127.083336L75.53438 123.03646Q75.53438 122.333336 75.26875 121.989586Q75.01875 121.63021 74.44063 121.63021Q73.9875 121.63021 73.6125 121.864586Q73.2375 122.09896 73.06563 122.552086Q72.89375 123.00521 72.89375 123.84896L72.89375 127.083336L71.84688 127.083336ZM86.09688 125.083336L87.19063 125.208336Q86.94063 126.16146 86.2375 126.69271Q85.53438 127.22396 84.45625 127.22396Q83.09688 127.22396 82.28438 126.38021Q81.4875 125.53646 81.4875 124.020836Q81.4875 122.458336 82.3 121.59896Q83.1125 120.72396 84.39375 120.72396Q85.64375 120.72396 86.425 121.56771Q87.22188 122.41146 87.22188 123.958336Q87.22188 124.052086 87.22188 124.239586L82.58125 124.239586Q82.64375 125.270836 83.15938 125.81771Q83.675 126.34896 84.45625 126.34896Q85.03438 126.34896 85.44063 126.052086Q85.8625 125.739586 86.09688 125.083336ZM82.64375 123.38021L86.1125 123.38021Q86.05 122.583336 85.72188 122.19271Q85.20625 121.583336 84.40938 121.583336Q83.675 121.583336 83.175 122.06771Q82.69063 122.552086 82.64375 123.38021Z" fill-rule="nonzero"/><path fill="#9e9e9e" d="M22.51875 144.08333L21.471874 144.08333L21.471874 137.36458Q21.08125 137.72395 20.45625 138.09895Q19.846874 138.45833 19.3625 138.6302L19.3625 137.61458Q20.2375 137.1927 20.89375 136.61458Q21.565624 136.02083 21.846874 135.45833L22.51875 135.45833L22.51875 144.08333ZM25.55 141.8177L26.6125 141.67708Q26.784374 142.5677 27.221874 142.97395Q27.659374 143.36458 28.284374 143.36458Q29.034374 143.36458 29.55 142.84895Q30.065624 142.33333 30.065624 141.5677Q30.065624 140.84895 29.58125 140.3802Q29.1125 139.89583 28.378124 139.89583Q28.08125 139.89583 27.628124 140.02083L27.753124 139.08333Q27.8625 139.09895 27.925 139.09895Q28.596874 139.09895 29.128124 138.7552Q29.675 138.39583 29.675 137.66145Q29.675 137.08333 29.284374 136.70833Q28.89375 136.3177 28.26875 136.3177Q27.659374 136.3177 27.2375 136.70833Q26.83125 137.09895 26.721874 137.86458L25.659374 137.67708Q25.846874 136.6302 26.534374 136.05208Q27.221874 135.45833 28.2375 135.45833Q28.940624 135.45833 29.534374 135.77083Q30.128124 136.0677 30.440624 136.58333Q30.753124 137.09895 30.753124 137.6927Q30.753124 138.23958 30.45625 138.70833Q30.159374 139.16145 29.58125 139.42708Q30.33125 139.59895 30.753124 140.16145Q31.175 140.70833 31.175 141.55208Q31.175 142.67708 30.346874 143.45833Q29.534374 144.23958 28.284374 144.23958Q27.159374 144.23958 26.409374 143.5677Q25.659374 142.8802 25.55 141.8177ZM33.14375 144.08333L33.14375 142.8802L34.346874 142.8802L34.346874 144.08333L33.14375 144.08333ZM37.175 139.42708Q36.51875 139.17708 36.190624 138.73958Q35.878124 138.28645 35.878124 137.67708Q35.878124 136.73958 36.55 136.09895Q37.2375 135.45833 38.346874 135.45833Q39.471874 135.45833 40.159374 136.11458Q40.846874 136.77083 40.846874 137.70833Q40.846874 138.30208 40.534374 138.73958Q40.221874 139.17708 39.58125 139.42708Q40.378124 139.67708 40.784374 140.2552Q41.190624 140.83333 41.190624 141.6302Q41.190624 142.72395 40.409374 143.47395Q39.64375 144.22395 38.3625 144.22395Q37.096874 144.22395 36.315624 143.47395Q35.534374 142.72395 35.534374 141.59895Q35.534374 140.7552 35.95625 140.1927Q36.39375 139.6302 37.175 139.42708ZM36.95625 137.6302Q36.95625 138.23958 37.346874 138.6302Q37.753124 139.02083 38.378124 139.02083Q38.9875 139.02083 39.378124 138.64583Q39.76875 138.2552 39.76875 137.6927Q39.76875 137.11458 39.3625 136.72395Q38.95625 136.3177 38.3625 136.3177Q37.753124 136.3177 37.346874 136.70833Q36.95625 137.09895 36.95625 137.6302ZM36.628124 141.59895Q36.628124 142.05208 36.83125 142.47395Q37.05 142.89583 37.471874 143.1302Q37.89375 143.36458 38.378124 143.36458Q39.128124 143.36458 39.6125 142.8802Q40.1125 142.39583 40.1125 141.64583Q40.1125 140.8802 39.6125 140.3802Q39.1125 139.8802 38.346874 139.8802Q37.596874 139.8802 37.1125 140.3802Q36.628124 140.86458 36.628124 141.59895ZM42.753124 137.55208Q42.753124 136.6302 43.20625 135.98958Q43.675 135.34895 44.55 135.34895Q45.3625 135.34895 45.89375 135.92708Q46.425 136.5052 46.425 137.61458Q46.425 138.70833 45.878124 139.30208Q45.346874 139.8802 44.565624 139.8802Q43.784374 139.8802 43.26875 139.30208Q42.753124 138.72395 42.753124 137.55208ZM44.58125 136.0677Q44.190624 136.0677 43.925 136.41145Q43.675 136.7552 43.675 137.66145Q43.675 138.48958 43.925 138.83333Q44.190624 139.16145 44.58125 139.16145Q44.9875 139.16145 45.2375 138.8177Q45.503124 138.47395 45.503124 137.58333Q45.503124 136.73958 45.2375 136.41145Q44.971874 136.0677 44.58125 136.0677ZM44.58125 144.39583L49.284374 135.34895L50.14375 135.34895L45.45625 144.39583L44.58125 144.39583ZM48.3 142.0677Q48.3 141.14583 48.753124 140.5052Q49.221874 139.86458 50.1125 139.86458Q50.925 139.86458 51.45625 140.4427Q51.9875 141.0052 51.9875 142.1302Q51.9875 143.22395 51.440624 143.8177Q50.909374 144.39583 50.1125 144.39583Q49.346874 144.39583 48.815624 143.8177Q48.3 143.23958 48.3 142.0677ZM50.14375 140.58333Q49.7375 140.58333 49.471874 140.92708Q49.221874 141.27083 49.221874 142.17708Q49.221874 142.98958 49.4875 143.33333Q49.753124 143.67708 50.14375 143.67708Q50.534374 143.67708 50.8 143.33333Q51.065624 142.98958 51.065624 142.08333Q51.065624 141.2552 50.8 140.92708Q50.534374 140.58333 50.14375 140.58333Z" fill-rule="nonzero"/><path stroke="#757575" stroke-width="1.0" stroke-linecap="butt" d="M18.05 131.58333L141.56667 131.58333L187.59349 109.48676" fill-rule="nonzero"/><path fill="#9e9e9e" d="M189.59349 109.48676C189.59349 108.382195 188.69807 107.48676 187.59349 107.48676C186.48892 107.48676 185.59349 108.382195 185.59349 109.48676C185.59349 110.59133 186.48892 111.48676 187.59349 111.48676C188.69807 111.48676 189.59349 110.59133 189.59349 109.48676" fill-rule="nonzero"/><path fill="#1a1a1a" d="M21.39375 265.11636L21.39375 261.47574L18.08125 256.5226L19.471874 256.5226L21.159374 259.11636Q21.628124 259.8351 22.034374 260.5695Q22.425 259.8976 22.971874 259.05386L24.64375 256.5226L25.95625 256.5226L22.534374 261.47574L22.534374 265.11636L21.39375 265.11636ZM31.096874 263.11636L32.190624 263.24136Q31.940624 264.1945 31.2375 264.72574Q30.534374 265.257 29.45625 265.257Q28.096874 265.257 27.284374 264.41324Q26.4875 263.5695 26.4875 262.05386Q26.4875 260.49136 27.3 259.632Q28.1125 258.757 29.39375 258.757Q30.64375 258.757 31.425 259.60074Q32.221874 260.4445 32.221874 261.99136Q32.221874 262.0851 32.221874 262.2726L27.58125 262.2726Q27.64375 263.30386 28.159374 263.85074Q28.675 264.382 29.45625 264.382Q30.034374 264.382 30.440624 264.0851Q30.8625 263.7726 31.096874 263.11636ZM27.64375 261.41324L31.1125 261.41324Q31.05 260.61636 30.721874 260.22574Q30.20625 259.61636 29.409374 259.61636Q28.675 259.61636 28.175 260.10074Q27.690624 260.5851 27.64375 261.41324ZM33.425 263.257L34.45625 263.10074Q34.55 263.72574 34.940624 264.05386Q35.346874 264.382 36.08125 264.382Q36.8 264.382 37.14375 264.10074Q37.503124 263.80386 37.503124 263.3976Q37.503124 263.03824 37.190624 262.8351Q36.971874 262.6945 36.1125 262.47574Q34.95625 262.17886 34.503124 261.97574Q34.065624 261.757 33.83125 261.382Q33.596874 261.007 33.596874 260.53824Q33.596874 260.132 33.784374 259.7726Q33.971874 259.41324 34.3 259.17886Q34.55 259.007 34.971874 258.882Q35.39375 258.757 35.89375 258.757Q36.6125 258.757 37.159374 258.97574Q37.721874 259.17886 37.9875 259.53824Q38.253124 259.8976 38.346874 260.49136L37.315624 260.632Q37.253124 260.16324 36.909374 259.8976Q36.58125 259.61636 35.95625 259.61636Q35.2375 259.61636 34.925 259.86636Q34.6125 260.10074 34.6125 260.42886Q34.6125 260.632 34.7375 260.78824Q34.878124 260.9601 35.14375 261.0695Q35.3 261.132 36.08125 261.3351Q37.20625 261.6476 37.64375 261.8351Q38.08125 262.0226 38.33125 262.382Q38.58125 262.74136 38.58125 263.28824Q38.58125 263.8195 38.26875 264.28824Q37.971874 264.74136 37.39375 265.007Q36.815624 265.257 36.08125 265.257Q34.8625 265.257 34.221874 264.757Q33.596874 264.24136 33.425 263.257ZM40.1125 265.11636L40.1125 263.91324L41.315624 263.91324L41.315624 265.11636Q41.315624 265.7726 41.08125 266.17886Q40.846874 266.60074 40.346874 266.8195L40.05 266.36636Q40.378124 266.22574 40.534374 265.92886Q40.690624 265.6476 40.721874 265.11636L40.1125 265.11636ZM45.846874 267.507L45.846874 258.8976L46.8 258.8976L46.8 259.6945Q47.14375 259.22574 47.565624 258.99136Q48.003124 258.757 48.6125 258.757Q49.409374 258.757 50.01875 259.16324Q50.628124 259.5695 50.925 260.3195Q51.2375 261.0695 51.2375 261.9601Q51.2375 262.91324 50.89375 263.67886Q50.565624 264.4445 49.909374 264.85074Q49.253124 265.257 48.534374 265.257Q48.003124 265.257 47.58125 265.03824Q47.159374 264.80386 46.89375 264.47574L46.89375 267.507L45.846874 267.507ZM46.8 262.03824Q46.8 263.24136 47.284374 263.8195Q47.76875 264.382 48.45625 264.382Q49.159374 264.382 49.659374 263.78824Q50.159374 263.1945 50.159374 261.9445Q50.159374 260.757 49.675 260.17886Q49.190624 259.5851 48.503124 259.5851Q47.83125 259.5851 47.315624 260.2101Q46.8 260.8351 46.8 262.03824ZM56.909374 264.35074Q56.315624 264.85074 55.76875 265.05386Q55.2375 265.257 54.6125 265.257Q53.58125 265.257 53.034374 264.757Q52.4875 264.257 52.4875 263.47574Q52.4875 263.0226 52.690624 262.6476Q52.89375 262.257 53.2375 262.03824Q53.58125 261.80386 54.003124 261.6945Q54.3 261.60074 54.940624 261.5226Q56.20625 261.382 56.815624 261.16324Q56.815624 260.9445 56.815624 260.8976Q56.815624 260.24136 56.51875 259.97574Q56.1125 259.632 55.315624 259.632Q54.58125 259.632 54.221874 259.8976Q53.8625 260.1476 53.690624 260.80386L52.659374 260.66324Q52.8 260.007 53.128124 259.60074Q53.45625 259.1945 54.065624 258.97574Q54.675 258.757 55.471874 258.757Q56.26875 258.757 56.76875 258.9445Q57.26875 259.132 57.503124 259.41324Q57.7375 259.6945 57.83125 260.132Q57.878124 260.3976 57.878124 261.10074L57.878124 262.507Q57.878124 263.97574 57.940624 264.36636Q58.01875 264.757 58.221874 265.11636L57.1125 265.11636Q56.95625 264.78824 56.909374 264.35074ZM56.815624 261.99136Q56.2375 262.22574 55.096874 262.3976Q54.440624 262.49136 54.175 262.61636Q53.909374 262.72574 53.753124 262.9445Q53.6125 263.16324 53.6125 263.4445Q53.6125 263.86636 53.925 264.1476Q54.253124 264.42886 54.8625 264.42886Q55.471874 264.42886 55.940624 264.16324Q56.425 263.8976 56.64375 263.42886Q56.815624 263.0695 56.815624 262.382L56.815624 261.99136ZM59.83125 265.11636L59.83125 258.8976L60.784374 258.8976L60.784374 259.8351Q61.14375 259.17886 61.440624 258.97574Q61.753124 258.757 62.128124 258.757Q62.659374 258.757 63.20625 259.0851L62.846874 260.0695Q62.45625 259.8351 62.08125 259.8351Q61.721874 259.8351 61.440624 260.05386Q61.175 260.257 61.065624 260.632Q60.878124 261.1945 60.878124 261.85074L60.878124 265.11636L59.83125 265.11636ZM66.14375 264.17886L66.3 265.10074Q65.84688 265.1945 65.50313 265.1945Q64.925 265.1945 64.6125 265.0226Q64.3 264.8351 64.15938 264.53824Q64.03438 264.24136 64.03438 263.28824L64.03438 259.7101L63.26875 259.7101L63.26875 258.8976L64.03438 258.8976L64.03438 257.35074L65.08125 256.72574L65.08125 258.8976L66.14375 258.8976L66.14375 259.7101L65.08125 259.7101L65.08125 263.35074Q65.08125 263.80386 65.12813 263.92886Q65.19063 264.05386 65.31563 264.132Q65.44063 264.2101 65.675 264.2101Q65.8625 264.2101 66.14375 264.17886ZM66.425 262.53824L66.425 261.47574L69.675 261.47574L69.675 262.53824L66.425 262.53824ZM73.14375 264.17886L73.3 265.10074Q72.84688 265.1945 72.50313 265.1945Q71.925 265.1945 71.6125 265.0226Q71.3 264.8351 71.15938 264.53824Q71.03438 264.24136 71.03438 263.28824L71.03438 259.7101L70.26875 259.7101L70.26875 258.8976L71.03438 258.8976L71.03438 257.35074L72.08125 256.72574L72.08125 258.8976L73.14375 258.8976L73.14375 259.7101L72.08125 259.7101L72.08125 263.35074Q72.08125 263.80386 72.12813 263.92886Q72.19063 264.05386 72.31563 264.132Q72.44063 264.2101 72.675 264.2101Q72.8625 264.2101 73.14375 264.17886ZM73.84688 257.74136L73.84688 256.5226L74.90938 256.5226L74.90938 257.74136L73.84688 257.74136ZM73.84688 265.11636L73.84688 258.8976L74.90938 258.8976L74.90938 265.11636L73.84688 265.11636ZM76.84688 265.11636L76.84688 258.8976L77.78438 258.8976L77.78438 259.7726Q78.08125 259.30386 78.56563 259.03824Q79.05 258.757 79.675 258.757Q80.3625 258.757 80.8 259.03824Q81.25313 259.3195 81.425 259.8351Q82.175 258.757 83.34688 258.757Q84.28438 258.757 84.76875 259.2726Q85.26875 259.7726 85.26875 260.85074L85.26875 265.11636L84.22188 265.11636L84.22188 261.1945Q84.22188 260.5695 84.1125 260.28824Q84.01875 260.007 83.75313 259.8351Q83.4875 259.66324 83.1125 259.66324Q82.45625 259.66324 82.01875 260.10074Q81.59688 260.53824 81.59688 261.507L81.59688 265.11636L80.53438 265.11636L80.53438 261.0695Q80.53438 260.36636 80.26875 260.0226Q80.01875 259.66324 79.44063 259.66324Q78.9875 259.66324 78.6125 259.8976Q78.2375 260.132 78.06563 260.5851Q77.89375 261.03824 77.89375 261.882L77.89375 265.11636L76.84688 265.11636ZM91.09688 263.11636L92.19063 263.24136Q91.94063 264.1945 91.2375 264.72574Q90.53438 265.257 89.45625 265.257Q88.09688 265.257 87.28438 264.41324Q86.4875 263.5695 86.4875 262.05386Q86.4875 260.49136 87.3 259.632Q88.1125 258.757 89.39375 258.757Q90.64375 258.757 91.425 259.60074Q92.22188 260.4445 92.22188 261.99136Q92.22188 262.0851 92.22188 262.2726L87.58125 262.2726Q87.64375 263.30386 88.15938 263.85074Q88.675 264.382 89.45625 264.382Q90.03438 264.382 90.44063 264.0851Q90.8625 263.7726 91.09688 263.11636ZM87.64375 261.41324L91.1125 261.41324Q91.05 260.61636 90.72188 260.22574Q90.20625 259.61636 89.40938 259.61636Q88.675 259.61636 88.175 260.10074Q87.69063 260.5851 87.64375 261.41324Z" fill-rule="nonzero"/><path fill="#9e9e9e" d="M24.096874 281.10074L24.096874 282.11636L18.409374 282.11636Q18.409374 281.74136 18.534374 281.382Q18.753124 280.80386 19.221874 280.24136Q19.70625 279.67886 20.6125 278.9445Q22.01875 277.78824 22.503124 277.11636Q23.003124 276.4445 23.003124 275.85074Q23.003124 275.22574 22.55 274.80386Q22.096874 274.36636 21.378124 274.36636Q20.6125 274.36636 20.159374 274.8195Q19.70625 275.2726 19.690624 276.0851L18.6125 275.97574Q18.721874 274.757 19.440624 274.132Q20.175 273.49136 21.409374 273.49136Q22.64375 273.49136 23.3625 274.17886Q24.08125 274.86636 24.08125 275.882Q24.08125 276.3976 23.8625 276.8976Q23.659374 277.382 23.159374 277.9445Q22.675 278.49136 21.55 279.4445Q20.596874 280.24136 20.315624 280.53824Q20.05 280.8195 19.878124 281.10074L24.096874 281.10074ZM31.01875 275.632L29.971874 275.7101Q29.83125 275.0851 29.58125 274.80386Q29.14375 274.35074 28.51875 274.35074Q28.01875 274.35074 27.628124 274.632Q27.14375 275.007 26.846874 275.7101Q26.565624 276.3976 26.55 277.67886Q26.925 277.10074 27.471874 276.8195Q28.034374 276.53824 28.64375 276.53824Q29.690624 276.53824 30.425 277.3195Q31.175 278.10074 31.175 279.3195Q31.175 280.132 30.815624 280.8351Q30.471874 281.5226 29.8625 281.8976Q29.253124 282.257 28.4875 282.257Q27.159374 282.257 26.33125 281.28824Q25.503124 280.3195 25.503124 278.10074Q25.503124 275.60074 26.425 274.47574Q27.221874 273.49136 28.58125 273.49136Q29.596874 273.49136 30.2375 274.0695Q30.89375 274.632 31.01875 275.632ZM26.721874 279.3351Q26.721874 279.882 26.940624 280.382Q27.175 280.86636 27.58125 281.132Q28.003124 281.3976 28.471874 281.3976Q29.128124 281.3976 29.6125 280.86636Q30.096874 280.3195 30.096874 279.3976Q30.096874 278.507 29.6125 277.99136Q29.14375 277.47574 28.425 277.47574Q27.70625 277.47574 27.20625 277.99136Q26.721874 278.507 26.721874 279.3351ZM33.14375 282.11636L33.14375 280.91324L34.346874 280.91324L34.346874 282.11636L33.14375 282.11636ZM35.55 277.882Q35.55 276.35074 35.8625 275.42886Q36.175 274.49136 36.784374 273.99136Q37.409374 273.49136 38.346874 273.49136Q39.034374 273.49136 39.55 273.7726Q40.08125 274.05386 40.425 274.5851Q40.76875 275.10074 40.95625 275.85074Q41.14375 276.60074 41.14375 277.882Q41.14375 279.3976 40.83125 280.3195Q40.534374 281.24136 39.909374 281.757Q39.3 282.257 38.346874 282.257Q37.1125 282.257 36.39375 281.36636Q35.55 280.30386 35.55 277.882ZM36.628124 277.882Q36.628124 279.99136 37.128124 280.6945Q37.628124 281.3976 38.346874 281.3976Q39.08125 281.3976 39.565624 280.6945Q40.065624 279.99136 40.065624 277.882Q40.065624 275.757 39.565624 275.0695Q39.08125 274.36636 38.33125 274.36636Q37.6125 274.36636 37.175 274.97574Q36.628124 275.757 36.628124 277.882ZM42.753124 275.5851Q42.753124 274.66324 43.20625 274.0226Q43.675 273.382 44.55 273.382Q45.3625 273.382 45.89375 273.9601Q46.425 274.53824 46.425 275.6476Q46.425 276.74136 45.878124 277.3351Q45.346874 277.91324 44.565624 277.91324Q43.784374 277.91324 43.26875 277.3351Q42.753124 276.757 42.753124 275.5851ZM44.58125 274.10074Q44.190624 274.10074 43.925 274.4445Q43.675 274.78824 43.675 275.6945Q43.675 276.5226 43.925 276.86636Q44.190624 277.1945 44.58125 277.1945Q44.9875 277.1945 45.2375 276.85074Q45.503124 276.507 45.503124 275.61636Q45.503124 274.7726 45.2375 274.4445Q44.971874 274.10074 44.58125 274.10074ZM44.58125 282.42886L49.284374 273.382L50.14375 273.382L45.45625 282.42886L44.58125 282.42886ZM48.3 280.10074Q48.3 279.17886 48.753124 278.53824Q49.221874 277.8976 50.1125 277.8976Q50.925 277.8976 51.45625 278.47574Q51.9875 279.03824 51.9875 280.16324Q51.9875 281.257 51.440624 281.85074Q50.909374 282.42886 50.1125 282.42886Q49.346874 282.42886 48.815624 281.85074Q48.3 281.2726 48.3 280.10074ZM50.14375 278.61636Q49.7375 278.61636 49.471874 278.9601Q49.221874 279.30386 49.221874 280.2101Q49.221874 281.0226 49.4875 281.36636Q49.753124 281.7101 50.14375 281.7101Q50.534374 281.7101 50.8 281.36636Q51.065624 281.0226 51.065624 280.11636Q51.065624 279.28824 50.8 278.9601Q50.534374 278.61636 50.14375 278.61636Z" fill-rule="nonzero"/><path stroke="#757575" stroke-width="1.0" stroke-linecap="butt" d="M18.05 269.61636L141.56667 269.61636L174.64636 269.61636" fill-rule="nonzero"/><path fill="#9e9e9e" d="M176.64636 269.61636C176.64636 268.51178 175.75093 267.61636 174.64636 267.61636C173.5418 267.61636 172.64636 268.51178 172.64636 269.61636C172.64636 270.72092 173.5418 271.61636 174.64636 271.61636C175.75093 271.61636 176.64636 270.72092 176.64636 269.61636" fill-rule="nonzero"/><path fill="#1a1a1a" d="M550.8719 208.25574L550.8719 199.66199L552.02814 199.66199L556.54376 206.41199L556.54376 199.66199L557.6375 199.66199L557.6375 208.25574L556.46564 208.25574L551.95 201.50574L551.95 208.25574L550.8719 208.25574ZM559.35626 205.14636Q559.35626 203.41199 560.3094 202.58386Q561.10626 201.89636 562.2625 201.89636Q563.54376 201.89636 564.35626 202.74011Q565.1844 203.56824 565.1844 205.05261Q565.1844 206.25574 564.825 206.94324Q564.46564 207.63074 563.7625 208.02136Q563.075 208.39636 562.2625 208.39636Q560.96564 208.39636 560.15314 207.56824Q559.35626 206.72449 559.35626 205.14636ZM560.4344 205.14636Q560.4344 206.33386 560.95 206.92761Q561.48126 207.52136 562.2625 207.52136Q563.0594 207.52136 563.575 206.92761Q564.09064 206.33386 564.09064 205.11511Q564.09064 203.95886 563.5594 203.36511Q563.04376 202.77136 562.2625 202.77136Q561.48126 202.77136 560.95 203.36511Q560.4344 203.94324 560.4344 205.14636Z" fill-rule="nonzero"/><path fill="#9e9e9e" d="M531.45 223.00574L532.5594 222.91199Q532.6844 223.72449 533.1219 224.13074Q533.575 224.53699 534.21564 224.53699Q534.96564 224.53699 535.4969 223.95886Q536.02814 223.38074 536.02814 222.44324Q536.02814 221.53699 535.5125 221.02136Q535.0125 220.49011 534.1844 220.49011Q533.6844 220.49011 533.2625 220.72449Q532.85626 220.95886 532.6219 221.31824L531.6375 221.19324L532.46564 216.78699L536.7469 216.78699L536.7469 217.78699L533.3094 217.78699L532.85626 220.09949Q533.6219 219.55261 534.46564 219.55261Q535.59064 219.55261 536.35626 220.33386Q537.1375 221.11511 537.1375 222.34949Q537.1375 223.50574 536.46564 224.36511Q535.6375 225.39636 534.21564 225.39636Q533.04376 225.39636 532.29376 224.74011Q531.5594 224.08386 531.45 223.00574ZM538.45 222.99011L539.5125 222.84949Q539.6844 223.74011 540.1219 224.14636Q540.5594 224.53699 541.1844 224.53699Q541.9344 224.53699 542.45 224.02136Q542.96564 223.50574 542.96564 222.74011Q542.96564 222.02136 542.48126 221.55261Q542.0125 221.06824 541.27814 221.06824Q540.98126 221.06824 540.52814 221.19324L540.65314 220.25574Q540.7625 220.27136 540.825 220.27136Q541.4969 220.27136 542.02814 219.92761Q542.575 219.56824 542.575 218.83386Q542.575 218.25574 542.1844 217.88074Q541.79376 217.49011 541.16876 217.49011Q540.5594 217.49011 540.1375 217.88074Q539.73126 218.27136 539.6219 219.03699L538.5594 218.84949Q538.7469 217.80261 539.4344 217.22449Q540.1219 216.63074 541.1375 216.63074Q541.84064 216.63074 542.4344 216.94324Q543.02814 217.24011 543.34064 217.75574Q543.65314 218.27136 543.65314 218.86511Q543.65314 219.41199 543.35626 219.88074Q543.0594 220.33386 542.48126 220.59949Q543.23126 220.77136 543.65314 221.33386Q544.075 221.88074 544.075 222.72449Q544.075 223.84949 543.2469 224.63074Q542.4344 225.41199 541.1844 225.41199Q540.0594 225.41199 539.3094 224.74011Q538.5594 224.05261 538.45 222.99011ZM546.04376 225.25574L546.04376 224.05261L547.2469 224.05261L547.2469 225.25574L546.04376 225.25574ZM548.45 222.99011L549.5125 222.84949Q549.6844 223.74011 550.1219 224.14636Q550.5594 224.53699 551.1844 224.53699Q551.9344 224.53699 552.45 224.02136Q552.96564 223.50574 552.96564 222.74011Q552.96564 222.02136 552.48126 221.55261Q552.0125 221.06824 551.27814 221.06824Q550.98126 221.06824 550.52814 221.19324L550.65314 220.25574Q550.7625 220.27136 550.825 220.27136Q551.4969 220.27136 552.02814 219.92761Q552.575 219.56824 552.575 218.83386Q552.575 218.25574 552.1844 217.88074Q551.79376 217.49011 551.16876 217.49011Q550.5594 217.49011 550.1375 217.88074Q549.73126 218.27136 549.6219 219.03699L548.5594 218.84949Q548.7469 217.80261 549.4344 217.22449Q550.1219 216.63074 551.1375 216.63074Q551.84064 216.63074 552.4344 216.94324Q553.02814 217.24011 553.34064 217.75574Q553.65314 218.27136 553.65314 218.86511Q553.65314 219.41199 553.35626 219.88074Q553.0594 220.33386 552.48126 220.59949Q553.23126 220.77136 553.65314 221.33386Q554.075 221.88074 554.075 222.72449Q554.075 223.84949 553.2469 224.63074Q552.4344 225.41199 551.1844 225.41199Q550.0594 225.41199 549.3094 224.74011Q548.5594 224.05261 548.45 222.99011ZM555.65314 218.72449Q555.65314 217.80261 556.10626 217.16199Q556.575 216.52136 557.45 216.52136Q558.2625 216.52136 558.79376 217.09949Q559.325 217.67761 559.325 218.78699Q559.325 219.88074 558.77814 220.47449Q558.2469 221.05261 557.46564 221.05261Q556.6844 221.05261 556.16876 220.47449Q555.65314 219.89636 555.65314 218.72449ZM557.48126 217.24011Q557.09064 217.24011 556.825 217.58386Q556.575 217.92761 556.575 218.83386Q556.575 219.66199 556.825 220.00574Q557.09064 220.33386 557.48126 220.33386Q557.8875 220.33386 558.1375 219.99011Q558.40314 219.64636 558.40314 218.75574Q558.40314 217.91199 558.1375 217.58386Q557.8719 217.24011 557.48126 217.24011ZM557.48126 225.56824L562.1844 216.52136L563.04376 216.52136L558.35626 225.56824L557.48126 225.56824ZM561.2 223.24011Q561.2 222.31824 561.65314 221.67761Q562.1219 221.03699 563.0125 221.03699Q563.825 221.03699 564.35626 221.61511Q564.8875 222.17761 564.8875 223.30261Q564.8875 224.39636 564.34064 224.99011Q563.8094 225.56824 563.0125 225.56824Q562.2469 225.56824 561.71564 224.99011Q561.2 224.41199 561.2 223.24011ZM563.04376 221.75574Q562.6375 221.75574 562.3719 222.09949Q562.1219 222.44324 562.1219 223.34949Q562.1219 224.16199 562.3875 224.50574Q562.65314 224.84949 563.04376 224.84949Q563.4344 224.84949 563.7 224.50574Q563.96564 224.16199 563.96564 223.25574Q563.96564 222.42761 563.7 222.09949Q563.4344 221.75574 563.04376 221.75574Z" fill-rule="nonzero"/><path stroke="#757575" stroke-width="1.0" stroke-linecap="butt" d="M565.95 212.75574L442.43332 212.75574L428.47083 212.75574" fill-rule="nonzero"/><path fill="#9e9e9e" d="M430.47083 212.75574C430.47083 211.65117 429.5754 210.75574 428.47083 210.75574C427.36627 210.75574 426.47083 211.65117 426.47083 212.75574C426.47083 213.8603 427.36627 214.75574 428.47083 214.75574C429.5754 214.75574 430.47083 213.8603 430.47083 212.75574" fill-rule="nonzero"/><path fill="#757575" d="M19.596874 37.05L19.596874 22.7375L24.51875 22.7375Q26.190624 22.7375 27.08125 22.940624Q28.3 23.221874 29.175 23.95625Q30.3 24.925 30.8625 26.409374Q31.425 27.89375 31.425 29.815624Q31.425 31.440624 31.05 32.70625Q30.675 33.95625 30.065624 34.784374Q29.471874 35.6125 28.76875 36.096874Q28.065624 36.565624 27.065624 36.815624Q26.065624 37.05 24.753124 37.05L19.596874 37.05ZM21.4875 35.3625L24.55 35.3625Q25.95625 35.3625 26.753124 35.096874Q27.565624 34.83125 28.05 34.346874Q28.721874 33.675 29.096874 32.55Q29.471874 31.409374 29.471874 29.784374Q29.471874 27.534374 28.7375 26.33125Q28.003124 25.128124 26.940624 24.721874Q26.190624 24.425 24.503124 24.425L21.4875 24.425L21.4875 35.3625ZM32.721874 31.8625Q32.721874 28.9875 34.315624 27.596874Q35.659374 26.440624 37.58125 26.440624Q39.721874 26.440624 41.065624 27.846874Q42.425 29.253124 42.425 31.721874Q42.425 33.721874 41.83125 34.878124Q41.2375 36.01875 40.08125 36.659374Q38.940624 37.284374 37.58125 37.284374Q35.39375 37.284374 34.05 35.89375Q32.721874 34.4875 32.721874 31.8625ZM34.51875 31.8625Q34.51875 33.8625 35.378124 34.846874Q36.253124 35.83125 37.58125 35.83125Q38.89375 35.83125 39.753124 34.846874Q40.628124 33.846874 40.628124 31.8Q40.628124 29.878124 39.753124 28.89375Q38.878124 27.89375 37.58125 27.89375Q36.253124 27.89375 35.378124 28.89375Q34.51875 29.878124 34.51875 31.8625ZM50.284374 41.05L50.096874 39.39375Q50.675 39.55 51.096874 39.55Q51.690624 39.55 52.034374 39.346874Q52.39375 39.159374 52.6125 38.815624Q52.784374 38.55 53.159374 37.503124Q53.20625 37.346874 53.315624 37.065624L49.378124 26.675L51.26875 26.675L53.425 32.690624Q53.846874 33.83125 54.175 35.08125Q54.4875 33.878124 54.89375 32.721874L57.1125 26.675L58.878124 26.675L54.925 37.221874Q54.3 38.940624 53.940624 39.58125Q53.471874 40.45625 52.8625 40.846874Q52.26875 41.253124 51.425 41.253124Q50.909374 41.253124 50.284374 41.05ZM59.721874 31.8625Q59.721874 28.9875 61.315624 27.596874Q62.659374 26.440624 64.58125 26.440624Q66.72188 26.440624 68.06563 27.846874Q69.425 29.253124 69.425 31.721874Q69.425 33.721874 68.83125 34.878124Q68.2375 36.01875 67.08125 36.659374Q65.94063 37.284374 64.58125 37.284374Q62.39375 37.284374 61.05 35.89375Q59.721874 34.4875 59.721874 31.8625ZM61.51875 31.8625Q61.51875 33.8625 62.378124 34.846874Q63.253124 35.83125 64.58125 35.83125Q65.89375 35.83125 66.75313 34.846874Q67.62813 33.846874 67.62813 31.8Q67.62813 29.878124 66.75313 28.89375Q65.87813 27.89375 64.58125 27.89375Q63.253124 27.89375 62.378124 28.89375Q61.51875 29.878124 61.51875 31.8625ZM78.15938 37.05L78.15938 35.51875Q76.95625 37.284374 74.87813 37.284374Q73.95625 37.284374 73.15938 36.940624Q72.3625 36.58125 71.97188 36.05Q71.59688 35.51875 71.44063 34.7375Q71.33125 34.221874 71.33125 33.096874L71.33125 26.675L73.08125 26.675L73.08125 32.425Q73.08125 33.8 73.19063 34.284374Q73.3625 34.971874 73.89375 35.378124Q74.44063 35.76875 75.22188 35.76875Q76.01875 35.76875 76.70625 35.3625Q77.40938 34.95625 77.69063 34.26875Q77.9875 33.565624 77.9875 32.2375L77.9875 26.675L79.7375 26.675L79.7375 37.05L78.15938 37.05ZM95.15938 37.05L95.15938 35.51875Q93.95625 37.284374 91.87813 37.284374Q90.95625 37.284374 90.15938 36.940624Q89.3625 36.58125 88.97188 36.05Q88.59688 35.51875 88.44063 34.7375Q88.33125 34.221874 88.33125 33.096874L88.33125 26.675L90.08125 26.675L90.08125 32.425Q90.08125 33.8 90.19063 34.284374Q90.3625 34.971874 90.89375 35.378124Q91.44063 35.76875 92.22188 35.76875Q93.01875 35.76875 93.70625 35.3625Q94.40938 34.95625 94.69063 34.26875Q94.9875 33.565624 94.9875 32.2375L94.9875 26.675L96.7375 26.675L96.7375 37.05L95.15938 37.05ZM98.65938 33.95625L100.40938 33.675Q100.55 34.721874 101.22188 35.284374Q101.89375 35.83125 103.09688 35.83125Q104.3 35.83125 104.87813 35.346874Q105.47188 34.846874 105.47188 34.190624Q105.47188 33.596874 104.95625 33.253124Q104.59688 33.01875 103.15938 32.659374Q101.22188 32.159374 100.47188 31.815624Q99.7375 31.45625 99.34688 30.83125Q98.95625 30.190624 98.95625 29.425Q98.95625 28.7375 99.26875 28.14375Q99.59688 27.55 100.14375 27.159374Q100.55 26.8625 101.25313 26.659374Q101.97188 26.440624 102.78438 26.440624Q104.00313 26.440624 104.925 26.8Q105.84688 27.14375 106.28438 27.753124Q106.72188 28.346874 106.89375 29.346874L105.175 29.58125Q105.05 28.784374 104.4875 28.346874Q103.925 27.89375 102.90938 27.89375Q101.69063 27.89375 101.175 28.3Q100.65938 28.690624 100.65938 29.221874Q100.65938 29.565624 100.87813 29.846874Q101.08125 30.128124 101.55 30.315624Q101.81563 30.409374 103.09688 30.753124Q104.97188 31.253124 105.70625 31.58125Q106.44063 31.89375 106.8625 32.503124Q107.28438 33.096874 107.28438 34.003124Q107.28438 34.878124 106.76875 35.659374Q106.25313 36.440624 105.28438 36.8625Q104.31563 37.284374 103.09688 37.284374Q101.08125 37.284374 100.01875 36.440624Q98.95625 35.596874 98.65938 33.95625ZM116.47188 33.70625L118.28438 33.940624Q117.8625 35.51875 116.69063 36.409374Q115.53438 37.284374 113.72188 37.284374Q111.45625 37.284374 110.1125 35.89375Q108.78438 34.4875 108.78438 31.95625Q108.78438 29.33125 110.12813 27.89375Q111.47188 26.440624 113.62813 26.440624Q115.70625 26.440624 117.01875 27.8625Q118.34688 29.26875 118.34688 31.846874Q118.34688 32.003124 118.33125 32.315624L110.59688 32.315624Q110.69063 34.01875 111.56563 34.925Q112.44063 35.83125 113.7375 35.83125Q114.70625 35.83125 115.37813 35.33125Q116.06563 34.815624 116.47188 33.70625ZM110.69063 30.8625L116.4875 30.8625Q116.37813 29.565624 115.83125 28.909374Q114.9875 27.89375 113.64375 27.89375Q112.44063 27.89375 111.6125 28.70625Q110.78438 29.503124 110.69063 30.8625ZM126.62813 37.05L126.62813 22.7375L132.97188 22.7375Q134.87813 22.7375 135.87813 23.128124Q136.87813 23.503124 137.47188 24.4875Q138.06563 25.45625 138.06563 26.64375Q138.06563 28.159374 137.08125 29.20625Q136.09688 30.253124 134.03438 30.534374Q134.78438 30.89375 135.175 31.253124Q136.00313 32.003124 136.75313 33.159374L139.2375 37.05L136.8625 37.05L134.95625 34.065624Q134.12813 32.784374 133.59688 32.096874Q133.06563 31.409374 132.62813 31.14375Q132.20625 30.8625 131.76875 30.753124Q131.44063 30.690624 130.72188 30.690624L128.51875 30.690624L128.51875 37.05L126.62813 37.05ZM128.51875 29.05L132.59688 29.05Q133.89375 29.05 134.6125 28.784374Q135.34688 28.51875 135.72188 27.925Q136.1125 27.33125 136.1125 26.64375Q136.1125 25.628124 135.37813 24.971874Q134.64375 24.315624 133.05 24.315624L128.51875 24.315624L128.51875 29.05ZM147.15938 37.05L147.15938 35.51875Q145.95625 37.284374 143.87813 37.284374Q142.95625 37.284374 142.15938 36.940624Q141.3625 36.58125 140.97188 36.05Q140.59688 35.51875 140.44063 34.7375Q140.33125 34.221874 140.33125 33.096874L140.33125 26.675L142.08125 26.675L142.08125 32.425Q142.08125 33.8 142.19063 34.284374Q142.3625 34.971874 142.89375 35.378124Q143.44063 35.76875 144.22188 35.76875Q145.01875 35.76875 145.70625 35.3625Q146.40938 34.95625 146.69063 34.26875Q146.9875 33.565624 146.9875 32.2375L146.9875 26.675L148.7375 26.675L148.7375 37.05L147.15938 37.05ZM150.65938 33.95625L152.40938 33.675Q152.55 34.721874 153.22188 35.284374Q153.89375 35.83125 155.09688 35.83125Q156.3 35.83125 156.87813 35.346874Q157.47188 34.846874 157.47188 34.190624Q157.47188 33.596874 156.95625 33.253124Q156.59688 33.01875 155.15938 32.659374Q153.22188 32.159374 152.47188 31.815624Q151.7375 31.45625 151.34688 30.83125Q150.95625 30.190624 150.95625 29.425Q150.95625 28.7375 151.26875 28.14375Q151.59688 27.55 152.14375 27.159374Q152.55 26.8625 153.25313 26.659374Q153.97188 26.440624 154.78438 26.440624Q156.00313 26.440624 156.925 26.8Q157.84688 27.14375 158.28438 27.753124Q158.72188 28.346874 158.89375 29.346874L157.175 29.58125Q157.05 28.784374 156.4875 28.346874Q155.925 27.89375 154.90938 27.89375Q153.69063 27.89375 153.175 28.3Q152.65938 28.690624 152.65938 29.221874Q152.65938 29.565624 152.87813 29.846874Q153.08125 30.128124 153.55 30.315624Q153.81563 30.409374 155.09688 30.753124Q156.97188 31.253124 157.70625 31.58125Q158.44063 31.89375 158.8625 32.503124Q159.28438 33.096874 159.28438 34.003124Q159.28438 34.878124 158.76875 35.659374Q158.25313 36.440624 157.28438 36.8625Q156.31563 37.284374 155.09688 37.284374Q153.08125 37.284374 152.01875 36.440624Q150.95625 35.596874 150.65938 33.95625ZM165.20625 35.471874L165.45625 37.034374Q164.72188 37.190624 164.12813 37.190624Q163.175 37.190624 162.64375 36.89375Q162.12813 36.58125 161.90938 36.096874Q161.69063 35.596874 161.69063 34.01875L161.69063 28.05L160.40938 28.05L160.40938 26.675L161.69063 26.675L161.69063 24.1125L163.44063 23.05L163.44063 26.675L165.20625 26.675L165.20625 28.05L163.44063 28.05L163.44063 34.1125Q163.44063 34.8625 163.53438 35.08125Q163.62813 35.284374 163.83125 35.425Q164.05 35.55 164.44063 35.55Q164.72188 35.55 165.20625 35.471874ZM180.14375 35.76875Q179.15938 36.596874 178.25313 36.940624Q177.34688 37.284374 176.31563 37.284374Q174.6125 37.284374 173.69063 36.45625Q172.76875 35.6125 172.76875 34.315624Q172.76875 33.55 173.1125 32.925Q173.47188 32.3 174.03438 31.925Q174.59688 31.534374 175.3 31.33125Q175.81563 31.20625 176.8625 31.065624Q178.9875 30.815624 179.9875 30.471874Q180.00313 30.1125 180.00313 30.003124Q180.00313 28.940624 179.50313 28.4875Q178.83125 27.89375 177.50313 27.89375Q176.25313 27.89375 175.65938 28.33125Q175.08125 28.76875 174.8 29.878124L173.08125 29.64375Q173.31563 28.534374 173.84688 27.8625Q174.37813 27.175 175.39375 26.815624Q176.40938 26.440624 177.75313 26.440624Q179.08125 26.440624 179.90938 26.753124Q180.7375 27.065624 181.12813 27.55Q181.51875 28.01875 181.675 28.7375Q181.76875 29.190624 181.76875 30.3625L181.76875 32.70625Q181.76875 35.159374 181.87813 35.815624Q181.9875 36.45625 182.33125 37.05L180.4875 37.05Q180.22188 36.503124 180.14375 35.76875ZM179.9875 31.846874Q179.03438 32.2375 177.1125 32.503124Q176.03438 32.659374 175.58125 32.8625Q175.14375 33.05 174.89375 33.425Q174.64375 33.8 174.64375 34.26875Q174.64375 34.971874 175.175 35.440624Q175.70625 35.909374 176.7375 35.909374Q177.75313 35.909374 178.53438 35.471874Q179.33125 35.01875 179.70625 34.253124Q179.9875 33.64375 179.9875 32.4875L179.9875 31.846874ZM188.20625 35.471874L188.45625 37.034374Q187.72188 37.190624 187.12813 37.190624Q186.175 37.190624 185.64375 36.89375Q185.12813 36.58125 184.90938 36.096874Q184.69063 35.596874 184.69063 34.01875L184.69063 28.05L183.40938 28.05L183.40938 26.675L184.69063 26.675L184.69063 24.1125L186.44063 23.05L186.44063 26.675L188.20625 26.675L188.20625 28.05L186.44063 28.05L186.44063 34.1125Q186.44063 34.8625 186.53438 35.08125Q186.62813 35.284374 186.83125 35.425Q187.05 35.55 187.44063 35.55Q187.72188 35.55 188.20625 35.471874ZM198.28438 37.05L195.1125 26.675L196.925 26.675L198.58125 32.659374L199.19063 34.89375Q199.2375 34.721874 199.72188 32.753124L201.37813 26.675L203.19063 26.675L204.7375 32.690624L205.25313 34.675L205.84688 32.675L207.62813 26.675L209.33125 26.675L206.09688 37.05L204.26875 37.05L202.6125 30.83125L202.22188 29.065624L200.1125 37.05L198.28438 37.05ZM209.72188 31.8625Q209.72188 28.9875 211.31563 27.596874Q212.65938 26.440624 214.58125 26.440624Q216.72188 26.440624 218.06563 27.846874Q219.425 29.253124 219.425 31.721874Q219.425 33.721874 218.83125 34.878124Q218.2375 36.01875 217.08125 36.659374Q215.94063 37.284374 214.58125 37.284374Q212.39375 37.284374 211.05 35.89375Q209.72188 34.4875 209.72188 31.8625ZM211.51875 31.8625Q211.51875 33.8625 212.37813 34.846874Q213.25313 35.83125 214.58125 35.83125Q215.89375 35.83125 216.75313 34.846874Q217.62813 33.846874 217.62813 31.8Q217.62813 29.878124 216.75313 28.89375Q215.87813 27.89375 214.58125 27.89375Q213.25313 27.89375 212.37813 28.89375Q211.51875 29.878124 211.51875 31.8625ZM221.34688 37.05L221.34688 26.675L222.925 26.675L222.925 28.253124Q223.53438 27.14375 224.05 26.8Q224.56563 26.440624 225.175 26.440624Q226.06563 26.440624 226.9875 27.003124L226.37813 28.64375Q225.7375 28.253124 225.09688 28.253124Q224.51875 28.253124 224.05 28.6125Q223.59688 28.95625 223.39375 29.565624Q223.1125 30.503124 223.1125 31.6125L223.1125 37.05L221.34688 37.05ZM228.37813 37.05L228.37813 22.7375L230.14375 22.7375L230.14375 30.89375L234.3 26.675L236.56563 26.675L232.6125 30.51875L236.97188 37.05L234.8 37.05L231.37813 31.753124L230.14375 32.940624L230.14375 37.05L228.37813 37.05ZM241.65938 33.51875Q241.64375 33.175 241.64375 33.003124Q241.64375 31.95625 241.94063 31.20625Q242.15938 30.64375 242.64375 30.065624Q242.9875 29.64375 243.89375 28.846874Q244.81563 28.034374 245.08125 27.565624Q245.3625 27.08125 245.3625 26.51875Q245.3625 25.4875 244.55 24.721874Q243.75313 23.940624 242.59688 23.940624Q241.47188 23.940624 240.72188 24.64375Q239.97188 25.346874 239.7375 26.83125L237.925 26.6125Q238.175 24.6125 239.37813 23.55Q240.58125 22.4875 242.56563 22.4875Q244.675 22.4875 245.925 23.628124Q247.175 24.76875 247.175 26.39375Q247.175 27.33125 246.72188 28.128124Q246.28438 28.909374 245.00313 30.05Q244.14375 30.815624 243.87813 31.175Q243.62813 31.534374 243.4875 32.003124Q243.3625 32.471874 243.34688 33.51875L241.65938 33.51875ZM241.55 37.05L241.55 35.05L243.55 35.05L243.55 37.05L241.55 37.05Z" fill-rule="nonzero"/></svg>