<svg version="1.1" viewBox="0.0 0.0 660.0 416.0" fill="none" stroke="none" stroke-linecap="square" stroke-miterlimit="10" width="660" height="416" xmlns:xlink="http://www.w3.org/1999/xlink" xmlns="http://www.w3.org/2000/svg"><path fill="#ffffff" d="M0 0L660.0 0L660.0 416.0L0 416.0L0 0Z" fill-rule="nonzero"/><path stroke="#333333" stroke-width="1.0" stroke-linecap="butt" d="M80.5 341.5L639.5 341.5" fill-rule="nonzero"/><path stroke="#cccccc" stroke-width="1.0" stroke-linecap="butt" d="M80.5 249.5L639.5 249.5" fill-rule="nonzero"/><path stroke="#cccccc" stroke-width="1.0" stroke-linecap="butt" d="M80.5 157.5L639.5 157.5" fill-rule="nonzero"/><path stroke="#cccccc" stroke-width="1.0" stroke-linecap="butt" d="M80.5 66.5L639.5 66.5" fill-rule="nonzero"/><clipPath id="id_0"><path d="M80.8 66.166664L639.2 66.166664L639.2 341.2L80.8 341.2L80.8 66.166664Z" clip-rule="nonzero"/></clipPath><path stroke="#000000" stroke-width="0.0" stroke-linecap="butt" stroke-opacity="0.0" clip-path="url(#id_0)" d="M135.0 341.0L100.0 341.0L100.0 279.0C100.0 277.89542 100.89543 277.0 102.0 277.0L133.0 277.0C134.10457 277.0 135.0 277.89542 135.0 279.0Z" fill-rule="nonzero"/><path fill="#4472c4" clip-path="url(#id_0)" d="M135.0 341.0L100.0 341.0L100.0 279.0C100.0 277.89542 100.89543 277.0 102.0 277.0L133.0 277.0C134.10457 277.0 135.0 277.89542 135.0 279.0Z" fill-rule="nonzero"/><path stroke="#000000" stroke-width="0.0" stroke-linecap="butt" stroke-opacity="0.0" clip-path="url(#id_0)" d="M189.0 341.0L154.0 341.0L154.0 239.0C154.0 237.89543 154.89543 237.0 156.0 237.0L187.0 237.0C188.10457 237.0 189.0 237.89543 189.0 239.0Z" fill-rule="nonzero"/><path fill="#4472c4" clip-path="url(#id_0)" d="M189.0 341.0L154.0 341.0L154.0 239.0C154.0 237.89543 154.89543 237.0 156.0 237.0L187.0 237.0C188.10457 237.0 189.0 237.89543 189.0 239.0Z" fill-rule="nonzero"/><path stroke="#000000" stroke-width="0.0" stroke-linecap="butt" stroke-opacity="0.0" clip-path="url(#id_0)" d="M243.0 341.0L208.0 341.0L208.0 145.0C208.0 143.89543 208.89543 143.0 210.0 143.0L241.0 143.0C242.10457 143.0 243.0 143.89543 243.0 145.0Z" fill-rule="nonzero"/><path fill="#4472c4" clip-path="url(#id_0)" d="M243.0 341.0L208.0 341.0L208.0 145.0C208.0 143.89543 208.89543 143.0 210.0 143.0L241.0 143.0C242.10457 143.0 243.0 143.89543 243.0 145.0Z" fill-rule="nonzero"/><path stroke="#000000" stroke-width="0.0" stroke-linecap="butt" stroke-opacity="0.0" clip-path="url(#id_0)" d="M297.0 341.0L262.0 341.0L262.0 161.0C262.0 159.89543 262.89542 159.0 264.0 159.0L295.0 159.0C296.10458 159.0 297.0 159.89543 297.0 161.0Z" fill-rule="nonzero"/><path fill="#4472c4" clip-path="url(#id_0)" d="M297.0 341.0L262.0 341.0L262.0 161.0C262.0 159.89543 262.89542 159.0 264.0 159.0L295.0 159.0C296.10458 159.0 297.0 159.89543 297.0 161.0Z" fill-rule="nonzero"/><path stroke="#000000" stroke-width="0.0" stroke-linecap="butt" stroke-opacity="0.0" clip-path="url(#id_0)" d="M351.0 341.0L316.0 341.0L316.0 155.0C316.0 153.89543 316.89542 153.0 318.0 153.0L349.0 153.0C350.10458 153.0 351.0 153.89543 351.0 155.0Z" fill-rule="nonzero"/><path fill="#4472c4" clip-path="url(#id_0)" d="M351.0 341.0L316.0 341.0L316.0 155.0C316.0 153.89543 316.89542 153.0 318.0 153.0L349.0 153.0C350.10458 153.0 351.0 153.89543 351.0 155.0Z" fill-rule="nonzero"/><path stroke="#000000" stroke-width="0.0" stroke-linecap="butt" stroke-opacity="0.0" clip-path="url(#id_0)" d="M405.0 341.0L370.0 341.0L370.0 111.0C370.0 109.89543 370.89542 109.0 372.0 109.0L403.0 109.0C404.10458 109.0 405.0 109.89543 405.0 111.0Z" fill-rule="nonzero"/><path fill="#4472c4" clip-path="url(#id_0)" d="M405.0 341.0L370.0 341.0L370.0 111.0C370.0 109.89543 370.89542 109.0 372.0 109.0L403.0 109.0C404.10458 109.0 405.0 109.89543 405.0 111.0Z" fill-rule="nonzero"/><path stroke="#000000" stroke-width="0.0" stroke-linecap="butt" stroke-opacity="0.0" clip-path="url(#id_0)" d="M459.0 341.0L424.0 341.0L424.0 81.0C424.0 79.89543 424.89542 79.0 426.0 79.0L457.0 79.0C458.10458 79.0 459.0 79.89543 459.0 81.0Z" fill-rule="nonzero"/><path fill="#4472c4" clip-path="url(#id_0)" d="M459.0 341.0L424.0 341.0L424.0 81.0C424.0 79.89543 424.89542 79.0 426.0 79.0L457.0 79.0C458.10458 79.0 459.0 79.89543 459.0 81.0Z" fill-rule="nonzero"/><path stroke="#000000" stroke-width="0.0" stroke-linecap="butt" stroke-opacity="0.0" clip-path="url(#id_0)" d="M513.0 341.0L478.0 341.0L478.0 155.0C478.0 153.89543 478.89542 153.0 480.0 153.0L511.0 153.0C512.10455 153.0 513.0 153.89543 513.0 155.0Z" fill-rule="nonzero"/><path fill="#4472c4" clip-path="url(#id_0)" d="M513.0 341.0L478.0 341.0L478.0 155.0C478.0 153.89543 478.89542 153.0 480.0 153.0L511.0 153.0C512.10455 153.0 513.0 153.89543 513.0 155.0Z" fill-rule="nonzero"/><path stroke="#000000" stroke-width="0.0" stroke-linecap="butt" stroke-opacity="0.0" clip-path="url(#id_0)" d="M567.0 341.0L532.0 341.0L532.0 287.0C532.0 285.89542 532.89545 285.0 534.0 285.0L565.0 285.0C566.10455 285.0 567.0 285.89542 567.0 287.0Z" fill-rule="nonzero"/><path fill="#4472c4" clip-path="url(#id_0)" d="M567.0 341.0L532.0 341.0L532.0 287.0C532.0 285.89542 532.89545 285.0 534.0 285.0L565.0 285.0C566.10455 285.0 567.0 285.89542 567.0 287.0Z" fill-rule="nonzero"/><path stroke="#000000" stroke-width="0.0" stroke-linecap="butt" stroke-opacity="0.0" clip-path="url(#id_0)" d="M621.0 341.0L586.0 341.0L586.0 330.0C586.0 328.89542 586.89545 328.0 588.0 328.0L619.0 328.0C620.10455 328.0 621.0 328.89542 621.0 330.0Z" fill-rule="nonzero"/><path fill="#4472c4" clip-path="url(#id_0)" d="M621.0 341.0L586.0 341.0L586.0 330.0C586.0 328.89542 586.89545 328.0 588.0 328.0L619.0 328.0C620.10455 328.0 621.0 328.89542 621.0 330.0Z" fill-rule="nonzero"/><path fill="#000000" d="M346.625 388.7469L344.60938 388.7469L344.60938 392.2L343.48438 392.2L343.48438 383.66876L346.3125 383.66876Q347.75 383.66876 348.51562 384.325Q349.29688 384.98126 349.29688 386.23126Q349.29688 387.02814 348.85938 387.6219Q348.4375 388.21564 347.67188 388.5125L349.67188 392.1219L349.67188 392.2L348.46875 392.2L346.625 388.7469ZM344.60938 387.825L346.34375 387.825Q347.1875 387.825 347.67188 387.40314Q348.17188 386.96564 348.17188 386.23126Q348.17188 385.45 347.70312 385.02814Q347.23438 384.60626 346.34375 384.59064L344.60938 384.59064L344.60938 387.825ZM354.23438 392.2Q354.14062 392.0125 354.07812 391.52814Q353.32812 392.325 352.28125 392.325Q351.34375 392.325 350.73438 391.79376Q350.14062 391.2625 350.14062 390.4344Q350.14062 389.45 350.89062 388.90314Q351.64062 388.35626 353.01562 388.35626L354.0625 388.35626L354.0625 387.85626Q354.0625 387.29376 353.71875 386.96564Q353.39062 386.6219 352.71875 386.6219Q352.14062 386.6219 351.75 386.91876Q351.35938 387.2 351.35938 387.6219L350.26562 387.6219Q350.26562 387.1375 350.59375 386.7Q350.9375 386.2625 351.51562 386.0125Q352.09375 385.7469 352.78125 385.7469Q353.89062 385.7469 354.5 386.29376Q355.125 386.84064 355.15625 387.79376L355.15625 390.71564Q355.15625 391.59064 355.375 392.10626L355.375 392.2L354.23438 392.2ZM352.4375 391.3719Q352.95312 391.3719 353.40625 391.10626Q353.85938 390.84064 354.0625 390.41876L354.0625 389.1219L353.21875 389.1219Q351.21875 389.1219 351.21875 390.29376Q351.21875 390.79376 351.5625 391.09064Q351.90625 391.3719 352.4375 391.3719ZM358.79688 384.325L358.79688 385.85626L359.96875 385.85626L359.96875 386.7L358.79688 386.7L358.79688 390.6219Q358.79688 391.0125 358.95312 391.2Q359.10938 391.3875 359.48438 391.3875Q359.67188 391.3875 360.0 391.325L360.0 392.2Q359.57812 392.325 359.17188 392.325Q358.45312 392.325 358.07812 391.8875Q357.70312 391.4344 357.70312 390.6219L357.70312 386.7L356.54688 386.7L356.54688 385.85626L357.70312 385.85626L357.70312 384.325L358.79688 384.325ZM362.5 392.2L361.42188 392.2L361.42188 385.85626L362.5 385.85626L362.5 392.2ZM361.32812 384.1844Q361.32812 383.91876 361.48438 383.73126Q361.65625 383.54376 361.96875 383.54376Q362.28125 383.54376 362.4375 383.73126Q362.60938 383.91876 362.60938 384.1844Q362.60938 384.4344 362.4375 384.6219Q362.28125 384.79376 361.96875 384.79376Q361.65625 384.79376 361.48438 384.6219Q361.32812 384.4344 361.32812 384.1844ZM365.34375 385.85626L365.375 386.65314Q366.10938 385.7469 367.28125 385.7469Q369.29688 385.7469 369.3125 388.0125L369.3125 392.2L368.21875 392.2L368.21875 387.9969Q368.21875 387.325 367.90625 386.9969Q367.60938 386.66876 366.95312 386.66876Q366.42188 386.66876 366.01562 386.95Q365.625 387.23126 365.40625 387.6844L365.40625 392.2L364.32812 392.2L364.32812 385.85626L365.34375 385.85626ZM371.0625 388.98126Q371.0625 387.4969 371.75 386.6219Q372.4375 385.7469 373.5625 385.7469Q374.71875 385.7469 375.375 386.5594L375.42188 385.85626L376.42188 385.85626L376.42188 392.04376Q376.42188 393.27814 375.6875 393.98126Q374.95312 394.7 373.73438 394.7Q373.04688 394.7 372.39062 394.40314Q371.73438 394.10626 371.39062 393.60626L371.95312 392.95Q372.64062 393.8094 373.65625 393.8094Q374.4375 393.8094 374.875 393.35626Q375.32812 392.91876 375.32812 392.10626L375.32812 391.5594Q374.67188 392.325 373.54688 392.325Q372.4375 392.325 371.75 391.4344Q371.0625 390.52814 371.0625 388.98126ZM372.15625 389.10626Q372.15625 390.16876 372.59375 390.79376Q373.03125 391.40314 373.82812 391.40314Q374.84375 391.40314 375.32812 390.46564L375.32812 387.575Q374.82812 386.66876 373.82812 386.66876Q373.04688 386.66876 372.59375 387.27814Q372.15625 387.8875 372.15625 389.10626Z" fill-rule="nonzero"/><path fill="#000000" d="M29.346888 235.30833L29.346888 237.32396L32.80001 237.32396L32.80001 238.44896L24.268763 238.44896L24.268763 235.62083Q24.268763 234.18333 24.925013 233.41771Q25.581263 232.63646 26.831263 232.63646Q27.628138 232.63646 28.221888 233.07396Q28.815638 233.49583 29.112513 234.26146L32.721886 232.26146L32.80001 232.26146L32.80001 233.46458L29.346888 235.30833ZM28.425013 237.32396L28.425013 235.58958Q28.425013 234.74583 28.003138 234.26146Q27.565638 233.76146 26.831263 233.76146Q26.050013 233.76146 25.628138 234.23021Q25.206263 234.69896 25.190638 235.58958L25.190638 237.32396L28.425013 237.32396ZM32.92501 228.98021Q32.92501 230.27708 32.08126 231.08958Q31.221888 231.88646 29.800013 231.88646L29.612513 231.88646Q28.659388 231.88646 27.925013 231.52708Q27.175013 231.16771 26.768763 230.52708Q26.346888 229.87083 26.346888 229.12083Q26.346888 227.88646 27.159388 227.19896Q27.971888 226.51146 29.487513 226.51146L29.940638 226.51146L29.940638 230.80833Q30.878138 230.77708 31.456263 230.26146Q32.034386 229.73021 32.034386 228.91771Q32.034386 228.35521 31.800013 227.96458Q31.565638 227.55833 31.175013 227.24583L31.690638 226.58958Q32.92501 227.38646 32.92501 228.98021ZM27.237513 229.12083Q27.237513 229.77708 27.721888 230.23021Q28.190638 230.66771 29.050013 230.76146L29.050013 227.58958L28.971888 227.58958Q28.143763 227.63646 27.690638 228.04271Q27.237513 228.43333 27.237513 229.12083ZM31.112513 221.91771Q30.675013 221.91771 30.440638 222.26146Q30.190638 222.58958 30.018763 223.41771Q29.846888 224.23021 29.596888 224.71458Q29.346888 225.19896 29.018763 225.43333Q28.675013 225.65208 28.206263 225.65208Q27.425013 225.65208 26.893763 224.99583Q26.346888 224.33958 26.346888 223.30833Q26.346888 222.23021 26.909388 221.57396Q27.456263 220.90208 28.315638 220.90208L28.315638 221.98021Q27.878138 221.98021 27.565638 222.37083Q27.237513 222.74583 27.237513 223.30833Q27.237513 223.90208 27.503138 224.24583Q27.753138 224.57396 28.159388 224.57396Q28.550013 224.57396 28.753138 224.26146Q28.956263 223.94896 29.143763 223.13646Q29.315638 222.32396 29.565638 221.82396Q29.815638 221.32396 30.175013 221.08958Q30.534388 220.83958 31.034388 220.83958Q31.893763 220.83958 32.409386 221.52708Q32.92501 222.19896 32.92501 223.27708Q32.92501 224.04271 32.659386 224.63646Q32.378136 225.21458 31.893763 225.54271Q31.409388 225.87083 30.846888 225.87083L30.846888 224.79271Q31.393763 224.76146 31.721888 224.35521Q32.034386 223.94896 32.034386 223.27708Q32.034386 222.66771 31.784388 222.29271Q31.534388 221.91771 31.112513 221.91771ZM29.706263 214.26146Q31.143763 214.26146 32.034386 214.91771Q32.92501 215.57396 32.92501 216.71458Q32.92501 217.87083 32.190636 218.52708L35.23751 218.52708L35.23751 219.60521L26.456263 219.60521L26.456263 218.62083L27.159388 218.57396Q26.346888 217.90208 26.346888 216.73021Q26.346888 215.58958 27.206263 214.93333Q28.065638 214.26146 29.596888 214.26146L29.706263 214.26146ZM29.581263 215.33958Q28.503138 215.33958 27.893763 215.80833Q27.268763 216.26146 27.268763 217.05833Q27.268763 218.04271 28.128138 218.52708L31.159388 218.52708Q32.034386 218.04271 32.034386 217.04271Q32.034386 216.26146 31.425013 215.80833Q30.800013 215.33958 29.581263 215.33958ZM29.565638 212.90208Q28.643763 212.90208 27.893763 212.54271Q27.143763 212.16771 26.753138 211.51146Q26.346888 210.85521 26.346888 210.02708Q26.346888 208.73021 27.237513 207.93333Q28.128138 207.12083 29.628138 207.12083L29.706263 207.12083Q30.628138 207.12083 31.362513 207.48021Q32.096886 207.83958 32.51876 208.49583Q32.92501 209.15208 32.92501 210.01146Q32.92501 211.29271 32.034386 212.10521Q31.128138 212.90208 29.643763 212.90208L29.565638 212.90208ZM29.706263 211.80833Q30.753138 211.80833 31.393763 211.32396Q32.034386 210.82396 32.034386 210.01146Q32.034386 209.18333 31.393763 208.69896Q30.737513 208.21458 29.565638 208.21458Q28.534388 208.21458 27.893763 208.71458Q27.237513 209.19896 27.237513 210.02708Q27.237513 210.82396 27.878138 211.32396Q28.503138 211.80833 29.706263 211.80833ZM26.456263 204.58958L27.253138 204.55833Q26.346888 203.82396 26.346888 202.65208Q26.346888 200.63646 28.612513 200.62083L32.80001 200.62083L32.80001 201.71458L28.596888 201.71458Q27.925013 201.71458 27.596888 202.02708Q27.268763 202.32396 27.268763 202.98021Q27.268763 203.51146 27.550013 203.91771Q27.831263 204.30833 28.284388 204.52708L32.80001 204.52708L32.80001 205.60521L26.456263 205.60521L26.456263 204.58958ZM31.112513 194.91771Q30.675013 194.91771 30.440638 195.26146Q30.190638 195.58958 30.018763 196.41771Q29.846888 197.23021 29.596888 197.71458Q29.346888 198.19896 29.018763 198.43333Q28.675013 198.65208 28.206263 198.65208Q27.425013 198.65208 26.893763 197.99583Q26.346888 197.33958 26.346888 196.30833Q26.346888 195.23021 26.909388 194.57396Q27.456263 193.90208 28.315638 193.90208L28.315638 194.98021Q27.878138 194.98021 27.565638 195.37083Q27.237513 195.74583 27.237513 196.30833Q27.237513 196.90208 27.503138 197.24583Q27.753138 197.57396 28.159388 197.57396Q28.550013 197.57396 28.753138 197.26146Q28.956263 196.94896 29.143763 196.13646Q29.315638 195.32396 29.565638 194.82396Q29.815638 194.32396 30.175013 194.08958Q30.534388 193.83958 31.034388 193.83958Q31.893763 193.83958 32.409386 194.52708Q32.92501 195.19896 32.92501 196.27708Q32.92501 197.04271 32.659386 197.63646Q32.378136 198.21458 31.893763 198.54271Q31.409388 198.87083 30.846888 198.87083L30.846888 197.79271Q31.393763 197.76146 31.721888 197.35521Q32.034386 196.94896 32.034386 196.27708Q32.034386 195.66771 31.784388 195.29271Q31.534388 194.91771 31.112513 194.91771ZM32.92501 189.98021Q32.92501 191.27708 32.08126 192.08958Q31.221888 192.88646 29.800013 192.88646L29.612513 192.88646Q28.659388 192.88646 27.925013 192.52708Q27.175013 192.16771 26.768763 191.52708Q26.346888 190.87083 26.346888 190.12083Q26.346888 188.88646 27.159388 188.19896Q27.971888 187.51146 29.487513 187.51146L29.940638 187.51146L29.940638 191.80833Q30.878138 191.77708 31.456263 191.26146Q32.034386 190.73021 32.034386 189.91771Q32.034386 189.35521 31.800013 188.96458Q31.565638 188.55833 31.175013 188.24583L31.690638 187.58958Q32.92501 188.38646 32.92501 189.98021ZM27.237513 190.12083Q27.237513 190.77708 27.721888 191.23021Q28.190638 191.66771 29.050013 191.76146L29.050013 188.58958L28.971888 188.58958Q28.143763 188.63646 27.690638 189.04271Q27.237513 189.43333 27.237513 190.12083ZM31.112513 182.91771Q30.675013 182.91771 30.440638 183.26146Q30.190638 183.58958 30.018763 184.41771Q29.846888 185.23021 29.596888 185.71458Q29.346888 186.19896 29.018763 186.43333Q28.675013 186.65208 28.206263 186.65208Q27.425013 186.65208 26.893763 185.99583Q26.346888 185.33958 26.346888 184.30833Q26.346888 183.23021 26.909388 182.57396Q27.456263 181.90208 28.315638 181.90208L28.315638 182.98021Q27.878138 182.98021 27.565638 183.37083Q27.237513 183.74583 27.237513 184.30833Q27.237513 184.90208 27.503138 185.24583Q27.753138 185.57396 28.159388 185.57396Q28.550013 185.57396 28.753138 185.26146Q28.956263 184.94896 29.143763 184.13646Q29.315638 183.32396 29.565638 182.82396Q29.815638 182.32396 30.175013 182.08958Q30.534388 181.83958 31.034388 181.83958Q31.893763 181.83958 32.409386 182.52708Q32.92501 183.19896 32.92501 184.27708Q32.92501 185.04271 32.659386 185.63646Q32.378136 186.21458 31.893763 186.54271Q31.409388 186.87083 30.846888 186.87083L30.846888 185.79271Q31.393763 185.76146 31.721888 185.35521Q32.034386 184.94896 32.034386 184.27708Q32.034386 183.66771 31.784388 183.29271Q31.534388 182.91771 31.112513 182.91771Z" fill-rule="nonzero"/><path fill="#000000" d="M73.8625 342.0594Q73.8625 343.96564 73.20625 344.90314Q72.56563 345.825 71.175 345.825Q69.81563 345.825 69.15938 344.91876Q68.50313 344.0125 68.47188 342.2L68.47188 340.7625Q68.47188 338.8719 69.1125 337.96564Q69.76875 337.04376 71.15938 337.04376Q72.53438 337.04376 73.19063 337.9344Q73.84688 338.8094 73.8625 340.65314L73.8625 342.0594ZM72.76875 340.575Q72.76875 339.2 72.37813 338.575Q72.00313 337.9344 71.15938 337.9344Q70.33125 337.9344 69.94063 338.575Q69.56563 339.2 69.56563 340.4969L69.56563 342.23126Q69.56563 343.60626 69.95625 344.27814Q70.3625 344.9344 71.175 344.9344Q71.97188 344.9344 72.3625 344.3094Q72.75313 343.6844 72.76875 342.35626L72.76875 340.575Z" fill-rule="nonzero"/><path fill="#000000" d="M60.096874 254.02222L54.503124 254.02222L54.503124 253.24097L57.45625 249.95972Q58.1125 249.20972 58.3625 248.75659Q58.6125 248.28784 58.6125 247.78784Q58.6125 247.11597 58.20625 246.69409Q57.815624 246.25659 57.128124 246.25659Q56.33125 246.25659 55.878124 246.72534Q55.425 247.17847 55.425 248.00659L54.346874 248.00659Q54.346874 246.81909 55.096874 246.10034Q55.8625 245.36597 57.128124 245.36597Q58.33125 245.36597 59.01875 245.99097Q59.70625 246.61597 59.70625 247.66284Q59.70625 248.91284 58.096874 250.66284L55.815624 253.13159L60.096874 253.13159L60.096874 254.02222ZM66.8625 250.38159Q66.8625 252.28784 66.20625 253.22534Q65.56563 254.14722 64.175 254.14722Q62.815624 254.14722 62.159374 253.24097Q61.503124 252.33472 61.471874 250.52222L61.471874 249.08472Q61.471874 247.19409 62.1125 246.28784Q62.76875 245.36597 64.15938 245.36597Q65.53438 245.36597 66.19063 246.25659Q66.84688 247.13159 66.8625 248.97534L66.8625 250.38159ZM65.76875 248.89722Q65.76875 247.52222 65.37813 246.89722Q65.00313 246.25659 64.15938 246.25659Q63.33125 246.25659 62.940624 246.89722Q62.565624 247.52222 62.565624 248.81909L62.565624 250.55347Q62.565624 251.92847 62.95625 252.60034Q63.3625 253.25659 64.175 253.25659Q64.97188 253.25659 65.3625 252.63159Q65.75313 252.00659 65.76875 250.67847L65.76875 248.89722ZM73.8625 250.38159Q73.8625 252.28784 73.20625 253.22534Q72.56563 254.14722 71.175 254.14722Q69.81563 254.14722 69.15938 253.24097Q68.50313 252.33472 68.47188 250.52222L68.47188 249.08472Q68.47188 247.19409 69.1125 246.28784Q69.76875 245.36597 71.15938 245.36597Q72.53438 245.36597 73.19063 246.25659Q73.84688 247.13159 73.8625 248.97534L73.8625 250.38159ZM72.76875 248.89722Q72.76875 247.52222 72.37813 246.89722Q72.00313 246.25659 71.15938 246.25659Q70.33125 246.25659 69.94063 246.89722Q69.56563 247.52222 69.56563 248.81909L69.56563 250.55347Q69.56563 251.92847 69.95625 252.60034Q70.3625 253.25659 71.175 253.25659Q71.97188 253.25659 72.3625 252.63159Q72.75313 252.00659 72.76875 250.67847L72.76875 248.89722Z" fill-rule="nonzero"/><path fill="#000000" d="M59.08125 159.48508L60.26875 159.48508L60.26875 160.36008L59.08125 160.36008L59.08125 162.34445L58.003124 162.34445L58.003124 160.36008L54.1125 160.36008L54.1125 159.71945L57.925 153.8132L59.08125 153.8132L59.08125 159.48508ZM55.346874 159.48508L58.003124 159.48508L58.003124 155.29758L57.8625 155.53195L55.346874 159.48508ZM66.8625 158.70383Q66.8625 160.61008 66.20625 161.54758Q65.56563 162.46945 64.175 162.46945Q62.815624 162.46945 62.159374 161.5632Q61.503124 160.65695 61.471874 158.84445L61.471874 157.40695Q61.471874 155.51633 62.1125 154.61008Q62.76875 153.6882 64.15938 153.6882Q65.53438 153.6882 66.19063 154.57883Q66.84688 155.45383 66.8625 157.29758L66.8625 158.70383ZM65.76875 157.21945Q65.76875 155.84445 65.37813 155.21945Q65.00313 154.57883 64.15938 154.57883Q63.33125 154.57883 62.940624 155.21945Q62.565624 155.84445 62.565624 157.14133L62.565624 158.8757Q62.565624 160.2507 62.95625 160.92258Q63.3625 161.57883 64.175 161.57883Q64.97188 161.57883 65.3625 160.95383Q65.75313 160.32883 65.76875 159.0007L65.76875 157.21945ZM73.8625 158.70383Q73.8625 160.61008 73.20625 161.54758Q72.56563 162.46945 71.175 162.46945Q69.81563 162.46945 69.15938 161.5632Q68.50313 160.65695 68.47188 158.84445L68.47188 157.40695Q68.47188 155.51633 69.1125 154.61008Q69.76875 153.6882 71.15938 153.6882Q72.53438 153.6882 73.19063 154.57883Q73.84688 155.45383 73.8625 157.29758L73.8625 158.70383ZM72.76875 157.21945Q72.76875 155.84445 72.37813 155.21945Q72.00313 154.57883 71.15938 154.57883Q70.33125 154.57883 69.94063 155.21945Q69.56563 155.84445 69.56563 157.14133L69.56563 158.8757Q69.56563 160.2507 69.95625 160.92258Q70.3625 161.57883 71.175 161.57883Q71.97188 161.57883 72.3625 160.95383Q72.75313 160.32883 72.76875 159.0007L72.76875 157.21945Z" fill-rule="nonzero"/><path fill="#000000" d="M58.76875 62.135414L58.76875 63.041664L58.565624 63.041664Q57.3 63.072914 56.55 63.80729Q55.8 64.52604 55.675 65.83854Q56.3625 65.072914 57.51875 65.072914Q58.628124 65.072914 59.3 65.854164Q59.971874 66.635414 59.971874 67.885414Q59.971874 69.197914 59.253124 69.99479Q58.534374 70.791664 57.315624 70.791664Q56.096874 70.791664 55.33125 69.854164Q54.58125 68.90104 54.58125 67.416664L54.58125 67.010414Q54.58125 64.65104 55.58125 63.40104Q56.58125 62.15104 58.565624 62.135414L58.76875 62.135414ZM57.346874 65.979164Q56.784374 65.979164 56.315624 66.30729Q55.846874 66.635414 55.659374 67.15104L55.659374 67.541664Q55.659374 68.604164 56.128124 69.24479Q56.6125 69.885414 57.315624 69.885414Q58.05 69.885414 58.471874 69.354164Q58.89375 68.80729 58.89375 67.93229Q58.89375 67.05729 58.471874 66.52604Q58.05 65.979164 57.346874 65.979164ZM66.8625 67.02604Q66.8625 68.93229 66.20625 69.86979Q65.56563 70.791664 64.175 70.791664Q62.815624 70.791664 62.159374 69.885414Q61.503124 68.979164 61.471874 67.166664L61.471874 65.729164Q61.471874 63.83854 62.1125 62.93229Q62.76875 62.010414 64.15938 62.010414Q65.53438 62.010414 66.19063 62.90104Q66.84688 63.77604 66.8625 65.61979L66.8625 67.02604ZM65.76875 65.541664Q65.76875 64.166664 65.37813 63.541664Q65.00313 62.90104 64.15938 62.90104Q63.33125 62.90104 62.940624 63.541664Q62.565624 64.166664 62.565624 65.46354L62.565624 67.197914Q62.565624 68.572914 62.95625 69.24479Q63.3625 69.90104 64.175 69.90104Q64.97188 69.90104 65.3625 69.27604Q65.75313 68.65104 65.76875 67.322914L65.76875 65.541664ZM73.8625 67.02604Q73.8625 68.93229 73.20625 69.86979Q72.56563 70.791664 71.175 70.791664Q69.81563 70.791664 69.15938 69.885414Q68.50313 68.979164 68.47188 67.166664L68.47188 65.729164Q68.47188 63.83854 69.1125 62.93229Q69.76875 62.010414 71.15938 62.010414Q72.53438 62.010414 73.19063 62.90104Q73.84688 63.77604 73.8625 65.61979L73.8625 67.02604ZM72.76875 65.541664Q72.76875 64.166664 72.37813 63.541664Q72.00313 62.90104 71.15938 62.90104Q70.33125 62.90104 69.94063 63.541664Q69.56563 64.166664 69.56563 65.46354L69.56563 67.197914Q69.56563 68.572914 69.95625 69.24479Q70.3625 69.90104 71.175 69.90104Q71.97188 69.90104 72.3625 69.27604Q72.75313 68.65104 72.76875 67.322914L72.76875 65.541664Z" fill-rule="nonzero"/><path fill="#000000" d="M94.70177 359.2L94.70177 350.66876L97.49864 350.66876Q98.88927 350.66876 99.57677 351.2469Q100.27989 351.8094 100.27989 352.9344Q100.27989 353.54376 99.93614 354.0125Q99.60802 354.46564 99.01427 354.71564Q99.71739 354.90314 100.10802 355.45Q100.51427 355.98126 100.51427 356.73126Q100.51427 357.8875 99.76427 358.54376Q99.02989 359.2 97.67052 359.2L94.70177 359.2ZM95.82677 355.21564L95.82677 358.27814L97.68614 358.27814Q98.48302 358.27814 98.93614 357.8719Q99.38927 357.46564 99.38927 356.7469Q99.38927 355.21564 97.70177 355.21564L95.82677 355.21564ZM95.82677 354.3094L97.52989 354.3094Q98.26427 354.3094 98.70177 353.95Q99.15489 353.575 99.15489 352.9344Q99.15489 352.23126 98.74864 351.91876Q98.34239 351.59064 97.49864 351.59064L95.82677 351.59064L95.82677 354.3094ZM104.17052 359.325Q102.87364 359.325 102.06114 358.48126Q101.26427 357.6219 101.26427 356.2L101.26427 356.0125Q101.26427 355.0594 101.62364 354.325Q101.98302 353.575 102.62364 353.16876Q103.27989 352.7469 104.02989 352.7469Q105.26427 352.7469 105.95177 353.5594Q106.63927 354.3719 106.63927 355.8875L106.63927 356.34064L102.34239 356.34064Q102.37364 357.27814 102.88927 357.85626Q103.42052 358.4344 104.23302 358.4344Q104.79552 358.4344 105.18614 358.2Q105.59239 357.96564 105.90489 357.575L106.56114 358.09064Q105.76427 359.325 104.17052 359.325ZM104.02989 353.6375Q103.37364 353.6375 102.92052 354.1219Q102.48302 354.59064 102.38927 355.45L105.56114 355.45L105.56114 355.3719Q105.51427 354.54376 105.10802 354.09064Q104.71739 353.6375 104.02989 353.6375ZM107.27989 355.98126Q107.27989 354.4969 107.96739 353.6219Q108.65489 352.7469 109.77989 352.7469Q110.93614 352.7469 111.59239 353.5594L111.63927 352.85626L112.63927 352.85626L112.63927 359.04376Q112.63927 360.27814 111.90489 360.98126Q111.17052 361.7 109.95177 361.7Q109.26427 361.7 108.60802 361.40314Q107.95177 361.10626 107.60802 360.60626L108.17052 359.95Q108.85802 360.8094 109.87364 360.8094Q110.65489 360.8094 111.09239 360.35626Q111.54552 359.91876 111.54552 359.10626L111.54552 358.5594Q110.88927 359.325 109.76427 359.325Q108.65489 359.325 107.96739 358.4344Q107.27989 357.52814 107.27989 355.98126ZM108.37364 356.10626Q108.37364 357.16876 108.81114 357.79376Q109.24864 358.40314 110.04552 358.40314Q111.06114 358.40314 111.54552 357.46564L111.54552 354.575Q111.04552 353.66876 110.04552 353.66876Q109.26427 353.66876 108.81114 354.27814Q108.37364 354.8875 108.37364 356.10626ZM115.71739 359.2L114.63927 359.2L114.63927 352.85626L115.71739 352.85626L115.71739 359.2ZM114.54552 351.1844Q114.54552 350.91876 114.70177 350.73126Q114.87364 350.54376 115.18614 350.54376Q115.49864 350.54376 115.65489 350.73126Q115.82677 350.91876 115.82677 351.1844Q115.82677 351.4344 115.65489 351.6219Q115.49864 351.79376 115.18614 351.79376Q114.87364 351.79376 114.70177 351.6219Q114.54552 351.4344 114.54552 351.1844ZM118.56114 352.85626L118.59239 353.65314Q119.32677 352.7469 120.49864 352.7469Q122.51427 352.7469 122.52989 355.0125L122.52989 359.2L121.43614 359.2L121.43614 354.9969Q121.43614 354.325 121.12364 353.9969Q120.82677 353.66876 120.17052 353.66876Q119.63927 353.66876 119.23302 353.95Q118.84239 354.23126 118.62364 354.6844L118.62364 359.2L117.54552 359.2L117.54552 352.85626L118.56114 352.85626ZM125.56114 352.85626L125.59239 353.65314Q126.32677 352.7469 127.49864 352.7469Q129.51427 352.7469 129.52989 355.0125L129.52989 359.2L128.43614 359.2L128.43614 354.9969Q128.43614 354.325 128.12364 353.9969Q127.82677 353.66876 127.17052 353.66876Q126.63927 353.66876 126.23302 353.95Q125.84239 354.23126 125.62364 354.6844L125.62364 359.2L124.54552 359.2L124.54552 352.85626L125.56114 352.85626ZM134.17052 359.325Q132.87364 359.325 132.06114 358.48126Q131.26427 357.6219 131.26427 356.2L131.26427 356.0125Q131.26427 355.0594 131.62364 354.325Q131.98302 353.575 132.62364 353.16876Q133.27989 352.7469 134.02989 352.7469Q135.26427 352.7469 135.95177 353.5594Q136.63927 354.3719 136.63927 355.8875L136.63927 356.34064L132.34239 356.34064Q132.37364 357.27814 132.88927 357.85626Q133.42052 358.4344 134.23302 358.4344Q134.79552 358.4344 135.18614 358.2Q135.59239 357.96564 135.90489 357.575L136.56114 358.09064Q135.76427 359.325 134.17052 359.325ZM134.02989 353.6375Q133.37364 353.6375 132.92052 354.1219Q132.48302 354.59064 132.38927 355.45L135.56114 355.45L135.56114 355.3719Q135.51427 354.54376 135.10802 354.09064Q134.71739 353.6375 134.02989 353.6375ZM140.60802 353.825Q140.35802 353.79376 140.07677 353.79376Q138.99864 353.79376 138.62364 354.7L138.62364 359.2L137.54552 359.2L137.54552 352.85626L138.59239 352.85626L138.60802 353.59064Q139.13927 352.7469 140.12364 352.7469Q140.43614 352.7469 140.60802 352.825L140.60802 353.825Z" fill-rule="nonzero"/><path fill="#000000" d="M173.96596 359.2L168.37221 359.2L168.37221 358.41876L171.32533 355.1375Q171.98158 354.3875 172.23158 353.9344Q172.48158 353.46564 172.48158 352.96564Q172.48158 352.29376 172.07533 351.8719Q171.68471 351.4344 170.99721 351.4344Q170.20033 351.4344 169.74721 351.90314Q169.29408 352.35626 169.29408 353.1844L168.21596 353.1844Q168.21596 351.9969 168.96596 351.27814Q169.73158 350.54376 170.99721 350.54376Q172.20033 350.54376 172.88783 351.16876Q173.57533 351.79376 173.57533 352.84064Q173.57533 354.09064 171.96596 355.84064L169.68471 358.3094L173.96596 358.3094L173.96596 359.2Z" fill-rule="nonzero"/><path fill="#000000" d="M223.90202 354.40314L224.71452 354.40314Q225.49577 354.3875 225.93327 353.9969Q226.37077 353.60626 226.37077 352.9344Q226.37077 351.4344 224.87077 351.4344Q224.16765 351.4344 223.74577 351.84064Q223.33952 352.2469 223.33952 352.90314L222.24577 352.90314Q222.24577 351.8875 222.98015 351.21564Q223.73015 350.54376 224.87077 350.54376Q226.0739 350.54376 226.7614 351.1844Q227.4489 351.825 227.4489 352.96564Q227.4489 353.52814 227.08952 354.04376Q226.73015 354.5594 226.10515 354.825Q226.80827 355.04376 227.18327 355.5594Q227.5739 356.075 227.5739 356.825Q227.5739 357.96564 226.8239 358.65314Q226.0739 359.325 224.87077 359.325Q223.68327 359.325 222.91765 358.66876Q222.16765 358.0125 222.16765 356.95L223.2614 356.95Q223.2614 357.6219 223.6989 358.02814Q224.1364 358.4344 224.8864 358.4344Q225.66765 358.4344 226.0739 358.02814Q226.49577 357.60626 226.49577 356.84064Q226.49577 356.10626 226.04265 355.71564Q225.58952 355.3094 224.71452 355.29376L223.90202 355.29376L223.90202 354.40314Z" fill-rule="nonzero"/><path fill="#000000" d="M280.8537 356.34064L282.0412 356.34064L282.0412 357.21564L280.8537 357.21564L280.8537 359.2L279.77557 359.2L279.77557 357.21564L275.88495 357.21564L275.88495 356.575L279.69745 350.66876L280.8537 350.66876L280.8537 356.34064ZM277.11932 356.34064L279.77557 356.34064L279.77557 352.15314L279.63495 352.3875L277.11932 356.34064Z" fill-rule="nonzero"/><path fill="#000000" d="M330.72726 354.91876L331.16476 350.66876L335.53976 350.66876L335.53976 351.66876L332.08664 351.66876L331.821 353.9969Q332.46164 353.6219 333.2585 353.6219Q334.41476 353.6219 335.10226 354.40314Q335.78976 355.16876 335.78976 356.48126Q335.78976 357.79376 335.071 358.5594Q334.3679 359.325 333.08664 359.325Q331.96164 359.325 331.2429 358.7Q330.52414 358.0594 330.4304 356.95L331.446 356.95Q331.5554 357.6844 331.97726 358.0594Q332.39914 358.4344 333.08664 358.4344Q333.83664 358.4344 334.27414 357.91876Q334.71164 357.40314 334.71164 356.4969Q334.71164 355.6375 334.2429 355.1219Q333.77414 354.60626 332.9929 354.60626Q332.28976 354.60626 331.8835 354.90314L331.60226 355.1375L330.72726 354.91876Z" fill-rule="nonzero"/><path fill="#000000" d="M388.4446 350.66876L388.4446 351.575L388.2415 351.575Q386.97586 351.60626 386.22586 352.34064Q385.47586 353.0594 385.35086 354.3719Q386.03836 353.60626 387.1946 353.60626Q388.304 353.60626 388.97586 354.3875Q389.64774 355.16876 389.64774 356.41876Q389.64774 357.73126 388.929 358.52814Q388.21024 359.325 386.9915 359.325Q385.77274 359.325 385.0071 358.3875Q384.2571 357.4344 384.2571 355.95L384.2571 355.54376Q384.2571 353.1844 385.2571 351.9344Q386.2571 350.6844 388.2415 350.66876L388.4446 350.66876ZM387.02274 354.5125Q386.46024 354.5125 385.9915 354.84064Q385.52274 355.16876 385.33524 355.6844L385.33524 356.075Q385.33524 357.1375 385.804 357.77814Q386.28836 358.41876 386.9915 358.41876Q387.72586 358.41876 388.14774 357.8875Q388.5696 357.34064 388.5696 356.46564Q388.5696 355.59064 388.14774 355.0594Q387.72586 354.5125 387.02274 354.5125Z" fill-rule="nonzero"/><path fill="#000000" d="M443.6463 351.27814L440.11505 359.2L438.97443 359.2L442.49005 351.5594L437.88068 351.5594L437.88068 350.66876L443.6463 350.66876L443.6463 351.27814Z" fill-rule="nonzero"/><path fill="#000000" d="M497.26987 352.8875Q497.26987 353.52814 496.92612 354.02814Q496.58237 354.52814 496.01987 354.8094Q496.67612 355.09064 497.06674 355.65314Q497.45737 356.2 497.45737 356.90314Q497.45737 357.9969 496.70737 358.66876Q495.973 359.325 494.75424 359.325Q493.51987 359.325 492.76987 358.66876Q492.0355 357.9969 492.0355 356.90314Q492.0355 356.2 492.4105 355.65314Q492.7855 355.09064 493.45737 354.8094Q492.89487 354.52814 492.56674 354.02814Q492.23862 353.52814 492.23862 352.8875Q492.23862 351.8094 492.92612 351.1844Q493.61362 350.54376 494.75424 350.54376Q495.87924 350.54376 496.56674 351.1844Q497.26987 351.8094 497.26987 352.8875ZM496.37924 356.8719Q496.37924 356.15314 495.92612 355.71564Q495.473 355.2625 494.73862 355.2625Q494.00424 355.2625 493.55112 355.71564Q493.11362 356.15314 493.11362 356.8875Q493.11362 357.60626 493.55112 358.02814Q493.98862 358.4344 494.75424 358.4344Q495.50424 358.4344 495.94174 358.0125Q496.37924 357.59064 496.37924 356.8719ZM494.75424 351.4344Q494.11362 351.4344 493.70737 351.84064Q493.31674 352.23126 493.31674 352.91876Q493.31674 353.5594 493.70737 353.96564Q494.098 354.3719 494.73862 354.3719Q495.39487 354.3719 495.7855 353.96564Q496.17612 353.5594 496.17612 352.91876Q496.17612 352.2625 495.76987 351.85626Q495.36362 351.4344 494.75424 351.4344Z" fill-rule="nonzero"/><path fill="#000000" d="M550.1903 355.45Q549.8622 355.85626 549.3778 356.10626Q548.90906 356.34064 548.34656 356.34064Q547.6122 356.34064 547.0653 355.98126Q546.51843 355.6219 546.22156 354.96564Q545.9247 354.29376 545.9247 353.4969Q545.9247 352.65314 546.2372 351.96564Q546.5653 351.27814 547.15906 350.91876Q547.76843 350.54376 548.5653 350.54376Q549.83093 350.54376 550.5497 351.4969Q551.28406 352.45 551.28406 354.075L551.28406 354.3875Q551.28406 356.8875 550.2997 358.02814Q549.3153 359.16876 547.33093 359.2L547.1122 359.2L547.1122 358.29376L547.34656 358.29376Q548.6903 358.2625 549.40906 357.59064Q550.1278 356.91876 550.1903 355.45ZM548.51843 355.45Q549.0653 355.45 549.51843 355.1219Q549.9872 354.77814 550.20593 354.29376L550.20593 353.85626Q550.20593 352.79376 549.7372 352.1219Q549.26843 351.45 548.5653 351.45Q547.84656 351.45 547.40906 351.9969Q546.9872 352.54376 546.9872 353.45Q546.9872 354.325 547.39343 354.8875Q547.8153 355.45 548.51843 355.45Z" fill-rule="nonzero"/><path fill="#000000" d="M591.5951 355.2625L587.89197 355.2625L587.89197 358.27814L592.18884 358.27814L592.18884 359.2L586.76697 359.2L586.76697 350.66876L592.14197 350.66876L592.14197 351.59064L587.89197 351.59064L587.89197 354.34064L591.5951 354.34064L591.5951 355.2625ZM595.7357 355.16876L597.14197 352.85626L598.4076 352.85626L596.32947 355.9969L598.4701 359.2L597.2201 359.2L595.75134 356.825L594.2826 359.2L593.01697 359.2L595.1576 355.9969L593.0951 352.85626L594.3451 352.85626L595.7357 355.16876ZM604.95447 356.10626Q604.95447 357.54376 604.2982 358.4344Q603.64197 359.325 602.50134 359.325Q601.3451 359.325 600.68884 358.59064L600.68884 361.6375L599.6107 361.6375L599.6107 352.85626L600.5951 352.85626L600.64197 353.5594Q601.31384 352.7469 602.4857 352.7469Q603.62634 352.7469 604.2826 353.60626Q604.95447 354.46564 604.95447 355.9969L604.95447 356.10626ZM603.87634 355.98126Q603.87634 354.90314 603.4076 354.29376Q602.95447 353.66876 602.1576 353.66876Q601.1732 353.66876 600.68884 354.52814L600.68884 357.5594Q601.1732 358.4344 602.1732 358.4344Q602.95447 358.4344 603.4076 357.825Q603.87634 357.2 603.87634 355.98126ZM609.2357 359.325Q607.93884 359.325 607.12634 358.48126Q606.32947 357.6219 606.32947 356.2L606.32947 356.0125Q606.32947 355.0594 606.68884 354.325Q607.0482 353.575 607.68884 353.16876Q608.3451 352.7469 609.0951 352.7469Q610.32947 352.7469 611.01697 353.5594Q611.70447 354.3719 611.70447 355.8875L611.70447 356.34064L607.4076 356.34064Q607.43884 357.27814 607.95447 357.85626Q608.4857 358.4344 609.2982 358.4344Q609.8607 358.4344 610.25134 358.2Q610.6576 357.96564 610.9701 357.575L611.62634 358.09064Q610.82947 359.325 609.2357 359.325ZM609.0951 353.6375Q608.43884 353.6375 607.9857 354.1219Q607.5482 354.59064 607.45447 355.45L610.62634 355.45L610.62634 355.3719Q610.57947 354.54376 610.1732 354.09064Q609.7826 353.6375 609.0951 353.6375ZM615.6732 353.825Q615.4232 353.79376 615.14197 353.79376Q614.06384 353.79376 613.68884 354.7L613.68884 359.2L612.6107 359.2L612.6107 352.85626L613.6576 352.85626L613.6732 353.59064Q614.20447 352.7469 615.18884 352.7469Q615.50134 352.7469 615.6732 352.825L615.6732 353.825ZM618.07947 351.325L618.07947 352.85626L619.25134 352.85626L619.25134 353.7L618.07947 353.7L618.07947 357.6219Q618.07947 358.0125 618.2357 358.2Q618.39197 358.3875 618.76697 358.3875Q618.95447 358.3875 619.2826 358.325L619.2826 359.2Q618.8607 359.325 618.45447 359.325Q617.7357 359.325 617.3607 358.8875Q616.9857 358.4344 616.9857 357.6219L616.9857 353.7L615.82947 353.7L615.82947 352.85626L616.9857 352.85626L616.9857 351.325L618.07947 351.325Z" fill-rule="nonzero"/><path fill="#757575" d="M33.378124 39.8L31.4875 39.8L31.4875 33.221874L24.33125 33.221874L24.33125 39.8L22.45625 39.8L22.45625 25.58125L24.33125 25.58125L24.33125 31.690624L31.4875 31.690624L31.4875 25.58125L33.378124 25.58125L33.378124 39.8ZM35.690624 34.425Q35.690624 32.8625 36.3 31.628124Q36.909374 30.378124 37.9875 29.70625Q39.08125 29.034374 40.4875 29.034374Q42.64375 29.034374 43.971874 30.534374Q45.315624 32.01875 45.315624 34.503124L45.315624 34.628124Q45.315624 36.175 44.721874 37.409374Q44.128124 38.628124 43.01875 39.315624Q41.925 40.003124 40.503124 40.003124Q38.3625 40.003124 37.01875 38.503124Q35.690624 37.003124 35.690624 34.55L35.690624 34.425ZM37.503124 34.628124Q37.503124 36.39375 38.315624 37.45625Q39.14375 38.51875 40.503124 38.51875Q41.878124 38.51875 42.690624 37.440624Q43.503124 36.3625 43.503124 34.425Q43.503124 32.675 42.675 31.596874Q41.846874 30.51875 40.4875 30.51875Q39.14375 30.51875 38.315624 31.58125Q37.503124 32.64375 37.503124 34.628124ZM56.51875 37.315624L58.55 29.2375L60.3625 29.2375L57.284374 39.8L55.815624 39.8L53.253124 31.784374L50.753124 39.8L49.284374 39.8L46.221874 29.2375L48.01875 29.2375L50.096874 37.14375L52.565624 29.2375L54.01875 29.2375L56.51875 37.315624ZM76.51875 37.315624L78.55 29.2375L80.3625 29.2375L77.28438 39.8L75.81563 39.8L73.25313 31.784374L70.75313 39.8L69.28438 39.8L66.22188 29.2375L68.01875 29.2375L70.09688 37.14375L72.56563 29.2375L74.01875 29.2375L76.51875 37.315624ZM81.69063 34.425Q81.69063 32.8625 82.3 31.628124Q82.90938 30.378124 83.9875 29.70625Q85.08125 29.034374 86.4875 29.034374Q88.64375 29.034374 89.97188 30.534374Q91.31563 32.01875 91.31563 34.503124L91.31563 34.628124Q91.31563 36.175 90.72188 37.409374Q90.12813 38.628124 89.01875 39.315624Q87.925 40.003124 86.50313 40.003124Q84.3625 40.003124 83.01875 38.503124Q81.69063 37.003124 81.69063 34.55L81.69063 34.425ZM83.50313 34.628124Q83.50313 36.39375 84.31563 37.45625Q85.14375 38.51875 86.50313 38.51875Q87.87813 38.51875 88.69063 37.440624Q89.50313 36.3625 89.50313 34.425Q89.50313 32.675 88.675 31.596874Q87.84688 30.51875 86.4875 30.51875Q85.14375 30.51875 84.31563 31.58125Q83.50313 32.64375 83.50313 34.628124ZM99.69063 38.753124Q98.64375 40.003124 96.59688 40.003124Q94.90938 40.003124 94.01875 39.01875Q93.14375 38.034374 93.12813 36.1125L93.12813 29.2375L94.94063 29.2375L94.94063 36.065624Q94.94063 38.45625 96.89375 38.45625Q98.95625 38.45625 99.64375 36.925L99.64375 29.2375L101.45625 29.2375L101.45625 39.8L99.7375 39.8L99.69063 38.753124ZM106.12813 39.8L104.33125 39.8L104.33125 24.8L106.12813 24.8L106.12813 39.8ZM108.72188 34.425Q108.72188 32.003124 109.87813 30.51875Q111.03438 29.034374 112.89375 29.034374Q114.75313 29.034374 115.83125 30.3L115.83125 24.8L117.64375 24.8L117.64375 39.8L115.9875 39.8L115.89375 38.659374Q114.81563 40.003124 112.87813 40.003124Q111.05 40.003124 109.87813 38.503124Q108.72188 36.9875 108.72188 34.565624L108.72188 34.425ZM110.53438 34.628124Q110.53438 36.425 111.26875 37.440624Q112.01875 38.45625 113.33125 38.45625Q115.05 38.45625 115.83125 36.925L115.83125 32.065624Q115.03438 30.565624 113.34688 30.565624Q112.01875 30.565624 111.26875 31.596874Q110.53438 32.628124 110.53438 34.628124ZM128.62813 37.159374L131.08125 29.2375L133.01875 29.2375L128.76875 41.425Q127.78438 44.065624 125.64375 44.065624L125.3 44.034374L124.62813 43.909374L124.62813 42.440624L125.1125 42.4875Q126.03438 42.4875 126.53438 42.1125Q127.05 41.7375 127.37813 40.753124L127.78438 39.675L124.01875 29.2375L125.9875 29.2375L128.62813 37.159374ZM133.69063 34.425Q133.69063 32.8625 134.3 31.628124Q134.90938 30.378124 135.9875 29.70625Q137.08125 29.034374 138.4875 29.034374Q140.64375 29.034374 141.97188 30.534374Q143.31563 32.01875 143.31563 34.503124L143.31563 34.628124Q143.31563 36.175 142.72188 37.409374Q142.12813 38.628124 141.01875 39.315624Q139.925 40.003124 138.50313 40.003124Q136.3625 40.003124 135.01875 38.503124Q133.69063 37.003124 133.69063 34.55L133.69063 34.425ZM135.50313 34.628124Q135.50313 36.39375 136.31563 37.45625Q137.14375 38.51875 138.50313 38.51875Q139.87813 38.51875 140.69063 37.440624Q141.50313 36.3625 141.50313 34.425Q141.50313 32.675 140.675 31.596874Q139.84688 30.51875 138.4875 30.51875Q137.14375 30.51875 136.31563 31.58125Q135.50313 32.64375 135.50313 34.628124ZM151.69063 38.753124Q150.64375 40.003124 148.59688 40.003124Q146.90938 40.003124 146.01875 39.01875Q145.14375 38.034374 145.12813 36.1125L145.12813 29.2375L146.94063 29.2375L146.94063 36.065624Q146.94063 38.45625 148.89375 38.45625Q150.95625 38.45625 151.64375 36.925L151.64375 29.2375L153.45625 29.2375L153.45625 39.8L151.7375 39.8L151.69063 38.753124ZM166.26875 30.846874Q165.8625 30.784374 165.39375 30.784374Q163.6125 30.784374 162.97188 32.3L162.97188 39.8L161.175 39.8L161.175 29.2375L162.925 29.2375L162.95625 30.45625Q163.84688 29.034374 165.47188 29.034374Q166.00313 29.034374 166.26875 29.175L166.26875 30.846874ZM174.69063 39.8Q174.53438 39.4875 174.44063 38.690624Q173.175 40.003124 171.425 40.003124Q169.8625 40.003124 168.8625 39.1125Q167.8625 38.221874 167.8625 36.8625Q167.8625 35.221874 169.1125 34.315624Q170.37813 33.39375 172.64375 33.39375L174.40938 33.39375L174.40938 32.565624Q174.40938 31.6125 173.83125 31.05Q173.26875 30.4875 172.175 30.4875Q171.20625 30.4875 170.55 30.9875Q169.89375 31.471874 169.89375 32.159374L168.08125 32.159374Q168.08125 31.378124 168.64375 30.64375Q169.20625 29.89375 170.15938 29.471874Q171.12813 29.034374 172.28438 29.034374Q174.1125 29.034374 175.14375 29.95625Q176.175 30.8625 176.22188 32.471874L176.22188 37.33125Q176.22188 38.784374 176.58125 39.64375L176.58125 39.8L174.69063 39.8ZM171.69063 38.425Q172.55 38.425 173.3 37.9875Q174.06563 37.55 174.40938 36.846874L174.40938 34.675L172.9875 34.675Q169.675 34.675 169.675 36.6125Q169.675 37.471874 170.2375 37.95625Q170.8 38.425 171.69063 38.425ZM181.6125 26.675L181.6125 29.2375L183.59688 29.2375L183.59688 30.628124L181.6125 30.628124L181.6125 37.175Q181.6125 37.815624 181.87813 38.14375Q182.14375 38.45625 182.78438 38.45625Q183.09688 38.45625 183.64375 38.33125L183.64375 39.8Q182.925 40.003124 182.25313 40.003124Q181.05 40.003124 180.425 39.26875Q179.81563 38.534374 179.81563 37.175L179.81563 30.628124L177.89375 30.628124L177.89375 29.2375L179.81563 29.2375L179.81563 26.675L181.6125 26.675ZM190.55 40.003124Q188.40938 40.003124 187.05 38.596874Q185.70625 37.175 185.70625 34.815624L185.70625 34.471874Q185.70625 32.909374 186.3 31.675Q186.90938 30.440624 187.9875 29.7375Q189.06563 29.034374 190.33125 29.034374Q192.39375 29.034374 193.53438 30.39375Q194.675 31.753124 194.675 34.284374L194.675 35.034374L187.51875 35.034374Q187.55 36.596874 188.425 37.565624Q189.3 38.51875 190.64375 38.51875Q191.6125 38.51875 192.26875 38.128124Q192.94063 37.7375 193.44063 37.096874L194.53438 37.95625Q193.20625 40.003124 190.55 40.003124ZM190.33125 30.51875Q189.2375 30.51875 188.4875 31.315624Q187.75313 32.1125 187.58125 33.55L192.8625 33.55L192.8625 33.409374Q192.78438 32.034374 192.1125 31.284374Q191.45625 30.51875 190.33125 30.51875ZM205.62813 37.159374L208.08125 29.2375L210.01875 29.2375L205.76875 41.425Q204.78438 44.065624 202.64375 44.065624L202.3 44.034374L201.62813 43.909374L201.62813 42.440624L202.1125 42.4875Q203.03438 42.4875 203.53438 42.1125Q204.05 41.7375 204.37813 40.753124L204.78438 39.675L201.01875 29.2375L202.9875 29.2375L205.62813 37.159374ZM210.69063 34.425Q210.69063 32.8625 211.3 31.628124Q211.90938 30.378124 212.9875 29.70625Q214.08125 29.034374 215.4875 29.034374Q217.64375 29.034374 218.97188 30.534374Q220.31563 32.01875 220.31563 34.503124L220.31563 34.628124Q220.31563 36.175 219.72188 37.409374Q219.12813 38.628124 218.01875 39.315624Q216.925 40.003124 215.50313 40.003124Q213.3625 40.003124 212.01875 38.503124Q210.69063 37.003124 210.69063 34.55L210.69063 34.425ZM212.50313 34.628124Q212.50313 36.39375 213.31563 37.45625Q214.14375 38.51875 215.50313 38.51875Q216.87813 38.51875 217.69063 37.440624Q218.50313 36.3625 218.50313 34.425Q218.50313 32.675 217.675 31.596874Q216.84688 30.51875 215.4875 30.51875Q214.14375 30.51875 213.31563 31.58125Q212.50313 32.64375 212.50313 34.628124ZM228.69063 38.753124Q227.64375 40.003124 225.59688 40.003124Q223.90938 40.003124 223.01875 39.01875Q222.14375 38.034374 222.12813 36.1125L222.12813 29.2375L223.94063 29.2375L223.94063 36.065624Q223.94063 38.45625 225.89375 38.45625Q227.95625 38.45625 228.64375 36.925L228.64375 29.2375L230.45625 29.2375L230.45625 39.8L228.7375 39.8L228.69063 38.753124ZM238.26875 30.846874Q237.8625 30.784374 237.39375 30.784374Q235.6125 30.784374 234.97188 32.3L234.97188 39.8L233.175 39.8L233.175 29.2375L234.925 29.2375L234.95625 30.45625Q235.84688 29.034374 237.47188 29.034374Q238.00313 29.034374 238.26875 29.175L238.26875 30.846874ZM250.65938 34.05L247.33125 34.05L247.33125 39.8L245.44063 39.8L245.44063 25.58125L250.14375 25.58125Q252.55 25.58125 253.84688 26.675Q255.14375 27.76875 255.14375 29.8625Q255.14375 31.190624 254.425 32.175Q253.70625 33.159374 252.425 33.64375L255.76875 39.675L255.76875 39.8L253.75313 39.8L250.65938 34.05ZM247.33125 32.51875L250.20625 32.51875Q251.59688 32.51875 252.425 31.8Q253.25313 31.065624 253.25313 29.8625Q253.25313 28.534374 252.45625 27.83125Q251.675 27.128124 250.19063 27.128124L247.33125 27.128124L247.33125 32.51875ZM263.6906 38.753124Q262.64374 40.003124 260.59686 40.003124Q258.90936 40.003124 258.01874 39.01875Q257.14374 38.034374 257.1281 36.1125L257.1281 29.2375L258.9406 29.2375L258.9406 36.065624Q258.9406 38.45625 260.89374 38.45625Q262.95624 38.45625 263.64374 36.925L263.64374 29.2375L265.45624 29.2375L265.45624 39.8L263.7375 39.8L263.6906 38.753124ZM274.3156 37.003124Q274.3156 36.26875 273.76874 35.8625Q273.22186 35.45625 271.84686 35.159374Q270.47186 34.8625 269.65936 34.45625Q268.8625 34.05 268.47186 33.4875Q268.09686 32.909374 268.09686 32.128124Q268.09686 30.83125 269.1906 29.940624Q270.28436 29.034374 272.0031 29.034374Q273.8 29.034374 274.90936 29.971874Q276.03436 30.89375 276.03436 32.33125L274.20624 32.33125Q274.20624 31.596874 273.58124 31.065624Q272.95624 30.51875 272.0031 30.51875Q271.0031 30.51875 270.4406 30.95625Q269.89374 31.378124 269.89374 32.08125Q269.89374 32.721874 270.40936 33.065624Q270.925 33.39375 272.28436 33.70625Q273.64374 34.003124 274.47186 34.425Q275.3156 34.83125 275.72186 35.425Q276.1281 36.01875 276.1281 36.8625Q276.1281 38.284374 274.9875 39.14375Q273.8625 40.003124 272.05 40.003124Q270.78436 40.003124 269.8 39.55Q268.83124 39.096874 268.26874 38.3Q267.72186 37.4875 267.72186 36.55L269.53436 36.55Q269.58124 37.45625 270.2531 37.9875Q270.9406 38.51875 272.05 38.51875Q273.08124 38.51875 273.6906 38.1125Q274.3156 37.690624 274.3156 37.003124ZM280.6125 26.675L280.6125 29.2375L282.59686 29.2375L282.59686 30.628124L280.6125 30.628124L280.6125 37.175Q280.6125 37.815624 280.8781 38.14375Q281.14374 38.45625 281.78436 38.45625Q282.09686 38.45625 282.64374 38.33125L282.64374 39.8Q281.925 40.003124 281.2531 40.003124Q280.05 40.003124 279.425 39.26875Q278.8156 38.534374 278.8156 37.175L278.8156 30.628124L276.89374 30.628124L276.89374 29.2375L278.8156 29.2375L278.8156 26.675L280.6125 26.675ZM294.55 40.003124Q292.40936 40.003124 291.05 38.596874Q289.70624 37.175 289.70624 34.815624L289.70624 34.471874Q289.70624 32.909374 290.3 31.675Q290.90936 30.440624 291.9875 29.7375Q293.0656 29.034374 294.33124 29.034374Q296.39374 29.034374 297.53436 30.39375Q298.675 31.753124 298.675 34.284374L298.675 35.034374L291.51874 35.034374Q291.55 36.596874 292.425 37.565624Q293.3 38.51875 294.64374 38.51875Q295.6125 38.51875 296.26874 38.128124Q296.9406 37.7375 297.4406 37.096874L298.53436 37.95625Q297.20624 40.003124 294.55 40.003124ZM294.33124 30.51875Q293.2375 30.51875 292.4875 31.315624Q291.7531 32.1125 291.58124 33.55L296.8625 33.55L296.8625 33.409374Q296.78436 32.034374 296.1125 31.284374Q295.45624 30.51875 294.33124 30.51875ZM304.70624 33.096874L307.05 29.2375L309.15936 29.2375L305.70624 34.45625L309.26874 39.8L307.1906 39.8L304.7375 35.846874L302.3 39.8L300.20624 39.8L303.76874 34.45625L300.3156 29.2375L302.39374 29.2375L304.70624 33.096874ZM320.09686 34.628124Q320.09686 37.05 318.9875 38.534374Q317.89374 40.003124 316.0031 40.003124Q314.08124 40.003124 312.97186 38.76875L312.97186 43.8625L311.175 43.8625L311.175 29.2375L312.8156 29.2375L312.90936 30.409374Q314.0031 29.034374 315.97186 29.034374Q317.8781 29.034374 318.9875 30.471874Q320.09686 31.909374 320.09686 34.471874L320.09686 34.628124ZM318.28436 34.425Q318.28436 32.64375 317.51874 31.6125Q316.76874 30.565624 315.4406 30.565624Q313.8 30.565624 312.97186 32.01875L312.97186 37.08125Q313.78436 38.51875 315.45624 38.51875Q316.7531 38.51875 317.51874 37.4875Q318.28436 36.45625 318.28436 34.425ZM326.55 40.003124Q324.40936 40.003124 323.05 38.596874Q321.70624 37.175 321.70624 34.815624L321.70624 34.471874Q321.70624 32.909374 322.3 31.675Q322.90936 30.440624 323.9875 29.7375Q325.0656 29.034374 326.33124 29.034374Q328.39374 29.034374 329.53436 30.39375Q330.675 31.753124 330.675 34.284374L330.675 35.034374L323.51874 35.034374Q323.55 36.596874 324.425 37.565624Q325.3 38.51875 326.64374 38.51875Q327.6125 38.51875 328.26874 38.128124Q328.9406 37.7375 329.4406 37.096874L330.53436 37.95625Q329.20624 40.003124 326.55 40.003124ZM326.33124 30.51875Q325.2375 30.51875 324.4875 31.315624Q323.7531 32.1125 323.58124 33.55L328.8625 33.55L328.8625 33.409374Q328.78436 32.034374 328.1125 31.284374Q327.45624 30.51875 326.33124 30.51875ZM338.26874 30.846874Q337.8625 30.784374 337.39374 30.784374Q335.6125 30.784374 334.97186 32.3L334.97186 39.8L333.175 39.8L333.175 29.2375L334.925 29.2375L334.95624 30.45625Q335.84686 29.034374 337.47186 29.034374Q338.0031 29.034374 338.26874 29.175L338.26874 30.846874ZM342.6125 26.675L342.6125 29.2375L344.59686 29.2375L344.59686 30.628124L342.6125 30.628124L342.6125 37.175Q342.6125 37.815624 342.8781 38.14375Q343.14374 38.45625 343.78436 38.45625Q344.09686 38.45625 344.64374 38.33125L344.64374 39.8Q343.925 40.003124 343.2531 40.003124Q342.05 40.003124 341.425 39.26875Q340.8156 38.534374 340.8156 37.175L340.8156 30.628124L338.89374 30.628124L338.89374 29.2375L340.8156 29.2375L340.8156 26.675L342.6125 26.675ZM349.1281 39.8L347.33124 39.8L347.33124 29.2375L349.1281 29.2375L349.1281 39.8ZM347.175 26.425Q347.175 25.9875 347.4406 25.690624Q347.72186 25.378124 348.2375 25.378124Q348.76874 25.378124 349.03436 25.690624Q349.3156 25.9875 349.3156 26.425Q349.3156 26.8625 349.03436 27.159374Q348.76874 27.45625 348.2375 27.45625Q347.72186 27.45625 347.4406 27.159374Q347.175 26.8625 347.175 26.425ZM358.3156 37.003124Q358.3156 36.26875 357.76874 35.8625Q357.22186 35.45625 355.84686 35.159374Q354.47186 34.8625 353.65936 34.45625Q352.8625 34.05 352.47186 33.4875Q352.09686 32.909374 352.09686 32.128124Q352.09686 30.83125 353.1906 29.940624Q354.28436 29.034374 356.0031 29.034374Q357.8 29.034374 358.90936 29.971874Q360.03436 30.89375 360.03436 32.33125L358.20624 32.33125Q358.20624 31.596874 357.58124 31.065624Q356.95624 30.51875 356.0031 30.51875Q355.0031 30.51875 354.4406 30.95625Q353.89374 31.378124 353.89374 32.08125Q353.89374 32.721874 354.40936 33.065624Q354.925 33.39375 356.28436 33.70625Q357.64374 34.003124 358.47186 34.425Q359.3156 34.83125 359.72186 35.425Q360.1281 36.01875 360.1281 36.8625Q360.1281 38.284374 358.9875 39.14375Q357.8625 40.003124 356.05 40.003124Q354.78436 40.003124 353.8 39.55Q352.83124 39.096874 352.26874 38.3Q351.72186 37.4875 351.72186 36.55L353.53436 36.55Q353.58124 37.45625 354.2531 37.9875Q354.9406 38.51875 356.05 38.51875Q357.08124 38.51875 357.6906 38.1125Q358.3156 37.690624 358.3156 37.003124ZM366.55 40.003124Q364.40936 40.003124 363.05 38.596874Q361.70624 37.175 361.70624 34.815624L361.70624 34.471874Q361.70624 32.909374 362.3 31.675Q362.90936 30.440624 363.9875 29.7375Q365.0656 29.034374 366.33124 29.034374Q368.39374 29.034374 369.53436 30.39375Q370.675 31.753124 370.675 34.284374L370.675 35.034374L363.51874 35.034374Q363.55 36.596874 364.425 37.565624Q365.3 38.51875 366.64374 38.51875Q367.6125 38.51875 368.26874 38.128124Q368.9406 37.7375 369.4406 37.096874L370.53436 37.95625Q369.20624 40.003124 366.55 40.003124ZM366.33124 30.51875Q365.2375 30.51875 364.4875 31.315624Q363.7531 32.1125 363.58124 33.55L368.8625 33.55L368.8625 33.409374Q368.78436 32.034374 368.1125 31.284374Q367.45624 30.51875 366.33124 30.51875ZM375.28436 35.8Q375.3 34.628124 375.55 33.95625Q375.8 33.284374 376.55 32.471874L377.83124 31.14375Q378.64374 30.221874 378.64374 29.159374Q378.64374 28.128124 378.09686 27.55Q377.5656 26.971874 376.55 26.971874Q375.55 26.971874 374.9406 27.503124Q374.34686 28.01875 374.34686 28.909374L372.53436 28.909374Q372.55 27.33125 373.65936 26.3625Q374.76874 25.378124 376.55 25.378124Q378.39374 25.378124 379.425 26.378124Q380.45624 27.3625 380.45624 29.096874Q380.45624 30.8 378.8781 32.471874L377.8 33.51875Q377.09686 34.315624 377.09686 35.8L375.28436 35.8ZM375.20624 38.89375Q375.20624 38.45625 375.47186 38.159374Q375.7531 37.8625 376.26874 37.8625Q376.8 37.8625 377.0656 38.159374Q377.34686 38.45625 377.34686 38.89375Q377.34686 39.33125 377.0656 39.628124Q376.8 39.909374 376.26874 39.909374Q375.7531 39.909374 375.47186 39.628124Q375.20624 39.33125 375.20624 38.89375Z" fill-rule="nonzero"/></svg>