<svg version="1.1" viewBox="0.0 0.0 742.0 451.0" fill="none" stroke="none" stroke-linecap="square" stroke-miterlimit="10" width="742" height="451" xmlns:xlink="http://www.w3.org/1999/xlink" xmlns="http://www.w3.org/2000/svg"><path fill="#ffffff" d="M0 0L742.0 0L742.0 451.0L0 451.0L0 0Z" fill-rule="nonzero"/><path fill="#4472c4" d="M371.0 102.855835C397.02774 102.855835 422.75748 106.73313 446.47958 114.230095L371.0 231.25917Z" fill-rule="nonzero"/><path fill="#ffc000" d="M191.69424 204.17331C209.91896 145.0568 284.60376 102.855835 371.0 102.855835L371.0 231.25917Z" fill-rule="nonzero"/><path fill="#747474" d="M188.78929 273.5746C187.97488 268.6617 187.56667 263.72 187.56667 258.77417L187.56667 231.25917C187.56667 236.205 187.97488 241.14671 188.78929 246.05959Z" fill-rule="nonzero"/><path fill="#a5a5a5" d="M188.78929 246.05959C186.47197 232.0804 187.45337 217.92963 191.69424 204.17331L371.0 231.25917Z" fill-rule="nonzero"/><path fill="#a65822" d="M554.43335 258.77417C554.43335 326.81 478.62134 383.03574 381.5894 386.96335C284.55743 390.891 199.99237 341.15692 188.78929 273.5746L188.78929 246.05959C199.99237 313.64194 284.55743 363.37598 381.5894 359.44836C478.62134 355.52072 554.43335 299.29498 554.43335 231.25917Z" fill-rule="nonzero"/><path fill="#ed7d31" d="M446.47958 114.230095C527.2766 139.76459 570.42535 202.09254 548.9905 262.30612C527.5556 322.5197 447.67142 363.38696 359.20505 359.3968C270.73865 355.4066 199.00752 307.70087 188.78929 246.05959L371.0 231.25917Z" fill-rule="nonzero"/><path fill="#1a1a1a" d="M24.753124 131.84154L23.628124 131.84154L23.628124 123.31029L24.753124 123.31029L24.753124 131.84154ZM29.1125 128.62279Q29.1125 127.15404 29.8 126.27904Q30.4875 125.38841 31.6125 125.38841Q32.721874 125.38841 33.378124 126.13841L33.378124 122.84154L34.45625 122.84154L34.45625 131.84154L33.45625 131.84154L33.409374 131.15404Q32.753124 131.96654 31.596874 131.96654Q30.503124 131.96654 29.8 131.06029Q29.1125 130.15404 29.1125 128.70091L29.1125 128.62279ZM30.190624 128.74779Q30.190624 129.82591 30.628124 130.43529Q31.08125 131.04466 31.8625 131.04466Q32.89375 131.04466 33.378124 130.10716L33.378124 127.20091Q32.89375 126.31029 31.878124 126.31029Q31.08125 126.31029 30.628124 126.91966Q30.190624 127.52904 30.190624 128.74779ZM36.08125 128.60716Q36.08125 127.68529 36.440624 126.93529Q36.815624 126.18529 37.471874 125.79466Q38.128124 125.38841 38.95625 125.38841Q40.253124 125.38841 41.05 126.27904Q41.8625 127.16966 41.8625 128.66966L41.8625 128.74779Q41.8625 129.66966 41.503124 130.40404Q41.14375 131.13841 40.4875 131.56029Q39.83125 131.96654 38.971874 131.96654Q37.690624 131.96654 36.878124 131.07591Q36.08125 130.16966 36.08125 128.68529L36.08125 128.60716ZM37.175 128.74779Q37.175 129.79466 37.659374 130.43529Q38.159374 131.07591 38.971874 131.07591Q39.8 131.07591 40.284374 130.43529Q40.76875 129.77904 40.76875 128.60716Q40.76875 127.57591 40.26875 126.93529Q39.784374 126.27904 38.95625 126.27904Q38.159374 126.27904 37.659374 126.91966Q37.175 127.54466 37.175 128.74779ZM44.39375 125.49779L44.425 126.29466Q45.159374 125.38841 46.33125 125.38841Q48.346874 125.38841 48.3625 127.65404L48.3625 131.84154L47.26875 131.84154L47.26875 127.63841Q47.26875 126.96654 46.95625 126.63841Q46.659374 126.31029 46.003124 126.31029Q45.471874 126.31029 45.065624 126.59154Q44.675 126.87279 44.45625 127.32591L44.45625 131.84154L43.378124 131.84154L43.378124 125.49779L44.39375 125.49779ZM51.034374 123.49779L50.909374 125.65404L50.159374 125.65404L50.159374 122.84154L51.034374 122.84154L51.034374 123.49779ZM53.846874 123.96654L53.846874 125.49779L55.01875 125.49779L55.01875 126.34154L53.846874 126.34154L53.846874 130.26341Q53.846874 130.65404 54.003124 130.84154Q54.159374 131.02904 54.534374 131.02904Q54.721874 131.02904 55.05 130.96654L55.05 131.84154Q54.628124 131.96654 54.221874 131.96654Q53.503124 131.96654 53.128124 131.52904Q52.753124 131.07591 52.753124 130.26341L52.753124 126.34154L51.596874 126.34154L51.596874 125.49779L52.753124 125.49779L52.753124 123.96654L53.846874 123.96654ZM61.14375 128.90404L60.45625 129.60716L60.45625 131.84154L59.378124 131.84154L59.378124 122.84154L60.45625 122.84154L60.45625 128.27904L61.034374 127.59154L63.01875 125.49779L64.33125 125.49779L61.8625 128.15404L64.62813 131.84154L63.346874 131.84154L61.14375 128.90404ZM66.39375 125.49779L66.425 126.29466Q67.15938 125.38841 68.33125 125.38841Q70.34688 125.38841 70.3625 127.65404L70.3625 131.84154L69.26875 131.84154L69.26875 127.63841Q69.26875 126.96654 68.95625 126.63841Q68.65938 126.31029 68.00313 126.31029Q67.47188 126.31029 67.06563 126.59154Q66.675 126.87279 66.45625 127.32591L66.45625 131.84154L65.37813 131.84154L65.37813 125.49779L66.39375 125.49779ZM72.08125 128.60716Q72.08125 127.68529 72.44063 126.93529Q72.81563 126.18529 73.47188 125.79466Q74.12813 125.38841 74.95625 125.38841Q76.25313 125.38841 77.05 126.27904Q77.8625 127.16966 77.8625 128.66966L77.8625 128.74779Q77.8625 129.66966 77.50313 130.40404Q77.14375 131.13841 76.4875 131.56029Q75.83125 131.96654 74.97188 131.96654Q73.69063 131.96654 72.87813 131.07591Q72.08125 130.16966 72.08125 128.68529L72.08125 128.60716ZM73.175 128.74779Q73.175 129.79466 73.65938 130.43529Q74.15938 131.07591 74.97188 131.07591Q75.8 131.07591 76.28438 130.43529Q76.76875 129.77904 76.76875 128.60716Q76.76875 127.57591 76.26875 126.93529Q75.78438 126.27904 74.95625 126.27904Q74.15938 126.27904 73.65938 126.91966Q73.175 127.54466 73.175 128.74779ZM84.9875 130.34154L86.20625 125.49779L87.28438 125.49779L85.44063 131.84154L84.56563 131.84154L83.01875 127.02904L81.51875 131.84154L80.64375 131.84154L78.8 125.49779L79.87813 125.49779L81.12813 130.24779L82.6125 125.49779L83.47188 125.49779L84.9875 130.34154Z" fill-rule="nonzero"/><path fill="#9e9e9e" d="M28.846874 149.84154L23.253124 149.84154L23.253124 149.06029L26.20625 145.77904Q26.8625 145.02904 27.1125 144.57591Q27.3625 144.10716 27.3625 143.60716Q27.3625 142.93529 26.95625 142.51341Q26.565624 142.07591 25.878124 142.07591Q25.08125 142.07591 24.628124 142.54466Q24.175 142.99779 24.175 143.82591L23.096874 143.82591Q23.096874 142.63841 23.846874 141.91966Q24.6125 141.18529 25.878124 141.18529Q27.08125 141.18529 27.76875 141.81029Q28.45625 142.43529 28.45625 143.48216Q28.45625 144.73216 26.846874 146.48216L24.565624 148.95091L28.846874 148.95091L28.846874 149.84154ZM33.815624 149.84154L32.7375 149.84154L32.7375 142.62279L30.55 143.41966L30.55 142.43529L33.659374 141.26341L33.815624 141.26341L33.815624 149.84154ZM37.39375 149.27904Q37.39375 148.99779 37.55 148.81029Q37.721874 148.62279 38.05 148.62279Q38.39375 148.62279 38.565624 148.81029Q38.7375 148.99779 38.7375 149.27904Q38.7375 149.54466 38.565624 149.73216Q38.39375 149.90404 38.05 149.90404Q37.721874 149.90404 37.55 149.73216Q37.39375 149.54466 37.39375 149.27904ZM44.51875 141.31029L44.51875 142.21654L44.315624 142.21654Q43.05 142.24779 42.3 142.98216Q41.55 143.70091 41.425 145.01341Q42.1125 144.24779 43.26875 144.24779Q44.378124 144.24779 45.05 145.02904Q45.721874 145.81029 45.721874 147.06029Q45.721874 148.37279 45.003124 149.16966Q44.284374 149.96654 43.065624 149.96654Q41.846874 149.96654 41.08125 149.02904Q40.33125 148.07591 40.33125 146.59154L40.33125 146.18529Q40.33125 143.82591 41.33125 142.57591Q42.33125 141.32591 44.315624 141.31029L44.51875 141.31029ZM43.096874 145.15404Q42.534374 145.15404 42.065624 145.48216Q41.596874 145.81029 41.409374 146.32591L41.409374 146.71654Q41.409374 147.77904 41.878124 148.41966Q42.3625 149.06029 43.065624 149.06029Q43.8 149.06029 44.221874 148.52904Q44.64375 147.98216 44.64375 147.10716Q44.64375 146.23216 44.221874 145.70091Q43.8 145.15404 43.096874 145.15404ZM47.159374 142.95091Q47.159374 142.18529 47.64375 141.68529Q48.14375 141.18529 48.909374 141.18529Q49.690624 141.18529 50.175 141.68529Q50.659374 142.18529 50.659374 142.98216L50.659374 143.40404Q50.659374 144.16966 50.159374 144.66966Q49.675 145.15404 48.925 145.15404Q48.159374 145.15404 47.659374 144.66966Q47.159374 144.16966 47.159374 143.35716L47.159374 142.95091ZM47.971874 143.40404Q47.971874 143.85716 48.221874 144.15404Q48.4875 144.45091 48.925 144.45091Q49.346874 144.45091 49.596874 144.16966Q49.846874 143.87279 49.846874 143.37279L49.846874 142.95091Q49.846874 142.49779 49.596874 142.20091Q49.346874 141.88841 48.909374 141.88841Q48.471874 141.88841 48.221874 142.20091Q47.971874 142.49779 47.971874 142.96654L47.971874 143.40404ZM51.315624 147.74779Q51.315624 146.98216 51.8 146.49779Q52.3 145.99779 53.065624 145.99779Q53.83125 145.99779 54.315624 146.49779Q54.815624 146.98216 54.815624 147.79466L54.815624 148.20091Q54.815624 148.96654 54.33125 149.46654Q53.846874 149.96654 53.08125 149.96654Q52.315624 149.96654 51.815624 149.48216Q51.315624 148.98216 51.315624 148.16966L51.315624 147.74779ZM52.128124 148.20091Q52.128124 148.66966 52.378124 148.96654Q52.64375 149.26341 53.08125 149.26341Q53.503124 149.26341 53.753124 148.98216Q54.003124 148.68529 54.003124 148.18529L54.003124 147.74779Q54.003124 147.27904 53.7375 146.99779Q53.4875 146.70091 53.065624 146.70091Q52.64375 146.70091 52.378124 146.99779Q52.128124 147.27904 52.128124 147.77904L52.128124 148.20091ZM49.175 149.20091L48.55 148.81029L52.721874 142.13841L53.33125 142.52904L49.175 149.20091Z" fill-rule="nonzero"/><path stroke="#757575" stroke-width="1.0" stroke-linecap="butt" d="M22.55 136.34154L181.56667 136.34154L261.54367 136.34154" fill-rule="nonzero"/><path fill="#9e9e9e" d="M263.54367 136.34154C263.54367 135.23697 262.64822 134.34154 261.54367 134.34154C260.4391 134.34154 259.54367 135.23697 259.54367 136.34154C259.54367 137.44612 260.4391 138.34154 261.54367 138.34154C262.64822 138.34154 263.54367 137.44612 263.54367 136.34154" fill-rule="nonzero"/><path fill="#1a1a1a" d="M30.096874 220.8442L28.971874 220.8442L24.675 214.26607L24.675 220.8442L23.534374 220.8442L23.534374 212.31294L24.675 212.31294L28.971874 218.92232L28.971874 212.31294L30.096874 212.31294L30.096874 220.8442ZM32.08125 217.60982Q32.08125 216.68794 32.440624 215.93794Q32.815624 215.18794 33.471874 214.79732Q34.128124 214.39107 34.95625 214.39107Q36.253124 214.39107 37.05 215.2817Q37.8625 216.17232 37.8625 217.67232L37.8625 217.75044Q37.8625 218.67232 37.503124 219.4067Q37.14375 220.14107 36.4875 220.56294Q35.83125 220.9692 34.971874 220.9692Q33.690624 220.9692 32.878124 220.07857Q32.08125 219.17232 32.08125 217.68794L32.08125 217.60982ZM33.175 217.75044Q33.175 218.79732 33.659374 219.43794Q34.159374 220.07857 34.971874 220.07857Q35.8 220.07857 36.284374 219.43794Q36.76875 218.7817 36.76875 217.60982Q36.76875 216.57857 36.26875 215.93794Q35.784374 215.2817 34.95625 215.2817Q34.159374 215.2817 33.659374 215.92232Q33.175 216.54732 33.175 217.75044ZM40.39375 214.50044L40.425 215.29732Q41.159374 214.39107 42.33125 214.39107Q44.346874 214.39107 44.3625 216.6567L44.3625 220.8442L43.26875 220.8442L43.26875 216.64107Q43.26875 215.9692 42.95625 215.64107Q42.659374 215.31294 42.003124 215.31294Q41.471874 215.31294 41.065624 215.5942Q40.675 215.87544 40.45625 216.32857L40.45625 220.8442L39.378124 220.8442L39.378124 214.50044L40.39375 214.50044ZM49.003124 220.9692Q47.70625 220.9692 46.89375 220.12544Q46.096874 219.26607 46.096874 217.8442L46.096874 217.6567Q46.096874 216.70357 46.45625 215.9692Q46.815624 215.2192 47.45625 214.81294Q48.1125 214.39107 48.8625 214.39107Q50.096874 214.39107 50.784374 215.20357Q51.471874 216.01607 51.471874 217.5317L51.471874 217.98482L47.175 217.98482Q47.20625 218.92232 47.721874 219.50044Q48.253124 220.07857 49.065624 220.07857Q49.628124 220.07857 50.01875 219.8442Q50.425 219.60982 50.7375 219.2192L51.39375 219.73482Q50.596874 220.9692 49.003124 220.9692ZM48.8625 215.2817Q48.20625 215.2817 47.753124 215.76607Q47.315624 216.23482 47.221874 217.0942L50.39375 217.0942L50.39375 217.01607Q50.346874 216.18794 49.940624 215.73482Q49.55 215.2817 48.8625 215.2817Z" fill-rule="nonzero"/><path fill="#9e9e9e" d="M23.753124 234.56294L24.190624 230.31294L28.565624 230.31294L28.565624 231.31294L25.1125 231.31294L24.846874 233.64107Q25.4875 233.26607 26.284374 233.26607Q27.440624 233.26607 28.128124 234.04732Q28.815624 234.81294 28.815624 236.12544Q28.815624 237.43794 28.096874 238.20357Q27.39375 238.9692 26.1125 238.9692Q24.9875 238.9692 24.26875 238.3442Q23.55 237.70357 23.45625 236.5942L24.471874 236.5942Q24.58125 237.32857 25.003124 237.70357Q25.425 238.07857 26.1125 238.07857Q26.8625 238.07857 27.3 237.56294Q27.7375 237.04732 27.7375 236.14107Q27.7375 235.2817 27.26875 234.76607Q26.8 234.25044 26.01875 234.25044Q25.315624 234.25044 24.909374 234.54732L24.628124 234.7817L23.753124 234.56294ZM30.39375 238.2817Q30.39375 238.00044 30.55 237.81294Q30.721874 237.62544 31.05 237.62544Q31.39375 237.62544 31.565624 237.81294Q31.7375 238.00044 31.7375 238.2817Q31.7375 238.54732 31.565624 238.73482Q31.39375 238.9067 31.05 238.9067Q30.721874 238.9067 30.55 238.73482Q30.39375 238.54732 30.39375 238.2817ZM38.846874 238.8442L33.253124 238.8442L33.253124 238.06294L36.20625 234.7817Q36.8625 234.0317 37.1125 233.57857Q37.3625 233.10982 37.3625 232.60982Q37.3625 231.93794 36.95625 231.51607Q36.565624 231.07857 35.878124 231.07857Q35.08125 231.07857 34.628124 231.54732Q34.175 232.00044 34.175 232.82857L33.096874 232.82857Q33.096874 231.64107 33.846874 230.92232Q34.6125 230.18794 35.878124 230.18794Q37.08125 230.18794 37.76875 230.81294Q38.45625 231.43794 38.45625 232.48482Q38.45625 233.73482 36.846874 235.48482L34.565624 237.95357L38.846874 237.95357L38.846874 238.8442ZM40.159374 231.95357Q40.159374 231.18794 40.64375 230.68794Q41.14375 230.18794 41.909374 230.18794Q42.690624 230.18794 43.175 230.68794Q43.659374 231.18794 43.659374 231.98482L43.659374 232.4067Q43.659374 233.17232 43.159374 233.67232Q42.675 234.1567 41.925 234.1567Q41.159374 234.1567 40.659374 233.67232Q40.159374 233.17232 40.159374 232.35982L40.159374 231.95357ZM40.971874 232.4067Q40.971874 232.85982 41.221874 233.1567Q41.4875 233.45357 41.925 233.45357Q42.346874 233.45357 42.596874 233.17232Q42.846874 232.87544 42.846874 232.37544L42.846874 231.95357Q42.846874 231.50044 42.596874 231.20357Q42.346874 230.89107 41.909374 230.89107Q41.471874 230.89107 41.221874 231.20357Q40.971874 231.50044 40.971874 231.9692L40.971874 232.4067ZM44.315624 236.75044Q44.315624 235.98482 44.8 235.50044Q45.3 235.00044 46.065624 235.00044Q46.83125 235.00044 47.315624 235.50044Q47.815624 235.98482 47.815624 236.79732L47.815624 237.20357Q47.815624 237.9692 47.33125 238.4692Q46.846874 238.9692 46.08125 238.9692Q45.315624 238.9692 44.815624 238.48482Q44.315624 237.98482 44.315624 237.17232L44.315624 236.75044ZM45.128124 237.20357Q45.128124 237.67232 45.378124 237.9692Q45.64375 238.26607 46.08125 238.26607Q46.503124 238.26607 46.753124 237.98482Q47.003124 237.68794 47.003124 237.18794L47.003124 236.75044Q47.003124 236.2817 46.7375 236.00044Q46.4875 235.70357 46.065624 235.70357Q45.64375 235.70357 45.378124 236.00044Q45.128124 236.2817 45.128124 236.7817L45.128124 237.20357ZM42.175 238.20357L41.55 237.81294L45.721874 231.14107L46.33125 231.5317L42.175 238.20357Z" fill-rule="nonzero"/><path stroke="#757575" stroke-width="1.0" stroke-linecap="butt" d="M22.55 225.3442L181.56667 225.3442L196.94333 225.3442" fill-rule="nonzero"/><path fill="#9e9e9e" d="M198.94333 225.3442C198.94333 224.23962 198.0479 223.3442 196.94333 223.3442C195.83876 223.3442 194.94333 224.23962 194.94333 225.3442C194.94333 226.44876 195.83876 227.3442 196.94333 227.3442C198.0479 227.3442 198.94333 226.44876 198.94333 225.3442" fill-rule="nonzero"/><path fill="#1a1a1a" d="M694.8875 98.97673L697.6844 105.929855L700.46564 98.97673L701.9344 98.97673L701.9344 107.50798L700.8094 107.50798L700.8094 104.179855L700.91876 100.60173L698.10626 107.50798L697.2469 107.50798L694.45 100.617355L694.5594 104.179855L694.5594 107.50798L693.4344 107.50798L693.4344 98.97673L694.8875 98.97673ZM702.98126 104.273605Q702.98126 103.35173 703.34064 102.60173Q703.71564 101.85173 704.3719 101.461105Q705.02814 101.054855 705.85626 101.054855Q707.15314 101.054855 707.95 101.94548Q708.7625 102.836105 708.7625 104.336105L708.7625 104.41423Q708.7625 105.336105 708.40314 106.07048Q708.04376 106.804855 707.3875 107.22673Q706.73126 107.63298 705.8719 107.63298Q704.59064 107.63298 703.77814 106.742355Q702.98126 105.836105 702.98126 104.35173L702.98126 104.273605ZM704.075 104.41423Q704.075 105.461105 704.5594 106.10173Q705.0594 106.742355 705.8719 106.742355Q706.7 106.742355 707.1844 106.10173Q707.66876 105.44548 707.66876 104.273605Q707.66876 103.242355 707.16876 102.60173Q706.6844 101.94548 705.85626 101.94548Q705.0594 101.94548 704.5594 102.586105Q704.075 103.211105 704.075 104.41423ZM713.96564 105.82048Q713.96564 105.38298 713.6219 105.148605Q713.29376 104.898605 712.46564 104.72673Q711.65314 104.554855 711.16876 104.304855Q710.6844 104.054855 710.45 103.72673Q710.23126 103.38298 710.23126 102.91423Q710.23126 102.13298 710.8875 101.60173Q711.54376 101.054855 712.575 101.054855Q713.65314 101.054855 714.3094 101.617355Q714.98126 102.16423 714.98126 103.023605L713.90314 103.023605Q713.90314 102.586105 713.5125 102.273605Q713.1375 101.94548 712.575 101.94548Q711.98126 101.94548 711.6375 102.211105Q711.3094 102.461105 711.3094 102.867355Q711.3094 103.25798 711.6219 103.461105Q711.9344 103.66423 712.7469 103.85173Q713.5594 104.023605 714.0594 104.273605Q714.5594 104.523605 714.79376 104.88298Q715.04376 105.242355 715.04376 105.742355Q715.04376 106.60173 714.35626 107.117355Q713.6844 107.63298 712.60626 107.63298Q711.84064 107.63298 711.2469 107.367355Q710.66876 107.086105 710.34064 106.60173Q710.0125 106.117355 710.0125 105.554855L711.09064 105.554855Q711.1219 106.10173 711.52814 106.429855Q711.9344 106.742355 712.60626 106.742355Q713.21564 106.742355 713.59064 106.492355Q713.96564 106.242355 713.96564 105.82048ZM717.7469 99.63298L717.7469 101.16423L718.91876 101.16423L718.91876 102.00798L717.7469 102.00798L717.7469 105.929855Q717.7469 106.32048 717.90314 106.50798Q718.0594 106.69548 718.4344 106.69548Q718.6219 106.69548 718.95 106.63298L718.95 107.50798Q718.52814 107.63298 718.1219 107.63298Q717.40314 107.63298 717.02814 107.19548Q716.65314 106.742355 716.65314 105.929855L716.65314 102.00798L715.4969 102.00798L715.4969 101.16423L716.65314 101.16423L716.65314 99.63298L717.7469 99.63298Z" fill-rule="nonzero"/><path fill="#9e9e9e" d="M698.41876 116.97673L698.41876 117.88298L698.21564 117.88298Q696.95 117.91423 696.2 118.648605Q695.45 119.367355 695.325 120.679855Q696.0125 119.91423 697.16876 119.91423Q698.27814 119.91423 698.95 120.69548Q699.6219 121.47673 699.6219 122.72673Q699.6219 124.03923 698.90314 124.836105Q698.1844 125.63298 696.96564 125.63298Q695.7469 125.63298 694.98126 124.69548Q694.23126 123.742355 694.23126 122.25798L694.23126 121.85173Q694.23126 119.492355 695.23126 118.242355Q696.23126 116.992355 698.21564 116.97673L698.41876 116.97673ZM696.9969 120.82048Q696.4344 120.82048 695.96564 121.148605Q695.4969 121.47673 695.3094 121.992355L695.3094 122.38298Q695.3094 123.44548 695.77814 124.086105Q696.2625 124.72673 696.96564 124.72673Q697.7 124.72673 698.1219 124.19548Q698.54376 123.648605 698.54376 122.773605Q698.54376 121.898605 698.1219 121.367355Q697.7 120.82048 696.9969 120.82048ZM701.29376 124.94548Q701.29376 124.66423 701.45 124.47673Q701.6219 124.28923 701.95 124.28923Q702.29376 124.28923 702.46564 124.47673Q702.6375 124.66423 702.6375 124.94548Q702.6375 125.211105 702.46564 125.398605Q702.29376 125.57048 701.95 125.57048Q701.6219 125.57048 701.45 125.398605Q701.29376 125.211105 701.29376 124.94548ZM709.66876 117.586105L706.1375 125.50798L704.9969 125.50798L708.5125 117.867355L703.90314 117.867355L703.90314 116.97673L709.66876 116.97673L709.66876 117.586105ZM711.0594 118.617355Q711.0594 117.85173 711.54376 117.35173Q712.04376 116.85173 712.8094 116.85173Q713.59064 116.85173 714.075 117.35173Q714.5594 117.85173 714.5594 118.648605L714.5594 119.07048Q714.5594 119.836105 714.0594 120.336105Q713.575 120.82048 712.825 120.82048Q712.0594 120.82048 711.5594 120.336105Q711.0594 119.836105 711.0594 119.023605L711.0594 118.617355ZM711.8719 119.07048Q711.8719 119.523605 712.1219 119.82048Q712.3875 120.117355 712.825 120.117355Q713.2469 120.117355 713.4969 119.836105Q713.7469 119.53923 713.7469 119.03923L713.7469 118.617355Q713.7469 118.16423 713.4969 117.867355Q713.2469 117.554855 712.8094 117.554855Q712.3719 117.554855 712.1219 117.867355Q711.8719 118.16423 711.8719 118.63298L711.8719 119.07048ZM715.21564 123.41423Q715.21564 122.648605 715.7 122.16423Q716.2 121.66423 716.96564 121.66423Q717.73126 121.66423 718.21564 122.16423Q718.71564 122.648605 718.71564 123.461105L718.71564 123.867355Q718.71564 124.63298 718.23126 125.13298Q717.7469 125.63298 716.98126 125.63298Q716.21564 125.63298 715.71564 125.148605Q715.21564 124.648605 715.21564 123.836105L715.21564 123.41423ZM716.02814 123.867355Q716.02814 124.336105 716.27814 124.63298Q716.54376 124.929855 716.98126 124.929855Q717.40314 124.929855 717.65314 124.648605Q717.90314 124.35173 717.90314 123.85173L717.90314 123.41423Q717.90314 122.94548 717.6375 122.66423Q717.3875 122.367355 716.96564 122.367355Q716.54376 122.367355 716.27814 122.66423Q716.02814 122.94548 716.02814 123.44548L716.02814 123.867355ZM713.075 124.867355L712.45 124.47673L716.6219 117.804855L717.23126 118.19548L713.075 124.867355Z" fill-rule="nonzero"/><path stroke="#757575" stroke-width="1.0" stroke-linecap="butt" d="M719.45 112.00798L560.43335 112.00798L407.67416 112.00798" fill-rule="nonzero"/><path fill="#9e9e9e" d="M409.67416 112.00798C409.67416 110.90341 408.77875 110.00798 407.67416 110.00798C406.5696 110.00798 405.67416 110.90341 405.67416 112.00798C405.67416 113.11255 406.5696 114.00798 407.67416 114.00798C408.77875 114.00798 409.67416 113.11255 409.67416 112.00798" fill-rule="nonzero"/><path fill="#1a1a1a" d="M691.95 321.44757Q690.5125 321.0257 689.84064 320.41632Q689.1844 319.80695 689.1844 318.91632Q689.1844 317.91632 689.98126 317.26007Q690.79376 316.5882 692.09064 316.5882Q692.96564 316.5882 693.65314 316.93195Q694.34064 317.2757 694.71564 317.86945Q695.10626 318.4632 695.10626 319.18195L693.96564 319.18195Q693.96564 318.4007 693.46564 317.9632Q692.98126 317.5257 692.09064 317.5257Q691.2625 317.5257 690.79376 317.9007Q690.325 318.26007 690.325 318.9007Q690.325 319.43195 690.7625 319.79132Q691.21564 320.1507 692.27814 320.44757Q693.34064 320.74445 693.9344 321.10382Q694.54376 321.4632 694.825 321.94757Q695.1219 322.43195 695.1219 323.07257Q695.1219 324.11945 694.3094 324.74445Q693.4969 325.36945 692.15314 325.36945Q691.2625 325.36945 690.4969 325.0257Q689.7469 324.68195 689.325 324.10382Q688.91876 323.51007 688.91876 322.7757L690.04376 322.7757Q690.04376 323.54132 690.6219 323.99445Q691.2 324.44757 692.15314 324.44757Q693.04376 324.44757 693.5125 324.0882Q693.98126 323.7132 693.98126 323.0882Q693.98126 322.4632 693.54376 322.11945Q693.10626 321.7757 691.95 321.44757ZM695.98126 322.01007Q695.98126 321.0882 696.34064 320.3382Q696.71564 319.5882 697.3719 319.19757Q698.02814 318.79132 698.85626 318.79132Q700.15314 318.79132 700.95 319.68195Q701.7625 320.57257 701.7625 322.07257L701.7625 322.1507Q701.7625 323.07257 701.40314 323.80695Q701.04376 324.54132 700.3875 324.9632Q699.73126 325.36945 698.8719 325.36945Q697.59064 325.36945 696.77814 324.47882Q695.98126 323.57257 695.98126 322.0882L695.98126 322.01007ZM697.075 322.1507Q697.075 323.19757 697.5594 323.8382Q698.0594 324.47882 698.8719 324.47882Q699.7 324.47882 700.1844 323.8382Q700.66876 323.18195 700.66876 322.01007Q700.66876 320.97882 700.16876 320.3382Q699.6844 319.68195 698.85626 319.68195Q698.0594 319.68195 697.5594 320.32257Q697.075 320.94757 697.075 322.1507ZM704.29376 318.9007L704.325 319.60382Q705.0125 318.79132 706.2 318.79132Q707.52814 318.79132 708.0125 319.80695Q708.325 319.35382 708.825 319.07257Q709.34064 318.79132 710.02814 318.79132Q712.1219 318.79132 712.15314 320.99445L712.15314 325.24445L711.075 325.24445L711.075 321.05695Q711.075 320.38507 710.7625 320.05695Q710.45 319.7132 709.71564 319.7132Q709.10626 319.7132 708.7 320.07257Q708.3094 320.43195 708.2469 321.04132L708.2469 325.24445L707.16876 325.24445L707.16876 321.0882Q707.16876 319.7132 705.8094 319.7132Q704.7469 319.7132 704.35626 320.61945L704.35626 325.24445L703.2625 325.24445L703.2625 318.9007L704.29376 318.9007ZM716.90314 325.36945Q715.60626 325.36945 714.79376 324.5257Q713.9969 323.66632 713.9969 322.24445L713.9969 322.05695Q713.9969 321.10382 714.35626 320.36945Q714.71564 319.61945 715.35626 319.2132Q716.0125 318.79132 716.7625 318.79132Q717.9969 318.79132 718.6844 319.60382Q719.3719 320.41632 719.3719 321.93195L719.3719 322.38507L715.075 322.38507Q715.10626 323.32257 715.6219 323.9007Q716.15314 324.47882 716.96564 324.47882Q717.52814 324.47882 717.91876 324.24445Q718.325 324.01007 718.6375 323.61945L719.29376 324.13507Q718.4969 325.36945 716.90314 325.36945ZM716.7625 319.68195Q716.10626 319.68195 715.65314 320.16632Q715.21564 320.63507 715.1219 321.49445L718.29376 321.49445L718.29376 321.41632Q718.2469 320.5882 717.84064 320.13507Q717.45 319.68195 716.7625 319.68195Z" fill-rule="nonzero"/><path fill="#9e9e9e" d="M691.41876 334.7132L691.41876 335.61945L691.21564 335.61945Q689.95 335.6507 689.2 336.38507Q688.45 337.10382 688.325 338.41632Q689.0125 337.6507 690.16876 337.6507Q691.27814 337.6507 691.95 338.43195Q692.6219 339.2132 692.6219 340.4632Q692.6219 341.7757 691.90314 342.57257Q691.1844 343.36945 689.96564 343.36945Q688.7469 343.36945 687.98126 342.43195Q687.23126 341.47882 687.23126 339.99445L687.23126 339.5882Q687.23126 337.22882 688.23126 335.97882Q689.23126 334.72882 691.21564 334.7132L691.41876 334.7132ZM689.9969 338.55695Q689.4344 338.55695 688.96564 338.88507Q688.4969 339.2132 688.3094 339.72882L688.3094 340.11945Q688.3094 341.18195 688.77814 341.82257Q689.2625 342.4632 689.96564 342.4632Q690.7 342.4632 691.1219 341.93195Q691.54376 341.38507 691.54376 340.51007Q691.54376 339.63507 691.1219 339.10382Q690.7 338.55695 689.9969 338.55695ZM698.41876 334.7132L698.41876 335.61945L698.21564 335.61945Q696.95 335.6507 696.2 336.38507Q695.45 337.10382 695.325 338.41632Q696.0125 337.6507 697.16876 337.6507Q698.27814 337.6507 698.95 338.43195Q699.6219 339.2132 699.6219 340.4632Q699.6219 341.7757 698.90314 342.57257Q698.1844 343.36945 696.96564 343.36945Q695.7469 343.36945 694.98126 342.43195Q694.23126 341.47882 694.23126 339.99445L694.23126 339.5882Q694.23126 337.22882 695.23126 335.97882Q696.23126 334.72882 698.21564 334.7132L698.41876 334.7132ZM696.9969 338.55695Q696.4344 338.55695 695.96564 338.88507Q695.4969 339.2132 695.3094 339.72882L695.3094 340.11945Q695.3094 341.18195 695.77814 341.82257Q696.2625 342.4632 696.96564 342.4632Q697.7 342.4632 698.1219 341.93195Q698.54376 341.38507 698.54376 340.51007Q698.54376 339.63507 698.1219 339.10382Q697.7 338.55695 696.9969 338.55695ZM701.29376 342.68195Q701.29376 342.4007 701.45 342.2132Q701.6219 342.0257 701.95 342.0257Q702.29376 342.0257 702.46564 342.2132Q702.6375 342.4007 702.6375 342.68195Q702.6375 342.94757 702.46564 343.13507Q702.29376 343.30695 701.95 343.30695Q701.6219 343.30695 701.45 343.13507Q701.29376 342.94757 701.29376 342.68195ZM708.73126 340.38507L709.91876 340.38507L709.91876 341.26007L708.73126 341.26007L708.73126 343.24445L707.65314 343.24445L707.65314 341.26007L703.7625 341.26007L703.7625 340.61945L707.575 334.7132L708.73126 334.7132L708.73126 340.38507ZM704.9969 340.38507L707.65314 340.38507L707.65314 336.19757L707.5125 336.43195L704.9969 340.38507ZM711.0594 336.35382Q711.0594 335.5882 711.54376 335.0882Q712.04376 334.5882 712.8094 334.5882Q713.59064 334.5882 714.075 335.0882Q714.5594 335.5882 714.5594 336.38507L714.5594 336.80695Q714.5594 337.57257 714.0594 338.07257Q713.575 338.55695 712.825 338.55695Q712.0594 338.55695 711.5594 338.07257Q711.0594 337.57257 711.0594 336.76007L711.0594 336.35382ZM711.8719 336.80695Q711.8719 337.26007 712.1219 337.55695Q712.3875 337.85382 712.825 337.85382Q713.2469 337.85382 713.4969 337.57257Q713.7469 337.2757 713.7469 336.7757L713.7469 336.35382Q713.7469 335.9007 713.4969 335.60382Q713.2469 335.29132 712.8094 335.29132Q712.3719 335.29132 712.1219 335.60382Q711.8719 335.9007 711.8719 336.36945L711.8719 336.80695ZM715.21564 341.1507Q715.21564 340.38507 715.7 339.9007Q716.2 339.4007 716.96564 339.4007Q717.73126 339.4007 718.21564 339.9007Q718.71564 340.38507 718.71564 341.19757L718.71564 341.60382Q718.71564 342.36945 718.23126 342.86945Q717.7469 343.36945 716.98126 343.36945Q716.21564 343.36945 715.71564 342.88507Q715.21564 342.38507 715.21564 341.57257L715.21564 341.1507ZM716.02814 341.60382Q716.02814 342.07257 716.27814 342.36945Q716.54376 342.66632 716.98126 342.66632Q717.40314 342.66632 717.65314 342.38507Q717.90314 342.0882 717.90314 341.5882L717.90314 341.1507Q717.90314 340.68195 717.6375 340.4007Q717.3875 340.10382 716.96564 340.10382Q716.54376 340.10382 716.27814 340.4007Q716.02814 340.68195 716.02814 341.18195L716.02814 341.60382ZM713.075 342.60382L712.45 342.2132L716.6219 335.54132L717.23126 335.93195L713.075 342.60382Z" fill-rule="nonzero"/><path stroke="#757575" stroke-width="1.0" stroke-linecap="butt" d="M719.45 329.74445L560.43335 329.74445L473.82285 329.74445" fill-rule="nonzero"/><path fill="#9e9e9e" d="M475.82285 329.74445C475.82285 328.63986 474.92743 327.74445 473.82285 327.74445C472.7183 327.74445 471.82285 328.63986 471.82285 329.74445C471.82285 330.849 472.7183 331.74445 473.82285 331.74445C474.92743 331.74445 475.82285 330.849 475.82285 329.74445" fill-rule="nonzero"/><path fill="#757575" d="M35.128124 41.55L33.2375 41.55L33.2375 34.971874L26.08125 34.971874L26.08125 41.55L24.20625 41.55L24.20625 27.33125L26.08125 27.33125L26.08125 33.440624L33.2375 33.440624L33.2375 27.33125L35.128124 27.33125L35.128124 41.55ZM37.440624 36.175Q37.440624 34.6125 38.05 33.378124Q38.659374 32.128124 39.7375 31.45625Q40.83125 30.784374 42.2375 30.784374Q44.39375 30.784374 45.721874 32.284374Q47.065624 33.76875 47.065624 36.253124L47.065624 36.378124Q47.065624 37.925 46.471874 39.159374Q45.878124 40.378124 44.76875 41.065624Q43.675 41.753124 42.253124 41.753124Q40.1125 41.753124 38.76875 40.253124Q37.440624 38.753124 37.440624 36.3L37.440624 36.175ZM39.253124 36.378124Q39.253124 38.14375 40.065624 39.20625Q40.89375 40.26875 42.253124 40.26875Q43.628124 40.26875 44.440624 39.190624Q45.253124 38.1125 45.253124 36.175Q45.253124 34.425 44.425 33.346874Q43.596874 32.26875 42.2375 32.26875Q40.89375 32.26875 40.065624 33.33125Q39.253124 34.39375 39.253124 36.378124ZM58.26875 39.065624L60.3 30.9875L62.1125 30.9875L59.034374 41.55L57.565624 41.55L55.003124 33.534374L52.503124 41.55L51.034374 41.55L47.971874 30.9875L49.76875 30.9875L51.846874 38.89375L54.315624 30.9875L55.76875 30.9875L58.26875 39.065624ZM70.6125 30.9875L70.65938 32.159374Q71.83125 30.784374 73.8 30.784374Q76.01875 30.784374 76.81563 32.4875Q77.34688 31.721874 78.19063 31.253124Q79.03438 30.784374 80.19063 30.784374Q83.65938 30.784374 83.72188 34.471874L83.72188 41.55L81.90938 41.55L81.90938 34.58125Q81.90938 33.440624 81.39375 32.878124Q80.87813 32.315624 79.65938 32.315624Q78.65938 32.315624 77.9875 32.925Q77.33125 33.51875 77.22188 34.534374L77.22188 41.55L75.40938 41.55L75.40938 34.628124Q75.40938 32.315624 73.14375 32.315624Q71.3625 32.315624 70.72188 33.83125L70.72188 41.55L68.90938 41.55L68.90938 30.9875L70.6125 30.9875ZM93.44063 41.55Q93.28438 41.2375 93.19063 40.440624Q91.925 41.753124 90.175 41.753124Q88.6125 41.753124 87.6125 40.8625Q86.6125 39.971874 86.6125 38.6125Q86.6125 36.971874 87.8625 36.065624Q89.12813 35.14375 91.39375 35.14375L93.15938 35.14375L93.15938 34.315624Q93.15938 33.3625 92.58125 32.8Q92.01875 32.2375 90.925 32.2375Q89.95625 32.2375 89.3 32.7375Q88.64375 33.221874 88.64375 33.909374L86.83125 33.909374Q86.83125 33.128124 87.39375 32.39375Q87.95625 31.64375 88.90938 31.221874Q89.87813 30.784374 91.03438 30.784374Q92.8625 30.784374 93.89375 31.70625Q94.925 32.6125 94.97188 34.221874L94.97188 39.08125Q94.97188 40.534374 95.33125 41.39375L95.33125 41.55L93.44063 41.55ZM90.44063 40.175Q91.3 40.175 92.05 39.7375Q92.81563 39.3 93.15938 38.596874L93.15938 36.425L91.7375 36.425Q88.425 36.425 88.425 38.3625Q88.425 39.221874 88.9875 39.70625Q89.55 40.175 90.44063 40.175ZM99.62813 30.9875L99.69063 32.315624Q100.89375 30.784374 102.84688 30.784374Q106.20625 30.784374 106.22188 34.565624L106.22188 41.55L104.425 41.55L104.425 34.55Q104.40938 33.409374 103.89375 32.8625Q103.39375 32.315624 102.3 32.315624Q101.425 32.315624 100.75313 32.784374Q100.09688 33.253124 99.72188 34.01875L99.72188 41.55L97.925 41.55L97.925 30.9875L99.62813 30.9875ZM112.37813 38.909374L114.83125 30.9875L116.76875 30.9875L112.51875 43.175Q111.53438 45.815624 109.39375 45.815624L109.05 45.784374L108.37813 45.659374L108.37813 44.190624L108.8625 44.2375Q109.78438 44.2375 110.28438 43.8625Q110.8 43.4875 111.12813 42.503124L111.53438 41.425L107.76875 30.9875L109.7375 30.9875L112.37813 38.909374ZM122.44063 36.175Q122.44063 34.6125 123.05 33.378124Q123.65938 32.128124 124.7375 31.45625Q125.83125 30.784374 127.2375 30.784374Q129.39375 30.784374 130.72188 32.284374Q132.06563 33.76875 132.06563 36.253124L132.06563 36.378124Q132.06563 37.925 131.47188 39.159374Q130.87813 40.378124 129.76875 41.065624Q128.675 41.753124 127.25313 41.753124Q125.1125 41.753124 123.76875 40.253124Q122.44063 38.753124 122.44063 36.3L122.44063 36.175ZM124.25313 36.378124Q124.25313 38.14375 125.06563 39.20625Q125.89375 40.26875 127.25313 40.26875Q128.62813 40.26875 129.44063 39.190624Q130.25313 38.1125 130.25313 36.175Q130.25313 34.425 129.425 33.346874Q128.59688 32.26875 127.2375 32.26875Q125.89375 32.26875 125.06563 33.33125Q124.25313 34.39375 124.25313 36.378124ZM134.8 41.55L134.8 32.378124L133.14375 32.378124L133.14375 30.9875L134.8 30.9875L134.8 29.89375Q134.8 28.20625 135.70625 27.284374Q136.62813 26.346874 138.28438 26.346874Q138.90938 26.346874 139.51875 26.503124L139.425 27.971874Q138.97188 27.89375 138.45625 27.89375Q137.56563 27.89375 137.08125 28.409374Q136.6125 28.909374 136.6125 29.8625L136.6125 30.9875L138.8625 30.9875L138.8625 32.378124L136.6125 32.378124L136.6125 41.55L134.8 41.55ZM149.37813 38.909374L151.83125 30.9875L153.76875 30.9875L149.51875 43.175Q148.53438 45.815624 146.39375 45.815624L146.05 45.784374L145.37813 45.659374L145.37813 44.190624L145.8625 44.2375Q146.78438 44.2375 147.28438 43.8625Q147.8 43.4875 148.12813 42.503124L148.53438 41.425L144.76875 30.9875L146.7375 30.9875L149.37813 38.909374ZM154.44063 36.175Q154.44063 34.6125 155.05 33.378124Q155.65938 32.128124 156.7375 31.45625Q157.83125 30.784374 159.2375 30.784374Q161.39375 30.784374 162.72188 32.284374Q164.06563 33.76875 164.06563 36.253124L164.06563 36.378124Q164.06563 37.925 163.47188 39.159374Q162.87813 40.378124 161.76875 41.065624Q160.675 41.753124 159.25313 41.753124Q157.1125 41.753124 155.76875 40.253124Q154.44063 38.753124 154.44063 36.3L154.44063 36.175ZM156.25313 36.378124Q156.25313 38.14375 157.06563 39.20625Q157.89375 40.26875 159.25313 40.26875Q160.62813 40.26875 161.44063 39.190624Q162.25313 38.1125 162.25313 36.175Q162.25313 34.425 161.425 33.346874Q160.59688 32.26875 159.2375 32.26875Q157.89375 32.26875 157.06563 33.33125Q156.25313 34.39375 156.25313 36.378124ZM172.44063 40.503124Q171.39375 41.753124 169.34688 41.753124Q167.65938 41.753124 166.76875 40.76875Q165.89375 39.784374 165.87813 37.8625L165.87813 30.9875L167.69063 30.9875L167.69063 37.815624Q167.69063 40.20625 169.64375 40.20625Q171.70625 40.20625 172.39375 38.675L172.39375 30.9875L174.20625 30.9875L174.20625 41.55L172.4875 41.55L172.44063 40.503124ZM182.01875 32.596874Q181.6125 32.534374 181.14375 32.534374Q179.3625 32.534374 178.72188 34.05L178.72188 41.55L176.925 41.55L176.925 30.9875L178.675 30.9875L178.70625 32.20625Q179.59688 30.784374 181.22188 30.784374Q181.75313 30.784374 182.01875 30.925L182.01875 32.596874ZM188.47188 36.175Q188.47188 33.753124 189.62813 32.26875Q190.78438 30.784374 192.64375 30.784374Q194.50313 30.784374 195.58125 32.05L195.58125 26.55L197.39375 26.55L197.39375 41.55L195.7375 41.55L195.64375 40.409374Q194.56563 41.753124 192.62813 41.753124Q190.8 41.753124 189.62813 40.253124Q188.47188 38.7375 188.47188 36.315624L188.47188 36.175ZM190.28438 36.378124Q190.28438 38.175 191.01875 39.190624Q191.76875 40.20625 193.08125 40.20625Q194.8 40.20625 195.58125 38.675L195.58125 33.815624Q194.78438 32.315624 193.09688 32.315624Q191.76875 32.315624 191.01875 33.346874Q190.28438 34.378124 190.28438 36.378124ZM204.3 41.753124Q202.15938 41.753124 200.8 40.346874Q199.45625 38.925 199.45625 36.565624L199.45625 36.221874Q199.45625 34.659374 200.05 33.425Q200.65938 32.190624 201.7375 31.4875Q202.81563 30.784374 204.08125 30.784374Q206.14375 30.784374 207.28438 32.14375Q208.425 33.503124 208.425 36.034374L208.425 36.784374L201.26875 36.784374Q201.3 38.346874 202.175 39.315624Q203.05 40.26875 204.39375 40.26875Q205.3625 40.26875 206.01875 39.878124Q206.69063 39.4875 207.19063 38.846874L208.28438 39.70625Q206.95625 41.753124 204.3 41.753124ZM204.08125 32.26875Q202.9875 32.26875 202.2375 33.065624Q201.50313 33.8625 201.33125 35.3L206.6125 35.3L206.6125 35.159374Q206.53438 33.784374 205.8625 33.034374Q205.20625 32.26875 204.08125 32.26875ZM219.84688 36.378124Q219.84688 38.8 218.7375 40.284374Q217.64375 41.753124 215.75313 41.753124Q213.83125 41.753124 212.72188 40.51875L212.72188 45.6125L210.925 45.6125L210.925 30.9875L212.56563 30.9875L212.65938 32.159374Q213.75313 30.784374 215.72188 30.784374Q217.62813 30.784374 218.7375 32.221874Q219.84688 33.659374 219.84688 36.221874L219.84688 36.378124ZM218.03438 36.175Q218.03438 34.39375 217.26875 33.3625Q216.51875 32.315624 215.19063 32.315624Q213.55 32.315624 212.72188 33.76875L212.72188 38.83125Q213.53438 40.26875 215.20625 40.26875Q216.50313 40.26875 217.26875 39.2375Q218.03438 38.20625 218.03438 36.175ZM226.3 41.753124Q224.15938 41.753124 222.8 40.346874Q221.45625 38.925 221.45625 36.565624L221.45625 36.221874Q221.45625 34.659374 222.05 33.425Q222.65938 32.190624 223.7375 31.4875Q224.81563 30.784374 226.08125 30.784374Q228.14375 30.784374 229.28438 32.14375Q230.425 33.503124 230.425 36.034374L230.425 36.784374L223.26875 36.784374Q223.3 38.346874 224.175 39.315624Q225.05 40.26875 226.39375 40.26875Q227.3625 40.26875 228.01875 39.878124Q228.69063 39.4875 229.19063 38.846874L230.28438 39.70625Q228.95625 41.753124 226.3 41.753124ZM226.08125 32.26875Q224.9875 32.26875 224.2375 33.065624Q223.50313 33.8625 223.33125 35.3L228.6125 35.3L228.6125 35.159374Q228.53438 33.784374 227.8625 33.034374Q227.20625 32.26875 226.08125 32.26875ZM234.62813 30.9875L234.69063 32.315624Q235.89375 30.784374 237.84688 30.784374Q241.20625 30.784374 241.22188 34.565624L241.22188 41.55L239.425 41.55L239.425 34.55Q239.40938 33.409374 238.89375 32.8625Q238.39375 32.315624 237.3 32.315624Q236.425 32.315624 235.75313 32.784374Q235.09688 33.253124 234.72188 34.01875L234.72188 41.55L232.925 41.55L232.925 30.9875L234.62813 30.9875ZM243.47188 36.175Q243.47188 33.753124 244.62813 32.26875Q245.78438 30.784374 247.64375 30.784374Q249.50313 30.784374 250.58125 32.05L250.58125 26.55L252.39375 26.55L252.39375 41.55L250.7375 41.55L250.64375 40.409374Q249.56563 41.753124 247.62813 41.753124Q245.8 41.753124 244.62813 40.253124Q243.47188 38.7375 243.47188 36.315624L243.47188 36.175ZM245.28438 36.378124Q245.28438 38.175 246.01875 39.190624Q246.76875 40.20625 248.08125 40.20625Q249.8 40.20625 250.58125 38.675L250.58125 33.815624Q249.78438 32.315624 248.09688 32.315624Q246.76875 32.315624 246.01875 33.346874Q245.28438 34.378124 245.28438 36.378124ZM259.3 41.753124Q257.15936 41.753124 255.8 40.346874Q254.45625 38.925 254.45625 36.565624L254.45625 36.221874Q254.45625 34.659374 255.05 33.425Q255.65938 32.190624 256.7375 31.4875Q257.8156 30.784374 259.08124 30.784374Q261.14374 30.784374 262.28436 32.14375Q263.425 33.503124 263.425 36.034374L263.425 36.784374L256.26874 36.784374Q256.3 38.346874 257.175 39.315624Q258.05 40.26875 259.39374 40.26875Q260.3625 40.26875 261.01874 39.878124Q261.6906 39.4875 262.1906 38.846874L263.28436 39.70625Q261.95624 41.753124 259.3 41.753124ZM259.08124 32.26875Q257.9875 32.26875 257.2375 33.065624Q256.5031 33.8625 256.33124 35.3L261.6125 35.3L261.6125 35.159374Q261.53436 33.784374 260.8625 33.034374Q260.20624 32.26875 259.08124 32.26875ZM267.6281 30.9875L267.6906 32.315624Q268.89374 30.784374 270.84686 30.784374Q274.20624 30.784374 274.22186 34.565624L274.22186 41.55L272.425 41.55L272.425 34.55Q272.40936 33.409374 271.89374 32.8625Q271.39374 32.315624 270.3 32.315624Q269.425 32.315624 268.7531 32.784374Q268.09686 33.253124 267.72186 34.01875L267.72186 41.55L265.925 41.55L265.925 30.9875L267.6281 30.9875ZM281.15936 40.26875Q282.1281 40.26875 282.84686 39.690624Q283.5656 39.096874 283.64374 38.221874L285.3625 38.221874Q285.3 39.128124 284.72186 39.95625Q284.15936 40.76875 283.1906 41.26875Q282.2375 41.753124 281.15936 41.753124Q279.0031 41.753124 277.72186 40.315624Q276.45624 38.8625 276.45624 36.3625L276.45624 36.065624Q276.45624 34.51875 277.01874 33.315624Q277.58124 32.1125 278.64374 31.45625Q279.70624 30.784374 281.14374 30.784374Q282.925 30.784374 284.09686 31.846874Q285.28436 32.909374 285.3625 34.6125L283.64374 34.6125Q283.5656 33.596874 282.8625 32.940624Q282.175 32.26875 281.14374 32.26875Q279.76874 32.26875 279.0031 33.26875Q278.2531 34.253124 278.2531 36.128124L278.2531 36.471874Q278.2531 38.3 279.0031 39.284374Q279.7531 40.26875 281.15936 40.26875ZM288.8781 41.55L287.08124 41.55L287.08124 30.9875L288.8781 30.9875L288.8781 41.55ZM286.925 28.175Q286.925 27.7375 287.1906 27.440624Q287.47186 27.128124 287.9875 27.128124Q288.51874 27.128124 288.78436 27.440624Q289.0656 27.7375 289.0656 28.175Q289.0656 28.6125 288.78436 28.909374Q288.51874 29.20625 287.9875 29.20625Q287.47186 29.20625 287.1906 28.909374Q286.925 28.6125 286.925 28.175ZM296.3 41.753124Q294.15936 41.753124 292.8 40.346874Q291.45624 38.925 291.45624 36.565624L291.45624 36.221874Q291.45624 34.659374 292.05 33.425Q292.65936 32.190624 293.7375 31.4875Q294.8156 30.784374 296.08124 30.784374Q298.14374 30.784374 299.28436 32.14375Q300.425 33.503124 300.425 36.034374L300.425 36.784374L293.26874 36.784374Q293.3 38.346874 294.175 39.315624Q295.05 40.26875 296.39374 40.26875Q297.3625 40.26875 298.01874 39.878124Q298.6906 39.4875 299.1906 38.846874L300.28436 39.70625Q298.95624 41.753124 296.3 41.753124ZM296.08124 32.26875Q294.9875 32.26875 294.2375 33.065624Q293.5031 33.8625 293.33124 35.3L298.6125 35.3L298.6125 35.159374Q298.53436 33.784374 297.8625 33.034374Q297.20624 32.26875 296.08124 32.26875ZM309.0656 38.753124Q309.0656 38.01875 308.51874 37.6125Q307.97186 37.20625 306.59686 36.909374Q305.22186 36.6125 304.40936 36.20625Q303.6125 35.8 303.22186 35.2375Q302.84686 34.659374 302.84686 33.878124Q302.84686 32.58125 303.9406 31.690624Q305.03436 30.784374 306.7531 30.784374Q308.55 30.784374 309.65936 31.721874Q310.78436 32.64375 310.78436 34.08125L308.95624 34.08125Q308.95624 33.346874 308.33124 32.815624Q307.70624 32.26875 306.7531 32.26875Q305.7531 32.26875 305.1906 32.70625Q304.64374 33.128124 304.64374 33.83125Q304.64374 34.471874 305.15936 34.815624Q305.675 35.14375 307.03436 35.45625Q308.39374 35.753124 309.22186 36.175Q310.0656 36.58125 310.47186 37.175Q310.8781 37.76875 310.8781 38.6125Q310.8781 40.034374 309.7375 40.89375Q308.6125 41.753124 306.8 41.753124Q305.53436 41.753124 304.55 41.3Q303.58124 40.846874 303.01874 40.05Q302.47186 39.2375 302.47186 38.3L304.28436 38.3Q304.33124 39.20625 305.0031 39.7375Q305.6906 40.26875 306.8 40.26875Q307.83124 40.26875 308.4406 39.8625Q309.0656 39.440624 309.0656 38.753124ZM324.4406 41.55Q324.28436 41.2375 324.1906 40.440624Q322.925 41.753124 321.175 41.753124Q319.6125 41.753124 318.6125 40.8625Q317.6125 39.971874 317.6125 38.6125Q317.6125 36.971874 318.8625 36.065624Q320.1281 35.14375 322.39374 35.14375L324.15936 35.14375L324.15936 34.315624Q324.15936 33.3625 323.58124 32.8Q323.01874 32.2375 321.925 32.2375Q320.95624 32.2375 320.3 32.7375Q319.64374 33.221874 319.64374 33.909374L317.83124 33.909374Q317.83124 33.128124 318.39374 32.39375Q318.95624 31.64375 319.90936 31.221874Q320.8781 30.784374 322.03436 30.784374Q323.8625 30.784374 324.89374 31.70625Q325.925 32.6125 325.97186 34.221874L325.97186 39.08125Q325.97186 40.534374 326.33124 41.39375L326.33124 41.55L324.4406 41.55ZM321.4406 40.175Q322.3 40.175 323.05 39.7375Q323.8156 39.3 324.15936 38.596874L324.15936 36.425L322.7375 36.425Q319.425 36.425 319.425 38.3625Q319.425 39.221874 319.9875 39.70625Q320.55 40.175 321.4406 40.175ZM334.01874 32.596874Q333.6125 32.534374 333.14374 32.534374Q331.3625 32.534374 330.72186 34.05L330.72186 41.55L328.925 41.55L328.925 30.9875L330.675 30.9875L330.70624 32.20625Q331.59686 30.784374 333.22186 30.784374Q333.7531 30.784374 334.01874 30.925L334.01874 32.596874ZM340.3 41.753124Q338.15936 41.753124 336.8 40.346874Q335.45624 38.925 335.45624 36.565624L335.45624 36.221874Q335.45624 34.659374 336.05 33.425Q336.65936 32.190624 337.7375 31.4875Q338.8156 30.784374 340.08124 30.784374Q342.14374 30.784374 343.28436 32.14375Q344.425 33.503124 344.425 36.034374L344.425 36.784374L337.26874 36.784374Q337.3 38.346874 338.175 39.315624Q339.05 40.26875 340.39374 40.26875Q341.3625 40.26875 342.01874 39.878124Q342.6906 39.4875 343.1906 38.846874L344.28436 39.70625Q342.95624 41.753124 340.3 41.753124ZM340.08124 32.26875Q338.9875 32.26875 338.2375 33.065624Q337.5031 33.8625 337.33124 35.3L342.6125 35.3L342.6125 35.159374Q342.53436 33.784374 341.8625 33.034374Q341.20624 32.26875 340.08124 32.26875ZM357.675 41.55L355.84686 41.55L355.84686 29.503124L352.20624 30.846874L352.20624 29.20625L357.39374 27.26875L357.675 27.26875L357.675 41.55ZM362.95624 40.596874Q362.95624 40.128124 363.2375 39.815624Q363.51874 39.503124 364.0656 39.503124Q364.6281 39.503124 364.90936 39.815624Q365.20624 40.128124 365.20624 40.596874Q365.20624 41.05 364.90936 41.3625Q364.6281 41.659374 364.0656 41.659374Q363.51874 41.659374 363.2375 41.3625Q362.95624 41.05 362.95624 40.596874ZM376.64374 35.4875Q376.64374 38.659374 375.5656 40.20625Q374.4875 41.753124 372.175 41.753124Q369.89374 41.753124 368.8 40.2375Q367.70624 38.721874 367.675 35.721874L367.675 33.315624Q367.675 30.175 368.7531 28.659374Q369.84686 27.128124 372.15936 27.128124Q374.45624 27.128124 375.53436 28.6125Q376.6125 30.08125 376.64374 33.14375L376.64374 35.4875ZM374.84686 33.01875Q374.84686 30.721874 374.1906 29.675Q373.55 28.6125 372.15936 28.6125Q370.76874 28.6125 370.1281 29.659374Q369.5031 30.70625 369.4875 32.878124L369.4875 35.76875Q369.4875 38.065624 370.14374 39.175Q370.8156 40.26875 372.175 40.26875Q373.51874 40.26875 374.15936 39.2375Q374.8156 38.20625 374.84686 35.971874L374.84686 33.01875ZM383.4406 36.175Q383.4406 34.6125 384.05 33.378124Q384.65936 32.128124 385.7375 31.45625Q386.83124 30.784374 388.2375 30.784374Q390.39374 30.784374 391.72186 32.284374Q393.0656 33.76875 393.0656 36.253124L393.0656 36.378124Q393.0656 37.925 392.47186 39.159374Q391.8781 40.378124 390.76874 41.065624Q389.675 41.753124 388.2531 41.753124Q386.1125 41.753124 384.76874 40.253124Q383.4406 38.753124 383.4406 36.3L383.4406 36.175ZM385.2531 36.378124Q385.2531 38.14375 386.0656 39.20625Q386.89374 40.26875 388.2531 40.26875Q389.6281 40.26875 390.4406 39.190624Q391.2531 38.1125 391.2531 36.175Q391.2531 34.425 390.425 33.346874Q389.59686 32.26875 388.2375 32.26875Q386.89374 32.26875 386.0656 33.33125Q385.2531 34.39375 385.2531 36.378124ZM400.01874 32.596874Q399.6125 32.534374 399.14374 32.534374Q397.3625 32.534374 396.72186 34.05L396.72186 41.55L394.925 41.55L394.925 30.9875L396.675 30.9875L396.70624 32.20625Q397.59686 30.784374 399.22186 30.784374Q399.7531 30.784374 400.01874 30.925L400.01874 32.596874ZM413.4406 41.55Q413.28436 41.2375 413.1906 40.440624Q411.925 41.753124 410.175 41.753124Q408.6125 41.753124 407.6125 40.8625Q406.6125 39.971874 406.6125 38.6125Q406.6125 36.971874 407.8625 36.065624Q409.1281 35.14375 411.39374 35.14375L413.15936 35.14375L413.15936 34.315624Q413.15936 33.3625 412.58124 32.8Q412.01874 32.2375 410.925 32.2375Q409.95624 32.2375 409.3 32.7375Q408.64374 33.221874 408.64374 33.909374L406.83124 33.909374Q406.83124 33.128124 407.39374 32.39375Q407.95624 31.64375 408.90936 31.221874Q409.8781 30.784374 411.03436 30.784374Q412.8625 30.784374 413.89374 31.70625Q414.925 32.6125 414.97186 34.221874L414.97186 39.08125Q414.97186 40.534374 415.33124 41.39375L415.33124 41.55L413.4406 41.55ZM410.4406 40.175Q411.3 40.175 412.05 39.7375Q412.8156 39.3 413.15936 38.596874L413.15936 36.425L411.7375 36.425Q408.425 36.425 408.425 38.3625Q408.425 39.221874 408.9875 39.70625Q409.55 40.175 410.4406 40.175ZM426.8625 36.378124Q426.8625 38.8 425.7531 40.284374Q424.64374 41.753124 422.76874 41.753124Q420.7531 41.753124 419.65936 40.33125L419.58124 41.55L417.925 41.55L417.925 26.55L419.72186 26.55L419.72186 32.14375Q420.8156 30.784374 422.7375 30.784374Q424.65936 30.784374 425.7531 32.2375Q426.8625 33.690624 426.8625 36.221874L426.8625 36.378124ZM425.05 36.175Q425.05 34.33125 424.33124 33.33125Q423.6281 32.315624 422.3 32.315624Q420.5031 32.315624 419.72186 33.9875L419.72186 38.55Q420.55 40.20625 422.3156 40.20625Q423.6125 40.20625 424.33124 39.20625Q425.05 38.20625 425.05 36.175ZM428.4406 36.175Q428.4406 34.6125 429.05 33.378124Q429.65936 32.128124 430.7375 31.45625Q431.83124 30.784374 433.2375 30.784374Q435.39374 30.784374 436.72186 32.284374Q438.0656 33.76875 438.0656 36.253124L438.0656 36.378124Q438.0656 37.925 437.47186 39.159374Q436.8781 40.378124 435.76874 41.065624Q434.675 41.753124 433.2531 41.753124Q431.1125 41.753124 429.76874 40.253124Q428.4406 38.753124 428.4406 36.3L428.4406 36.175ZM430.2531 36.378124Q430.2531 38.14375 431.0656 39.20625Q431.89374 40.26875 433.2531 40.26875Q434.6281 40.26875 435.4406 39.190624Q436.2531 38.1125 436.2531 36.175Q436.2531 34.425 435.425 33.346874Q434.59686 32.26875 433.2375 32.26875Q431.89374 32.26875 431.0656 33.33125Q430.2531 34.39375 430.2531 36.378124ZM443.40936 39.096874L446.01874 30.9875L447.8625 30.9875L444.08124 41.55L442.70624 41.55L438.8781 30.9875L440.72186 30.9875L443.40936 39.096874ZM454.3 41.753124Q452.15936 41.753124 450.8 40.346874Q449.45624 38.925 449.45624 36.565624L449.45624 36.221874Q449.45624 34.659374 450.05 33.425Q450.65936 32.190624 451.7375 31.4875Q452.8156 30.784374 454.08124 30.784374Q456.14374 30.784374 457.28436 32.14375Q458.425 33.503124 458.425 36.034374L458.425 36.784374L451.26874 36.784374Q451.3 38.346874 452.175 39.315624Q453.05 40.26875 454.39374 40.26875Q455.3625 40.26875 456.01874 39.878124Q456.6906 39.4875 457.1906 38.846874L458.28436 39.70625Q456.95624 41.753124 454.3 41.753124ZM454.08124 32.26875Q452.9875 32.26875 452.2375 33.065624Q451.5031 33.8625 451.33124 35.3L456.6125 35.3L456.6125 35.159374Q456.53436 33.784374 455.8625 33.034374Q455.20624 32.26875 454.08124 32.26875ZM463.03436 37.55Q463.05 36.378124 463.3 35.70625Q463.55 35.034374 464.3 34.221874L465.58124 32.89375Q466.39374 31.971874 466.39374 30.909374Q466.39374 29.878124 465.84686 29.3Q465.3156 28.721874 464.3 28.721874Q463.3 28.721874 462.6906 29.253124Q462.09686 29.76875 462.09686 30.659374L460.28436 30.659374Q460.3 29.08125 461.40936 28.1125Q462.51874 27.128124 464.3 27.128124Q466.14374 27.128124 467.175 28.128124Q468.20624 29.1125 468.20624 30.846874Q468.20624 32.55 466.6281 34.221874L465.55 35.26875Q464.84686 36.065624 464.84686 37.55L463.03436 37.55ZM462.95624 40.64375Q462.95624 40.20625 463.22186 39.909374Q463.5031 39.6125 464.01874 39.6125Q464.55 39.6125 464.8156 39.909374Q465.09686 40.20625 465.09686 40.64375Q465.09686 41.08125 464.8156 41.378124Q464.55 41.659374 464.01874 41.659374Q463.5031 41.659374 463.22186 41.378124Q462.95624 41.08125 462.95624 40.64375Z" fill-rule="nonzero"/></svg>