<svg version="1.1" viewBox="0.0 0.0 784.0 545.0" fill="none" stroke="none" stroke-linecap="square" stroke-miterlimit="10" width="784" height="545" xmlns:xlink="http://www.w3.org/1999/xlink" xmlns="http://www.w3.org/2000/svg"><path fill="#ffffff" d="M0 0L784.0 0L784.0 545.0L0 545.0L0 0Z" fill-rule="nonzero"/><path fill="#305089" d="M616.1667 310.39584C616.1667 343.1144 601.55615 375.01468 574.37897 401.63406L574.37897 368.00906C601.55615 341.38968 616.1667 309.4894 616.1667 276.77084Z" fill-rule="nonzero"/><path fill="#4472c4" d="M392.0 119.854164C475.98022 119.854164 552.9163 152.71214 591.3347 204.9863C629.75305 257.26044 623.20874 320.18146 574.37897 368.00906L392.0 276.77084Z" fill-rule="nonzero"/><path fill="#ffd34d" d="M385.85287 119.91318C387.90143 119.87384 389.95068 119.854164 392.0 119.854164L392.0 276.77084Z" fill-rule="nonzero"/><path fill="#c0c0c0" d="M369.90356 120.618355C375.20633 120.25067 380.52615 120.015465 385.85287 119.91318L392.0 276.77084Z" fill-rule="nonzero"/><path fill="#f2a46f" d="M342.6107 123.71012C351.60876 122.287415 360.72372 121.25487 369.90356 120.618355L392.0 276.77084Z" fill-rule="nonzero"/><path fill="#7c9cd6" d="M305.4702 132.01582C317.48227 128.49742 329.90942 125.718346 342.6107 123.71012L392.0 276.77084Z" fill-rule="nonzero"/><path fill="#70ad47" d="M270.1723 145.05043C281.36127 139.9796 293.174 135.61745 305.4702 132.01582L392.0 276.77084Z" fill-rule="nonzero"/><path fill="#5b9bd5" d="M224.78241 172.2644C238.10936 161.81561 253.37495 152.66296 270.1723 145.05043L392.0 276.77084Z" fill-rule="nonzero"/><path fill="#ffc000" d="M177.19525 231.89644C186.60985 209.81422 202.8571 189.45459 224.78241 172.2644L392.0 276.77084Z" fill-rule="nonzero"/><path fill="#747474" d="M278.27905 445.62134C209.84602 417.4217 167.83333 365.98297 167.83333 310.39584L167.83333 276.77084C167.83333 332.35797 209.84602 383.7967 278.27905 411.99634Z" fill-rule="nonzero"/><path fill="#a5a5a5" d="M278.27905 411.99634C189.42293 375.3808 147.70847 301.05862 177.19525 231.89644L392.0 276.77084Z" fill-rule="nonzero"/><path fill="#a65822" d="M574.37897 401.63406C506.85593 467.7713 378.35596 486.8607 278.27905 445.62134L278.27905 411.99634C378.35596 453.2357 506.85593 434.1463 574.37897 368.00906Z" fill-rule="nonzero"/><path fill="#ed7d31" d="M574.37897 368.00906C506.85593 434.1463 378.35596 453.2357 278.27905 411.99634L392.0 276.77084Z" fill-rule="nonzero"/><path fill="#1a1a1a" d="M34.515625 78.71354Q34.359375 80.05729 33.515625 80.80729Q32.671875 81.541664 31.28125 81.541664Q29.765625 81.541664 28.859375 80.46354Q27.953125 79.36979 27.953125 77.541664L27.953125 76.729164Q27.953125 75.541664 28.375 74.635414Q28.796875 73.729164 29.578125 73.24479Q30.359375 72.760414 31.375 72.760414Q32.734375 72.760414 33.546875 73.52604Q34.375 74.291664 34.515625 75.61979L33.390625 75.61979Q33.234375 74.604164 32.75 74.15104Q32.265625 73.697914 31.375 73.697914Q30.296875 73.697914 29.6875 74.49479Q29.078125 75.291664 29.078125 76.760414L29.078125 77.58854Q29.078125 78.979164 29.65625 79.80729Q30.234375 80.61979 31.28125 80.61979Q32.21875 80.61979 32.71875 80.197914Q33.21875 79.760414 33.390625 78.71354L34.515625 78.71354ZM37.25 81.416664L36.171875 81.416664L36.171875 72.416664L37.25 72.416664L37.25 81.416664ZM40.25 81.416664L39.171875 81.416664L39.171875 75.072914L40.25 75.072914L40.25 81.416664ZM39.078125 73.40104Q39.078125 73.135414 39.234375 72.947914Q39.40625 72.760414 39.71875 72.760414Q40.03125 72.760414 40.1875 72.947914Q40.359375 73.135414 40.359375 73.40104Q40.359375 73.65104 40.1875 73.83854Q40.03125 74.010414 39.71875 74.010414Q39.40625 74.010414 39.234375 73.83854Q39.078125 73.65104 39.078125 73.40104ZM41.78125 78.18229Q41.78125 77.260414 42.140625 76.510414Q42.515625 75.760414 43.171875 75.36979Q43.828125 74.96354 44.65625 74.96354Q45.953125 74.96354 46.75 75.854164Q47.5625 76.74479 47.5625 78.24479L47.5625 78.322914Q47.5625 79.24479 47.203125 79.979164Q46.84375 80.71354 46.1875 81.135414Q45.53125 81.541664 44.671875 81.541664Q43.390625 81.541664 42.578125 80.65104Q41.78125 79.74479 41.78125 78.260414L41.78125 78.18229ZM42.875 78.322914Q42.875 79.36979 43.359375 80.010414Q43.859375 80.65104 44.671875 80.65104Q45.5 80.65104 45.984375 80.010414Q46.46875 79.354164 46.46875 78.18229Q46.46875 77.15104 45.96875 76.510414Q45.484375 75.854164 44.65625 75.854164Q43.859375 75.854164 43.359375 76.49479Q42.875 77.11979 42.875 78.322914ZM50.09375 75.072914L50.125 75.86979Q50.859375 74.96354 52.03125 74.96354Q54.046875 74.96354 54.0625 77.229164L54.0625 81.416664L52.96875 81.416664L52.96875 77.21354Q52.96875 76.541664 52.65625 76.21354Q52.359375 75.885414 51.703125 75.885414Q51.171875 75.885414 50.765625 76.166664Q50.375 76.447914 50.15625 76.90104L50.15625 81.416664L49.078125 81.416664L49.078125 75.072914L50.09375 75.072914Z" fill-rule="nonzero"/><path fill="#9e9e9e" d="M31.515625 99.416664L30.4375 99.416664L30.4375 92.197914L28.25 92.99479L28.25 92.010414L31.359375 90.83854L31.515625 90.83854L31.515625 99.416664ZM35.09375 98.854164Q35.09375 98.572914 35.25 98.385414Q35.421875 98.197914 35.75 98.197914Q36.09375 98.197914 36.265625 98.385414Q36.4375 98.572914 36.4375 98.854164Q36.4375 99.11979 36.265625 99.30729Q36.09375 99.479164 35.75 99.479164Q35.421875 99.479164 35.25 99.30729Q35.09375 99.11979 35.09375 98.854164ZM41.515625 99.416664L40.4375 99.416664L40.4375 92.197914L38.25 92.99479L38.25 92.010414L41.359375 90.83854L41.515625 90.83854L41.515625 99.416664ZM44.859375 92.52604Q44.859375 91.760414 45.34375 91.260414Q45.84375 90.760414 46.609375 90.760414Q47.390625 90.760414 47.875 91.260414Q48.359375 91.760414 48.359375 92.55729L48.359375 92.979164Q48.359375 93.74479 47.859375 94.24479Q47.375 94.729164 46.625 94.729164Q45.859375 94.729164 45.359375 94.24479Q44.859375 93.74479 44.859375 92.93229L44.859375 92.52604ZM45.671875 92.979164Q45.671875 93.43229 45.921875 93.729164Q46.1875 94.02604 46.625 94.02604Q47.046875 94.02604 47.296875 93.74479Q47.546875 93.447914 47.546875 92.947914L47.546875 92.52604Q47.546875 92.072914 47.296875 91.77604Q47.046875 91.46354 46.609375 91.46354Q46.171875 91.46354 45.921875 91.77604Q45.671875 92.072914 45.671875 92.541664L45.671875 92.979164ZM49.015625 97.322914Q49.015625 96.55729 49.5 96.072914Q50.0 95.572914 50.765625 95.572914Q51.53125 95.572914 52.015625 96.072914Q52.515625 96.55729 52.515625 97.36979L52.515625 97.77604Q52.515625 98.541664 52.03125 99.041664Q51.546875 99.541664 50.78125 99.541664Q50.015625 99.541664 49.515625 99.05729Q49.015625 98.55729 49.015625 97.74479L49.015625 97.322914ZM49.828125 97.77604Q49.828125 98.24479 50.078125 98.541664Q50.34375 98.83854 50.78125 98.83854Q51.203125 98.83854 51.453125 98.55729Q51.703125 98.260414 51.703125 97.760414L51.703125 97.322914Q51.703125 96.854164 51.4375 96.572914Q51.1875 96.27604 50.765625 96.27604Q50.34375 96.27604 50.078125 96.572914Q49.828125 96.854164 49.828125 97.354164L49.828125 97.77604ZM46.875 98.77604L46.25 98.385414L50.421875 91.71354L51.03125 92.104164L46.875 98.77604Z" fill-rule="nonzero"/><path stroke="#757575" stroke-width="1.0" stroke-linecap="butt" d="M27.25 85.916664L161.83333 85.916664L378.57578 127.996475" fill-rule="nonzero"/><path fill="#9e9e9e" d="M380.57578 127.996475C380.57578 126.8919 379.68036 125.996475 378.57578 125.996475C377.4712 125.996475 376.57578 126.8919 376.57578 127.996475C376.57578 129.10104 377.4712 129.99648 378.57578 129.99648C379.68036 129.99648 380.57578 129.10104 380.57578 127.996475" fill-rule="nonzero"/><path fill="#1a1a1a" d="M32.953125 112.18229L29.375 112.18229L28.578125 114.416664L27.421875 114.416664L30.671875 105.885414L31.65625 105.885414L34.921875 114.416664L33.765625 114.416664L32.953125 112.18229ZM29.71875 111.260414L32.625 111.260414L31.171875 107.27604L29.71875 111.260414ZM37.546875 106.541664L37.546875 108.072914L38.71875 108.072914L38.71875 108.916664L37.546875 108.916664L37.546875 112.83854Q37.546875 113.229164 37.703125 113.416664Q37.859375 113.604164 38.234375 113.604164Q38.421875 113.604164 38.75 113.541664L38.75 114.416664Q38.328125 114.541664 37.921875 114.541664Q37.203125 114.541664 36.828125 114.104164Q36.453125 113.65104 36.453125 112.83854L36.453125 108.916664L35.296875 108.916664L35.296875 108.072914L36.453125 108.072914L36.453125 106.541664L37.546875 106.541664ZM39.78125 111.18229Q39.78125 110.260414 40.140625 109.510414Q40.515625 108.760414 41.171875 108.36979Q41.828125 107.96354 42.65625 107.96354Q43.953125 107.96354 44.75 108.854164Q45.5625 109.74479 45.5625 111.24479L45.5625 111.322914Q45.5625 112.24479 45.203125 112.979164Q44.84375 113.71354 44.1875 114.135414Q43.53125 114.541664 42.671875 114.541664Q41.390625 114.541664 40.578125 113.65104Q39.78125 112.74479 39.78125 111.260414L39.78125 111.18229ZM40.875 111.322914Q40.875 112.36979 41.359375 113.010414Q41.859375 113.65104 42.671875 113.65104Q43.5 113.65104 43.984375 113.010414Q44.46875 112.354164 44.46875 111.18229Q44.46875 110.15104 43.96875 109.510414Q43.484375 108.854164 42.65625 108.854164Q41.859375 108.854164 41.359375 109.49479Q40.875 110.11979 40.875 111.322914ZM48.09375 108.072914L48.125 108.77604Q48.8125 107.96354 50.0 107.96354Q51.328125 107.96354 51.8125 108.979164Q52.125 108.52604 52.625 108.24479Q53.140625 107.96354 53.828125 107.96354Q55.921875 107.96354 55.953125 110.166664L55.953125 114.416664L54.875 114.416664L54.875 110.229164Q54.875 109.55729 54.5625 109.229164Q54.25 108.885414 53.515625 108.885414Q52.90625 108.885414 52.5 109.24479Q52.109375 109.604164 52.046875 110.21354L52.046875 114.416664L50.96875 114.416664L50.96875 110.260414Q50.96875 108.885414 49.609375 108.885414Q48.546875 108.885414 48.15625 109.791664L48.15625 114.416664L47.0625 114.416664L47.0625 108.072914L48.09375 108.072914Z" fill-rule="nonzero"/><path fill="#9e9e9e" d="M33.546875 132.41667L27.953125 132.41667L27.953125 131.63542L30.90625 128.35417Q31.5625 127.60417 31.8125 127.15105Q32.0625 126.6823 32.0625 126.1823Q32.0625 125.51042 31.65625 125.08855Q31.265625 124.65105 30.578125 124.65105Q29.78125 124.65105 29.328125 125.1198Q28.875 125.57292 28.875 126.40105L27.796875 126.40105Q27.796875 125.21355 28.546875 124.4948Q29.3125 123.76042 30.578125 123.76042Q31.78125 123.76042 32.46875 124.38542Q33.15625 125.01042 33.15625 126.0573Q33.15625 127.3073 31.546875 129.0573L29.265625 131.52605L33.546875 131.52605L33.546875 132.41667ZM35.09375 131.85417Q35.09375 131.57292 35.25 131.38542Q35.421875 131.19792 35.75 131.19792Q36.09375 131.19792 36.265625 131.38542Q36.4375 131.57292 36.4375 131.85417Q36.4375 132.1198 36.265625 132.3073Q36.09375 132.47917 35.75 132.47917Q35.421875 132.47917 35.25 132.3073Q35.09375 132.1198 35.09375 131.85417ZM43.3125 128.77605Q43.3125 130.6823 42.65625 131.6198Q42.015625 132.54167 40.625 132.54167Q39.265625 132.54167 38.609375 131.63542Q37.953125 130.72917 37.921875 128.91667L37.921875 127.47917Q37.921875 125.58855 38.5625 124.6823Q39.21875 123.76042 40.609375 123.76042Q41.984375 123.76042 42.640625 124.65105Q43.296875 125.52605 43.3125 127.3698L43.3125 128.77605ZM42.21875 127.29167Q42.21875 125.91667 41.828125 125.29167Q41.453125 124.65105 40.609375 124.65105Q39.78125 124.65105 39.390625 125.29167Q39.015625 125.91667 39.015625 127.21355L39.015625 128.94792Q39.015625 130.32292 39.40625 130.9948Q39.8125 131.65105 40.625 131.65105Q41.421875 131.65105 41.8125 131.02605Q42.203125 130.40105 42.21875 129.07292L42.21875 127.29167ZM44.859375 125.52605Q44.859375 124.76042 45.34375 124.26042Q45.84375 123.76042 46.609375 123.76042Q47.390625 123.76042 47.875 124.26042Q48.359375 124.76042 48.359375 125.5573L48.359375 125.97917Q48.359375 126.7448 47.859375 127.2448Q47.375 127.72917 46.625 127.72917Q45.859375 127.72917 45.359375 127.2448Q44.859375 126.7448 44.859375 125.9323L44.859375 125.52605ZM45.671875 125.97917Q45.671875 126.4323 45.921875 126.72917Q46.1875 127.02605 46.625 127.02605Q47.046875 127.02605 47.296875 126.7448Q47.546875 126.44792 47.546875 125.94792L47.546875 125.52605Q47.546875 125.07292 47.296875 124.77605Q47.046875 124.46355 46.609375 124.46355Q46.171875 124.46355 45.921875 124.77605Q45.671875 125.07292 45.671875 125.54167L45.671875 125.97917ZM49.015625 130.32292Q49.015625 129.5573 49.5 129.07292Q50.0 128.57292 50.765625 128.57292Q51.53125 128.57292 52.015625 129.07292Q52.515625 129.5573 52.515625 130.3698L52.515625 130.77605Q52.515625 131.54167 52.03125 132.04167Q51.546875 132.54167 50.78125 132.54167Q50.015625 132.54167 49.515625 132.0573Q49.015625 131.5573 49.015625 130.7448L49.015625 130.32292ZM49.828125 130.77605Q49.828125 131.2448 50.078125 131.54167Q50.34375 131.83855 50.78125 131.83855Q51.203125 131.83855 51.453125 131.5573Q51.703125 131.26042 51.703125 130.76042L51.703125 130.32292Q51.703125 129.85417 51.4375 129.57292Q51.1875 129.27605 50.765625 129.27605Q50.34375 129.27605 50.078125 129.57292Q49.828125 129.85417 49.828125 130.35417L49.828125 130.77605ZM46.875 131.77605L46.25 131.38542L50.421875 124.71355L51.03125 125.10417L46.875 131.77605Z" fill-rule="nonzero"/><path stroke="#757575" stroke-width="1.0" stroke-linecap="butt" d="M27.25 118.916664L161.83333 118.916664L357.97952 129.61449" fill-rule="nonzero"/><path fill="#9e9e9e" d="M359.97952 129.61449C359.97952 128.50992 359.08408 127.61449 357.97952 127.61449C356.87494 127.61449 355.97952 128.50992 355.97952 129.61449C355.97952 130.71906 356.87494 131.61449 357.97952 131.61449C359.08408 131.61449 359.97952 130.71906 359.97952 129.61449" fill-rule="nonzero"/><path fill="#1a1a1a" d="M31.0625 145.91667L33.5 138.88542L34.734375 138.88542L31.5625 147.41667L30.578125 147.41667L27.421875 138.88542L28.640625 138.88542L31.0625 145.91667ZM37.25 147.41667L36.171875 147.41667L36.171875 141.07292L37.25 141.07292L37.25 147.41667ZM36.078125 139.40105Q36.078125 139.13542 36.234375 138.94792Q36.40625 138.76042 36.71875 138.76042Q37.03125 138.76042 37.1875 138.94792Q37.359375 139.13542 37.359375 139.40105Q37.359375 139.65105 37.1875 139.83855Q37.03125 140.01042 36.71875 140.01042Q36.40625 140.01042 36.234375 139.83855Q36.078125 139.65105 36.078125 139.40105ZM42.765625 145.72917Q42.765625 145.29167 42.421875 145.0573Q42.09375 144.8073 41.265625 144.63542Q40.453125 144.46355 39.96875 144.21355Q39.484375 143.96355 39.25 143.63542Q39.03125 143.29167 39.03125 142.82292Q39.03125 142.04167 39.6875 141.51042Q40.34375 140.96355 41.375 140.96355Q42.453125 140.96355 43.109375 141.52605Q43.78125 142.07292 43.78125 142.9323L42.703125 142.9323Q42.703125 142.4948 42.3125 142.1823Q41.9375 141.85417 41.375 141.85417Q40.78125 141.85417 40.4375 142.1198Q40.109375 142.3698 40.109375 142.77605Q40.109375 143.16667 40.421875 143.3698Q40.734375 143.57292 41.546875 143.76042Q42.359375 143.9323 42.859375 144.1823Q43.359375 144.4323 43.59375 144.79167Q43.84375 145.15105 43.84375 145.65105Q43.84375 146.51042 43.15625 147.02605Q42.484375 147.54167 41.40625 147.54167Q40.640625 147.54167 40.046875 147.27605Q39.46875 146.9948 39.140625 146.51042Q38.8125 146.02605 38.8125 145.46355L39.890625 145.46355Q39.921875 146.01042 40.328125 146.33855Q40.734375 146.65105 41.40625 146.65105Q42.015625 146.65105 42.390625 146.40105Q42.765625 146.15105 42.765625 145.72917ZM48.984375 146.79167Q48.359375 147.54167 47.125 147.54167Q46.109375 147.54167 45.578125 146.94792Q45.046875 146.35417 45.046875 145.19792L45.046875 141.07292L46.125 141.07292L46.125 145.16667Q46.125 146.6198 47.296875 146.6198Q48.546875 146.6198 48.953125 145.6823L48.953125 141.07292L50.046875 141.07292L50.046875 147.41667L49.015625 147.41667L48.984375 146.79167ZM55.984375 147.41667Q55.890625 147.22917 55.828125 146.7448Q55.078125 147.54167 54.03125 147.54167Q53.09375 147.54167 52.484375 147.01042Q51.890625 146.47917 51.890625 145.65105Q51.890625 144.66667 52.640625 144.1198Q53.390625 143.57292 54.765625 143.57292L55.8125 143.57292L55.8125 143.07292Q55.8125 142.51042 55.46875 142.1823Q55.140625 141.83855 54.46875 141.83855Q53.890625 141.83855 53.5 142.13542Q53.109375 142.41667 53.109375 142.83855L52.015625 142.83855Q52.015625 142.35417 52.34375 141.91667Q52.6875 141.47917 53.265625 141.22917Q53.84375 140.96355 54.53125 140.96355Q55.640625 140.96355 56.25 141.51042Q56.875 142.0573 56.90625 143.01042L56.90625 145.9323Q56.90625 146.8073 57.125 147.32292L57.125 147.41667L55.984375 147.41667ZM54.1875 146.58855Q54.703125 146.58855 55.15625 146.32292Q55.609375 146.0573 55.8125 145.63542L55.8125 144.33855L54.96875 144.33855Q52.96875 144.33855 52.96875 145.51042Q52.96875 146.01042 53.3125 146.3073Q53.65625 146.58855 54.1875 146.58855ZM60.25 147.41667L59.171875 147.41667L59.171875 138.41667L60.25 138.41667L60.25 147.41667ZM67.75 143.6198Q66.3125 143.19792 65.640625 142.58855Q64.984375 141.97917 64.984375 141.08855Q64.984375 140.08855 65.78125 139.4323Q66.59375 138.76042 67.890625 138.76042Q68.765625 138.76042 69.453125 139.10417Q70.140625 139.44792 70.515625 140.04167Q70.90625 140.63542 70.90625 141.35417L69.765625 141.35417Q69.765625 140.57292 69.265625 140.13542Q68.78125 139.69792 67.890625 139.69792Q67.0625 139.69792 66.59375 140.07292Q66.125 140.4323 66.125 141.07292Q66.125 141.60417 66.5625 141.96355Q67.015625 142.32292 68.078125 142.6198Q69.140625 142.91667 69.734375 143.27605Q70.34375 143.63542 70.625 144.1198Q70.921875 144.60417 70.921875 145.2448Q70.921875 146.29167 70.109375 146.91667Q69.296875 147.54167 67.953125 147.54167Q67.0625 147.54167 66.296875 147.19792Q65.546875 146.85417 65.125 146.27605Q64.71875 145.6823 64.71875 144.94792L65.84375 144.94792Q65.84375 145.71355 66.421875 146.16667Q67.0 146.6198 67.953125 146.6198Q68.84375 146.6198 69.3125 146.26042Q69.78125 145.88542 69.78125 145.26042Q69.78125 144.63542 69.34375 144.29167Q68.90625 143.94792 67.75 143.6198ZM73.546875 139.54167L73.546875 141.07292L74.71875 141.07292L74.71875 141.91667L73.546875 141.91667L73.546875 145.83855Q73.546875 146.22917 73.703125 146.41667Q73.859375 146.60417 74.234375 146.60417Q74.421875 146.60417 74.75 146.54167L74.75 147.41667Q74.328125 147.54167 73.921875 147.54167Q73.203125 147.54167 72.828125 147.10417Q72.453125 146.65105 72.453125 145.83855L72.453125 141.91667L71.296875 141.91667L71.296875 141.07292L72.453125 141.07292L72.453125 139.54167L73.546875 139.54167ZM79.984375 146.79167Q79.359375 147.54167 78.125 147.54167Q77.109375 147.54167 76.578125 146.94792Q76.046875 146.35417 76.046875 145.19792L76.046875 141.07292L77.125 141.07292L77.125 145.16667Q77.125 146.6198 78.296875 146.6198Q79.546875 146.6198 79.953125 145.6823L79.953125 141.07292L81.046875 141.07292L81.046875 147.41667L80.015625 147.41667L79.984375 146.79167ZM82.8125 144.19792Q82.8125 142.72917 83.5 141.85417Q84.1875 140.96355 85.3125 140.96355Q86.421875 140.96355 87.078125 141.71355L87.078125 138.41667L88.15625 138.41667L88.15625 147.41667L87.15625 147.41667L87.109375 146.72917Q86.453125 147.54167 85.296875 147.54167Q84.203125 147.54167 83.5 146.63542Q82.8125 145.72917 82.8125 144.27605L82.8125 144.19792ZM83.890625 144.32292Q83.890625 145.40105 84.328125 146.01042Q84.78125 146.6198 85.5625 146.6198Q86.59375 146.6198 87.078125 145.6823L87.078125 142.77605Q86.59375 141.88542 85.578125 141.88542Q84.78125 141.88542 84.328125 142.4948Q83.890625 143.10417 83.890625 144.32292ZM91.25 147.41667L90.171875 147.41667L90.171875 141.07292L91.25 141.07292L91.25 147.41667ZM90.078125 139.40105Q90.078125 139.13542 90.234375 138.94792Q90.40625 138.76042 90.71875 138.76042Q91.03125 138.76042 91.1875 138.94792Q91.359375 139.13542 91.359375 139.40105Q91.359375 139.65105 91.1875 139.83855Q91.03125 140.01042 90.71875 140.01042Q90.40625 140.01042 90.234375 139.83855Q90.078125 139.65105 90.078125 139.40105ZM92.78125 144.1823Q92.78125 143.26042 93.140625 142.51042Q93.515625 141.76042 94.171875 141.3698Q94.828125 140.96355 95.65625 140.96355Q96.953125 140.96355 97.75 141.85417Q98.5625 142.7448 98.5625 144.2448L98.5625 144.32292Q98.5625 145.2448 98.203125 145.97917Q97.84375 146.71355 97.1875 147.13542Q96.53125 147.54167 95.671875 147.54167Q94.390625 147.54167 93.578125 146.65105Q92.78125 145.7448 92.78125 144.26042L92.78125 144.1823ZM93.875 144.32292Q93.875 145.3698 94.359375 146.01042Q94.859375 146.65105 95.671875 146.65105Q96.5 146.65105 96.984375 146.01042Q97.46875 145.35417 97.46875 144.1823Q97.46875 143.15105 96.96875 142.51042Q96.484375 141.85417 95.65625 141.85417Q94.859375 141.85417 94.359375 142.4948Q93.875 143.1198 93.875 144.32292Z" fill-rule="nonzero"/><path fill="#9e9e9e" d="M33.546875 165.41667L27.953125 165.41667L27.953125 164.63542L30.90625 161.35417Q31.5625 160.60417 31.8125 160.15105Q32.0625 159.6823 32.0625 159.1823Q32.0625 158.51042 31.65625 158.08855Q31.265625 157.65105 30.578125 157.65105Q29.78125 157.65105 29.328125 158.1198Q28.875 158.57292 28.875 159.40105L27.796875 159.40105Q27.796875 158.21355 28.546875 157.4948Q29.3125 156.76042 30.578125 156.76042Q31.78125 156.76042 32.46875 157.38542Q33.15625 158.01042 33.15625 159.0573Q33.15625 160.3073 31.546875 162.0573L29.265625 164.52605L33.546875 164.52605L33.546875 165.41667ZM35.09375 164.85417Q35.09375 164.57292 35.25 164.38542Q35.421875 164.19792 35.75 164.19792Q36.09375 164.19792 36.265625 164.38542Q36.4375 164.57292 36.4375 164.85417Q36.4375 165.1198 36.265625 165.3073Q36.09375 165.47917 35.75 165.47917Q35.421875 165.47917 35.25 165.3073Q35.09375 165.1198 35.09375 164.85417ZM43.140625 159.10417Q43.140625 159.7448 42.796875 160.2448Q42.453125 160.7448 41.890625 161.02605Q42.546875 161.3073 42.9375 161.8698Q43.328125 162.41667 43.328125 163.1198Q43.328125 164.21355 42.578125 164.88542Q41.84375 165.54167 40.625 165.54167Q39.390625 165.54167 38.640625 164.88542Q37.90625 164.21355 37.90625 163.1198Q37.90625 162.41667 38.28125 161.8698Q38.65625 161.3073 39.328125 161.02605Q38.765625 160.7448 38.4375 160.2448Q38.109375 159.7448 38.109375 159.10417Q38.109375 158.02605 38.796875 157.40105Q39.484375 156.76042 40.625 156.76042Q41.75 156.76042 42.4375 157.40105Q43.140625 158.02605 43.140625 159.10417ZM42.25 163.08855Q42.25 162.3698 41.796875 161.9323Q41.34375 161.47917 40.609375 161.47917Q39.875 161.47917 39.421875 161.9323Q38.984375 162.3698 38.984375 163.10417Q38.984375 163.82292 39.421875 164.2448Q39.859375 164.65105 40.625 164.65105Q41.375 164.65105 41.8125 164.22917Q42.25 163.8073 42.25 163.08855ZM40.625 157.65105Q39.984375 157.65105 39.578125 158.0573Q39.1875 158.44792 39.1875 159.13542Q39.1875 159.77605 39.578125 160.1823Q39.96875 160.58855 40.609375 160.58855Q41.265625 160.58855 41.65625 160.1823Q42.046875 159.77605 42.046875 159.13542Q42.046875 158.47917 41.640625 158.07292Q41.234375 157.65105 40.625 157.65105ZM44.859375 158.52605Q44.859375 157.76042 45.34375 157.26042Q45.84375 156.76042 46.609375 156.76042Q47.390625 156.76042 47.875 157.26042Q48.359375 157.76042 48.359375 158.5573L48.359375 158.97917Q48.359375 159.7448 47.859375 160.2448Q47.375 160.72917 46.625 160.72917Q45.859375 160.72917 45.359375 160.2448Q44.859375 159.7448 44.859375 158.9323L44.859375 158.52605ZM45.671875 158.97917Q45.671875 159.4323 45.921875 159.72917Q46.1875 160.02605 46.625 160.02605Q47.046875 160.02605 47.296875 159.7448Q47.546875 159.44792 47.546875 158.94792L47.546875 158.52605Q47.546875 158.07292 47.296875 157.77605Q47.046875 157.46355 46.609375 157.46355Q46.171875 157.46355 45.921875 157.77605Q45.671875 158.07292 45.671875 158.54167L45.671875 158.97917ZM49.015625 163.32292Q49.015625 162.5573 49.5 162.07292Q50.0 161.57292 50.765625 161.57292Q51.53125 161.57292 52.015625 162.07292Q52.515625 162.5573 52.515625 163.3698L52.515625 163.77605Q52.515625 164.54167 52.03125 165.04167Q51.546875 165.54167 50.78125 165.54167Q50.015625 165.54167 49.515625 165.0573Q49.015625 164.5573 49.015625 163.7448L49.015625 163.32292ZM49.828125 163.77605Q49.828125 164.2448 50.078125 164.54167Q50.34375 164.83855 50.78125 164.83855Q51.203125 164.83855 51.453125 164.5573Q51.703125 164.26042 51.703125 163.76042L51.703125 163.32292Q51.703125 162.85417 51.4375 162.57292Q51.1875 162.27605 50.765625 162.27605Q50.34375 162.27605 50.078125 162.57292Q49.828125 162.85417 49.828125 163.35417L49.828125 163.77605ZM46.875 164.77605L46.25 164.38542L50.421875 157.71355L51.03125 158.10417L46.875 164.77605Z" fill-rule="nonzero"/><path stroke="#757575" stroke-width="1.0" stroke-linecap="butt" d="M27.25 151.91667L161.83333 151.91667L327.1929 134.77037" fill-rule="nonzero"/><path fill="#9e9e9e" d="M329.1929 134.77037C329.1929 133.6658 328.29745 132.77037 327.1929 132.77037C326.08832 132.77037 325.1929 133.6658 325.1929 134.77037C325.1929 135.87494 326.08832 136.77037 327.1929 136.77037C328.29745 136.77037 329.1929 135.87494 329.1929 134.77037" fill-rule="nonzero"/><path fill="#1a1a1a" d="M34.796875 176.4323Q34.796875 177.6823 34.375 178.6198Q33.953125 179.54167 33.171875 180.04167Q32.40625 180.54167 31.375 180.54167Q30.375 180.54167 29.59375 180.04167Q28.8125 179.54167 28.375 178.63542Q27.953125 177.71355 27.9375 176.4948L27.9375 175.88542Q27.9375 174.65105 28.359375 173.71355Q28.796875 172.77605 29.578125 172.27605Q30.359375 171.76042 31.375 171.76042Q32.390625 171.76042 33.171875 172.26042Q33.953125 172.76042 34.375 173.69792Q34.796875 174.63542 34.796875 175.88542L34.796875 176.4323ZM33.6875 175.8698Q33.6875 174.35417 33.078125 173.54167Q32.46875 172.72917 31.375 172.72917Q30.296875 172.72917 29.6875 173.54167Q29.078125 174.35417 29.0625 175.79167L29.0625 176.4323Q29.0625 177.90105 29.671875 178.7448Q30.296875 179.57292 31.375 179.57292Q32.46875 179.57292 33.0625 178.79167Q33.671875 177.9948 33.6875 176.51042L33.6875 175.8698ZM37.546875 172.54167L37.546875 174.07292L38.71875 174.07292L38.71875 174.91667L37.546875 174.91667L37.546875 178.83855Q37.546875 179.22917 37.703125 179.41667Q37.859375 179.60417 38.234375 179.60417Q38.421875 179.60417 38.75 179.54167L38.75 180.41667Q38.328125 180.54167 37.921875 180.54167Q37.203125 180.54167 36.828125 180.10417Q36.453125 179.65105 36.453125 178.83855L36.453125 174.91667L35.296875 174.91667L35.296875 174.07292L36.453125 174.07292L36.453125 172.54167L37.546875 172.54167ZM41.15625 174.83855Q41.875 173.96355 43.03125 173.96355Q45.046875 173.96355 45.0625 176.22917L45.0625 180.41667L43.96875 180.41667L43.96875 176.21355Q43.96875 175.54167 43.65625 175.21355Q43.359375 174.88542 42.703125 174.88542Q42.171875 174.88542 41.765625 175.16667Q41.375 175.44792 41.15625 175.90105L41.15625 180.41667L40.078125 180.41667L40.078125 171.41667L41.15625 171.41667L41.15625 174.83855ZM49.703125 180.54167Q48.40625 180.54167 47.59375 179.69792Q46.796875 178.83855 46.796875 177.41667L46.796875 177.22917Q46.796875 176.27605 47.15625 175.54167Q47.515625 174.79167 48.15625 174.38542Q48.8125 173.96355 49.5625 173.96355Q50.796875 173.96355 51.484375 174.77605Q52.171875 175.58855 52.171875 177.10417L52.171875 177.5573L47.875 177.5573Q47.90625 178.4948 48.421875 179.07292Q48.953125 179.65105 49.765625 179.65105Q50.328125 179.65105 50.71875 179.41667Q51.125 179.1823 51.4375 178.79167L52.09375 179.3073Q51.296875 180.54167 49.703125 180.54167ZM49.5625 174.85417Q48.90625 174.85417 48.453125 175.33855Q48.015625 175.8073 47.921875 176.66667L51.09375 176.66667L51.09375 176.58855Q51.046875 175.76042 50.640625 175.3073Q50.25 174.85417 49.5625 174.85417ZM56.140625 175.04167Q55.890625 175.01042 55.609375 175.01042Q54.53125 175.01042 54.15625 175.91667L54.15625 180.41667L53.078125 180.41667L53.078125 174.07292L54.125 174.07292L54.140625 174.8073Q54.671875 173.96355 55.65625 173.96355Q55.96875 173.96355 56.140625 174.04167L56.140625 175.04167Z" fill-rule="nonzero"/><path fill="#9e9e9e" d="M33.546875 198.41667L27.953125 198.41667L27.953125 197.63542L30.90625 194.35417Q31.5625 193.60417 31.8125 193.15105Q32.0625 192.6823 32.0625 192.1823Q32.0625 191.51042 31.65625 191.08855Q31.265625 190.65105 30.578125 190.65105Q29.78125 190.65105 29.328125 191.1198Q28.875 191.57292 28.875 192.40105L27.796875 192.40105Q27.796875 191.21355 28.546875 190.4948Q29.3125 189.76042 30.578125 189.76042Q31.78125 189.76042 32.46875 190.38542Q33.15625 191.01042 33.15625 192.0573Q33.15625 193.3073 31.546875 195.0573L29.265625 197.52605L33.546875 197.52605L33.546875 198.41667ZM35.09375 197.85417Q35.09375 197.57292 35.25 197.38542Q35.421875 197.19792 35.75 197.19792Q36.09375 197.19792 36.265625 197.38542Q36.4375 197.57292 36.4375 197.85417Q36.4375 198.1198 36.265625 198.3073Q36.09375 198.47917 35.75 198.47917Q35.421875 198.47917 35.25 198.3073Q35.09375 198.1198 35.09375 197.85417ZM43.140625 192.10417Q43.140625 192.7448 42.796875 193.2448Q42.453125 193.7448 41.890625 194.02605Q42.546875 194.3073 42.9375 194.8698Q43.328125 195.41667 43.328125 196.1198Q43.328125 197.21355 42.578125 197.88542Q41.84375 198.54167 40.625 198.54167Q39.390625 198.54167 38.640625 197.88542Q37.90625 197.21355 37.90625 196.1198Q37.90625 195.41667 38.28125 194.8698Q38.65625 194.3073 39.328125 194.02605Q38.765625 193.7448 38.4375 193.2448Q38.109375 192.7448 38.109375 192.10417Q38.109375 191.02605 38.796875 190.40105Q39.484375 189.76042 40.625 189.76042Q41.75 189.76042 42.4375 190.40105Q43.140625 191.02605 43.140625 192.10417ZM42.25 196.08855Q42.25 195.3698 41.796875 194.9323Q41.34375 194.47917 40.609375 194.47917Q39.875 194.47917 39.421875 194.9323Q38.984375 195.3698 38.984375 196.10417Q38.984375 196.82292 39.421875 197.2448Q39.859375 197.65105 40.625 197.65105Q41.375 197.65105 41.8125 197.22917Q42.25 196.8073 42.25 196.08855ZM40.625 190.65105Q39.984375 190.65105 39.578125 191.0573Q39.1875 191.44792 39.1875 192.13542Q39.1875 192.77605 39.578125 193.1823Q39.96875 193.58855 40.609375 193.58855Q41.265625 193.58855 41.65625 193.1823Q42.046875 192.77605 42.046875 192.13542Q42.046875 191.47917 41.640625 191.07292Q41.234375 190.65105 40.625 190.65105ZM44.859375 191.52605Q44.859375 190.76042 45.34375 190.26042Q45.84375 189.76042 46.609375 189.76042Q47.390625 189.76042 47.875 190.26042Q48.359375 190.76042 48.359375 191.5573L48.359375 191.97917Q48.359375 192.7448 47.859375 193.2448Q47.375 193.72917 46.625 193.72917Q45.859375 193.72917 45.359375 193.2448Q44.859375 192.7448 44.859375 191.9323L44.859375 191.52605ZM45.671875 191.97917Q45.671875 192.4323 45.921875 192.72917Q46.1875 193.02605 46.625 193.02605Q47.046875 193.02605 47.296875 192.7448Q47.546875 192.44792 47.546875 191.94792L47.546875 191.52605Q47.546875 191.07292 47.296875 190.77605Q47.046875 190.46355 46.609375 190.46355Q46.171875 190.46355 45.921875 190.77605Q45.671875 191.07292 45.671875 191.54167L45.671875 191.97917ZM49.015625 196.32292Q49.015625 195.5573 49.5 195.07292Q50.0 194.57292 50.765625 194.57292Q51.53125 194.57292 52.015625 195.07292Q52.515625 195.5573 52.515625 196.3698L52.515625 196.77605Q52.515625 197.54167 52.03125 198.04167Q51.546875 198.54167 50.78125 198.54167Q50.015625 198.54167 49.515625 198.0573Q49.015625 197.5573 49.015625 196.7448L49.015625 196.32292ZM49.828125 196.77605Q49.828125 197.2448 50.078125 197.54167Q50.34375 197.83855 50.78125 197.83855Q51.203125 197.83855 51.453125 197.5573Q51.703125 197.26042 51.703125 196.76042L51.703125 196.32292Q51.703125 195.85417 51.4375 195.57292Q51.1875 195.27605 50.765625 195.27605Q50.34375 195.27605 50.078125 195.57292Q49.828125 195.85417 49.828125 196.35417L49.828125 196.77605ZM46.875 197.77605L46.25 197.38542L50.421875 190.71355L51.03125 191.10417L46.875 197.77605Z" fill-rule="nonzero"/><path stroke="#757575" stroke-width="1.0" stroke-linecap="butt" d="M27.25 184.91667L161.83333 184.91667L292.63574 144.92162" fill-rule="nonzero"/><path fill="#9e9e9e" d="M294.63574 144.92162C294.63574 143.81705 293.7403 142.92162 292.63574 142.92162C291.53116 142.92162 290.63574 143.81705 290.63574 144.92162C290.63574 146.02618 291.53116 146.92162 292.63574 146.92162C293.7403 146.92162 294.63574 146.02618 294.63574 144.92162" fill-rule="nonzero"/><path fill="#1a1a1a" d="M30.75 209.6198Q29.3125 209.19792 28.640625 208.58855Q27.984375 207.97917 27.984375 207.08855Q27.984375 206.08855 28.78125 205.4323Q29.59375 204.76042 30.890625 204.76042Q31.765625 204.76042 32.453125 205.10417Q33.140625 205.44792 33.515625 206.04167Q33.90625 206.63542 33.90625 207.35417L32.765625 207.35417Q32.765625 206.57292 32.265625 206.13542Q31.78125 205.69792 30.890625 205.69792Q30.0625 205.69792 29.59375 206.07292Q29.125 206.4323 29.125 207.07292Q29.125 207.60417 29.5625 207.96355Q30.015625 208.32292 31.078125 208.6198Q32.140625 208.91667 32.734375 209.27605Q33.34375 209.63542 33.625 210.1198Q33.921875 210.60417 33.921875 211.2448Q33.921875 212.29167 33.109375 212.91667Q32.296875 213.54167 30.953125 213.54167Q30.0625 213.54167 29.296875 213.19792Q28.546875 212.85417 28.125 212.27605Q27.71875 211.6823 27.71875 210.94792L28.84375 210.94792Q28.84375 211.71355 29.421875 212.16667Q30.0 212.6198 30.953125 212.6198Q31.84375 212.6198 32.3125 212.26042Q32.78125 211.88542 32.78125 211.26042Q32.78125 210.63542 32.34375 210.29167Q31.90625 209.94792 30.75 209.6198ZM38.984375 212.79167Q38.359375 213.54167 37.125 213.54167Q36.109375 213.54167 35.578125 212.94792Q35.046875 212.35417 35.046875 211.19792L35.046875 207.07292L36.125 207.07292L36.125 211.16667Q36.125 212.6198 37.296875 212.6198Q38.546875 212.6198 38.953125 211.6823L38.953125 207.07292L40.046875 207.07292L40.046875 213.41667L39.015625 213.41667L38.984375 212.79167ZM47.4375 210.32292Q47.4375 211.77605 46.765625 212.66667Q46.109375 213.54167 44.984375 213.54167Q43.78125 213.54167 43.125 212.6823L43.0625 213.41667L42.078125 213.41667L42.078125 204.41667L43.15625 204.41667L43.15625 207.77605Q43.8125 206.96355 44.96875 206.96355Q46.125 206.96355 46.78125 207.83855Q47.4375 208.69792 47.4375 210.22917L47.4375 210.32292ZM46.359375 210.19792Q46.359375 209.08855 45.921875 208.4948Q45.5 207.88542 44.703125 207.88542Q43.625 207.88542 43.15625 208.8698L43.15625 211.6198Q43.65625 212.6198 44.703125 212.6198Q45.484375 212.6198 45.921875 212.01042Q46.359375 211.40105 46.359375 210.19792ZM50.25 213.41667L49.171875 213.41667L49.171875 204.41667L50.25 204.41667L50.25 213.41667ZM53.25 213.41667L52.171875 213.41667L52.171875 207.07292L53.25 207.07292L53.25 213.41667ZM52.078125 205.40105Q52.078125 205.13542 52.234375 204.94792Q52.40625 204.76042 52.71875 204.76042Q53.03125 204.76042 53.1875 204.94792Q53.359375 205.13542 53.359375 205.40105Q53.359375 205.65105 53.1875 205.83855Q53.03125 206.01042 52.71875 206.01042Q52.40625 206.01042 52.234375 205.83855Q52.078125 205.65105 52.078125 205.40105ZM56.09375 207.07292L56.125 207.77605Q56.8125 206.96355 58.0 206.96355Q59.328125 206.96355 59.8125 207.97917Q60.125 207.52605 60.625 207.2448Q61.140625 206.96355 61.828125 206.96355Q63.921875 206.96355 63.953125 209.16667L63.953125 213.41667L62.875 213.41667L62.875 209.22917Q62.875 208.5573 62.5625 208.22917Q62.25 207.88542 61.515625 207.88542Q60.90625 207.88542 60.5 208.2448Q60.109375 208.60417 60.046875 209.21355L60.046875 213.41667L58.96875 213.41667L58.96875 209.26042Q58.96875 207.88542 57.609375 207.88542Q56.546875 207.88542 56.15625 208.79167L56.15625 213.41667L55.0625 213.41667L55.0625 207.07292L56.09375 207.07292ZM68.703125 213.54167Q67.40625 213.54167 66.59375 212.69792Q65.796875 211.83855 65.796875 210.41667L65.796875 210.22917Q65.796875 209.27605 66.15625 208.54167Q66.515625 207.79167 67.15625 207.38542Q67.8125 206.96355 68.5625 206.96355Q69.796875 206.96355 70.484375 207.77605Q71.171875 208.58855 71.171875 210.10417L71.171875 210.5573L66.875 210.5573Q66.90625 211.4948 67.421875 212.07292Q67.953125 212.65105 68.765625 212.65105Q69.328125 212.65105 69.71875 212.41667Q70.125 212.1823 70.4375 211.79167L71.09375 212.3073Q70.296875 213.54167 68.703125 213.54167ZM68.5625 207.85417Q67.90625 207.85417 67.453125 208.33855Q67.015625 208.8073 66.921875 209.66667L70.09375 209.66667L70.09375 209.58855Q70.046875 208.76042 69.640625 208.3073Q69.25 207.85417 68.5625 207.85417Z" fill-rule="nonzero"/><path fill="#9e9e9e" d="M32.53125 228.5573L33.71875 228.5573L33.71875 229.4323L32.53125 229.4323L32.53125 231.41667L31.453125 231.41667L31.453125 229.4323L27.5625 229.4323L27.5625 228.79167L31.375 222.88542L32.53125 222.88542L32.53125 228.5573ZM28.796875 228.5573L31.453125 228.5573L31.453125 224.3698L31.3125 224.60417L28.796875 228.5573ZM35.09375 230.85417Q35.09375 230.57292 35.25 230.38542Q35.421875 230.19792 35.75 230.19792Q36.09375 230.19792 36.265625 230.38542Q36.4375 230.57292 36.4375 230.85417Q36.4375 231.1198 36.265625 231.3073Q36.09375 231.47917 35.75 231.47917Q35.421875 231.47917 35.25 231.3073Q35.09375 231.1198 35.09375 230.85417ZM39.53125 226.6198L40.34375 226.6198Q41.125 226.60417 41.5625 226.21355Q42.0 225.82292 42.0 225.15105Q42.0 223.65105 40.5 223.65105Q39.796875 223.65105 39.375 224.0573Q38.96875 224.46355 38.96875 225.1198L37.875 225.1198Q37.875 224.10417 38.609375 223.4323Q39.359375 222.76042 40.5 222.76042Q41.703125 222.76042 42.390625 223.40105Q43.078125 224.04167 43.078125 225.1823Q43.078125 225.7448 42.71875 226.26042Q42.359375 226.77605 41.734375 227.04167Q42.4375 227.26042 42.8125 227.77605Q43.203125 228.29167 43.203125 229.04167Q43.203125 230.1823 42.453125 230.8698Q41.703125 231.54167 40.5 231.54167Q39.3125 231.54167 38.546875 230.88542Q37.796875 230.22917 37.796875 229.16667L38.890625 229.16667Q38.890625 229.83855 39.328125 230.2448Q39.765625 230.65105 40.515625 230.65105Q41.296875 230.65105 41.703125 230.2448Q42.125 229.82292 42.125 229.0573Q42.125 228.32292 41.671875 227.9323Q41.21875 227.52605 40.34375 227.51042L39.53125 227.51042L39.53125 226.6198ZM44.859375 224.52605Q44.859375 223.76042 45.34375 223.26042Q45.84375 222.76042 46.609375 222.76042Q47.390625 222.76042 47.875 223.26042Q48.359375 223.76042 48.359375 224.5573L48.359375 224.97917Q48.359375 225.7448 47.859375 226.2448Q47.375 226.72917 46.625 226.72917Q45.859375 226.72917 45.359375 226.2448Q44.859375 225.7448 44.859375 224.9323L44.859375 224.52605ZM45.671875 224.97917Q45.671875 225.4323 45.921875 225.72917Q46.1875 226.02605 46.625 226.02605Q47.046875 226.02605 47.296875 225.7448Q47.546875 225.44792 47.546875 224.94792L47.546875 224.52605Q47.546875 224.07292 47.296875 223.77605Q47.046875 223.46355 46.609375 223.46355Q46.171875 223.46355 45.921875 223.77605Q45.671875 224.07292 45.671875 224.54167L45.671875 224.97917ZM49.015625 229.32292Q49.015625 228.5573 49.5 228.07292Q50.0 227.57292 50.765625 227.57292Q51.53125 227.57292 52.015625 228.07292Q52.515625 228.5573 52.515625 229.3698L52.515625 229.77605Q52.515625 230.54167 52.03125 231.04167Q51.546875 231.54167 50.78125 231.54167Q50.015625 231.54167 49.515625 231.0573Q49.015625 230.5573 49.015625 229.7448L49.015625 229.32292ZM49.828125 229.77605Q49.828125 230.2448 50.078125 230.54167Q50.34375 230.83855 50.78125 230.83855Q51.203125 230.83855 51.453125 230.5573Q51.703125 230.26042 51.703125 229.76042L51.703125 229.32292Q51.703125 228.85417 51.4375 228.57292Q51.1875 228.27605 50.765625 228.27605Q50.34375 228.27605 50.078125 228.57292Q49.828125 228.85417 49.828125 229.35417L49.828125 229.77605ZM46.875 230.77605L46.25 230.38542L50.421875 223.71355L51.03125 224.10417L46.875 230.77605Z" fill-rule="nonzero"/><path stroke="#757575" stroke-width="1.0" stroke-linecap="butt" d="M27.25 217.91667L161.83333 217.91667L253.46715 163.55267" fill-rule="nonzero"/><path fill="#9e9e9e" d="M255.46715 163.55267C255.46715 162.4481 254.57172 161.55267 253.46715 161.55267C252.36258 161.55267 251.46715 162.4481 251.46715 163.55267C251.46715 164.65724 252.36258 165.55267 253.46715 165.55267C254.57172 165.55267 255.46715 164.65724 255.46715 163.55267" fill-rule="nonzero"/><path fill="#1a1a1a" d="M33.0625 242.47917L29.359375 242.47917L29.359375 245.4948L33.65625 245.4948L33.65625 246.41667L28.234375 246.41667L28.234375 237.88542L33.609375 237.88542L33.609375 238.8073L29.359375 238.8073L29.359375 241.5573L33.0625 241.5573L33.0625 242.47917ZM36.09375 240.07292L36.125 240.77605Q36.8125 239.96355 38.0 239.96355Q39.328125 239.96355 39.8125 240.97917Q40.125 240.52605 40.625 240.2448Q41.140625 239.96355 41.828125 239.96355Q43.921875 239.96355 43.953125 242.16667L43.953125 246.41667L42.875 246.41667L42.875 242.22917Q42.875 241.5573 42.5625 241.22917Q42.25 240.88542 41.515625 240.88542Q40.90625 240.88542 40.5 241.2448Q40.109375 241.60417 40.046875 242.21355L40.046875 246.41667L38.96875 246.41667L38.96875 242.26042Q38.96875 240.88542 37.609375 240.88542Q36.546875 240.88542 36.15625 241.79167L36.15625 246.41667L35.0625 246.41667L35.0625 240.07292L36.09375 240.07292ZM49.984375 246.41667Q49.890625 246.22917 49.828125 245.7448Q49.078125 246.54167 48.03125 246.54167Q47.09375 246.54167 46.484375 246.01042Q45.890625 245.47917 45.890625 244.65105Q45.890625 243.66667 46.640625 243.1198Q47.390625 242.57292 48.765625 242.57292L49.8125 242.57292L49.8125 242.07292Q49.8125 241.51042 49.46875 241.1823Q49.140625 240.83855 48.46875 240.83855Q47.890625 240.83855 47.5 241.13542Q47.109375 241.41667 47.109375 241.83855L46.015625 241.83855Q46.015625 241.35417 46.34375 240.91667Q46.6875 240.47917 47.265625 240.22917Q47.84375 239.96355 48.53125 239.96355Q49.640625 239.96355 50.25 240.51042Q50.875 241.0573 50.90625 242.01042L50.90625 244.9323Q50.90625 245.8073 51.125 246.32292L51.125 246.41667L49.984375 246.41667ZM48.1875 245.58855Q48.703125 245.58855 49.15625 245.32292Q49.609375 245.0573 49.8125 244.63542L49.8125 243.33855L48.96875 243.33855Q46.96875 243.33855 46.96875 244.51042Q46.96875 245.01042 47.3125 245.3073Q47.65625 245.58855 48.1875 245.58855ZM55.609375 245.65105Q56.1875 245.65105 56.625 245.3073Q57.0625 244.94792 57.109375 244.41667L58.140625 244.41667Q58.109375 244.96355 57.75 245.46355Q57.40625 245.94792 56.828125 246.2448Q56.265625 246.54167 55.609375 246.54167Q54.3125 246.54167 53.546875 245.6823Q52.796875 244.8073 52.796875 243.3073L52.796875 243.1198Q52.796875 242.19792 53.125 241.47917Q53.46875 240.76042 54.09375 240.3698Q54.734375 239.96355 55.609375 239.96355Q56.671875 239.96355 57.375 240.60417Q58.09375 241.22917 58.140625 242.26042L57.109375 242.26042Q57.0625 241.63542 56.640625 241.2448Q56.21875 240.85417 55.609375 240.85417Q54.78125 240.85417 54.328125 241.44792Q53.875 242.04167 53.875 243.16667L53.875 243.3698Q53.875 244.46355 54.328125 245.0573Q54.78125 245.65105 55.609375 245.65105ZM62.765625 244.72917Q62.765625 244.29167 62.421875 244.0573Q62.09375 243.8073 61.265625 243.63542Q60.453125 243.46355 59.96875 243.21355Q59.484375 242.96355 59.25 242.63542Q59.03125 242.29167 59.03125 241.82292Q59.03125 241.04167 59.6875 240.51042Q60.34375 239.96355 61.375 239.96355Q62.453125 239.96355 63.109375 240.52605Q63.78125 241.07292 63.78125 241.9323L62.703125 241.9323Q62.703125 241.4948 62.3125 241.1823Q61.9375 240.85417 61.375 240.85417Q60.78125 240.85417 60.4375 241.1198Q60.109375 241.3698 60.109375 241.77605Q60.109375 242.16667 60.421875 242.3698Q60.734375 242.57292 61.546875 242.76042Q62.359375 242.9323 62.859375 243.1823Q63.359375 243.4323 63.59375 243.79167Q63.84375 244.15105 63.84375 244.65105Q63.84375 245.51042 63.15625 246.02605Q62.484375 246.54167 61.40625 246.54167Q60.640625 246.54167 60.046875 246.27605Q59.46875 245.9948 59.140625 245.51042Q58.8125 245.02605 58.8125 244.46355L59.890625 244.46355Q59.921875 245.01042 60.328125 245.33855Q60.734375 245.65105 61.40625 245.65105Q62.015625 245.65105 62.390625 245.40105Q62.765625 245.15105 62.765625 244.72917Z" fill-rule="nonzero"/><path fill="#9e9e9e" d="M33.46875 256.49478L29.9375 264.41666L28.796875 264.41666L32.3125 256.77603L27.703125 256.77603L27.703125 255.8854L33.46875 255.8854L33.46875 256.49478ZM35.09375 263.85416Q35.09375 263.5729 35.25 263.3854Q35.421875 263.1979 35.75 263.1979Q36.09375 263.1979 36.265625 263.3854Q36.4375 263.5729 36.4375 263.85416Q36.4375 264.11978 36.265625 264.30728Q36.09375 264.47916 35.75 264.47916Q35.421875 264.47916 35.25 264.30728Q35.09375 264.11978 35.09375 263.85416ZM43.3125 260.77603Q43.3125 262.68228 42.65625 263.61978Q42.015625 264.54166 40.625 264.54166Q39.265625 264.54166 38.609375 263.6354Q37.953125 262.72916 37.921875 260.91666L37.921875 259.47916Q37.921875 257.58853 38.5625 256.68228Q39.21875 255.7604 40.609375 255.7604Q41.984375 255.7604 42.640625 256.65103Q43.296875 257.52603 43.3125 259.36978L43.3125 260.77603ZM42.21875 259.29166Q42.21875 257.91666 41.828125 257.29166Q41.453125 256.65103 40.609375 256.65103Q39.78125 256.65103 39.390625 257.29166Q39.015625 257.91666 39.015625 259.21353L39.015625 260.9479Q39.015625 262.3229 39.40625 262.99478Q39.8125 263.65103 40.625 263.65103Q41.421875 263.65103 41.8125 263.02603Q42.203125 262.40103 42.21875 261.0729L42.21875 259.29166ZM44.859375 257.52603Q44.859375 256.7604 45.34375 256.2604Q45.84375 255.7604 46.609375 255.7604Q47.390625 255.7604 47.875 256.2604Q48.359375 256.7604 48.359375 257.55728L48.359375 257.97916Q48.359375 258.74478 47.859375 259.24478Q47.375 259.72916 46.625 259.72916Q45.859375 259.72916 45.359375 259.24478Q44.859375 258.74478 44.859375 257.93228L44.859375 257.52603ZM45.671875 257.97916Q45.671875 258.43228 45.921875 258.72916Q46.1875 259.02603 46.625 259.02603Q47.046875 259.02603 47.296875 258.74478Q47.546875 258.4479 47.546875 257.9479L47.546875 257.52603Q47.546875 257.0729 47.296875 256.77603Q47.046875 256.46353 46.609375 256.46353Q46.171875 256.46353 45.921875 256.77603Q45.671875 257.0729 45.671875 257.54166L45.671875 257.97916ZM49.015625 262.3229Q49.015625 261.55728 49.5 261.0729Q50.0 260.5729 50.765625 260.5729Q51.53125 260.5729 52.015625 261.0729Q52.515625 261.55728 52.515625 262.36978L52.515625 262.77603Q52.515625 263.54166 52.03125 264.04166Q51.546875 264.54166 50.78125 264.54166Q50.015625 264.54166 49.515625 264.05728Q49.015625 263.55728 49.015625 262.74478L49.015625 262.3229ZM49.828125 262.77603Q49.828125 263.24478 50.078125 263.54166Q50.34375 263.83853 50.78125 263.83853Q51.203125 263.83853 51.453125 263.55728Q51.703125 263.2604 51.703125 262.7604L51.703125 262.3229Q51.703125 261.85416 51.4375 261.5729Q51.1875 261.27603 50.765625 261.27603Q50.34375 261.27603 50.078125 261.5729Q49.828125 261.85416 49.828125 262.35416L49.828125 262.77603ZM46.875 263.77603L46.25 263.3854L50.421875 256.71353L51.03125 257.10416L46.875 263.77603Z" fill-rule="nonzero"/><path stroke="#757575" stroke-width="1.0" stroke-linecap="butt" d="M27.25 250.91667L161.83333 250.91667L206.08244 204.07216" fill-rule="nonzero"/><path fill="#9e9e9e" d="M208.08244 204.07216C208.08244 202.96759 207.18701 202.07216 206.08244 202.07216C204.97787 202.07216 204.08244 202.96759 204.08244 204.07216C204.08244 205.17673 204.97787 206.07216 206.08244 206.07216C207.18701 206.07216 208.08244 205.17673 208.08244 204.07216" fill-rule="nonzero"/><path fill="#1a1a1a" d="M29.453125 326.78235L28.328125 326.78235L28.328125 318.2511L29.453125 318.2511L29.453125 326.78235ZM32.09375 320.4386L32.125 321.23547Q32.859375 320.32922 34.03125 320.32922Q36.046875 320.32922 36.0625 322.59485L36.0625 326.78235L34.96875 326.78235L34.96875 322.57922Q34.96875 321.90735 34.65625 321.57922Q34.359375 321.2511 33.703125 321.2511Q33.171875 321.2511 32.765625 321.53235Q32.375 321.8136 32.15625 322.26672L32.15625 326.78235L31.078125 326.78235L31.078125 320.4386L32.09375 320.4386ZM39.546875 318.90735L39.546875 320.4386L40.71875 320.4386L40.71875 321.28235L39.546875 321.28235L39.546875 325.20422Q39.546875 325.59485 39.703125 325.78235Q39.859375 325.96985 40.234375 325.96985Q40.421875 325.96985 40.75 325.90735L40.75 326.78235Q40.328125 326.90735 39.921875 326.90735Q39.203125 326.90735 38.828125 326.46985Q38.453125 326.01672 38.453125 325.20422L38.453125 321.28235L37.296875 321.28235L37.296875 320.4386L38.453125 320.4386L38.453125 318.90735L39.546875 318.90735ZM44.703125 326.90735Q43.40625 326.90735 42.59375 326.0636Q41.796875 325.20422 41.796875 323.78235L41.796875 323.59485Q41.796875 322.64172 42.15625 321.90735Q42.515625 321.15735 43.15625 320.7511Q43.8125 320.32922 44.5625 320.32922Q45.796875 320.32922 46.484375 321.14172Q47.171875 321.95422 47.171875 323.46985L47.171875 323.92297L42.875 323.92297Q42.90625 324.86047 43.421875 325.4386Q43.953125 326.01672 44.765625 326.01672Q45.328125 326.01672 45.71875 325.78235Q46.125 325.54797 46.4375 325.15735L47.09375 325.67297Q46.296875 326.90735 44.703125 326.90735ZM44.5625 321.21985Q43.90625 321.21985 43.453125 321.70422Q43.015625 322.17297 42.921875 323.03235L46.09375 323.03235L46.09375 322.95422Q46.046875 322.1261 45.640625 321.67297Q45.25 321.21985 44.5625 321.21985ZM49.25 326.78235L48.171875 326.78235L48.171875 317.78235L49.25 317.78235L49.25 326.78235ZM52.25 326.78235L51.171875 326.78235L51.171875 317.78235L52.25 317.78235L52.25 326.78235ZM55.25 326.78235L54.171875 326.78235L54.171875 320.4386L55.25 320.4386L55.25 326.78235ZM54.078125 318.76672Q54.078125 318.5011 54.234375 318.3136Q54.40625 318.1261 54.71875 318.1261Q55.03125 318.1261 55.1875 318.3136Q55.359375 318.5011 55.359375 318.76672Q55.359375 319.01672 55.1875 319.20422Q55.03125 319.3761 54.71875 319.3761Q54.40625 319.3761 54.234375 319.20422Q54.078125 319.01672 54.078125 318.76672ZM60.8125 318.2511L61.953125 318.2511L61.953125 324.29797Q61.953125 325.51672 61.203125 326.21985Q60.46875 326.90735 59.25 326.90735Q57.984375 326.90735 57.265625 326.2511Q56.5625 325.59485 56.5625 324.42297L57.6875 324.42297Q57.6875 325.15735 58.078125 325.57922Q58.484375 325.98547 59.25 325.98547Q59.953125 325.98547 60.375 325.54797Q60.8125 325.09485 60.8125 324.3136L60.8125 318.2511Z" fill-rule="nonzero"/><path fill="#9e9e9e" d="M33.546875 344.78235L27.953125 344.78235L27.953125 344.0011L30.90625 340.71985Q31.5625 339.96985 31.8125 339.51672Q32.0625 339.04797 32.0625 338.54797Q32.0625 337.8761 31.65625 337.45422Q31.265625 337.01672 30.578125 337.01672Q29.78125 337.01672 29.328125 337.48547Q28.875 337.9386 28.875 338.76672L27.796875 338.76672Q27.796875 337.57922 28.546875 336.86047Q29.3125 336.1261 30.578125 336.1261Q31.78125 336.1261 32.46875 336.7511Q33.15625 337.3761 33.15625 338.42297Q33.15625 339.67297 31.546875 341.42297L29.265625 343.89172L33.546875 343.89172L33.546875 344.78235ZM38.515625 344.78235L37.4375 344.78235L37.4375 337.5636L35.25 338.36047L35.25 337.3761L38.359375 336.20422L38.515625 336.20422L38.515625 344.78235ZM42.09375 344.21985Q42.09375 343.9386 42.25 343.7511Q42.421875 343.5636 42.75 343.5636Q43.09375 343.5636 43.265625 343.7511Q43.4375 343.9386 43.4375 344.21985Q43.4375 344.48547 43.265625 344.67297Q43.09375 344.84485 42.75 344.84485Q42.421875 344.84485 42.25 344.67297Q42.09375 344.48547 42.09375 344.21985ZM48.515625 344.78235L47.4375 344.78235L47.4375 337.5636L45.25 338.36047L45.25 337.3761L48.359375 336.20422L48.515625 336.20422L48.515625 344.78235ZM51.859375 337.89172Q51.859375 337.1261 52.34375 336.6261Q52.84375 336.1261 53.609375 336.1261Q54.390625 336.1261 54.875 336.6261Q55.359375 337.1261 55.359375 337.92297L55.359375 338.34485Q55.359375 339.11047 54.859375 339.61047Q54.375 340.09485 53.625 340.09485Q52.859375 340.09485 52.359375 339.61047Q51.859375 339.11047 51.859375 338.29797L51.859375 337.89172ZM52.671875 338.34485Q52.671875 338.79797 52.921875 339.09485Q53.1875 339.39172 53.625 339.39172Q54.046875 339.39172 54.296875 339.11047Q54.546875 338.8136 54.546875 338.3136L54.546875 337.89172Q54.546875 337.4386 54.296875 337.14172Q54.046875 336.82922 53.609375 336.82922Q53.171875 336.82922 52.921875 337.14172Q52.671875 337.4386 52.671875 337.90735L52.671875 338.34485ZM56.015625 342.6886Q56.015625 341.92297 56.5 341.4386Q57.0 340.9386 57.765625 340.9386Q58.53125 340.9386 59.015625 341.4386Q59.515625 341.92297 59.515625 342.73547L59.515625 343.14172Q59.515625 343.90735 59.03125 344.40735Q58.546875 344.90735 57.78125 344.90735Q57.015625 344.90735 56.515625 344.42297Q56.015625 343.92297 56.015625 343.11047L56.015625 342.6886ZM56.828125 343.14172Q56.828125 343.61047 57.078125 343.90735Q57.34375 344.20422 57.78125 344.20422Q58.203125 344.20422 58.453125 343.92297Q58.703125 343.6261 58.703125 343.1261L58.703125 342.6886Q58.703125 342.21985 58.4375 341.9386Q58.1875 341.64172 57.765625 341.64172Q57.34375 341.64172 57.078125 341.9386Q56.828125 342.21985 56.828125 342.71985L56.828125 343.14172ZM53.875 344.14172L53.25 343.7511L57.421875 337.07922L58.03125 337.46985L53.875 344.14172Z" fill-rule="nonzero"/><path stroke="#757575" stroke-width="1.0" stroke-linecap="butt" d="M27.25 331.28235L161.83333 331.28235L193.79063 331.28235" fill-rule="nonzero"/><path fill="#9e9e9e" d="M195.79063 331.28235C195.79063 330.1778 194.8952 329.28235 193.79063 329.28235C192.68607 329.28235 191.79063 330.1778 191.79063 331.28235C191.79063 332.38693 192.68607 333.28235 193.79063 333.28235C194.8952 333.28235 195.79063 332.38693 195.79063 331.28235" fill-rule="nonzero"/><path fill="#1a1a1a" d="M717.5625 202.57552L720.0 195.54427L721.2344 195.54427L718.0625 204.07552L717.0781 204.07552L713.9219 195.54427L715.1406 195.54427L717.5625 202.57552ZM725.25 200.27864Q723.8125 199.85677 723.1406 199.24739Q722.4844 198.63802 722.4844 197.74739Q722.4844 196.74739 723.28125 196.09114Q724.09375 195.41927 725.3906 195.41927Q726.2656 195.41927 726.9531 195.76302Q727.6406 196.10677 728.0156 196.70052Q728.40625 197.29427 728.40625 198.01302L727.2656 198.01302Q727.2656 197.23177 726.7656 196.79427Q726.28125 196.35677 725.3906 196.35677Q724.5625 196.35677 724.09375 196.73177Q723.625 197.09114 723.625 197.73177Q723.625 198.26302 724.0625 198.62239Q724.5156 198.98177 725.5781 199.27864Q726.6406 199.57552 727.2344 199.93489Q727.84375 200.29427 728.125 200.77864Q728.4219 201.26302 728.4219 201.90364Q728.4219 202.95052 727.6094 203.57552Q726.7969 204.20052 725.4531 204.20052Q724.5625 204.20052 723.7969 203.85677Q723.0469 203.51302 722.625 202.93489Q722.21875 202.34114 722.21875 201.60677L723.34375 201.60677Q723.34375 202.37239 723.9219 202.82552Q724.5 203.27864 725.4531 203.27864Q726.34375 203.27864 726.8125 202.91927Q727.28125 202.54427 727.28125 201.91927Q727.28125 201.29427 726.84375 200.95052Q726.40625 200.60677 725.25 200.27864ZM736.0156 201.37239Q735.8594 202.71614 735.0156 203.46614Q734.1719 204.20052 732.78125 204.20052Q731.2656 204.20052 730.3594 203.12239Q729.4531 202.02864 729.4531 200.20052L729.4531 199.38802Q729.4531 198.20052 729.875 197.29427Q730.2969 196.38802 731.0781 195.90364Q731.8594 195.41927 732.875 195.41927Q734.2344 195.41927 735.0469 196.18489Q735.875 196.95052 736.0156 198.27864L734.8906 198.27864Q734.7344 197.26302 734.25 196.80989Q733.7656 196.35677 732.875 196.35677Q731.7969 196.35677 731.1875 197.15364Q730.5781 197.95052 730.5781 199.41927L730.5781 200.24739Q730.5781 201.63802 731.15625 202.46614Q731.7344 203.27864 732.78125 203.27864Q733.71875 203.27864 734.21875 202.85677Q734.71875 202.41927 734.8906 201.37239L736.0156 201.37239ZM737.28125 200.84114Q737.28125 199.91927 737.6406 199.16927Q738.0156 198.41927 738.6719 198.02864Q739.3281 197.62239 740.15625 197.62239Q741.4531 197.62239 742.25 198.51302Q743.0625 199.40364 743.0625 200.90364L743.0625 200.98177Q743.0625 201.90364 742.7031 202.63802Q742.34375 203.37239 741.6875 203.79427Q741.03125 204.20052 740.1719 204.20052Q738.8906 204.20052 738.0781 203.30989Q737.28125 202.40364 737.28125 200.91927L737.28125 200.84114ZM738.375 200.98177Q738.375 202.02864 738.8594 202.66927Q739.3594 203.30989 740.1719 203.30989Q741.0 203.30989 741.4844 202.66927Q741.96875 202.01302 741.96875 200.84114Q741.96875 199.80989 741.46875 199.16927Q740.9844 198.51302 740.15625 198.51302Q739.3594 198.51302 738.8594 199.15364Q738.375 199.77864 738.375 200.98177ZM744.3125 200.85677Q744.3125 199.38802 745.0 198.51302Q745.6875 197.62239 746.8125 197.62239Q747.9219 197.62239 748.5781 198.37239L748.5781 195.07552L749.65625 195.07552L749.65625 204.07552L748.65625 204.07552L748.6094 203.38802Q747.9531 204.20052 746.7969 204.20052Q745.7031 204.20052 745.0 203.29427Q744.3125 202.38802 744.3125 200.93489L744.3125 200.85677ZM745.3906 200.98177Q745.3906 202.05989 745.8281 202.66927Q746.28125 203.27864 747.0625 203.27864Q748.09375 203.27864 748.5781 202.34114L748.5781 199.43489Q748.09375 198.54427 747.0781 198.54427Q746.28125 198.54427 745.8281 199.15364Q745.3906 199.76302 745.3906 200.98177ZM754.2031 204.20052Q752.90625 204.20052 752.09375 203.35677Q751.2969 202.49739 751.2969 201.07552L751.2969 200.88802Q751.2969 199.93489 751.65625 199.20052Q752.0156 198.45052 752.65625 198.04427Q753.3125 197.62239 754.0625 197.62239Q755.2969 197.62239 755.9844 198.43489Q756.6719 199.24739 756.6719 200.76302L756.6719 201.21614L752.375 201.21614Q752.40625 202.15364 752.9219 202.73177Q753.4531 203.30989 754.2656 203.30989Q754.8281 203.30989 755.21875 203.07552Q755.625 202.84114 755.9375 202.45052L756.59375 202.96614Q755.7969 204.20052 754.2031 204.20052ZM754.0625 198.51302Q753.40625 198.51302 752.9531 198.99739Q752.5156 199.46614 752.4219 200.32552L755.59375 200.32552L755.59375 200.24739Q755.5469 199.41927 755.1406 198.96614Q754.75 198.51302 754.0625 198.51302Z" fill-rule="nonzero"/><path fill="#9e9e9e" d="M726.03125 217.27864L726.84375 217.27864Q727.625 217.26302 728.0625 216.87239Q728.5 216.48177 728.5 215.80989Q728.5 214.30989 727.0 214.30989Q726.2969 214.30989 725.875 214.71614Q725.46875 215.12239 725.46875 215.77864L724.375 215.77864Q724.375 214.76302 725.1094 214.09114Q725.8594 213.41927 727.0 213.41927Q728.2031 213.41927 728.8906 214.05989Q729.5781 214.70052 729.5781 215.84114Q729.5781 216.40364 729.21875 216.91927Q728.8594 217.43489 728.2344 217.70052Q728.9375 217.91927 729.3125 218.43489Q729.7031 218.95052 729.7031 219.70052Q729.7031 220.84114 728.9531 221.52864Q728.2031 222.20052 727.0 222.20052Q725.8125 222.20052 725.0469 221.54427Q724.2969 220.88802 724.2969 219.82552L725.3906 219.82552Q725.3906 220.49739 725.8281 220.90364Q726.2656 221.30989 727.0156 221.30989Q727.7969 221.30989 728.2031 220.90364Q728.625 220.48177 728.625 219.71614Q728.625 218.98177 728.1719 218.59114Q727.71875 218.18489 726.84375 218.16927L726.03125 218.16927L726.03125 217.27864ZM736.03125 219.21614L737.21875 219.21614L737.21875 220.09114L736.03125 220.09114L736.03125 222.07552L734.9531 222.07552L734.9531 220.09114L731.0625 220.09114L731.0625 219.45052L734.875 213.54427L736.03125 213.54427L736.03125 219.21614ZM732.2969 219.21614L734.9531 219.21614L734.9531 215.02864L734.8125 215.26302L732.2969 219.21614ZM738.59375 221.51302Q738.59375 221.23177 738.75 221.04427Q738.9219 220.85677 739.25 220.85677Q739.59375 220.85677 739.7656 221.04427Q739.9375 221.23177 739.9375 221.51302Q739.9375 221.77864 739.7656 221.96614Q739.59375 222.13802 739.25 222.13802Q738.9219 222.13802 738.75 221.96614Q738.59375 221.77864 738.59375 221.51302ZM745.6094 218.32552Q745.28125 218.73177 744.7969 218.98177Q744.3281 219.21614 743.7656 219.21614Q743.03125 219.21614 742.4844 218.85677Q741.9375 218.49739 741.6406 217.84114Q741.34375 217.16927 741.34375 216.37239Q741.34375 215.52864 741.65625 214.84114Q741.9844 214.15364 742.5781 213.79427Q743.1875 213.41927 743.9844 213.41927Q745.25 213.41927 745.96875 214.37239Q746.7031 215.32552 746.7031 216.95052L746.7031 217.26302Q746.7031 219.76302 745.71875 220.90364Q744.7344 222.04427 742.75 222.07552L742.53125 222.07552L742.53125 221.16927L742.7656 221.16927Q744.1094 221.13802 744.8281 220.46614Q745.5469 219.79427 745.6094 218.32552ZM743.9375 218.32552Q744.4844 218.32552 744.9375 217.99739Q745.40625 217.65364 745.625 217.16927L745.625 216.73177Q745.625 215.66927 745.15625 214.99739Q744.6875 214.32552 743.9844 214.32552Q743.2656 214.32552 742.8281 214.87239Q742.40625 215.41927 742.40625 216.32552Q742.40625 217.20052 742.8125 217.76302Q743.2344 218.32552 743.9375 218.32552ZM748.3594 215.18489Q748.3594 214.41927 748.84375 213.91927Q749.34375 213.41927 750.1094 213.41927Q750.8906 213.41927 751.375 213.91927Q751.8594 214.41927 751.8594 215.21614L751.8594 215.63802Q751.8594 216.40364 751.3594 216.90364Q750.875 217.38802 750.125 217.38802Q749.3594 217.38802 748.8594 216.90364Q748.3594 216.40364 748.3594 215.59114L748.3594 215.18489ZM749.1719 215.63802Q749.1719 216.09114 749.4219 216.38802Q749.6875 216.68489 750.125 216.68489Q750.5469 216.68489 750.7969 216.40364Q751.0469 216.10677 751.0469 215.60677L751.0469 215.18489Q751.0469 214.73177 750.7969 214.43489Q750.5469 214.12239 750.1094 214.12239Q749.6719 214.12239 749.4219 214.43489Q749.1719 214.73177 749.1719 215.20052L749.1719 215.63802ZM752.5156 219.98177Q752.5156 219.21614 753.0 218.73177Q753.5 218.23177 754.2656 218.23177Q755.03125 218.23177 755.5156 218.73177Q756.0156 219.21614 756.0156 220.02864L756.0156 220.43489Q756.0156 221.20052 755.53125 221.70052Q755.0469 222.20052 754.28125 222.20052Q753.5156 222.20052 753.0156 221.71614Q752.5156 221.21614 752.5156 220.40364L752.5156 219.98177ZM753.3281 220.43489Q753.3281 220.90364 753.5781 221.20052Q753.84375 221.49739 754.28125 221.49739Q754.7031 221.49739 754.9531 221.21614Q755.2031 220.91927 755.2031 220.41927L755.2031 219.98177Q755.2031 219.51302 754.9375 219.23177Q754.6875 218.93489 754.2656 218.93489Q753.84375 218.93489 753.5781 219.23177Q753.3281 219.51302 753.3281 220.01302L753.3281 220.43489ZM750.375 221.43489L749.75 221.04427L753.9219 214.37239L754.53125 214.76302L750.375 221.43489Z" fill-rule="nonzero"/><path stroke="#757575" stroke-width="1.0" stroke-linecap="butt" d="M756.75 208.57552L622.1667 208.57552L581.368 208.57552" fill-rule="nonzero"/><path fill="#9e9e9e" d="M583.368 208.57552C583.368 207.47095 582.47253 206.57552 581.368 206.57552C580.2634 206.57552 579.368 207.47095 579.368 208.57552C579.368 209.68008 580.2634 210.57552 581.368 210.57552C582.47253 210.57552 583.368 209.68008 583.368 208.57552" fill-rule="nonzero"/><path fill="#1a1a1a" d="M738.5625 416.59402L741.0 409.56277L742.2344 409.56277L739.0625 418.09402L738.0781 418.09402L734.9219 409.56277L736.1406 409.56277L738.5625 416.59402ZM744.75 418.09402L743.6719 418.09402L743.6719 411.75027L744.75 411.75027L744.75 418.09402ZM743.5781 410.0784Q743.5781 409.81277 743.7344 409.62527Q743.90625 409.43777 744.21875 409.43777Q744.53125 409.43777 744.6875 409.62527Q744.8594 409.81277 744.8594 410.0784Q744.8594 410.3284 744.6875 410.5159Q744.53125 410.68777 744.21875 410.68777Q743.90625 410.68777 743.7344 410.5159Q743.5781 410.3284 743.5781 410.0784ZM747.59375 411.75027L747.625 412.4534Q748.3125 411.6409 749.5 411.6409Q750.8281 411.6409 751.3125 412.65652Q751.625 412.2034 752.125 411.92215Q752.6406 411.6409 753.3281 411.6409Q755.4219 411.6409 755.4531 413.84402L755.4531 418.09402L754.375 418.09402L754.375 413.90652Q754.375 413.23465 754.0625 412.90652Q753.75 412.56277 753.0156 412.56277Q752.40625 412.56277 752.0 412.92215Q751.6094 413.28152 751.5469 413.8909L751.5469 418.09402L750.46875 418.09402L750.46875 413.93777Q750.46875 412.56277 749.1094 412.56277Q748.0469 412.56277 747.65625 413.46902L747.65625 418.09402L746.5625 418.09402L746.5625 411.75027L747.59375 411.75027Z" fill-rule="nonzero"/><path fill="#9e9e9e" d="M730.0469 436.09402L724.4531 436.09402L724.4531 435.31277L727.40625 432.03152Q728.0625 431.28152 728.3125 430.8284Q728.5625 430.35965 728.5625 429.85965Q728.5625 429.18777 728.15625 428.7659Q727.7656 428.3284 727.0781 428.3284Q726.28125 428.3284 725.8281 428.79715Q725.375 429.25027 725.375 430.0784L724.2969 430.0784Q724.2969 428.8909 725.0469 428.17215Q725.8125 427.43777 727.0781 427.43777Q728.28125 427.43777 728.96875 428.06277Q729.65625 428.68777 729.65625 429.73465Q729.65625 430.98465 728.0469 432.73465L725.7656 435.2034L730.0469 435.2034L730.0469 436.09402ZM733.03125 431.29715L733.84375 431.29715Q734.625 431.28152 735.0625 430.8909Q735.5 430.50027 735.5 429.8284Q735.5 428.3284 734.0 428.3284Q733.2969 428.3284 732.875 428.73465Q732.46875 429.1409 732.46875 429.79715L731.375 429.79715Q731.375 428.78152 732.1094 428.10965Q732.8594 427.43777 734.0 427.43777Q735.2031 427.43777 735.8906 428.0784Q736.5781 428.71902 736.5781 429.85965Q736.5781 430.42215 736.21875 430.93777Q735.8594 431.4534 735.2344 431.71902Q735.9375 431.93777 736.3125 432.4534Q736.7031 432.96902 736.7031 433.71902Q736.7031 434.85965 735.9531 435.54715Q735.2031 436.21902 734.0 436.21902Q732.8125 436.21902 732.0469 435.56277Q731.2969 434.90652 731.2969 433.84402L732.3906 433.84402Q732.3906 434.5159 732.8281 434.92215Q733.2656 435.3284 734.0156 435.3284Q734.7969 435.3284 735.2031 434.92215Q735.625 434.50027 735.625 433.73465Q735.625 433.00027 735.1719 432.60965Q734.71875 432.2034 733.84375 432.18777L733.03125 432.18777L733.03125 431.29715ZM738.59375 435.53152Q738.59375 435.25027 738.75 435.06277Q738.9219 434.87527 739.25 434.87527Q739.59375 434.87527 739.7656 435.06277Q739.9375 435.25027 739.9375 435.53152Q739.9375 435.79715 739.7656 435.98465Q739.59375 436.15652 739.25 436.15652Q738.9219 436.15652 738.75 435.98465Q738.59375 435.79715 738.59375 435.53152ZM745.71875 427.56277L745.71875 428.46902L745.5156 428.46902Q744.25 428.50027 743.5 429.23465Q742.75 429.9534 742.625 431.2659Q743.3125 430.50027 744.46875 430.50027Q745.5781 430.50027 746.25 431.28152Q746.9219 432.06277 746.9219 433.31277Q746.9219 434.62527 746.2031 435.42215Q745.4844 436.21902 744.2656 436.21902Q743.0469 436.21902 742.28125 435.28152Q741.53125 434.3284 741.53125 432.84402L741.53125 432.43777Q741.53125 430.0784 742.53125 428.8284Q743.53125 427.5784 745.5156 427.56277L745.71875 427.56277ZM744.2969 431.40652Q743.7344 431.40652 743.2656 431.73465Q742.7969 432.06277 742.6094 432.5784L742.6094 432.96902Q742.6094 434.03152 743.0781 434.67215Q743.5625 435.31277 744.2656 435.31277Q745.0 435.31277 745.4219 434.78152Q745.84375 434.23465 745.84375 433.35965Q745.84375 432.48465 745.4219 431.9534Q745.0 431.40652 744.2969 431.40652ZM748.3594 429.2034Q748.3594 428.43777 748.84375 427.93777Q749.34375 427.43777 750.1094 427.43777Q750.8906 427.43777 751.375 427.93777Q751.8594 428.43777 751.8594 429.23465L751.8594 429.65652Q751.8594 430.42215 751.3594 430.92215Q750.875 431.40652 750.125 431.40652Q749.3594 431.40652 748.8594 430.92215Q748.3594 430.42215 748.3594 429.60965L748.3594 429.2034ZM749.1719 429.65652Q749.1719 430.10965 749.4219 430.40652Q749.6875 430.7034 750.125 430.7034Q750.5469 430.7034 750.7969 430.42215Q751.0469 430.12527 751.0469 429.62527L751.0469 429.2034Q751.0469 428.75027 750.7969 428.4534Q750.5469 428.1409 750.1094 428.1409Q749.6719 428.1409 749.4219 428.4534Q749.1719 428.75027 749.1719 429.21902L749.1719 429.65652ZM752.5156 434.00027Q752.5156 433.23465 753.0 432.75027Q753.5 432.25027 754.2656 432.25027Q755.03125 432.25027 755.5156 432.75027Q756.0156 433.23465 756.0156 434.04715L756.0156 434.4534Q756.0156 435.21902 755.53125 435.71902Q755.0469 436.21902 754.28125 436.21902Q753.5156 436.21902 753.0156 435.73465Q752.5156 435.23465 752.5156 434.42215L752.5156 434.00027ZM753.3281 434.4534Q753.3281 434.92215 753.5781 435.21902Q753.84375 435.5159 754.28125 435.5159Q754.7031 435.5159 754.9531 435.23465Q755.2031 434.93777 755.2031 434.43777L755.2031 434.00027Q755.2031 433.53152 754.9375 433.25027Q754.6875 432.9534 754.2656 432.9534Q753.84375 432.9534 753.5781 433.25027Q753.3281 433.53152 753.3281 434.03152L753.3281 434.4534ZM750.375 435.4534L749.75 435.06277L753.9219 428.3909L754.53125 428.78152L750.375 435.4534Z" fill-rule="nonzero"/><path stroke="#757575" stroke-width="1.0" stroke-linecap="butt" d="M756.75 422.59402L622.1667 422.59402L436.20987 422.59402" fill-rule="nonzero"/><path fill="#9e9e9e" d="M438.20987 422.59402C438.20987 421.48944 437.31445 420.59402 436.20987 420.59402C435.10532 420.59402 434.20987 421.48944 434.20987 422.59402C434.20987 423.69858 435.10532 424.59402 436.20987 424.59402C437.31445 424.59402 438.20987 423.69858 438.20987 422.59402" fill-rule="nonzero"/><path fill="#757575" d="M31.96875 41.765625L32.234375 43.640625L32.640625 41.953125L35.453125 32.03125L37.03125 32.03125L39.78125 41.953125L40.171875 43.671875L40.46875 41.75L42.6875 32.03125L44.5625 32.03125L41.125 46.25L39.40625 46.25L36.484375 35.890625L36.25 34.796875L36.03125 35.890625L33.0 46.25L31.28125 46.25L27.84375 32.03125L29.71875 32.03125L31.96875 41.765625ZM48.421875 36.96875Q49.625 35.484375 51.546875 35.484375Q54.90625 35.484375 54.921875 39.265625L54.921875 46.25L53.125 46.25L53.125 39.25Q53.109375 38.109375 52.59375 37.5625Q52.09375 37.015625 51.0 37.015625Q50.125 37.015625 49.453125 37.484375Q48.796875 37.953125 48.421875 38.71875L48.421875 46.25L46.625 46.25L46.625 31.25L48.421875 31.25L48.421875 36.96875ZM64.140625 46.25Q63.984375 45.9375 63.890625 45.140625Q62.625 46.453125 60.875 46.453125Q59.3125 46.453125 58.3125 45.5625Q57.3125 44.671875 57.3125 43.3125Q57.3125 41.671875 58.5625 40.765625Q59.828125 39.84375 62.09375 39.84375L63.859375 39.84375L63.859375 39.015625Q63.859375 38.0625 63.28125 37.5Q62.71875 36.9375 61.625 36.9375Q60.65625 36.9375 60.0 37.4375Q59.34375 37.921875 59.34375 38.609375L57.53125 38.609375Q57.53125 37.828125 58.09375 37.09375Q58.65625 36.34375 59.609375 35.921875Q60.578125 35.484375 61.734375 35.484375Q63.5625 35.484375 64.59375 36.40625Q65.625 37.3125 65.671875 38.921875L65.671875 43.78125Q65.671875 45.234375 66.03125 46.09375L66.03125 46.25L64.140625 46.25ZM61.140625 44.875Q62.0 44.875 62.75 44.4375Q63.515625 44.0 63.859375 43.296875L63.859375 41.125L62.4375 41.125Q59.125 41.125 59.125 43.0625Q59.125 43.921875 59.6875 44.40625Q60.25 44.875 61.140625 44.875ZM71.0625 33.125L71.0625 35.6875L73.046875 35.6875L73.046875 37.078125L71.0625 37.078125L71.0625 43.625Q71.0625 44.265625 71.328125 44.59375Q71.59375 44.90625 72.234375 44.90625Q72.546875 44.90625 73.09375 44.78125L73.09375 46.25Q72.375 46.453125 71.703125 46.453125Q70.5 46.453125 69.875 45.71875Q69.265625 44.984375 69.265625 43.625L69.265625 37.078125L67.34375 37.078125L67.34375 35.6875L69.265625 35.6875L69.265625 33.125L71.0625 33.125ZM85.0 46.453125Q82.859375 46.453125 81.5 45.046875Q80.15625 43.625 80.15625 41.265625L80.15625 40.921875Q80.15625 39.359375 80.75 38.125Q81.359375 36.890625 82.4375 36.1875Q83.515625 35.484375 84.78125 35.484375Q86.84375 35.484375 87.984375 36.84375Q89.125 38.203125 89.125 40.734375L89.125 41.484375L81.96875 41.484375Q82.0 43.046875 82.875 44.015625Q83.75 44.96875 85.09375 44.96875Q86.0625 44.96875 86.71875 44.578125Q87.390625 44.1875 87.890625 43.546875L88.984375 44.40625Q87.65625 46.453125 85.0 46.453125ZM84.78125 36.96875Q83.6875 36.96875 82.9375 37.765625Q82.203125 38.5625 82.03125 40.0L87.3125 40.0L87.3125 39.859375Q87.234375 38.484375 86.5625 37.734375Q85.90625 36.96875 84.78125 36.96875ZM91.171875 40.875Q91.171875 38.453125 92.328125 36.96875Q93.484375 35.484375 95.34375 35.484375Q97.203125 35.484375 98.28125 36.75L98.28125 31.25L100.09375 31.25L100.09375 46.25L98.4375 46.25L98.34375 45.109375Q97.265625 46.453125 95.328125 46.453125Q93.5 46.453125 92.328125 44.953125Q91.171875 43.4375 91.171875 41.015625L91.171875 40.875ZM92.984375 41.078125Q92.984375 42.875 93.71875 43.890625Q94.46875 44.90625 95.78125 44.90625Q97.5 44.90625 98.28125 43.375L98.28125 38.515625Q97.484375 37.015625 95.796875 37.015625Q94.46875 37.015625 93.71875 38.046875Q92.984375 39.078125 92.984375 41.078125ZM104.578125 46.25L102.78125 46.25L102.78125 35.6875L104.578125 35.6875L104.578125 46.25ZM102.625 32.875Q102.625 32.4375 102.890625 32.140625Q103.171875 31.828125 103.6875 31.828125Q104.21875 31.828125 104.484375 32.140625Q104.765625 32.4375 104.765625 32.875Q104.765625 33.3125 104.484375 33.609375Q104.21875 33.90625 103.6875 33.90625Q103.171875 33.90625 102.890625 33.609375Q102.625 33.3125 102.625 32.875ZM110.0625 33.125L110.0625 35.6875L112.046875 35.6875L112.046875 37.078125L110.0625 37.078125L110.0625 43.625Q110.0625 44.265625 110.328125 44.59375Q110.59375 44.90625 111.234375 44.90625Q111.546875 44.90625 112.09375 44.78125L112.09375 46.25Q111.375 46.453125 110.703125 46.453125Q109.5 46.453125 108.875 45.71875Q108.265625 44.984375 108.265625 43.625L108.265625 37.078125L106.34375 37.078125L106.34375 35.6875L108.265625 35.6875L108.265625 33.125L110.0625 33.125ZM114.140625 40.875Q114.140625 39.3125 114.75 38.078125Q115.359375 36.828125 116.4375 36.15625Q117.53125 35.484375 118.9375 35.484375Q121.09375 35.484375 122.421875 36.984375Q123.765625 38.46875 123.765625 40.953125L123.765625 41.078125Q123.765625 42.625 123.171875 43.859375Q122.578125 45.078125 121.46875 45.765625Q120.375 46.453125 118.953125 46.453125Q116.8125 46.453125 115.46875 44.953125Q114.140625 43.453125 114.140625 41.0L114.140625 40.875ZM115.953125 41.078125Q115.953125 42.84375 116.765625 43.90625Q117.59375 44.96875 118.953125 44.96875Q120.328125 44.96875 121.140625 43.890625Q121.953125 42.8125 121.953125 40.875Q121.953125 39.125 121.125 38.046875Q120.296875 36.96875 118.9375 36.96875Q117.59375 36.96875 116.765625 38.03125Q115.953125 39.09375 115.953125 41.078125ZM130.71875 37.296875Q130.3125 37.234375 129.84375 37.234375Q128.0625 37.234375 127.421875 38.75L127.421875 46.25L125.625 46.25L125.625 35.6875L127.375 35.6875L127.40625 36.90625Q128.29688 35.484375 129.92188 35.484375Q130.45312 35.484375 130.71875 35.625L130.71875 37.296875ZM137.17188 40.875Q137.17188 38.453125 138.32812 36.96875Q139.48438 35.484375 141.34375 35.484375Q143.20312 35.484375 144.28125 36.75L144.28125 31.25L146.09375 31.25L146.09375 46.25L144.4375 46.25L144.34375 45.109375Q143.26562 46.453125 141.32812 46.453125Q139.5 46.453125 138.32812 44.953125Q137.17188 43.4375 137.17188 41.015625L137.17188 40.875ZM138.98438 41.078125Q138.98438 42.875 139.71875 43.890625Q140.46875 44.90625 141.78125 44.90625Q143.5 44.90625 144.28125 43.375L144.28125 38.515625Q143.48438 37.015625 141.79688 37.015625Q140.46875 37.015625 139.71875 38.046875Q138.98438 39.078125 138.98438 41.078125ZM148.14062 40.875Q148.14062 39.3125 148.75 38.078125Q149.35938 36.828125 150.4375 36.15625Q151.53125 35.484375 152.9375 35.484375Q155.09375 35.484375 156.42188 36.984375Q157.76562 38.46875 157.76562 40.953125L157.76562 41.078125Q157.76562 42.625 157.17188 43.859375Q156.57812 45.078125 155.46875 45.765625Q154.375 46.453125 152.95312 46.453125Q150.8125 46.453125 149.46875 44.953125Q148.14062 43.453125 148.14062 41.0L148.14062 40.875ZM149.95312 41.078125Q149.95312 42.84375 150.76562 43.90625Q151.59375 44.96875 152.95312 44.96875Q154.32812 44.96875 155.14062 43.890625Q155.95312 42.8125 155.95312 40.875Q155.95312 39.125 155.125 38.046875Q154.29688 36.96875 152.9375 36.96875Q151.59375 36.96875 150.76562 38.03125Q149.95312 39.09375 149.95312 41.078125ZM168.07812 43.609375L170.53125 35.6875L172.46875 35.6875L168.21875 47.875Q167.23438 50.515625 165.09375 50.515625L164.75 50.484375L164.07812 50.359375L164.07812 48.890625L164.5625 48.9375Q165.48438 48.9375 165.98438 48.5625Q166.5 48.1875 166.82812 47.203125L167.23438 46.125L163.46875 35.6875L165.4375 35.6875L168.07812 43.609375ZM173.14062 40.875Q173.14062 39.3125 173.75 38.078125Q174.35938 36.828125 175.4375 36.15625Q176.53125 35.484375 177.9375 35.484375Q180.09375 35.484375 181.42188 36.984375Q182.76562 38.46875 182.76562 40.953125L182.76562 41.078125Q182.76562 42.625 182.17188 43.859375Q181.57812 45.078125 180.46875 45.765625Q179.375 46.453125 177.95312 46.453125Q175.8125 46.453125 174.46875 44.953125Q173.14062 43.453125 173.14062 41.0L173.14062 40.875ZM174.95312 41.078125Q174.95312 42.84375 175.76562 43.90625Q176.59375 44.96875 177.95312 44.96875Q179.32812 44.96875 180.14062 43.890625Q180.95312 42.8125 180.95312 40.875Q180.95312 39.125 180.125 38.046875Q179.29688 36.96875 177.9375 36.96875Q176.59375 36.96875 175.76562 38.03125Q174.95312 39.09375 174.95312 41.078125ZM191.14062 45.203125Q190.09375 46.453125 188.04688 46.453125Q186.35938 46.453125 185.46875 45.46875Q184.59375 44.484375 184.57812 42.5625L184.57812 35.6875L186.39062 35.6875L186.39062 42.515625Q186.39062 44.90625 188.34375 44.90625Q190.40625 44.90625 191.09375 43.375L191.09375 35.6875L192.90625 35.6875L192.90625 46.25L191.1875 46.25L191.14062 45.203125ZM207.14062 45.203125Q206.09375 46.453125 204.04688 46.453125Q202.35938 46.453125 201.46875 45.46875Q200.59375 44.484375 200.57812 42.5625L200.57812 35.6875L202.39062 35.6875L202.39062 42.515625Q202.39062 44.90625 204.34375 44.90625Q206.40625 44.90625 207.09375 43.375L207.09375 35.6875L208.90625 35.6875L208.90625 46.25L207.1875 46.25L207.14062 45.203125ZM217.76562 43.453125Q217.76562 42.71875 217.21875 42.3125Q216.67188 41.90625 215.29688 41.609375Q213.92188 41.3125 213.10938 40.90625Q212.3125 40.5 211.92188 39.9375Q211.54688 39.359375 211.54688 38.578125Q211.54688 37.28125 212.64062 36.390625Q213.73438 35.484375 215.45312 35.484375Q217.25 35.484375 218.35938 36.421875Q219.48438 37.34375 219.48438 38.78125L217.65625 38.78125Q217.65625 38.046875 217.03125 37.515625Q216.40625 36.96875 215.45312 36.96875Q214.45312 36.96875 213.89062 37.40625Q213.34375 37.828125 213.34375 38.53125Q213.34375 39.171875 213.85938 39.515625Q214.375 39.84375 215.73438 40.15625Q217.09375 40.453125 217.92188 40.875Q218.76562 41.28125 219.17188 41.875Q219.57812 42.46875 219.57812 43.3125Q219.57812 44.734375 218.4375 45.59375Q217.3125 46.453125 215.5 46.453125Q214.23438 46.453125 213.25 46.0Q212.28125 45.546875 211.71875 44.75Q211.17188 43.9375 211.17188 43.0L212.98438 43.0Q213.03125 43.90625 213.70312 44.4375Q214.39062 44.96875 215.5 44.96875Q216.53125 44.96875 217.14062 44.5625Q217.76562 44.140625 217.76562 43.453125ZM226.0 46.453125Q223.85938 46.453125 222.5 45.046875Q221.15625 43.625 221.15625 41.265625L221.15625 40.921875Q221.15625 39.359375 221.75 38.125Q222.35938 36.890625 223.4375 36.1875Q224.51562 35.484375 225.78125 35.484375Q227.84375 35.484375 228.98438 36.84375Q230.125 38.203125 230.125 40.734375L230.125 41.484375L222.96875 41.484375Q223.0 43.046875 223.875 44.015625Q224.75 44.96875 226.09375 44.96875Q227.0625 44.96875 227.71875 44.578125Q228.39062 44.1875 228.89062 43.546875L229.98438 44.40625Q228.65625 46.453125 226.0 46.453125ZM225.78125 36.96875Q224.6875 36.96875 223.9375 37.765625Q223.20312 38.5625 223.03125 40.0L228.3125 40.0L228.3125 39.859375Q228.23438 38.484375 227.5625 37.734375Q226.90625 36.96875 225.78125 36.96875ZM246.96875 43.765625L249.0 35.6875L250.8125 35.6875L247.73438 46.25L246.26562 46.25L243.70312 38.234375L241.20312 46.25L239.73438 46.25L236.67188 35.6875L238.46875 35.6875L240.54688 43.59375L243.01562 35.6875L244.46875 35.6875L246.96875 43.765625ZM254.42188 36.96875Q255.625 35.484375 257.54688 35.484375Q260.90625 35.484375 260.92188 39.265625L260.92188 46.25L259.125 46.25L259.125 39.25Q259.10938 38.109375 258.59375 37.5625Q258.09375 37.015625 257.0 37.015625Q256.125 37.015625 255.45312 37.484375Q254.79688 37.953125 254.42188 38.71875L254.42188 46.25L252.625 46.25L252.625 31.25L254.42188 31.25L254.42188 36.96875ZM268.0 46.453125Q265.85938 46.453125 264.5 45.046875Q263.15625 43.625 263.15625 41.265625L263.15625 40.921875Q263.15625 39.359375 263.75 38.125Q264.35938 36.890625 265.4375 36.1875Q266.51562 35.484375 267.78125 35.484375Q269.84375 35.484375 270.98438 36.84375Q272.125 38.203125 272.125 40.734375L272.125 41.484375L264.96875 41.484375Q265.0 43.046875 265.875 44.015625Q266.75 44.96875 268.09375 44.96875Q269.0625 44.96875 269.71875 44.578125Q270.39062 44.1875 270.89062 43.546875L271.98438 44.40625Q270.65625 46.453125 268.0 46.453125ZM267.78125 36.96875Q266.6875 36.96875 265.9375 37.765625Q265.20312 38.5625 265.03125 40.0L270.3125 40.0L270.3125 39.859375Q270.23438 38.484375 269.5625 37.734375Q268.90625 36.96875 267.78125 36.96875ZM276.32812 35.6875L276.39062 37.015625Q277.59375 35.484375 279.54688 35.484375Q282.90625 35.484375 282.92188 39.265625L282.92188 46.25L281.125 46.25L281.125 39.25Q281.10938 38.109375 280.59375 37.5625Q280.09375 37.015625 279.0 37.015625Q278.125 37.015625 277.45312 37.484375Q276.79688 37.953125 276.42188 38.71875L276.42188 46.25L274.625 46.25L274.625 35.6875L276.32812 35.6875ZM299.96875 43.765625L302.0 35.6875L303.8125 35.6875L300.73438 46.25L299.26562 46.25L296.70312 38.234375L294.20312 46.25L292.73438 46.25L289.67188 35.6875L291.46875 35.6875L293.54688 43.59375L296.01562 35.6875L297.46875 35.6875L299.96875 43.765625ZM310.71875 37.296875Q310.3125 37.234375 309.84375 37.234375Q308.0625 37.234375 307.42188 38.75L307.42188 46.25L305.625 46.25L305.625 35.6875L307.375 35.6875L307.40625 36.90625Q308.29688 35.484375 309.92188 35.484375Q310.45312 35.484375 310.71875 35.625L310.71875 37.296875ZM314.57812 46.25L312.78125 46.25L312.78125 35.6875L314.57812 35.6875L314.57812 46.25ZM312.625 32.875Q312.625 32.4375 312.89062 32.140625Q313.17188 31.828125 313.6875 31.828125Q314.21875 31.828125 314.48438 32.140625Q314.76562 32.4375 314.76562 32.875Q314.76562 33.3125 314.48438 33.609375Q314.21875 33.90625 313.6875 33.90625Q313.17188 33.90625 312.89062 33.609375Q312.625 33.3125 312.625 32.875ZM320.0625 33.125L320.0625 35.6875L322.04688 35.6875L322.04688 37.078125L320.0625 37.078125L320.0625 43.625Q320.0625 44.265625 320.32812 44.59375Q320.59375 44.90625 321.23438 44.90625Q321.54688 44.90625 322.09375 44.78125L322.09375 46.25Q321.375 46.453125 320.70312 46.453125Q319.5 46.453125 318.875 45.71875Q318.26562 44.984375 318.26562 43.625L318.26562 37.078125L316.34375 37.078125L316.34375 35.6875L318.26562 35.6875L318.26562 33.125L320.0625 33.125ZM326.57812 46.25L324.78125 46.25L324.78125 35.6875L326.57812 35.6875L326.57812 46.25ZM324.625 32.875Q324.625 32.4375 324.89062 32.140625Q325.17188 31.828125 325.6875 31.828125Q326.21875 31.828125 326.48438 32.140625Q326.76562 32.4375 326.76562 32.875Q326.76562 33.3125 326.48438 33.609375Q326.21875 33.90625 325.6875 33.90625Q325.17188 33.90625 324.89062 33.609375Q324.625 33.3125 324.625 32.875ZM331.32812 35.6875L331.39062 37.015625Q332.59375 35.484375 334.54688 35.484375Q337.90625 35.484375 337.92188 39.265625L337.92188 46.25L336.125 46.25L336.125 39.25Q336.10938 38.109375 335.59375 37.5625Q335.09375 37.015625 334.0 37.015625Q333.125 37.015625 332.45312 37.484375Q331.79688 37.953125 331.42188 38.71875L331.42188 46.25L329.625 46.25L329.625 35.6875L331.32812 35.6875ZM340.1875 40.875Q340.1875 38.40625 341.32812 36.953125Q342.46875 35.484375 344.35938 35.484375Q346.29688 35.484375 347.375 36.859375L347.46875 35.6875L349.10938 35.6875L349.10938 46.0Q349.10938 48.046875 347.89062 49.21875Q346.6875 50.40625 344.625 50.40625Q343.48438 50.40625 342.39062 49.921875Q341.29688 49.4375 340.71875 48.578125L341.65625 47.5Q342.82812 48.9375 344.5 48.9375Q345.82812 48.9375 346.5625 48.1875Q347.29688 47.453125 347.29688 46.109375L347.29688 45.1875Q346.21875 46.453125 344.34375 46.453125Q342.48438 46.453125 341.32812 44.953125Q340.1875 43.453125 340.1875 40.875ZM342.0 41.078125Q342.0 42.875 342.73438 43.890625Q343.46875 44.90625 344.78125 44.90625Q346.5 44.90625 347.29688 43.359375L347.29688 38.53125Q346.46875 37.015625 344.8125 37.015625Q343.48438 37.015625 342.73438 38.046875Q342.0 39.078125 342.0 41.078125ZM362.10938 40.5L358.78125 40.5L358.78125 46.25L356.89062 46.25L356.89062 32.03125L361.59375 32.03125Q364.0 32.03125 365.29688 33.125Q366.59375 34.21875 366.59375 36.3125Q366.59375 37.640625 365.875 38.625Q365.15625 39.609375 363.875 40.09375L367.21875 46.125L367.21875 46.25L365.20312 46.25L362.10938 40.5ZM358.78125 38.96875L361.65625 38.96875Q363.04688 38.96875 363.875 38.25Q364.70312 37.515625 364.70312 36.3125Q364.70312 34.984375 363.90625 34.28125Q363.125 33.578125 361.64062 33.578125L358.78125 33.578125L358.78125 38.96875ZM375.14062 45.203125Q374.09375 46.453125 372.04688 46.453125Q370.35938 46.453125 369.46875 45.46875Q368.59375 44.484375 368.57812 42.5625L368.57812 35.6875L370.39062 35.6875L370.39062 42.515625Q370.39062 44.90625 372.34375 44.90625Q374.40625 44.90625 375.09375 43.375L375.09375 35.6875L376.90625 35.6875L376.90625 46.25L375.1875 46.25L375.14062 45.203125ZM385.76562 43.453125Q385.76562 42.71875 385.21875 42.3125Q384.67188 41.90625 383.29688 41.609375Q381.92188 41.3125 381.10938 40.90625Q380.3125 40.5 379.92188 39.9375Q379.54688 39.359375 379.54688 38.578125Q379.54688 37.28125 380.64062 36.390625Q381.73438 35.484375 383.45312 35.484375Q385.25 35.484375 386.35938 36.421875Q387.48438 37.34375 387.48438 38.78125L385.65625 38.78125Q385.65625 38.046875 385.03125 37.515625Q384.40625 36.96875 383.45312 36.96875Q382.45312 36.96875 381.89062 37.40625Q381.34375 37.828125 381.34375 38.53125Q381.34375 39.171875 381.85938 39.515625Q382.375 39.84375 383.73438 40.15625Q385.09375 40.453125 385.92188 40.875Q386.76562 41.28125 387.17188 41.875Q387.57812 42.46875 387.57812 43.3125Q387.57812 44.734375 386.4375 45.59375Q385.3125 46.453125 383.5 46.453125Q382.23438 46.453125 381.25 46.0Q380.28125 45.546875 379.71875 44.75Q379.17188 43.9375 379.17188 43.0L380.98438 43.0Q381.03125 43.90625 381.70312 44.4375Q382.39062 44.96875 383.5 44.96875Q384.53125 44.96875 385.14062 44.5625Q385.76562 44.140625 385.76562 43.453125ZM392.0625 33.125L392.0625 35.6875L394.04688 35.6875L394.04688 37.078125L392.0625 37.078125L392.0625 43.625Q392.0625 44.265625 392.32812 44.59375Q392.59375 44.90625 393.23438 44.90625Q393.54688 44.90625 394.09375 44.78125L394.09375 46.25Q393.375 46.453125 392.70312 46.453125Q391.5 46.453125 390.875 45.71875Q390.26562 44.984375 390.26562 43.625L390.26562 37.078125L388.34375 37.078125L388.34375 35.6875L390.26562 35.6875L390.26562 33.125L392.0625 33.125ZM398.73438 42.25Q398.75 41.078125 399.0 40.40625Q399.25 39.734375 400.0 38.921875L401.28125 37.59375Q402.09375 36.671875 402.09375 35.609375Q402.09375 34.578125 401.54688 34.0Q401.01562 33.421875 400.0 33.421875Q399.0 33.421875 398.39062 33.953125Q397.79688 34.46875 397.79688 35.359375L395.98438 35.359375Q396.0 33.78125 397.10938 32.8125Q398.21875 31.828125 400.0 31.828125Q401.84375 31.828125 402.875 32.828125Q403.90625 33.8125 403.90625 35.546875Q403.90625 37.25 402.32812 38.921875L401.25 39.96875Q400.54688 40.765625 400.54688 42.25L398.73438 42.25ZM398.65625 45.34375Q398.65625 44.90625 398.92188 44.609375Q399.20312 44.3125 399.71875 44.3125Q400.25 44.3125 400.51562 44.609375Q400.79688 44.90625 400.79688 45.34375Q400.79688 45.78125 400.51562 46.078125Q400.25 46.359375 399.71875 46.359375Q399.20312 46.359375 398.92188 46.078125Q398.65625 45.78125 398.65625 45.34375Z" fill-rule="nonzero"/></svg>