<svg version="1.1" viewBox="0.0 0.0 784.0 545.0" fill="none" stroke="none" stroke-linecap="square" stroke-miterlimit="10" width="784" height="545" xmlns:xlink="http://www.w3.org/1999/xlink" xmlns="http://www.w3.org/2000/svg"><path fill="#ffffff" d="M0 0L784.0 0L784.0 545.0L0 545.0L0 0Z" fill-rule="nonzero"/><path fill="#5b9bd5" d="M382.64587 119.990845C385.7622 119.899734 388.88095 119.854164 392.0 119.854164L392.0 276.77084Z" fill-rule="nonzero"/><path fill="#ffc000" d="M362.63806 121.206055C369.27805 120.59196 375.954 120.186485 382.64587 119.990845L392.0 276.77084Z" fill-rule="nonzero"/><path fill="#a5a5a5" d="M167.8354 276.0966C168.31703 197.63559 251.51556 131.48318 362.63806 121.206055L392.0 276.77084Z" fill-rule="nonzero"/><path fill="#a65822" d="M371.38904 466.64783C256.06155 459.1936 167.83333 391.4685 167.83333 310.39584L167.83333 276.77084C167.83333 357.8435 256.06155 425.5686 371.38904 433.02283Z" fill-rule="nonzero"/><path fill="#ed7d31" d="M371.38904 433.02283C255.69368 425.54483 167.33617 357.42712 167.8354 276.0966L392.0 276.77084Z" fill-rule="nonzero"/><path fill="#305089" d="M616.1667 310.39584C616.1667 354.52185 589.6252 396.60867 543.047 426.34146C496.46887 456.07428 434.1592 470.705 371.38904 466.64783L371.38904 433.02283C434.1592 437.08 496.46887 422.44928 543.047 392.71646C589.6252 362.98367 616.1667 320.89685 616.1667 276.77084Z" fill-rule="nonzero"/><path fill="#4472c4" d="M392.0 119.854164C474.55014 119.854164 550.4202 151.61317 589.48206 202.51959C628.5439 253.42601 624.4756 315.24106 578.8927 363.41776C533.3098 411.59448 453.5895 438.33585 371.38904 433.02283L392.0 276.77084Z" fill-rule="nonzero"/><path fill="#1a1a1a" d="M28.234375 123.757996L28.234375 115.226746L31.03125 115.226746Q32.421875 115.226746 33.109375 115.80487Q33.8125 116.36737 33.8125 117.49237Q33.8125 118.101746 33.46875 118.570496Q33.140625 119.02362 32.546875 119.27362Q33.25 119.46112 33.640625 120.007996Q34.046875 120.539246 34.046875 121.289246Q34.046875 122.445496 33.296875 123.101746Q32.5625 123.757996 31.203125 123.757996L28.234375 123.757996ZM29.359375 119.77362L29.359375 122.83612L31.21875 122.83612Q32.015625 122.83612 32.46875 122.42987Q32.921875 122.02362 32.921875 121.30487Q32.921875 119.77362 31.234375 119.77362L29.359375 119.77362ZM29.359375 118.86737L31.0625 118.86737Q31.796875 118.86737 32.234375 118.507996Q32.6875 118.132996 32.6875 117.49237Q32.6875 116.789246 32.28125 116.476746Q31.875 116.14862 31.03125 116.14862L29.359375 116.14862L29.359375 118.86737ZM37.75 119.96112Q36.3125 119.539246 35.640625 118.92987Q34.984375 118.320496 34.984375 117.42987Q34.984375 116.42987 35.78125 115.77362Q36.59375 115.101746 37.890625 115.101746Q38.765625 115.101746 39.453125 115.445496Q40.140625 115.789246 40.515625 116.382996Q40.90625 116.976746 40.90625 117.695496L39.765625 117.695496Q39.765625 116.914246 39.265625 116.476746Q38.78125 116.039246 37.890625 116.039246Q37.0625 116.039246 36.59375 116.414246Q36.125 116.77362 36.125 117.414246Q36.125 117.945496 36.5625 118.30487Q37.015625 118.664246 38.078125 118.96112Q39.140625 119.257996 39.734375 119.61737Q40.34375 119.976746 40.625 120.46112Q40.921875 120.945496 40.921875 121.58612Q40.921875 122.632996 40.109375 123.257996Q39.296875 123.882996 37.953125 123.882996Q37.0625 123.882996 36.296875 123.539246Q35.546875 123.195496 35.125 122.61737Q34.71875 122.02362 34.71875 121.289246L35.84375 121.289246Q35.84375 122.05487 36.421875 122.507996Q37.0 122.96112 37.953125 122.96112Q38.84375 122.96112 39.3125 122.601746Q39.78125 122.226746 39.78125 121.601746Q39.78125 120.976746 39.34375 120.632996Q38.90625 120.289246 37.75 119.96112ZM42.234375 123.757996L42.234375 115.226746L44.65625 115.226746Q45.765625 115.226746 46.609375 115.726746Q47.46875 116.21112 47.9375 117.11737Q48.40625 118.02362 48.40625 119.21112L48.40625 119.74237Q48.40625 120.96112 47.9375 121.86737Q47.484375 122.77362 46.609375 123.257996Q45.75 123.74237 44.609375 123.757996L42.234375 123.757996ZM43.359375 116.14862L43.359375 122.83612L44.546875 122.83612Q45.84375 122.83612 46.5625 122.039246Q47.296875 121.226746 47.296875 119.726746L47.296875 119.226746Q47.296875 117.77362 46.609375 116.976746Q45.9375 116.164246 44.671875 116.14862L43.359375 116.14862ZM52.328125 120.570496L49.46875 120.570496L49.46875 119.695496L52.328125 119.695496L52.328125 120.570496ZM56.0625 122.257996L58.5 115.226746L59.734375 115.226746L56.5625 123.757996L55.578125 123.757996L52.421875 115.226746L53.640625 115.226746L56.0625 122.257996ZM64.984375 123.757996Q64.890625 123.570496 64.828125 123.08612Q64.078125 123.882996 63.03125 123.882996Q62.09375 123.882996 61.484375 123.351746Q60.890625 122.820496 60.890625 121.99237Q60.890625 121.007996 61.640625 120.46112Q62.390625 119.914246 63.765625 119.914246L64.8125 119.914246L64.8125 119.414246Q64.8125 118.851746 64.46875 118.52362Q64.140625 118.17987 63.46875 118.17987Q62.890625 118.17987 62.5 118.476746Q62.109375 118.757996 62.109375 119.17987L61.015625 119.17987Q61.015625 118.695496 61.34375 118.257996Q61.6875 117.820496 62.265625 117.570496Q62.84375 117.30487 63.53125 117.30487Q64.640625 117.30487 65.25 117.851746Q65.875 118.39862 65.90625 119.351746L65.90625 122.27362Q65.90625 123.14862 66.125 123.664246L66.125 123.757996L64.984375 123.757996ZM63.1875 122.92987Q63.703125 122.92987 64.15625 122.664246Q64.609375 122.39862 64.8125 121.976746L64.8125 120.67987L63.96875 120.67987Q61.96875 120.67987 61.96875 121.851746Q61.96875 122.351746 62.3125 122.64862Q62.65625 122.92987 63.1875 122.92987ZM71.140625 118.382996Q70.890625 118.351746 70.609375 118.351746Q69.53125 118.351746 69.15625 119.257996L69.15625 123.757996L68.078125 123.757996L68.078125 117.414246L69.125 117.414246L69.140625 118.14862Q69.671875 117.30487 70.65625 117.30487Q70.96875 117.30487 71.140625 117.382996L71.140625 118.382996ZM73.25 123.757996L72.171875 123.757996L72.171875 117.414246L73.25 117.414246L73.25 123.757996ZM72.078125 115.74237Q72.078125 115.476746 72.234375 115.289246Q72.40625 115.101746 72.71875 115.101746Q73.03125 115.101746 73.1875 115.289246Q73.359375 115.476746 73.359375 115.74237Q73.359375 115.99237 73.1875 116.17987Q73.03125 116.351746 72.71875 116.351746Q72.40625 116.351746 72.234375 116.17987Q72.078125 115.99237 72.078125 115.74237ZM78.984375 123.757996Q78.890625 123.570496 78.828125 123.08612Q78.078125 123.882996 77.03125 123.882996Q76.09375 123.882996 75.484375 123.351746Q74.890625 122.820496 74.890625 121.99237Q74.890625 121.007996 75.640625 120.46112Q76.390625 119.914246 77.765625 119.914246L78.8125 119.914246L78.8125 119.414246Q78.8125 118.851746 78.46875 118.52362Q78.140625 118.17987 77.46875 118.17987Q76.890625 118.17987 76.5 118.476746Q76.109375 118.757996 76.109375 119.17987L75.015625 119.17987Q75.015625 118.695496 75.34375 118.257996Q75.6875 117.820496 76.265625 117.570496Q76.84375 117.30487 77.53125 117.30487Q78.640625 117.30487 79.25 117.851746Q79.875 118.39862 79.90625 119.351746L79.90625 122.27362Q79.90625 123.14862 80.125 123.664246L80.125 123.757996L78.984375 123.757996ZM77.1875 122.92987Q77.703125 122.92987 78.15625 122.664246Q78.609375 122.39862 78.8125 121.976746L78.8125 120.67987L77.96875 120.67987Q75.96875 120.67987 75.96875 121.851746Q75.96875 122.351746 76.3125 122.64862Q76.65625 122.92987 77.1875 122.92987ZM83.09375 117.414246L83.125 118.21112Q83.859375 117.30487 85.03125 117.30487Q87.046875 117.30487 87.0625 119.570496L87.0625 123.757996L85.96875 123.757996L85.96875 119.55487Q85.96875 118.882996 85.65625 118.55487Q85.359375 118.226746 84.703125 118.226746Q84.171875 118.226746 83.765625 118.507996Q83.375 118.789246 83.15625 119.24237L83.15625 123.757996L82.078125 123.757996L82.078125 117.414246L83.09375 117.414246ZM90.546875 115.882996L90.546875 117.414246L91.71875 117.414246L91.71875 118.257996L90.546875 118.257996L90.546875 122.17987Q90.546875 122.570496 90.703125 122.757996Q90.859375 122.945496 91.234375 122.945496Q91.421875 122.945496 91.75 122.882996L91.75 123.757996Q91.328125 123.882996 90.921875 123.882996Q90.203125 123.882996 89.828125 123.445496Q89.453125 122.99237 89.453125 122.17987L89.453125 118.257996L88.296875 118.257996L88.296875 117.414246L89.453125 117.414246L89.453125 115.882996L90.546875 115.882996Z" fill-rule="nonzero"/><path fill="#9e9e9e" d="M31.515625 141.758L30.4375 141.758L30.4375 134.53925L28.25 135.33612L28.25 134.35175L31.359375 133.17987L31.515625 133.17987L31.515625 141.758ZM35.09375 141.1955Q35.09375 140.91425 35.25 140.72675Q35.421875 140.53925 35.75 140.53925Q36.09375 140.53925 36.265625 140.72675Q36.4375 140.91425 36.4375 141.1955Q36.4375 141.46112 36.265625 141.64862Q36.09375 141.8205 35.75 141.8205Q35.421875 141.8205 35.25 141.64862Q35.09375 141.46112 35.09375 141.1955ZM42.53125 138.89862L43.71875 138.89862L43.71875 139.77362L42.53125 139.77362L42.53125 141.758L41.453125 141.758L41.453125 139.77362L37.5625 139.77362L37.5625 139.133L41.375 133.22675L42.53125 133.22675L42.53125 138.89862ZM38.796875 138.89862L41.453125 138.89862L41.453125 134.71112L41.3125 134.9455L38.796875 138.89862ZM44.859375 134.86737Q44.859375 134.10175 45.34375 133.60175Q45.84375 133.10175 46.609375 133.10175Q47.390625 133.10175 47.875 133.60175Q48.359375 134.10175 48.359375 134.89862L48.359375 135.3205Q48.359375 136.08612 47.859375 136.58612Q47.375 137.0705 46.625 137.0705Q45.859375 137.0705 45.359375 136.58612Q44.859375 136.08612 44.859375 135.27362L44.859375 134.86737ZM45.671875 135.3205Q45.671875 135.77362 45.921875 136.0705Q46.1875 136.36737 46.625 136.36737Q47.046875 136.36737 47.296875 136.08612Q47.546875 135.78925 47.546875 135.28925L47.546875 134.86737Q47.546875 134.41425 47.296875 134.11737Q47.046875 133.80487 46.609375 133.80487Q46.171875 133.80487 45.921875 134.11737Q45.671875 134.41425 45.671875 134.883L45.671875 135.3205ZM49.015625 139.66425Q49.015625 138.89862 49.5 138.41425Q50.0 137.91425 50.765625 137.91425Q51.53125 137.91425 52.015625 138.41425Q52.515625 138.89862 52.515625 139.71112L52.515625 140.11737Q52.515625 140.883 52.03125 141.383Q51.546875 141.883 50.78125 141.883Q50.015625 141.883 49.515625 141.39862Q49.015625 140.89862 49.015625 140.08612L49.015625 139.66425ZM49.828125 140.11737Q49.828125 140.58612 50.078125 140.883Q50.34375 141.17987 50.78125 141.17987Q51.203125 141.17987 51.453125 140.89862Q51.703125 140.60175 51.703125 140.10175L51.703125 139.66425Q51.703125 139.1955 51.4375 138.91425Q51.1875 138.61737 50.765625 138.61737Q50.34375 138.61737 50.078125 138.91425Q49.828125 139.1955 49.828125 139.6955L49.828125 140.11737ZM46.875 141.11737L46.25 140.72675L50.421875 134.05487L51.03125 134.4455L46.875 141.11737Z" fill-rule="nonzero"/><path stroke="#757575" stroke-width="1.0" stroke-linecap="butt" d="M27.25 128.258L161.83333 128.258L373.5914 128.258" fill-rule="nonzero"/><path fill="#9e9e9e" d="M375.5914 128.258C375.5914 127.15343 374.69595 126.257996 373.5914 126.257996C372.48682 126.257996 371.5914 127.15343 371.5914 128.258C371.5914 129.36256 372.48682 130.258 373.5914 130.258C374.69595 130.258 375.5914 129.36256 375.5914 128.258" fill-rule="nonzero"/><path fill="#1a1a1a" d="M29.09375 167.42305L29.125 168.12617Q29.8125 167.31367 31.0 167.31367Q32.328125 167.31367 32.8125 168.3293Q33.125 167.87617 33.625 167.59492Q34.140625 167.31367 34.828125 167.31367Q36.921875 167.31367 36.953125 169.5168L36.953125 173.7668L35.875 173.7668L35.875 169.5793Q35.875 168.90742 35.5625 168.5793Q35.25 168.23555 34.515625 168.23555Q33.90625 168.23555 33.5 168.59492Q33.109375 168.9543 33.046875 169.56367L33.046875 173.7668L31.96875 173.7668L31.96875 169.61055Q31.96875 168.23555 30.609375 168.23555Q29.546875 168.23555 29.15625 169.1418L29.15625 173.7668L28.0625 173.7668L28.0625 167.42305L29.09375 167.42305ZM42.984375 173.7668Q42.890625 173.5793 42.828125 173.09492Q42.078125 173.8918 41.03125 173.8918Q40.09375 173.8918 39.484375 173.36055Q38.890625 172.8293 38.890625 172.00117Q38.890625 171.0168 39.640625 170.46992Q40.390625 169.92305 41.765625 169.92305L42.8125 169.92305L42.8125 169.42305Q42.8125 168.86055 42.46875 168.53242Q42.140625 168.18867 41.46875 168.18867Q40.890625 168.18867 40.5 168.48555Q40.109375 168.7668 40.109375 169.18867L39.015625 169.18867Q39.015625 168.7043 39.34375 168.2668Q39.6875 167.8293 40.265625 167.5793Q40.84375 167.31367 41.53125 167.31367Q42.640625 167.31367 43.25 167.86055Q43.875 168.40742 43.90625 169.36055L43.90625 172.28242Q43.90625 173.15742 44.125 173.67305L44.125 173.7668L42.984375 173.7668ZM41.1875 172.93867Q41.703125 172.93867 42.15625 172.67305Q42.609375 172.40742 42.8125 171.98555L42.8125 170.68867L41.96875 170.68867Q39.96875 170.68867 39.96875 171.86055Q39.96875 172.36055 40.3125 172.65742Q40.65625 172.93867 41.1875 172.93867ZM48.609375 173.00117Q49.1875 173.00117 49.625 172.65742Q50.0625 172.29805 50.109375 171.7668L51.140625 171.7668Q51.109375 172.31367 50.75 172.81367Q50.40625 173.29805 49.828125 173.59492Q49.265625 173.8918 48.609375 173.8918Q47.3125 173.8918 46.546875 173.03242Q45.796875 172.15742 45.796875 170.65742L45.796875 170.46992Q45.796875 169.54805 46.125 168.8293Q46.46875 168.11055 47.09375 167.71992Q47.734375 167.31367 48.609375 167.31367Q49.671875 167.31367 50.375 167.9543Q51.09375 168.5793 51.140625 169.61055L50.109375 169.61055Q50.0625 168.98555 49.640625 168.59492Q49.21875 168.2043 48.609375 168.2043Q47.78125 168.2043 47.328125 168.79805Q46.875 169.3918 46.875 170.5168L46.875 170.71992Q46.875 171.81367 47.328125 172.40742Q47.78125 173.00117 48.609375 173.00117ZM58.796875 169.78242Q58.796875 171.03242 58.375 171.96992Q57.953125 172.8918 57.171875 173.3918Q56.40625 173.8918 55.375 173.8918Q54.375 173.8918 53.59375 173.3918Q52.8125 172.8918 52.375 171.98555Q51.953125 171.06367 51.9375 169.84492L51.9375 169.23555Q51.9375 168.00117 52.359375 167.06367Q52.796875 166.12617 53.578125 165.62617Q54.359375 165.11055 55.375 165.11055Q56.390625 165.11055 57.171875 165.61055Q57.953125 166.11055 58.375 167.04805Q58.796875 167.98555 58.796875 169.23555L58.796875 169.78242ZM57.6875 169.21992Q57.6875 167.7043 57.078125 166.8918Q56.46875 166.0793 55.375 166.0793Q54.296875 166.0793 53.6875 166.8918Q53.078125 167.7043 53.0625 169.1418L53.0625 169.78242Q53.0625 171.25117 53.671875 172.09492Q54.296875 172.92305 55.375 172.92305Q56.46875 172.92305 57.0625 172.1418Q57.671875 171.34492 57.6875 169.86055L57.6875 169.21992ZM62.75 169.96992Q61.3125 169.54805 60.640625 168.93867Q59.984375 168.3293 59.984375 167.43867Q59.984375 166.43867 60.78125 165.78242Q61.59375 165.11055 62.890625 165.11055Q63.765625 165.11055 64.453125 165.4543Q65.140625 165.79805 65.515625 166.3918Q65.90625 166.98555 65.90625 167.7043L64.765625 167.7043Q64.765625 166.92305 64.265625 166.48555Q63.78125 166.04805 62.890625 166.04805Q62.0625 166.04805 61.59375 166.42305Q61.125 166.78242 61.125 167.42305Q61.125 167.9543 61.5625 168.31367Q62.015625 168.67305 63.078125 168.96992Q64.140625 169.2668 64.734375 169.62617Q65.34375 169.98555 65.625 170.46992Q65.921875 170.9543 65.921875 171.59492Q65.921875 172.6418 65.109375 173.2668Q64.296875 173.8918 62.953125 173.8918Q62.0625 173.8918 61.296875 173.54805Q60.546875 173.2043 60.125 172.62617Q59.71875 172.03242 59.71875 171.29805L60.84375 171.29805Q60.84375 172.06367 61.421875 172.5168Q62.0 172.96992 62.953125 172.96992Q63.84375 172.96992 64.3125 172.61055Q64.78125 172.23555 64.78125 171.61055Q64.78125 170.98555 64.34375 170.6418Q63.90625 170.29805 62.75 169.96992Z" fill-rule="nonzero"/><path fill="#9e9e9e" d="M33.546875 191.7668L27.953125 191.7668L27.953125 190.98555L30.90625 187.7043Q31.5625 186.9543 31.8125 186.50117Q32.0625 186.03242 32.0625 185.53242Q32.0625 184.86055 31.65625 184.43867Q31.265625 184.00117 30.578125 184.00117Q29.78125 184.00117 29.328125 184.46992Q28.875 184.92305 28.875 185.75117L27.796875 185.75117Q27.796875 184.56367 28.546875 183.84492Q29.3125 183.11055 30.578125 183.11055Q31.78125 183.11055 32.46875 183.73555Q33.15625 184.36055 33.15625 185.40742Q33.15625 186.65742 31.546875 188.40742L29.265625 190.87617L33.546875 190.87617L33.546875 191.7668ZM40.546875 191.7668L34.953125 191.7668L34.953125 190.98555L37.90625 187.7043Q38.5625 186.9543 38.8125 186.50117Q39.0625 186.03242 39.0625 185.53242Q39.0625 184.86055 38.65625 184.43867Q38.265625 184.00117 37.578125 184.00117Q36.78125 184.00117 36.328125 184.46992Q35.875 184.92305 35.875 185.75117L34.796875 185.75117Q34.796875 184.56367 35.546875 183.84492Q36.3125 183.11055 37.578125 183.11055Q38.78125 183.11055 39.46875 183.73555Q40.15625 184.36055 40.15625 185.40742Q40.15625 186.65742 38.546875 188.40742L36.265625 190.87617L40.546875 190.87617L40.546875 191.7668ZM42.09375 191.2043Q42.09375 190.92305 42.25 190.73555Q42.421875 190.54805 42.75 190.54805Q43.09375 190.54805 43.265625 190.73555Q43.4375 190.92305 43.4375 191.2043Q43.4375 191.46992 43.265625 191.65742Q43.09375 191.8293 42.75 191.8293Q42.421875 191.8293 42.25 191.65742Q42.09375 191.46992 42.09375 191.2043ZM50.140625 185.4543Q50.140625 186.09492 49.796875 186.59492Q49.453125 187.09492 48.890625 187.37617Q49.546875 187.65742 49.9375 188.21992Q50.328125 188.7668 50.328125 189.46992Q50.328125 190.56367 49.578125 191.23555Q48.84375 191.8918 47.625 191.8918Q46.390625 191.8918 45.640625 191.23555Q44.90625 190.56367 44.90625 189.46992Q44.90625 188.7668 45.28125 188.21992Q45.65625 187.65742 46.328125 187.37617Q45.765625 187.09492 45.4375 186.59492Q45.109375 186.09492 45.109375 185.4543Q45.109375 184.37617 45.796875 183.75117Q46.484375 183.11055 47.625 183.11055Q48.75 183.11055 49.4375 183.75117Q50.140625 184.37617 50.140625 185.4543ZM49.25 189.43867Q49.25 188.71992 48.796875 188.28242Q48.34375 187.8293 47.609375 187.8293Q46.875 187.8293 46.421875 188.28242Q45.984375 188.71992 45.984375 189.4543Q45.984375 190.17305 46.421875 190.59492Q46.859375 191.00117 47.625 191.00117Q48.375 191.00117 48.8125 190.5793Q49.25 190.15742 49.25 189.43867ZM47.625 184.00117Q46.984375 184.00117 46.578125 184.40742Q46.1875 184.79805 46.1875 185.48555Q46.1875 186.12617 46.578125 186.53242Q46.96875 186.93867 47.609375 186.93867Q48.265625 186.93867 48.65625 186.53242Q49.046875 186.12617 49.046875 185.48555Q49.046875 184.8293 48.640625 184.42305Q48.234375 184.00117 47.625 184.00117ZM51.859375 184.87617Q51.859375 184.11055 52.34375 183.61055Q52.84375 183.11055 53.609375 183.11055Q54.390625 183.11055 54.875 183.61055Q55.359375 184.11055 55.359375 184.90742L55.359375 185.3293Q55.359375 186.09492 54.859375 186.59492Q54.375 187.0793 53.625 187.0793Q52.859375 187.0793 52.359375 186.59492Q51.859375 186.09492 51.859375 185.28242L51.859375 184.87617ZM52.671875 185.3293Q52.671875 185.78242 52.921875 186.0793Q53.1875 186.37617 53.625 186.37617Q54.046875 186.37617 54.296875 186.09492Q54.546875 185.79805 54.546875 185.29805L54.546875 184.87617Q54.546875 184.42305 54.296875 184.12617Q54.046875 183.81367 53.609375 183.81367Q53.171875 183.81367 52.921875 184.12617Q52.671875 184.42305 52.671875 184.8918L52.671875 185.3293ZM56.015625 189.67305Q56.015625 188.90742 56.5 188.42305Q57.0 187.92305 57.765625 187.92305Q58.53125 187.92305 59.015625 188.42305Q59.515625 188.90742 59.515625 189.71992L59.515625 190.12617Q59.515625 190.8918 59.03125 191.3918Q58.546875 191.8918 57.78125 191.8918Q57.015625 191.8918 56.515625 191.40742Q56.015625 190.90742 56.015625 190.09492L56.015625 189.67305ZM56.828125 190.12617Q56.828125 190.59492 57.078125 190.8918Q57.34375 191.18867 57.78125 191.18867Q58.203125 191.18867 58.453125 190.90742Q58.703125 190.61055 58.703125 190.11055L58.703125 189.67305Q58.703125 189.2043 58.4375 188.92305Q58.1875 188.62617 57.765625 188.62617Q57.34375 188.62617 57.078125 188.92305Q56.828125 189.2043 56.828125 189.7043L56.828125 190.12617ZM53.875 191.12617L53.25 190.73555L57.421875 184.06367L58.03125 184.4543L53.875 191.12617Z" fill-rule="nonzero"/><path stroke="#757575" stroke-width="1.0" stroke-linecap="butt" d="M27.25 178.2668L161.83333 178.2668L232.15909 178.2668" fill-rule="nonzero"/><path fill="#9e9e9e" d="M234.15909 178.2668C234.15909 177.16223 233.26366 176.2668 232.15909 176.2668C231.05452 176.2668 230.15909 177.16223 230.15909 178.2668C230.15909 179.37137 231.05452 180.2668 232.15909 180.2668C233.26366 180.2668 234.15909 179.37137 234.15909 178.2668" fill-rule="nonzero"/><path fill="#1a1a1a" d="M30.078125 369.79272L30.25 370.91772L30.484375 369.9021L32.171875 363.94897L33.125 363.94897L34.765625 369.9021L35.0 370.93335L35.1875 369.7771L36.515625 363.94897L37.640625 363.94897L35.578125 372.48022L34.546875 372.48022L32.78125 366.26147L32.65625 365.60522L32.515625 366.26147L30.703125 372.48022L29.671875 372.48022L27.609375 363.94897L28.734375 363.94897L30.078125 369.79272ZM40.25 372.48022L39.171875 372.48022L39.171875 366.13647L40.25 366.13647L40.25 372.48022ZM39.078125 364.4646Q39.078125 364.19897 39.234375 364.01147Q39.40625 363.82397 39.71875 363.82397Q40.03125 363.82397 40.1875 364.01147Q40.359375 364.19897 40.359375 364.4646Q40.359375 364.7146 40.1875 364.9021Q40.03125 365.07397 39.71875 365.07397Q39.40625 365.07397 39.234375 364.9021Q39.078125 364.7146 39.078125 364.4646ZM43.09375 366.13647L43.125 366.93335Q43.859375 366.0271 45.03125 366.0271Q47.046875 366.0271 47.0625 368.29272L47.0625 372.48022L45.96875 372.48022L45.96875 368.2771Q45.96875 367.60522 45.65625 367.2771Q45.359375 366.94897 44.703125 366.94897Q44.171875 366.94897 43.765625 367.23022Q43.375 367.51147 43.15625 367.9646L43.15625 372.48022L42.078125 372.48022L42.078125 366.13647L43.09375 366.13647ZM48.8125 369.26147Q48.8125 367.79272 49.5 366.91772Q50.1875 366.0271 51.3125 366.0271Q52.421875 366.0271 53.078125 366.7771L53.078125 363.48022L54.15625 363.48022L54.15625 372.48022L53.15625 372.48022L53.109375 371.79272Q52.453125 372.60522 51.296875 372.60522Q50.203125 372.60522 49.5 371.69897Q48.8125 370.79272 48.8125 369.3396L48.8125 369.26147ZM49.890625 369.38647Q49.890625 370.4646 50.328125 371.07397Q50.78125 371.68335 51.5625 371.68335Q52.59375 371.68335 53.078125 370.74585L53.078125 367.8396Q52.59375 366.94897 51.578125 366.94897Q50.78125 366.94897 50.328125 367.55835Q49.890625 368.16772 49.890625 369.38647ZM55.78125 369.24585Q55.78125 368.32397 56.140625 367.57397Q56.515625 366.82397 57.171875 366.43335Q57.828125 366.0271 58.65625 366.0271Q59.953125 366.0271 60.75 366.91772Q61.5625 367.80835 61.5625 369.30835L61.5625 369.38647Q61.5625 370.30835 61.203125 371.04272Q60.84375 371.7771 60.1875 372.19897Q59.53125 372.60522 58.671875 372.60522Q57.390625 372.60522 56.578125 371.7146Q55.78125 370.80835 55.78125 369.32397L55.78125 369.24585ZM56.875 369.38647Q56.875 370.43335 57.359375 371.07397Q57.859375 371.7146 58.671875 371.7146Q59.5 371.7146 59.984375 371.07397Q60.46875 370.41772 60.46875 369.24585Q60.46875 368.2146 59.96875 367.57397Q59.484375 366.91772 58.65625 366.91772Q57.859375 366.91772 57.359375 367.55835Q56.875 368.18335 56.875 369.38647ZM68.6875 370.98022L69.90625 366.13647L70.984375 366.13647L69.140625 372.48022L68.265625 372.48022L66.71875 367.66772L65.21875 372.48022L64.34375 372.48022L62.5 366.13647L63.578125 366.13647L64.828125 370.88647L66.3125 366.13647L67.171875 366.13647L68.6875 370.98022ZM75.765625 370.79272Q75.765625 370.35522 75.421875 370.12085Q75.09375 369.87085 74.265625 369.69897Q73.453125 369.5271 72.96875 369.2771Q72.484375 369.0271 72.25 368.69897Q72.03125 368.35522 72.03125 367.88647Q72.03125 367.10522 72.6875 366.57397Q73.34375 366.0271 74.375 366.0271Q75.453125 366.0271 76.109375 366.5896Q76.78125 367.13647 76.78125 367.99585L75.703125 367.99585Q75.703125 367.55835 75.3125 367.24585Q74.9375 366.91772 74.375 366.91772Q73.78125 366.91772 73.4375 367.18335Q73.109375 367.43335 73.109375 367.8396Q73.109375 368.23022 73.421875 368.43335Q73.734375 368.63647 74.546875 368.82397Q75.359375 368.99585 75.859375 369.24585Q76.359375 369.49585 76.59375 369.85522Q76.84375 370.2146 76.84375 370.7146Q76.84375 371.57397 76.15625 372.0896Q75.484375 372.60522 74.40625 372.60522Q73.640625 372.60522 73.046875 372.3396Q72.46875 372.05835 72.140625 371.57397Q71.8125 371.0896 71.8125 370.5271L72.890625 370.5271Q72.921875 371.07397 73.328125 371.4021Q73.734375 371.7146 74.40625 371.7146Q75.015625 371.7146 75.390625 371.4646Q75.765625 371.2146 75.765625 370.79272Z" fill-rule="nonzero"/><path fill="#9e9e9e" d="M33.546875 390.48022L27.953125 390.48022L27.953125 389.69897L30.90625 386.41772Q31.5625 385.66772 31.8125 385.2146Q32.0625 384.74585 32.0625 384.24585Q32.0625 383.57397 31.65625 383.1521Q31.265625 382.7146 30.578125 382.7146Q29.78125 382.7146 29.328125 383.18335Q28.875 383.63647 28.875 384.4646L27.796875 384.4646Q27.796875 383.2771 28.546875 382.55835Q29.3125 381.82397 30.578125 381.82397Q31.78125 381.82397 32.46875 382.44897Q33.15625 383.07397 33.15625 384.12085Q33.15625 385.37085 31.546875 387.12085L29.265625 389.5896L33.546875 389.5896L33.546875 390.48022ZM36.53125 385.68335L37.34375 385.68335Q38.125 385.66772 38.5625 385.2771Q39.0 384.88647 39.0 384.2146Q39.0 382.7146 37.5 382.7146Q36.796875 382.7146 36.375 383.12085Q35.96875 383.5271 35.96875 384.18335L34.875 384.18335Q34.875 383.16772 35.609375 382.49585Q36.359375 381.82397 37.5 381.82397Q38.703125 381.82397 39.390625 382.4646Q40.078125 383.10522 40.078125 384.24585Q40.078125 384.80835 39.71875 385.32397Q39.359375 385.8396 38.734375 386.10522Q39.4375 386.32397 39.8125 386.8396Q40.203125 387.35522 40.203125 388.10522Q40.203125 389.24585 39.453125 389.93335Q38.703125 390.60522 37.5 390.60522Q36.3125 390.60522 35.546875 389.94897Q34.796875 389.29272 34.796875 388.23022L35.890625 388.23022Q35.890625 388.9021 36.328125 389.30835Q36.765625 389.7146 37.515625 389.7146Q38.296875 389.7146 38.703125 389.30835Q39.125 388.88647 39.125 388.12085Q39.125 387.38647 38.671875 386.99585Q38.21875 386.5896 37.34375 386.57397L36.53125 386.57397L36.53125 385.68335ZM42.09375 389.91772Q42.09375 389.63647 42.25 389.44897Q42.421875 389.26147 42.75 389.26147Q43.09375 389.26147 43.265625 389.44897Q43.4375 389.63647 43.4375 389.91772Q43.4375 390.18335 43.265625 390.37085Q43.09375 390.54272 42.75 390.54272Q42.421875 390.54272 42.25 390.37085Q42.09375 390.18335 42.09375 389.91772ZM49.21875 381.94897L49.21875 382.85522L49.015625 382.85522Q47.75 382.88647 47.0 383.62085Q46.25 384.3396 46.125 385.6521Q46.8125 384.88647 47.96875 384.88647Q49.078125 384.88647 49.75 385.66772Q50.421875 386.44897 50.421875 387.69897Q50.421875 389.01147 49.703125 389.80835Q48.984375 390.60522 47.765625 390.60522Q46.546875 390.60522 45.78125 389.66772Q45.03125 388.7146 45.03125 387.23022L45.03125 386.82397Q45.03125 384.4646 46.03125 383.2146Q47.03125 381.9646 49.015625 381.94897L49.21875 381.94897ZM47.796875 385.79272Q47.234375 385.79272 46.765625 386.12085Q46.296875 386.44897 46.109375 386.9646L46.109375 387.35522Q46.109375 388.41772 46.578125 389.05835Q47.0625 389.69897 47.765625 389.69897Q48.5 389.69897 48.921875 389.16772Q49.34375 388.62085 49.34375 387.74585Q49.34375 386.87085 48.921875 386.3396Q48.5 385.79272 47.796875 385.79272ZM51.859375 383.5896Q51.859375 382.82397 52.34375 382.32397Q52.84375 381.82397 53.609375 381.82397Q54.390625 381.82397 54.875 382.32397Q55.359375 382.82397 55.359375 383.62085L55.359375 384.04272Q55.359375 384.80835 54.859375 385.30835Q54.375 385.79272 53.625 385.79272Q52.859375 385.79272 52.359375 385.30835Q51.859375 384.80835 51.859375 383.99585L51.859375 383.5896ZM52.671875 384.04272Q52.671875 384.49585 52.921875 384.79272Q53.1875 385.0896 53.625 385.0896Q54.046875 385.0896 54.296875 384.80835Q54.546875 384.51147 54.546875 384.01147L54.546875 383.5896Q54.546875 383.13647 54.296875 382.8396Q54.046875 382.5271 53.609375 382.5271Q53.171875 382.5271 52.921875 382.8396Q52.671875 383.13647 52.671875 383.60522L52.671875 384.04272ZM56.015625 388.38647Q56.015625 387.62085 56.5 387.13647Q57.0 386.63647 57.765625 386.63647Q58.53125 386.63647 59.015625 387.13647Q59.515625 387.62085 59.515625 388.43335L59.515625 388.8396Q59.515625 389.60522 59.03125 390.10522Q58.546875 390.60522 57.78125 390.60522Q57.015625 390.60522 56.515625 390.12085Q56.015625 389.62085 56.015625 388.80835L56.015625 388.38647ZM56.828125 388.8396Q56.828125 389.30835 57.078125 389.60522Q57.34375 389.9021 57.78125 389.9021Q58.203125 389.9021 58.453125 389.62085Q58.703125 389.32397 58.703125 388.82397L58.703125 388.38647Q58.703125 387.91772 58.4375 387.63647Q58.1875 387.3396 57.765625 387.3396Q57.34375 387.3396 57.078125 387.63647Q56.828125 387.91772 56.828125 388.41772L56.828125 388.8396ZM53.875 389.8396L53.25 389.44897L57.421875 382.7771L58.03125 383.16772L53.875 389.8396Z" fill-rule="nonzero"/><path stroke="#757575" stroke-width="1.0" stroke-linecap="butt" d="M27.25 376.98022L161.83333 376.98022L234.33728 376.98022" fill-rule="nonzero"/><path fill="#9e9e9e" d="M236.33728 376.98022C236.33728 375.87567 235.44185 374.98022 234.33728 374.98022C233.23271 374.98022 232.33728 375.87567 232.33728 376.98022C232.33728 378.0848 233.23271 378.98022 234.33728 378.98022C235.44185 378.98022 236.33728 378.0848 236.33728 376.98022" fill-rule="nonzero"/><path fill="#1a1a1a" d="M729.875 278.20938L733.9219 278.20938L733.9219 279.13126L728.7344 279.13126L728.7344 270.6L729.875 270.6L729.875 278.20938ZM735.75 279.13126L734.6719 279.13126L734.6719 272.7875L735.75 272.7875L735.75 279.13126ZM734.5781 271.11563Q734.5781 270.85 734.7344 270.6625Q734.90625 270.475 735.21875 270.475Q735.53125 270.475 735.6875 270.6625Q735.8594 270.85 735.8594 271.11563Q735.8594 271.36563 735.6875 271.55313Q735.53125 271.725 735.21875 271.725Q734.90625 271.725 734.7344 271.55313Q734.5781 271.36563 734.5781 271.11563ZM738.59375 272.7875L738.625 273.58438Q739.3594 272.67813 740.53125 272.67813Q742.5469 272.67813 742.5625 274.94376L742.5625 279.13126L741.46875 279.13126L741.46875 274.92813Q741.46875 274.25626 741.15625 273.92813Q740.8594 273.6 740.2031 273.6Q739.6719 273.6 739.2656 273.88126Q738.875 274.1625 738.65625 274.61563L738.65625 279.13126L737.5781 279.13126L737.5781 272.7875L738.59375 272.7875ZM748.4844 278.50626Q747.8594 279.25626 746.625 279.25626Q745.6094 279.25626 745.0781 278.6625Q744.5469 278.06876 744.5469 276.9125L744.5469 272.7875L745.625 272.7875L745.625 276.88126Q745.625 278.33438 746.7969 278.33438Q748.0469 278.33438 748.4531 277.39688L748.4531 272.7875L749.5469 272.7875L749.5469 279.13126L748.5156 279.13126L748.4844 278.50626ZM753.7031 275.1L755.1094 272.7875L756.375 272.7875L754.2969 275.92813L756.4375 279.13126L755.1875 279.13126L753.71875 276.75626L752.25 279.13126L750.9844 279.13126L753.125 275.92813L751.0625 272.7875L752.3125 272.7875L753.7031 275.1Z" fill-rule="nonzero"/><path fill="#9e9e9e" d="M724.9531 292.85L725.3906 288.6L729.7656 288.6L729.7656 289.6L726.3125 289.6L726.0469 291.92813Q726.6875 291.55313 727.4844 291.55313Q728.6406 291.55313 729.3281 292.33438Q730.0156 293.1 730.0156 294.4125Q730.0156 295.725 729.2969 296.49063Q728.59375 297.25626 727.3125 297.25626Q726.1875 297.25626 725.46875 296.63126Q724.75 295.99063 724.65625 294.88126L725.6719 294.88126Q725.78125 295.61563 726.2031 295.99063Q726.625 296.36563 727.3125 296.36563Q728.0625 296.36563 728.5 295.85Q728.9375 295.33438 728.9375 294.42813Q728.9375 293.56876 728.46875 293.05313Q728.0 292.5375 727.21875 292.5375Q726.5156 292.5375 726.1094 292.83438L725.8281 293.06876L724.9531 292.85ZM735.0156 297.13126L733.9375 297.13126L733.9375 289.9125L731.75 290.70938L731.75 289.725L734.8594 288.55313L735.0156 288.55313L735.0156 297.13126ZM738.59375 296.56876Q738.59375 296.2875 738.75 296.1Q738.9219 295.9125 739.25 295.9125Q739.59375 295.9125 739.7656 296.1Q739.9375 296.2875 739.9375 296.56876Q739.9375 296.83438 739.7656 297.02188Q739.59375 297.19376 739.25 297.19376Q738.9219 297.19376 738.75 297.02188Q738.59375 296.83438 738.59375 296.56876ZM741.9531 292.85L742.3906 288.6L746.7656 288.6L746.7656 289.6L743.3125 289.6L743.0469 291.92813Q743.6875 291.55313 744.4844 291.55313Q745.6406 291.55313 746.3281 292.33438Q747.0156 293.1 747.0156 294.4125Q747.0156 295.725 746.2969 296.49063Q745.59375 297.25626 744.3125 297.25626Q743.1875 297.25626 742.46875 296.63126Q741.75 295.99063 741.65625 294.88126L742.6719 294.88126Q742.78125 295.61563 743.2031 295.99063Q743.625 296.36563 744.3125 296.36563Q745.0625 296.36563 745.5 295.85Q745.9375 295.33438 745.9375 294.42813Q745.9375 293.56876 745.46875 293.05313Q745.0 292.5375 744.21875 292.5375Q743.5156 292.5375 743.1094 292.83438L742.8281 293.06876L741.9531 292.85ZM748.3594 290.24063Q748.3594 289.475 748.84375 288.975Q749.34375 288.475 750.1094 288.475Q750.8906 288.475 751.375 288.975Q751.8594 289.475 751.8594 290.27188L751.8594 290.69376Q751.8594 291.45938 751.3594 291.95938Q750.875 292.44376 750.125 292.44376Q749.3594 292.44376 748.8594 291.95938Q748.3594 291.45938 748.3594 290.64688L748.3594 290.24063ZM749.1719 290.69376Q749.1719 291.14688 749.4219 291.44376Q749.6875 291.74063 750.125 291.74063Q750.5469 291.74063 750.7969 291.45938Q751.0469 291.1625 751.0469 290.6625L751.0469 290.24063Q751.0469 289.7875 750.7969 289.49063Q750.5469 289.17813 750.1094 289.17813Q749.6719 289.17813 749.4219 289.49063Q749.1719 289.7875 749.1719 290.25626L749.1719 290.69376ZM752.5156 295.0375Q752.5156 294.27188 753.0 293.7875Q753.5 293.2875 754.2656 293.2875Q755.03125 293.2875 755.5156 293.7875Q756.0156 294.27188 756.0156 295.08438L756.0156 295.49063Q756.0156 296.25626 755.53125 296.75626Q755.0469 297.25626 754.28125 297.25626Q753.5156 297.25626 753.0156 296.77188Q752.5156 296.27188 752.5156 295.45938L752.5156 295.0375ZM753.3281 295.49063Q753.3281 295.95938 753.5781 296.25626Q753.84375 296.55313 754.28125 296.55313Q754.7031 296.55313 754.9531 296.27188Q755.2031 295.975 755.2031 295.475L755.2031 295.0375Q755.2031 294.56876 754.9375 294.2875Q754.6875 293.99063 754.2656 293.99063Q753.84375 293.99063 753.5781 294.2875Q753.3281 294.56876 753.3281 295.06876L753.3281 295.49063ZM750.375 296.49063L749.75 296.1L753.9219 289.42813L754.53125 289.81876L750.375 296.49063Z" fill-rule="nonzero"/><path stroke="#757575" stroke-width="1.0" stroke-linecap="butt" d="M756.75 283.63126L622.1667 283.63126L604.7327 283.63126" fill-rule="nonzero"/><path fill="#9e9e9e" d="M606.7327 283.63126C606.7327 282.52667 605.8373 281.63126 604.7327 281.63126C603.6281 281.63126 602.7327 282.52667 602.7327 283.63126C602.7327 284.7358 603.6281 285.63126 604.7327 285.63126C605.8373 285.63126 606.7327 284.7358 606.7327 283.63126" fill-rule="nonzero"/><path fill="#757575" d="M31.96875 41.765625L32.234375 43.640625L32.640625 41.953125L35.453125 32.03125L37.03125 32.03125L39.78125 41.953125L40.171875 43.671875L40.46875 41.75L42.6875 32.03125L44.5625 32.03125L41.125 46.25L39.40625 46.25L36.484375 35.890625L36.25 34.796875L36.03125 35.890625L33.0 46.25L31.28125 46.25L27.84375 32.03125L29.71875 32.03125L31.96875 41.765625ZM48.421875 36.96875Q49.625 35.484375 51.546875 35.484375Q54.90625 35.484375 54.921875 39.265625L54.921875 46.25L53.125 46.25L53.125 39.25Q53.109375 38.109375 52.59375 37.5625Q52.09375 37.015625 51.0 37.015625Q50.125 37.015625 49.453125 37.484375Q48.796875 37.953125 48.421875 38.71875L48.421875 46.25L46.625 46.25L46.625 31.25L48.421875 31.25L48.421875 36.96875ZM64.140625 46.25Q63.984375 45.9375 63.890625 45.140625Q62.625 46.453125 60.875 46.453125Q59.3125 46.453125 58.3125 45.5625Q57.3125 44.671875 57.3125 43.3125Q57.3125 41.671875 58.5625 40.765625Q59.828125 39.84375 62.09375 39.84375L63.859375 39.84375L63.859375 39.015625Q63.859375 38.0625 63.28125 37.5Q62.71875 36.9375 61.625 36.9375Q60.65625 36.9375 60.0 37.4375Q59.34375 37.921875 59.34375 38.609375L57.53125 38.609375Q57.53125 37.828125 58.09375 37.09375Q58.65625 36.34375 59.609375 35.921875Q60.578125 35.484375 61.734375 35.484375Q63.5625 35.484375 64.59375 36.40625Q65.625 37.3125 65.671875 38.921875L65.671875 43.78125Q65.671875 45.234375 66.03125 46.09375L66.03125 46.25L64.140625 46.25ZM61.140625 44.875Q62.0 44.875 62.75 44.4375Q63.515625 44.0 63.859375 43.296875L63.859375 41.125L62.4375 41.125Q59.125 41.125 59.125 43.0625Q59.125 43.921875 59.6875 44.40625Q60.25 44.875 61.140625 44.875ZM71.0625 33.125L71.0625 35.6875L73.046875 35.6875L73.046875 37.078125L71.0625 37.078125L71.0625 43.625Q71.0625 44.265625 71.328125 44.59375Q71.59375 44.90625 72.234375 44.90625Q72.546875 44.90625 73.09375 44.78125L73.09375 46.25Q72.375 46.453125 71.703125 46.453125Q70.5 46.453125 69.875 45.71875Q69.265625 44.984375 69.265625 43.625L69.265625 37.078125L67.34375 37.078125L67.34375 35.6875L69.265625 35.6875L69.265625 33.125L71.0625 33.125ZM89.546875 41.078125Q89.546875 43.5 88.4375 44.984375Q87.34375 46.453125 85.453125 46.453125Q83.53125 46.453125 82.421875 45.21875L82.421875 50.3125L80.625 50.3125L80.625 35.6875L82.265625 35.6875L82.359375 36.859375Q83.453125 35.484375 85.421875 35.484375Q87.328125 35.484375 88.4375 36.921875Q89.546875 38.359375 89.546875 40.921875L89.546875 41.078125ZM87.734375 40.875Q87.734375 39.09375 86.96875 38.0625Q86.21875 37.015625 84.890625 37.015625Q83.25 37.015625 82.421875 38.46875L82.421875 43.53125Q83.234375 44.96875 84.90625 44.96875Q86.203125 44.96875 86.96875 43.9375Q87.734375 42.90625 87.734375 40.875ZM93.578125 46.25L91.78125 46.25L91.78125 31.25L93.578125 31.25L93.578125 46.25ZM103.140625 46.25Q102.984375 45.9375 102.890625 45.140625Q101.625 46.453125 99.875 46.453125Q98.3125 46.453125 97.3125 45.5625Q96.3125 44.671875 96.3125 43.3125Q96.3125 41.671875 97.5625 40.765625Q98.828125 39.84375 101.09375 39.84375L102.859375 39.84375L102.859375 39.015625Q102.859375 38.0625 102.28125 37.5Q101.71875 36.9375 100.625 36.9375Q99.65625 36.9375 99.0 37.4375Q98.34375 37.921875 98.34375 38.609375L96.53125 38.609375Q96.53125 37.828125 97.09375 37.09375Q97.65625 36.34375 98.609375 35.921875Q99.578125 35.484375 100.734375 35.484375Q102.5625 35.484375 103.59375 36.40625Q104.625 37.3125 104.671875 38.921875L104.671875 43.78125Q104.671875 45.234375 105.03125 46.09375L105.03125 46.25L103.140625 46.25ZM100.140625 44.875Q101.0 44.875 101.75 44.4375Q102.515625 44.0 102.859375 43.296875L102.859375 41.125L101.4375 41.125Q98.125 41.125 98.125 43.0625Q98.125 43.921875 98.6875 44.40625Q99.25 44.875 100.140625 44.875ZM110.0625 33.125L110.0625 35.6875L112.046875 35.6875L112.046875 37.078125L110.0625 37.078125L110.0625 43.625Q110.0625 44.265625 110.328125 44.59375Q110.59375 44.90625 111.234375 44.90625Q111.546875 44.90625 112.09375 44.78125L112.09375 46.25Q111.375 46.453125 110.703125 46.453125Q109.5 46.453125 108.875 45.71875Q108.265625 44.984375 108.265625 43.625L108.265625 37.078125L106.34375 37.078125L106.34375 35.6875L108.265625 35.6875L108.265625 33.125L110.0625 33.125ZM115.5 46.25L115.5 37.078125L113.84375 37.078125L113.84375 35.6875L115.5 35.6875L115.5 34.59375Q115.5 32.90625 116.40625 31.984375Q117.328125 31.046875 118.984375 31.046875Q119.609375 31.046875 120.21875 31.203125L120.125 32.671875Q119.671875 32.59375 119.15625 32.59375Q118.265625 32.59375 117.78125 33.109375Q117.3125 33.609375 117.3125 34.5625L117.3125 35.6875L119.5625 35.6875L119.5625 37.078125L117.3125 37.078125L117.3125 46.25L115.5 46.25ZM121.140625 40.875Q121.140625 39.3125 121.75 38.078125Q122.359375 36.828125 123.4375 36.15625Q124.53125 35.484375 125.9375 35.484375Q128.09375 35.484375 129.42188 36.984375Q130.76562 38.46875 130.76562 40.953125L130.76562 41.078125Q130.76562 42.625 130.17188 43.859375Q129.57812 45.078125 128.46875 45.765625Q127.375 46.453125 125.953125 46.453125Q123.8125 46.453125 122.46875 44.953125Q121.140625 43.453125 121.140625 41.0L121.140625 40.875ZM122.953125 41.078125Q122.953125 42.84375 123.765625 43.90625Q124.59375 44.96875 125.953125 44.96875Q127.328125 44.96875 128.14062 43.890625Q128.95312 42.8125 128.95312 40.875Q128.95312 39.125 128.125 38.046875Q127.296875 36.96875 125.9375 36.96875Q124.59375 36.96875 123.765625 38.03125Q122.953125 39.09375 122.953125 41.078125ZM137.71875 37.296875Q137.3125 37.234375 136.84375 37.234375Q135.0625 37.234375 134.42188 38.75L134.42188 46.25L132.625 46.25L132.625 35.6875L134.375 35.6875L134.40625 36.90625Q135.29688 35.484375 136.92188 35.484375Q137.45312 35.484375 137.71875 35.625L137.71875 37.296875ZM141.3125 35.6875L141.35938 36.859375Q142.53125 35.484375 144.5 35.484375Q146.71875 35.484375 147.51562 37.1875Q148.04688 36.421875 148.89062 35.953125Q149.73438 35.484375 150.89062 35.484375Q154.35938 35.484375 154.42188 39.171875L154.42188 46.25L152.60938 46.25L152.60938 39.28125Q152.60938 38.140625 152.09375 37.578125Q151.57812 37.015625 150.35938 37.015625Q149.35938 37.015625 148.6875 37.625Q148.03125 38.21875 147.92188 39.234375L147.92188 46.25L146.10938 46.25L146.10938 39.328125Q146.10938 37.015625 143.84375 37.015625Q142.0625 37.015625 141.42188 38.53125L141.42188 46.25L139.60938 46.25L139.60938 35.6875L141.3125 35.6875ZM163.76562 43.453125Q163.76562 42.71875 163.21875 42.3125Q162.67188 41.90625 161.29688 41.609375Q159.92188 41.3125 159.10938 40.90625Q158.3125 40.5 157.92188 39.9375Q157.54688 39.359375 157.54688 38.578125Q157.54688 37.28125 158.64062 36.390625Q159.73438 35.484375 161.45312 35.484375Q163.25 35.484375 164.35938 36.421875Q165.48438 37.34375 165.48438 38.78125L163.65625 38.78125Q163.65625 38.046875 163.03125 37.515625Q162.40625 36.96875 161.45312 36.96875Q160.45312 36.96875 159.89062 37.40625Q159.34375 37.828125 159.34375 38.53125Q159.34375 39.171875 159.85938 39.515625Q160.375 39.84375 161.73438 40.15625Q163.09375 40.453125 163.92188 40.875Q164.76562 41.28125 165.17188 41.875Q165.57812 42.46875 165.57812 43.3125Q165.57812 44.734375 164.4375 45.59375Q163.3125 46.453125 161.5 46.453125Q160.23438 46.453125 159.25 46.0Q158.28125 45.546875 157.71875 44.75Q157.17188 43.9375 157.17188 43.0L158.98438 43.0Q159.03125 43.90625 159.70312 44.4375Q160.39062 44.96875 161.5 44.96875Q162.53125 44.96875 163.14062 44.5625Q163.76562 44.140625 163.76562 43.453125ZM179.14062 46.25Q178.98438 45.9375 178.89062 45.140625Q177.625 46.453125 175.875 46.453125Q174.3125 46.453125 173.3125 45.5625Q172.3125 44.671875 172.3125 43.3125Q172.3125 41.671875 173.5625 40.765625Q174.82812 39.84375 177.09375 39.84375L178.85938 39.84375L178.85938 39.015625Q178.85938 38.0625 178.28125 37.5Q177.71875 36.9375 176.625 36.9375Q175.65625 36.9375 175.0 37.4375Q174.34375 37.921875 174.34375 38.609375L172.53125 38.609375Q172.53125 37.828125 173.09375 37.09375Q173.65625 36.34375 174.60938 35.921875Q175.57812 35.484375 176.73438 35.484375Q178.5625 35.484375 179.59375 36.40625Q180.625 37.3125 180.67188 38.921875L180.67188 43.78125Q180.67188 45.234375 181.03125 46.09375L181.03125 46.25L179.14062 46.25ZM176.14062 44.875Q177.0 44.875 177.75 44.4375Q178.51562 44.0 178.85938 43.296875L178.85938 41.125L177.4375 41.125Q174.125 41.125 174.125 43.0625Q174.125 43.921875 174.6875 44.40625Q175.25 44.875 176.14062 44.875ZM188.71875 37.296875Q188.3125 37.234375 187.84375 37.234375Q186.0625 37.234375 185.42188 38.75L185.42188 46.25L183.625 46.25L183.625 35.6875L185.375 35.6875L185.40625 36.90625Q186.29688 35.484375 187.92188 35.484375Q188.45312 35.484375 188.71875 35.625L188.71875 37.296875ZM195.0 46.453125Q192.85938 46.453125 191.5 45.046875Q190.15625 43.625 190.15625 41.265625L190.15625 40.921875Q190.15625 39.359375 190.75 38.125Q191.35938 36.890625 192.4375 36.1875Q193.51562 35.484375 194.78125 35.484375Q196.84375 35.484375 197.98438 36.84375Q199.125 38.203125 199.125 40.734375L199.125 41.484375L191.96875 41.484375Q192.0 43.046875 192.875 44.015625Q193.75 44.96875 195.09375 44.96875Q196.0625 44.96875 196.71875 44.578125Q197.39062 44.1875 197.89062 43.546875L198.98438 44.40625Q197.65625 46.453125 195.0 46.453125ZM194.78125 36.96875Q193.6875 36.96875 192.9375 37.765625Q192.20312 38.5625 192.03125 40.0L197.3125 40.0L197.3125 39.859375Q197.23438 38.484375 196.5625 37.734375Q195.90625 36.96875 194.78125 36.96875ZM210.07812 43.609375L212.53125 35.6875L214.46875 35.6875L210.21875 47.875Q209.23438 50.515625 207.09375 50.515625L206.75 50.484375L206.07812 50.359375L206.07812 48.890625L206.5625 48.9375Q207.48438 48.9375 207.98438 48.5625Q208.5 48.1875 208.82812 47.203125L209.23438 46.125L205.46875 35.6875L207.4375 35.6875L210.07812 43.609375ZM215.14062 40.875Q215.14062 39.3125 215.75 38.078125Q216.35938 36.828125 217.4375 36.15625Q218.53125 35.484375 219.9375 35.484375Q222.09375 35.484375 223.42188 36.984375Q224.76562 38.46875 224.76562 40.953125L224.76562 41.078125Q224.76562 42.625 224.17188 43.859375Q223.57812 45.078125 222.46875 45.765625Q221.375 46.453125 219.95312 46.453125Q217.8125 46.453125 216.46875 44.953125Q215.14062 43.453125 215.14062 41.0L215.14062 40.875ZM216.95312 41.078125Q216.95312 42.84375 217.76562 43.90625Q218.59375 44.96875 219.95312 44.96875Q221.32812 44.96875 222.14062 43.890625Q222.95312 42.8125 222.95312 40.875Q222.95312 39.125 222.125 38.046875Q221.29688 36.96875 219.9375 36.96875Q218.59375 36.96875 217.76562 38.03125Q216.95312 39.09375 216.95312 41.078125ZM233.14062 45.203125Q232.09375 46.453125 230.04688 46.453125Q228.35938 46.453125 227.46875 45.46875Q226.59375 44.484375 226.57812 42.5625L226.57812 35.6875L228.39062 35.6875L228.39062 42.515625Q228.39062 44.90625 230.34375 44.90625Q232.40625 44.90625 233.09375 43.375L233.09375 35.6875L234.90625 35.6875L234.90625 46.25L233.1875 46.25L233.14062 45.203125ZM242.17188 40.875Q242.17188 38.453125 243.32812 36.96875Q244.48438 35.484375 246.34375 35.484375Q248.20312 35.484375 249.28125 36.75L249.28125 31.25L251.09375 31.25L251.09375 46.25L249.4375 46.25L249.34375 45.109375Q248.26562 46.453125 246.32812 46.453125Q244.5 46.453125 243.32812 44.953125Q242.17188 43.4375 242.17188 41.015625L242.17188 40.875ZM243.98438 41.078125Q243.98438 42.875 244.71875 43.890625Q245.46875 44.90625 246.78125 44.90625Q248.5 44.90625 249.28125 43.375L249.28125 38.515625Q248.48438 37.015625 246.79688 37.015625Q245.46875 37.015625 244.71875 38.046875Q243.98438 39.078125 243.98438 41.078125ZM258.0 46.453125Q255.85938 46.453125 254.5 45.046875Q253.15625 43.625 253.15625 41.265625L253.15625 40.921875Q253.15625 39.359375 253.75 38.125Q254.35938 36.890625 255.4375 36.1875Q256.51562 35.484375 257.78125 35.484375Q259.84375 35.484375 260.98438 36.84375Q262.125 38.203125 262.125 40.734375L262.125 41.484375L254.96875 41.484375Q255.0 43.046875 255.875 44.015625Q256.75 44.96875 258.09375 44.96875Q259.0625 44.96875 259.71875 44.578125Q260.39062 44.1875 260.89062 43.546875L261.98438 44.40625Q260.65625 46.453125 258.0 46.453125ZM257.78125 36.96875Q256.6875 36.96875 255.9375 37.765625Q255.20312 38.5625 255.03125 40.0L260.3125 40.0L260.3125 39.859375Q260.23438 38.484375 259.5625 37.734375Q258.90625 36.96875 257.78125 36.96875ZM268.10938 43.796875L270.71875 35.6875L272.5625 35.6875L268.78125 46.25L267.40625 46.25L263.57812 35.6875L265.42188 35.6875L268.10938 43.796875ZM279.0 46.453125Q276.85938 46.453125 275.5 45.046875Q274.15625 43.625 274.15625 41.265625L274.15625 40.921875Q274.15625 39.359375 274.75 38.125Q275.35938 36.890625 276.4375 36.1875Q277.51562 35.484375 278.78125 35.484375Q280.84375 35.484375 281.98438 36.84375Q283.125 38.203125 283.125 40.734375L283.125 41.484375L275.96875 41.484375Q276.0 43.046875 276.875 44.015625Q277.75 44.96875 279.09375 44.96875Q280.0625 44.96875 280.71875 44.578125Q281.39062 44.1875 281.89062 43.546875L282.98438 44.40625Q281.65625 46.453125 279.0 46.453125ZM278.78125 36.96875Q277.6875 36.96875 276.9375 37.765625Q276.20312 38.5625 276.03125 40.0L281.3125 40.0L281.3125 39.859375Q281.23438 38.484375 280.5625 37.734375Q279.90625 36.96875 278.78125 36.96875ZM287.57812 46.25L285.78125 46.25L285.78125 31.25L287.57812 31.25L287.57812 46.25ZM290.14062 40.875Q290.14062 39.3125 290.75 38.078125Q291.35938 36.828125 292.4375 36.15625Q293.53125 35.484375 294.9375 35.484375Q297.09375 35.484375 298.42188 36.984375Q299.76562 38.46875 299.76562 40.953125L299.76562 41.078125Q299.76562 42.625 299.17188 43.859375Q298.57812 45.078125 297.46875 45.765625Q296.375 46.453125 294.95312 46.453125Q292.8125 46.453125 291.46875 44.953125Q290.14062 43.453125 290.14062 41.0L290.14062 40.875ZM291.95312 41.078125Q291.95312 42.84375 292.76562 43.90625Q293.59375 44.96875 294.95312 44.96875Q296.32812 44.96875 297.14062 43.890625Q297.95312 42.8125 297.95312 40.875Q297.95312 39.125 297.125 38.046875Q296.29688 36.96875 294.9375 36.96875Q293.59375 36.96875 292.76562 38.03125Q291.95312 39.09375 291.95312 41.078125ZM310.54688 41.078125Q310.54688 43.5 309.4375 44.984375Q308.34375 46.453125 306.45312 46.453125Q304.53125 46.453125 303.42188 45.21875L303.42188 50.3125L301.625 50.3125L301.625 35.6875L303.26562 35.6875L303.35938 36.859375Q304.45312 35.484375 306.42188 35.484375Q308.32812 35.484375 309.4375 36.921875Q310.54688 38.359375 310.54688 40.921875L310.54688 41.078125ZM308.73438 40.875Q308.73438 39.09375 307.96875 38.0625Q307.21875 37.015625 305.89062 37.015625Q304.25 37.015625 303.42188 38.46875L303.42188 43.53125Q304.23438 44.96875 305.90625 44.96875Q307.20312 44.96875 307.96875 43.9375Q308.73438 42.90625 308.73438 40.875ZM314.57812 46.25L312.78125 46.25L312.78125 35.6875L314.57812 35.6875L314.57812 46.25ZM312.625 32.875Q312.625 32.4375 312.89062 32.140625Q313.17188 31.828125 313.6875 31.828125Q314.21875 31.828125 314.48438 32.140625Q314.76562 32.4375 314.76562 32.875Q314.76562 33.3125 314.48438 33.609375Q314.21875 33.90625 313.6875 33.90625Q313.17188 33.90625 312.89062 33.609375Q312.625 33.3125 312.625 32.875ZM319.32812 35.6875L319.39062 37.015625Q320.59375 35.484375 322.54688 35.484375Q325.90625 35.484375 325.92188 39.265625L325.92188 46.25L324.125 46.25L324.125 39.25Q324.10938 38.109375 323.59375 37.5625Q323.09375 37.015625 322.0 37.015625Q321.125 37.015625 320.45312 37.484375Q319.79688 37.953125 319.42188 38.71875L319.42188 46.25L317.625 46.25L317.625 35.6875L319.32812 35.6875ZM328.1875 40.875Q328.1875 38.40625 329.32812 36.953125Q330.46875 35.484375 332.35938 35.484375Q334.29688 35.484375 335.375 36.859375L335.46875 35.6875L337.10938 35.6875L337.10938 46.0Q337.10938 48.046875 335.89062 49.21875Q334.6875 50.40625 332.625 50.40625Q331.48438 50.40625 330.39062 49.921875Q329.29688 49.4375 328.71875 48.578125L329.65625 47.5Q330.82812 48.9375 332.5 48.9375Q333.82812 48.9375 334.5625 48.1875Q335.29688 47.453125 335.29688 46.109375L335.29688 45.1875Q334.21875 46.453125 332.34375 46.453125Q330.48438 46.453125 329.32812 44.953125Q328.1875 43.453125 328.1875 40.875ZM330.0 41.078125Q330.0 42.875 330.73438 43.890625Q331.46875 44.90625 332.78125 44.90625Q334.5 44.90625 335.29688 43.359375L335.29688 38.53125Q334.46875 37.015625 332.8125 37.015625Q331.48438 37.015625 330.73438 38.046875Q330.0 39.078125 330.0 41.078125ZM344.14062 40.875Q344.14062 39.3125 344.75 38.078125Q345.35938 36.828125 346.4375 36.15625Q347.53125 35.484375 348.9375 35.484375Q351.09375 35.484375 352.42188 36.984375Q353.76562 38.46875 353.76562 40.953125L353.76562 41.078125Q353.76562 42.625 353.17188 43.859375Q352.57812 45.078125 351.46875 45.765625Q350.375 46.453125 348.95312 46.453125Q346.8125 46.453125 345.46875 44.953125Q344.14062 43.453125 344.14062 41.0L344.14062 40.875ZM345.95312 41.078125Q345.95312 42.84375 346.76562 43.90625Q347.59375 44.96875 348.95312 44.96875Q350.32812 44.96875 351.14062 43.890625Q351.95312 42.8125 351.95312 40.875Q351.95312 39.125 351.125 38.046875Q350.29688 36.96875 348.9375 36.96875Q347.59375 36.96875 346.76562 38.03125Q345.95312 39.09375 345.95312 41.078125ZM357.32812 35.6875L357.39062 37.015625Q358.59375 35.484375 360.54688 35.484375Q363.90625 35.484375 363.92188 39.265625L363.92188 46.25L362.125 46.25L362.125 39.25Q362.10938 38.109375 361.59375 37.5625Q361.09375 37.015625 360.0 37.015625Q359.125 37.015625 358.45312 37.484375Q357.79688 37.953125 357.42188 38.71875L357.42188 46.25L355.625 46.25L355.625 35.6875L357.32812 35.6875ZM368.73438 42.25Q368.75 41.078125 369.0 40.40625Q369.25 39.734375 370.0 38.921875L371.28125 37.59375Q372.09375 36.671875 372.09375 35.609375Q372.09375 34.578125 371.54688 34.0Q371.01562 33.421875 370.0 33.421875Q369.0 33.421875 368.39062 33.953125Q367.79688 34.46875 367.79688 35.359375L365.98438 35.359375Q366.0 33.78125 367.10938 32.8125Q368.21875 31.828125 370.0 31.828125Q371.84375 31.828125 372.875 32.828125Q373.90625 33.8125 373.90625 35.546875Q373.90625 37.25 372.32812 38.921875L371.25 39.96875Q370.54688 40.765625 370.54688 42.25L368.73438 42.25ZM368.65625 45.34375Q368.65625 44.90625 368.92188 44.609375Q369.20312 44.3125 369.71875 44.3125Q370.25 44.3125 370.51562 44.609375Q370.79688 44.90625 370.79688 45.34375Q370.79688 45.78125 370.51562 46.078125Q370.25 46.359375 369.71875 46.359375Q369.20312 46.359375 368.92188 46.078125Q368.65625 45.78125 368.65625 45.34375Z" fill-rule="nonzero"/></svg>