<svg version="1.1" viewBox="0.0 0.0 665.0 334.0" fill="none" stroke="none" stroke-linecap="square" stroke-miterlimit="10" width="665" height="334" xmlns:xlink="http://www.w3.org/1999/xlink" xmlns="http://www.w3.org/2000/svg"><path fill="#ffffff" d="M0 0L665.0 0L665.0 334.0L0 334.0L0 0Z" fill-rule="nonzero"/><path stroke="#333333" stroke-width="1.0" stroke-linecap="butt" d="M77.5 248.5L648.5 248.5" fill-rule="nonzero"/><path stroke="#cccccc" stroke-width="1.0" stroke-linecap="butt" d="M77.5 201.5L648.5 201.5" fill-rule="nonzero"/><path stroke="#cccccc" stroke-width="1.0" stroke-linecap="butt" d="M77.5 153.5L648.5 153.5" fill-rule="nonzero"/><path stroke="#cccccc" stroke-width="1.0" stroke-linecap="butt" d="M77.5 106.5L648.5 106.5" fill-rule="nonzero"/><path stroke="#cccccc" stroke-width="1.0" stroke-linecap="butt" d="M77.5 59.5L648.5 59.5" fill-rule="nonzero"/><clipPath id="id_0"><path d="M77.7 59.333332L648.3 59.333332L648.3 248.3L77.7 248.3L77.7 59.333332Z" clip-rule="nonzero"/></clipPath><path stroke="#000000" stroke-width="0.0" stroke-linecap="butt" stroke-opacity="0.0" clip-path="url(#id_0)" d="M167.0 248.0L109.0 248.0L109.0 228.0C109.0 226.89543 109.89543 226.0 111.0 226.0L165.0 226.0C166.10457 226.0 167.0 226.89543 167.0 228.0Z" fill-rule="nonzero"/><path fill="#4472c4" clip-path="url(#id_0)" d="M167.0 248.0L109.0 248.0L109.0 228.0C109.0 226.89543 109.89543 226.0 111.0 226.0L165.0 226.0C166.10457 226.0 167.0 226.89543 167.0 228.0Z" fill-rule="nonzero"/><path stroke="#000000" stroke-width="0.0" stroke-linecap="butt" stroke-opacity="0.0" clip-path="url(#id_0)" d="M257.0 248.0L199.0 248.0L199.0 101.0C199.0 99.89543 199.89543 99.0 201.0 99.0L255.0 99.0C256.10458 99.0 257.0 99.89543 257.0 101.0Z" fill-rule="nonzero"/><path fill="#4472c4" clip-path="url(#id_0)" d="M257.0 248.0L199.0 248.0L199.0 101.0C199.0 99.89543 199.89543 99.0 201.0 99.0L255.0 99.0C256.10458 99.0 257.0 99.89543 257.0 101.0Z" fill-rule="nonzero"/><path stroke="#000000" stroke-width="0.0" stroke-linecap="butt" stroke-opacity="0.0" clip-path="url(#id_0)" d="M347.0 248.0L289.0 248.0L289.0 85.0C289.0 83.89543 289.89542 83.0 291.0 83.0L345.0 83.0C346.10458 83.0 347.0 83.89543 347.0 85.0Z" fill-rule="nonzero"/><path fill="#4472c4" clip-path="url(#id_0)" d="M347.0 248.0L289.0 248.0L289.0 85.0C289.0 83.89543 289.89542 83.0 291.0 83.0L345.0 83.0C346.10458 83.0 347.0 83.89543 347.0 85.0Z" fill-rule="nonzero"/><path stroke="#000000" stroke-width="0.0" stroke-linecap="butt" stroke-opacity="0.0" clip-path="url(#id_0)" d="M437.0 248.0L379.0 248.0L379.0 71.0C379.0 69.89543 379.89542 69.0 381.0 69.0L435.0 69.0C436.10458 69.0 437.0 69.89543 437.0 71.0Z" fill-rule="nonzero"/><path fill="#4472c4" clip-path="url(#id_0)" d="M437.0 248.0L379.0 248.0L379.0 71.0C379.0 69.89543 379.89542 69.0 381.0 69.0L435.0 69.0C436.10458 69.0 437.0 69.89543 437.0 71.0Z" fill-rule="nonzero"/><path stroke="#000000" stroke-width="0.0" stroke-linecap="butt" stroke-opacity="0.0" clip-path="url(#id_0)" d="M527.0 248.0L469.0 248.0L469.0 202.0C469.0 200.89543 469.89542 200.0 471.0 200.0L525.0 200.0C526.10455 200.0 527.0 200.89543 527.0 202.0Z" fill-rule="nonzero"/><path fill="#4472c4" clip-path="url(#id_0)" d="M527.0 248.0L469.0 248.0L469.0 202.0C469.0 200.89543 469.89542 200.0 471.0 200.0L525.0 200.0C526.10455 200.0 527.0 200.89543 527.0 202.0Z" fill-rule="nonzero"/><path stroke="#000000" stroke-width="0.0" stroke-linecap="butt" stroke-opacity="0.0" clip-path="url(#id_0)" d="M617.0 248.0L559.0 248.0L559.0 86.0C559.0 84.89543 559.89545 84.0 561.0 84.0L615.0 84.0C616.10455 84.0 617.0 84.89543 617.0 86.0Z" fill-rule="nonzero"/><path fill="#4472c4" clip-path="url(#id_0)" d="M617.0 248.0L559.0 248.0L559.0 86.0C559.0 84.89543 559.89545 84.0 561.0 84.0L615.0 84.0C616.10455 84.0 617.0 84.89543 617.0 86.0Z" fill-rule="nonzero"/><path fill="#000000" d="M349.625 310.84686L347.60938 310.84686L347.60938 314.3L346.48438 314.3L346.48438 305.76874L349.3125 305.76874Q350.75 305.76874 351.51562 306.425Q352.29688 307.08124 352.29688 308.33124Q352.29688 309.1281 351.85938 309.72186Q351.4375 310.3156 350.67188 310.6125L352.67188 314.22186L352.67188 314.3L351.46875 314.3L349.625 310.84686ZM347.60938 309.925L349.34375 309.925Q350.1875 309.925 350.67188 309.5031Q351.17188 309.0656 351.17188 308.33124Q351.17188 307.55 350.70312 307.1281Q350.23438 306.70624 349.34375 306.6906L347.60938 306.6906L347.60938 309.925ZM357.23438 314.3Q357.14062 314.1125 357.07812 313.6281Q356.32812 314.425 355.28125 314.425Q354.34375 314.425 353.73438 313.89374Q353.14062 313.3625 353.14062 312.53436Q353.14062 311.55 353.89062 311.0031Q354.64062 310.45624 356.01562 310.45624L357.0625 310.45624L357.0625 309.95624Q357.0625 309.39374 356.71875 309.0656Q356.39062 308.72186 355.71875 308.72186Q355.14062 308.72186 354.75 309.01874Q354.35938 309.3 354.35938 309.72186L353.26562 309.72186Q353.26562 309.2375 353.59375 308.8Q353.9375 308.3625 354.51562 308.1125Q355.09375 307.84686 355.78125 307.84686Q356.89062 307.84686 357.5 308.39374Q358.125 308.9406 358.15625 309.89374L358.15625 312.8156Q358.15625 313.6906 358.375 314.20624L358.375 314.3L357.23438 314.3ZM355.4375 313.47186Q355.95312 313.47186 356.40625 313.20624Q356.85938 312.9406 357.0625 312.51874L357.0625 311.22186L356.21875 311.22186Q354.21875 311.22186 354.21875 312.39374Q354.21875 312.89374 354.5625 313.1906Q354.90625 313.47186 355.4375 313.47186ZM361.79688 306.425L361.79688 307.95624L362.96875 307.95624L362.96875 308.8L361.79688 308.8L361.79688 312.72186Q361.79688 313.1125 361.95312 313.3Q362.10938 313.4875 362.48438 313.4875Q362.67188 313.4875 363.0 313.425L363.0 314.3Q362.57812 314.425 362.17188 314.425Q361.45312 314.425 361.07812 313.9875Q360.70312 313.53436 360.70312 312.72186L360.70312 308.8L359.54688 308.8L359.54688 307.95624L360.70312 307.95624L360.70312 306.425L361.79688 306.425ZM365.5 314.3L364.42188 314.3L364.42188 307.95624L365.5 307.95624L365.5 314.3ZM364.32812 306.28436Q364.32812 306.01874 364.48438 305.83124Q364.65625 305.64374 364.96875 305.64374Q365.28125 305.64374 365.4375 305.83124Q365.60938 306.01874 365.60938 306.28436Q365.60938 306.53436 365.4375 306.72186Q365.28125 306.89374 364.96875 306.89374Q364.65625 306.89374 364.48438 306.72186Q364.32812 306.53436 364.32812 306.28436ZM368.34375 307.95624L368.375 308.7531Q369.10938 307.84686 370.28125 307.84686Q372.29688 307.84686 372.3125 310.1125L372.3125 314.3L371.21875 314.3L371.21875 310.09686Q371.21875 309.425 370.90625 309.09686Q370.60938 308.76874 369.95312 308.76874Q369.42188 308.76874 369.01562 309.05Q368.625 309.33124 368.40625 309.78436L368.40625 314.3L367.32812 314.3L367.32812 307.95624L368.34375 307.95624ZM374.0625 311.08124Q374.0625 309.59686 374.75 308.72186Q375.4375 307.84686 376.5625 307.84686Q377.71875 307.84686 378.375 308.65936L378.42188 307.95624L379.42188 307.95624L379.42188 314.14374Q379.42188 315.3781 378.6875 316.08124Q377.95312 316.8 376.73438 316.8Q376.04688 316.8 375.39062 316.5031Q374.73438 316.20624 374.39062 315.70624L374.95312 315.05Q375.64062 315.90936 376.65625 315.90936Q377.4375 315.90936 377.875 315.45624Q378.32812 315.01874 378.32812 314.20624L378.32812 313.65936Q377.67188 314.425 376.54688 314.425Q375.4375 314.425 374.75 313.53436Q374.0625 312.6281 374.0625 311.08124ZM375.15625 311.20624Q375.15625 312.26874 375.59375 312.89374Q376.03125 313.5031 376.82812 313.5031Q377.84375 313.5031 378.32812 312.5656L378.32812 309.675Q377.82812 308.76874 376.82812 308.76874Q376.04688 308.76874 375.59375 309.3781Q375.15625 309.9875 375.15625 311.20624Z" fill-rule="nonzero"/><path fill="#000000" d="M29.699987 190.67604L29.699987 192.17604L26.231237 195.09792L26.231237 196.73854L29.699987 196.73854L29.699987 197.89479L20.981237 197.89479L20.981237 195.45729Q20.981237 194.66042 21.090612 194.12917Q21.184362 193.59792 21.449987 193.17604Q21.746862 192.70729 22.199987 192.44167Q22.653112 192.17604 23.340612 192.17604Q24.293737 192.17604 24.934362 192.66042Q25.559362 193.12917 25.887487 193.95729L29.699987 190.67604ZM23.434362 193.39479Q23.059362 193.39479 22.778112 193.51979Q22.481237 193.64479 22.278112 193.95729Q22.106237 194.20729 22.043737 194.55104Q21.965612 194.89479 21.965612 195.36354L21.965612 196.73854L25.262487 196.73854L25.262487 195.56667Q25.262487 195.00417 25.168737 194.59792Q25.074987 194.19167 24.809362 193.91042Q24.559362 193.64479 24.246862 193.51979Q23.918737 193.39479 23.434362 193.39479ZM26.543737 184.50417L26.543737 189.33229Q27.137487 189.33229 27.590612 189.14479Q28.043737 188.95729 28.324987 188.64479Q28.606237 188.34792 28.746862 187.92604Q28.887487 187.50417 28.887487 187.00417Q28.887487 186.33229 28.621862 185.66042Q28.356237 184.97292 28.106237 184.69167L28.106237 184.62917L29.293737 184.62917Q29.528112 185.19167 29.699987 185.76979Q29.856237 186.34792 29.856237 186.98854Q29.856237 188.61354 28.981237 189.53542Q28.090612 190.44167 26.465612 190.44167Q24.856237 190.44167 23.918737 189.56667Q22.965612 188.69167 22.965612 187.26979Q22.965612 185.94167 23.746862 185.22292Q24.512487 184.50417 25.949987 184.50417L26.543737 184.50417ZM25.699987 185.58229Q24.824987 185.58229 24.356237 186.01979Q23.887487 186.44167 23.887487 187.31667Q23.887487 188.20729 24.403112 188.73854Q24.918737 189.25417 25.699987 189.33229L25.699987 185.58229ZM27.809362 178.30104Q28.715612 178.30104 29.293737 179.05104Q29.856237 179.78542 29.856237 181.06667Q29.856237 181.80104 29.684362 182.41042Q29.512487 183.00417 29.309362 183.42604L28.074987 183.42604L28.074987 183.36354Q28.465612 182.84792 28.699987 182.20729Q28.918737 181.56667 28.918737 180.97292Q28.918737 180.25417 28.684362 179.84792Q28.449987 179.42604 27.949987 179.42604Q27.559362 179.42604 27.371862 179.66042Q27.168737 179.87917 27.028112 180.50417Q26.981237 180.73854 26.918737 181.12917Q26.840612 181.50417 26.746862 181.81667Q26.528112 182.67604 26.090612 183.03542Q25.637487 183.39479 24.996862 183.39479Q24.590612 183.39479 24.231237 183.22292Q23.871862 183.05104 23.590612 182.72292Q23.324987 182.39479 23.168737 181.89479Q22.996862 181.37917 22.996862 180.75417Q22.996862 180.16042 23.137487 179.56667Q23.278112 178.95729 23.481237 178.56667L24.668737 178.56667L24.668737 178.62917Q24.356237 179.05104 24.153112 179.66042Q23.934362 180.25417 23.934362 180.83229Q23.934362 181.44167 24.168737 181.86354Q24.387487 182.26979 24.840612 182.26979Q25.246862 182.26979 25.449987 182.01979Q25.668737 181.76979 25.793737 181.22292Q25.856237 180.91042 25.934362 180.53542Q25.996862 180.16042 26.059362 179.91042Q26.231237 179.14479 26.668737 178.72292Q27.090612 178.30104 27.809362 178.30104ZM26.340612 171.22292Q27.137487 171.22292 27.809362 171.45729Q28.465612 171.67604 28.918737 172.09792Q29.356237 172.48854 29.590612 173.01979Q29.824987 173.53542 29.824987 174.11354Q29.824987 174.62917 29.715612 175.05104Q29.606237 175.45729 29.371862 175.87917L32.121864 175.87917L32.121864 176.98854L23.153112 176.98854L23.153112 175.87917L23.840612 175.87917Q23.465612 175.44167 23.215612 174.89479Q22.965612 174.34792 22.965612 173.72292Q22.965612 172.53542 23.871862 171.87917Q24.762487 171.22292 26.340612 171.22292ZM26.371862 172.36354Q25.199987 172.36354 24.621862 172.76979Q24.028112 173.16042 24.028112 174.00417Q24.028112 174.47292 24.231237 174.95729Q24.434362 175.44167 24.762487 175.87917L28.481237 175.87917Q28.684362 175.41042 28.762487 175.08229Q28.840612 174.73854 28.840612 174.31667Q28.840612 173.39479 28.215612 172.87917Q27.590612 172.36354 26.371862 172.36354ZM26.434362 164.41042Q28.028112 164.41042 28.965612 165.23854Q29.887487 166.05104 29.887487 167.42604Q29.887487 168.81667 28.965612 169.62917Q28.028112 170.44167 26.434362 170.44167Q24.824987 170.44167 23.903112 169.62917Q22.965612 168.81667 22.965612 167.42604Q22.965612 166.05104 23.903112 165.23854Q24.824987 164.41042 26.434362 164.41042ZM26.434362 165.53542Q25.153112 165.53542 24.543737 166.03542Q23.918737 166.53542 23.918737 167.42604Q23.918737 168.31667 24.543737 168.81667Q25.153112 169.30104 26.434362 169.30104Q27.653112 169.30104 28.293737 168.81667Q28.934362 168.31667 28.934362 167.42604Q28.934362 166.53542 28.309362 166.03542Q27.668737 165.53542 26.434362 165.53542ZM29.699987 157.50417L29.699987 158.61354L25.965612 158.61354Q25.528112 158.61354 25.137487 158.67604Q24.731237 158.72292 24.512487 158.86354Q24.262487 159.00417 24.153112 159.28542Q24.028112 159.55104 24.028112 159.98854Q24.028112 160.44167 24.246862 160.94167Q24.465612 161.42604 24.809362 161.87917L29.699987 161.87917L29.699987 162.98854L23.153112 162.98854L23.153112 161.87917L23.887487 161.87917Q23.449987 161.36354 23.215612 160.81667Q22.965612 160.26979 22.965612 159.67604Q22.965612 158.62917 23.606237 158.06667Q24.246862 157.50417 25.449987 157.50417L29.699987 157.50417ZM27.809362 150.30104Q28.715612 150.30104 29.293737 151.05104Q29.856237 151.78542 29.856237 153.06667Q29.856237 153.80104 29.684362 154.41042Q29.512487 155.00417 29.309362 155.42604L28.074987 155.42604L28.074987 155.36354Q28.465612 154.84792 28.699987 154.20729Q28.918737 153.56667 28.918737 152.97292Q28.918737 152.25417 28.684362 151.84792Q28.449987 151.42604 27.949987 151.42604Q27.559362 151.42604 27.371862 151.66042Q27.168737 151.87917 27.028112 152.50417Q26.981237 152.73854 26.918737 153.12917Q26.840612 153.50417 26.746862 153.81667Q26.528112 154.67604 26.090612 155.03542Q25.637487 155.39479 24.996862 155.39479Q24.590612 155.39479 24.231237 155.22292Q23.871862 155.05104 23.590612 154.72292Q23.324987 154.39479 23.168737 153.89479Q22.996862 153.37917 22.996862 152.75417Q22.996862 152.16042 23.137487 151.56667Q23.278112 150.95729 23.481237 150.56667L24.668737 150.56667L24.668737 150.62917Q24.356237 151.05104 24.153112 151.66042Q23.934362 152.25417 23.934362 152.83229Q23.934362 153.44167 24.168737 153.86354Q24.387487 154.26979 24.840612 154.26979Q25.246862 154.26979 25.449987 154.01979Q25.668737 153.76979 25.793737 153.22292Q25.856237 152.91042 25.934362 152.53542Q25.996862 152.16042 26.059362 151.91042Q26.231237 151.14479 26.668737 150.72292Q27.090612 150.30104 27.809362 150.30104ZM26.543737 143.50417L26.543737 148.33229Q27.137487 148.33229 27.590612 148.14479Q28.043737 147.95729 28.324987 147.64479Q28.606237 147.34792 28.746862 146.92604Q28.887487 146.50417 28.887487 146.00417Q28.887487 145.33229 28.621862 144.66042Q28.356237 143.97292 28.106237 143.69167L28.106237 143.62917L29.293737 143.62917Q29.528112 144.19167 29.699987 144.76979Q29.856237 145.34792 29.856237 145.98854Q29.856237 147.61354 28.981237 148.53542Q28.090612 149.44167 26.465612 149.44167Q24.856237 149.44167 23.918737 148.56667Q22.965612 147.69167 22.965612 146.26979Q22.965612 144.94167 23.746862 144.22292Q24.512487 143.50417 25.949987 143.50417L26.543737 143.50417ZM25.699987 144.58229Q24.824987 144.58229 24.356237 145.01979Q23.887487 145.44167 23.887487 146.31667Q23.887487 147.20729 24.403112 147.73854Q24.918737 148.25417 25.699987 148.33229L25.699987 144.58229ZM27.809362 137.30104Q28.715612 137.30104 29.293737 138.05104Q29.856237 138.78542 29.856237 140.06667Q29.856237 140.80104 29.684362 141.41042Q29.512487 142.00417 29.309362 142.42604L28.074987 142.42604L28.074987 142.36354Q28.465612 141.84792 28.699987 141.20729Q28.918737 140.56667 28.918737 139.97292Q28.918737 139.25417 28.684362 138.84792Q28.449987 138.42604 27.949987 138.42604Q27.559362 138.42604 27.371862 138.66042Q27.168737 138.87917 27.028112 139.50417Q26.981237 139.73854 26.918737 140.12917Q26.840612 140.50417 26.746862 140.81667Q26.528112 141.67604 26.090612 142.03542Q25.637487 142.39479 24.996862 142.39479Q24.590612 142.39479 24.231237 142.22292Q23.871862 142.05104 23.590612 141.72292Q23.324987 141.39479 23.168737 140.89479Q22.996862 140.37917 22.996862 139.75417Q22.996862 139.16042 23.137487 138.56667Q23.278112 137.95729 23.481237 137.56667L24.668737 137.56667L24.668737 137.62917Q24.356237 138.05104 24.153112 138.66042Q23.934362 139.25417 23.934362 139.83229Q23.934362 140.44167 24.168737 140.86354Q24.387487 141.26979 24.840612 141.26979Q25.246862 141.26979 25.449987 141.01979Q25.668737 140.76979 25.793737 140.22292Q25.856237 139.91042 25.934362 139.53542Q25.996862 139.16042 26.059362 138.91042Q26.231237 138.14479 26.668737 137.72292Q27.090612 137.30104 27.809362 137.30104Z" fill-rule="nonzero"/><path fill="#000000" d="M70.7625 249.15938Q70.7625 251.06563 70.10625 252.00313Q69.46562 252.925 68.075 252.925Q66.71562 252.925 66.05937 252.01875Q65.40312 251.1125 65.37187 249.3L65.37187 247.8625Q65.37187 245.97188 66.0125 245.06563Q66.66875 244.14375 68.05937 244.14375Q69.43437 244.14375 70.09062 245.03438Q70.74687 245.90938 70.7625 247.75313L70.7625 249.15938ZM69.66875 247.675Q69.66875 246.3 69.27812 245.675Q68.90312 245.03438 68.05937 245.03438Q67.23125 245.03438 66.84062 245.675Q66.46562 246.3 66.46562 247.59688L66.46562 249.33125Q66.46562 250.70625 66.85625 251.37813Q67.2625 252.03438 68.075 252.03438Q68.87187 252.03438 69.2625 251.40938Q69.65312 250.78438 69.66875 249.45625L69.66875 247.675Z" fill-rule="nonzero"/><path fill="#000000" d="M56.996876 205.55833L51.403126 205.55833L51.403126 204.77708L54.35625 201.49583Q55.0125 200.74583 55.2625 200.29271Q55.5125 199.82396 55.5125 199.32396Q55.5125 198.65208 55.10625 198.23021Q54.715626 197.79271 54.028126 197.79271Q53.23125 197.79271 52.778126 198.26146Q52.325 198.71458 52.325 199.54271L51.246876 199.54271Q51.246876 198.35521 51.996876 197.63646Q52.7625 196.90208 54.028126 196.90208Q55.23125 196.90208 55.91875 197.52708Q56.60625 198.15208 56.60625 199.19896Q56.60625 200.44896 54.996876 202.19896L52.715626 204.66771L56.996876 204.66771L56.996876 205.55833ZM63.7625 201.91771Q63.7625 203.82396 63.10625 204.76146Q62.465626 205.68333 61.075 205.68333Q59.715626 205.68333 59.059376 204.77708Q58.403126 203.87083 58.371876 202.05833L58.371876 200.62083Q58.371876 198.73021 59.0125 197.82396Q59.66875 196.90208 61.059376 196.90208Q62.434376 196.90208 63.090626 197.79271Q63.746876 198.66771 63.7625 200.51146L63.7625 201.91771ZM62.66875 200.43333Q62.66875 199.05833 62.278126 198.43333Q61.903126 197.79271 61.059376 197.79271Q60.23125 197.79271 59.840626 198.43333Q59.465626 199.05833 59.465626 200.35521L59.465626 202.08958Q59.465626 203.46458 59.85625 204.13646Q60.2625 204.79271 61.075 204.79271Q61.871876 204.79271 62.2625 204.16771Q62.653126 203.54271 62.66875 202.21458L62.66875 200.43333ZM70.7625 201.91771Q70.7625 203.82396 70.10625 204.76146Q69.46562 205.68333 68.075 205.68333Q66.71562 205.68333 66.05937 204.77708Q65.40312 203.87083 65.37187 202.05833L65.37187 200.62083Q65.37187 198.73021 66.0125 197.82396Q66.66875 196.90208 68.05937 196.90208Q69.43437 196.90208 70.09062 197.79271Q70.74687 198.66771 70.7625 200.51146L70.7625 201.91771ZM69.66875 200.43333Q69.66875 199.05833 69.27812 198.43333Q68.90312 197.79271 68.05937 197.79271Q67.23125 197.79271 66.84062 198.43333Q66.46562 199.05833 66.46562 200.35521L66.46562 202.08958Q66.46562 203.46458 66.85625 204.13646Q67.2625 204.79271 68.075 204.79271Q68.87187 204.79271 69.2625 204.16771Q69.65312 203.54271 69.66875 202.21458L69.66875 200.43333Z" fill-rule="nonzero"/><path fill="#000000" d="M55.98125 155.45729L57.16875 155.45729L57.16875 156.33229L55.98125 156.33229L55.98125 158.31667L54.903126 158.31667L54.903126 156.33229L51.0125 156.33229L51.0125 155.69167L54.825 149.78542L55.98125 149.78542L55.98125 155.45729ZM52.246876 155.45729L54.903126 155.45729L54.903126 151.26979L54.7625 151.50417L52.246876 155.45729ZM63.7625 154.67604Q63.7625 156.58229 63.10625 157.51979Q62.465626 158.44167 61.075 158.44167Q59.715626 158.44167 59.059376 157.53542Q58.403126 156.62917 58.371876 154.81667L58.371876 153.37917Q58.371876 151.48854 59.0125 150.58229Q59.66875 149.66042 61.059376 149.66042Q62.434376 149.66042 63.090626 150.55104Q63.746876 151.42604 63.7625 153.26979L63.7625 154.67604ZM62.66875 153.19167Q62.66875 151.81667 62.278126 151.19167Q61.903126 150.55104 61.059376 150.55104Q60.23125 150.55104 59.840626 151.19167Q59.465626 151.81667 59.465626 153.11354L59.465626 154.84792Q59.465626 156.22292 59.85625 156.89479Q60.2625 157.55104 61.075 157.55104Q61.871876 157.55104 62.2625 156.92604Q62.653126 156.30104 62.66875 154.97292L62.66875 153.19167ZM70.7625 154.67604Q70.7625 156.58229 70.10625 157.51979Q69.46562 158.44167 68.075 158.44167Q66.71562 158.44167 66.05937 157.53542Q65.40312 156.62917 65.37187 154.81667L65.37187 153.37917Q65.37187 151.48854 66.0125 150.58229Q66.66875 149.66042 68.05937 149.66042Q69.43437 149.66042 70.09062 150.55104Q70.74687 151.42604 70.7625 153.26979L70.7625 154.67604ZM69.66875 153.19167Q69.66875 151.81667 69.27812 151.19167Q68.90312 150.55104 68.05937 150.55104Q67.23125 150.55104 66.84062 151.19167Q66.46562 151.81667 66.46562 153.11354L66.46562 154.84792Q66.46562 156.22292 66.85625 156.89479Q67.2625 157.55104 68.075 157.55104Q68.87187 157.55104 69.2625 156.92604Q69.65312 156.30104 69.66875 154.97292L69.66875 153.19167Z" fill-rule="nonzero"/><path fill="#000000" d="M55.66875 102.54375L55.66875 103.45L55.465626 103.45Q54.2 103.48125 53.45 104.21562Q52.7 104.93437 52.575 106.24687Q53.2625 105.48125 54.41875 105.48125Q55.528126 105.48125 56.2 106.2625Q56.871876 107.04375 56.871876 108.29375Q56.871876 109.60625 56.153126 110.40312Q55.434376 111.2 54.215626 111.2Q52.996876 111.2 52.23125 110.2625Q51.48125 109.30937 51.48125 107.825L51.48125 107.41875Q51.48125 105.05937 52.48125 103.80937Q53.48125 102.55937 55.465626 102.54375L55.66875 102.54375ZM54.246876 106.3875Q53.684376 106.3875 53.215626 106.71562Q52.746876 107.04375 52.559376 107.55937L52.559376 107.95Q52.559376 109.0125 53.028126 109.65312Q53.5125 110.29375 54.215626 110.29375Q54.95 110.29375 55.371876 109.7625Q55.79375 109.21562 55.79375 108.34062Q55.79375 107.46562 55.371876 106.93437Q54.95 106.3875 54.246876 106.3875ZM63.7625 107.43437Q63.7625 109.34062 63.10625 110.27812Q62.465626 111.2 61.075 111.2Q59.715626 111.2 59.059376 110.29375Q58.403126 109.3875 58.371876 107.575L58.371876 106.1375Q58.371876 104.24687 59.0125 103.34062Q59.66875 102.41875 61.059376 102.41875Q62.434376 102.41875 63.090626 103.30937Q63.746876 104.18437 63.7625 106.02812L63.7625 107.43437ZM62.66875 105.95Q62.66875 104.575 62.278126 103.95Q61.903126 103.30937 61.059376 103.30937Q60.23125 103.30937 59.840626 103.95Q59.465626 104.575 59.465626 105.87187L59.465626 107.60625Q59.465626 108.98125 59.85625 109.65312Q60.2625 110.30937 61.075 110.30937Q61.871876 110.30937 62.2625 109.68437Q62.653126 109.05937 62.66875 107.73125L62.66875 105.95ZM70.7625 107.43437Q70.7625 109.34062 70.10625 110.27812Q69.46562 111.2 68.075 111.2Q66.71562 111.2 66.05937 110.29375Q65.40312 109.3875 65.37187 107.575L65.37187 106.1375Q65.37187 104.24687 66.0125 103.34062Q66.66875 102.41875 68.05937 102.41875Q69.43437 102.41875 70.09062 103.30937Q70.74687 104.18437 70.7625 106.02812L70.7625 107.43437ZM69.66875 105.95Q69.66875 104.575 69.27812 103.95Q68.90312 103.30937 68.05937 103.30937Q67.23125 103.30937 66.84062 103.95Q66.46562 104.575 66.46562 105.87187L66.46562 107.60625Q66.46562 108.98125 66.85625 109.65312Q67.2625 110.30937 68.075 110.30937Q68.87187 110.30937 69.2625 109.68437Q69.65312 109.05937 69.66875 107.73125L69.66875 105.95Z" fill-rule="nonzero"/><path fill="#000000" d="M56.590626 57.520832Q56.590626 58.161457 56.246876 58.661457Q55.903126 59.161457 55.340626 59.442707Q55.996876 59.723957 56.3875 60.286457Q56.778126 60.833332 56.778126 61.536457Q56.778126 62.630207 56.028126 63.302082Q55.29375 63.958332 54.075 63.958332Q52.840626 63.958332 52.090626 63.302082Q51.35625 62.630207 51.35625 61.536457Q51.35625 60.833332 51.73125 60.286457Q52.10625 59.723957 52.778126 59.442707Q52.215626 59.161457 51.8875 58.661457Q51.559376 58.161457 51.559376 57.520832Q51.559376 56.442707 52.246876 55.817707Q52.934376 55.177082 54.075 55.177082Q55.2 55.177082 55.8875 55.817707Q56.590626 56.442707 56.590626 57.520832ZM55.7 61.505207Q55.7 60.786457 55.246876 60.348957Q54.79375 59.895832 54.059376 59.895832Q53.325 59.895832 52.871876 60.348957Q52.434376 60.786457 52.434376 61.520832Q52.434376 62.239582 52.871876 62.661457Q53.309376 63.067707 54.075 63.067707Q54.825 63.067707 55.2625 62.645832Q55.7 62.223957 55.7 61.505207ZM54.075 56.067707Q53.434376 56.067707 53.028126 56.473957Q52.6375 56.864582 52.6375 57.552082Q52.6375 58.192707 53.028126 58.598957Q53.41875 59.005207 54.059376 59.005207Q54.715626 59.005207 55.10625 58.598957Q55.496876 58.192707 55.496876 57.552082Q55.496876 56.895832 55.090626 56.489582Q54.684376 56.067707 54.075 56.067707ZM63.7625 60.192707Q63.7625 62.098957 63.10625 63.036457Q62.465626 63.958332 61.075 63.958332Q59.715626 63.958332 59.059376 63.052082Q58.403126 62.145832 58.371876 60.333332L58.371876 58.895832Q58.371876 57.005207 59.0125 56.098957Q59.66875 55.177082 61.059376 55.177082Q62.434376 55.177082 63.090626 56.067707Q63.746876 56.942707 63.7625 58.786457L63.7625 60.192707ZM62.66875 58.708332Q62.66875 57.333332 62.278126 56.708332Q61.903126 56.067707 61.059376 56.067707Q60.23125 56.067707 59.840626 56.708332Q59.465626 57.333332 59.465626 58.630207L59.465626 60.364582Q59.465626 61.739582 59.85625 62.411457Q60.2625 63.067707 61.075 63.067707Q61.871876 63.067707 62.2625 62.442707Q62.653126 61.817707 62.66875 60.489582L62.66875 58.708332ZM70.7625 60.192707Q70.7625 62.098957 70.10625 63.036457Q69.46562 63.958332 68.075 63.958332Q66.71562 63.958332 66.05937 63.052082Q65.40312 62.145832 65.37187 60.333332L65.37187 58.895832Q65.37187 57.005207 66.0125 56.098957Q66.66875 55.177082 68.05937 55.177082Q69.43437 55.177082 70.09062 56.067707Q70.74687 56.942707 70.7625 58.786457L70.7625 60.192707ZM69.66875 58.708332Q69.66875 57.333332 69.27812 56.708332Q68.90312 56.067707 68.05937 56.067707Q67.23125 56.067707 66.84062 56.708332Q66.46562 57.333332 66.46562 58.630207L66.46562 60.364582Q66.46562 61.739582 66.85625 62.411457Q67.2625 63.067707 68.075 63.067707Q68.87187 63.067707 69.2625 62.442707Q69.65312 61.817707 69.66875 60.489582L69.66875 58.708332Z" fill-rule="nonzero"/><path fill="#000000" d="M118.65121 265.175Q118.21371 265.8 117.43246 266.1125Q116.65121 266.425 115.61996 266.425Q114.58871 266.425 113.77621 265.9406Q112.96371 265.4406 112.52621 264.53436Q112.08871 263.6281 112.07308 262.4406L112.07308 261.70624Q112.07308 259.76874 112.96371 258.70624Q113.86996 257.64374 115.49496 257.64374Q116.83871 257.64374 117.65121 258.33124Q118.46371 259.01874 118.65121 260.26874L117.52621 260.26874Q117.19808 258.58124 115.51058 258.58124Q114.36996 258.58124 113.79183 259.3781Q113.21371 260.15936 113.19808 261.675L113.19808 262.3625Q113.19808 263.8 113.85433 264.65936Q114.51058 265.5031 115.63558 265.5031Q116.26058 265.5031 116.72933 265.3625Q117.21371 265.22186 117.52621 264.8781L117.52621 262.97186L115.55746 262.97186L115.55746 262.05L118.65121 262.05L118.65121 265.175ZM119.88558 263.0656Q119.88558 262.14374 120.24496 261.39374Q120.61996 260.64374 121.27621 260.2531Q121.93246 259.84686 122.76058 259.84686Q124.05746 259.84686 124.85433 260.7375Q125.66683 261.6281 125.66683 263.1281L125.66683 263.20624Q125.66683 264.1281 125.30746 264.8625Q124.94808 265.59686 124.29183 266.01874Q123.63558 266.425 122.77621 266.425Q121.49496 266.425 120.68246 265.53436Q119.88558 264.6281 119.88558 263.14374L119.88558 263.0656ZM120.97933 263.20624Q120.97933 264.2531 121.46371 264.89374Q121.96371 265.53436 122.77621 265.53436Q123.60433 265.53436 124.08871 264.89374Q124.57308 264.2375 124.57308 263.0656Q124.57308 262.03436 124.07308 261.39374Q123.58871 260.7375 122.76058 260.7375Q121.96371 260.7375 121.46371 261.3781Q120.97933 262.0031 120.97933 263.20624ZM128.65121 258.425L128.65121 259.95624L129.82309 259.95624L129.82309 260.8L128.65121 260.8L128.65121 264.72186Q128.65121 265.1125 128.80746 265.3Q128.96371 265.4875 129.33871 265.4875Q129.52621 265.4875 129.85434 265.425L129.85434 266.3Q129.43246 266.425 129.02621 266.425Q128.30746 266.425 127.93246 265.9875Q127.55746 265.53436 127.55746 264.72186L127.55746 260.8L126.40121 260.8L126.40121 259.95624L127.55746 259.95624L127.55746 258.425L128.65121 258.425ZM139.79184 264.8L141.01059 259.95624L142.08871 259.95624L140.24496 266.3L139.36996 266.3L137.82309 261.4875L136.32309 266.3L135.44809 266.3L133.60434 259.95624L134.68246 259.95624L135.93246 264.70624L137.41684 259.95624L138.27621 259.95624L139.79184 264.8ZM142.88559 263.0656Q142.88559 262.14374 143.24496 261.39374Q143.61996 260.64374 144.27621 260.2531Q144.93246 259.84686 145.76059 259.84686Q147.05746 259.84686 147.85434 260.7375Q148.66684 261.6281 148.66684 263.1281L148.66684 263.20624Q148.66684 264.1281 148.30746 264.8625Q147.94809 265.59686 147.29184 266.01874Q146.63559 266.425 145.77621 266.425Q144.49496 266.425 143.68246 265.53436Q142.88559 264.6281 142.88559 263.14374L142.88559 263.0656ZM143.97934 263.20624Q143.97934 264.2531 144.46371 264.89374Q144.96371 265.53436 145.77621 265.53436Q146.60434 265.53436 147.08871 264.89374Q147.57309 264.2375 147.57309 263.0656Q147.57309 262.03436 147.07309 261.39374Q146.58871 260.7375 145.76059 260.7375Q144.96371 260.7375 144.46371 261.3781Q143.97934 262.0031 143.97934 263.20624ZM153.24496 260.925Q152.99496 260.89374 152.71371 260.89374Q151.63559 260.89374 151.26059 261.8L151.26059 266.3L150.18246 266.3L150.18246 259.95624L151.22934 259.95624L151.24496 260.6906Q151.77621 259.84686 152.76059 259.84686Q153.07309 259.84686 153.24496 259.925L153.24496 260.925ZM157.86996 264.6125Q157.86996 264.175 157.52621 263.9406Q157.19809 263.6906 156.36996 263.51874Q155.55746 263.34686 155.07309 263.09686Q154.58871 262.84686 154.35434 262.51874Q154.13559 262.175 154.13559 261.70624Q154.13559 260.925 154.79184 260.39374Q155.44809 259.84686 156.47934 259.84686Q157.55746 259.84686 158.21371 260.40936Q158.88559 260.95624 158.88559 261.8156L157.80746 261.8156Q157.80746 261.3781 157.41684 261.0656Q157.04184 260.7375 156.47934 260.7375Q155.88559 260.7375 155.54184 261.0031Q155.21371 261.2531 155.21371 261.65936Q155.21371 262.05 155.52621 262.2531Q155.83871 262.45624 156.65121 262.64374Q157.46371 262.8156 157.96371 263.0656Q158.46371 263.3156 158.69809 263.675Q158.94809 264.03436 158.94809 264.53436Q158.94809 265.39374 158.26059 265.90936Q157.58871 266.425 156.51059 266.425Q155.74496 266.425 155.15121 266.15936Q154.57309 265.8781 154.24496 265.39374Q153.91684 264.90936 153.91684 264.34686L154.99496 264.34686Q155.02621 264.89374 155.43246 265.22186Q155.83871 265.53436 156.51059 265.53436Q157.11996 265.53436 157.49496 265.28436Q157.86996 265.03436 157.86996 264.6125ZM162.80746 266.425Q161.51059 266.425 160.69809 265.58124Q159.90121 264.72186 159.90121 263.3L159.90121 263.1125Q159.90121 262.15936 160.26059 261.425Q160.61996 260.675 161.26059 260.26874Q161.91684 259.84686 162.66684 259.84686Q163.90121 259.84686 164.58871 260.65936Q165.27621 261.47186 165.27621 262.9875L165.27621 263.4406L160.97934 263.4406Q161.01059 264.3781 161.52621 264.95624Q162.05746 265.53436 162.86996 265.53436Q163.43246 265.53436 163.82309 265.3Q164.22934 265.0656 164.54184 264.675L165.19809 265.1906Q164.40121 266.425 162.80746 266.425ZM162.66684 260.7375Q162.01059 260.7375 161.55746 261.22186Q161.11996 261.6906 161.02621 262.55L164.19809 262.55L164.19809 262.47186Q164.15121 261.64374 163.74496 261.1906Q163.35434 260.7375 162.66684 260.7375Z" fill-rule="nonzero"/><path fill="#000000" d="M206.25948 266.3L205.13448 266.3L200.8376 259.72186L200.8376 266.3L199.69698 266.3L199.69698 257.76874L200.8376 257.76874L205.13448 264.3781L205.13448 257.76874L206.25948 257.76874L206.25948 266.3ZM208.24385 263.0656Q208.24385 262.14374 208.60323 261.39374Q208.97823 260.64374 209.63448 260.2531Q210.29073 259.84686 211.11885 259.84686Q212.41573 259.84686 213.2126 260.7375Q214.0251 261.6281 214.0251 263.1281L214.0251 263.20624Q214.0251 264.1281 213.66573 264.8625Q213.30635 265.59686 212.6501 266.01874Q211.99385 266.425 211.13448 266.425Q209.85323 266.425 209.04073 265.53436Q208.24385 264.6281 208.24385 263.14374L208.24385 263.0656ZM209.3376 263.20624Q209.3376 264.2531 209.82198 264.89374Q210.32198 265.53436 211.13448 265.53436Q211.9626 265.53436 212.44698 264.89374Q212.93135 264.2375 212.93135 263.0656Q212.93135 262.03436 212.43135 261.39374Q211.94698 260.7375 211.11885 260.7375Q210.32198 260.7375 209.82198 261.3781Q209.3376 262.0031 209.3376 263.20624ZM221.07198 265.53436Q221.6501 265.53436 222.0876 265.1906Q222.5251 264.83124 222.57198 264.3L223.60323 264.3Q223.57198 264.84686 223.2126 265.34686Q222.86885 265.83124 222.29073 266.1281Q221.72823 266.425 221.07198 266.425Q219.7751 266.425 219.00948 265.5656Q218.25948 264.6906 218.25948 263.1906L218.25948 263.0031Q218.25948 262.08124 218.5876 261.3625Q218.93135 260.64374 219.55635 260.2531Q220.19698 259.84686 221.07198 259.84686Q222.13448 259.84686 222.8376 260.4875Q223.55635 261.1125 223.60323 262.14374L222.57198 262.14374Q222.5251 261.51874 222.10323 261.1281Q221.68135 260.7375 221.07198 260.7375Q220.24385 260.7375 219.79073 261.33124Q219.3376 261.925 219.3376 263.05L219.3376 263.2531Q219.3376 264.34686 219.79073 264.9406Q220.24385 265.53436 221.07198 265.53436ZM225.61885 260.72186Q226.3376 259.84686 227.49385 259.84686Q229.50948 259.84686 229.5251 262.1125L229.5251 266.3L228.43135 266.3L228.43135 262.09686Q228.43135 261.425 228.11885 261.09686Q227.82198 260.76874 227.16573 260.76874Q226.63448 260.76874 226.22823 261.05Q225.8376 261.33124 225.61885 261.78436L225.61885 266.3L224.54073 266.3L224.54073 257.3L225.61885 257.3L225.61885 260.72186ZM235.44698 266.3Q235.35323 266.1125 235.29073 265.6281Q234.54073 266.425 233.49385 266.425Q232.55635 266.425 231.94698 265.89374Q231.35323 265.3625 231.35323 264.53436Q231.35323 263.55 232.10323 263.0031Q232.85323 262.45624 234.22823 262.45624L235.2751 262.45624L235.2751 261.95624Q235.2751 261.39374 234.93135 261.0656Q234.60323 260.72186 233.93135 260.72186Q233.35323 260.72186 232.9626 261.01874Q232.57198 261.3 232.57198 261.72186L231.47823 261.72186Q231.47823 261.2375 231.80635 260.8Q232.1501 260.3625 232.72823 260.1125Q233.30635 259.84686 233.99385 259.84686Q235.10323 259.84686 235.7126 260.39374Q236.3376 260.9406 236.36885 261.89374L236.36885 264.8156Q236.36885 265.6906 236.5876 266.20624L236.5876 266.3L235.44698 266.3ZM233.6501 265.47186Q234.16573 265.47186 234.61885 265.20624Q235.07198 264.9406 235.2751 264.51874L235.2751 263.22186L234.43135 263.22186Q232.43135 263.22186 232.43135 264.39374Q232.43135 264.89374 232.7751 265.1906Q233.11885 265.47186 233.6501 265.47186ZM239.55635 259.95624L239.5876 260.7531Q240.32198 259.84686 241.49385 259.84686Q243.50948 259.84686 243.5251 262.1125L243.5251 266.3L242.43135 266.3L242.43135 262.09686Q242.43135 261.425 242.11885 261.09686Q241.82198 260.76874 241.16573 260.76874Q240.63448 260.76874 240.22823 261.05Q239.8376 261.33124 239.61885 261.78436L239.61885 266.3L238.54073 266.3L238.54073 259.95624L239.55635 259.95624ZM245.2751 263.08124Q245.2751 261.59686 245.9626 260.72186Q246.6501 259.84686 247.7751 259.84686Q248.93135 259.84686 249.5876 260.65936L249.63448 259.95624L250.63448 259.95624L250.63448 266.14374Q250.63448 267.3781 249.9001 268.08124Q249.16573 268.8 247.94698 268.8Q247.25948 268.8 246.60323 268.5031Q245.94698 268.20624 245.60323 267.70624L246.16573 267.05Q246.85323 267.90936 247.86885 267.90936Q248.6501 267.90936 249.0876 267.45624Q249.54073 267.01874 249.54073 266.20624L249.54073 265.65936Q248.88448 266.425 247.75948 266.425Q246.6501 266.425 245.9626 265.53436Q245.2751 264.6281 245.2751 263.08124ZM246.36885 263.20624Q246.36885 264.26874 246.80635 264.89374Q247.24385 265.5031 248.04073 265.5031Q249.05635 265.5031 249.54073 264.5656L249.54073 261.675Q249.04073 260.76874 248.04073 260.76874Q247.25948 260.76874 246.80635 261.3781Q246.36885 261.9875 246.36885 263.20624ZM255.16573 266.425Q253.86885 266.425 253.05635 265.58124Q252.25948 264.72186 252.25948 263.3L252.25948 263.1125Q252.25948 262.15936 252.61885 261.425Q252.97823 260.675 253.61885 260.26874Q254.2751 259.84686 255.0251 259.84686Q256.25946 259.84686 256.94696 260.65936Q257.63446 261.47186 257.63446 262.9875L257.63446 263.4406L253.3376 263.4406Q253.36885 264.3781 253.88448 264.95624Q254.41573 265.53436 255.22823 265.53436Q255.79073 265.53436 256.18134 265.3Q256.5876 265.0656 256.9001 264.675L257.55634 265.1906Q256.75946 266.425 255.16573 266.425ZM255.0251 260.7375Q254.36885 260.7375 253.91573 261.22186Q253.47823 261.6906 253.38448 262.55L256.55634 262.55L256.55634 262.47186Q256.50946 261.64374 256.1032 261.1906Q255.7126 260.7375 255.0251 260.7375Z" fill-rule="nonzero"/><path fill="#000000" d="M306.07086 262.5031Q304.63336 262.08124 303.9615 261.47186Q303.30524 260.8625 303.30524 259.97186Q303.30524 258.97186 304.1021 258.3156Q304.9146 257.64374 306.2115 257.64374Q307.0865 257.64374 307.774 257.9875Q308.4615 258.33124 308.8365 258.925Q309.2271 259.51874 309.2271 260.2375L308.0865 260.2375Q308.0865 259.45624 307.5865 259.01874Q307.1021 258.58124 306.2115 258.58124Q305.38336 258.58124 304.9146 258.95624Q304.44586 259.3156 304.44586 259.95624Q304.44586 260.4875 304.88336 260.84686Q305.3365 261.20624 306.399 261.5031Q307.4615 261.8 308.05524 262.15936Q308.6646 262.51874 308.94586 263.0031Q309.24274 263.4875 309.24274 264.1281Q309.24274 265.175 308.43024 265.8Q307.61774 266.425 306.274 266.425Q305.38336 266.425 304.61774 266.08124Q303.86774 265.7375 303.44586 265.15936Q303.0396 264.5656 303.0396 263.83124L304.1646 263.83124Q304.1646 264.59686 304.74274 265.05Q305.32086 265.5031 306.274 265.5031Q307.1646 265.5031 307.63336 265.14374Q308.1021 264.76874 308.1021 264.14374Q308.1021 263.51874 307.6646 263.175Q307.2271 262.83124 306.07086 262.5031ZM311.57086 266.3L310.49274 266.3L310.49274 257.3L311.57086 257.3L311.57086 266.3ZM314.57086 266.3L313.49274 266.3L313.49274 259.95624L314.57086 259.95624L314.57086 266.3ZM313.399 258.28436Q313.399 258.01874 313.55524 257.83124Q313.7271 257.64374 314.0396 257.64374Q314.3521 257.64374 314.50836 257.83124Q314.68024 258.01874 314.68024 258.28436Q314.68024 258.53436 314.50836 258.72186Q314.3521 258.89374 314.0396 258.89374Q313.7271 258.89374 313.55524 258.72186Q313.399 258.53436 313.399 258.28436ZM316.13336 263.08124Q316.13336 261.59686 316.82086 260.72186Q317.50836 259.84686 318.63336 259.84686Q319.7896 259.84686 320.44586 260.65936L320.49274 259.95624L321.49274 259.95624L321.49274 266.14374Q321.49274 267.3781 320.75836 268.08124Q320.024 268.8 318.80524 268.8Q318.11774 268.8 317.4615 268.5031Q316.80524 268.20624 316.4615 267.70624L317.024 267.05Q317.7115 267.90936 318.7271 267.90936Q319.50836 267.90936 319.94586 267.45624Q320.399 267.01874 320.399 266.20624L320.399 265.65936Q319.74274 266.425 318.61774 266.425Q317.50836 266.425 316.82086 265.53436Q316.13336 264.6281 316.13336 263.08124ZM317.2271 263.20624Q317.2271 264.26874 317.6646 264.89374Q318.1021 265.5031 318.899 265.5031Q319.9146 265.5031 320.399 264.5656L320.399 261.675Q319.899 260.76874 318.899 260.76874Q318.11774 260.76874 317.6646 261.3781Q317.2271 261.9875 317.2271 263.20624ZM324.4771 260.72186Q325.19586 259.84686 326.3521 259.84686Q328.36774 259.84686 328.38336 262.1125L328.38336 266.3L327.2896 266.3L327.2896 262.09686Q327.2896 261.425 326.9771 261.09686Q326.68024 260.76874 326.024 260.76874Q325.49274 260.76874 325.0865 261.05Q324.69586 261.33124 324.4771 261.78436L324.4771 266.3L323.399 266.3L323.399 257.3L324.4771 257.3L324.4771 260.72186ZM331.86774 258.425L331.86774 259.95624L333.0396 259.95624L333.0396 260.8L331.86774 260.8L331.86774 264.72186Q331.86774 265.1125 332.024 265.3Q332.18024 265.4875 332.55524 265.4875Q332.74274 265.4875 333.07086 265.425L333.07086 266.3Q332.649 266.425 332.24274 266.425Q331.524 266.425 331.149 265.9875Q330.774 265.53436 330.774 264.72186L330.774 260.8L329.61774 260.8L329.61774 259.95624L330.774 259.95624L330.774 258.425L331.86774 258.425Z" fill-rule="nonzero"/><path fill="#000000" d="M284.07086 281.3L282.99274 281.3L282.99274 274.95624L284.07086 274.95624L284.07086 281.3ZM282.899 273.28436Q282.899 273.01874 283.05524 272.83124Q283.2271 272.64374 283.5396 272.64374Q283.8521 272.64374 284.00836 272.83124Q284.18024 273.01874 284.18024 273.28436Q284.18024 273.53436 284.00836 273.72186Q283.8521 273.89374 283.5396 273.89374Q283.2271 273.89374 283.05524 273.72186Q282.899 273.53436 282.899 273.28436ZM286.9146 274.95624L286.94586 275.65936Q287.63336 274.84686 288.82086 274.84686Q290.149 274.84686 290.63336 275.8625Q290.94586 275.40936 291.44586 275.1281Q291.9615 274.84686 292.649 274.84686Q294.74274 274.84686 294.774 277.05L294.774 281.3L293.69586 281.3L293.69586 277.1125Q293.69586 276.4406 293.38336 276.1125Q293.07086 275.76874 292.3365 275.76874Q291.7271 275.76874 291.32086 276.1281Q290.93024 276.4875 290.86774 277.09686L290.86774 281.3L289.7896 281.3L289.7896 277.14374Q289.7896 275.76874 288.43024 275.76874Q287.36774 275.76874 286.9771 276.675L286.9771 281.3L285.88336 281.3L285.88336 274.95624L286.9146 274.95624ZM302.24274 278.20624Q302.24274 279.64374 301.5865 280.53436Q300.93024 281.425 299.7896 281.425Q298.63336 281.425 297.9771 280.6906L297.9771 283.7375L296.899 283.7375L296.899 274.95624L297.88336 274.95624L297.93024 275.65936Q298.6021 274.84686 299.774 274.84686Q300.9146 274.84686 301.57086 275.70624Q302.24274 276.5656 302.24274 278.09686L302.24274 278.20624ZM301.1646 278.08124Q301.1646 277.0031 300.69586 276.39374Q300.24274 275.76874 299.44586 275.76874Q298.4615 275.76874 297.9771 276.6281L297.9771 279.65936Q298.4615 280.53436 299.4615 280.53436Q300.24274 280.53436 300.69586 279.925Q301.1646 279.3 301.1646 278.08124ZM306.9615 275.925Q306.7115 275.89374 306.43024 275.89374Q305.3521 275.89374 304.9771 276.8L304.9771 281.3L303.899 281.3L303.899 274.95624L304.94586 274.95624L304.9615 275.6906Q305.49274 274.84686 306.4771 274.84686Q306.7896 274.84686 306.9615 274.925L306.9615 275.925ZM307.6021 278.0656Q307.6021 277.14374 307.9615 276.39374Q308.3365 275.64374 308.99274 275.2531Q309.649 274.84686 310.4771 274.84686Q311.774 274.84686 312.57086 275.7375Q313.38336 276.6281 313.38336 278.1281L313.38336 278.20624Q313.38336 279.1281 313.024 279.8625Q312.6646 280.59686 312.00836 281.01874Q311.3521 281.425 310.49274 281.425Q309.2115 281.425 308.399 280.53436Q307.6021 279.6281 307.6021 278.14374L307.6021 278.0656ZM308.69586 278.20624Q308.69586 279.2531 309.18024 279.89374Q309.68024 280.53436 310.49274 280.53436Q311.32086 280.53436 311.80524 279.89374Q312.2896 279.2375 312.2896 278.0656Q312.2896 277.03436 311.7896 276.39374Q311.30524 275.7375 310.4771 275.7375Q309.68024 275.7375 309.18024 276.3781Q308.69586 277.0031 308.69586 278.20624ZM316.9771 279.83124L318.55524 274.95624L319.6646 274.95624L317.38336 281.3L316.55524 281.3L314.25836 274.95624L315.36774 274.95624L316.9771 279.83124ZM323.524 281.425Q322.2271 281.425 321.4146 280.58124Q320.61774 279.72186 320.61774 278.3L320.61774 278.1125Q320.61774 277.15936 320.9771 276.425Q321.3365 275.675 321.9771 275.26874Q322.63336 274.84686 323.38336 274.84686Q324.61774 274.84686 325.30524 275.65936Q325.99274 276.47186 325.99274 277.9875L325.99274 278.4406L321.69586 278.4406Q321.7271 279.3781 322.24274 279.95624Q322.774 280.53436 323.5865 280.53436Q324.149 280.53436 324.5396 280.3Q324.94586 280.0656 325.25836 279.675L325.9146 280.1906Q325.11774 281.425 323.524 281.425ZM323.38336 275.7375Q322.7271 275.7375 322.274 276.22186Q321.8365 276.6906 321.74274 277.55L324.9146 277.55L324.9146 277.47186Q324.86774 276.64374 324.4615 276.1906Q324.07086 275.7375 323.38336 275.7375ZM327.9146 274.95624L327.94586 275.65936Q328.63336 274.84686 329.82086 274.84686Q331.149 274.84686 331.63336 275.8625Q331.94586 275.40936 332.44586 275.1281Q332.9615 274.84686 333.649 274.84686Q335.74274 274.84686 335.774 277.05L335.774 281.3L334.69586 281.3L334.69586 277.1125Q334.69586 276.4406 334.38336 276.1125Q334.07086 275.76874 333.3365 275.76874Q332.7271 275.76874 332.32086 276.1281Q331.93024 276.4875 331.86774 277.09686L331.86774 281.3L330.7896 281.3L330.7896 277.14374Q330.7896 275.76874 329.43024 275.76874Q328.36774 275.76874 327.9771 276.675L327.9771 281.3L326.88336 281.3L326.88336 274.95624L327.9146 274.95624ZM340.524 281.425Q339.2271 281.425 338.4146 280.58124Q337.61774 279.72186 337.61774 278.3L337.61774 278.1125Q337.61774 277.15936 337.9771 276.425Q338.3365 275.675 338.9771 275.26874Q339.63336 274.84686 340.38336 274.84686Q341.61774 274.84686 342.30524 275.65936Q342.99274 276.47186 342.99274 277.9875L342.99274 278.4406L338.69586 278.4406Q338.7271 279.3781 339.24274 279.95624Q339.774 280.53436 340.5865 280.53436Q341.149 280.53436 341.5396 280.3Q341.94586 280.0656 342.25836 279.675L342.9146 280.1906Q342.11774 281.425 340.524 281.425ZM340.38336 275.7375Q339.7271 275.7375 339.274 276.22186Q338.8365 276.6906 338.74274 277.55L341.9146 277.55L341.9146 277.47186Q341.86774 276.64374 341.4615 276.1906Q341.07086 275.7375 340.38336 275.7375ZM344.9146 274.95624L344.94586 275.7531Q345.68024 274.84686 346.8521 274.84686Q348.86774 274.84686 348.88336 277.1125L348.88336 281.3L347.7896 281.3L347.7896 277.09686Q347.7896 276.425 347.4771 276.09686Q347.18024 275.76874 346.524 275.76874Q345.99274 275.76874 345.5865 276.05Q345.19586 276.33124 344.9771 276.78436L344.9771 281.3L343.899 281.3L343.899 274.95624L344.9146 274.95624ZM352.36774 273.425L352.36774 274.95624L353.5396 274.95624L353.5396 275.8L352.36774 275.8L352.36774 279.72186Q352.36774 280.1125 352.524 280.3Q352.68024 280.4875 353.05524 280.4875Q353.24274 280.4875 353.57086 280.425L353.57086 281.3Q353.149 281.425 352.74274 281.425Q352.024 281.425 351.649 280.9875Q351.274 280.53436 351.274 279.72186L351.274 275.8L350.11774 275.8L350.11774 274.95624L351.274 274.95624L351.274 273.425L352.36774 273.425Z" fill-rule="nonzero"/><path fill="#000000" d="M395.92914 262.5031Q394.49164 262.08124 393.81976 261.47186Q393.1635 260.8625 393.1635 259.97186Q393.1635 258.97186 393.9604 258.3156Q394.7729 257.64374 396.06976 257.64374Q396.94476 257.64374 397.63226 257.9875Q398.31976 258.33124 398.69476 258.925Q399.0854 259.51874 399.0854 260.2375L397.94476 260.2375Q397.94476 259.45624 397.44476 259.01874Q396.9604 258.58124 396.06976 258.58124Q395.24164 258.58124 394.7729 258.95624Q394.30414 259.3156 394.30414 259.95624Q394.30414 260.4875 394.74164 260.84686Q395.19476 261.20624 396.25726 261.5031Q397.31976 261.8 397.9135 262.15936Q398.5229 262.51874 398.80414 263.0031Q399.101 263.4875 399.101 264.1281Q399.101 265.175 398.2885 265.8Q397.476 266.425 396.13226 266.425Q395.24164 266.425 394.476 266.08124Q393.726 265.7375 393.30414 265.15936Q392.8979 264.5656 392.8979 263.83124L394.0229 263.83124Q394.0229 264.59686 394.601 265.05Q395.17914 265.5031 396.13226 265.5031Q397.0229 265.5031 397.49164 265.14374Q397.9604 264.76874 397.9604 264.14374Q397.9604 263.51874 397.5229 263.175Q397.0854 262.83124 395.92914 262.5031ZM399.9604 263.0656Q399.9604 262.14374 400.31976 261.39374Q400.69476 260.64374 401.351 260.2531Q402.00726 259.84686 402.8354 259.84686Q404.13226 259.84686 404.92914 260.7375Q405.74164 261.6281 405.74164 263.1281L405.74164 263.20624Q405.74164 264.1281 405.38226 264.8625Q405.0229 265.59686 404.36664 266.01874Q403.7104 266.425 402.851 266.425Q401.56976 266.425 400.75726 265.53436Q399.9604 264.6281 399.9604 263.14374L399.9604 263.0656ZM401.05414 263.20624Q401.05414 264.2531 401.5385 264.89374Q402.0385 265.53436 402.851 265.53436Q403.67914 265.53436 404.1635 264.89374Q404.6479 264.2375 404.6479 263.0656Q404.6479 262.03436 404.1479 261.39374Q403.6635 260.7375 402.8354 260.7375Q402.0385 260.7375 401.5385 261.3781Q401.05414 262.0031 401.05414 263.20624ZM408.2729 259.95624L408.30414 260.65936Q408.99164 259.84686 410.17914 259.84686Q411.50726 259.84686 411.99164 260.8625Q412.30414 260.40936 412.80414 260.1281Q413.31976 259.84686 414.00726 259.84686Q416.101 259.84686 416.13226 262.05L416.13226 266.3L415.05414 266.3L415.05414 262.1125Q415.05414 261.4406 414.74164 261.1125Q414.42914 260.76874 413.69476 260.76874Q413.0854 260.76874 412.67914 261.1281Q412.2885 261.4875 412.226 262.09686L412.226 266.3L411.1479 266.3L411.1479 262.14374Q411.1479 260.76874 409.7885 260.76874Q408.726 260.76874 408.3354 261.675L408.3354 266.3L407.24164 266.3L407.24164 259.95624L408.2729 259.95624ZM420.88226 266.425Q419.5854 266.425 418.7729 265.58124Q417.976 264.72186 417.976 263.3L417.976 263.1125Q417.976 262.15936 418.3354 261.425Q418.69476 260.675 419.3354 260.26874Q419.99164 259.84686 420.74164 259.84686Q421.976 259.84686 422.6635 260.65936Q423.351 261.47186 423.351 262.9875L423.351 263.4406L419.05414 263.4406Q419.0854 264.3781 419.601 264.95624Q420.13226 265.53436 420.94476 265.53436Q421.50726 265.53436 421.8979 265.3Q422.30414 265.0656 422.61664 264.675L423.2729 265.1906Q422.476 266.425 420.88226 266.425ZM420.74164 260.7375Q420.0854 260.7375 419.63226 261.22186Q419.19476 261.6906 419.101 262.55L422.2729 262.55L422.2729 262.47186Q422.226 261.64374 421.81976 261.1906Q421.42914 260.7375 420.74164 260.7375Z" fill-rule="nonzero"/><path fill="#000000" d="M373.92914 281.3L372.851 281.3L372.851 274.95624L373.92914 274.95624L373.92914 281.3ZM372.75726 273.28436Q372.75726 273.01874 372.9135 272.83124Q373.0854 272.64374 373.3979 272.64374Q373.7104 272.64374 373.86664 272.83124Q374.0385 273.01874 374.0385 273.28436Q374.0385 273.53436 373.86664 273.72186Q373.7104 273.89374 373.3979 273.89374Q373.0854 273.89374 372.9135 273.72186Q372.75726 273.53436 372.75726 273.28436ZM376.7729 274.95624L376.80414 275.65936Q377.49164 274.84686 378.67914 274.84686Q380.00726 274.84686 380.49164 275.8625Q380.80414 275.40936 381.30414 275.1281Q381.81976 274.84686 382.50726 274.84686Q384.601 274.84686 384.63226 277.05L384.63226 281.3L383.55414 281.3L383.55414 277.1125Q383.55414 276.4406 383.24164 276.1125Q382.92914 275.76874 382.19476 275.76874Q381.5854 275.76874 381.17914 276.1281Q380.7885 276.4875 380.726 277.09686L380.726 281.3L379.6479 281.3L379.6479 277.14374Q379.6479 275.76874 378.2885 275.76874Q377.226 275.76874 376.8354 276.675L376.8354 281.3L375.74164 281.3L375.74164 274.95624L376.7729 274.95624ZM392.101 278.20624Q392.101 279.64374 391.44476 280.53436Q390.7885 281.425 389.6479 281.425Q388.49164 281.425 387.8354 280.6906L387.8354 283.7375L386.75726 283.7375L386.75726 274.95624L387.74164 274.95624L387.7885 275.65936Q388.4604 274.84686 389.63226 274.84686Q390.7729 274.84686 391.42914 275.70624Q392.101 276.5656 392.101 278.09686L392.101 278.20624ZM391.0229 278.08124Q391.0229 277.0031 390.55414 276.39374Q390.101 275.76874 389.30414 275.76874Q388.31976 275.76874 387.8354 276.6281L387.8354 279.65936Q388.31976 280.53436 389.31976 280.53436Q390.101 280.53436 390.55414 279.925Q391.0229 279.3 391.0229 278.08124ZM396.81976 275.925Q396.56976 275.89374 396.2885 275.89374Q395.2104 275.89374 394.8354 276.8L394.8354 281.3L393.75726 281.3L393.75726 274.95624L394.80414 274.95624L394.81976 275.6906Q395.351 274.84686 396.3354 274.84686Q396.6479 274.84686 396.81976 274.925L396.81976 275.925ZM397.4604 278.0656Q397.4604 277.14374 397.81976 276.39374Q398.19476 275.64374 398.851 275.2531Q399.50726 274.84686 400.3354 274.84686Q401.63226 274.84686 402.42914 275.7375Q403.24164 276.6281 403.24164 278.1281L403.24164 278.20624Q403.24164 279.1281 402.88226 279.8625Q402.5229 280.59686 401.86664 281.01874Q401.2104 281.425 400.351 281.425Q399.06976 281.425 398.25726 280.53436Q397.4604 279.6281 397.4604 278.14374L397.4604 278.0656ZM398.55414 278.20624Q398.55414 279.2531 399.0385 279.89374Q399.5385 280.53436 400.351 280.53436Q401.17914 280.53436 401.6635 279.89374Q402.1479 279.2375 402.1479 278.0656Q402.1479 277.03436 401.6479 276.39374Q401.1635 275.7375 400.3354 275.7375Q399.5385 275.7375 399.0385 276.3781Q398.55414 277.0031 398.55414 278.20624ZM406.8354 279.83124L408.4135 274.95624L409.5229 274.95624L407.24164 281.3L406.4135 281.3L404.11664 274.95624L405.226 274.95624L406.8354 279.83124ZM413.38226 281.425Q412.0854 281.425 411.2729 280.58124Q410.476 279.72186 410.476 278.3L410.476 278.1125Q410.476 277.15936 410.8354 276.425Q411.19476 275.675 411.8354 275.26874Q412.49164 274.84686 413.24164 274.84686Q414.476 274.84686 415.1635 275.65936Q415.851 276.47186 415.851 277.9875L415.851 278.4406L411.55414 278.4406Q411.5854 279.3781 412.101 279.95624Q412.63226 280.53436 413.44476 280.53436Q414.00726 280.53436 414.3979 280.3Q414.80414 280.0656 415.11664 279.675L415.7729 280.1906Q414.976 281.425 413.38226 281.425ZM413.24164 275.7375Q412.5854 275.7375 412.13226 276.22186Q411.69476 276.6906 411.601 277.55L414.7729 277.55L414.7729 277.47186Q414.726 276.64374 414.31976 276.1906Q413.92914 275.7375 413.24164 275.7375ZM417.7729 274.95624L417.80414 275.65936Q418.49164 274.84686 419.67914 274.84686Q421.00726 274.84686 421.49164 275.8625Q421.80414 275.40936 422.30414 275.1281Q422.81976 274.84686 423.50726 274.84686Q425.601 274.84686 425.63226 277.05L425.63226 281.3L424.55414 281.3L424.55414 277.1125Q424.55414 276.4406 424.24164 276.1125Q423.92914 275.76874 423.19476 275.76874Q422.5854 275.76874 422.17914 276.1281Q421.7885 276.4875 421.726 277.09686L421.726 281.3L420.6479 281.3L420.6479 277.14374Q420.6479 275.76874 419.2885 275.76874Q418.226 275.76874 417.8354 276.675L417.8354 281.3L416.74164 281.3L416.74164 274.95624L417.7729 274.95624ZM430.38226 281.425Q429.0854 281.425 428.2729 280.58124Q427.476 279.72186 427.476 278.3L427.476 278.1125Q427.476 277.15936 427.8354 276.425Q428.19476 275.675 428.8354 275.26874Q429.49164 274.84686 430.24164 274.84686Q431.476 274.84686 432.1635 275.65936Q432.851 276.47186 432.851 277.9875L432.851 278.4406L428.55414 278.4406Q428.5854 279.3781 429.101 279.95624Q429.63226 280.53436 430.44476 280.53436Q431.00726 280.53436 431.3979 280.3Q431.80414 280.0656 432.11664 279.675L432.7729 280.1906Q431.976 281.425 430.38226 281.425ZM430.24164 275.7375Q429.5854 275.7375 429.13226 276.22186Q428.69476 276.6906 428.601 277.55L431.7729 277.55L431.7729 277.47186Q431.726 276.64374 431.31976 276.1906Q430.92914 275.7375 430.24164 275.7375ZM434.7729 274.95624L434.80414 275.7531Q435.5385 274.84686 436.7104 274.84686Q438.726 274.84686 438.74164 277.1125L438.74164 281.3L437.6479 281.3L437.6479 277.09686Q437.6479 276.425 437.3354 276.09686Q437.0385 275.76874 436.38226 275.76874Q435.851 275.76874 435.44476 276.05Q435.05414 276.33124 434.8354 276.78436L434.8354 281.3L433.75726 281.3L433.75726 274.95624L434.7729 274.95624ZM442.226 273.425L442.226 274.95624L443.3979 274.95624L443.3979 275.8L442.226 275.8L442.226 279.72186Q442.226 280.1125 442.38226 280.3Q442.5385 280.4875 442.9135 280.4875Q443.101 280.4875 443.42914 280.425L443.42914 281.3Q443.00726 281.425 442.601 281.425Q441.88226 281.425 441.50726 280.9875Q441.13226 280.53436 441.13226 279.72186L441.13226 275.8L439.976 275.8L439.976 274.95624L441.13226 274.95624L441.13226 273.425L442.226 273.425Z" fill-rule="nonzero"/><path fill="#000000" d="M483.99054 264.0656L480.4124 264.0656L479.61554 266.3L478.4593 266.3L481.7093 257.76874L482.69366 257.76874L485.9593 266.3L484.80304 266.3L483.99054 264.0656ZM480.75616 263.14374L483.6624 263.14374L482.2093 259.15936L480.75616 263.14374ZM491.2874 266.3L490.2093 266.3L490.2093 257.3L491.2874 257.3L491.2874 266.3ZM492.81866 263.0656Q492.81866 262.14374 493.17804 261.39374Q493.55304 260.64374 494.2093 260.2531Q494.86554 259.84686 495.69366 259.84686Q496.99054 259.84686 497.7874 260.7375Q498.5999 261.6281 498.5999 263.1281L498.5999 263.20624Q498.5999 264.1281 498.24054 264.8625Q497.88116 265.59686 497.2249 266.01874Q496.56866 266.425 495.7093 266.425Q494.42804 266.425 493.61554 265.53436Q492.81866 264.6281 492.81866 263.14374L492.81866 263.0656ZM493.9124 263.20624Q493.9124 264.2531 494.3968 264.89374Q494.8968 265.53436 495.7093 265.53436Q496.5374 265.53436 497.0218 264.89374Q497.50616 264.2375 497.50616 263.0656Q497.50616 262.03436 497.00616 261.39374Q496.5218 260.7375 495.69366 260.7375Q494.8968 260.7375 494.3968 261.3781Q493.9124 262.0031 493.9124 263.20624ZM501.5843 258.425L501.5843 259.95624L502.75616 259.95624L502.75616 260.8L501.5843 260.8L501.5843 264.72186Q501.5843 265.1125 501.74054 265.3Q501.8968 265.4875 502.2718 265.4875Q502.4593 265.4875 502.7874 265.425L502.7874 266.3Q502.36554 266.425 501.9593 266.425Q501.24054 266.425 500.86554 265.9875Q500.49054 265.53436 500.49054 264.72186L500.49054 260.8L499.3343 260.8L499.3343 259.95624L500.49054 259.95624L500.49054 258.425L501.5843 258.425ZM506.81866 263.0656Q506.81866 262.14374 507.17804 261.39374Q507.55304 260.64374 508.2093 260.2531Q508.86554 259.84686 509.69366 259.84686Q510.99054 259.84686 511.7874 260.7375Q512.5999 261.6281 512.5999 263.1281L512.5999 263.20624Q512.5999 264.1281 512.24054 264.8625Q511.88116 265.59686 511.2249 266.01874Q510.56866 266.425 509.7093 266.425Q508.42804 266.425 507.61554 265.53436Q506.81866 264.6281 506.81866 263.14374L506.81866 263.0656ZM507.9124 263.20624Q507.9124 264.2531 508.3968 264.89374Q508.8968 265.53436 509.7093 265.53436Q510.5374 265.53436 511.0218 264.89374Q511.50616 264.2375 511.50616 263.0656Q511.50616 262.03436 511.00616 261.39374Q510.5218 260.7375 509.69366 260.7375Q508.8968 260.7375 508.3968 261.3781Q507.9124 262.0031 507.9124 263.20624ZM514.6468 266.3L514.6468 260.8L513.6468 260.8L513.6468 259.95624L514.6468 259.95624L514.6468 259.3156Q514.6468 258.28436 515.17804 257.7375Q515.7249 257.175 516.7249 257.175Q517.0999 257.175 517.4749 257.26874L517.4124 258.15936Q517.13116 258.09686 516.8343 258.09686Q516.30304 258.09686 516.00616 258.40936Q515.7249 258.72186 515.7249 259.28436L515.7249 259.95624L517.0843 259.95624L517.0843 260.8L515.7249 260.8L515.7249 266.3L514.6468 266.3Z" fill-rule="nonzero"/><path fill="#000000" d="M463.7874 281.3L462.7093 281.3L462.7093 274.95624L463.7874 274.95624L463.7874 281.3ZM462.61554 273.28436Q462.61554 273.01874 462.7718 272.83124Q462.94366 272.64374 463.25616 272.64374Q463.56866 272.64374 463.7249 272.83124Q463.8968 273.01874 463.8968 273.28436Q463.8968 273.53436 463.7249 273.72186Q463.56866 273.89374 463.25616 273.89374Q462.94366 273.89374 462.7718 273.72186Q462.61554 273.53436 462.61554 273.28436ZM466.63116 274.95624L466.6624 275.65936Q467.3499 274.84686 468.5374 274.84686Q469.86554 274.84686 470.3499 275.8625Q470.6624 275.40936 471.1624 275.1281Q471.67804 274.84686 472.36554 274.84686Q474.4593 274.84686 474.49054 277.05L474.49054 281.3L473.4124 281.3L473.4124 277.1125Q473.4124 276.4406 473.0999 276.1125Q472.7874 275.76874 472.05304 275.76874Q471.44366 275.76874 471.0374 276.1281Q470.6468 276.4875 470.5843 277.09686L470.5843 281.3L469.50616 281.3L469.50616 277.14374Q469.50616 275.76874 468.1468 275.76874Q467.0843 275.76874 466.69366 276.675L466.69366 281.3L465.5999 281.3L465.5999 274.95624L466.63116 274.95624ZM481.9593 278.20624Q481.9593 279.64374 481.30304 280.53436Q480.6468 281.425 479.50616 281.425Q478.3499 281.425 477.69366 280.6906L477.69366 283.7375L476.61554 283.7375L476.61554 274.95624L477.5999 274.95624L477.6468 275.65936Q478.31866 274.84686 479.49054 274.84686Q480.63116 274.84686 481.2874 275.70624Q481.9593 276.5656 481.9593 278.09686L481.9593 278.20624ZM480.88116 278.08124Q480.88116 277.0031 480.4124 276.39374Q479.9593 275.76874 479.1624 275.76874Q478.17804 275.76874 477.69366 276.6281L477.69366 279.65936Q478.17804 280.53436 479.17804 280.53436Q479.9593 280.53436 480.4124 279.925Q480.88116 279.3 480.88116 278.08124ZM486.67804 275.925Q486.42804 275.89374 486.1468 275.89374Q485.06866 275.89374 484.69366 276.8L484.69366 281.3L483.61554 281.3L483.61554 274.95624L484.6624 274.95624L484.67804 275.6906Q485.2093 274.84686 486.19366 274.84686Q486.50616 274.84686 486.67804 274.925L486.67804 275.925ZM487.31866 278.0656Q487.31866 277.14374 487.67804 276.39374Q488.05304 275.64374 488.7093 275.2531Q489.36554 274.84686 490.19366 274.84686Q491.49054 274.84686 492.2874 275.7375Q493.0999 276.6281 493.0999 278.1281L493.0999 278.20624Q493.0999 279.1281 492.74054 279.8625Q492.38116 280.59686 491.7249 281.01874Q491.06866 281.425 490.2093 281.425Q488.92804 281.425 488.11554 280.53436Q487.31866 279.6281 487.31866 278.14374L487.31866 278.0656ZM488.4124 278.20624Q488.4124 279.2531 488.8968 279.89374Q489.3968 280.53436 490.2093 280.53436Q491.0374 280.53436 491.5218 279.89374Q492.00616 279.2375 492.00616 278.0656Q492.00616 277.03436 491.50616 276.39374Q491.0218 275.7375 490.19366 275.7375Q489.3968 275.7375 488.8968 276.3781Q488.4124 277.0031 488.4124 278.20624ZM496.69366 279.83124L498.2718 274.95624L499.38116 274.95624L497.0999 281.3L496.2718 281.3L493.9749 274.95624L495.0843 274.95624L496.69366 279.83124ZM503.24054 281.425Q501.94366 281.425 501.13116 280.58124Q500.3343 279.72186 500.3343 278.3L500.3343 278.1125Q500.3343 277.15936 500.69366 276.425Q501.05304 275.675 501.69366 275.26874Q502.3499 274.84686 503.0999 274.84686Q504.3343 274.84686 505.0218 275.65936Q505.7093 276.47186 505.7093 277.9875L505.7093 278.4406L501.4124 278.4406Q501.44366 279.3781 501.9593 279.95624Q502.49054 280.53436 503.30304 280.53436Q503.86554 280.53436 504.25616 280.3Q504.6624 280.0656 504.9749 279.675L505.63116 280.1906Q504.8343 281.425 503.24054 281.425ZM503.0999 275.7375Q502.44366 275.7375 501.99054 276.22186Q501.55304 276.6906 501.4593 277.55L504.63116 277.55L504.63116 277.47186Q504.5843 276.64374 504.17804 276.1906Q503.7874 275.7375 503.0999 275.7375ZM507.63116 274.95624L507.6624 275.65936Q508.3499 274.84686 509.5374 274.84686Q510.86554 274.84686 511.3499 275.8625Q511.6624 275.40936 512.1624 275.1281Q512.67804 274.84686 513.36554 274.84686Q515.4593 274.84686 515.49054 277.05L515.49054 281.3L514.4124 281.3L514.4124 277.1125Q514.4124 276.4406 514.0999 276.1125Q513.7874 275.76874 513.05304 275.76874Q512.44366 275.76874 512.0374 276.1281Q511.6468 276.4875 511.5843 277.09686L511.5843 281.3L510.50616 281.3L510.50616 277.14374Q510.50616 275.76874 509.1468 275.76874Q508.0843 275.76874 507.69366 276.675L507.69366 281.3L506.5999 281.3L506.5999 274.95624L507.63116 274.95624ZM520.24054 281.425Q518.94366 281.425 518.13116 280.58124Q517.3343 279.72186 517.3343 278.3L517.3343 278.1125Q517.3343 277.15936 517.69366 276.425Q518.05304 275.675 518.69366 275.26874Q519.3499 274.84686 520.0999 274.84686Q521.3343 274.84686 522.0218 275.65936Q522.7093 276.47186 522.7093 277.9875L522.7093 278.4406L518.4124 278.4406Q518.44366 279.3781 518.9593 279.95624Q519.49054 280.53436 520.30304 280.53436Q520.86554 280.53436 521.25616 280.3Q521.6624 280.0656 521.9749 279.675L522.63116 280.1906Q521.8343 281.425 520.24054 281.425ZM520.0999 275.7375Q519.44366 275.7375 518.99054 276.22186Q518.55304 276.6906 518.4593 277.55L521.63116 277.55L521.63116 277.47186Q521.5843 276.64374 521.17804 276.1906Q520.7874 275.7375 520.0999 275.7375ZM524.63116 274.95624L524.6624 275.7531Q525.3968 274.84686 526.56866 274.84686Q528.5843 274.84686 528.5999 277.1125L528.5999 281.3L527.50616 281.3L527.50616 277.09686Q527.50616 276.425 527.19366 276.09686Q526.8968 275.76874 526.24054 275.76874Q525.7093 275.76874 525.30304 276.05Q524.9124 276.33124 524.69366 276.78436L524.69366 281.3L523.61554 281.3L523.61554 274.95624L524.63116 274.95624ZM532.0843 273.425L532.0843 274.95624L533.25616 274.95624L533.25616 275.8L532.0843 275.8L532.0843 279.72186Q532.0843 280.1125 532.24054 280.3Q532.3968 280.4875 532.7718 280.4875Q532.9593 280.4875 533.2874 280.425L533.2874 281.3Q532.86554 281.425 532.4593 281.425Q531.74054 281.425 531.36554 280.9875Q530.99054 280.53436 530.99054 279.72186L530.99054 275.8L529.8343 275.8L529.8343 274.95624L530.99054 274.95624L530.99054 273.425L532.0843 273.425Z" fill-rule="nonzero"/><path fill="#000000" d="M557.3488 266.3L556.2238 266.3L556.2238 257.76874L557.3488 257.76874L557.3488 266.3ZM561.7082 263.08124Q561.7082 261.6125 562.3957 260.7375Q563.0832 259.84686 564.2082 259.84686Q565.31757 259.84686 565.9738 260.59686L565.9738 257.3L567.05194 257.3L567.05194 266.3L566.05194 266.3L566.00507 265.6125Q565.3488 266.425 564.19257 266.425Q563.0988 266.425 562.3957 265.51874Q561.7082 264.6125 561.7082 263.15936L561.7082 263.08124ZM562.7863 263.20624Q562.7863 264.28436 563.2238 264.89374Q563.67694 265.5031 564.4582 265.5031Q565.48944 265.5031 565.9738 264.5656L565.9738 261.65936Q565.48944 260.76874 564.4738 260.76874Q563.67694 260.76874 563.2238 261.3781Q562.7863 261.9875 562.7863 263.20624ZM568.67694 263.0656Q568.67694 262.14374 569.0363 261.39374Q569.4113 260.64374 570.06757 260.2531Q570.7238 259.84686 571.55194 259.84686Q572.8488 259.84686 573.6457 260.7375Q574.4582 261.6281 574.4582 263.1281L574.4582 263.20624Q574.4582 264.1281 574.0988 264.8625Q573.73944 265.59686 573.0832 266.01874Q572.42694 266.425 571.56757 266.425Q570.2863 266.425 569.4738 265.53436Q568.67694 264.6281 568.67694 263.14374L568.67694 263.0656ZM569.7707 263.20624Q569.7707 264.2531 570.25507 264.89374Q570.75507 265.53436 571.56757 265.53436Q572.3957 265.53436 572.88007 264.89374Q573.36444 264.2375 573.36444 263.0656Q573.36444 262.03436 572.86444 261.39374Q572.38007 260.7375 571.55194 260.7375Q570.75507 260.7375 570.25507 261.3781Q569.7707 262.0031 569.7707 263.20624ZM576.98944 259.95624L577.0207 260.7531Q577.75507 259.84686 578.92694 259.84686Q580.94257 259.84686 580.9582 262.1125L580.9582 266.3L579.86444 266.3L579.86444 262.09686Q579.86444 261.425 579.55194 261.09686Q579.25507 260.76874 578.5988 260.76874Q578.06757 260.76874 577.6613 261.05Q577.2707 261.33124 577.05194 261.78436L577.05194 266.3L575.9738 266.3L575.9738 259.95624L576.98944 259.95624ZM583.63007 257.95624L583.50507 260.1125L582.75507 260.1125L582.75507 257.3L583.63007 257.3L583.63007 257.95624ZM586.44257 258.425L586.44257 259.95624L587.61444 259.95624L587.61444 260.8L586.44257 260.8L586.44257 264.72186Q586.44257 265.1125 586.5988 265.3Q586.75507 265.4875 587.13007 265.4875Q587.31757 265.4875 587.6457 265.425L587.6457 266.3Q587.2238 266.425 586.81757 266.425Q586.0988 266.425 585.7238 265.9875Q585.3488 265.53436 585.3488 264.72186L585.3488 260.8L584.19257 260.8L584.19257 259.95624L585.3488 259.95624L585.3488 258.425L586.44257 258.425ZM593.73944 263.3625L593.05194 264.0656L593.05194 266.3L591.9738 266.3L591.9738 257.3L593.05194 257.3L593.05194 262.7375L593.63007 262.05L595.61444 259.95624L596.92694 259.95624L594.4582 262.6125L597.2238 266.3L595.94257 266.3L593.73944 263.3625ZM598.98944 259.95624L599.0207 260.7531Q599.75507 259.84686 600.92694 259.84686Q602.94257 259.84686 602.9582 262.1125L602.9582 266.3L601.86444 266.3L601.86444 262.09686Q601.86444 261.425 601.55194 261.09686Q601.25507 260.76874 600.5988 260.76874Q600.06757 260.76874 599.6613 261.05Q599.2707 261.33124 599.05194 261.78436L599.05194 266.3L597.9738 266.3L597.9738 259.95624L598.98944 259.95624ZM604.67694 263.0656Q604.67694 262.14374 605.0363 261.39374Q605.4113 260.64374 606.06757 260.2531Q606.7238 259.84686 607.55194 259.84686Q608.8488 259.84686 609.6457 260.7375Q610.4582 261.6281 610.4582 263.1281L610.4582 263.20624Q610.4582 264.1281 610.0988 264.8625Q609.73944 265.59686 609.0832 266.01874Q608.42694 266.425 607.56757 266.425Q606.2863 266.425 605.4738 265.53436Q604.67694 264.6281 604.67694 263.14374L604.67694 263.0656ZM605.7707 263.20624Q605.7707 264.2531 606.25507 264.89374Q606.75507 265.53436 607.56757 265.53436Q608.3957 265.53436 608.88007 264.89374Q609.36444 264.2375 609.36444 263.0656Q609.36444 262.03436 608.86444 261.39374Q608.38007 260.7375 607.55194 260.7375Q606.75507 260.7375 606.25507 261.3781Q605.7707 262.0031 605.7707 263.20624ZM617.5832 264.8L618.80194 259.95624L619.88007 259.95624L618.0363 266.3L617.1613 266.3L615.61444 261.4875L614.11444 266.3L613.23944 266.3L611.3957 259.95624L612.4738 259.95624L613.7238 264.70624L615.2082 259.95624L616.06757 259.95624L617.5832 264.8Z" fill-rule="nonzero"/><path fill="#757575" d="M29.278126 35.7L27.3875 35.7L27.3875 29.121876L20.23125 29.121876L20.23125 35.7L18.35625 35.7L18.35625 21.48125L20.23125 21.48125L20.23125 27.590626L27.3875 27.590626L27.3875 21.48125L29.278126 21.48125L29.278126 35.7ZM31.590626 30.325Q31.590626 28.7625 32.2 27.528126Q32.809376 26.278126 33.8875 25.60625Q34.98125 24.934376 36.3875 24.934376Q38.54375 24.934376 39.871876 26.434376Q41.215626 27.91875 41.215626 30.403126L41.215626 30.528126Q41.215626 32.075 40.621876 33.309376Q40.028126 34.528126 38.91875 35.215626Q37.825 35.903126 36.403126 35.903126Q34.2625 35.903126 32.91875 34.403126Q31.590626 32.903126 31.590626 30.45L31.590626 30.325ZM33.403126 30.528126Q33.403126 32.29375 34.215626 33.35625Q35.04375 34.41875 36.403126 34.41875Q37.778126 34.41875 38.590626 33.340626Q39.403126 32.2625 39.403126 30.325Q39.403126 28.575 38.575 27.496876Q37.746876 26.41875 36.3875 26.41875Q35.04375 26.41875 34.215626 27.48125Q33.403126 28.54375 33.403126 30.528126ZM52.41875 33.215626L54.45 25.1375L56.2625 25.1375L53.184376 35.7L51.715626 35.7L49.153126 27.684376L46.653126 35.7L45.184376 35.7L42.121876 25.1375L43.91875 25.1375L45.996876 33.04375L48.465626 25.1375L49.91875 25.1375L52.41875 33.215626ZM64.87187 26.41875Q66.075 24.934376 67.99687 24.934376Q71.35625 24.934376 71.37187 28.715626L71.37187 35.7L69.575 35.7L69.575 28.7Q69.55937 27.559376 69.04375 27.0125Q68.54375 26.465626 67.45 26.465626Q66.575 26.465626 65.90312 26.934376Q65.24687 27.403126 64.87187 28.16875L64.87187 35.7L63.075 35.7L63.075 20.7L64.87187 20.7L64.87187 26.41875ZM80.59062 35.7Q80.43437 35.3875 80.34062 34.590626Q79.075 35.903126 77.325 35.903126Q75.7625 35.903126 74.7625 35.0125Q73.7625 34.121876 73.7625 32.7625Q73.7625 31.121876 75.0125 30.215626Q76.27812 29.29375 78.54375 29.29375L80.30937 29.29375L80.30937 28.465626Q80.30937 27.5125 79.73125 26.95Q79.16875 26.3875 78.075 26.3875Q77.10625 26.3875 76.45 26.8875Q75.79375 27.371876 75.79375 28.059376L73.98125 28.059376Q73.98125 27.278126 74.54375 26.54375Q75.10625 25.79375 76.05937 25.371876Q77.02812 24.934376 78.18437 24.934376Q80.0125 24.934376 81.04375 25.85625Q82.075 26.7625 82.12187 28.371876L82.12187 33.23125Q82.12187 34.684376 82.48125 35.54375L82.48125 35.7L80.59062 35.7ZM77.59062 34.325Q78.45 34.325 79.2 33.8875Q79.96562 33.45 80.30937 32.746876L80.30937 30.575L78.8875 30.575Q75.575 30.575 75.575 32.5125Q75.575 33.371876 76.1375 33.85625Q76.7 34.325 77.59062 34.325ZM91.21562 32.903126Q91.21562 32.16875 90.66875 31.7625Q90.12187 31.35625 88.74687 31.059376Q87.37187 30.7625 86.55937 30.35625Q85.7625 29.95 85.37187 29.3875Q84.99687 28.809376 84.99687 28.028126Q84.99687 26.73125 86.09062 25.840626Q87.18437 24.934376 88.90312 24.934376Q90.7 24.934376 91.80937 25.871876Q92.93437 26.79375 92.93437 28.23125L91.10625 28.23125Q91.10625 27.496876 90.48125 26.965626Q89.85625 26.41875 88.90312 26.41875Q87.90312 26.41875 87.34062 26.85625Q86.79375 27.278126 86.79375 27.98125Q86.79375 28.621876 87.30937 28.965626Q87.825 29.29375 89.18437 29.60625Q90.54375 29.903126 91.37187 30.325Q92.21562 30.73125 92.62187 31.325Q93.02812 31.91875 93.02812 32.7625Q93.02812 34.184376 91.8875 35.04375Q90.7625 35.903126 88.95 35.903126Q87.68437 35.903126 86.7 35.45Q85.73125 34.996876 85.16875 34.2Q84.62187 33.3875 84.62187 32.45L86.43437 32.45Q86.48125 33.35625 87.15312 33.8875Q87.84062 34.41875 88.95 34.41875Q89.98125 34.41875 90.59062 34.0125Q91.21562 33.590626 91.21562 32.903126ZM102.5125 22.575L102.5125 25.1375L104.49687 25.1375L104.49687 26.528126L102.5125 26.528126L102.5125 33.075Q102.5125 33.715626 102.77812 34.04375Q103.04375 34.35625 103.68437 34.35625Q103.99687 34.35625 104.54375 34.23125L104.54375 35.7Q103.825 35.903126 103.15312 35.903126Q101.95 35.903126 101.325 35.16875Q100.71562 34.434376 100.71562 33.075L100.71562 26.528126L98.79375 26.528126L98.79375 25.1375L100.71562 25.1375L100.71562 22.575L102.5125 22.575ZM108.87187 26.41875Q110.075 24.934376 111.99687 24.934376Q115.35625 24.934376 115.37187 28.715626L115.37187 35.7L113.575 35.7L113.575 28.7Q113.55937 27.559376 113.04375 27.0125Q112.54375 26.465626 111.45 26.465626Q110.575 26.465626 109.90312 26.934376Q109.24687 27.403126 108.87187 28.16875L108.87187 35.7L107.075 35.7L107.075 20.7L108.87187 20.7L108.87187 26.41875ZM122.45 35.903126Q120.30937 35.903126 118.95 34.496876Q117.60625 33.075 117.60625 30.715626L117.60625 30.371876Q117.60625 28.809376 118.2 27.575Q118.80937 26.340626 119.8875 25.6375Q120.96562 24.934376 122.23125 24.934376Q124.29375 24.934376 125.43437 26.29375Q126.575 27.653126 126.575 30.184376L126.575 30.934376L119.41875 30.934376Q119.45 32.496876 120.325 33.465626Q121.2 34.41875 122.54375 34.41875Q123.5125 34.41875 124.16875 34.028126Q124.84062 33.6375 125.34062 32.996876L126.43437 33.85625Q125.10625 35.903126 122.45 35.903126ZM122.23125 26.41875Q121.1375 26.41875 120.3875 27.215626Q119.65312 28.0125 119.48125 29.45L124.7625 29.45L124.7625 29.309376Q124.68437 27.934376 124.0125 27.184376Q123.35625 26.41875 122.23125 26.41875ZM135.40312 22.028126L135.10625 25.528126L134.02812 25.528126L134.04375 20.7L135.40312 20.7L135.40312 22.028126ZM138.04375 22.028126L137.74687 25.528126L136.66875 25.528126L136.66875 20.7L138.04375 20.7L138.04375 22.028126ZM142.23125 34.16875L148.98125 34.16875L148.98125 35.7L140.35625 35.7L140.35625 21.48125L142.23125 21.48125L142.23125 34.16875ZM155.45 35.903126Q153.30937 35.903126 151.95 34.496876Q150.60625 33.075 150.60625 30.715626L150.60625 30.371876Q150.60625 28.809376 151.2 27.575Q151.80937 26.340626 152.8875 25.6375Q153.96562 24.934376 155.23125 24.934376Q157.29375 24.934376 158.43437 26.29375Q159.575 27.653126 159.575 30.184376L159.575 30.934376L152.41875 30.934376Q152.45 32.496876 153.325 33.465626Q154.2 34.41875 155.54375 34.41875Q156.5125 34.41875 157.16875 34.028126Q157.84062 33.6375 158.34062 32.996876L159.43437 33.85625Q158.10625 35.903126 155.45 35.903126ZM155.23125 26.41875Q154.1375 26.41875 153.3875 27.215626Q152.65312 28.0125 152.48125 29.45L157.7625 29.45L157.7625 29.309376Q157.68437 27.934376 157.0125 27.184376Q156.35625 26.41875 155.23125 26.41875ZM168.59062 35.7Q168.43437 35.3875 168.34062 34.590626Q167.075 35.903126 165.325 35.903126Q163.7625 35.903126 162.7625 35.0125Q161.7625 34.121876 161.7625 32.7625Q161.7625 31.121876 163.0125 30.215626Q164.27812 29.29375 166.54375 29.29375L168.30937 29.29375L168.30937 28.465626Q168.30937 27.5125 167.73125 26.95Q167.16875 26.3875 166.075 26.3875Q165.10625 26.3875 164.45 26.8875Q163.79375 27.371876 163.79375 28.059376L161.98125 28.059376Q161.98125 27.278126 162.54375 26.54375Q163.10625 25.79375 164.05937 25.371876Q165.02812 24.934376 166.18437 24.934376Q168.0125 24.934376 169.04375 25.85625Q170.075 26.7625 170.12187 28.371876L170.12187 33.23125Q170.12187 34.684376 170.48125 35.54375L170.48125 35.7L168.59062 35.7ZM165.59062 34.325Q166.45 34.325 167.2 33.8875Q167.96562 33.45 168.30937 32.746876L168.30937 30.575L166.8875 30.575Q163.575 30.575 163.575 32.5125Q163.575 33.371876 164.1375 33.85625Q164.7 34.325 165.59062 34.325ZM178.16875 26.746876Q177.7625 26.684376 177.29375 26.684376Q175.5125 26.684376 174.87187 28.2L174.87187 35.7L173.075 35.7L173.075 25.1375L174.825 25.1375L174.85625 26.35625Q175.74687 24.934376 177.37187 24.934376Q177.90312 24.934376 178.16875 25.075L178.16875 26.746876ZM181.77812 25.1375L181.84062 26.465626Q183.04375 24.934376 184.99687 24.934376Q188.35625 24.934376 188.37187 28.715626L188.37187 35.7L186.575 35.7L186.575 28.7Q186.55937 27.559376 186.04375 27.0125Q185.54375 26.465626 184.45 26.465626Q183.575 26.465626 182.90312 26.934376Q182.24687 27.403126 181.87187 28.16875L181.87187 35.7L180.075 35.7L180.075 25.1375L181.77812 25.1375ZM193.02812 35.7L191.23125 35.7L191.23125 25.1375L193.02812 25.1375L193.02812 35.7ZM191.075 22.325Q191.075 21.8875 191.34062 21.590626Q191.62187 21.278126 192.1375 21.278126Q192.66875 21.278126 192.93437 21.590626Q193.21562 21.8875 193.21562 22.325Q193.21562 22.7625 192.93437 23.059376Q192.66875 23.35625 192.1375 23.35625Q191.62187 23.35625 191.34062 23.059376Q191.075 22.7625 191.075 22.325ZM197.77812 25.1375L197.84062 26.465626Q199.04375 24.934376 200.99687 24.934376Q204.35625 24.934376 204.37187 28.715626L204.37187 35.7L202.575 35.7L202.575 28.7Q202.55937 27.559376 202.04375 27.0125Q201.54375 26.465626 200.45 26.465626Q199.575 26.465626 198.90312 26.934376Q198.24687 27.403126 197.87187 28.16875L197.87187 35.7L196.075 35.7L196.075 25.1375L197.77812 25.1375ZM206.6375 30.325Q206.6375 27.85625 207.77812 26.403126Q208.91875 24.934376 210.80937 24.934376Q212.74687 24.934376 213.825 26.309376L213.91875 25.1375L215.55937 25.1375L215.55937 35.45Q215.55937 37.496876 214.34062 38.66875Q213.1375 39.85625 211.075 39.85625Q209.93437 39.85625 208.84062 39.371876Q207.74687 38.8875 207.16875 38.028126L208.10625 36.95Q209.27812 38.3875 210.95 38.3875Q212.27812 38.3875 213.0125 37.6375Q213.74687 36.903126 213.74687 35.559376L213.74687 34.6375Q212.66875 35.903126 210.79375 35.903126Q208.93437 35.903126 207.77812 34.403126Q206.6375 32.903126 206.6375 30.325ZM208.45 30.528126Q208.45 32.325 209.18437 33.340626Q209.91875 34.35625 211.23125 34.35625Q212.95 34.35625 213.74687 32.809376L213.74687 27.98125Q212.91875 26.465626 211.2625 26.465626Q209.93437 26.465626 209.18437 27.496876Q208.45 28.528126 208.45 30.528126ZM233.80937 31.184376Q233.54375 33.45 232.1375 34.684376Q230.74687 35.903126 228.41875 35.903126Q225.90312 35.903126 224.37187 34.090626Q222.85625 32.278126 222.85625 29.246876L222.85625 27.8875Q222.85625 25.903126 223.55937 24.403126Q224.27812 22.903126 225.575 22.090626Q226.87187 21.278126 228.59062 21.278126Q230.85625 21.278126 232.21562 22.54375Q233.59062 23.809376 233.80937 26.04375L231.91875 26.04375Q231.68437 24.35625 230.85625 23.590626Q230.04375 22.825 228.59062 22.825Q226.79375 22.825 225.7625 24.153126Q224.74687 25.48125 224.74687 27.934376L224.74687 29.309376Q224.74687 31.621876 225.71562 32.996876Q226.68437 34.35625 228.41875 34.35625Q229.98125 34.35625 230.80937 33.653126Q231.65312 32.95 231.91875 31.184376L233.80937 31.184376ZM242.59062 34.653126Q241.54375 35.903126 239.49687 35.903126Q237.80937 35.903126 236.91875 34.91875Q236.04375 33.934376 236.02812 32.0125L236.02812 25.1375L237.84062 25.1375L237.84062 31.965626Q237.84062 34.35625 239.79375 34.35625Q241.85625 34.35625 242.54375 32.825L242.54375 25.1375L244.35625 25.1375L244.35625 35.7L242.6375 35.7L242.59062 34.653126ZM252.16875 26.746876Q251.7625 26.684376 251.29375 26.684376Q249.5125 26.684376 248.87187 28.2L248.87187 35.7L247.075 35.7L247.075 25.1375L248.825 25.1375L248.85625 26.35625Q249.74687 24.934376 251.37187 24.934376Q251.90312 24.934376 252.16875 25.075L252.16875 26.746876ZM257.5594 33.246876L260.16876 25.1375L262.0125 25.1375L258.23126 35.7L256.85626 35.7L253.02812 25.1375L254.87187 25.1375L257.5594 33.246876ZM268.45 35.903126Q266.3094 35.903126 264.95 34.496876Q263.60626 33.075 263.60626 30.715626L263.60626 30.371876Q263.60626 28.809376 264.2 27.575Q264.8094 26.340626 265.8875 25.6375Q266.96564 24.934376 268.23126 24.934376Q270.29376 24.934376 271.4344 26.29375Q272.575 27.653126 272.575 30.184376L272.575 30.934376L265.41876 30.934376Q265.45 32.496876 266.325 33.465626Q267.2 34.41875 268.54376 34.41875Q269.5125 34.41875 270.16876 34.028126Q270.84064 33.6375 271.34064 32.996876L272.4344 33.85625Q271.10626 35.903126 268.45 35.903126ZM268.23126 26.41875Q267.1375 26.41875 266.3875 27.215626Q265.65314 28.0125 265.48126 29.45L270.7625 29.45L270.7625 29.309376Q270.6844 27.934376 270.0125 27.184376Q269.35626 26.41875 268.23126 26.41875ZM276.40314 22.028126L276.10626 25.528126L275.02814 25.528126L275.04376 20.7L276.40314 20.7L276.40314 22.028126ZM279.04376 22.028126L278.7469 25.528126L277.66876 25.528126L277.66876 20.7L279.04376 20.7L279.04376 22.028126ZM288.02814 35.7L286.23126 35.7L286.23126 25.1375L288.02814 25.1375L288.02814 35.7ZM286.075 22.325Q286.075 21.8875 286.34064 21.590626Q286.6219 21.278126 287.1375 21.278126Q287.66876 21.278126 287.9344 21.590626Q288.21564 21.8875 288.21564 22.325Q288.21564 22.7625 287.9344 23.059376Q287.66876 23.35625 287.1375 23.35625Q286.6219 23.35625 286.34064 23.059376Q286.075 22.7625 286.075 22.325ZM292.7625 25.1375L292.8094 26.309376Q293.98126 24.934376 295.95 24.934376Q298.16876 24.934376 298.96564 26.6375Q299.4969 25.871876 300.34064 25.403126Q301.1844 24.934376 302.34064 24.934376Q305.8094 24.934376 305.8719 28.621876L305.8719 35.7L304.0594 35.7L304.0594 28.73125Q304.0594 27.590626 303.54376 27.028126Q303.02814 26.465626 301.8094 26.465626Q300.8094 26.465626 300.1375 27.075Q299.48126 27.66875 299.3719 28.684376L299.3719 35.7L297.5594 35.7L297.5594 28.778126Q297.5594 26.465626 295.29376 26.465626Q293.5125 26.465626 292.8719 27.98125L292.8719 35.7L291.0594 35.7L291.0594 25.1375L292.7625 25.1375ZM317.9969 30.528126Q317.9969 32.95 316.8875 34.434376Q315.79376 35.903126 313.90314 35.903126Q311.98126 35.903126 310.8719 34.66875L310.8719 39.7625L309.075 39.7625L309.075 25.1375L310.71564 25.1375L310.8094 26.309376Q311.90314 24.934376 313.8719 24.934376Q315.77814 24.934376 316.8875 26.371876Q317.9969 27.809376 317.9969 30.371876L317.9969 30.528126ZM316.1844 30.325Q316.1844 28.54375 315.41876 27.5125Q314.66876 26.465626 313.34064 26.465626Q311.7 26.465626 310.8719 27.91875L310.8719 32.98125Q311.6844 34.41875 313.35626 34.41875Q314.65314 34.41875 315.41876 33.3875Q316.1844 32.35625 316.1844 30.325ZM325.16876 26.746876Q324.7625 26.684376 324.29376 26.684376Q322.5125 26.684376 321.8719 28.2L321.8719 35.7L320.075 35.7L320.075 25.1375L321.825 25.1375L321.85626 26.35625Q322.7469 24.934376 324.3719 24.934376Q324.90314 24.934376 325.16876 25.075L325.16876 26.746876ZM326.59064 30.325Q326.59064 28.7625 327.2 27.528126Q327.8094 26.278126 328.8875 25.60625Q329.98126 24.934376 331.3875 24.934376Q333.54376 24.934376 334.8719 26.434376Q336.21564 27.91875 336.21564 30.403126L336.21564 30.528126Q336.21564 32.075 335.6219 33.309376Q335.02814 34.528126 333.91876 35.215626Q332.825 35.903126 331.40314 35.903126Q329.2625 35.903126 327.91876 34.403126Q326.59064 32.903126 326.59064 30.45L326.59064 30.325ZM328.40314 30.528126Q328.40314 32.29375 329.21564 33.35625Q330.04376 34.41875 331.40314 34.41875Q332.77814 34.41875 333.59064 33.340626Q334.40314 32.2625 334.40314 30.325Q334.40314 28.575 333.575 27.496876Q332.7469 26.41875 331.3875 26.41875Q330.04376 26.41875 329.21564 27.48125Q328.40314 28.54375 328.40314 30.528126ZM341.5594 33.246876L344.16876 25.1375L346.0125 25.1375L342.23126 35.7L340.85626 35.7L337.02814 25.1375L338.8719 25.1375L341.5594 33.246876ZM352.45 35.903126Q350.3094 35.903126 348.95 34.496876Q347.60626 33.075 347.60626 30.715626L347.60626 30.371876Q347.60626 28.809376 348.2 27.575Q348.8094 26.340626 349.8875 25.6375Q350.96564 24.934376 352.23126 24.934376Q354.29376 24.934376 355.4344 26.29375Q356.575 27.653126 356.575 30.184376L356.575 30.934376L349.41876 30.934376Q349.45 32.496876 350.325 33.465626Q351.2 34.41875 352.54376 34.41875Q353.5125 34.41875 354.16876 34.028126Q354.84064 33.6375 355.34064 32.996876L356.4344 33.85625Q355.10626 35.903126 352.45 35.903126ZM352.23126 26.41875Q351.1375 26.41875 350.3875 27.215626Q349.65314 28.0125 349.48126 29.45L354.7625 29.45L354.7625 29.309376Q354.6844 27.934376 354.0125 27.184376Q353.35626 26.41875 352.23126 26.41875ZM358.6219 30.325Q358.6219 27.903126 359.77814 26.41875Q360.9344 24.934376 362.79376 24.934376Q364.65314 24.934376 365.73126 26.2L365.73126 20.7L367.54376 20.7L367.54376 35.7L365.8875 35.7L365.79376 34.559376Q364.71564 35.903126 362.77814 35.903126Q360.95 35.903126 359.77814 34.403126Q358.6219 32.8875 358.6219 30.465626L358.6219 30.325ZM360.4344 30.528126Q360.4344 32.325 361.16876 33.340626Q361.91876 34.35625 363.23126 34.35625Q364.95 34.35625 365.73126 32.825L365.73126 27.965626Q364.9344 26.465626 363.2469 26.465626Q361.91876 26.465626 361.16876 27.496876Q360.4344 28.528126 360.4344 30.528126ZM377.02814 35.7L375.23126 35.7L375.23126 25.1375L377.02814 25.1375L377.02814 35.7ZM375.075 22.325Q375.075 21.8875 375.34064 21.590626Q375.6219 21.278126 376.1375 21.278126Q376.66876 21.278126 376.9344 21.590626Q377.21564 21.8875 377.21564 22.325Q377.21564 22.7625 376.9344 23.059376Q376.66876 23.35625 376.1375 23.35625Q375.6219 23.35625 375.34064 23.059376Q375.075 22.7625 375.075 22.325ZM381.77814 25.1375L381.84064 26.465626Q383.04376 24.934376 384.9969 24.934376Q388.35626 24.934376 388.3719 28.715626L388.3719 35.7L386.575 35.7L386.575 28.7Q386.5594 27.559376 386.04376 27.0125Q385.54376 26.465626 384.45 26.465626Q383.575 26.465626 382.90314 26.934376Q382.2469 27.403126 381.8719 28.16875L381.8719 35.7L380.075 35.7L380.075 25.1375L381.77814 25.1375ZM398.5125 22.575L398.5125 25.1375L400.4969 25.1375L400.4969 26.528126L398.5125 26.528126L398.5125 33.075Q398.5125 33.715626 398.77814 34.04375Q399.04376 34.35625 399.6844 34.35625Q399.9969 34.35625 400.54376 34.23125L400.54376 35.7Q399.825 35.903126 399.15314 35.903126Q397.95 35.903126 397.325 35.16875Q396.71564 34.434376 396.71564 33.075L396.71564 26.528126L394.79376 26.528126L394.79376 25.1375L396.71564 25.1375L396.71564 22.575L398.5125 22.575ZM404.8719 26.41875Q406.075 24.934376 407.9969 24.934376Q411.35626 24.934376 411.3719 28.715626L411.3719 35.7L409.575 35.7L409.575 28.7Q409.5594 27.559376 409.04376 27.0125Q408.54376 26.465626 407.45 26.465626Q406.575 26.465626 405.90314 26.934376Q405.2469 27.403126 404.8719 28.16875L404.8719 35.7L403.075 35.7L403.075 20.7L404.8719 20.7L404.8719 26.41875ZM418.45 35.903126Q416.3094 35.903126 414.95 34.496876Q413.60626 33.075 413.60626 30.715626L413.60626 30.371876Q413.60626 28.809376 414.2 27.575Q414.8094 26.340626 415.8875 25.6375Q416.96564 24.934376 418.23126 24.934376Q420.29376 24.934376 421.4344 26.29375Q422.575 27.653126 422.575 30.184376L422.575 30.934376L415.41876 30.934376Q415.45 32.496876 416.325 33.465626Q417.2 34.41875 418.54376 34.41875Q419.5125 34.41875 420.16876 34.028126Q420.84064 33.6375 421.34064 32.996876L422.4344 33.85625Q421.10626 35.903126 418.45 35.903126ZM418.23126 26.41875Q417.1375 26.41875 416.3875 27.215626Q415.65314 28.0125 415.48126 29.45L420.7625 29.45L420.7625 29.309376Q420.6844 27.934376 420.0125 27.184376Q419.35626 26.41875 418.23126 26.41875ZM432.02814 35.7L430.23126 35.7L430.23126 20.7L432.02814 20.7L432.02814 35.7ZM441.59064 35.7Q441.4344 35.3875 441.34064 34.590626Q440.075 35.903126 438.325 35.903126Q436.7625 35.903126 435.7625 35.0125Q434.7625 34.121876 434.7625 32.7625Q434.7625 31.121876 436.0125 30.215626Q437.27814 29.29375 439.54376 29.29375L441.3094 29.29375L441.3094 28.465626Q441.3094 27.5125 440.73126 26.95Q440.16876 26.3875 439.075 26.3875Q438.10626 26.3875 437.45 26.8875Q436.79376 27.371876 436.79376 28.059376L434.98126 28.059376Q434.98126 27.278126 435.54376 26.54375Q436.10626 25.79375 437.0594 25.371876Q438.02814 24.934376 439.1844 24.934376Q441.0125 24.934376 442.04376 25.85625Q443.075 26.7625 443.1219 28.371876L443.1219 33.23125Q443.1219 34.684376 443.48126 35.54375L443.48126 35.7L441.59064 35.7ZM438.59064 34.325Q439.45 34.325 440.2 33.8875Q440.96564 33.45 441.3094 32.746876L441.3094 30.575L439.8875 30.575Q436.575 30.575 436.575 32.5125Q436.575 33.371876 437.1375 33.85625Q437.7 34.325 438.59064 34.325ZM452.21564 32.903126Q452.21564 32.16875 451.66876 31.7625Q451.1219 31.35625 449.7469 31.059376Q448.3719 30.7625 447.5594 30.35625Q446.7625 29.95 446.3719 29.3875Q445.9969 28.809376 445.9969 28.028126Q445.9969 26.73125 447.09064 25.840626Q448.1844 24.934376 449.90314 24.934376Q451.7 24.934376 452.8094 25.871876Q453.9344 26.79375 453.9344 28.23125L452.10626 28.23125Q452.10626 27.496876 451.48126 26.965626Q450.85626 26.41875 449.90314 26.41875Q448.90314 26.41875 448.34064 26.85625Q447.79376 27.278126 447.79376 27.98125Q447.79376 28.621876 448.3094 28.965626Q448.825 29.29375 450.1844 29.60625Q451.54376 29.903126 452.3719 30.325Q453.21564 30.73125 453.6219 31.325Q454.02814 31.91875 454.02814 32.7625Q454.02814 34.184376 452.8875 35.04375Q451.7625 35.903126 449.95 35.903126Q448.6844 35.903126 447.7 35.45Q446.73126 34.996876 446.16876 34.2Q445.6219 33.3875 445.6219 32.45L447.4344 32.45Q447.48126 33.35625 448.15314 33.8875Q448.84064 34.41875 449.95 34.41875Q450.98126 34.41875 451.59064 34.0125Q452.21564 33.590626 452.21564 32.903126ZM458.5125 22.575L458.5125 25.1375L460.4969 25.1375L460.4969 26.528126L458.5125 26.528126L458.5125 33.075Q458.5125 33.715626 458.77814 34.04375Q459.04376 34.35625 459.6844 34.35625Q459.9969 34.35625 460.54376 34.23125L460.54376 35.7Q459.825 35.903126 459.15314 35.903126Q457.95 35.903126 457.325 35.16875Q456.71564 34.434376 456.71564 33.075L456.71564 26.528126L454.79376 26.528126L454.79376 25.1375L456.71564 25.1375L456.71564 22.575L458.5125 22.575ZM471.52814 33.059376L473.98126 25.1375L475.91876 25.1375L471.66876 37.325Q470.6844 39.965626 468.54376 39.965626L468.2 39.934376L467.52814 39.809376L467.52814 38.340626L468.0125 38.3875Q468.9344 38.3875 469.4344 38.0125Q469.95 37.6375 470.27814 36.653126L470.6844 35.575L466.91876 25.1375L468.8875 25.1375L471.52814 33.059376ZM481.45 35.903126Q479.3094 35.903126 477.95 34.496876Q476.60626 33.075 476.60626 30.715626L476.60626 30.371876Q476.60626 28.809376 477.2 27.575Q477.8094 26.340626 478.8875 25.6375Q479.96564 24.934376 481.23126 24.934376Q483.29376 24.934376 484.4344 26.29375Q485.575 27.653126 485.575 30.184376L485.575 30.934376L478.41876 30.934376Q478.45 32.496876 479.325 33.465626Q480.2 34.41875 481.54376 34.41875Q482.5125 34.41875 483.16876 34.028126Q483.84064 33.6375 484.34064 32.996876L485.4344 33.85625Q484.10626 35.903126 481.45 35.903126ZM481.23126 26.41875Q480.1375 26.41875 479.3875 27.215626Q478.65314 28.0125 478.48126 29.45L483.7625 29.45L483.7625 29.309376Q483.6844 27.934376 483.0125 27.184376Q482.35626 26.41875 481.23126 26.41875ZM494.59064 35.7Q494.4344 35.3875 494.34064 34.590626Q493.075 35.903126 491.325 35.903126Q489.7625 35.903126 488.7625 35.0125Q487.7625 34.121876 487.7625 32.7625Q487.7625 31.121876 489.0125 30.215626Q490.27814 29.29375 492.54376 29.29375L494.3094 29.29375L494.3094 28.465626Q494.3094 27.5125 493.73126 26.95Q493.16876 26.3875 492.075 26.3875Q491.10626 26.3875 490.45 26.8875Q489.79376 27.371876 489.79376 28.059376L487.98126 28.059376Q487.98126 27.278126 488.54376 26.54375Q489.10626 25.79375 490.0594 25.371876Q491.02814 24.934376 492.1844 24.934376Q494.0125 24.934376 495.04376 25.85625Q496.075 26.7625 496.1219 28.371876L496.1219 33.23125Q496.1219 34.684376 496.48126 35.54375L496.48126 35.7L494.59064 35.7ZM491.59064 34.325Q492.45 34.325 493.2 33.8875Q493.96564 33.45 494.3094 32.746876L494.3094 30.575L492.8875 30.575Q489.575 30.575 489.575 32.5125Q489.575 33.371876 490.1375 33.85625Q490.7 34.325 491.59064 34.325ZM504.16876 26.746876Q503.7625 26.684376 503.29376 26.684376Q501.5125 26.684376 500.8719 28.2L500.8719 35.7L499.075 35.7L499.075 25.1375L500.825 25.1375L500.85626 26.35625Q501.7469 24.934376 503.3719 24.934376Q503.90314 24.934376 504.16876 25.075L504.16876 26.746876ZM508.1844 31.7Q508.2 30.528126 508.45 29.85625Q508.7 29.184376 509.45 28.371876L510.73126 27.04375Q511.54376 26.121876 511.54376 25.059376Q511.54376 24.028126 510.9969 23.45Q510.46564 22.871876 509.45 22.871876Q508.45 22.871876 507.84064 23.403126Q507.2469 23.91875 507.2469 24.809376L505.4344 24.809376Q505.45 23.23125 506.5594 22.2625Q507.66876 21.278126 509.45 21.278126Q511.29376 21.278126 512.325 22.278126Q513.35626 23.2625 513.35626 24.996876Q513.35626 26.7 511.77814 28.371876L510.7 29.41875Q509.9969 30.215626 509.9969 31.7L508.1844 31.7ZM508.10626 34.79375Q508.10626 34.35625 508.3719 34.059376Q508.65314 33.7625 509.16876 33.7625Q509.7 33.7625 509.96564 34.059376Q510.2469 34.35625 510.2469 34.79375Q510.2469 35.23125 509.96564 35.528126Q509.7 35.809376 509.16876 35.809376Q508.65314 35.809376 508.3719 35.528126Q508.10626 35.23125 508.10626 34.79375Z" fill-rule="nonzero"/></svg>