<svg version="1.1" viewBox="0.0 0.0 783.0 452.0" fill="none" stroke="none" stroke-linecap="square" stroke-miterlimit="10" width="783" height="452" xmlns:xlink="http://www.w3.org/1999/xlink" xmlns="http://www.w3.org/2000/svg"><path fill="#ffffff" d="M0 0L783.0 0L783.0 452.0L0 452.0L0 0Z" fill-rule="nonzero"/><path stroke="#333333" stroke-width="1.0" stroke-linecap="butt" d="M82.5 375.5L760.5 375.5" fill-rule="nonzero"/><path stroke="#cccccc" stroke-width="1.0" stroke-linecap="butt" d="M82.5 298.5L760.5 298.5" fill-rule="nonzero"/><path stroke="#cccccc" stroke-width="1.0" stroke-linecap="butt" d="M82.5 222.5L760.5 222.5" fill-rule="nonzero"/><path stroke="#cccccc" stroke-width="1.0" stroke-linecap="butt" d="M82.5 145.5L760.5 145.5" fill-rule="nonzero"/><path stroke="#cccccc" stroke-width="1.0" stroke-linecap="butt" d="M82.5 69.5L760.5 69.5" fill-rule="nonzero"/><clipPath id="id_0"><path d="M82.6 69.166664L760.4 69.166664L760.4 375.4L82.6 375.4L82.6 69.166664Z" clip-rule="nonzero"/></clipPath><path stroke="#000000" stroke-width="0.0" stroke-linecap="butt" stroke-opacity="0.0" clip-path="url(#id_0)" d="M156.0 375.0L109.0 375.0L109.0 168.0C109.0 166.89543 109.89543 166.0 111.0 166.0L154.0 166.0C155.10457 166.0 156.0 166.89543 156.0 168.0Z" fill-rule="nonzero"/><path fill="#4472c4" clip-path="url(#id_0)" d="M156.0 375.0L109.0 375.0L109.0 168.0C109.0 166.89543 109.89543 166.0 111.0 166.0L154.0 166.0C155.10457 166.0 156.0 166.89543 156.0 168.0Z" fill-rule="nonzero"/><path stroke="#000000" stroke-width="0.0" stroke-linecap="butt" stroke-opacity="0.0" clip-path="url(#id_0)" d="M228.0 375.0L181.0 375.0L181.0 71.0C181.0 69.89543 181.89543 69.0 183.0 69.0L226.0 69.0C227.10457 69.0 228.0 69.89543 228.0 71.0Z" fill-rule="nonzero"/><path fill="#4472c4" clip-path="url(#id_0)" d="M228.0 375.0L181.0 375.0L181.0 71.0C181.0 69.89543 181.89543 69.0 183.0 69.0L226.0 69.0C227.10457 69.0 228.0 69.89543 228.0 71.0Z" fill-rule="nonzero"/><path stroke="#000000" stroke-width="0.0" stroke-linecap="butt" stroke-opacity="0.0" clip-path="url(#id_0)" d="M301.0 375.0L254.0 375.0L254.0 194.0C254.0 192.89543 254.89543 192.0 256.0 192.0L299.0 192.0C300.10458 192.0 301.0 192.89543 301.0 194.0Z" fill-rule="nonzero"/><path fill="#4472c4" clip-path="url(#id_0)" d="M301.0 375.0L254.0 375.0L254.0 194.0C254.0 192.89543 254.89543 192.0 256.0 192.0L299.0 192.0C300.10458 192.0 301.0 192.89543 301.0 194.0Z" fill-rule="nonzero"/><path stroke="#000000" stroke-width="0.0" stroke-linecap="butt" stroke-opacity="0.0" clip-path="url(#id_0)" d="M373.0 375.0L326.0 375.0L326.0 275.0C326.0 273.89542 326.89542 273.0 328.0 273.0L371.0 273.0C372.10458 273.0 373.0 273.89542 373.0 275.0Z" fill-rule="nonzero"/><path fill="#4472c4" clip-path="url(#id_0)" d="M373.0 375.0L326.0 375.0L326.0 275.0C326.0 273.89542 326.89542 273.0 328.0 273.0L371.0 273.0C372.10458 273.0 373.0 273.89542 373.0 275.0Z" fill-rule="nonzero"/><path stroke="#000000" stroke-width="0.0" stroke-linecap="butt" stroke-opacity="0.0" clip-path="url(#id_0)" d="M446.0 375.0L399.0 375.0L399.0 330.0C399.0 328.89542 399.89542 328.0 401.0 328.0L444.0 328.0C445.10458 328.0 446.0 328.89542 446.0 330.0Z" fill-rule="nonzero"/><path fill="#4472c4" clip-path="url(#id_0)" d="M446.0 375.0L399.0 375.0L399.0 330.0C399.0 328.89542 399.89542 328.0 401.0 328.0L444.0 328.0C445.10458 328.0 446.0 328.89542 446.0 330.0Z" fill-rule="nonzero"/><path stroke="#000000" stroke-width="0.0" stroke-linecap="butt" stroke-opacity="0.0" clip-path="url(#id_0)" d="M518.0 375.0L471.0 375.0L471.0 353.0C471.0 351.89542 471.89542 351.0 473.0 351.0L516.0 351.0C517.10455 351.0 518.0 351.89542 518.0 353.0Z" fill-rule="nonzero"/><path fill="#4472c4" clip-path="url(#id_0)" d="M518.0 375.0L471.0 375.0L471.0 353.0C471.0 351.89542 471.89542 351.0 473.0 351.0L516.0 351.0C517.10455 351.0 518.0 351.89542 518.0 353.0Z" fill-rule="nonzero"/><path stroke="#000000" stroke-width="0.0" stroke-linecap="butt" stroke-opacity="0.0" clip-path="url(#id_0)" d="M590.0 375.0L543.0 375.0L543.0 367.0C543.0 365.89542 543.89545 365.0 545.0 365.0L588.0 365.0C589.10455 365.0 590.0 365.89542 590.0 367.0Z" fill-rule="nonzero"/><path fill="#4472c4" clip-path="url(#id_0)" d="M590.0 375.0L543.0 375.0L543.0 367.0C543.0 365.89542 543.89545 365.0 545.0 365.0L588.0 365.0C589.10455 365.0 590.0 365.89542 590.0 367.0Z" fill-rule="nonzero"/><path stroke="#000000" stroke-width="0.0" stroke-linecap="butt" stroke-opacity="0.0" clip-path="url(#id_0)" d="M663.0 375.0L616.0 375.0L616.0 370.0C616.0 368.89542 616.89545 368.0 618.0 368.0L661.0 368.0C662.10455 368.0 663.0 368.89542 663.0 370.0Z" fill-rule="nonzero"/><path fill="#4472c4" clip-path="url(#id_0)" d="M663.0 375.0L616.0 375.0L616.0 370.0C616.0 368.89542 616.89545 368.0 618.0 368.0L661.0 368.0C662.10455 368.0 663.0 368.89542 663.0 370.0Z" fill-rule="nonzero"/><path stroke="#000000" stroke-width="0.0" stroke-linecap="butt" stroke-opacity="0.0" clip-path="url(#id_0)" d="M735.0 375.0L688.0 375.0L688.0 375.0L735.0 375.0Z" fill-rule="nonzero"/><path fill="#4472c4" clip-path="url(#id_0)" d="M735.0 375.0L688.0 375.0L688.0 375.0L735.0 375.0Z" fill-rule="nonzero"/><path fill="#000000" d="M358.10938 423.05624L358.10938 426.4L356.98438 426.4L356.98438 417.86874L360.14062 417.86874Q361.53125 417.86874 362.32812 418.5875Q363.125 419.29062 363.125 420.47812Q363.125 421.7125 362.34375 422.38437Q361.57812 423.05624 360.125 423.05624L358.10938 423.05624ZM358.10938 422.13437L360.14062 422.13437Q361.04688 422.13437 361.51562 421.7125Q362.0 421.29062 362.0 420.49374Q362.0 419.72812 361.51562 419.275Q361.04688 418.80624 360.20312 418.79062L358.10938 418.79062L358.10938 422.13437ZM367.45312 426.525Q366.15625 426.525 365.34375 425.68124Q364.54688 424.82187 364.54688 423.4L364.54688 423.2125Q364.54688 422.25937 364.90625 421.525Q365.26562 420.775 365.90625 420.36874Q366.5625 419.94687 367.3125 419.94687Q368.54688 419.94687 369.23438 420.75937Q369.92188 421.57187 369.92188 423.0875L369.92188 423.54062L365.625 423.54062Q365.65625 424.47812 366.17188 425.05624Q366.70312 425.63437 367.51562 425.63437Q368.07812 425.63437 368.46875 425.4Q368.875 425.16562 369.1875 424.775L369.84375 425.29062Q369.04688 426.525 367.45312 426.525ZM367.3125 420.8375Q366.65625 420.8375 366.20312 421.32187Q365.76562 421.79062 365.67188 422.65L368.84375 422.65L368.84375 422.57187Q368.79688 421.74374 368.39062 421.29062Q368.0 420.8375 367.3125 420.8375ZM373.89062 421.025Q373.64062 420.99374 373.35938 420.99374Q372.28125 420.99374 371.90625 421.9L371.90625 426.4L370.82812 426.4L370.82812 420.05624L371.875 420.05624L371.89062 420.79062Q372.42188 419.94687 373.40625 419.94687Q373.71875 419.94687 373.89062 420.025L373.89062 421.025ZM377.35938 425.63437Q377.9375 425.63437 378.375 425.29062Q378.8125 424.93124 378.85938 424.4L379.89062 424.4Q379.85938 424.94687 379.5 425.44687Q379.15625 425.93124 378.57812 426.22812Q378.01562 426.525 377.35938 426.525Q376.0625 426.525 375.29688 425.66562Q374.54688 424.79062 374.54688 423.29062L374.54688 423.10312Q374.54688 422.18124 374.875 421.4625Q375.21875 420.74374 375.84375 420.35312Q376.48438 419.94687 377.35938 419.94687Q378.42188 419.94687 379.125 420.5875Q379.84375 421.2125 379.89062 422.24374L378.85938 422.24374Q378.8125 421.61874 378.39062 421.22812Q377.96875 420.8375 377.35938 420.8375Q376.53125 420.8375 376.07812 421.43124Q375.625 422.025 375.625 423.15L375.625 423.35312Q375.625 424.44687 376.07812 425.04062Q376.53125 425.63437 377.35938 425.63437ZM383.45312 426.525Q382.15625 426.525 381.34375 425.68124Q380.54688 424.82187 380.54688 423.4L380.54688 423.2125Q380.54688 422.25937 380.90625 421.525Q381.26562 420.775 381.90625 420.36874Q382.5625 419.94687 383.3125 419.94687Q384.54688 419.94687 385.23438 420.75937Q385.92188 421.57187 385.92188 423.0875L385.92188 423.54062L381.625 423.54062Q381.65625 424.47812 382.17188 425.05624Q382.70312 425.63437 383.51562 425.63437Q384.07812 425.63437 384.46875 425.4Q384.875 425.16562 385.1875 424.775L385.84375 425.29062Q385.04688 426.525 383.45312 426.525ZM383.3125 420.8375Q382.65625 420.8375 382.20312 421.32187Q381.76562 421.79062 381.67188 422.65L384.84375 422.65L384.84375 422.57187Q384.79688 421.74374 384.39062 421.29062Q384.0 420.8375 383.3125 420.8375ZM388.0 426.4L386.92188 426.4L386.92188 420.05624L388.0 420.05624L388.0 426.4ZM386.82812 418.38437Q386.82812 418.11874 386.98438 417.93124Q387.15625 417.74374 387.46875 417.74374Q387.78125 417.74374 387.9375 417.93124Q388.10938 418.11874 388.10938 418.38437Q388.10938 418.63437 387.9375 418.82187Q387.78125 418.99374 387.46875 418.99374Q387.15625 418.99374 386.98438 418.82187Q386.82812 418.63437 386.82812 418.38437ZM391.90625 424.93124L393.48438 420.05624L394.59375 420.05624L392.3125 426.4L391.48438 426.4L389.1875 420.05624L390.29688 420.05624L391.90625 424.93124ZM398.45312 426.525Q397.15625 426.525 396.34375 425.68124Q395.54688 424.82187 395.54688 423.4L395.54688 423.2125Q395.54688 422.25937 395.90625 421.525Q396.26562 420.775 396.90625 420.36874Q397.5625 419.94687 398.3125 419.94687Q399.54688 419.94687 400.23438 420.75937Q400.92188 421.57187 400.92188 423.0875L400.92188 423.54062L396.625 423.54062Q396.65625 424.47812 397.17188 425.05624Q397.70312 425.63437 398.51562 425.63437Q399.07812 425.63437 399.46875 425.4Q399.875 425.16562 400.1875 424.775L400.84375 425.29062Q400.04688 426.525 398.45312 426.525ZM398.3125 420.8375Q397.65625 420.8375 397.20312 421.32187Q396.76562 421.79062 396.67188 422.65L399.84375 422.65L399.84375 422.57187Q399.79688 421.74374 399.39062 421.29062Q399.0 420.8375 398.3125 420.8375ZM401.5625 423.18124Q401.5625 421.7125 402.25 420.8375Q402.9375 419.94687 404.0625 419.94687Q405.17188 419.94687 405.82812 420.69687L405.82812 417.4L406.90625 417.4L406.90625 426.4L405.90625 426.4L405.85938 425.7125Q405.20312 426.525 404.04688 426.525Q402.95312 426.525 402.25 425.61874Q401.5625 424.7125 401.5625 423.25937L401.5625 423.18124ZM402.64062 423.30624Q402.64062 424.38437 403.07812 424.99374Q403.53125 425.60312 404.3125 425.60312Q405.34375 425.60312 405.82812 424.66562L405.82812 421.75937Q405.34375 420.86874 404.32812 420.86874Q403.53125 420.86874 403.07812 421.47812Q402.64062 422.0875 402.64062 423.30624ZM415.125 422.94687L413.10938 422.94687L413.10938 426.4L411.98438 426.4L411.98438 417.86874L414.8125 417.86874Q416.25 417.86874 417.01562 418.525Q417.79688 419.18124 417.79688 420.43124Q417.79688 421.22812 417.35938 421.82187Q416.9375 422.41562 416.17188 422.7125L418.17188 426.32187L418.17188 426.4L416.96875 426.4L415.125 422.94687ZM413.10938 422.025L414.84375 422.025Q415.6875 422.025 416.17188 421.60312Q416.67188 421.16562 416.67188 420.43124Q416.67188 419.65 416.20312 419.22812Q415.73438 418.80624 414.84375 418.79062L413.10938 418.79062L413.10938 422.025ZM422.73438 425.775Q422.10938 426.525 420.875 426.525Q419.85938 426.525 419.32812 425.93124Q418.79688 425.3375 418.79688 424.18124L418.79688 420.05624L419.875 420.05624L419.875 424.15Q419.875 425.60312 421.04688 425.60312Q422.29688 425.60312 422.70312 424.66562L422.70312 420.05624L423.79688 420.05624L423.79688 426.4L422.76562 426.4L422.73438 425.775ZM429.51562 424.7125Q429.51562 424.275 429.17188 424.04062Q428.84375 423.79062 428.01562 423.61874Q427.20312 423.44687 426.71875 423.19687Q426.23438 422.94687 426.0 422.61874Q425.78125 422.275 425.78125 421.80624Q425.78125 421.025 426.4375 420.49374Q427.09375 419.94687 428.125 419.94687Q429.20312 419.94687 429.85938 420.50937Q430.53125 421.05624 430.53125 421.91562L429.45312 421.91562Q429.45312 421.47812 429.0625 421.16562Q428.6875 420.8375 428.125 420.8375Q427.53125 420.8375 427.1875 421.10312Q426.85938 421.35312 426.85938 421.75937Q426.85938 422.15 427.17188 422.35312Q427.48438 422.55624 428.29688 422.74374Q429.10938 422.91562 429.60938 423.16562Q430.10938 423.41562 430.34375 423.775Q430.59375 424.13437 430.59375 424.63437Q430.59375 425.49374 429.90625 426.00937Q429.23438 426.525 428.15625 426.525Q427.39062 426.525 426.79688 426.25937Q426.21875 425.97812 425.89062 425.49374Q425.5625 425.00937 425.5625 424.44687L426.64062 424.44687Q426.67188 424.99374 427.07812 425.32187Q427.48438 425.63437 428.15625 425.63437Q428.76562 425.63437 429.14062 425.38437Q429.51562 425.13437 429.51562 424.7125ZM433.29688 418.525L433.29688 420.05624L434.46875 420.05624L434.46875 420.9L433.29688 420.9L433.29688 424.82187Q433.29688 425.2125 433.45312 425.4Q433.60938 425.5875 433.98438 425.5875Q434.17188 425.5875 434.5 425.525L434.5 426.4Q434.07812 426.525 433.67188 426.525Q432.95312 426.525 432.57812 426.0875Q432.20312 425.63437 432.20312 424.82187L432.20312 420.9L431.04688 420.9L431.04688 420.05624L432.20312 420.05624L432.20312 418.525L433.29688 418.525ZM443.8125 422.4625L440.10938 422.4625L440.10938 425.47812L444.40625 425.47812L444.40625 426.4L438.98438 426.4L438.98438 417.86874L444.35938 417.86874L444.35938 418.79062L440.10938 418.79062L440.10938 421.54062L443.8125 421.54062L443.8125 422.4625ZM447.95312 422.36874L449.35938 420.05624L450.625 420.05624L448.54688 423.19687L450.6875 426.4L449.4375 426.4L447.96875 424.025L446.5 426.4L445.23438 426.4L447.375 423.19687L445.3125 420.05624L446.5625 420.05624L447.95312 422.36874ZM457.17188 423.30624Q457.17188 424.74374 456.51562 425.63437Q455.85938 426.525 454.71875 426.525Q453.5625 426.525 452.90625 425.79062L452.90625 428.8375L451.82812 428.8375L451.82812 420.05624L452.8125 420.05624L452.85938 420.75937Q453.53125 419.94687 454.70312 419.94687Q455.84375 419.94687 456.5 420.80624Q457.17188 421.66562 457.17188 423.19687L457.17188 423.30624ZM456.09375 423.18124Q456.09375 422.10312 455.625 421.49374Q455.17188 420.86874 454.375 420.86874Q453.39062 420.86874 452.90625 421.72812L452.90625 424.75937Q453.39062 425.63437 454.39062 425.63437Q455.17188 425.63437 455.625 425.025Q456.09375 424.4 456.09375 423.18124ZM461.45312 426.525Q460.15625 426.525 459.34375 425.68124Q458.54688 424.82187 458.54688 423.4L458.54688 423.2125Q458.54688 422.25937 458.90625 421.525Q459.26562 420.775 459.90625 420.36874Q460.5625 419.94687 461.3125 419.94687Q462.54688 419.94687 463.23438 420.75937Q463.92188 421.57187 463.92188 423.0875L463.92188 423.54062L459.625 423.54062Q459.65625 424.47812 460.17188 425.05624Q460.70312 425.63437 461.51562 425.63437Q462.07812 425.63437 462.46875 425.4Q462.875 425.16562 463.1875 424.775L463.84375 425.29062Q463.04688 426.525 461.45312 426.525ZM461.3125 420.8375Q460.65625 420.8375 460.20312 421.32187Q459.76562 421.79062 459.67188 422.65L462.84375 422.65L462.84375 422.57187Q462.79688 421.74374 462.39062 421.29062Q462.0 420.8375 461.3125 420.8375ZM467.89062 421.025Q467.64062 420.99374 467.35938 420.99374Q466.28125 420.99374 465.90625 421.9L465.90625 426.4L464.82812 426.4L464.82812 420.05624L465.875 420.05624L465.89062 420.79062Q466.42188 419.94687 467.40625 419.94687Q467.71875 419.94687 467.89062 420.025L467.89062 421.025ZM470.29688 418.525L470.29688 420.05624L471.46875 420.05624L471.46875 420.9L470.29688 420.9L470.29688 424.82187Q470.29688 425.2125 470.45312 425.4Q470.60938 425.5875 470.98438 425.5875Q471.17188 425.5875 471.5 425.525L471.5 426.4Q471.07812 426.525 470.67188 426.525Q469.95312 426.525 469.57812 426.0875Q469.20312 425.63437 469.20312 424.82187L469.20312 420.9L468.04688 420.9L468.04688 420.05624L469.20312 420.05624L469.20312 418.525L470.29688 418.525ZM474.0 426.4L472.92188 426.4L472.92188 420.05624L474.0 420.05624L474.0 426.4ZM472.82812 418.38437Q472.82812 418.11874 472.98438 417.93124Q473.15625 417.74374 473.46875 417.74374Q473.78125 417.74374 473.9375 417.93124Q474.10938 418.11874 474.10938 418.38437Q474.10938 418.63437 473.9375 418.82187Q473.78125 418.99374 473.46875 418.99374Q473.15625 418.99374 472.98438 418.82187Q472.82812 418.63437 472.82812 418.38437ZM479.51562 424.7125Q479.51562 424.275 479.17188 424.04062Q478.84375 423.79062 478.01562 423.61874Q477.20312 423.44687 476.71875 423.19687Q476.23438 422.94687 476.0 422.61874Q475.78125 422.275 475.78125 421.80624Q475.78125 421.025 476.4375 420.49374Q477.09375 419.94687 478.125 419.94687Q479.20312 419.94687 479.85938 420.50937Q480.53125 421.05624 480.53125 421.91562L479.45312 421.91562Q479.45312 421.47812 479.0625 421.16562Q478.6875 420.8375 478.125 420.8375Q477.53125 420.8375 477.1875 421.10312Q476.85938 421.35312 476.85938 421.75937Q476.85938 422.15 477.17188 422.35312Q477.48438 422.55624 478.29688 422.74374Q479.10938 422.91562 479.60938 423.16562Q480.10938 423.41562 480.34375 423.775Q480.59375 424.13437 480.59375 424.63437Q480.59375 425.49374 479.90625 426.00937Q479.23438 426.525 478.15625 426.525Q477.39062 426.525 476.79688 426.25937Q476.21875 425.97812 475.89062 425.49374Q475.5625 425.00937 475.5625 424.44687L476.64062 424.44687Q476.67188 424.99374 477.07812 425.32187Q477.48438 425.63437 478.15625 425.63437Q478.76562 425.63437 479.14062 425.38437Q479.51562 425.13437 479.51562 424.7125ZM484.45312 426.525Q483.15625 426.525 482.34375 425.68124Q481.54688 424.82187 481.54688 423.4L481.54688 423.2125Q481.54688 422.25937 481.90625 421.525Q482.26562 420.775 482.90625 420.36874Q483.5625 419.94687 484.3125 419.94687Q485.54688 419.94687 486.23438 420.75937Q486.92188 421.57187 486.92188 423.0875L486.92188 423.54062L482.625 423.54062Q482.65625 424.47812 483.17188 425.05624Q483.70312 425.63437 484.51562 425.63437Q485.07812 425.63437 485.46875 425.4Q485.875 425.16562 486.1875 424.775L486.84375 425.29062Q486.04688 426.525 484.45312 426.525ZM484.3125 420.8375Q483.65625 420.8375 483.20312 421.32187Q482.76562 421.79062 482.67188 422.65L485.84375 422.65L485.84375 422.57187Q485.79688 421.74374 485.39062 421.29062Q485.0 420.8375 484.3125 420.8375Z" fill-rule="nonzero"/><path fill="#000000" d="M31.14687 253.90834L31.14687 255.92397L34.599995 255.92397L34.599995 257.04895L26.068745 257.04895L26.068745 254.22084Q26.068745 252.78334 26.724995 252.01772Q27.381245 251.23647 28.631245 251.23647Q29.42812 251.23647 30.02187 251.67397Q30.61562 252.09584 30.912495 252.86147L34.52187 250.86147L34.599995 250.86147L34.599995 252.06459L31.14687 253.90834ZM30.224995 255.92397L30.224995 254.18959Q30.224995 253.34584 29.80312 252.86147Q29.36562 252.36147 28.631245 252.36147Q27.849995 252.36147 27.42812 252.83022Q27.006245 253.29897 26.99062 254.18959L26.99062 255.92397L30.224995 255.92397ZM34.724995 247.58022Q34.724995 248.87709 33.881245 249.68959Q33.02187 250.48647 31.599995 250.48647L31.412495 250.48647Q30.45937 250.48647 29.724995 250.12709Q28.974995 249.76772 28.568745 249.12709Q28.14687 248.47084 28.14687 247.72084Q28.14687 246.48647 28.95937 245.79897Q29.77187 245.11147 31.287495 245.11147L31.74062 245.11147L31.74062 249.40834Q32.67812 249.37709 33.256245 248.86147Q33.83437 248.33022 33.83437 247.51772Q33.83437 246.95522 33.599995 246.56459Q33.36562 246.15834 32.974995 245.84584L33.49062 245.18959Q34.724995 245.98647 34.724995 247.58022ZM29.037495 247.72084Q29.037495 248.37709 29.52187 248.83022Q29.99062 249.26772 30.849995 249.36147L30.849995 246.18959L30.77187 246.18959Q29.943745 246.23647 29.49062 246.64272Q29.037495 247.03334 29.037495 247.72084ZM32.912495 240.51772Q32.474995 240.51772 32.24062 240.86147Q31.99062 241.18959 31.818745 242.01772Q31.64687 242.83022 31.39687 243.31459Q31.14687 243.79897 30.818745 244.03334Q30.474995 244.25209 30.006245 244.25209Q29.224995 244.25209 28.693745 243.59584Q28.14687 242.93959 28.14687 241.90834Q28.14687 240.83022 28.70937 240.17397Q29.256245 239.50209 30.11562 239.50209L30.11562 240.58022Q29.67812 240.58022 29.36562 240.97084Q29.037495 241.34584 29.037495 241.90834Q29.037495 242.50209 29.30312 242.84584Q29.55312 243.17397 29.95937 243.17397Q30.349995 243.17397 30.55312 242.86147Q30.756245 242.54897 30.943745 241.73647Q31.11562 240.92397 31.36562 240.42397Q31.61562 239.92397 31.974995 239.68959Q32.33437 239.43959 32.83437 239.43959Q33.693745 239.43959 34.20937 240.12709Q34.724995 240.79897 34.724995 241.87709Q34.724995 242.64272 34.45937 243.23647Q34.17812 243.81459 33.693745 244.14272Q33.20937 244.47084 32.64687 244.47084L32.64687 243.39272Q33.193745 243.36147 33.52187 242.95522Q33.83437 242.54897 33.83437 241.87709Q33.83437 241.26772 33.58437 240.89272Q33.33437 240.51772 32.912495 240.51772ZM31.506245 232.86147Q32.943745 232.86147 33.83437 233.51772Q34.724995 234.17397 34.724995 235.31459Q34.724995 236.47084 33.99062 237.12709L37.037495 237.12709L37.037495 238.20522L28.256245 238.20522L28.256245 237.22084L28.95937 237.17397Q28.14687 236.50209 28.14687 235.33022Q28.14687 234.18959 29.006245 233.53334Q29.86562 232.86147 31.39687 232.86147L31.506245 232.86147ZM31.381245 233.93959Q30.30312 233.93959 29.693745 234.40834Q29.068745 234.86147 29.068745 235.65834Q29.068745 236.64272 29.92812 237.12709L32.95937 237.12709Q33.83437 236.64272 33.83437 235.64272Q33.83437 234.86147 33.224995 234.40834Q32.599995 233.93959 31.381245 233.93959ZM31.36562 231.50209Q30.443745 231.50209 29.693745 231.14272Q28.943745 230.76772 28.55312 230.11147Q28.14687 229.45522 28.14687 228.62709Q28.14687 227.33022 29.037495 226.53334Q29.92812 225.72084 31.42812 225.72084L31.506245 225.72084Q32.42812 225.72084 33.162495 226.08022Q33.89687 226.43959 34.318745 227.09584Q34.724995 227.75209 34.724995 228.61147Q34.724995 229.89272 33.83437 230.70522Q32.92812 231.50209 31.443745 231.50209L31.36562 231.50209ZM31.506245 230.40834Q32.55312 230.40834 33.193745 229.92397Q33.83437 229.42397 33.83437 228.61147Q33.83437 227.78334 33.193745 227.29897Q32.537495 226.81459 31.36562 226.81459Q30.33437 226.81459 29.693745 227.31459Q29.037495 227.79897 29.037495 228.62709Q29.037495 229.42397 29.67812 229.92397Q30.30312 230.40834 31.506245 230.40834ZM28.256245 223.18959L29.05312 223.15834Q28.14687 222.42397 28.14687 221.25209Q28.14687 219.23647 30.412495 219.22084L34.599995 219.22084L34.599995 220.31459L30.39687 220.31459Q29.724995 220.31459 29.39687 220.62709Q29.068745 220.92397 29.068745 221.58022Q29.068745 222.11147 29.349995 222.51772Q29.631245 222.90834 30.08437 223.12709L34.599995 223.12709L34.599995 224.20522L28.256245 224.20522L28.256245 223.18959ZM32.912495 213.51772Q32.474995 213.51772 32.24062 213.86147Q31.99062 214.18959 31.818745 215.01772Q31.64687 215.83022 31.39687 216.31459Q31.14687 216.79897 30.818745 217.03334Q30.474995 217.25209 30.006245 217.25209Q29.224995 217.25209 28.693745 216.59584Q28.14687 215.93959 28.14687 214.90834Q28.14687 213.83022 28.70937 213.17397Q29.256245 212.50209 30.11562 212.50209L30.11562 213.58022Q29.67812 213.58022 29.36562 213.97084Q29.037495 214.34584 29.037495 214.90834Q29.037495 215.50209 29.30312 215.84584Q29.55312 216.17397 29.95937 216.17397Q30.349995 216.17397 30.55312 215.86147Q30.756245 215.54897 30.943745 214.73647Q31.11562 213.92397 31.36562 213.42397Q31.61562 212.92397 31.974995 212.68959Q32.33437 212.43959 32.83437 212.43959Q33.693745 212.43959 34.20937 213.12709Q34.724995 213.79897 34.724995 214.87709Q34.724995 215.64272 34.45937 216.23647Q34.17812 216.81459 33.693745 217.14272Q33.20937 217.47084 32.64687 217.47084L32.64687 216.39272Q33.193745 216.36147 33.52187 215.95522Q33.83437 215.54897 33.83437 214.87709Q33.83437 214.26772 33.58437 213.89272Q33.33437 213.51772 32.912495 213.51772ZM34.724995 208.58022Q34.724995 209.87709 33.881245 210.68959Q33.02187 211.48647 31.599995 211.48647L31.412495 211.48647Q30.45937 211.48647 29.724995 211.12709Q28.974995 210.76772 28.568745 210.12709Q28.14687 209.47084 28.14687 208.72084Q28.14687 207.48647 28.95937 206.79897Q29.77187 206.11147 31.287495 206.11147L31.74062 206.11147L31.74062 210.40834Q32.67812 210.37709 33.256245 209.86147Q33.83437 209.33022 33.83437 208.51772Q33.83437 207.95522 33.599995 207.56459Q33.36562 207.15834 32.974995 206.84584L33.49062 206.18959Q34.724995 206.98647 34.724995 208.58022ZM29.037495 208.72084Q29.037495 209.37709 29.52187 209.83022Q29.99062 210.26772 30.849995 210.36147L30.849995 207.18959L30.77187 207.18959Q29.943745 207.23647 29.49062 207.64272Q29.037495 208.03334 29.037495 208.72084ZM32.912495 201.51772Q32.474995 201.51772 32.24062 201.86147Q31.99062 202.18959 31.818745 203.01772Q31.64687 203.83022 31.39687 204.31459Q31.14687 204.79897 30.818745 205.03334Q30.474995 205.25209 30.006245 205.25209Q29.224995 205.25209 28.693745 204.59584Q28.14687 203.93959 28.14687 202.90834Q28.14687 201.83022 28.70937 201.17397Q29.256245 200.50209 30.11562 200.50209L30.11562 201.58022Q29.67812 201.58022 29.36562 201.97084Q29.037495 202.34584 29.037495 202.90834Q29.037495 203.50209 29.30312 203.84584Q29.55312 204.17397 29.95937 204.17397Q30.349995 204.17397 30.55312 203.86147Q30.756245 203.54897 30.943745 202.73647Q31.11562 201.92397 31.36562 201.42397Q31.61562 200.92397 31.974995 200.68959Q32.33437 200.43959 32.83437 200.43959Q33.693745 200.43959 34.20937 201.12709Q34.724995 201.79897 34.724995 202.87709Q34.724995 203.64272 34.45937 204.23647Q34.17812 204.81459 33.693745 205.14272Q33.20937 205.47084 32.64687 205.47084L32.64687 204.39272Q33.193745 204.36147 33.52187 203.95522Q33.83437 203.54897 33.83437 202.87709Q33.83437 202.26772 33.58437 201.89272Q33.33437 201.51772 32.912495 201.51772Z" fill-rule="nonzero"/><path fill="#000000" d="M75.6625 376.25937Q75.6625 378.16562 75.00625 379.10312Q74.36562 380.025 72.975 380.025Q71.61562 380.025 70.95937 379.11874Q70.30312 378.2125 70.27187 376.4L70.27187 374.9625Q70.27187 373.07187 70.9125 372.16562Q71.56875 371.24374 72.95937 371.24374Q74.33437 371.24374 74.99062 372.13437Q75.64687 373.00937 75.6625 374.85312L75.6625 376.25937ZM74.56875 374.775Q74.56875 373.4 74.17812 372.775Q73.80312 372.13437 72.95937 372.13437Q72.13125 372.13437 71.74062 372.775Q71.36562 373.4 71.36562 374.69687L71.36562 376.43124Q71.36562 377.80624 71.75625 378.47812Q72.1625 379.13437 72.975 379.13437Q73.77187 379.13437 74.1625 378.50937Q74.55312 377.88437 74.56875 376.55624L74.56875 374.775Z" fill-rule="nonzero"/><path fill="#000000" d="M63.803123 299.06042L64.24062 294.81042L68.61562 294.81042L68.61562 295.81042L65.1625 295.81042L64.89687 298.13855Q65.5375 297.76355 66.33437 297.76355Q67.49062 297.76355 68.17812 298.5448Q68.86562 299.31042 68.86562 300.62292Q68.86562 301.93542 68.14687 302.70105Q67.44375 303.46667 66.1625 303.46667Q65.0375 303.46667 64.31875 302.84167Q63.6 302.20105 63.50625 301.09167L64.52187 301.09167Q64.63125 301.82605 65.05312 302.20105Q65.475 302.57605 66.1625 302.57605Q66.9125 302.57605 67.35 302.06042Q67.7875 301.5448 67.7875 300.63855Q67.7875 299.77917 67.31875 299.26355Q66.85 298.74792 66.06875 298.74792Q65.36562 298.74792 64.95937 299.0448L64.67812 299.27917L63.803123 299.06042ZM75.6625 299.70105Q75.6625 301.6073 75.00625 302.5448Q74.36562 303.46667 72.975 303.46667Q71.61562 303.46667 70.95937 302.56042Q70.30312 301.65417 70.27187 299.84167L70.27187 298.40417Q70.27187 296.51355 70.9125 295.6073Q71.56875 294.68542 72.95937 294.68542Q74.33437 294.68542 74.99062 295.57605Q75.64687 296.45105 75.6625 298.2948L75.6625 299.70105ZM74.56875 298.21667Q74.56875 296.84167 74.17812 296.21667Q73.80312 295.57605 72.95937 295.57605Q72.13125 295.57605 71.74062 296.21667Q71.36562 296.84167 71.36562 298.13855L71.36562 299.87292Q71.36562 301.24792 71.75625 301.9198Q72.1625 302.57605 72.975 302.57605Q73.77187 302.57605 74.1625 301.95105Q74.55312 301.32605 74.56875 299.99792L74.56875 298.21667Z" fill-rule="nonzero"/><path fill="#000000" d="M59.865623 226.78334L58.7875 226.78334L58.7875 219.56459L56.6 220.36147L56.6 219.37709L59.709373 218.20522L59.865623 218.20522L59.865623 226.78334ZM68.6625 223.14272Q68.6625 225.04897 68.00625 225.98647Q67.36562 226.90834 65.975 226.90834Q64.61562 226.90834 63.959373 226.00209Q63.303123 225.09584 63.271873 223.28334L63.271873 221.84584Q63.271873 219.95522 63.9125 219.04897Q64.56875 218.12709 65.95937 218.12709Q67.33437 218.12709 67.99062 219.01772Q68.64687 219.89272 68.6625 221.73647L68.6625 223.14272ZM67.56875 221.65834Q67.56875 220.28334 67.17812 219.65834Q66.80312 219.01772 65.95937 219.01772Q65.13125 219.01772 64.74062 219.65834Q64.36562 220.28334 64.36562 221.58022L64.36562 223.31459Q64.36562 224.68959 64.75625 225.36147Q65.1625 226.01772 65.975 226.01772Q66.77187 226.01772 67.1625 225.39272Q67.55312 224.76772 67.56875 223.43959L67.56875 221.65834ZM75.6625 223.14272Q75.6625 225.04897 75.00625 225.98647Q74.36562 226.90834 72.975 226.90834Q71.61562 226.90834 70.95937 226.00209Q70.30312 225.09584 70.27187 223.28334L70.27187 221.84584Q70.27187 219.95522 70.9125 219.04897Q71.56875 218.12709 72.95937 218.12709Q74.33437 218.12709 74.99062 219.01772Q75.64687 219.89272 75.6625 221.73647L75.6625 223.14272ZM74.56875 221.65834Q74.56875 220.28334 74.17812 219.65834Q73.80312 219.01772 72.95937 219.01772Q72.13125 219.01772 71.74062 219.65834Q71.36562 220.28334 71.36562 221.58022L71.36562 223.31459Q71.36562 224.68959 71.75625 225.36147Q72.1625 226.01772 72.975 226.01772Q73.77187 226.01772 74.1625 225.39272Q74.55312 224.76772 74.56875 223.43959L74.56875 221.65834Z" fill-rule="nonzero"/><path fill="#000000" d="M59.865623 150.225L58.7875 150.225L58.7875 143.00626L56.6 143.80313L56.6 142.81876L59.709373 141.64688L59.865623 141.64688L59.865623 150.225ZM63.803123 145.94376L64.24062 141.69376L68.61562 141.69376L68.61562 142.69376L65.1625 142.69376L64.89687 145.02188Q65.5375 144.64688 66.33437 144.64688Q67.49062 144.64688 68.17812 145.42813Q68.86562 146.19376 68.86562 147.50626Q68.86562 148.81876 68.14687 149.58438Q67.44375 150.35 66.1625 150.35Q65.0375 150.35 64.31875 149.725Q63.6 149.08438 63.50625 147.975L64.52187 147.975Q64.63125 148.70938 65.05312 149.08438Q65.475 149.45938 66.1625 149.45938Q66.9125 149.45938 67.35 148.94376Q67.7875 148.42813 67.7875 147.52188Q67.7875 146.6625 67.31875 146.14688Q66.85 145.63126 66.06875 145.63126Q65.36562 145.63126 64.95937 145.92813L64.67812 146.1625L63.803123 145.94376ZM75.6625 146.58438Q75.6625 148.49063 75.00625 149.42813Q74.36562 150.35 72.975 150.35Q71.61562 150.35 70.95937 149.44376Q70.30312 148.5375 70.27187 146.725L70.27187 145.2875Q70.27187 143.39688 70.9125 142.49063Q71.56875 141.56876 72.95937 141.56876Q74.33437 141.56876 74.99062 142.45938Q75.64687 143.33438 75.6625 145.17813L75.6625 146.58438ZM74.56875 145.1Q74.56875 143.725 74.17812 143.1Q73.80312 142.45938 72.95937 142.45938Q72.13125 142.45938 71.74062 143.1Q71.36562 143.725 71.36562 145.02188L71.36562 146.75626Q71.36562 148.13126 71.75625 148.80313Q72.1625 149.45938 72.975 149.45938Q73.77187 149.45938 74.1625 148.83438Q74.55312 148.20938 74.56875 146.88126L74.56875 145.1Z" fill-rule="nonzero"/><path fill="#000000" d="M61.896873 73.666664L56.303123 73.666664L56.303123 72.885414L59.25625 69.604164Q59.9125 68.854164 60.1625 68.40104Q60.4125 67.93229 60.4125 67.43229Q60.4125 66.760414 60.00625 66.33854Q59.615623 65.90104 58.928123 65.90104Q58.13125 65.90104 57.678123 66.36979Q57.225 66.822914 57.225 67.65104L56.146873 67.65104Q56.146873 66.46354 56.896873 65.74479Q57.6625 65.010414 58.928123 65.010414Q60.13125 65.010414 60.81875 65.635414Q61.50625 66.260414 61.50625 67.30729Q61.50625 68.55729 59.896873 70.30729L57.615623 72.77604L61.896873 72.77604L61.896873 73.666664ZM68.6625 70.02604Q68.6625 71.93229 68.00625 72.86979Q67.36562 73.791664 65.975 73.791664Q64.61562 73.791664 63.959373 72.885414Q63.303123 71.979164 63.271873 70.166664L63.271873 68.729164Q63.271873 66.83854 63.9125 65.93229Q64.56875 65.010414 65.95937 65.010414Q67.33437 65.010414 67.99062 65.90104Q68.64687 66.77604 68.6625 68.61979L68.6625 70.02604ZM67.56875 68.541664Q67.56875 67.166664 67.17812 66.541664Q66.80312 65.90104 65.95937 65.90104Q65.13125 65.90104 64.74062 66.541664Q64.36562 67.166664 64.36562 68.46354L64.36562 70.197914Q64.36562 71.572914 64.75625 72.24479Q65.1625 72.90104 65.975 72.90104Q66.77187 72.90104 67.1625 72.27604Q67.55312 71.65104 67.56875 70.322914L67.56875 68.541664ZM75.6625 70.02604Q75.6625 71.93229 75.00625 72.86979Q74.36562 73.791664 72.975 73.791664Q71.61562 73.791664 70.95937 72.885414Q70.30312 71.979164 70.27187 70.166664L70.27187 68.729164Q70.27187 66.83854 70.9125 65.93229Q71.56875 65.010414 72.95937 65.010414Q74.33437 65.010414 74.99062 65.90104Q75.64687 66.77604 75.6625 68.61979L75.6625 70.02604ZM74.56875 68.541664Q74.56875 67.166664 74.17812 66.541664Q73.80312 65.90104 72.95937 65.90104Q72.13125 65.90104 71.74062 66.541664Q71.36562 67.166664 71.36562 68.46354L71.36562 70.197914Q71.36562 71.572914 71.75625 72.24479Q72.1625 72.90104 72.975 72.90104Q73.77187 72.90104 74.1625 72.27604Q74.55312 71.65104 74.56875 70.322914L74.56875 68.541664Z" fill-rule="nonzero"/><path fill="#000000" d="M134.32896 393.4L128.73521 393.4L128.73521 392.61874L131.68834 389.3375Q132.34459 388.5875 132.59459 388.13437Q132.84459 387.66562 132.84459 387.16562Q132.84459 386.49374 132.43834 386.07187Q132.04771 385.63437 131.36021 385.63437Q130.56334 385.63437 130.11021 386.10312Q129.65709 386.55624 129.65709 387.38437L128.57896 387.38437Q128.57896 386.19687 129.32896 385.47812Q130.09459 384.74374 131.36021 384.74374Q132.56334 384.74374 133.25084 385.36874Q133.93834 385.99374 133.93834 387.04062Q133.93834 388.29062 132.32896 390.04062L130.04771 392.50937L134.32896 392.50937L134.32896 393.4Z" fill-rule="nonzero"/><path fill="#000000" d="M202.80531 388.60312L203.61781 388.60312Q204.39906 388.5875 204.83656 388.19687Q205.27406 387.80624 205.27406 387.13437Q205.27406 385.63437 203.77406 385.63437Q203.07094 385.63437 202.64906 386.04062Q202.24281 386.44687 202.24281 387.10312L201.14906 387.10312Q201.14906 386.0875 201.88344 385.41562Q202.63344 384.74374 203.77406 384.74374Q204.97719 384.74374 205.66469 385.38437Q206.35219 386.025 206.35219 387.16562Q206.35219 387.72812 205.99281 388.24374Q205.63344 388.75937 205.00844 389.025Q205.71156 389.24374 206.08656 389.75937Q206.47719 390.275 206.47719 391.025Q206.47719 392.16562 205.72719 392.85312Q204.97719 393.525 203.77406 393.525Q202.58656 393.525 201.82094 392.86874Q201.07094 392.2125 201.07094 391.15L202.16469 391.15Q202.16469 391.82187 202.60219 392.22812Q203.03969 392.63437 203.78969 392.63437Q204.57094 392.63437 204.97719 392.22812Q205.39906 391.80624 205.39906 391.04062Q205.39906 390.30624 204.94594 389.91562Q204.49281 389.50937 203.61781 389.49374L202.80531 389.49374L202.80531 388.60312Z" fill-rule="nonzero"/><path fill="#000000" d="M278.2973 390.54062L279.4848 390.54062L279.4848 391.41562L278.2973 391.41562L278.2973 393.4L277.21918 393.4L277.21918 391.41562L273.32855 391.41562L273.32855 390.775L277.14105 384.86874L278.2973 384.86874L278.2973 390.54062ZM274.56293 390.54062L277.21918 390.54062L277.21918 386.35312L277.07855 386.5875L274.56293 390.54062Z" fill-rule="nonzero"/><path fill="#000000" d="M346.71115 389.11874L347.14865 384.86874L351.52365 384.86874L351.52365 385.86874L348.07053 385.86874L347.8049 388.19687Q348.44553 387.82187 349.2424 387.82187Q350.39865 387.82187 351.08615 388.60312Q351.77365 389.36874 351.77365 390.68124Q351.77365 391.99374 351.0549 392.75937Q350.35178 393.525 349.07053 393.525Q347.94553 393.525 347.22678 392.9Q346.50803 392.25937 346.41428 391.15L347.4299 391.15Q347.53928 391.88437 347.96115 392.25937Q348.38303 392.63437 349.07053 392.63437Q349.82053 392.63437 350.25803 392.11874Q350.69553 391.60312 350.69553 390.69687Q350.69553 389.8375 350.22678 389.32187Q349.75803 388.80624 348.97678 388.80624Q348.27365 388.80624 347.8674 389.10312L347.58615 389.3375L346.71115 389.11874Z" fill-rule="nonzero"/><path fill="#000000" d="M422.96875 384.86874L422.96875 385.775L422.76562 385.775Q421.5 385.80624 420.75 386.54062Q420.0 387.25937 419.875 388.57187Q420.5625 387.80624 421.71875 387.80624Q422.82812 387.80624 423.5 388.5875Q424.17188 389.36874 424.17188 390.61874Q424.17188 391.93124 423.45312 392.72812Q422.73438 393.525 421.51562 393.525Q420.29688 393.525 419.53125 392.5875Q418.78125 391.63437 418.78125 390.15L418.78125 389.74374Q418.78125 387.38437 419.78125 386.13437Q420.78125 384.88437 422.76562 384.86874L422.96875 384.86874ZM421.54688 388.7125Q420.98438 388.7125 420.51562 389.04062Q420.04688 389.36874 419.85938 389.88437L419.85938 390.275Q419.85938 391.3375 420.32812 391.97812Q420.8125 392.61874 421.51562 392.61874Q422.25 392.61874 422.67188 392.0875Q423.09375 391.54062 423.09375 390.66562Q423.09375 389.79062 422.67188 389.25937Q422.25 388.7125 421.54688 388.7125Z" fill-rule="nonzero"/><path fill="#000000" d="M496.71072 385.47812L493.17947 393.4L492.03885 393.4L495.55447 385.75937L490.9451 385.75937L490.9451 384.86874L496.71072 384.86874L496.71072 385.47812Z" fill-rule="nonzero"/><path fill="#000000" d="M568.8746 387.0875Q568.8746 387.72812 568.5308 388.22812Q568.1871 388.72812 567.6246 389.00937Q568.2808 389.29062 568.67145 389.85312Q569.0621 390.4 569.0621 391.10312Q569.0621 392.19687 568.3121 392.86874Q567.5777 393.525 566.35895 393.525Q565.1246 393.525 564.3746 392.86874Q563.6402 392.19687 563.6402 391.10312Q563.6402 390.4 564.0152 389.85312Q564.3902 389.29062 565.0621 389.00937Q564.4996 388.72812 564.17145 388.22812Q563.8433 387.72812 563.8433 387.0875Q563.8433 386.00937 564.5308 385.38437Q565.2183 384.74374 566.35895 384.74374Q567.48395 384.74374 568.17145 385.38437Q568.8746 386.00937 568.8746 387.0875ZM567.98395 391.07187Q567.98395 390.35312 567.5308 389.91562Q567.0777 389.4625 566.3433 389.4625Q565.60895 389.4625 565.1558 389.91562Q564.7183 390.35312 564.7183 391.0875Q564.7183 391.80624 565.1558 392.22812Q565.5933 392.63437 566.35895 392.63437Q567.10895 392.63437 567.54645 392.2125Q567.98395 391.79062 567.98395 391.07187ZM566.35895 385.63437Q565.7183 385.63437 565.3121 386.04062Q564.92145 386.43124 564.92145 387.11874Q564.92145 387.75937 565.3121 388.16562Q565.7027 388.57187 566.3433 388.57187Q566.9996 388.57187 567.3902 388.16562Q567.7808 387.75937 567.7808 387.11874Q567.7808 386.4625 567.3746 386.05624Q566.9683 385.63437 566.35895 385.63437Z" fill-rule="nonzero"/><path fill="#000000" d="M640.3353 389.65Q640.0072 390.05624 639.5228 390.30624Q639.0541 390.54062 638.4916 390.54062Q637.7572 390.54062 637.2103 390.18124Q636.66345 389.82187 636.3666 389.16562Q636.0697 388.49374 636.0697 387.69687Q636.0697 386.85312 636.3822 386.16562Q636.7103 385.47812 637.3041 385.11874Q637.91345 384.74374 638.7103 384.74374Q639.97595 384.74374 640.6947 385.69687Q641.4291 386.65 641.4291 388.275L641.4291 388.5875Q641.4291 391.0875 640.4447 392.22812Q639.4603 393.36874 637.47595 393.4L637.2572 393.4L637.2572 392.49374L637.4916 392.49374Q638.8353 392.4625 639.5541 391.79062Q640.2728 391.11874 640.3353 389.65ZM638.66345 389.65Q639.2103 389.65 639.66345 389.32187Q640.1322 388.97812 640.35095 388.49374L640.35095 388.05624Q640.35095 386.99374 639.8822 386.32187Q639.41345 385.65 638.7103 385.65Q637.9916 385.65 637.5541 386.19687Q637.1322 386.74374 637.1322 387.65Q637.1322 388.525 637.53845 389.0875Q637.9603 389.65 638.66345 389.65Z" fill-rule="nonzero"/><path fill="#000000" d="M708.7335 393.4L707.6554 393.4L707.6554 386.18124L705.4679 386.97812L705.4679 385.99374L708.5773 384.82187L708.7335 384.82187L708.7335 393.4ZM717.5304 389.75937Q717.5304 391.66562 716.87415 392.60312Q716.2335 393.525 714.8429 393.525Q713.4835 393.525 712.8273 392.61874Q712.171 391.7125 712.1398 389.9L712.1398 388.4625Q712.1398 386.57187 712.7804 385.66562Q713.43665 384.74374 714.8273 384.74374Q716.2023 384.74374 716.8585 385.63437Q717.5148 386.50937 717.5304 388.35312L717.5304 389.75937ZM716.43665 388.275Q716.43665 386.9 716.046 386.275Q715.671 385.63437 714.8273 385.63437Q713.99915 385.63437 713.6085 386.275Q713.2335 386.9 713.2335 388.19687L713.2335 389.93124Q713.2335 391.30624 713.62415 391.97812Q714.0304 392.63437 714.8429 392.63437Q715.6398 392.63437 716.0304 392.00937Q716.421 391.38437 716.43665 390.05624L716.43665 388.275Z" fill-rule="nonzero"/><path fill="#757575" d="M136.6875 35.021873L130.53125 35.021873L130.53125 40.06875L137.6875 40.06875L137.6875 41.6L128.65625 41.6L128.65625 27.381248L137.59375 27.381248L137.59375 28.928123L130.53125 28.928123L130.53125 33.490623L136.6875 33.490623L136.6875 35.021873ZM142.90625 34.896873L145.25 31.037498L147.35938 31.037498L143.90625 36.25625L147.46875 41.6L145.39062 41.6L142.9375 37.646873L140.5 41.6L138.40625 41.6L141.96875 36.25625L138.51562 31.037498L140.59375 31.037498L142.90625 34.896873ZM158.29688 36.428123Q158.29688 38.85 157.1875 40.334373Q156.09375 41.803123 154.20312 41.803123Q152.28125 41.803123 151.17188 40.56875L151.17188 45.6625L149.375 45.6625L149.375 31.037498L151.01562 31.037498L151.10938 32.209373Q152.20312 30.834373 154.17188 30.834373Q156.07812 30.834373 157.1875 32.271873Q158.29688 33.709373 158.29688 36.271873L158.29688 36.428123ZM156.48438 36.225Q156.48438 34.44375 155.71875 33.4125Q154.96875 32.365623 153.64062 32.365623Q152.0 32.365623 151.17188 33.81875L151.17188 38.88125Q151.98438 40.31875 153.65625 40.31875Q154.95312 40.31875 155.71875 39.2875Q156.48438 38.25625 156.48438 36.225ZM164.75 41.803123Q162.60938 41.803123 161.25 40.396873Q159.90625 38.975 159.90625 36.615623L159.90625 36.271873Q159.90625 34.709373 160.5 33.475Q161.10938 32.240623 162.1875 31.537498Q163.26562 30.834373 164.53125 30.834373Q166.59375 30.834373 167.73438 32.19375Q168.875 33.553123 168.875 36.084373L168.875 36.834373L161.71875 36.834373Q161.75 38.396873 162.625 39.365623Q163.5 40.31875 164.84375 40.31875Q165.8125 40.31875 166.46875 39.928123Q167.14062 39.5375 167.64062 38.896873L168.73438 39.75625Q167.40625 41.803123 164.75 41.803123ZM164.53125 32.31875Q163.4375 32.31875 162.6875 33.115623Q161.95312 33.9125 161.78125 35.35L167.0625 35.35L167.0625 35.209373Q166.98438 33.834373 166.3125 33.084373Q165.65625 32.31875 164.53125 32.31875ZM176.46875 32.646873Q176.0625 32.584373 175.59375 32.584373Q173.8125 32.584373 173.17188 34.1L173.17188 41.6L171.375 41.6L171.375 31.037498L173.125 31.037498L173.15625 32.25625Q174.04688 30.834373 175.67188 30.834373Q176.20312 30.834373 176.46875 30.974998L176.46875 32.646873ZM180.8125 28.474998L180.8125 31.037498L182.79688 31.037498L182.79688 32.428123L180.8125 32.428123L180.8125 38.975Q180.8125 39.615623 181.07812 39.94375Q181.34375 40.25625 181.98438 40.25625Q182.29688 40.25625 182.84375 40.13125L182.84375 41.6Q182.125 41.803123 181.45312 41.803123Q180.25 41.803123 179.625 41.06875Q179.01562 40.334373 179.01562 38.975L179.01562 32.428123L177.09375 32.428123L177.09375 31.037498L179.01562 31.037498L179.01562 28.474998L180.8125 28.474998ZM187.32812 41.6L185.53125 41.6L185.53125 31.037498L187.32812 31.037498L187.32812 41.6ZM185.375 28.224998Q185.375 27.787498 185.64062 27.490623Q185.92188 27.178123 186.4375 27.178123Q186.96875 27.178123 187.23438 27.490623Q187.51562 27.787498 187.51562 28.224998Q187.51562 28.662498 187.23438 28.959373Q186.96875 29.256248 186.4375 29.256248Q185.92188 29.256248 185.64062 28.959373Q185.375 28.662498 185.375 28.224998ZM196.51562 38.803123Q196.51562 38.06875 195.96875 37.6625Q195.42188 37.25625 194.04688 36.959373Q192.67188 36.6625 191.85938 36.25625Q191.0625 35.85 190.67188 35.2875Q190.29688 34.709373 190.29688 33.928123Q190.29688 32.63125 191.39062 31.740623Q192.48438 30.834373 194.20312 30.834373Q196.0 30.834373 197.10938 31.771873Q198.23438 32.69375 198.23438 34.13125L196.40625 34.13125Q196.40625 33.396873 195.78125 32.865623Q195.15625 32.31875 194.20312 32.31875Q193.20312 32.31875 192.64062 32.75625Q192.09375 33.178123 192.09375 33.88125Q192.09375 34.521873 192.60938 34.865623Q193.125 35.19375 194.48438 35.50625Q195.84375 35.803123 196.67188 36.225Q197.51562 36.63125 197.92188 37.225Q198.32812 37.81875 198.32812 38.6625Q198.32812 40.084373 197.1875 40.94375Q196.0625 41.803123 194.25 41.803123Q192.98438 41.803123 192.0 41.35Q191.03125 40.896873 190.46875 40.1Q189.92188 39.2875 189.92188 38.35L191.73438 38.35Q191.78125 39.25625 192.45312 39.7875Q193.14062 40.31875 194.25 40.31875Q195.28125 40.31875 195.89062 39.9125Q196.51562 39.490623 196.51562 38.803123ZM204.75 41.803123Q202.60938 41.803123 201.25 40.396873Q199.90625 38.975 199.90625 36.615623L199.90625 36.271873Q199.90625 34.709373 200.5 33.475Q201.10938 32.240623 202.1875 31.537498Q203.26562 30.834373 204.53125 30.834373Q206.59375 30.834373 207.73438 32.19375Q208.875 33.553123 208.875 36.084373L208.875 36.834373L201.71875 36.834373Q201.75 38.396873 202.625 39.365623Q203.5 40.31875 204.84375 40.31875Q205.8125 40.31875 206.46875 39.928123Q207.14062 39.5375 207.64062 38.896873L208.73438 39.75625Q207.40625 41.803123 204.75 41.803123ZM204.53125 32.31875Q203.4375 32.31875 202.6875 33.115623Q201.95312 33.9125 201.78125 35.35L207.0625 35.35L207.0625 35.209373Q206.98438 33.834373 206.3125 33.084373Q205.65625 32.31875 204.53125 32.31875ZM218.32812 41.6L216.53125 41.6L216.53125 26.599998L218.32812 26.599998L218.32812 41.6ZM225.75 41.803123Q223.60938 41.803123 222.25 40.396873Q220.90625 38.975 220.90625 36.615623L220.90625 36.271873Q220.90625 34.709373 221.5 33.475Q222.10938 32.240623 223.1875 31.537498Q224.26562 30.834373 225.53125 30.834373Q227.59375 30.834373 228.73438 32.19375Q229.875 33.553123 229.875 36.084373L229.875 36.834373L222.71875 36.834373Q222.75 38.396873 223.625 39.365623Q224.5 40.31875 225.84375 40.31875Q226.8125 40.31875 227.46875 39.928123Q228.14062 39.5375 228.64062 38.896873L229.73438 39.75625Q228.40625 41.803123 225.75 41.803123ZM225.53125 32.31875Q224.4375 32.31875 223.6875 33.115623Q222.95312 33.9125 222.78125 35.35L228.0625 35.35L228.0625 35.209373Q227.98438 33.834373 227.3125 33.084373Q226.65625 32.31875 225.53125 32.31875ZM235.85938 39.146873L238.46875 31.037498L240.3125 31.037498L236.53125 41.6L235.15625 41.6L231.32812 31.037498L233.17188 31.037498L235.85938 39.146873ZM246.75 41.803123Q244.60938 41.803123 243.25 40.396873Q241.90625 38.975 241.90625 36.615623L241.90625 36.271873Q241.90625 34.709373 242.5 33.475Q243.10938 32.240623 244.1875 31.537498Q245.26562 30.834373 246.53125 30.834373Q248.59375 30.834373 249.73438 32.19375Q250.875 33.553123 250.875 36.084373L250.875 36.834373L243.71875 36.834373Q243.75 38.396873 244.625 39.365623Q245.5 40.31875 246.84375 40.31875Q247.8125 40.31875 248.46875 39.928123Q249.14062 39.5375 249.64062 38.896873L250.73438 39.75625Q249.40625 41.803123 246.75 41.803123ZM246.53125 32.31875Q245.4375 32.31875 244.6875 33.115623Q243.95312 33.9125 243.78125 35.35L249.0625 35.35L249.0625 35.209373Q248.98438 33.834373 248.3125 33.084373Q247.65625 32.31875 246.53125 32.31875ZM255.32812 41.6L253.53125 41.6L253.53125 26.599998L255.32812 26.599998L255.32812 41.6ZM262.89062 36.225Q262.89062 34.6625 263.5 33.428123Q264.10938 32.178123 265.1875 31.506248Q266.28125 30.834373 267.6875 30.834373Q269.84375 30.834373 271.17188 32.334373Q272.51562 33.81875 272.51562 36.303123L272.51562 36.428123Q272.51562 37.975 271.92188 39.209373Q271.32812 40.428123 270.21875 41.115623Q269.125 41.803123 267.70312 41.803123Q265.5625 41.803123 264.21875 40.303123Q262.89062 38.803123 262.89062 36.35L262.89062 36.225ZM264.70312 36.428123Q264.70312 38.19375 265.51562 39.25625Q266.34375 40.31875 267.70312 40.31875Q269.07812 40.31875 269.89062 39.240623Q270.70312 38.1625 270.70312 36.225Q270.70312 34.475 269.875 33.396873Q269.04688 32.31875 267.6875 32.31875Q266.34375 32.31875 265.51562 33.38125Q264.70312 34.44375 264.70312 36.428123ZM275.25 41.6L275.25 32.428123L273.59375 32.428123L273.59375 31.037498L275.25 31.037498L275.25 29.943748Q275.25 28.256248 276.15625 27.334373Q277.07812 26.396873 278.73438 26.396873Q279.35938 26.396873 279.96875 26.553123L279.875 28.021873Q279.42188 27.943748 278.90625 27.943748Q278.01562 27.943748 277.53125 28.459373Q277.0625 28.959373 277.0625 29.912498L277.0625 31.037498L279.3125 31.037498L279.3125 32.428123L277.0625 32.428123L277.0625 41.6L275.25 41.6ZM291.46875 32.646873Q291.0625 32.584373 290.59375 32.584373Q288.8125 32.584373 288.17188 34.1L288.17188 41.6L286.375 41.6L286.375 31.037498L288.125 31.037498L288.15625 32.25625Q289.04688 30.834373 290.67188 30.834373Q291.20312 30.834373 291.46875 30.974998L291.46875 32.646873ZM297.75 41.803123Q295.60938 41.803123 294.25 40.396873Q292.90625 38.975 292.90625 36.615623L292.90625 36.271873Q292.90625 34.709373 293.5 33.475Q294.10938 32.240623 295.1875 31.537498Q296.26562 30.834373 297.53125 30.834373Q299.59375 30.834373 300.73438 32.19375Q301.875 33.553123 301.875 36.084373L301.875 36.834373L294.71875 36.834373Q294.75 38.396873 295.625 39.365623Q296.5 40.31875 297.84375 40.31875Q298.8125 40.31875 299.46875 39.928123Q300.14062 39.5375 300.64062 38.896873L301.73438 39.75625Q300.40625 41.803123 297.75 41.803123ZM297.53125 32.31875Q296.4375 32.31875 295.6875 33.115623Q294.95312 33.9125 294.78125 35.35L300.0625 35.35L300.0625 35.209373Q299.98438 33.834373 299.3125 33.084373Q298.65625 32.31875 297.53125 32.31875ZM310.51562 38.803123Q310.51562 38.06875 309.96875 37.6625Q309.42188 37.25625 308.04688 36.959373Q306.67188 36.6625 305.85938 36.25625Q305.0625 35.85 304.67188 35.2875Q304.29688 34.709373 304.29688 33.928123Q304.29688 32.63125 305.39062 31.740623Q306.48438 30.834373 308.20312 30.834373Q310.0 30.834373 311.10938 31.771873Q312.23438 32.69375 312.23438 34.13125L310.40625 34.13125Q310.40625 33.396873 309.78125 32.865623Q309.15625 32.31875 308.20312 32.31875Q307.20312 32.31875 306.64062 32.75625Q306.09375 33.178123 306.09375 33.88125Q306.09375 34.521873 306.60938 34.865623Q307.125 35.19375 308.48438 35.50625Q309.84375 35.803123 310.67188 36.225Q311.51562 36.63125 311.92188 37.225Q312.32812 37.81875 312.32812 38.6625Q312.32812 40.084373 311.1875 40.94375Q310.0625 41.803123 308.25 41.803123Q306.98438 41.803123 306.0 41.35Q305.03125 40.896873 304.46875 40.1Q303.92188 39.2875 303.92188 38.35L305.73438 38.35Q305.78125 39.25625 306.45312 39.7875Q307.14062 40.31875 308.25 40.31875Q309.28125 40.31875 309.89062 39.9125Q310.51562 39.490623 310.51562 38.803123ZM323.29688 36.428123Q323.29688 38.85 322.1875 40.334373Q321.09375 41.803123 319.20312 41.803123Q317.28125 41.803123 316.17188 40.56875L316.17188 45.6625L314.375 45.6625L314.375 31.037498L316.01562 31.037498L316.10938 32.209373Q317.20312 30.834373 319.17188 30.834373Q321.07812 30.834373 322.1875 32.271873Q323.29688 33.709373 323.29688 36.271873L323.29688 36.428123ZM321.48438 36.225Q321.48438 34.44375 320.71875 33.4125Q319.96875 32.365623 318.64062 32.365623Q317.0 32.365623 316.17188 33.81875L316.17188 38.88125Q316.98438 40.31875 318.65625 40.31875Q319.95312 40.31875 320.71875 39.2875Q321.48438 38.25625 321.48438 36.225ZM324.89062 36.225Q324.89062 34.6625 325.5 33.428123Q326.10938 32.178123 327.1875 31.506248Q328.28125 30.834373 329.6875 30.834373Q331.84375 30.834373 333.17188 32.334373Q334.51562 33.81875 334.51562 36.303123L334.51562 36.428123Q334.51562 37.975 333.92188 39.209373Q333.32812 40.428123 332.21875 41.115623Q331.125 41.803123 329.70312 41.803123Q327.5625 41.803123 326.21875 40.303123Q324.89062 38.803123 324.89062 36.35L324.89062 36.225ZM326.70312 36.428123Q326.70312 38.19375 327.51562 39.25625Q328.34375 40.31875 329.70312 40.31875Q331.07812 40.31875 331.89062 39.240623Q332.70312 38.1625 332.70312 36.225Q332.70312 34.475 331.875 33.396873Q331.04688 32.31875 329.6875 32.31875Q328.34375 32.31875 327.51562 33.38125Q326.70312 34.44375 326.70312 36.428123ZM338.07812 31.037498L338.14062 32.365623Q339.34375 30.834373 341.29688 30.834373Q344.65625 30.834373 344.67188 34.615623L344.67188 41.6L342.875 41.6L342.875 34.6Q342.85938 33.459373 342.34375 32.9125Q341.84375 32.365623 340.75 32.365623Q339.875 32.365623 339.20312 32.834373Q338.54688 33.303123 338.17188 34.06875L338.17188 41.6L336.375 41.6L336.375 31.037498L338.07812 31.037498ZM346.92188 36.225Q346.92188 33.803123 348.07812 32.31875Q349.23438 30.834373 351.09375 30.834373Q352.95312 30.834373 354.03125 32.1L354.03125 26.599998L355.84375 26.599998L355.84375 41.6L354.1875 41.6L354.09375 40.459373Q353.01562 41.803123 351.07812 41.803123Q349.25 41.803123 348.07812 40.303123Q346.92188 38.7875 346.92188 36.365623L346.92188 36.225ZM348.73438 36.428123Q348.73438 38.225 349.46875 39.240623Q350.21875 40.25625 351.53125 40.25625Q353.25 40.25625 354.03125 38.725L354.03125 33.865623Q353.23438 32.365623 351.54688 32.365623Q350.21875 32.365623 349.46875 33.396873Q348.73438 34.428123 348.73438 36.428123ZM362.75 41.803123Q360.60938 41.803123 359.25 40.396873Q357.90625 38.975 357.90625 36.615623L357.90625 36.271873Q357.90625 34.709373 358.5 33.475Q359.10938 32.240623 360.1875 31.537498Q361.26562 30.834373 362.53125 30.834373Q364.59375 30.834373 365.73438 32.19375Q366.875 33.553123 366.875 36.084373L366.875 36.834373L359.71875 36.834373Q359.75 38.396873 360.625 39.365623Q361.5 40.31875 362.84375 40.31875Q363.8125 40.31875 364.46875 39.928123Q365.14062 39.5375 365.64062 38.896873L366.73438 39.75625Q365.40625 41.803123 362.75 41.803123ZM362.53125 32.31875Q361.4375 32.31875 360.6875 33.115623Q359.95312 33.9125 359.78125 35.35L365.0625 35.35L365.0625 35.209373Q364.98438 33.834373 364.3125 33.084373Q363.65625 32.31875 362.53125 32.31875ZM371.07812 31.037498L371.14062 32.365623Q372.34375 30.834373 374.29688 30.834373Q377.65625 30.834373 377.67188 34.615623L377.67188 41.6L375.875 41.6L375.875 34.6Q375.85938 33.459373 375.34375 32.9125Q374.84375 32.365623 373.75 32.365623Q372.875 32.365623 372.20312 32.834373Q371.54688 33.303123 371.17188 34.06875L371.17188 41.6L369.375 41.6L369.375 31.037498L371.07812 31.037498ZM382.8125 28.474998L382.8125 31.037498L384.79688 31.037498L384.79688 32.428123L382.8125 32.428123L382.8125 38.975Q382.8125 39.615623 383.07812 39.94375Q383.34375 40.25625 383.98438 40.25625Q384.29688 40.25625 384.84375 40.13125L384.84375 41.6Q384.125 41.803123 383.45312 41.803123Q382.25 41.803123 381.625 41.06875Q381.01562 40.334373 381.01562 38.975L381.01562 32.428123L379.09375 32.428123L379.09375 31.037498L381.01562 31.037498L381.01562 28.474998L382.8125 28.474998ZM393.51562 38.803123Q393.51562 38.06875 392.96875 37.6625Q392.42188 37.25625 391.04688 36.959373Q389.67188 36.6625 388.85938 36.25625Q388.0625 35.85 387.67188 35.2875Q387.29688 34.709373 387.29688 33.928123Q387.29688 32.63125 388.39062 31.740623Q389.48438 30.834373 391.20312 30.834373Q393.0 30.834373 394.10938 31.771873Q395.23438 32.69375 395.23438 34.13125L393.40625 34.13125Q393.40625 33.396873 392.78125 32.865623Q392.15625 32.31875 391.20312 32.31875Q390.20312 32.31875 389.64062 32.75625Q389.09375 33.178123 389.09375 33.88125Q389.09375 34.521873 389.60938 34.865623Q390.125 35.19375 391.48438 35.50625Q392.84375 35.803123 393.67188 36.225Q394.51562 36.63125 394.92188 37.225Q395.32812 37.81875 395.32812 38.6625Q395.32812 40.084373 394.1875 40.94375Q393.0625 41.803123 391.25 41.803123Q389.98438 41.803123 389.0 41.35Q388.03125 40.896873 387.46875 40.1Q386.92188 39.2875 386.92188 38.35L388.73438 38.35Q388.78125 39.25625 389.45312 39.7875Q390.14062 40.31875 391.25 40.31875Q392.28125 40.31875 392.89062 39.9125Q393.51562 39.490623 393.51562 38.803123ZM411.71875 39.115623L413.75 31.037498L415.5625 31.037498L412.48438 41.6L411.01562 41.6L408.45312 33.584373L405.95312 41.6L404.48438 41.6L401.42188 31.037498L403.21875 31.037498L405.29688 38.94375L407.76562 31.037498L409.21875 31.037498L411.71875 39.115623ZM419.17188 32.31875Q420.375 30.834373 422.29688 30.834373Q425.65625 30.834373 425.67188 34.615623L425.67188 41.6L423.875 41.6L423.875 34.6Q423.85938 33.459373 423.34375 32.9125Q422.84375 32.365623 421.75 32.365623Q420.875 32.365623 420.20312 32.834373Q419.54688 33.303123 419.17188 34.06875L419.17188 41.6L417.375 41.6L417.375 26.599998L419.17188 26.599998L419.17188 32.31875ZM427.89062 36.225Q427.89062 34.6625 428.5 33.428123Q429.10938 32.178123 430.1875 31.506248Q431.28125 30.834373 432.6875 30.834373Q434.84375 30.834373 436.17188 32.334373Q437.51562 33.81875 437.51562 36.303123L437.51562 36.428123Q437.51562 37.975 436.92188 39.209373Q436.32812 40.428123 435.21875 41.115623Q434.125 41.803123 432.70312 41.803123Q430.5625 41.803123 429.21875 40.303123Q427.89062 38.803123 427.89062 36.35L427.89062 36.225ZM429.70312 36.428123Q429.70312 38.19375 430.51562 39.25625Q431.34375 40.31875 432.70312 40.31875Q434.07812 40.31875 434.89062 39.240623Q435.70312 38.1625 435.70312 36.225Q435.70312 34.475 434.875 33.396873Q434.04688 32.31875 432.6875 32.31875Q431.34375 32.31875 430.51562 33.38125Q429.70312 34.44375 429.70312 36.428123ZM443.92188 36.225Q443.92188 33.803123 445.07812 32.31875Q446.23438 30.834373 448.09375 30.834373Q449.95312 30.834373 451.03125 32.1L451.03125 26.599998L452.84375 26.599998L452.84375 41.6L451.1875 41.6L451.09375 40.459373Q450.01562 41.803123 448.07812 41.803123Q446.25 41.803123 445.07812 40.303123Q443.92188 38.7875 443.92188 36.365623L443.92188 36.225ZM445.73438 36.428123Q445.73438 38.225 446.46875 39.240623Q447.21875 40.25625 448.53125 40.25625Q450.25 40.25625 451.03125 38.725L451.03125 33.865623Q450.23438 32.365623 448.54688 32.365623Q447.21875 32.365623 446.46875 33.396873Q445.73438 34.428123 445.73438 36.428123ZM454.89062 36.225Q454.89062 34.6625 455.5 33.428123Q456.10938 32.178123 457.1875 31.506248Q458.28125 30.834373 459.6875 30.834373Q461.84375 30.834373 463.17188 32.334373Q464.51562 33.81875 464.51562 36.303123L464.51562 36.428123Q464.51562 37.975 463.92188 39.209373Q463.32812 40.428123 462.21875 41.115623Q461.125 41.803123 459.70312 41.803123Q457.5625 41.803123 456.21875 40.303123Q454.89062 38.803123 454.89062 36.35L454.89062 36.225ZM456.70312 36.428123Q456.70312 38.19375 457.51562 39.25625Q458.34375 40.31875 459.70312 40.31875Q461.07812 40.31875 461.89062 39.240623Q462.70312 38.1625 462.70312 36.225Q462.70312 34.475 461.875 33.396873Q461.04688 32.31875 459.6875 32.31875Q458.34375 32.31875 457.51562 33.38125Q456.70312 34.44375 456.70312 36.428123ZM468.07812 31.037498L468.14062 32.365623Q469.34375 30.834373 471.29688 30.834373Q474.65625 30.834373 474.67188 34.615623L474.67188 41.6L472.875 41.6L472.875 34.6Q472.85938 33.459373 472.34375 32.9125Q471.84375 32.365623 470.75 32.365623Q469.875 32.365623 469.20312 32.834373Q468.54688 33.303123 468.17188 34.06875L468.17188 41.6L466.375 41.6L466.375 31.037498L468.07812 31.037498ZM478.46875 27.678123L478.26562 31.271873L477.0 31.271873L477.01562 26.599998L478.46875 26.599998L478.46875 27.678123ZM482.8125 28.474998L482.8125 31.037498L484.79688 31.037498L484.79688 32.428123L482.8125 32.428123L482.8125 38.975Q482.8125 39.615623 483.07812 39.94375Q483.34375 40.25625 483.98438 40.25625Q484.29688 40.25625 484.84375 40.13125L484.84375 41.6Q484.125 41.803123 483.45312 41.803123Q482.25 41.803123 481.625 41.06875Q481.01562 40.334373 481.01562 38.975L481.01562 32.428123L479.09375 32.428123L479.09375 31.037498L481.01562 31.037498L481.01562 28.474998L482.8125 28.474998ZM493.25 41.6L493.25 32.428123L491.59375 32.428123L491.59375 31.037498L493.25 31.037498L493.25 29.943748Q493.25 28.256248 494.15625 27.334373Q495.07812 26.396873 496.73438 26.396873Q497.35938 26.396873 497.96875 26.553123L497.875 28.021873Q497.42188 27.943748 496.90625 27.943748Q496.01562 27.943748 495.53125 28.459373Q495.0625 28.959373 495.0625 29.912498L495.0625 31.037498L497.3125 31.037498L497.3125 32.428123L495.0625 32.428123L495.0625 41.6L493.25 41.6ZM503.75 41.803123Q501.60938 41.803123 500.25 40.396873Q498.90625 38.975 498.90625 36.615623L498.90625 36.271873Q498.90625 34.709373 499.5 33.475Q500.10938 32.240623 501.1875 31.537498Q502.26562 30.834373 503.53125 30.834373Q505.59375 30.834373 506.73438 32.19375Q507.875 33.553123 507.875 36.084373L507.875 36.834373L500.71875 36.834373Q500.75 38.396873 501.625 39.365623Q502.5 40.31875 503.84375 40.31875Q504.8125 40.31875 505.46875 39.928123Q506.14062 39.5375 506.64062 38.896873L507.73438 39.75625Q506.40625 41.803123 503.75 41.803123ZM503.53125 32.31875Q502.4375 32.31875 501.6875 33.115623Q500.95312 33.9125 500.78125 35.35L506.0625 35.35L506.0625 35.209373Q505.98438 33.834373 505.3125 33.084373Q504.65625 32.31875 503.53125 32.31875ZM514.75 41.803123Q512.6094 41.803123 511.25 40.396873Q509.90625 38.975 509.90625 36.615623L509.90625 36.271873Q509.90625 34.709373 510.5 33.475Q511.10938 32.240623 512.1875 31.537498Q513.2656 30.834373 514.53125 30.834373Q516.59375 30.834373 517.7344 32.19375Q518.875 33.553123 518.875 36.084373L518.875 36.834373L511.71875 36.834373Q511.75 38.396873 512.625 39.365623Q513.5 40.31875 514.84375 40.31875Q515.8125 40.31875 516.46875 39.928123Q517.1406 39.5375 517.6406 38.896873L518.7344 39.75625Q517.40625 41.803123 514.75 41.803123ZM514.53125 32.31875Q513.4375 32.31875 512.6875 33.115623Q511.95312 33.9125 511.78125 35.35L517.0625 35.35L517.0625 35.209373Q516.9844 33.834373 516.3125 33.084373Q515.65625 32.31875 514.53125 32.31875ZM523.3281 41.6L521.53125 41.6L521.53125 26.599998L523.3281 26.599998L523.3281 41.6ZM540.2969 36.428123Q540.2969 38.85 539.1875 40.334373Q538.09375 41.803123 536.2031 41.803123Q534.28125 41.803123 533.1719 40.56875L533.1719 45.6625L531.375 45.6625L531.375 31.037498L533.0156 31.037498L533.1094 32.209373Q534.2031 30.834373 536.1719 30.834373Q538.0781 30.834373 539.1875 32.271873Q540.2969 33.709373 540.2969 36.271873L540.2969 36.428123ZM538.4844 36.225Q538.4844 34.44375 537.71875 33.4125Q536.96875 32.365623 535.6406 32.365623Q534.0 32.365623 533.1719 33.81875L533.1719 38.88125Q533.9844 40.31875 535.65625 40.31875Q536.9531 40.31875 537.71875 39.2875Q538.4844 38.25625 538.4844 36.225ZM547.46875 32.646873Q547.0625 32.584373 546.59375 32.584373Q544.8125 32.584373 544.1719 34.1L544.1719 41.6L542.375 41.6L542.375 31.037498L544.125 31.037498L544.15625 32.25625Q545.0469 30.834373 546.6719 30.834373Q547.2031 30.834373 547.46875 30.974998L547.46875 32.646873ZM548.8906 36.225Q548.8906 34.6625 549.5 33.428123Q550.1094 32.178123 551.1875 31.506248Q552.28125 30.834373 553.6875 30.834373Q555.84375 30.834373 557.1719 32.334373Q558.5156 33.81875 558.5156 36.303123L558.5156 36.428123Q558.5156 37.975 557.9219 39.209373Q557.3281 40.428123 556.21875 41.115623Q555.125 41.803123 553.7031 41.803123Q551.5625 41.803123 550.21875 40.303123Q548.8906 38.803123 548.8906 36.35L548.8906 36.225ZM550.7031 36.428123Q550.7031 38.19375 551.5156 39.25625Q552.34375 40.31875 553.7031 40.31875Q555.0781 40.31875 555.8906 39.240623Q556.7031 38.1625 556.7031 36.225Q556.7031 34.475 555.875 33.396873Q555.0469 32.31875 553.6875 32.31875Q552.34375 32.31875 551.5156 33.38125Q550.7031 34.44375 550.7031 36.428123ZM559.9219 36.225Q559.9219 33.803123 561.0781 32.31875Q562.2344 30.834373 564.09375 30.834373Q565.9531 30.834373 567.03125 32.1L567.03125 26.599998L568.84375 26.599998L568.84375 41.6L567.1875 41.6L567.09375 40.459373Q566.0156 41.803123 564.0781 41.803123Q562.25 41.803123 561.0781 40.303123Q559.9219 38.7875 559.9219 36.365623L559.9219 36.225ZM561.7344 36.428123Q561.7344 38.225 562.46875 39.240623Q563.21875 40.25625 564.53125 40.25625Q566.25 40.25625 567.03125 38.725L567.03125 33.865623Q566.2344 32.365623 564.5469 32.365623Q563.21875 32.365623 562.46875 33.396873Q561.7344 34.428123 561.7344 36.428123ZM577.8906 40.553123Q576.84375 41.803123 574.7969 41.803123Q573.1094 41.803123 572.21875 40.81875Q571.34375 39.834373 571.3281 37.9125L571.3281 31.037498L573.1406 31.037498L573.1406 37.865623Q573.1406 40.25625 575.09375 40.25625Q577.15625 40.25625 577.84375 38.725L577.84375 31.037498L579.65625 31.037498L579.65625 41.6L577.9375 41.6L577.8906 40.553123ZM586.6094 40.31875Q587.5781 40.31875 588.2969 39.740623Q589.0156 39.146873 589.09375 38.271873L590.8125 38.271873Q590.75 39.178123 590.1719 40.00625Q589.6094 40.81875 588.6406 41.31875Q587.6875 41.803123 586.6094 41.803123Q584.4531 41.803123 583.1719 40.365623Q581.90625 38.9125 581.90625 36.4125L581.90625 36.115623Q581.90625 34.56875 582.46875 33.365623Q583.03125 32.1625 584.09375 31.506248Q585.15625 30.834373 586.59375 30.834373Q588.375 30.834373 589.5469 31.896873Q590.7344 32.959373 590.8125 34.6625L589.09375 34.6625Q589.0156 33.646873 588.3125 32.990623Q587.625 32.31875 586.59375 32.31875Q585.21875 32.31875 584.4531 33.31875Q583.7031 34.303123 583.7031 36.178123L583.7031 36.521873Q583.7031 38.35 584.4531 39.334373Q585.2031 40.31875 586.6094 40.31875ZM594.8125 28.474998L594.8125 31.037498L596.7969 31.037498L596.7969 32.428123L594.8125 32.428123L594.8125 38.975Q594.8125 39.615623 595.0781 39.94375Q595.34375 40.25625 595.9844 40.25625Q596.2969 40.25625 596.84375 40.13125L596.84375 41.6Q596.125 41.803123 595.4531 41.803123Q594.25 41.803123 593.625 41.06875Q593.0156 40.334373 593.0156 38.975L593.0156 32.428123L591.09375 32.428123L591.09375 31.037498L593.0156 31.037498L593.0156 28.474998L594.8125 28.474998ZM601.3281 41.6L599.53125 41.6L599.53125 31.037498L601.3281 31.037498L601.3281 41.6ZM599.375 28.224998Q599.375 27.787498 599.6406 27.490623Q599.9219 27.178123 600.4375 27.178123Q600.96875 27.178123 601.2344 27.490623Q601.5156 27.787498 601.5156 28.224998Q601.5156 28.662498 601.2344 28.959373Q600.96875 29.256248 600.4375 29.256248Q599.9219 29.256248 599.6406 28.959373Q599.375 28.662498 599.375 28.224998ZM607.8594 39.146873L610.46875 31.037498L612.3125 31.037498L608.53125 41.6L607.15625 41.6L603.3281 31.037498L605.1719 31.037498L607.8594 39.146873ZM618.75 41.803123Q616.6094 41.803123 615.25 40.396873Q613.90625 38.975 613.90625 36.615623L613.90625 36.271873Q613.90625 34.709373 614.5 33.475Q615.1094 32.240623 616.1875 31.537498Q617.2656 30.834373 618.53125 30.834373Q620.59375 30.834373 621.7344 32.19375Q622.875 33.553123 622.875 36.084373L622.875 36.834373L615.71875 36.834373Q615.75 38.396873 616.625 39.365623Q617.5 40.31875 618.84375 40.31875Q619.8125 40.31875 620.46875 39.928123Q621.1406 39.5375 621.6406 38.896873L622.7344 39.75625Q621.40625 41.803123 618.75 41.803123ZM618.53125 32.31875Q617.4375 32.31875 616.6875 33.115623Q615.9531 33.9125 615.78125 35.35L621.0625 35.35L621.0625 35.209373Q620.9844 33.834373 620.3125 33.084373Q619.65625 32.31875 618.53125 32.31875ZM633.8281 38.959373L636.28125 31.037498L638.21875 31.037498L633.96875 43.225Q632.9844 45.865623 630.84375 45.865623L630.5 45.834373L629.8281 45.709373L629.8281 44.240623L630.3125 44.2875Q631.2344 44.2875 631.7344 43.9125Q632.25 43.5375 632.5781 42.553123L632.9844 41.475L629.21875 31.037498L631.1875 31.037498L633.8281 38.959373ZM643.75 41.803123Q641.6094 41.803123 640.25 40.396873Q638.90625 38.975 638.90625 36.615623L638.90625 36.271873Q638.90625 34.709373 639.5 33.475Q640.1094 32.240623 641.1875 31.537498Q642.2656 30.834373 643.53125 30.834373Q645.59375 30.834373 646.7344 32.19375Q647.875 33.553123 647.875 36.084373L647.875 36.834373L640.71875 36.834373Q640.75 38.396873 641.625 39.365623Q642.5 40.31875 643.84375 40.31875Q644.8125 40.31875 645.46875 39.928123Q646.1406 39.5375 646.6406 38.896873L647.7344 39.75625Q646.40625 41.803123 643.75 41.803123ZM643.53125 32.31875Q642.4375 32.31875 641.6875 33.115623Q640.9531 33.9125 640.78125 35.35L646.0625 35.35L646.0625 35.209373Q645.9844 33.834373 645.3125 33.084373Q644.65625 32.31875 643.53125 32.31875ZM652.8125 28.474998L652.8125 31.037498L654.7969 31.037498L654.7969 32.428123L652.8125 32.428123L652.8125 38.975Q652.8125 39.615623 653.0781 39.94375Q653.34375 40.25625 653.9844 40.25625Q654.2969 40.25625 654.84375 40.13125L654.84375 41.6Q654.125 41.803123 653.4531 41.803123Q652.25 41.803123 651.625 41.06875Q651.0156 40.334373 651.0156 38.975L651.0156 32.428123L649.09375 32.428123L649.09375 31.037498L651.0156 31.037498L651.0156 28.474998L652.8125 28.474998Z" fill-rule="nonzero"/></svg>