<svg version="1.1" viewBox="0.0 0.0 787.0 451.0" fill="none" stroke="none" stroke-linecap="square" stroke-miterlimit="10" width="787" height="451" xmlns:xlink="http://www.w3.org/1999/xlink" xmlns="http://www.w3.org/2000/svg"><path fill="#ffffff" d="M0 0L787.0 0L787.0 451.0L0 451.0L0 0Z" fill-rule="nonzero"/><path stroke="#333333" stroke-width="1.0" stroke-linecap="butt" d="M82.5 374.5L764.5 374.5" fill-rule="nonzero"/><path stroke="#cccccc" stroke-width="1.0" stroke-linecap="butt" d="M82.5 272.5L764.5 272.5" fill-rule="nonzero"/><path stroke="#cccccc" stroke-width="1.0" stroke-linecap="butt" d="M82.5 170.5L764.5 170.5" fill-rule="nonzero"/><path stroke="#cccccc" stroke-width="1.0" stroke-linecap="butt" d="M82.5 69.5L764.5 69.5" fill-rule="nonzero"/><clipPath id="id_0"><path d="M82.55 69.083336L764.45 69.083336L764.45 374.45L82.55 374.45L82.55 69.083336Z" clip-rule="nonzero"/></clipPath><path stroke="#000000" stroke-width="0.0" stroke-linecap="butt" stroke-opacity="0.0" clip-path="url(#id_0)" d="M211.0 374.0L128.0 374.0L128.0 356.0C128.0 354.89542 128.89543 354.0 130.0 354.0L209.0 354.0C210.10457 354.0 211.0 354.89542 211.0 356.0Z" fill-rule="nonzero"/><path fill="#4472c4" clip-path="url(#id_0)" d="M211.0 374.0L128.0 374.0L128.0 356.0C128.0 354.89542 128.89543 354.0 130.0 354.0L209.0 354.0C210.10457 354.0 211.0 354.89542 211.0 356.0Z" fill-rule="nonzero"/><path stroke="#000000" stroke-width="0.0" stroke-linecap="butt" stroke-opacity="0.0" clip-path="url(#id_0)" d="M338.0 374.0L255.0 374.0L255.0 244.0C255.0 242.89543 255.89543 242.0 257.0 242.0L336.0 242.0C337.10458 242.0 338.0 242.89543 338.0 244.0Z" fill-rule="nonzero"/><path fill="#4472c4" clip-path="url(#id_0)" d="M338.0 374.0L255.0 374.0L255.0 244.0C255.0 242.89543 255.89543 242.0 257.0 242.0L336.0 242.0C337.10458 242.0 338.0 242.89543 338.0 244.0Z" fill-rule="nonzero"/><path stroke="#000000" stroke-width="0.0" stroke-linecap="butt" stroke-opacity="0.0" clip-path="url(#id_0)" d="M466.0 374.0L383.0 374.0L383.0 112.0C383.0 110.89543 383.89542 110.0 385.0 110.0L464.0 110.0C465.10458 110.0 466.0 110.89543 466.0 112.0Z" fill-rule="nonzero"/><path fill="#4472c4" clip-path="url(#id_0)" d="M466.0 374.0L383.0 374.0L383.0 112.0C383.0 110.89543 383.89542 110.0 385.0 110.0L464.0 110.0C465.10458 110.0 466.0 110.89543 466.0 112.0Z" fill-rule="nonzero"/><path stroke="#000000" stroke-width="0.0" stroke-linecap="butt" stroke-opacity="0.0" clip-path="url(#id_0)" d="M593.0 374.0L510.0 374.0L510.0 122.0C510.0 120.89543 510.89542 120.0 512.0 120.0L591.0 120.0C592.10455 120.0 593.0 120.89543 593.0 122.0Z" fill-rule="nonzero"/><path fill="#4472c4" clip-path="url(#id_0)" d="M593.0 374.0L510.0 374.0L510.0 122.0C510.0 120.89543 510.89542 120.0 512.0 120.0L591.0 120.0C592.10455 120.0 593.0 120.89543 593.0 122.0Z" fill-rule="nonzero"/><path stroke="#000000" stroke-width="0.0" stroke-linecap="butt" stroke-opacity="0.0" clip-path="url(#id_0)" d="M720.0 374.0L637.0 374.0L637.0 275.0C637.0 273.89542 637.89545 273.0 639.0 273.0L718.0 273.0C719.10455 273.0 720.0 273.89542 720.0 275.0Z" fill-rule="nonzero"/><path fill="#4472c4" clip-path="url(#id_0)" d="M720.0 374.0L637.0 374.0L637.0 275.0C637.0 273.89542 637.89545 273.0 639.0 273.0L718.0 273.0C719.10455 273.0 720.0 273.89542 720.0 275.0Z" fill-rule="nonzero"/><path fill="#000000" d="M400.98438 425.45L400.98438 416.91876L403.40625 416.91876Q404.51562 416.91876 405.35938 417.41876Q406.21875 417.90314 406.6875 418.8094Q407.15625 419.71564 407.15625 420.90314L407.15625 421.4344Q407.15625 422.65314 406.6875 423.5594Q406.23438 424.46564 405.35938 424.95Q404.5 425.4344 403.35938 425.45L400.98438 425.45ZM402.10938 417.84064L402.10938 424.52814L403.29688 424.52814Q404.59375 424.52814 405.3125 423.73126Q406.04688 422.91876 406.04688 421.41876L406.04688 420.91876Q406.04688 419.46564 405.35938 418.66876Q404.6875 417.85626 403.42188 417.84064L402.10938 417.84064ZM412.73438 424.825Q412.10938 425.575 410.875 425.575Q409.85938 425.575 409.32812 424.98126Q408.79688 424.3875 408.79688 423.23126L408.79688 419.10626L409.875 419.10626L409.875 423.2Q409.875 424.65314 411.04688 424.65314Q412.29688 424.65314 412.70312 423.71564L412.70312 419.10626L413.79688 419.10626L413.79688 425.45L412.76562 425.45L412.73438 424.825ZM418.89062 420.075Q418.64062 420.04376 418.35938 420.04376Q417.28125 420.04376 416.90625 420.95L416.90625 425.45L415.82812 425.45L415.82812 419.10626L416.875 419.10626L416.89062 419.84064Q417.42188 418.9969 418.40625 418.9969Q418.71875 418.9969 418.89062 419.075L418.89062 420.075ZM423.73438 425.45Q423.64062 425.2625 423.57812 424.77814Q422.82812 425.575 421.78125 425.575Q420.84375 425.575 420.23438 425.04376Q419.64062 424.5125 419.64062 423.6844Q419.64062 422.7 420.39062 422.15314Q421.14062 421.60626 422.51562 421.60626L423.5625 421.60626L423.5625 421.10626Q423.5625 420.54376 423.21875 420.21564Q422.89062 419.8719 422.21875 419.8719Q421.64062 419.8719 421.25 420.16876Q420.85938 420.45 420.85938 420.8719L419.76562 420.8719Q419.76562 420.3875 420.09375 419.95Q420.4375 419.5125 421.01562 419.2625Q421.59375 418.9969 422.28125 418.9969Q423.39062 418.9969 424.0 419.54376Q424.625 420.09064 424.65625 421.04376L424.65625 423.96564Q424.65625 424.84064 424.875 425.35626L424.875 425.45L423.73438 425.45ZM421.9375 424.6219Q422.45312 424.6219 422.90625 424.35626Q423.35938 424.09064 423.5625 423.66876L423.5625 422.3719L422.71875 422.3719Q420.71875 422.3719 420.71875 423.54376Q420.71875 424.04376 421.0625 424.34064Q421.40625 424.6219 421.9375 424.6219ZM428.29688 417.575L428.29688 419.10626L429.46875 419.10626L429.46875 419.95L428.29688 419.95L428.29688 423.8719Q428.29688 424.2625 428.45312 424.45Q428.60938 424.6375 428.98438 424.6375Q429.17188 424.6375 429.5 424.575L429.5 425.45Q429.07812 425.575 428.67188 425.575Q427.95312 425.575 427.57812 425.1375Q427.20312 424.6844 427.20312 423.8719L427.20312 419.95L426.04688 419.95L426.04688 419.10626L427.20312 419.10626L427.20312 417.575L428.29688 417.575ZM432.0 425.45L430.92188 425.45L430.92188 419.10626L432.0 419.10626L432.0 425.45ZM430.82812 417.4344Q430.82812 417.16876 430.98438 416.98126Q431.15625 416.79376 431.46875 416.79376Q431.78125 416.79376 431.9375 416.98126Q432.10938 417.16876 432.10938 417.4344Q432.10938 417.6844 431.9375 417.8719Q431.78125 418.04376 431.46875 418.04376Q431.15625 418.04376 430.98438 417.8719Q430.82812 417.6844 430.82812 417.4344ZM433.53125 422.21564Q433.53125 421.29376 433.89062 420.54376Q434.26562 419.79376 434.92188 419.40314Q435.57812 418.9969 436.40625 418.9969Q437.70312 418.9969 438.5 419.8875Q439.3125 420.77814 439.3125 422.27814L439.3125 422.35626Q439.3125 423.27814 438.95312 424.0125Q438.59375 424.7469 437.9375 425.16876Q437.28125 425.575 436.42188 425.575Q435.14062 425.575 434.32812 424.6844Q433.53125 423.77814 433.53125 422.29376L433.53125 422.21564ZM434.625 422.35626Q434.625 423.40314 435.10938 424.04376Q435.60938 424.6844 436.42188 424.6844Q437.25 424.6844 437.73438 424.04376Q438.21875 423.3875 438.21875 422.21564Q438.21875 421.1844 437.71875 420.54376Q437.23438 419.8875 436.40625 419.8875Q435.60938 419.8875 435.10938 420.52814Q434.625 421.15314 434.625 422.35626ZM441.84375 419.10626L441.875 419.90314Q442.60938 418.9969 443.78125 418.9969Q445.79688 418.9969 445.8125 421.2625L445.8125 425.45L444.71875 425.45L444.71875 421.2469Q444.71875 420.575 444.40625 420.2469Q444.10938 419.91876 443.45312 419.91876Q442.92188 419.91876 442.51562 420.2Q442.125 420.48126 441.90625 420.9344L441.90625 425.45L440.82812 425.45L440.82812 419.10626L441.84375 419.10626Z" fill-rule="nonzero"/><path fill="#000000" d="M31.096888 253.39166L31.096888 255.40729L34.55001 255.40729L34.55001 256.5323L26.018763 256.5323L26.018763 253.70416Q26.018763 252.26666 26.675013 251.50104Q27.331263 250.71979 28.581263 250.71979Q29.378138 250.71979 29.971888 251.15729Q30.565638 251.57916 30.862513 252.34479L34.471886 250.34479L34.55001 250.34479L34.55001 251.54791L31.096888 253.39166ZM30.175013 255.40729L30.175013 253.67291Q30.175013 252.82916 29.753138 252.34479Q29.315638 251.84479 28.581263 251.84479Q27.800013 251.84479 27.378138 252.31354Q26.956263 252.78229 26.940638 253.67291L26.940638 255.40729L30.175013 255.40729ZM34.67501 247.06354Q34.67501 248.36041 33.83126 249.17291Q32.971886 249.96979 31.550013 249.96979L31.362513 249.96979Q30.409388 249.96979 29.675013 249.61041Q28.925013 249.25104 28.518763 248.61041Q28.096888 247.95416 28.096888 247.20416Q28.096888 245.96979 28.909388 245.28229Q29.721888 244.59479 31.237513 244.59479L31.690638 244.59479L31.690638 248.89166Q32.628136 248.86041 33.20626 248.34479Q33.784386 247.81354 33.784386 247.00104Q33.784386 246.43854 33.55001 246.04791Q33.315636 245.64166 32.92501 245.32916L33.440636 244.67291Q34.67501 245.46979 34.67501 247.06354ZM28.987513 247.20416Q28.987513 247.86041 29.471888 248.31354Q29.940638 248.75104 30.800013 248.84479L30.800013 245.67291L30.721888 245.67291Q29.893763 245.71979 29.440638 246.12604Q28.987513 246.51666 28.987513 247.20416ZM32.86251 240.00104Q32.42501 240.00104 32.190636 240.34479Q31.940638 240.67291 31.768763 241.50104Q31.596888 242.31354 31.346888 242.79791Q31.096888 243.28229 30.768763 243.51666Q30.425013 243.73541 29.956263 243.73541Q29.175013 243.73541 28.643763 243.07916Q28.096888 242.42291 28.096888 241.39166Q28.096888 240.31354 28.659388 239.65729Q29.206263 238.98541 30.065638 238.98541L30.065638 240.06354Q29.628138 240.06354 29.315638 240.45416Q28.987513 240.82916 28.987513 241.39166Q28.987513 241.98541 29.253138 242.32916Q29.503138 242.65729 29.909388 242.65729Q30.300013 242.65729 30.503138 242.34479Q30.706263 242.03229 30.893763 241.21979Q31.065638 240.40729 31.315638 239.90729Q31.565638 239.40729 31.925013 239.17291Q32.284386 238.92291 32.784386 238.92291Q33.64376 238.92291 34.159386 239.61041Q34.67501 240.28229 34.67501 241.36041Q34.67501 242.12604 34.409386 242.71979Q34.128136 243.29791 33.64376 243.62604Q33.159386 243.95416 32.596886 243.95416L32.596886 242.87604Q33.14376 242.84479 33.471886 242.43854Q33.784386 242.03229 33.784386 241.36041Q33.784386 240.75104 33.534386 240.37604Q33.284386 240.00104 32.86251 240.00104ZM31.456263 232.34479Q32.89376 232.34479 33.784386 233.00104Q34.67501 233.65729 34.67501 234.79791Q34.67501 235.95416 33.940636 236.61041L36.98751 236.61041L36.98751 237.68854L28.206263 237.68854L28.206263 236.70416L28.909388 236.65729Q28.096888 235.98541 28.096888 234.81354Q28.096888 233.67291 28.956263 233.01666Q29.815638 232.34479 31.346888 232.34479L31.456263 232.34479ZM31.331263 233.42291Q30.253138 233.42291 29.643763 233.89166Q29.018763 234.34479 29.018763 235.14166Q29.018763 236.12604 29.878138 236.61041L32.909386 236.61041Q33.784386 236.12604 33.784386 235.12604Q33.784386 234.34479 33.17501 233.89166Q32.55001 233.42291 31.331263 233.42291ZM31.315638 230.98541Q30.393763 230.98541 29.643763 230.62604Q28.893763 230.25104 28.503138 229.59479Q28.096888 228.93854 28.096888 228.11041Q28.096888 226.81354 28.987513 226.01666Q29.878138 225.20416 31.378138 225.20416L31.456263 225.20416Q32.378136 225.20416 33.11251 225.56354Q33.846886 225.92291 34.26876 226.57916Q34.67501 227.23541 34.67501 228.09479Q34.67501 229.37604 33.784386 230.18854Q32.878136 230.98541 31.393763 230.98541L31.315638 230.98541ZM31.456263 229.89166Q32.503136 229.89166 33.14376 229.40729Q33.784386 228.90729 33.784386 228.09479Q33.784386 227.26666 33.14376 226.78229Q32.48751 226.29791 31.315638 226.29791Q30.284388 226.29791 29.643763 226.79791Q28.987513 227.28229 28.987513 228.11041Q28.987513 228.90729 29.628138 229.40729Q30.253138 229.89166 31.456263 229.89166ZM28.206263 222.67291L29.003138 222.64166Q28.096888 221.90729 28.096888 220.73541Q28.096888 218.71979 30.362513 218.70416L34.55001 218.70416L34.55001 219.79791L30.346888 219.79791Q29.675013 219.79791 29.346888 220.11041Q29.018763 220.40729 29.018763 221.06354Q29.018763 221.59479 29.300013 222.00104Q29.581263 222.39166 30.034388 222.61041L34.55001 222.61041L34.55001 223.68854L28.206263 223.68854L28.206263 222.67291ZM32.86251 213.00104Q32.42501 213.00104 32.190636 213.34479Q31.940638 213.67291 31.768763 214.50104Q31.596888 215.31354 31.346888 215.79791Q31.096888 216.28229 30.768763 216.51666Q30.425013 216.73541 29.956263 216.73541Q29.175013 216.73541 28.643763 216.07916Q28.096888 215.42291 28.096888 214.39166Q28.096888 213.31354 28.659388 212.65729Q29.206263 211.98541 30.065638 211.98541L30.065638 213.06354Q29.628138 213.06354 29.315638 213.45416Q28.987513 213.82916 28.987513 214.39166Q28.987513 214.98541 29.253138 215.32916Q29.503138 215.65729 29.909388 215.65729Q30.300013 215.65729 30.503138 215.34479Q30.706263 215.03229 30.893763 214.21979Q31.065638 213.40729 31.315638 212.90729Q31.565638 212.40729 31.925013 212.17291Q32.284386 211.92291 32.784386 211.92291Q33.64376 211.92291 34.159386 212.61041Q34.67501 213.28229 34.67501 214.36041Q34.67501 215.12604 34.409386 215.71979Q34.128136 216.29791 33.64376 216.62604Q33.159386 216.95416 32.596886 216.95416L32.596886 215.87604Q33.14376 215.84479 33.471886 215.43854Q33.784386 215.03229 33.784386 214.36041Q33.784386 213.75104 33.534386 213.37604Q33.284386 213.00104 32.86251 213.00104ZM34.67501 208.06354Q34.67501 209.36041 33.83126 210.17291Q32.971886 210.96979 31.550013 210.96979L31.362513 210.96979Q30.409388 210.96979 29.675013 210.61041Q28.925013 210.25104 28.518763 209.61041Q28.096888 208.95416 28.096888 208.20416Q28.096888 206.96979 28.909388 206.28229Q29.721888 205.59479 31.237513 205.59479L31.690638 205.59479L31.690638 209.89166Q32.628136 209.86041 33.20626 209.34479Q33.784386 208.81354 33.784386 208.00104Q33.784386 207.43854 33.55001 207.04791Q33.315636 206.64166 32.92501 206.32916L33.440636 205.67291Q34.67501 206.46979 34.67501 208.06354ZM28.987513 208.20416Q28.987513 208.86041 29.471888 209.31354Q29.940638 209.75104 30.800013 209.84479L30.800013 206.67291L30.721888 206.67291Q29.893763 206.71979 29.440638 207.12604Q28.987513 207.51666 28.987513 208.20416ZM32.86251 201.00104Q32.42501 201.00104 32.190636 201.34479Q31.940638 201.67291 31.768763 202.50104Q31.596888 203.31354 31.346888 203.79791Q31.096888 204.28229 30.768763 204.51666Q30.425013 204.73541 29.956263 204.73541Q29.175013 204.73541 28.643763 204.07916Q28.096888 203.42291 28.096888 202.39166Q28.096888 201.31354 28.659388 200.65729Q29.206263 199.98541 30.065638 199.98541L30.065638 201.06354Q29.628138 201.06354 29.315638 201.45416Q28.987513 201.82916 28.987513 202.39166Q28.987513 202.98541 29.253138 203.32916Q29.503138 203.65729 29.909388 203.65729Q30.300013 203.65729 30.503138 203.34479Q30.706263 203.03229 30.893763 202.21979Q31.065638 201.40729 31.315638 200.90729Q31.565638 200.40729 31.925013 200.17291Q32.284386 199.92291 32.784386 199.92291Q33.64376 199.92291 34.159386 200.61041Q34.67501 201.28229 34.67501 202.36041Q34.67501 203.12604 34.409386 203.71979Q34.128136 204.29791 33.64376 204.62604Q33.159386 204.95416 32.596886 204.95416L32.596886 203.87604Q33.14376 203.84479 33.471886 203.43854Q33.784386 203.03229 33.784386 202.36041Q33.784386 201.75104 33.534386 201.37604Q33.284386 201.00104 32.86251 201.00104Z" fill-rule="nonzero"/><path fill="#000000" d="M75.6125 375.3094Q75.6125 377.21564 74.95625 378.15314Q74.31563 379.075 72.925 379.075Q71.56563 379.075 70.90938 378.16876Q70.25313 377.2625 70.22188 375.45L70.22188 374.0125Q70.22188 372.1219 70.8625 371.21564Q71.51875 370.29376 72.90938 370.29376Q74.28438 370.29376 74.94063 371.1844Q75.59688 372.0594 75.6125 373.90314L75.6125 375.3094ZM74.51875 373.825Q74.51875 372.45 74.12813 371.825Q73.75313 371.1844 72.90938 371.1844Q72.08125 371.1844 71.69063 371.825Q71.31563 372.45 71.31563 373.7469L71.31563 375.48126Q71.31563 376.85626 71.70625 377.52814Q72.1125 378.1844 72.925 378.1844Q73.72188 378.1844 74.1125 377.5594Q74.50313 376.9344 74.51875 375.60626L74.51875 373.825Z" fill-rule="nonzero"/><path fill="#000000" d="M66.81563 277.1611L65.7375 277.1611L65.7375 269.94235L63.55 270.73923L63.55 269.75485L66.65938 268.58298L66.81563 268.58298L66.81563 277.1611ZM75.6125 273.52048Q75.6125 275.42673 74.95625 276.36423Q74.31563 277.2861 72.925 277.2861Q71.56563 277.2861 70.90938 276.37985Q70.25313 275.4736 70.22188 273.6611L70.22188 272.2236Q70.22188 270.33298 70.8625 269.42673Q71.51875 268.50485 72.90938 268.50485Q74.28438 268.50485 74.94063 269.39548Q75.59688 270.27048 75.6125 272.11423L75.6125 273.52048ZM74.51875 272.0361Q74.51875 270.6611 74.12813 270.0361Q73.75313 269.39548 72.90938 269.39548Q72.08125 269.39548 71.69063 270.0361Q71.31563 270.6611 71.31563 271.95798L71.31563 273.69235Q71.31563 275.06735 71.70625 275.73923Q72.1125 276.39548 72.925 276.39548Q73.72188 276.39548 74.1125 275.77048Q74.50313 275.14548 74.51875 273.81735L74.51875 272.0361Z" fill-rule="nonzero"/><path fill="#000000" d="M68.84688 175.37222L63.253124 175.37222L63.253124 174.59097L66.20625 171.30972Q66.8625 170.55972 67.1125 170.1066Q67.3625 169.63785 67.3625 169.13785Q67.3625 168.46597 66.95625 168.0441Q66.56563 167.6066 65.87813 167.6066Q65.08125 167.6066 64.62813 168.07535Q64.175 168.52847 64.175 169.3566L63.096874 169.3566Q63.096874 168.1691 63.846874 167.45035Q64.6125 166.71597 65.87813 166.71597Q67.08125 166.71597 67.76875 167.34097Q68.45625 167.96597 68.45625 169.01285Q68.45625 170.26285 66.84688 172.01285L64.56563 174.4816L68.84688 174.4816L68.84688 175.37222ZM75.6125 171.7316Q75.6125 173.63785 74.95625 174.57535Q74.31563 175.49722 72.925 175.49722Q71.56563 175.49722 70.90938 174.59097Q70.25313 173.68472 70.22188 171.87222L70.22188 170.43472Q70.22188 168.5441 70.8625 167.63785Q71.51875 166.71597 72.90938 166.71597Q74.28438 166.71597 74.94063 167.6066Q75.59688 168.4816 75.6125 170.32535L75.6125 171.7316ZM74.51875 170.24722Q74.51875 168.87222 74.12813 168.24722Q73.75313 167.6066 72.90938 167.6066Q72.08125 167.6066 71.69063 168.24722Q71.31563 168.87222 71.31563 170.1691L71.31563 171.90347Q71.31563 173.27847 71.70625 173.95035Q72.1125 174.6066 72.925 174.6066Q73.72188 174.6066 74.1125 173.9816Q74.50313 173.3566 74.51875 172.02847L74.51875 170.24722Z" fill-rule="nonzero"/><path fill="#000000" d="M64.83125 68.78646L65.64375 68.78646Q66.425 68.770836 66.8625 68.38021Q67.3 67.989586 67.3 67.31771Q67.3 65.81771 65.8 65.81771Q65.09688 65.81771 64.675 66.22396Q64.26875 66.63021 64.26875 67.28646L63.175 67.28646Q63.175 66.270836 63.909374 65.59896Q64.65938 64.927086 65.8 64.927086Q67.00313 64.927086 67.69063 65.56771Q68.37813 66.208336 68.37813 67.34896Q68.37813 67.91146 68.01875 68.427086Q67.65938 68.94271 67.03438 69.208336Q67.7375 69.427086 68.1125 69.94271Q68.50313 70.458336 68.50313 71.208336Q68.50313 72.34896 67.75313 73.03646Q67.00313 73.708336 65.8 73.708336Q64.6125 73.708336 63.846874 73.052086Q63.096874 72.395836 63.096874 71.333336L64.19063 71.333336Q64.19063 72.00521 64.62813 72.41146Q65.06563 72.81771 65.81563 72.81771Q66.59688 72.81771 67.00313 72.41146Q67.425 71.989586 67.425 71.22396Q67.425 70.489586 66.97188 70.09896Q66.51875 69.69271 65.64375 69.677086L64.83125 69.677086L64.83125 68.78646ZM75.6125 69.94271Q75.6125 71.84896 74.95625 72.78646Q74.31563 73.708336 72.925 73.708336Q71.56563 73.708336 70.90938 72.802086Q70.25313 71.895836 70.22188 70.083336L70.22188 68.645836Q70.22188 66.75521 70.8625 65.84896Q71.51875 64.927086 72.90938 64.927086Q74.28438 64.927086 74.94063 65.81771Q75.59688 66.69271 75.6125 68.53646L75.6125 69.94271ZM74.51875 68.458336Q74.51875 67.083336 74.12813 66.458336Q73.75313 65.81771 72.90938 65.81771Q72.08125 65.81771 71.69063 66.458336Q71.31563 67.083336 71.31563 68.38021L71.31563 70.114586Q71.31563 71.489586 71.70625 72.16146Q72.1125 72.81771 72.925 72.81771Q73.72188 72.81771 74.1125 72.19271Q74.50313 71.56771 74.51875 70.239586L74.51875 68.458336Z" fill-rule="nonzero"/><path fill="#000000" d="M128.2091 391.52814L132.25598 391.52814L132.25598 392.45L127.06849 392.45L127.06849 383.91876L128.2091 383.91876L128.2091 391.52814ZM135.53723 392.575Q134.24036 392.575 133.42786 391.73126Q132.63098 390.8719 132.63098 389.45L132.63098 389.2625Q132.63098 388.3094 132.99036 387.575Q133.34973 386.825 133.99036 386.41876Q134.6466 385.9969 135.3966 385.9969Q136.63098 385.9969 137.31848 386.8094Q138.00598 387.6219 138.00598 389.1375L138.00598 389.59064L133.7091 389.59064Q133.74036 390.52814 134.25598 391.10626Q134.78723 391.6844 135.59973 391.6844Q136.16223 391.6844 136.55286 391.45Q136.9591 391.21564 137.2716 390.825L137.92786 391.34064Q137.13098 392.575 135.53723 392.575ZM135.3966 386.8875Q134.74036 386.8875 134.28723 387.3719Q133.84973 387.84064 133.75598 388.7L136.92786 388.7L136.92786 388.6219Q136.88098 387.79376 136.47473 387.34064Q136.0841 386.8875 135.3966 386.8875ZM142.59973 390.7625Q142.59973 390.325 142.25598 390.09064Q141.92786 389.84064 141.09973 389.66876Q140.28723 389.4969 139.80286 389.2469Q139.31848 388.9969 139.0841 388.66876Q138.86536 388.325 138.86536 387.85626Q138.86536 387.075 139.5216 386.54376Q140.17786 385.9969 141.2091 385.9969Q142.28723 385.9969 142.94348 386.5594Q143.61536 387.10626 143.61536 387.96564L142.53723 387.96564Q142.53723 387.52814 142.1466 387.21564Q141.7716 386.8875 141.2091 386.8875Q140.61536 386.8875 140.2716 387.15314Q139.94348 387.40314 139.94348 387.8094Q139.94348 388.2 140.25598 388.40314Q140.56848 388.60626 141.38098 388.79376Q142.19348 388.96564 142.69348 389.21564Q143.19348 389.46564 143.42786 389.825Q143.67786 390.1844 143.67786 390.6844Q143.67786 391.54376 142.99036 392.0594Q142.31848 392.575 141.24036 392.575Q140.47473 392.575 139.88098 392.3094Q139.30286 392.02814 138.97473 391.54376Q138.6466 391.0594 138.6466 390.4969L139.72473 390.4969Q139.75598 391.04376 140.16223 391.3719Q140.56848 391.6844 141.24036 391.6844Q141.84973 391.6844 142.22473 391.4344Q142.59973 391.1844 142.59973 390.7625ZM148.59973 390.7625Q148.59973 390.325 148.25598 390.09064Q147.92786 389.84064 147.09973 389.66876Q146.28723 389.4969 145.80286 389.2469Q145.31848 388.9969 145.0841 388.66876Q144.86536 388.325 144.86536 387.85626Q144.86536 387.075 145.5216 386.54376Q146.17786 385.9969 147.2091 385.9969Q148.28723 385.9969 148.94348 386.5594Q149.61536 387.10626 149.61536 387.96564L148.53723 387.96564Q148.53723 387.52814 148.1466 387.21564Q147.7716 386.8875 147.2091 386.8875Q146.61536 386.8875 146.2716 387.15314Q145.94348 387.40314 145.94348 387.8094Q145.94348 388.2 146.25598 388.40314Q146.56848 388.60626 147.38098 388.79376Q148.19348 388.96564 148.69348 389.21564Q149.19348 389.46564 149.42786 389.825Q149.67786 390.1844 149.67786 390.6844Q149.67786 391.54376 148.99036 392.0594Q148.31848 392.575 147.24036 392.575Q146.47473 392.575 145.88098 392.3094Q145.30286 392.02814 144.97473 391.54376Q144.6466 391.0594 144.6466 390.4969L145.72473 390.4969Q145.75598 391.04376 146.16223 391.3719Q146.56848 391.6844 147.24036 391.6844Q147.84973 391.6844 148.22473 391.4344Q148.59973 391.1844 148.59973 390.7625ZM155.38098 384.575L155.38098 386.10626L156.55286 386.10626L156.55286 386.95L155.38098 386.95L155.38098 390.8719Q155.38098 391.2625 155.53723 391.45Q155.69348 391.6375 156.06848 391.6375Q156.25598 391.6375 156.5841 391.575L156.5841 392.45Q156.16223 392.575 155.75598 392.575Q155.03723 392.575 154.66223 392.1375Q154.28723 391.6844 154.28723 390.8719L154.28723 386.95L153.13098 386.95L153.13098 386.10626L154.28723 386.10626L154.28723 384.575L155.38098 384.575ZM158.99036 386.8719Q159.7091 385.9969 160.86536 385.9969Q162.88098 385.9969 162.8966 388.2625L162.8966 392.45L161.80286 392.45L161.80286 388.2469Q161.80286 387.575 161.49036 387.2469Q161.19348 386.91876 160.53723 386.91876Q160.00598 386.91876 159.59973 387.2Q159.2091 387.48126 158.99036 387.9344L158.99036 392.45L157.91223 392.45L157.91223 383.45L158.99036 383.45L158.99036 386.8719ZM168.81848 392.45Q168.72473 392.2625 168.66223 391.77814Q167.91223 392.575 166.86536 392.575Q165.92786 392.575 165.31848 392.04376Q164.72473 391.5125 164.72473 390.6844Q164.72473 389.7 165.47473 389.15314Q166.22473 388.60626 167.59973 388.60626L168.6466 388.60626L168.6466 388.10626Q168.6466 387.54376 168.30286 387.21564Q167.97473 386.8719 167.30286 386.8719Q166.72473 386.8719 166.3341 387.16876Q165.94348 387.45 165.94348 387.8719L164.84973 387.8719Q164.84973 387.3875 165.17786 386.95Q165.5216 386.5125 166.09973 386.2625Q166.67786 385.9969 167.36536 385.9969Q168.47473 385.9969 169.0841 386.54376Q169.7091 387.09064 169.74036 388.04376L169.74036 390.96564Q169.74036 391.84064 169.9591 392.35626L169.9591 392.45L168.81848 392.45ZM167.0216 391.6219Q167.53723 391.6219 167.99036 391.35626Q168.44348 391.09064 168.6466 390.66876L168.6466 389.3719L167.80286 389.3719Q165.80286 389.3719 165.80286 390.54376Q165.80286 391.04376 166.1466 391.34064Q166.49036 391.6219 167.0216 391.6219ZM172.92786 386.10626L172.9591 386.90314Q173.69348 385.9969 174.86536 385.9969Q176.88098 385.9969 176.8966 388.2625L176.8966 392.45L175.80286 392.45L175.80286 388.2469Q175.80286 387.575 175.49036 387.2469Q175.19348 386.91876 174.53723 386.91876Q174.00598 386.91876 173.59973 387.2Q173.2091 387.48126 172.99036 387.9344L172.99036 392.45L171.91223 392.45L171.91223 386.10626L172.92786 386.10626ZM185.81848 392.45Q185.72473 392.2625 185.66223 391.77814Q184.91223 392.575 183.86536 392.575Q182.92786 392.575 182.31848 392.04376Q181.72473 391.5125 181.72473 390.6844Q181.72473 389.7 182.47473 389.15314Q183.22473 388.60626 184.59973 388.60626L185.6466 388.60626L185.6466 388.10626Q185.6466 387.54376 185.30286 387.21564Q184.97473 386.8719 184.30286 386.8719Q183.72473 386.8719 183.3341 387.16876Q182.94348 387.45 182.94348 387.8719L181.84973 387.8719Q181.84973 387.3875 182.17786 386.95Q182.5216 386.5125 183.09973 386.2625Q183.67786 385.9969 184.36536 385.9969Q185.47473 385.9969 186.0841 386.54376Q186.7091 387.09064 186.74036 388.04376L186.74036 390.96564Q186.74036 391.84064 186.9591 392.35626L186.9591 392.45L185.81848 392.45ZM184.0216 391.6219Q184.53723 391.6219 184.99036 391.35626Q185.44348 391.09064 185.6466 390.66876L185.6466 389.3719L184.80286 389.3719Q182.80286 389.3719 182.80286 390.54376Q182.80286 391.04376 183.1466 391.34064Q183.49036 391.6219 184.0216 391.6219ZM191.6466 389.23126Q191.6466 387.7625 192.3341 386.8875Q193.0216 385.9969 194.1466 385.9969Q195.25598 385.9969 195.91223 386.7469L195.91223 383.45L196.99036 383.45L196.99036 392.45L195.99036 392.45L195.94348 391.7625Q195.28723 392.575 194.13098 392.575Q193.03723 392.575 192.3341 391.66876Q191.6466 390.7625 191.6466 389.3094L191.6466 389.23126ZM192.72473 389.35626Q192.72473 390.4344 193.16223 391.04376Q193.61536 391.65314 194.3966 391.65314Q195.42786 391.65314 195.91223 390.71564L195.91223 387.8094Q195.42786 386.91876 194.41223 386.91876Q193.61536 386.91876 193.16223 387.52814Q192.72473 388.1375 192.72473 389.35626ZM202.81848 392.45Q202.72473 392.2625 202.66223 391.77814Q201.91223 392.575 200.86536 392.575Q199.92786 392.575 199.31848 392.04376Q198.72473 391.5125 198.72473 390.6844Q198.72473 389.7 199.47473 389.15314Q200.22473 388.60626 201.59973 388.60626L202.6466 388.60626L202.6466 388.10626Q202.6466 387.54376 202.30286 387.21564Q201.97473 386.8719 201.30286 386.8719Q200.72473 386.8719 200.3341 387.16876Q199.94348 387.45 199.94348 387.8719L198.84973 387.8719Q198.84973 387.3875 199.17786 386.95Q199.5216 386.5125 200.09973 386.2625Q200.67786 385.9969 201.36536 385.9969Q202.47473 385.9969 203.0841 386.54376Q203.7091 387.09064 203.74036 388.04376L203.74036 390.96564Q203.74036 391.84064 203.9591 392.35626L203.9591 392.45L202.81848 392.45ZM201.0216 391.6219Q201.53723 391.6219 201.99036 391.35626Q202.44348 391.09064 202.6466 390.66876L202.6466 389.3719L201.80286 389.3719Q199.80286 389.3719 199.80286 390.54376Q199.80286 391.04376 200.1466 391.34064Q200.49036 391.6219 201.0216 391.6219ZM207.97473 390.85626L209.4591 386.10626L210.61536 386.10626L208.06848 393.4344Q207.47473 395.0125 206.19348 395.0125L205.97473 394.9969L205.5841 394.91876L205.5841 394.04376L205.86536 394.0594Q206.42786 394.0594 206.72473 393.84064Q207.03723 393.6219 207.24036 393.02814L207.47473 392.3719L205.2091 386.10626L206.3966 386.10626L207.97473 390.85626Z" fill-rule="nonzero"/><path fill="#000000" d="M252.16705 391.52814L256.21393 391.52814L256.21393 392.45L251.02643 392.45L251.02643 383.91876L252.16705 383.91876L252.16705 391.52814ZM259.49518 392.575Q258.1983 392.575 257.3858 391.73126Q256.58893 390.8719 256.58893 389.45L256.58893 389.2625Q256.58893 388.3094 256.9483 387.575Q257.30768 386.825 257.9483 386.41876Q258.60455 385.9969 259.35455 385.9969Q260.58893 385.9969 261.27643 386.8094Q261.96393 387.6219 261.96393 389.1375L261.96393 389.59064L257.66705 389.59064Q257.6983 390.52814 258.21393 391.10626Q258.74518 391.6844 259.55768 391.6844Q260.12018 391.6844 260.5108 391.45Q260.91705 391.21564 261.22955 390.825L261.8858 391.34064Q261.08893 392.575 259.49518 392.575ZM259.35455 386.8875Q258.6983 386.8875 258.24518 387.3719Q257.80768 387.84064 257.71393 388.7L260.8858 388.7L260.8858 388.6219Q260.83893 387.79376 260.43268 387.34064Q260.04205 386.8875 259.35455 386.8875ZM266.55768 390.7625Q266.55768 390.325 266.21393 390.09064Q265.8858 389.84064 265.05768 389.66876Q264.24518 389.4969 263.7608 389.2469Q263.27643 388.9969 263.04205 388.66876Q262.8233 388.325 262.8233 387.85626Q262.8233 387.075 263.47955 386.54376Q264.1358 385.9969 265.16705 385.9969Q266.24518 385.9969 266.90143 386.5594Q267.5733 387.10626 267.5733 387.96564L266.49518 387.96564Q266.49518 387.52814 266.10455 387.21564Q265.72955 386.8875 265.16705 386.8875Q264.5733 386.8875 264.22955 387.15314Q263.90143 387.40314 263.90143 387.8094Q263.90143 388.2 264.21393 388.40314Q264.52643 388.60626 265.33893 388.79376Q266.15143 388.96564 266.65143 389.21564Q267.15143 389.46564 267.3858 389.825Q267.6358 390.1844 267.6358 390.6844Q267.6358 391.54376 266.9483 392.0594Q266.27643 392.575 265.1983 392.575Q264.43268 392.575 263.83893 392.3094Q263.2608 392.02814 262.93268 391.54376Q262.60455 391.0594 262.60455 390.4969L263.68268 390.4969Q263.71393 391.04376 264.12018 391.3719Q264.52643 391.6844 265.1983 391.6844Q265.80768 391.6844 266.18268 391.4344Q266.55768 391.1844 266.55768 390.7625ZM272.55768 390.7625Q272.55768 390.325 272.21393 390.09064Q271.8858 389.84064 271.05768 389.66876Q270.24518 389.4969 269.7608 389.2469Q269.27643 388.9969 269.04205 388.66876Q268.8233 388.325 268.8233 387.85626Q268.8233 387.075 269.47955 386.54376Q270.1358 385.9969 271.16705 385.9969Q272.24518 385.9969 272.90143 386.5594Q273.5733 387.10626 273.5733 387.96564L272.49518 387.96564Q272.49518 387.52814 272.10455 387.21564Q271.72955 386.8875 271.16705 386.8875Q270.5733 386.8875 270.22955 387.15314Q269.90143 387.40314 269.90143 387.8094Q269.90143 388.2 270.21393 388.40314Q270.52643 388.60626 271.33893 388.79376Q272.15143 388.96564 272.65143 389.21564Q273.15143 389.46564 273.3858 389.825Q273.6358 390.1844 273.6358 390.6844Q273.6358 391.54376 272.9483 392.0594Q272.27643 392.575 271.1983 392.575Q270.43268 392.575 269.83893 392.3094Q269.2608 392.02814 268.93268 391.54376Q268.60455 391.0594 268.60455 390.4969L269.68268 390.4969Q269.71393 391.04376 270.12018 391.3719Q270.52643 391.6844 271.1983 391.6844Q271.80768 391.6844 272.18268 391.4344Q272.55768 391.1844 272.55768 390.7625ZM279.33893 384.575L279.33893 386.10626L280.5108 386.10626L280.5108 386.95L279.33893 386.95L279.33893 390.8719Q279.33893 391.2625 279.49518 391.45Q279.65143 391.6375 280.02643 391.6375Q280.21393 391.6375 280.54205 391.575L280.54205 392.45Q280.12018 392.575 279.71393 392.575Q278.99518 392.575 278.62018 392.1375Q278.24518 391.6844 278.24518 390.8719L278.24518 386.95L277.08893 386.95L277.08893 386.10626L278.24518 386.10626L278.24518 384.575L279.33893 384.575ZM282.9483 386.8719Q283.66705 385.9969 284.8233 385.9969Q286.83893 385.9969 286.85455 388.2625L286.85455 392.45L285.7608 392.45L285.7608 388.2469Q285.7608 387.575 285.4483 387.2469Q285.15143 386.91876 284.49518 386.91876Q283.96393 386.91876 283.55768 387.2Q283.16705 387.48126 282.9483 387.9344L282.9483 392.45L281.87018 392.45L281.87018 383.45L282.9483 383.45L282.9483 386.8719ZM292.77643 392.45Q292.68268 392.2625 292.62018 391.77814Q291.87018 392.575 290.8233 392.575Q289.8858 392.575 289.27643 392.04376Q288.68268 391.5125 288.68268 390.6844Q288.68268 389.7 289.43268 389.15314Q290.18268 388.60626 291.55768 388.60626L292.60455 388.60626L292.60455 388.10626Q292.60455 387.54376 292.2608 387.21564Q291.93268 386.8719 291.2608 386.8719Q290.68268 386.8719 290.29205 387.16876Q289.90143 387.45 289.90143 387.8719L288.80768 387.8719Q288.80768 387.3875 289.1358 386.95Q289.47955 386.5125 290.05768 386.2625Q290.6358 385.9969 291.3233 385.9969Q292.43268 385.9969 293.04205 386.54376Q293.66705 387.09064 293.6983 388.04376L293.6983 390.96564Q293.6983 391.84064 293.91705 392.35626L293.91705 392.45L292.77643 392.45ZM290.97955 391.6219Q291.49518 391.6219 291.9483 391.35626Q292.40143 391.09064 292.60455 390.66876L292.60455 389.3719L291.7608 389.3719Q289.7608 389.3719 289.7608 390.54376Q289.7608 391.04376 290.10455 391.34064Q290.4483 391.6219 290.97955 391.6219ZM296.8858 386.10626L296.91705 386.90314Q297.65143 385.9969 298.8233 385.9969Q300.83893 385.9969 300.85455 388.2625L300.85455 392.45L299.7608 392.45L299.7608 388.2469Q299.7608 387.575 299.4483 387.2469Q299.15143 386.91876 298.49518 386.91876Q297.96393 386.91876 297.55768 387.2Q297.16705 387.48126 296.9483 387.9344L296.9483 392.45L295.87018 392.45L295.87018 386.10626L296.8858 386.10626ZM309.77643 392.45Q309.68268 392.2625 309.62018 391.77814Q308.87018 392.575 307.8233 392.575Q306.8858 392.575 306.27643 392.04376Q305.68268 391.5125 305.68268 390.6844Q305.68268 389.7 306.43268 389.15314Q307.18268 388.60626 308.55768 388.60626L309.60455 388.60626L309.60455 388.10626Q309.60455 387.54376 309.2608 387.21564Q308.93268 386.8719 308.2608 386.8719Q307.68268 386.8719 307.29205 387.16876Q306.90143 387.45 306.90143 387.8719L305.80768 387.8719Q305.80768 387.3875 306.1358 386.95Q306.47955 386.5125 307.05768 386.2625Q307.6358 385.9969 308.3233 385.9969Q309.43268 385.9969 310.04205 386.54376Q310.66705 387.09064 310.6983 388.04376L310.6983 390.96564Q310.6983 391.84064 310.91705 392.35626L310.91705 392.45L309.77643 392.45ZM307.97955 391.6219Q308.49518 391.6219 308.9483 391.35626Q309.40143 391.09064 309.60455 390.66876L309.60455 389.3719L308.7608 389.3719Q306.7608 389.3719 306.7608 390.54376Q306.7608 391.04376 307.10455 391.34064Q307.4483 391.6219 307.97955 391.6219ZM321.47955 390.95L322.6983 386.10626L323.77643 386.10626L321.93268 392.45L321.05768 392.45L319.5108 387.6375L318.0108 392.45L317.1358 392.45L315.29205 386.10626L316.37018 386.10626L317.62018 390.85626L319.10455 386.10626L319.96393 386.10626L321.47955 390.95ZM327.49518 392.575Q326.1983 392.575 325.3858 391.73126Q324.58893 390.8719 324.58893 389.45L324.58893 389.2625Q324.58893 388.3094 324.9483 387.575Q325.30768 386.825 325.9483 386.41876Q326.60455 385.9969 327.35455 385.9969Q328.58893 385.9969 329.27643 386.8094Q329.96393 387.6219 329.96393 389.1375L329.96393 389.59064L325.66705 389.59064Q325.6983 390.52814 326.21393 391.10626Q326.74518 391.6844 327.55768 391.6844Q328.12018 391.6844 328.5108 391.45Q328.91705 391.21564 329.22955 390.825L329.8858 391.34064Q329.08893 392.575 327.49518 392.575ZM327.35455 386.8875Q326.6983 386.8875 326.24518 387.3719Q325.80768 387.84064 325.71393 388.7L328.8858 388.7L328.8858 388.6219Q328.83893 387.79376 328.43268 387.34064Q328.04205 386.8875 327.35455 386.8875ZM333.49518 392.575Q332.1983 392.575 331.3858 391.73126Q330.58893 390.8719 330.58893 389.45L330.58893 389.2625Q330.58893 388.3094 330.9483 387.575Q331.30768 386.825 331.9483 386.41876Q332.60455 385.9969 333.35455 385.9969Q334.58893 385.9969 335.27643 386.8094Q335.96393 387.6219 335.96393 389.1375L335.96393 389.59064L331.66705 389.59064Q331.6983 390.52814 332.21393 391.10626Q332.74518 391.6844 333.55768 391.6844Q334.12018 391.6844 334.5108 391.45Q334.91705 391.21564 335.22955 390.825L335.8858 391.34064Q335.08893 392.575 333.49518 392.575ZM333.35455 386.8875Q332.6983 386.8875 332.24518 387.3719Q331.80768 387.84064 331.71393 388.7L334.8858 388.7L334.8858 388.6219Q334.83893 387.79376 334.43268 387.34064Q334.04205 386.8875 333.35455 386.8875ZM338.6358 389.5125L337.9483 390.21564L337.9483 392.45L336.87018 392.45L336.87018 383.45L337.9483 383.45L337.9483 388.8875L338.52643 388.2L340.5108 386.10626L341.8233 386.10626L339.35455 388.7625L342.12018 392.45L340.83893 392.45L338.6358 389.5125Z" fill-rule="nonzero"/><path fill="#000000" d="M375.125 391.52814L379.17188 391.52814L379.17188 392.45L373.98438 392.45L373.98438 383.91876L375.125 383.91876L375.125 391.52814ZM382.45312 392.575Q381.15625 392.575 380.34375 391.73126Q379.54688 390.8719 379.54688 389.45L379.54688 389.2625Q379.54688 388.3094 379.90625 387.575Q380.26562 386.825 380.90625 386.41876Q381.5625 385.9969 382.3125 385.9969Q383.54688 385.9969 384.23438 386.8094Q384.92188 387.6219 384.92188 389.1375L384.92188 389.59064L380.625 389.59064Q380.65625 390.52814 381.17188 391.10626Q381.70312 391.6844 382.51562 391.6844Q383.07812 391.6844 383.46875 391.45Q383.875 391.21564 384.1875 390.825L384.84375 391.34064Q384.04688 392.575 382.45312 392.575ZM382.3125 386.8875Q381.65625 386.8875 381.20312 387.3719Q380.76562 387.84064 380.67188 388.7L383.84375 388.7L383.84375 388.6219Q383.79688 387.79376 383.39062 387.34064Q383.0 386.8875 382.3125 386.8875ZM389.51562 390.7625Q389.51562 390.325 389.17188 390.09064Q388.84375 389.84064 388.01562 389.66876Q387.20312 389.4969 386.71875 389.2469Q386.23438 388.9969 386.0 388.66876Q385.78125 388.325 385.78125 387.85626Q385.78125 387.075 386.4375 386.54376Q387.09375 385.9969 388.125 385.9969Q389.20312 385.9969 389.85938 386.5594Q390.53125 387.10626 390.53125 387.96564L389.45312 387.96564Q389.45312 387.52814 389.0625 387.21564Q388.6875 386.8875 388.125 386.8875Q387.53125 386.8875 387.1875 387.15314Q386.85938 387.40314 386.85938 387.8094Q386.85938 388.2 387.17188 388.40314Q387.48438 388.60626 388.29688 388.79376Q389.10938 388.96564 389.60938 389.21564Q390.10938 389.46564 390.34375 389.825Q390.59375 390.1844 390.59375 390.6844Q390.59375 391.54376 389.90625 392.0594Q389.23438 392.575 388.15625 392.575Q387.39062 392.575 386.79688 392.3094Q386.21875 392.02814 385.89062 391.54376Q385.5625 391.0594 385.5625 390.4969L386.64062 390.4969Q386.67188 391.04376 387.07812 391.3719Q387.48438 391.6844 388.15625 391.6844Q388.76562 391.6844 389.14062 391.4344Q389.51562 391.1844 389.51562 390.7625ZM395.51562 390.7625Q395.51562 390.325 395.17188 390.09064Q394.84375 389.84064 394.01562 389.66876Q393.20312 389.4969 392.71875 389.2469Q392.23438 388.9969 392.0 388.66876Q391.78125 388.325 391.78125 387.85626Q391.78125 387.075 392.4375 386.54376Q393.09375 385.9969 394.125 385.9969Q395.20312 385.9969 395.85938 386.5594Q396.53125 387.10626 396.53125 387.96564L395.45312 387.96564Q395.45312 387.52814 395.0625 387.21564Q394.6875 386.8875 394.125 386.8875Q393.53125 386.8875 393.1875 387.15314Q392.85938 387.40314 392.85938 387.8094Q392.85938 388.2 393.17188 388.40314Q393.48438 388.60626 394.29688 388.79376Q395.10938 388.96564 395.60938 389.21564Q396.10938 389.46564 396.34375 389.825Q396.59375 390.1844 396.59375 390.6844Q396.59375 391.54376 395.90625 392.0594Q395.23438 392.575 394.15625 392.575Q393.39062 392.575 392.79688 392.3094Q392.21875 392.02814 391.89062 391.54376Q391.5625 391.0594 391.5625 390.4969L392.64062 390.4969Q392.67188 391.04376 393.07812 391.3719Q393.48438 391.6844 394.15625 391.6844Q394.76562 391.6844 395.14062 391.4344Q395.51562 391.1844 395.51562 390.7625ZM402.29688 384.575L402.29688 386.10626L403.46875 386.10626L403.46875 386.95L402.29688 386.95L402.29688 390.8719Q402.29688 391.2625 402.45312 391.45Q402.60938 391.6375 402.98438 391.6375Q403.17188 391.6375 403.5 391.575L403.5 392.45Q403.07812 392.575 402.67188 392.575Q401.95312 392.575 401.57812 392.1375Q401.20312 391.6844 401.20312 390.8719L401.20312 386.95L400.04688 386.95L400.04688 386.10626L401.20312 386.10626L401.20312 384.575L402.29688 384.575ZM405.90625 386.8719Q406.625 385.9969 407.78125 385.9969Q409.79688 385.9969 409.8125 388.2625L409.8125 392.45L408.71875 392.45L408.71875 388.2469Q408.71875 387.575 408.40625 387.2469Q408.10938 386.91876 407.45312 386.91876Q406.92188 386.91876 406.51562 387.2Q406.125 387.48126 405.90625 387.9344L405.90625 392.45L404.82812 392.45L404.82812 383.45L405.90625 383.45L405.90625 386.8719ZM415.73438 392.45Q415.64062 392.2625 415.57812 391.77814Q414.82812 392.575 413.78125 392.575Q412.84375 392.575 412.23438 392.04376Q411.64062 391.5125 411.64062 390.6844Q411.64062 389.7 412.39062 389.15314Q413.14062 388.60626 414.51562 388.60626L415.5625 388.60626L415.5625 388.10626Q415.5625 387.54376 415.21875 387.21564Q414.89062 386.8719 414.21875 386.8719Q413.64062 386.8719 413.25 387.16876Q412.85938 387.45 412.85938 387.8719L411.76562 387.8719Q411.76562 387.3875 412.09375 386.95Q412.4375 386.5125 413.01562 386.2625Q413.59375 385.9969 414.28125 385.9969Q415.39062 385.9969 416.0 386.54376Q416.625 387.09064 416.65625 388.04376L416.65625 390.96564Q416.65625 391.84064 416.875 392.35626L416.875 392.45L415.73438 392.45ZM413.9375 391.6219Q414.45312 391.6219 414.90625 391.35626Q415.35938 391.09064 415.5625 390.66876L415.5625 389.3719L414.71875 389.3719Q412.71875 389.3719 412.71875 390.54376Q412.71875 391.04376 413.0625 391.34064Q413.40625 391.6219 413.9375 391.6219ZM419.84375 386.10626L419.875 386.90314Q420.60938 385.9969 421.78125 385.9969Q423.79688 385.9969 423.8125 388.2625L423.8125 392.45L422.71875 392.45L422.71875 388.2469Q422.71875 387.575 422.40625 387.2469Q422.10938 386.91876 421.45312 386.91876Q420.92188 386.91876 420.51562 387.2Q420.125 387.48126 419.90625 387.9344L419.90625 392.45L418.82812 392.45L418.82812 386.10626L419.84375 386.10626ZM432.73438 392.45Q432.64062 392.2625 432.57812 391.77814Q431.82812 392.575 430.78125 392.575Q429.84375 392.575 429.23438 392.04376Q428.64062 391.5125 428.64062 390.6844Q428.64062 389.7 429.39062 389.15314Q430.14062 388.60626 431.51562 388.60626L432.5625 388.60626L432.5625 388.10626Q432.5625 387.54376 432.21875 387.21564Q431.89062 386.8719 431.21875 386.8719Q430.64062 386.8719 430.25 387.16876Q429.85938 387.45 429.85938 387.8719L428.76562 387.8719Q428.76562 387.3875 429.09375 386.95Q429.4375 386.5125 430.01562 386.2625Q430.59375 385.9969 431.28125 385.9969Q432.39062 385.9969 433.0 386.54376Q433.625 387.09064 433.65625 388.04376L433.65625 390.96564Q433.65625 391.84064 433.875 392.35626L433.875 392.45L432.73438 392.45ZM430.9375 391.6219Q431.45312 391.6219 431.90625 391.35626Q432.35938 391.09064 432.5625 390.66876L432.5625 389.3719L431.71875 389.3719Q429.71875 389.3719 429.71875 390.54376Q429.71875 391.04376 430.0625 391.34064Q430.40625 391.6219 430.9375 391.6219ZM439.84375 386.10626L439.875 386.8094Q440.5625 385.9969 441.75 385.9969Q443.07812 385.9969 443.5625 387.0125Q443.875 386.5594 444.375 386.27814Q444.89062 385.9969 445.57812 385.9969Q447.67188 385.9969 447.70312 388.2L447.70312 392.45L446.625 392.45L446.625 388.2625Q446.625 387.59064 446.3125 387.2625Q446.0 386.91876 445.26562 386.91876Q444.65625 386.91876 444.25 387.27814Q443.85938 387.6375 443.79688 388.2469L443.79688 392.45L442.71875 392.45L442.71875 388.29376Q442.71875 386.91876 441.35938 386.91876Q440.29688 386.91876 439.90625 387.825L439.90625 392.45L438.8125 392.45L438.8125 386.10626L439.84375 386.10626ZM449.53125 389.21564Q449.53125 388.29376 449.89062 387.54376Q450.26562 386.79376 450.92188 386.40314Q451.57812 385.9969 452.40625 385.9969Q453.70312 385.9969 454.5 386.8875Q455.3125 387.77814 455.3125 389.27814L455.3125 389.35626Q455.3125 390.27814 454.95312 391.0125Q454.59375 391.7469 453.9375 392.16876Q453.28125 392.575 452.42188 392.575Q451.14062 392.575 450.32812 391.6844Q449.53125 390.77814 449.53125 389.29376L449.53125 389.21564ZM450.625 389.35626Q450.625 390.40314 451.10938 391.04376Q451.60938 391.6844 452.42188 391.6844Q453.25 391.6844 453.73438 391.04376Q454.21875 390.3875 454.21875 389.21564Q454.21875 388.1844 453.71875 387.54376Q453.23438 386.8875 452.40625 386.8875Q451.60938 386.8875 451.10938 387.52814Q450.625 388.15314 450.625 389.35626ZM457.84375 386.10626L457.875 386.90314Q458.60938 385.9969 459.78125 385.9969Q461.79688 385.9969 461.8125 388.2625L461.8125 392.45L460.71875 392.45L460.71875 388.2469Q460.71875 387.575 460.40625 387.2469Q460.10938 386.91876 459.45312 386.91876Q458.92188 386.91876 458.51562 387.2Q458.125 387.48126 457.90625 387.9344L457.90625 392.45L456.82812 392.45L456.82812 386.10626L457.84375 386.10626ZM465.29688 384.575L465.29688 386.10626L466.46875 386.10626L466.46875 386.95L465.29688 386.95L465.29688 390.8719Q465.29688 391.2625 465.45312 391.45Q465.60938 391.6375 465.98438 391.6375Q466.17188 391.6375 466.5 391.575L466.5 392.45Q466.07812 392.575 465.67188 392.575Q464.95312 392.575 464.57812 392.1375Q464.20312 391.6844 464.20312 390.8719L464.20312 386.95L463.04688 386.95L463.04688 386.10626L464.20312 386.10626L464.20312 384.575L465.29688 384.575ZM468.90625 386.8719Q469.625 385.9969 470.78125 385.9969Q472.79688 385.9969 472.8125 388.2625L472.8125 392.45L471.71875 392.45L471.71875 388.2469Q471.71875 387.575 471.40625 387.2469Q471.10938 386.91876 470.45312 386.91876Q469.92188 386.91876 469.51562 387.2Q469.125 387.48126 468.90625 387.9344L468.90625 392.45L467.82812 392.45L467.82812 383.45L468.90625 383.45L468.90625 386.8719Z" fill-rule="nonzero"/><path fill="#000000" d="M509.08295 391.52814L513.1298 391.52814L513.1298 392.45L507.94232 392.45L507.94232 383.91876L509.08295 383.91876L509.08295 391.52814ZM516.4111 392.575Q515.1142 392.575 514.3017 391.73126Q513.5048 390.8719 513.5048 389.45L513.5048 389.2625Q513.5048 388.3094 513.8642 387.575Q514.2236 386.825 514.8642 386.41876Q515.52045 385.9969 516.27045 385.9969Q517.5048 385.9969 518.1923 386.8094Q518.8798 387.6219 518.8798 389.1375L518.8798 389.59064L514.58295 389.59064Q514.6142 390.52814 515.1298 391.10626Q515.6611 391.6844 516.4736 391.6844Q517.0361 391.6844 517.4267 391.45Q517.83295 391.21564 518.14545 390.825L518.8017 391.34064Q518.0048 392.575 516.4111 392.575ZM516.27045 386.8875Q515.6142 386.8875 515.1611 387.3719Q514.7236 387.84064 514.6298 388.7L517.8017 388.7L517.8017 388.6219Q517.7548 387.79376 517.3486 387.34064Q516.95795 386.8875 516.27045 386.8875ZM523.4736 390.7625Q523.4736 390.325 523.1298 390.09064Q522.8017 389.84064 521.9736 389.66876Q521.1611 389.4969 520.6767 389.2469Q520.1923 388.9969 519.95795 388.66876Q519.7392 388.325 519.7392 387.85626Q519.7392 387.075 520.39545 386.54376Q521.0517 385.9969 522.08295 385.9969Q523.1611 385.9969 523.8173 386.5594Q524.4892 387.10626 524.4892 387.96564L523.4111 387.96564Q523.4111 387.52814 523.02045 387.21564Q522.64545 386.8875 522.08295 386.8875Q521.4892 386.8875 521.14545 387.15314Q520.8173 387.40314 520.8173 387.8094Q520.8173 388.2 521.1298 388.40314Q521.4423 388.60626 522.2548 388.79376Q523.0673 388.96564 523.5673 389.21564Q524.0673 389.46564 524.3017 389.825Q524.5517 390.1844 524.5517 390.6844Q524.5517 391.54376 523.8642 392.0594Q523.1923 392.575 522.1142 392.575Q521.3486 392.575 520.7548 392.3094Q520.1767 392.02814 519.8486 391.54376Q519.52045 391.0594 519.52045 390.4969L520.5986 390.4969Q520.6298 391.04376 521.0361 391.3719Q521.4423 391.6844 522.1142 391.6844Q522.7236 391.6844 523.0986 391.4344Q523.4736 391.1844 523.4736 390.7625ZM529.4736 390.7625Q529.4736 390.325 529.1298 390.09064Q528.8017 389.84064 527.9736 389.66876Q527.1611 389.4969 526.6767 389.2469Q526.1923 388.9969 525.95795 388.66876Q525.7392 388.325 525.7392 387.85626Q525.7392 387.075 526.39545 386.54376Q527.0517 385.9969 528.08295 385.9969Q529.1611 385.9969 529.8173 386.5594Q530.4892 387.10626 530.4892 387.96564L529.4111 387.96564Q529.4111 387.52814 529.02045 387.21564Q528.64545 386.8875 528.08295 386.8875Q527.4892 386.8875 527.14545 387.15314Q526.8173 387.40314 526.8173 387.8094Q526.8173 388.2 527.1298 388.40314Q527.4423 388.60626 528.2548 388.79376Q529.0673 388.96564 529.5673 389.21564Q530.0673 389.46564 530.3017 389.825Q530.5517 390.1844 530.5517 390.6844Q530.5517 391.54376 529.8642 392.0594Q529.1923 392.575 528.1142 392.575Q527.3486 392.575 526.7548 392.3094Q526.1767 392.02814 525.8486 391.54376Q525.52045 391.0594 525.52045 390.4969L526.5986 390.4969Q526.6298 391.04376 527.0361 391.3719Q527.4423 391.6844 528.1142 391.6844Q528.7236 391.6844 529.0986 391.4344Q529.4736 391.1844 529.4736 390.7625ZM536.2548 384.575L536.2548 386.10626L537.4267 386.10626L537.4267 386.95L536.2548 386.95L536.2548 390.8719Q536.2548 391.2625 536.4111 391.45Q536.5673 391.6375 536.9423 391.6375Q537.1298 391.6375 537.45795 391.575L537.45795 392.45Q537.0361 392.575 536.6298 392.575Q535.9111 392.575 535.5361 392.1375Q535.1611 391.6844 535.1611 390.8719L535.1611 386.95L534.0048 386.95L534.0048 386.10626L535.1611 386.10626L535.1611 384.575L536.2548 384.575ZM539.8642 386.8719Q540.58295 385.9969 541.7392 385.9969Q543.7548 385.9969 543.77045 388.2625L543.77045 392.45L542.6767 392.45L542.6767 388.2469Q542.6767 387.575 542.3642 387.2469Q542.0673 386.91876 541.4111 386.91876Q540.8798 386.91876 540.4736 387.2Q540.08295 387.48126 539.8642 387.9344L539.8642 392.45L538.7861 392.45L538.7861 383.45L539.8642 383.45L539.8642 386.8719ZM549.6923 392.45Q549.5986 392.2625 549.5361 391.77814Q548.7861 392.575 547.7392 392.575Q546.8017 392.575 546.1923 392.04376Q545.5986 391.5125 545.5986 390.6844Q545.5986 389.7 546.3486 389.15314Q547.0986 388.60626 548.4736 388.60626L549.52045 388.60626L549.52045 388.10626Q549.52045 387.54376 549.1767 387.21564Q548.8486 386.8719 548.1767 386.8719Q547.5986 386.8719 547.20795 387.16876Q546.8173 387.45 546.8173 387.8719L545.7236 387.8719Q545.7236 387.3875 546.0517 386.95Q546.39545 386.5125 546.9736 386.2625Q547.5517 385.9969 548.2392 385.9969Q549.3486 385.9969 549.95795 386.54376Q550.58295 387.09064 550.6142 388.04376L550.6142 390.96564Q550.6142 391.84064 550.83295 392.35626L550.83295 392.45L549.6923 392.45ZM547.89545 391.6219Q548.4111 391.6219 548.8642 391.35626Q549.3173 391.09064 549.52045 390.66876L549.52045 389.3719L548.6767 389.3719Q546.6767 389.3719 546.6767 390.54376Q546.6767 391.04376 547.02045 391.34064Q547.3642 391.6219 547.89545 391.6219ZM553.8017 386.10626L553.83295 386.90314Q554.5673 385.9969 555.7392 385.9969Q557.7548 385.9969 557.77045 388.2625L557.77045 392.45L556.6767 392.45L556.6767 388.2469Q556.6767 387.575 556.3642 387.2469Q556.0673 386.91876 555.4111 386.91876Q554.8798 386.91876 554.4736 387.2Q554.08295 387.48126 553.8642 387.9344L553.8642 392.45L552.7861 392.45L552.7861 386.10626L553.8017 386.10626ZM566.6923 392.45Q566.5986 392.2625 566.5361 391.77814Q565.7861 392.575 564.7392 392.575Q563.8017 392.575 563.1923 392.04376Q562.5986 391.5125 562.5986 390.6844Q562.5986 389.7 563.3486 389.15314Q564.0986 388.60626 565.4736 388.60626L566.52045 388.60626L566.52045 388.10626Q566.52045 387.54376 566.1767 387.21564Q565.8486 386.8719 565.1767 386.8719Q564.5986 386.8719 564.20795 387.16876Q563.8173 387.45 563.8173 387.8719L562.7236 387.8719Q562.7236 387.3875 563.0517 386.95Q563.39545 386.5125 563.9736 386.2625Q564.5517 385.9969 565.2392 385.9969Q566.3486 385.9969 566.95795 386.54376Q567.58295 387.09064 567.6142 388.04376L567.6142 390.96564Q567.6142 391.84064 567.83295 392.35626L567.83295 392.45L566.6923 392.45ZM564.89545 391.6219Q565.4111 391.6219 565.8642 391.35626Q566.3173 391.09064 566.52045 390.66876L566.52045 389.3719L565.6767 389.3719Q563.6767 389.3719 563.6767 390.54376Q563.6767 391.04376 564.02045 391.34064Q564.3642 391.6219 564.89545 391.6219ZM574.8486 390.85626L576.33295 386.10626L577.4892 386.10626L574.9423 393.4344Q574.3486 395.0125 573.0673 395.0125L572.8486 394.9969L572.45795 394.91876L572.45795 394.04376L572.7392 394.0594Q573.3017 394.0594 573.5986 393.84064Q573.9111 393.6219 574.1142 393.02814L574.3486 392.3719L572.08295 386.10626L573.27045 386.10626L574.8486 390.85626ZM581.4111 392.575Q580.1142 392.575 579.3017 391.73126Q578.5048 390.8719 578.5048 389.45L578.5048 389.2625Q578.5048 388.3094 578.8642 387.575Q579.2236 386.825 579.8642 386.41876Q580.52045 385.9969 581.27045 385.9969Q582.5048 385.9969 583.1923 386.8094Q583.8798 387.6219 583.8798 389.1375L583.8798 389.59064L579.58295 389.59064Q579.6142 390.52814 580.1298 391.10626Q580.6611 391.6844 581.4736 391.6844Q582.0361 391.6844 582.4267 391.45Q582.83295 391.21564 583.14545 390.825L583.8017 391.34064Q583.0048 392.575 581.4111 392.575ZM581.27045 386.8875Q580.6142 386.8875 580.1611 387.3719Q579.7236 387.84064 579.6298 388.7L582.8017 388.7L582.8017 388.6219Q582.7548 387.79376 582.3486 387.34064Q581.95795 386.8875 581.27045 386.8875ZM588.6923 392.45Q588.5986 392.2625 588.5361 391.77814Q587.7861 392.575 586.7392 392.575Q585.8017 392.575 585.1923 392.04376Q584.5986 391.5125 584.5986 390.6844Q584.5986 389.7 585.3486 389.15314Q586.0986 388.60626 587.4736 388.60626L588.52045 388.60626L588.52045 388.10626Q588.52045 387.54376 588.1767 387.21564Q587.8486 386.8719 587.1767 386.8719Q586.5986 386.8719 586.20795 387.16876Q585.8173 387.45 585.8173 387.8719L584.7236 387.8719Q584.7236 387.3875 585.0517 386.95Q585.39545 386.5125 585.9736 386.2625Q586.5517 385.9969 587.2392 385.9969Q588.3486 385.9969 588.95795 386.54376Q589.58295 387.09064 589.6142 388.04376L589.6142 390.96564Q589.6142 391.84064 589.83295 392.35626L589.83295 392.45L588.6923 392.45ZM586.89545 391.6219Q587.4111 391.6219 587.8642 391.35626Q588.3173 391.09064 588.52045 390.66876L588.52045 389.3719L587.6767 389.3719Q585.6767 389.3719 585.6767 390.54376Q585.6767 391.04376 586.02045 391.34064Q586.3642 391.6219 586.89545 391.6219ZM594.8486 387.075Q594.5986 387.04376 594.3173 387.04376Q593.2392 387.04376 592.8642 387.95L592.8642 392.45L591.7861 392.45L591.7861 386.10626L592.83295 386.10626L592.8486 386.84064Q593.3798 385.9969 594.3642 385.9969Q594.6767 385.9969 594.8486 386.075L594.8486 387.075Z" fill-rule="nonzero"/><path fill="#000000" d="M635.3534 383.91876L638.15027 390.8719L640.9315 383.91876L642.40027 383.91876L642.40027 392.45L641.27527 392.45L641.27527 389.1219L641.38464 385.54376L638.57214 392.45L637.71277 392.45L634.9159 385.5594L635.02527 389.1219L635.02527 392.45L633.90027 392.45L633.90027 383.91876L635.3534 383.91876ZM643.44714 389.21564Q643.44714 388.29376 643.8065 387.54376Q644.1815 386.79376 644.83777 386.40314Q645.494 385.9969 646.32214 385.9969Q647.619 385.9969 648.4159 386.8875Q649.2284 387.77814 649.2284 389.27814L649.2284 389.35626Q649.2284 390.27814 648.869 391.0125Q648.50964 391.7469 647.8534 392.16876Q647.19714 392.575 646.33777 392.575Q645.0565 392.575 644.244 391.6844Q643.44714 390.77814 643.44714 389.29376L643.44714 389.21564ZM644.5409 389.35626Q644.5409 390.40314 645.02527 391.04376Q645.52527 391.6844 646.33777 391.6844Q647.1659 391.6844 647.65027 391.04376Q648.13464 390.3875 648.13464 389.21564Q648.13464 388.1844 647.63464 387.54376Q647.15027 386.8875 646.32214 386.8875Q645.52527 386.8875 645.02527 387.52814Q644.5409 388.15314 644.5409 389.35626ZM653.8065 387.075Q653.5565 387.04376 653.27527 387.04376Q652.19714 387.04376 651.82214 387.95L651.82214 392.45L650.744 392.45L650.744 386.10626L651.7909 386.10626L651.8065 386.84064Q652.33777 385.9969 653.32214 385.9969Q653.63464 385.9969 653.8065 386.075L653.8065 387.075ZM657.369 392.575Q656.07214 392.575 655.25964 391.73126Q654.46277 390.8719 654.46277 389.45L654.46277 389.2625Q654.46277 388.3094 654.82214 387.575Q655.1815 386.825 655.82214 386.41876Q656.4784 385.9969 657.2284 385.9969Q658.46277 385.9969 659.15027 386.8094Q659.83777 387.6219 659.83777 389.1375L659.83777 389.59064L655.5409 389.59064Q655.57214 390.52814 656.08777 391.10626Q656.619 391.6844 657.4315 391.6844Q657.994 391.6844 658.38464 391.45Q658.7909 391.21564 659.1034 390.825L659.75964 391.34064Q658.96277 392.575 657.369 392.575ZM657.2284 386.8875Q656.57214 386.8875 656.119 387.3719Q655.6815 387.84064 655.58777 388.7L658.75964 388.7L658.75964 388.6219Q658.71277 387.79376 658.3065 387.34064Q657.9159 386.8875 657.2284 386.8875ZM665.21277 384.575L665.21277 386.10626L666.38464 386.10626L666.38464 386.95L665.21277 386.95L665.21277 390.8719Q665.21277 391.2625 665.369 391.45Q665.52527 391.6375 665.90027 391.6375Q666.08777 391.6375 666.4159 391.575L666.4159 392.45Q665.994 392.575 665.58777 392.575Q664.869 392.575 664.494 392.1375Q664.119 391.6844 664.119 390.8719L664.119 386.95L662.96277 386.95L662.96277 386.10626L664.119 386.10626L664.119 384.575L665.21277 384.575ZM668.82214 386.8719Q669.5409 385.9969 670.69714 385.9969Q672.71277 385.9969 672.7284 388.2625L672.7284 392.45L671.63464 392.45L671.63464 388.2469Q671.63464 387.575 671.32214 387.2469Q671.02527 386.91876 670.369 386.91876Q669.83777 386.91876 669.4315 387.2Q669.0409 387.48126 668.82214 387.9344L668.82214 392.45L667.744 392.45L667.744 383.45L668.82214 383.45L668.82214 386.8719ZM678.65027 392.45Q678.5565 392.2625 678.494 391.77814Q677.744 392.575 676.69714 392.575Q675.75964 392.575 675.15027 392.04376Q674.5565 391.5125 674.5565 390.6844Q674.5565 389.7 675.3065 389.15314Q676.0565 388.60626 677.4315 388.60626L678.4784 388.60626L678.4784 388.10626Q678.4784 387.54376 678.13464 387.21564Q677.8065 386.8719 677.13464 386.8719Q676.5565 386.8719 676.1659 387.16876Q675.77527 387.45 675.77527 387.8719L674.6815 387.8719Q674.6815 387.3875 675.00964 386.95Q675.3534 386.5125 675.9315 386.2625Q676.50964 385.9969 677.19714 385.9969Q678.3065 385.9969 678.9159 386.54376Q679.5409 387.09064 679.57214 388.04376L679.57214 390.96564Q679.57214 391.84064 679.7909 392.35626L679.7909 392.45L678.65027 392.45ZM676.8534 391.6219Q677.369 391.6219 677.82214 391.35626Q678.27527 391.09064 678.4784 390.66876L678.4784 389.3719L677.63464 389.3719Q675.63464 389.3719 675.63464 390.54376Q675.63464 391.04376 675.9784 391.34064Q676.32214 391.6219 676.8534 391.6219ZM682.75964 386.10626L682.7909 386.90314Q683.52527 385.9969 684.69714 385.9969Q686.71277 385.9969 686.7284 388.2625L686.7284 392.45L685.63464 392.45L685.63464 388.2469Q685.63464 387.575 685.32214 387.2469Q685.02527 386.91876 684.369 386.91876Q683.83777 386.91876 683.4315 387.2Q683.0409 387.48126 682.82214 387.9344L682.82214 392.45L681.744 392.45L681.744 386.10626L682.75964 386.10626ZM695.65027 392.45Q695.5565 392.2625 695.494 391.77814Q694.744 392.575 693.69714 392.575Q692.75964 392.575 692.15027 392.04376Q691.5565 391.5125 691.5565 390.6844Q691.5565 389.7 692.3065 389.15314Q693.0565 388.60626 694.4315 388.60626L695.4784 388.60626L695.4784 388.10626Q695.4784 387.54376 695.13464 387.21564Q694.8065 386.8719 694.13464 386.8719Q693.5565 386.8719 693.1659 387.16876Q692.77527 387.45 692.77527 387.8719L691.6815 387.8719Q691.6815 387.3875 692.00964 386.95Q692.3534 386.5125 692.9315 386.2625Q693.50964 385.9969 694.19714 385.9969Q695.3065 385.9969 695.9159 386.54376Q696.5409 387.09064 696.57214 388.04376L696.57214 390.96564Q696.57214 391.84064 696.7909 392.35626L696.7909 392.45L695.65027 392.45ZM693.8534 391.6219Q694.369 391.6219 694.82214 391.35626Q695.27527 391.09064 695.4784 390.66876L695.4784 389.3719L694.63464 389.3719Q692.63464 389.3719 692.63464 390.54376Q692.63464 391.04376 692.9784 391.34064Q693.32214 391.6219 693.8534 391.6219ZM703.8065 390.85626L705.2909 386.10626L706.44714 386.10626L703.90027 393.4344Q703.3065 395.0125 702.02527 395.0125L701.8065 394.9969L701.4159 394.91876L701.4159 394.04376L701.69714 394.0594Q702.25964 394.0594 702.5565 393.84064Q702.869 393.6219 703.07214 393.02814L703.3065 392.3719L701.0409 386.10626L702.2284 386.10626L703.8065 390.85626ZM710.369 392.575Q709.07214 392.575 708.25964 391.73126Q707.46277 390.8719 707.46277 389.45L707.46277 389.2625Q707.46277 388.3094 707.82214 387.575Q708.1815 386.825 708.82214 386.41876Q709.4784 385.9969 710.2284 385.9969Q711.46277 385.9969 712.15027 386.8094Q712.83777 387.6219 712.83777 389.1375L712.83777 389.59064L708.5409 389.59064Q708.57214 390.52814 709.08777 391.10626Q709.619 391.6844 710.4315 391.6844Q710.994 391.6844 711.38464 391.45Q711.7909 391.21564 712.1034 390.825L712.75964 391.34064Q711.96277 392.575 710.369 392.575ZM710.2284 386.8875Q709.57214 386.8875 709.119 387.3719Q708.6815 387.84064 708.58777 388.7L711.75964 388.7L711.75964 388.6219Q711.71277 387.79376 711.3065 387.34064Q710.9159 386.8875 710.2284 386.8875ZM717.65027 392.45Q717.5565 392.2625 717.494 391.77814Q716.744 392.575 715.69714 392.575Q714.75964 392.575 714.15027 392.04376Q713.5565 391.5125 713.5565 390.6844Q713.5565 389.7 714.3065 389.15314Q715.0565 388.60626 716.4315 388.60626L717.4784 388.60626L717.4784 388.10626Q717.4784 387.54376 717.13464 387.21564Q716.8065 386.8719 716.13464 386.8719Q715.5565 386.8719 715.1659 387.16876Q714.77527 387.45 714.77527 387.8719L713.6815 387.8719Q713.6815 387.3875 714.00964 386.95Q714.3534 386.5125 714.9315 386.2625Q715.50964 385.9969 716.19714 385.9969Q717.3065 385.9969 717.9159 386.54376Q718.5409 387.09064 718.57214 388.04376L718.57214 390.96564Q718.57214 391.84064 718.7909 392.35626L718.7909 392.45L717.65027 392.45ZM715.8534 391.6219Q716.369 391.6219 716.82214 391.35626Q717.27527 391.09064 717.4784 390.66876L717.4784 389.3719L716.63464 389.3719Q714.63464 389.3719 714.63464 390.54376Q714.63464 391.04376 714.9784 391.34064Q715.32214 391.6219 715.8534 391.6219ZM723.8065 387.075Q723.5565 387.04376 723.27527 387.04376Q722.19714 387.04376 721.82214 387.95L721.82214 392.45L720.744 392.45L720.744 386.10626L721.7909 386.10626L721.8065 386.84064Q722.33777 385.9969 723.32214 385.9969Q723.63464 385.9969 723.8065 386.075L723.8065 387.075Z" fill-rule="nonzero"/><path fill="#757575" d="M35.128124 41.55L33.2375 41.55L33.2375 34.971874L26.08125 34.971874L26.08125 41.55L24.20625 41.55L24.20625 27.33125L26.08125 27.33125L26.08125 33.440624L33.2375 33.440624L33.2375 27.33125L35.128124 27.33125L35.128124 41.55ZM37.440624 36.175Q37.440624 34.6125 38.05 33.378124Q38.659374 32.128124 39.7375 31.45625Q40.83125 30.784374 42.2375 30.784374Q44.39375 30.784374 45.721874 32.284374Q47.065624 33.76875 47.065624 36.253124L47.065624 36.378124Q47.065624 37.925 46.471874 39.159374Q45.878124 40.378124 44.76875 41.065624Q43.675 41.753124 42.253124 41.753124Q40.1125 41.753124 38.76875 40.253124Q37.440624 38.753124 37.440624 36.3L37.440624 36.175ZM39.253124 36.378124Q39.253124 38.14375 40.065624 39.20625Q40.89375 40.26875 42.253124 40.26875Q43.628124 40.26875 44.440624 39.190624Q45.253124 38.1125 45.253124 36.175Q45.253124 34.425 44.425 33.346874Q43.596874 32.26875 42.2375 32.26875Q40.89375 32.26875 40.065624 33.33125Q39.253124 34.39375 39.253124 36.378124ZM58.26875 39.065624L60.3 30.9875L62.1125 30.9875L59.034374 41.55L57.565624 41.55L55.003124 33.534374L52.503124 41.55L51.034374 41.55L47.971874 30.9875L49.76875 30.9875L51.846874 38.89375L54.315624 30.9875L55.76875 30.9875L58.26875 39.065624ZM70.87813 41.55L69.08125 41.55L69.08125 26.55L70.87813 26.55L70.87813 41.55ZM73.44063 36.175Q73.44063 34.6125 74.05 33.378124Q74.65938 32.128124 75.7375 31.45625Q76.83125 30.784374 78.2375 30.784374Q80.39375 30.784374 81.72188 32.284374Q83.06563 33.76875 83.06563 36.253124L83.06563 36.378124Q83.06563 37.925 82.47188 39.159374Q81.87813 40.378124 80.76875 41.065624Q79.675 41.753124 78.25313 41.753124Q76.1125 41.753124 74.76875 40.253124Q73.44063 38.753124 73.44063 36.3L73.44063 36.175ZM75.25313 36.378124Q75.25313 38.14375 76.06563 39.20625Q76.89375 40.26875 78.25313 40.26875Q79.62813 40.26875 80.44063 39.190624Q81.25313 38.1125 81.25313 36.175Q81.25313 34.425 80.425 33.346874Q79.59688 32.26875 78.2375 32.26875Q76.89375 32.26875 76.06563 33.33125Q75.25313 34.39375 75.25313 36.378124ZM86.62813 30.9875L86.69063 32.315624Q87.89375 30.784374 89.84688 30.784374Q93.20625 30.784374 93.22188 34.565624L93.22188 41.55L91.425 41.55L91.425 34.55Q91.40938 33.409374 90.89375 32.8625Q90.39375 32.315624 89.3 32.315624Q88.425 32.315624 87.75313 32.784374Q87.09688 33.253124 86.72188 34.01875L86.72188 41.55L84.925 41.55L84.925 30.9875L86.62813 30.9875ZM95.4875 36.175Q95.4875 33.70625 96.62813 32.253124Q97.76875 30.784374 99.65938 30.784374Q101.59688 30.784374 102.675 32.159374L102.76875 30.9875L104.40938 30.9875L104.40938 41.3Q104.40938 43.346874 103.19063 44.51875Q101.9875 45.70625 99.925 45.70625Q98.78438 45.70625 97.69063 45.221874Q96.59688 44.7375 96.01875 43.878124L96.95625 42.8Q98.12813 44.2375 99.8 44.2375Q101.12813 44.2375 101.8625 43.4875Q102.59688 42.753124 102.59688 41.409374L102.59688 40.4875Q101.51875 41.753124 99.64375 41.753124Q97.78438 41.753124 96.62813 40.253124Q95.4875 38.753124 95.4875 36.175ZM97.3 36.378124Q97.3 38.175 98.03438 39.190624Q98.76875 40.20625 100.08125 40.20625Q101.8 40.20625 102.59688 38.659374L102.59688 33.83125Q101.76875 32.315624 100.1125 32.315624Q98.78438 32.315624 98.03438 33.346874Q97.3 34.378124 97.3 36.378124ZM111.47188 36.175Q111.47188 33.753124 112.62813 32.26875Q113.78438 30.784374 115.64375 30.784374Q117.50313 30.784374 118.58125 32.05L118.58125 26.55L120.39375 26.55L120.39375 41.55L118.7375 41.55L118.64375 40.409374Q117.56563 41.753124 115.62813 41.753124Q113.8 41.753124 112.62813 40.253124Q111.47188 38.7375 111.47188 36.315624L111.47188 36.175ZM113.28438 36.378124Q113.28438 38.175 114.01875 39.190624Q114.76875 40.20625 116.08125 40.20625Q117.8 40.20625 118.58125 38.675L118.58125 33.815624Q117.78438 32.315624 116.09688 32.315624Q114.76875 32.315624 114.01875 33.346874Q113.28438 34.378124 113.28438 36.378124ZM124.87813 41.55L123.08125 41.55L123.08125 30.9875L124.87813 30.9875L124.87813 41.55ZM122.925 28.175Q122.925 27.7375 123.19063 27.440624Q123.47188 27.128124 123.9875 27.128124Q124.51875 27.128124 124.78438 27.440624Q125.06563 27.7375 125.06563 28.175Q125.06563 28.6125 124.78438 28.909374Q124.51875 29.20625 123.9875 29.20625Q123.47188 29.20625 123.19063 28.909374Q122.925 28.6125 122.925 28.175ZM127.47188 36.175Q127.47188 33.753124 128.62813 32.26875Q129.78438 30.784374 131.64375 30.784374Q133.50313 30.784374 134.58125 32.05L134.58125 26.55L136.39375 26.55L136.39375 41.55L134.7375 41.55L134.64375 40.409374Q133.56563 41.753124 131.62813 41.753124Q129.8 41.753124 128.62813 40.253124Q127.47188 38.7375 127.47188 36.315624L127.47188 36.175ZM129.28438 36.378124Q129.28438 38.175 130.01875 39.190624Q130.76875 40.20625 132.08125 40.20625Q133.8 40.20625 134.58125 38.675L134.58125 33.815624Q133.78438 32.315624 132.09688 32.315624Q130.76875 32.315624 130.01875 33.346874Q129.28438 34.378124 129.28438 36.378124ZM147.37813 38.909374L149.83125 30.9875L151.76875 30.9875L147.51875 43.175Q146.53438 45.815624 144.39375 45.815624L144.05 45.784374L143.37813 45.659374L143.37813 44.190624L143.8625 44.2375Q144.78438 44.2375 145.28438 43.8625Q145.8 43.4875 146.12813 42.503124L146.53438 41.425L142.76875 30.9875L144.7375 30.9875L147.37813 38.909374ZM152.44063 36.175Q152.44063 34.6125 153.05 33.378124Q153.65938 32.128124 154.7375 31.45625Q155.83125 30.784374 157.2375 30.784374Q159.39375 30.784374 160.72188 32.284374Q162.06563 33.76875 162.06563 36.253124L162.06563 36.378124Q162.06563 37.925 161.47188 39.159374Q160.87813 40.378124 159.76875 41.065624Q158.675 41.753124 157.25313 41.753124Q155.1125 41.753124 153.76875 40.253124Q152.44063 38.753124 152.44063 36.3L152.44063 36.175ZM154.25313 36.378124Q154.25313 38.14375 155.06563 39.20625Q155.89375 40.26875 157.25313 40.26875Q158.62813 40.26875 159.44063 39.190624Q160.25313 38.1125 160.25313 36.175Q160.25313 34.425 159.425 33.346874Q158.59688 32.26875 157.2375 32.26875Q155.89375 32.26875 155.06563 33.33125Q154.25313 34.39375 154.25313 36.378124ZM170.44063 40.503124Q169.39375 41.753124 167.34688 41.753124Q165.65938 41.753124 164.76875 40.76875Q163.89375 39.784374 163.87813 37.8625L163.87813 30.9875L165.69063 30.9875L165.69063 37.815624Q165.69063 40.20625 167.64375 40.20625Q169.70625 40.20625 170.39375 38.675L170.39375 30.9875L172.20625 30.9875L172.20625 41.55L170.4875 41.55L170.44063 40.503124ZM186.44063 40.503124Q185.39375 41.753124 183.34688 41.753124Q181.65938 41.753124 180.76875 40.76875Q179.89375 39.784374 179.87813 37.8625L179.87813 30.9875L181.69063 30.9875L181.69063 37.815624Q181.69063 40.20625 183.64375 40.20625Q185.70625 40.20625 186.39375 38.675L186.39375 30.9875L188.20625 30.9875L188.20625 41.55L186.4875 41.55L186.44063 40.503124ZM197.06563 38.753124Q197.06563 38.01875 196.51875 37.6125Q195.97188 37.20625 194.59688 36.909374Q193.22188 36.6125 192.40938 36.20625Q191.6125 35.8 191.22188 35.2375Q190.84688 34.659374 190.84688 33.878124Q190.84688 32.58125 191.94063 31.690624Q193.03438 30.784374 194.75313 30.784374Q196.55 30.784374 197.65938 31.721874Q198.78438 32.64375 198.78438 34.08125L196.95625 34.08125Q196.95625 33.346874 196.33125 32.815624Q195.70625 32.26875 194.75313 32.26875Q193.75313 32.26875 193.19063 32.70625Q192.64375 33.128124 192.64375 33.83125Q192.64375 34.471874 193.15938 34.815624Q193.675 35.14375 195.03438 35.45625Q196.39375 35.753124 197.22188 36.175Q198.06563 36.58125 198.47188 37.175Q198.87813 37.76875 198.87813 38.6125Q198.87813 40.034374 197.7375 40.89375Q196.6125 41.753124 194.8 41.753124Q193.53438 41.753124 192.55 41.3Q191.58125 40.846874 191.01875 40.05Q190.47188 39.2375 190.47188 38.3L192.28438 38.3Q192.33125 39.20625 193.00313 39.7375Q193.69063 40.26875 194.8 40.26875Q195.83125 40.26875 196.44063 39.8625Q197.06563 39.440624 197.06563 38.753124ZM205.3 41.753124Q203.15938 41.753124 201.8 40.346874Q200.45625 38.925 200.45625 36.565624L200.45625 36.221874Q200.45625 34.659374 201.05 33.425Q201.65938 32.190624 202.7375 31.4875Q203.81563 30.784374 205.08125 30.784374Q207.14375 30.784374 208.28438 32.14375Q209.425 33.503124 209.425 36.034374L209.425 36.784374L202.26875 36.784374Q202.3 38.346874 203.175 39.315624Q204.05 40.26875 205.39375 40.26875Q206.3625 40.26875 207.01875 39.878124Q207.69063 39.4875 208.19063 38.846874L209.28438 39.70625Q207.95625 41.753124 205.3 41.753124ZM205.08125 32.26875Q203.9875 32.26875 203.2375 33.065624Q202.50313 33.8625 202.33125 35.3L207.6125 35.3L207.6125 35.159374Q207.53438 33.784374 206.8625 33.034374Q206.20625 32.26875 205.08125 32.26875ZM222.40938 35.8L219.08125 35.8L219.08125 41.55L217.19063 41.55L217.19063 27.33125L221.89375 27.33125Q224.3 27.33125 225.59688 28.425Q226.89375 29.51875 226.89375 31.6125Q226.89375 32.940624 226.175 33.925Q225.45625 34.909374 224.175 35.39375L227.51875 41.425L227.51875 41.55L225.50313 41.55L222.40938 35.8ZM219.08125 34.26875L221.95625 34.26875Q223.34688 34.26875 224.175 33.55Q225.00313 32.815624 225.00313 31.6125Q225.00313 30.284374 224.20625 29.58125Q223.425 28.878124 221.94063 28.878124L219.08125 28.878124L219.08125 34.26875ZM235.44063 40.503124Q234.39375 41.753124 232.34688 41.753124Q230.65938 41.753124 229.76875 40.76875Q228.89375 39.784374 228.87813 37.8625L228.87813 30.9875L230.69063 30.9875L230.69063 37.815624Q230.69063 40.20625 232.64375 40.20625Q234.70625 40.20625 235.39375 38.675L235.39375 30.9875L237.20625 30.9875L237.20625 41.55L235.4875 41.55L235.44063 40.503124ZM246.06563 38.753124Q246.06563 38.01875 245.51875 37.6125Q244.97188 37.20625 243.59688 36.909374Q242.22188 36.6125 241.40938 36.20625Q240.6125 35.8 240.22188 35.2375Q239.84688 34.659374 239.84688 33.878124Q239.84688 32.58125 240.94063 31.690624Q242.03438 30.784374 243.75313 30.784374Q245.55 30.784374 246.65938 31.721874Q247.78438 32.64375 247.78438 34.08125L245.95625 34.08125Q245.95625 33.346874 245.33125 32.815624Q244.70625 32.26875 243.75313 32.26875Q242.75313 32.26875 242.19063 32.70625Q241.64375 33.128124 241.64375 33.83125Q241.64375 34.471874 242.15938 34.815624Q242.675 35.14375 244.03438 35.45625Q245.39375 35.753124 246.22188 36.175Q247.06563 36.58125 247.47188 37.175Q247.87813 37.76875 247.87813 38.6125Q247.87813 40.034374 246.7375 40.89375Q245.6125 41.753124 243.8 41.753124Q242.53438 41.753124 241.55 41.3Q240.58125 40.846874 240.01875 40.05Q239.47188 39.2375 239.47188 38.3L241.28438 38.3Q241.33125 39.20625 242.00313 39.7375Q242.69063 40.26875 243.8 40.26875Q244.83125 40.26875 245.44063 39.8625Q246.06563 39.440624 246.06563 38.753124ZM252.3625 28.425L252.3625 30.9875L254.34688 30.9875L254.34688 32.378124L252.3625 32.378124L252.3625 38.925Q252.3625 39.565624 252.62813 39.89375Q252.89375 40.20625 253.53438 40.20625Q253.84688 40.20625 254.39375 40.08125L254.39375 41.55Q253.675 41.753124 253.00313 41.753124Q251.8 41.753124 251.175 41.01875Q250.56563 40.284374 250.56563 38.925L250.56563 32.378124L248.64375 32.378124L248.64375 30.9875L250.56563 30.9875L250.56563 28.425L252.3625 28.425ZM270.8625 36.378124Q270.8625 38.8 269.7531 40.284374Q268.64374 41.753124 266.76874 41.753124Q264.7531 41.753124 263.65936 40.33125L263.58124 41.55L261.925 41.55L261.925 26.55L263.72186 26.55L263.72186 32.14375Q264.8156 30.784374 266.7375 30.784374Q268.65936 30.784374 269.7531 32.2375Q270.8625 33.690624 270.8625 36.221874L270.8625 36.378124ZM269.05 36.175Q269.05 34.33125 268.33124 33.33125Q267.6281 32.315624 266.3 32.315624Q264.5031 32.315624 263.72186 33.9875L263.72186 38.55Q264.55 40.20625 266.3156 40.20625Q267.6125 40.20625 268.33124 39.20625Q269.05 38.20625 269.05 36.175ZM277.3 41.753124Q275.15936 41.753124 273.8 40.346874Q272.45624 38.925 272.45624 36.565624L272.45624 36.221874Q272.45624 34.659374 273.05 33.425Q273.65936 32.190624 274.7375 31.4875Q275.8156 30.784374 277.08124 30.784374Q279.14374 30.784374 280.28436 32.14375Q281.425 33.503124 281.425 36.034374L281.425 36.784374L274.26874 36.784374Q274.3 38.346874 275.175 39.315624Q276.05 40.26875 277.39374 40.26875Q278.3625 40.26875 279.01874 39.878124Q279.6906 39.4875 280.1906 38.846874L281.28436 39.70625Q279.95624 41.753124 277.3 41.753124ZM277.08124 32.26875Q275.9875 32.26875 275.2375 33.065624Q274.5031 33.8625 274.33124 35.3L279.6125 35.3L279.6125 35.159374Q279.53436 33.784374 278.8625 33.034374Q278.20624 32.26875 277.08124 32.26875ZM284.8 41.55L284.8 32.378124L283.14374 32.378124L283.14374 30.9875L284.8 30.9875L284.8 29.89375Q284.8 28.20625 285.70624 27.284374Q286.6281 26.346874 288.28436 26.346874Q288.90936 26.346874 289.51874 26.503124L289.425 27.971874Q288.97186 27.89375 288.45624 27.89375Q287.5656 27.89375 287.08124 28.409374Q286.6125 28.909374 286.6125 29.8625L286.6125 30.9875L288.8625 30.9875L288.8625 32.378124L286.6125 32.378124L286.6125 41.55L284.8 41.55ZM290.4406 36.175Q290.4406 34.6125 291.05 33.378124Q291.65936 32.128124 292.7375 31.45625Q293.83124 30.784374 295.2375 30.784374Q297.39374 30.784374 298.72186 32.284374Q300.0656 33.76875 300.0656 36.253124L300.0656 36.378124Q300.0656 37.925 299.47186 39.159374Q298.8781 40.378124 297.76874 41.065624Q296.675 41.753124 295.2531 41.753124Q293.1125 41.753124 291.76874 40.253124Q290.4406 38.753124 290.4406 36.3L290.4406 36.175ZM292.2531 36.378124Q292.2531 38.14375 293.0656 39.20625Q293.89374 40.26875 295.2531 40.26875Q296.6281 40.26875 297.4406 39.190624Q298.2531 38.1125 298.2531 36.175Q298.2531 34.425 297.425 33.346874Q296.59686 32.26875 295.2375 32.26875Q293.89374 32.26875 293.0656 33.33125Q292.2531 34.39375 292.2531 36.378124ZM307.01874 32.596874Q306.6125 32.534374 306.14374 32.534374Q304.3625 32.534374 303.72186 34.05L303.72186 41.55L301.925 41.55L301.925 30.9875L303.675 30.9875L303.70624 32.20625Q304.59686 30.784374 306.22186 30.784374Q306.7531 30.784374 307.01874 30.925L307.01874 32.596874ZM313.3 41.753124Q311.15936 41.753124 309.8 40.346874Q308.45624 38.925 308.45624 36.565624L308.45624 36.221874Q308.45624 34.659374 309.05 33.425Q309.65936 32.190624 310.7375 31.4875Q311.8156 30.784374 313.08124 30.784374Q315.14374 30.784374 316.28436 32.14375Q317.425 33.503124 317.425 36.034374L317.425 36.784374L310.26874 36.784374Q310.3 38.346874 311.175 39.315624Q312.05 40.26875 313.39374 40.26875Q314.3625 40.26875 315.01874 39.878124Q315.6906 39.4875 316.1906 38.846874L317.28436 39.70625Q315.95624 41.753124 313.3 41.753124ZM313.08124 32.26875Q311.9875 32.26875 311.2375 33.065624Q310.5031 33.8625 310.33124 35.3L315.6125 35.3L315.6125 35.159374Q315.53436 33.784374 314.8625 33.034374Q314.20624 32.26875 313.08124 32.26875ZM328.3781 38.909374L330.83124 30.9875L332.76874 30.9875L328.51874 43.175Q327.53436 45.815624 325.39374 45.815624L325.05 45.784374L324.3781 45.659374L324.3781 44.190624L324.8625 44.2375Q325.78436 44.2375 326.28436 43.8625Q326.8 43.4875 327.1281 42.503124L327.53436 41.425L323.76874 30.9875L325.7375 30.9875L328.3781 38.909374ZM333.4406 36.175Q333.4406 34.6125 334.05 33.378124Q334.65936 32.128124 335.7375 31.45625Q336.83124 30.784374 338.2375 30.784374Q340.39374 30.784374 341.72186 32.284374Q343.0656 33.76875 343.0656 36.253124L343.0656 36.378124Q343.0656 37.925 342.47186 39.159374Q341.8781 40.378124 340.76874 41.065624Q339.675 41.753124 338.2531 41.753124Q336.1125 41.753124 334.76874 40.253124Q333.4406 38.753124 333.4406 36.3L333.4406 36.175ZM335.2531 36.378124Q335.2531 38.14375 336.0656 39.20625Q336.89374 40.26875 338.2531 40.26875Q339.6281 40.26875 340.4406 39.190624Q341.2531 38.1125 341.2531 36.175Q341.2531 34.425 340.425 33.346874Q339.59686 32.26875 338.2375 32.26875Q336.89374 32.26875 336.0656 33.33125Q335.2531 34.39375 335.2531 36.378124ZM351.4406 40.503124Q350.39374 41.753124 348.34686 41.753124Q346.65936 41.753124 345.76874 40.76875Q344.89374 39.784374 344.8781 37.8625L344.8781 30.9875L346.6906 30.9875L346.6906 37.815624Q346.6906 40.20625 348.64374 40.20625Q350.70624 40.20625 351.39374 38.675L351.39374 30.9875L353.20624 30.9875L353.20624 41.55L351.4875 41.55L351.4406 40.503124ZM367.0656 38.753124Q367.0656 38.01875 366.51874 37.6125Q365.97186 37.20625 364.59686 36.909374Q363.22186 36.6125 362.40936 36.20625Q361.6125 35.8 361.22186 35.2375Q360.84686 34.659374 360.84686 33.878124Q360.84686 32.58125 361.9406 31.690624Q363.03436 30.784374 364.7531 30.784374Q366.55 30.784374 367.65936 31.721874Q368.78436 32.64375 368.78436 34.08125L366.95624 34.08125Q366.95624 33.346874 366.33124 32.815624Q365.70624 32.26875 364.7531 32.26875Q363.7531 32.26875 363.1906 32.70625Q362.64374 33.128124 362.64374 33.83125Q362.64374 34.471874 363.15936 34.815624Q363.675 35.14375 365.03436 35.45625Q366.39374 35.753124 367.22186 36.175Q368.0656 36.58125 368.47186 37.175Q368.8781 37.76875 368.8781 38.6125Q368.8781 40.034374 367.7375 40.89375Q366.6125 41.753124 364.8 41.753124Q363.53436 41.753124 362.55 41.3Q361.58124 40.846874 361.01874 40.05Q360.47186 39.2375 360.47186 38.3L362.28436 38.3Q362.33124 39.20625 363.0031 39.7375Q363.6906 40.26875 364.8 40.26875Q365.83124 40.26875 366.4406 39.8625Q367.0656 39.440624 367.0656 38.753124ZM373.3625 28.425L373.3625 30.9875L375.34686 30.9875L375.34686 32.378124L373.3625 32.378124L373.3625 38.925Q373.3625 39.565624 373.6281 39.89375Q373.89374 40.20625 374.53436 40.20625Q374.84686 40.20625 375.39374 40.08125L375.39374 41.55Q374.675 41.753124 374.0031 41.753124Q372.8 41.753124 372.175 41.01875Q371.5656 40.284374 371.5656 38.925L371.5656 32.378124L369.64374 32.378124L369.64374 30.9875L371.5656 30.9875L371.5656 28.425L373.3625 28.425ZM377.4406 36.175Q377.4406 34.6125 378.05 33.378124Q378.65936 32.128124 379.7375 31.45625Q380.83124 30.784374 382.2375 30.784374Q384.39374 30.784374 385.72186 32.284374Q387.0656 33.76875 387.0656 36.253124L387.0656 36.378124Q387.0656 37.925 386.47186 39.159374Q385.8781 40.378124 384.76874 41.065624Q383.675 41.753124 382.2531 41.753124Q380.1125 41.753124 378.76874 40.253124Q377.4406 38.753124 377.4406 36.3L377.4406 36.175ZM379.2531 36.378124Q379.2531 38.14375 380.0656 39.20625Q380.89374 40.26875 382.2531 40.26875Q383.6281 40.26875 384.4406 39.190624Q385.2531 38.1125 385.2531 36.175Q385.2531 34.425 384.425 33.346874Q383.59686 32.26875 382.2375 32.26875Q380.89374 32.26875 380.0656 33.33125Q379.2531 34.39375 379.2531 36.378124ZM397.84686 36.378124Q397.84686 38.8 396.7375 40.284374Q395.64374 41.753124 393.7531 41.753124Q391.83124 41.753124 390.72186 40.51875L390.72186 45.6125L388.925 45.6125L388.925 30.9875L390.5656 30.9875L390.65936 32.159374Q391.7531 30.784374 393.72186 30.784374Q395.6281 30.784374 396.7375 32.221874Q397.84686 33.659374 397.84686 36.221874L397.84686 36.378124ZM396.03436 36.175Q396.03436 34.39375 395.26874 33.3625Q394.51874 32.315624 393.1906 32.315624Q391.55 32.315624 390.72186 33.76875L390.72186 38.83125Q391.53436 40.26875 393.20624 40.26875Q394.5031 40.26875 395.26874 39.2375Q396.03436 38.20625 396.03436 36.175ZM408.84686 36.378124Q408.84686 38.8 407.7375 40.284374Q406.64374 41.753124 404.7531 41.753124Q402.83124 41.753124 401.72186 40.51875L401.72186 45.6125L399.925 45.6125L399.925 30.9875L401.5656 30.9875L401.65936 32.159374Q402.7531 30.784374 404.72186 30.784374Q406.6281 30.784374 407.7375 32.221874Q408.84686 33.659374 408.84686 36.221874L408.84686 36.378124ZM407.03436 36.175Q407.03436 34.39375 406.26874 33.3625Q405.51874 32.315624 404.1906 32.315624Q402.55 32.315624 401.72186 33.76875L401.72186 38.83125Q402.53436 40.26875 404.20624 40.26875Q405.5031 40.26875 406.26874 39.2375Q407.03436 38.20625 407.03436 36.175ZM415.3 41.753124Q413.15936 41.753124 411.8 40.346874Q410.45624 38.925 410.45624 36.565624L410.45624 36.221874Q410.45624 34.659374 411.05 33.425Q411.65936 32.190624 412.7375 31.4875Q413.8156 30.784374 415.08124 30.784374Q417.14374 30.784374 418.28436 32.14375Q419.425 33.503124 419.425 36.034374L419.425 36.784374L412.26874 36.784374Q412.3 38.346874 413.175 39.315624Q414.05 40.26875 415.39374 40.26875Q416.3625 40.26875 417.01874 39.878124Q417.6906 39.4875 418.1906 38.846874L419.28436 39.70625Q417.95624 41.753124 415.3 41.753124ZM415.08124 32.26875Q413.9875 32.26875 413.2375 33.065624Q412.5031 33.8625 412.33124 35.3L417.6125 35.3L417.6125 35.159374Q417.53436 33.784374 416.8625 33.034374Q416.20624 32.26875 415.08124 32.26875ZM421.47186 36.175Q421.47186 33.753124 422.6281 32.26875Q423.78436 30.784374 425.64374 30.784374Q427.5031 30.784374 428.58124 32.05L428.58124 26.55L430.39374 26.55L430.39374 41.55L428.7375 41.55L428.64374 40.409374Q427.5656 41.753124 425.6281 41.753124Q423.8 41.753124 422.6281 40.253124Q421.47186 38.7375 421.47186 36.315624L421.47186 36.175ZM423.28436 36.378124Q423.28436 38.175 424.01874 39.190624Q424.76874 40.20625 426.08124 40.20625Q427.8 40.20625 428.58124 38.675L428.58124 33.815624Q427.78436 32.315624 426.09686 32.315624Q424.76874 32.315624 424.01874 33.346874Q423.28436 34.378124 423.28436 36.378124ZM435.03436 37.55Q435.05 36.378124 435.3 35.70625Q435.55 35.034374 436.3 34.221874L437.58124 32.89375Q438.39374 31.971874 438.39374 30.909374Q438.39374 29.878124 437.84686 29.3Q437.3156 28.721874 436.3 28.721874Q435.3 28.721874 434.6906 29.253124Q434.09686 29.76875 434.09686 30.659374L432.28436 30.659374Q432.3 29.08125 433.40936 28.1125Q434.51874 27.128124 436.3 27.128124Q438.14374 27.128124 439.175 28.128124Q440.20624 29.1125 440.20624 30.846874Q440.20624 32.55 438.6281 34.221874L437.55 35.26875Q436.84686 36.065624 436.84686 37.55L435.03436 37.55ZM434.95624 40.64375Q434.95624 40.20625 435.22186 39.909374Q435.5031 39.6125 436.01874 39.6125Q436.55 39.6125 436.8156 39.909374Q437.09686 40.20625 437.09686 40.64375Q437.09686 41.08125 436.8156 41.378124Q436.55 41.659374 436.01874 41.659374Q435.5031 41.659374 435.22186 41.378124Q434.95624 41.08125 434.95624 40.64375ZM446.84686 35.784374Q446.84686 33.565624 447.4406 31.534374Q448.03436 29.503124 449.20624 27.846874Q450.3781 26.190624 451.6281 25.503124L452.0031 26.690624Q450.58124 27.784374 449.65936 30.034374Q448.7531 32.284374 448.65936 35.065624L448.65936 35.89375Q448.65936 39.659374 450.03436 42.440624Q450.8625 44.096874 452.0031 45.034374L451.6281 46.14375Q450.33124 45.425 449.15936 43.721874Q446.84686 40.39375 446.84686 35.784374ZM458.39374 35.20625Q455.97186 34.51875 454.8781 33.51875Q453.78436 32.503124 453.78436 31.01875Q453.78436 29.33125 455.1281 28.2375Q456.47186 27.128124 458.6125 27.128124Q460.08124 27.128124 461.22186 27.70625Q462.3781 28.26875 463.0031 29.26875Q463.6281 30.253124 463.6281 31.440624L461.7531 31.440624Q461.7531 30.159374 460.925 29.425Q460.1125 28.675 458.6125 28.675Q457.22186 28.675 456.4406 29.284374Q455.675 29.89375 455.675 30.9875Q455.675 31.846874 456.40936 32.45625Q457.14374 33.05 458.90936 33.55Q460.6906 34.05 461.6906 34.659374Q462.6906 35.253124 463.175 36.05Q463.65936 36.846874 463.65936 37.940624Q463.65936 39.659374 462.3156 40.70625Q460.97186 41.753124 458.70624 41.753124Q457.2531 41.753124 455.97186 41.190624Q454.70624 40.628124 454.01874 39.659374Q453.33124 38.675 453.33124 37.425L455.22186 37.425Q455.22186 38.721874 456.175 39.471874Q457.1281 40.20625 458.70624 40.20625Q460.1906 40.20625 460.9875 39.6125Q461.78436 39.003124 461.78436 37.95625Q461.78436 36.909374 461.05 36.346874Q460.3156 35.76875 458.39374 35.20625ZM468.3625 28.425L468.3625 30.9875L470.34686 30.9875L470.34686 32.378124L468.3625 32.378124L468.3625 38.925Q468.3625 39.565624 468.6281 39.89375Q468.89374 40.20625 469.53436 40.20625Q469.84686 40.20625 470.39374 40.08125L470.39374 41.55Q469.675 41.753124 469.0031 41.753124Q467.8 41.753124 467.175 41.01875Q466.5656 40.284374 466.5656 38.925L466.5656 32.378124L464.64374 32.378124L464.64374 30.9875L466.5656 30.9875L466.5656 28.425L468.3625 28.425ZM472.4406 36.175Q472.4406 34.6125 473.05 33.378124Q473.65936 32.128124 474.7375 31.45625Q475.83124 30.784374 477.2375 30.784374Q479.39374 30.784374 480.72186 32.284374Q482.0656 33.76875 482.0656 36.253124L482.0656 36.378124Q482.0656 37.925 481.47186 39.159374Q480.8781 40.378124 479.76874 41.065624Q478.675 41.753124 477.2531 41.753124Q475.1125 41.753124 473.76874 40.253124Q472.4406 38.753124 472.4406 36.3L472.4406 36.175ZM474.2531 36.378124Q474.2531 38.14375 475.0656 39.20625Q475.89374 40.26875 477.2531 40.26875Q478.6281 40.26875 479.4406 39.190624Q480.2531 38.1125 480.2531 36.175Q480.2531 34.425 479.425 33.346874Q478.59686 32.26875 477.2375 32.26875Q475.89374 32.26875 475.0656 33.33125Q474.2531 34.39375 474.2531 36.378124ZM492.84686 36.378124Q492.84686 38.8 491.7375 40.284374Q490.64374 41.753124 488.7531 41.753124Q486.83124 41.753124 485.72186 40.51875L485.72186 45.6125L483.925 45.6125L483.925 30.9875L485.5656 30.9875L485.65936 32.159374Q486.7531 30.784374 488.72186 30.784374Q490.6281 30.784374 491.7375 32.221874Q492.84686 33.659374 492.84686 36.221874L492.84686 36.378124ZM491.03436 36.175Q491.03436 34.39375 490.26874 33.3625Q489.51874 32.315624 488.1906 32.315624Q486.55 32.315624 485.72186 33.76875L485.72186 38.83125Q486.53436 40.26875 488.20624 40.26875Q489.5031 40.26875 490.26874 39.2375Q491.03436 38.20625 491.03436 36.175ZM503.84686 36.378124Q503.84686 38.8 502.7375 40.284374Q501.64374 41.753124 499.7531 41.753124Q497.83124 41.753124 496.72186 40.51875L496.72186 45.6125L494.925 45.6125L494.925 30.9875L496.5656 30.9875L496.65936 32.159374Q497.7531 30.784374 499.72186 30.784374Q501.6281 30.784374 502.7375 32.221874Q503.84686 33.659374 503.84686 36.221874L503.84686 36.378124ZM502.03436 36.175Q502.03436 34.39375 501.26874 33.3625Q500.51874 32.315624 499.1906 32.315624Q497.55 32.315624 496.72186 33.76875L496.72186 38.83125Q497.53436 40.26875 499.20624 40.26875Q500.5031 40.26875 501.26874 39.2375Q502.03436 38.20625 502.03436 36.175ZM510.3 41.753124Q508.15936 41.753124 506.8 40.346874Q505.45624 38.925 505.45624 36.565624L505.45624 36.221874Q505.45624 34.659374 506.05 33.425Q506.65936 32.190624 507.7375 31.4875Q508.8156 30.784374 510.08124 30.784374Q512.14374 30.784374 513.28436 32.14375Q514.425 33.503124 514.425 36.034374L514.425 36.784374L507.26874 36.784374Q507.3 38.346874 508.175 39.315624Q509.05 40.26875 510.39374 40.26875Q511.3625 40.26875 512.01874 39.878124Q512.6906 39.4875 513.1906 38.846874L514.28436 39.70625Q512.95624 41.753124 510.3 41.753124ZM510.08124 32.26875Q508.9875 32.26875 508.2375 33.065624Q507.5031 33.8625 507.33124 35.3L512.6125 35.3L512.6125 35.159374Q512.53436 33.784374 511.8625 33.034374Q511.20624 32.26875 510.08124 32.26875ZM516.47186 36.175Q516.47186 33.753124 517.6281 32.26875Q518.78436 30.784374 520.64374 30.784374Q522.5031 30.784374 523.58124 32.05L523.58124 26.55L525.39374 26.55L525.39374 41.55L523.7375 41.55L523.64374 40.409374Q522.5656 41.753124 520.6281 41.753124Q518.8 41.753124 517.6281 40.253124Q516.47186 38.7375 516.47186 36.315624L516.47186 36.175ZM518.28436 36.378124Q518.28436 38.175 519.01874 39.190624Q519.76874 40.20625 521.08124 40.20625Q522.8 40.20625 523.58124 38.675L523.58124 33.815624Q522.78436 32.315624 521.09686 32.315624Q519.76874 32.315624 519.01874 33.346874Q518.28436 34.378124 518.28436 36.378124ZM534.6125 30.9875L534.65936 32.159374Q535.83124 30.784374 537.8 30.784374Q540.01874 30.784374 540.8156 32.4875Q541.34686 31.721874 542.1906 31.253124Q543.03436 30.784374 544.1906 30.784374Q547.65936 30.784374 547.72186 34.471874L547.72186 41.55L545.90936 41.55L545.90936 34.58125Q545.90936 33.440624 545.39374 32.878124Q544.8781 32.315624 543.65936 32.315624Q542.65936 32.315624 541.9875 32.925Q541.33124 33.51875 541.22186 34.534374L541.22186 41.55L539.40936 41.55L539.40936 34.628124Q539.40936 32.315624 537.14374 32.315624Q535.3625 32.315624 534.72186 33.83125L534.72186 41.55L532.90936 41.55L532.90936 30.9875L534.6125 30.9875ZM550.4406 36.175Q550.4406 34.6125 551.05 33.378124Q551.65936 32.128124 552.7375 31.45625Q553.83124 30.784374 555.2375 30.784374Q557.39374 30.784374 558.72186 32.284374Q560.0656 33.76875 560.0656 36.253124L560.0656 36.378124Q560.0656 37.925 559.47186 39.159374Q558.8781 40.378124 557.76874 41.065624Q556.675 41.753124 555.2531 41.753124Q553.1125 41.753124 551.76874 40.253124Q550.4406 38.753124 550.4406 36.3L550.4406 36.175ZM552.2531 36.378124Q552.2531 38.14375 553.0656 39.20625Q553.89374 40.26875 555.2531 40.26875Q556.6281 40.26875 557.4406 39.190624Q558.2531 38.1125 558.2531 36.175Q558.2531 34.425 557.425 33.346874Q556.59686 32.26875 555.2375 32.26875Q553.89374 32.26875 553.0656 33.33125Q552.2531 34.39375 552.2531 36.378124ZM567.01874 32.596874Q566.6125 32.534374 566.14374 32.534374Q564.3625 32.534374 563.72186 34.05L563.72186 41.55L561.925 41.55L561.925 30.9875L563.675 30.9875L563.70624 32.20625Q564.59686 30.784374 566.22186 30.784374Q566.7531 30.784374 567.01874 30.925L567.01874 32.596874ZM573.3 41.753124Q571.15936 41.753124 569.8 40.346874Q568.45624 38.925 568.45624 36.565624L568.45624 36.221874Q568.45624 34.659374 569.05 33.425Q569.65936 32.190624 570.7375 31.4875Q571.8156 30.784374 573.08124 30.784374Q575.14374 30.784374 576.28436 32.14375Q577.425 33.503124 577.425 36.034374L577.425 36.784374L570.26874 36.784374Q570.3 38.346874 571.175 39.315624Q572.05 40.26875 573.39374 40.26875Q574.3625 40.26875 575.01874 39.878124Q575.6906 39.4875 576.1906 38.846874L577.28436 39.70625Q575.95624 41.753124 573.3 41.753124ZM573.08124 32.26875Q571.9875 32.26875 571.2375 33.065624Q570.5031 33.8625 570.33124 35.3L575.6125 35.3L575.6125 35.159374Q575.53436 33.784374 574.8625 33.034374Q574.20624 32.26875 573.08124 32.26875ZM587.3625 28.425L587.3625 30.9875L589.34686 30.9875L589.34686 32.378124L587.3625 32.378124L587.3625 38.925Q587.3625 39.565624 587.6281 39.89375Q587.89374 40.20625 588.53436 40.20625Q588.84686 40.20625 589.39374 40.08125L589.39374 41.55Q588.675 41.753124 588.0031 41.753124Q586.8 41.753124 586.175 41.01875Q585.5656 40.284374 585.5656 38.925L585.5656 32.378124L583.64374 32.378124L583.64374 30.9875L585.5656 30.9875L585.5656 28.425L587.3625 28.425ZM593.72186 32.26875Q594.925 30.784374 596.84686 30.784374Q600.20624 30.784374 600.22186 34.565624L600.22186 41.55L598.425 41.55L598.425 34.55Q598.40936 33.409374 597.89374 32.8625Q597.39374 32.315624 596.3 32.315624Q595.425 32.315624 594.7531 32.784374Q594.09686 33.253124 593.72186 34.01875L593.72186 41.55L591.925 41.55L591.925 26.55L593.72186 26.55L593.72186 32.26875ZM609.4406 41.55Q609.28436 41.2375 609.1906 40.440624Q607.925 41.753124 606.175 41.753124Q604.6125 41.753124 603.6125 40.8625Q602.6125 39.971874 602.6125 38.6125Q602.6125 36.971874 603.8625 36.065624Q605.1281 35.14375 607.39374 35.14375L609.15936 35.14375L609.15936 34.315624Q609.15936 33.3625 608.58124 32.8Q608.01874 32.2375 606.925 32.2375Q605.95624 32.2375 605.3 32.7375Q604.64374 33.221874 604.64374 33.909374L602.83124 33.909374Q602.83124 33.128124 603.39374 32.39375Q603.95624 31.64375 604.90936 31.221874Q605.8781 30.784374 607.03436 30.784374Q608.8625 30.784374 609.89374 31.70625Q610.925 32.6125 610.97186 34.221874L610.97186 39.08125Q610.97186 40.534374 611.33124 41.39375L611.33124 41.55L609.4406 41.55ZM606.4406 40.175Q607.3 40.175 608.05 39.7375Q608.8156 39.3 609.15936 38.596874L609.15936 36.425L607.7375 36.425Q604.425 36.425 604.425 38.3625Q604.425 39.221874 604.9875 39.70625Q605.55 40.175 606.4406 40.175ZM615.6281 30.9875L615.6906 32.315624Q616.89374 30.784374 618.84686 30.784374Q622.20624 30.784374 622.22186 34.565624L622.22186 41.55L620.425 41.55L620.425 34.55Q620.40936 33.409374 619.89374 32.8625Q619.39374 32.315624 618.3 32.315624Q617.425 32.315624 616.7531 32.784374Q616.09686 33.253124 615.72186 34.01875L615.72186 41.55L613.925 41.55L613.925 30.9875L615.6281 30.9875ZM636.4406 41.55Q636.28436 41.2375 636.1906 40.440624Q634.925 41.753124 633.175 41.753124Q631.6125 41.753124 630.6125 40.8625Q629.6125 39.971874 629.6125 38.6125Q629.6125 36.971874 630.8625 36.065624Q632.1281 35.14375 634.39374 35.14375L636.15936 35.14375L636.15936 34.315624Q636.15936 33.3625 635.58124 32.8Q635.01874 32.2375 633.925 32.2375Q632.95624 32.2375 632.3 32.7375Q631.64374 33.221874 631.64374 33.909374L629.83124 33.909374Q629.83124 33.128124 630.39374 32.39375Q630.95624 31.64375 631.90936 31.221874Q632.8781 30.784374 634.03436 30.784374Q635.8625 30.784374 636.89374 31.70625Q637.925 32.6125 637.97186 34.221874L637.97186 39.08125Q637.97186 40.534374 638.33124 41.39375L638.33124 41.55L636.4406 41.55ZM633.4406 40.175Q634.3 40.175 635.05 39.7375Q635.8156 39.3 636.15936 38.596874L636.15936 36.425L634.7375 36.425Q631.425 36.425 631.425 38.3625Q631.425 39.221874 631.9875 39.70625Q632.55 40.175 633.4406 40.175ZM649.3781 38.909374L651.83124 30.9875L653.76874 30.9875L649.51874 43.175Q648.53436 45.815624 646.39374 45.815624L646.05 45.784374L645.3781 45.659374L645.3781 44.190624L645.8625 44.2375Q646.78436 44.2375 647.28436 43.8625Q647.8 43.4875 648.1281 42.503124L648.53436 41.425L644.76874 30.9875L646.7375 30.9875L649.3781 38.909374ZM659.3 41.753124Q657.15936 41.753124 655.8 40.346874Q654.45624 38.925 654.45624 36.565624L654.45624 36.221874Q654.45624 34.659374 655.05 33.425Q655.65936 32.190624 656.7375 31.4875Q657.8156 30.784374 659.08124 30.784374Q661.14374 30.784374 662.28436 32.14375Q663.425 33.503124 663.425 36.034374L663.425 36.784374L656.26874 36.784374Q656.3 38.346874 657.175 39.315624Q658.05 40.26875 659.39374 40.26875Q660.3625 40.26875 661.01874 39.878124Q661.6906 39.4875 662.1906 38.846874L663.28436 39.70625Q661.95624 41.753124 659.3 41.753124ZM659.08124 32.26875Q657.9875 32.26875 657.2375 33.065624Q656.5031 33.8625 656.33124 35.3L661.6125 35.3L661.6125 35.159374Q661.53436 33.784374 660.8625 33.034374Q660.20624 32.26875 659.08124 32.26875ZM672.4406 41.55Q672.28436 41.2375 672.1906 40.440624Q670.925 41.753124 669.175 41.753124Q667.6125 41.753124 666.6125 40.8625Q665.6125 39.971874 665.6125 38.6125Q665.6125 36.971874 666.8625 36.065624Q668.1281 35.14375 670.39374 35.14375L672.15936 35.14375L672.15936 34.315624Q672.15936 33.3625 671.58124 32.8Q671.01874 32.2375 669.925 32.2375Q668.95624 32.2375 668.3 32.7375Q667.64374 33.221874 667.64374 33.909374L665.83124 33.909374Q665.83124 33.128124 666.39374 32.39375Q666.95624 31.64375 667.90936 31.221874Q668.8781 30.784374 670.03436 30.784374Q671.8625 30.784374 672.89374 31.70625Q673.925 32.6125 673.97186 34.221874L673.97186 39.08125Q673.97186 40.534374 674.33124 41.39375L674.33124 41.55L672.4406 41.55ZM669.4406 40.175Q670.3 40.175 671.05 39.7375Q671.8156 39.3 672.15936 38.596874L672.15936 36.425L670.7375 36.425Q667.425 36.425 667.425 38.3625Q667.425 39.221874 667.9875 39.70625Q668.55 40.175 669.4406 40.175ZM682.01874 32.596874Q681.6125 32.534374 681.14374 32.534374Q679.3625 32.534374 678.72186 34.05L678.72186 41.55L676.925 41.55L676.925 30.9875L678.675 30.9875L678.70624 32.20625Q679.59686 30.784374 681.22186 30.784374Q681.7531 30.784374 682.01874 30.925L682.01874 32.596874ZM695.4406 41.55Q695.28436 41.2375 695.1906 40.440624Q693.925 41.753124 692.175 41.753124Q690.6125 41.753124 689.6125 40.8625Q688.6125 39.971874 688.6125 38.6125Q688.6125 36.971874 689.8625 36.065624Q691.1281 35.14375 693.39374 35.14375L695.15936 35.14375L695.15936 34.315624Q695.15936 33.3625 694.58124 32.8Q694.01874 32.2375 692.925 32.2375Q691.95624 32.2375 691.3 32.7375Q690.64374 33.221874 690.64374 33.909374L688.83124 33.909374Q688.83124 33.128124 689.39374 32.39375Q689.95624 31.64375 690.90936 31.221874Q691.8781 30.784374 693.03436 30.784374Q694.8625 30.784374 695.89374 31.70625Q696.925 32.6125 696.97186 34.221874L696.97186 39.08125Q696.97186 40.534374 697.33124 41.39375L697.33124 41.55L695.4406 41.55ZM692.4406 40.175Q693.3 40.175 694.05 39.7375Q694.8156 39.3 695.15936 38.596874L695.15936 36.425L693.7375 36.425Q690.425 36.425 690.425 38.3625Q690.425 39.221874 690.9875 39.70625Q691.55 40.175 692.4406 40.175ZM699.4875 36.175Q699.4875 33.70625 700.6281 32.253124Q701.76874 30.784374 703.65936 30.784374Q705.59686 30.784374 706.675 32.159374L706.76874 30.9875L708.40936 30.9875L708.40936 41.3Q708.40936 43.346874 707.1906 44.51875Q705.9875 45.70625 703.925 45.70625Q702.78436 45.70625 701.6906 45.221874Q700.59686 44.7375 700.01874 43.878124L700.95624 42.8Q702.1281 44.2375 703.8 44.2375Q705.1281 44.2375 705.8625 43.4875Q706.59686 42.753124 706.59686 41.409374L706.59686 40.4875Q705.51874 41.753124 703.64374 41.753124Q701.78436 41.753124 700.6281 40.253124Q699.4875 38.753124 699.4875 36.175ZM701.3 36.378124Q701.3 38.175 702.03436 39.190624Q702.76874 40.20625 704.08124 40.20625Q705.8 40.20625 706.59686 38.659374L706.59686 33.83125Q705.76874 32.315624 704.1125 32.315624Q702.78436 32.315624 702.03436 33.346874Q701.3 34.378124 701.3 36.378124ZM710.4406 36.175Q710.4406 34.6125 711.05 33.378124Q711.65936 32.128124 712.7375 31.45625Q713.83124 30.784374 715.2375 30.784374Q717.39374 30.784374 718.72186 32.284374Q720.0656 33.76875 720.0656 36.253124L720.0656 36.378124Q720.0656 37.925 719.47186 39.159374Q718.8781 40.378124 717.76874 41.065624Q716.675 41.753124 715.2531 41.753124Q713.1125 41.753124 711.76874 40.253124Q710.4406 38.753124 710.4406 36.3L710.4406 36.175ZM712.2531 36.378124Q712.2531 38.14375 713.0656 39.20625Q713.89374 40.26875 715.2531 40.26875Q716.6281 40.26875 717.4406 39.190624Q718.2531 38.1125 718.2531 36.175Q718.2531 34.425 717.425 33.346874Q716.59686 32.26875 715.2375 32.26875Q713.89374 32.26875 713.0656 33.33125Q712.2531 34.39375 712.2531 36.378124ZM726.08124 35.878124Q726.08124 38.05 725.5031 40.05Q724.9406 42.05 723.76874 43.7375Q722.59686 45.425 721.3 46.14375L720.925 45.034374Q722.425 43.878124 723.33124 41.45625Q724.2531 39.034374 724.26874 36.065624L724.26874 35.753124Q724.26874 33.70625 723.83124 31.940624Q723.40936 30.175 722.64374 28.784374Q721.8781 27.39375 720.925 26.6125L721.3 25.503124Q722.59686 26.221874 723.7531 27.89375Q724.925 29.55 725.5031 31.565624Q726.08124 33.58125 726.08124 35.878124Z" fill-rule="nonzero"/></svg>