<svg version="1.1" viewBox="0.0 0.0 651.0 402.0" fill="none" stroke="none" stroke-linecap="square" stroke-miterlimit="10" width="651" height="402" xmlns:xlink="http://www.w3.org/1999/xlink" xmlns="http://www.w3.org/2000/svg"><path fill="#ffffff" d="M0 0L651.0 0L651.0 402.0L0 402.0L0 0Z" fill-rule="nonzero"/><path stroke="#333333" stroke-width="1.0" stroke-linecap="butt" d="M79.5 329.5L630.5 329.5" fill-rule="nonzero"/><path stroke="#cccccc" stroke-width="1.0" stroke-linecap="butt" d="M79.5 276.5L630.5 276.5" fill-rule="nonzero"/><path stroke="#cccccc" stroke-width="1.0" stroke-linecap="butt" d="M79.5 223.5L630.5 223.5" fill-rule="nonzero"/><path stroke="#cccccc" stroke-width="1.0" stroke-linecap="butt" d="M79.5 170.5L630.5 170.5" fill-rule="nonzero"/><path stroke="#cccccc" stroke-width="1.0" stroke-linecap="butt" d="M79.5 117.5L630.5 117.5" fill-rule="nonzero"/><path stroke="#cccccc" stroke-width="1.0" stroke-linecap="butt" d="M79.5 64.5L630.5 64.5" fill-rule="nonzero"/><clipPath id="id_0"><path d="M79.1 64.5L630.9 64.5L630.9 329.9L79.1 329.9L79.1 64.5Z" clip-rule="nonzero"/></clipPath><path stroke="#000000" stroke-width="2.0" stroke-linecap="butt" stroke-opacity="0.0" clip-path="url(#id_0)" d="M133.0 330.0L98.0 330.0L98.0 310.0C98.0 308.89542 98.89543 308.0 100.0 308.0L131.0 308.0C132.10457 308.0 133.0 308.89542 133.0 310.0Z" fill-rule="nonzero"/><path fill="#3c78d8" clip-path="url(#id_0)" d="M133.0 330.0L98.0 330.0L98.0 310.0C98.0 308.89542 98.89543 308.0 100.0 308.0L131.0 308.0C132.10457 308.0 133.0 308.89542 133.0 310.0Z" fill-rule="nonzero"/><path stroke="#000000" stroke-width="2.0" stroke-linecap="butt" stroke-opacity="0.0" clip-path="url(#id_0)" d="M186.0 330.0L151.0 330.0L151.0 299.0C151.0 297.89542 151.89543 297.0 153.0 297.0L184.0 297.0C185.10457 297.0 186.0 297.89542 186.0 299.0Z" fill-rule="nonzero"/><path fill="#3c78d8" clip-path="url(#id_0)" d="M186.0 330.0L151.0 330.0L151.0 299.0C151.0 297.89542 151.89543 297.0 153.0 297.0L184.0 297.0C185.10457 297.0 186.0 297.89542 186.0 299.0Z" fill-rule="nonzero"/><path stroke="#000000" stroke-width="2.0" stroke-linecap="butt" stroke-opacity="0.0" clip-path="url(#id_0)" d="M240.0 330.0L205.0 330.0L205.0 270.0C205.0 268.89542 205.89543 268.0 207.0 268.0L238.0 268.0C239.10457 268.0 240.0 268.89542 240.0 270.0Z" fill-rule="nonzero"/><path fill="#3c78d8" clip-path="url(#id_0)" d="M240.0 330.0L205.0 330.0L205.0 270.0C205.0 268.89542 205.89543 268.0 207.0 268.0L238.0 268.0C239.10457 268.0 240.0 268.89542 240.0 270.0Z" fill-rule="nonzero"/><path stroke="#000000" stroke-width="2.0" stroke-linecap="butt" stroke-opacity="0.0" clip-path="url(#id_0)" d="M293.0 330.0L258.0 330.0L258.0 261.0C258.0 259.89542 258.89542 259.0 260.0 259.0L291.0 259.0C292.10458 259.0 293.0 259.89542 293.0 261.0Z" fill-rule="nonzero"/><path fill="#3c78d8" clip-path="url(#id_0)" d="M293.0 330.0L258.0 330.0L258.0 261.0C258.0 259.89542 258.89542 259.0 260.0 259.0L291.0 259.0C292.10458 259.0 293.0 259.89542 293.0 261.0Z" fill-rule="nonzero"/><path stroke="#000000" stroke-width="2.0" stroke-linecap="butt" stroke-opacity="0.0" clip-path="url(#id_0)" d="M346.0 330.0L311.0 330.0L311.0 227.0C311.0 225.89543 311.89542 225.0 313.0 225.0L344.0 225.0C345.10458 225.0 346.0 225.89543 346.0 227.0Z" fill-rule="nonzero"/><path fill="#3c78d8" clip-path="url(#id_0)" d="M346.0 330.0L311.0 330.0L311.0 227.0C311.0 225.89543 311.89542 225.0 313.0 225.0L344.0 225.0C345.10458 225.0 346.0 225.89543 346.0 227.0Z" fill-rule="nonzero"/><path stroke="#000000" stroke-width="2.0" stroke-linecap="butt" stroke-opacity="0.0" clip-path="url(#id_0)" d="M400.0 330.0L365.0 330.0L365.0 182.0C365.0 180.89543 365.89542 180.0 367.0 180.0L398.0 180.0C399.10458 180.0 400.0 180.89543 400.0 182.0Z" fill-rule="nonzero"/><path fill="#3c78d8" clip-path="url(#id_0)" d="M400.0 330.0L365.0 330.0L365.0 182.0C365.0 180.89543 365.89542 180.0 367.0 180.0L398.0 180.0C399.10458 180.0 400.0 180.89543 400.0 182.0Z" fill-rule="nonzero"/><path stroke="#000000" stroke-width="2.0" stroke-linecap="butt" stroke-opacity="0.0" clip-path="url(#id_0)" d="M453.0 330.0L418.0 330.0L418.0 87.0C418.0 85.89543 418.89542 85.0 420.0 85.0L451.0 85.0C452.10458 85.0 453.0 85.89543 453.0 87.0Z" fill-rule="nonzero"/><path fill="#3c78d8" clip-path="url(#id_0)" d="M453.0 330.0L418.0 330.0L418.0 87.0C418.0 85.89543 418.89542 85.0 420.0 85.0L451.0 85.0C452.10458 85.0 453.0 85.89543 453.0 87.0Z" fill-rule="nonzero"/><path stroke="#000000" stroke-width="2.0" stroke-linecap="butt" stroke-opacity="0.0" clip-path="url(#id_0)" d="M506.0 330.0L471.0 330.0L471.0 120.0C471.0 118.89543 471.89542 118.0 473.0 118.0L504.0 118.0C505.10458 118.0 506.0 118.89543 506.0 120.0Z" fill-rule="nonzero"/><path fill="#3c78d8" clip-path="url(#id_0)" d="M506.0 330.0L471.0 330.0L471.0 120.0C471.0 118.89543 471.89542 118.0 473.0 118.0L504.0 118.0C505.10458 118.0 506.0 118.89543 506.0 120.0Z" fill-rule="nonzero"/><path stroke="#000000" stroke-width="2.0" stroke-linecap="butt" stroke-opacity="0.0" clip-path="url(#id_0)" d="M560.0 330.0L525.0 330.0L525.0 243.0C525.0 241.89543 525.89545 241.0 527.0 241.0L558.0 241.0C559.10455 241.0 560.0 241.89543 560.0 243.0Z" fill-rule="nonzero"/><path fill="#3c78d8" clip-path="url(#id_0)" d="M560.0 330.0L525.0 330.0L525.0 243.0C525.0 241.89543 525.89545 241.0 527.0 241.0L558.0 241.0C559.10455 241.0 560.0 241.89543 560.0 243.0Z" fill-rule="nonzero"/><path stroke="#000000" stroke-width="2.0" stroke-linecap="butt" stroke-opacity="0.0" clip-path="url(#id_0)" d="M613.0 330.0L578.0 330.0L578.0 311.0C578.0 309.89542 578.89545 309.0 580.0 309.0L611.0 309.0C612.10455 309.0 613.0 309.89542 613.0 311.0Z" fill-rule="nonzero"/><path fill="#3c78d8" clip-path="url(#id_0)" d="M613.0 330.0L578.0 330.0L578.0 311.0C578.0 309.89542 578.89545 309.0 580.0 309.0L611.0 309.0C612.10455 309.0 613.0 309.89542 613.0 311.0Z" fill-rule="nonzero"/><path fill="#000000" d="M330.45312 378.9L330.45312 370.30624L336.65625 370.30624L336.65625 371.32187L331.59375 371.32187L331.59375 373.94687L336.34375 373.94687L336.34375 374.9625L331.59375 374.9625L331.59375 377.88437L336.85938 377.88437L336.85938 378.9L330.45312 378.9ZM337.59375 378.9L339.85938 375.66562L337.76562 372.68124L339.07812 372.68124L340.03125 374.13437Q340.29688 374.55624 340.46875 374.8375Q340.71875 374.44687 340.9375 374.15L341.98438 372.68124L343.25 372.68124L341.09375 375.60312L343.40625 378.9L342.125 378.9L340.84375 376.9625L340.5 376.44687L338.85938 378.9L337.59375 378.9ZM344.29688 381.29062L344.29688 372.68124L345.25 372.68124L345.25 373.47812Q345.59375 373.00937 346.01562 372.775Q346.45312 372.54062 347.0625 372.54062Q347.85938 372.54062 348.46875 372.94687Q349.07812 373.35312 349.375 374.10312Q349.6875 374.85312 349.6875 375.74374Q349.6875 376.69687 349.34375 377.4625Q349.01562 378.22812 348.35938 378.63437Q347.70312 379.04062 346.98438 379.04062Q346.45312 379.04062 346.03125 378.82187Q345.60938 378.5875 345.34375 378.25937L345.34375 381.29062L344.29688 381.29062ZM345.25 375.82187Q345.25 377.025 345.73438 377.60312Q346.21875 378.16562 346.90625 378.16562Q347.60938 378.16562 348.10938 377.57187Q348.60938 376.97812 348.60938 375.72812Q348.60938 374.54062 348.125 373.9625Q347.64062 373.36874 346.95312 373.36874Q346.28125 373.36874 345.76562 373.99374Q345.25 374.61874 345.25 375.82187ZM355.54688 376.9L356.64062 377.025Q356.39062 377.97812 355.6875 378.50937Q354.98438 379.04062 353.90625 379.04062Q352.54688 379.04062 351.73438 378.19687Q350.9375 377.35312 350.9375 375.8375Q350.9375 374.275 351.75 373.41562Q352.5625 372.54062 353.84375 372.54062Q355.09375 372.54062 355.875 373.38437Q356.67188 374.22812 356.67188 375.775Q356.67188 375.86874 356.67188 376.05624L352.03125 376.05624Q352.09375 377.0875 352.60938 377.63437Q353.125 378.16562 353.90625 378.16562Q354.48438 378.16562 354.89062 377.86874Q355.3125 377.55624 355.54688 376.9ZM352.09375 375.19687L355.5625 375.19687Q355.5 374.4 355.17188 374.00937Q354.65625 373.4 353.85938 373.4Q353.125 373.4 352.625 373.88437Q352.14062 374.36874 352.09375 375.19687ZM358.28125 378.9L358.28125 372.68124L359.23438 372.68124L359.23438 373.61874Q359.59375 372.9625 359.89062 372.75937Q360.20312 372.54062 360.57812 372.54062Q361.10938 372.54062 361.65625 372.86874L361.29688 373.85312Q360.90625 373.61874 360.53125 373.61874Q360.17188 373.61874 359.89062 373.8375Q359.625 374.04062 359.51562 374.41562Q359.32812 374.97812 359.32812 375.63437L359.32812 378.9L358.28125 378.9ZM364.59375 377.9625L364.75 378.88437Q364.29688 378.97812 363.95312 378.97812Q363.375 378.97812 363.0625 378.80624Q362.75 378.61874 362.60938 378.32187Q362.48438 378.025 362.48438 377.07187L362.48438 373.49374L361.71875 373.49374L361.71875 372.68124L362.48438 372.68124L362.48438 371.13437L363.53125 370.50937L363.53125 372.68124L364.59375 372.68124L364.59375 373.49374L363.53125 373.49374L363.53125 377.13437Q363.53125 377.5875 363.57812 377.7125Q363.64062 377.8375 363.76562 377.91562Q363.89062 377.99374 364.125 377.99374Q364.3125 377.99374 364.59375 377.9625ZM365.29688 371.525L365.29688 370.30624L366.35938 370.30624L366.35938 371.525L365.29688 371.525ZM365.29688 378.9L365.29688 372.68124L366.35938 372.68124L366.35938 378.9L365.29688 378.9ZM367.875 377.04062L368.90625 376.88437Q369.0 377.50937 369.39062 377.8375Q369.79688 378.16562 370.53125 378.16562Q371.25 378.16562 371.59375 377.88437Q371.95312 377.5875 371.95312 377.18124Q371.95312 376.82187 371.64062 376.61874Q371.42188 376.47812 370.5625 376.25937Q369.40625 375.9625 368.95312 375.75937Q368.51562 375.54062 368.28125 375.16562Q368.04688 374.79062 368.04688 374.32187Q368.04688 373.91562 368.23438 373.55624Q368.42188 373.19687 368.75 372.9625Q369.0 372.79062 369.42188 372.66562Q369.84375 372.54062 370.34375 372.54062Q371.0625 372.54062 371.60938 372.75937Q372.17188 372.9625 372.4375 373.32187Q372.70312 373.68124 372.79688 374.275L371.76562 374.41562Q371.70312 373.94687 371.35938 373.68124Q371.03125 373.4 370.40625 373.4Q369.6875 373.4 369.375 373.65Q369.0625 373.88437 369.0625 374.2125Q369.0625 374.41562 369.1875 374.57187Q369.32812 374.74374 369.59375 374.85312Q369.75 374.91562 370.53125 375.11874Q371.65625 375.43124 372.09375 375.61874Q372.53125 375.80624 372.78125 376.16562Q373.03125 376.525 373.03125 377.07187Q373.03125 377.60312 372.71875 378.07187Q372.42188 378.525 371.84375 378.79062Q371.26562 379.04062 370.53125 379.04062Q369.3125 379.04062 368.67188 378.54062Q368.04688 378.025 367.875 377.04062ZM378.54688 376.9L379.64062 377.025Q379.39062 377.97812 378.6875 378.50937Q377.98438 379.04062 376.90625 379.04062Q375.54688 379.04062 374.73438 378.19687Q373.9375 377.35312 373.9375 375.8375Q373.9375 374.275 374.75 373.41562Q375.5625 372.54062 376.84375 372.54062Q378.09375 372.54062 378.875 373.38437Q379.67188 374.22812 379.67188 375.775Q379.67188 375.86874 379.67188 376.05624L375.03125 376.05624Q375.09375 377.0875 375.60938 377.63437Q376.125 378.16562 376.90625 378.16562Q377.48438 378.16562 377.89062 377.86874Q378.3125 377.55624 378.54688 376.9ZM375.09375 375.19687L378.5625 375.19687Q378.5 374.4 378.17188 374.00937Q377.65625 373.4 376.85938 373.4Q376.125 373.4 375.625 373.88437Q375.14062 374.36874 375.09375 375.19687Z" fill-rule="nonzero"/><path fill="#000000" d="M31.099995 233.7625L22.506245 233.7625L22.506245 229.95Q22.506245 228.79375 22.74062 228.2Q22.974995 227.60625 23.568745 227.24687Q24.14687 226.8875 24.849995 226.8875Q25.77187 226.8875 26.39687 227.48125Q27.02187 228.075 27.193745 229.30937Q27.412495 228.85625 27.61562 228.62187Q28.068745 228.12187 28.756245 227.68437L31.099995 226.18437L31.099995 227.62187L29.318745 228.74687Q28.537495 229.24687 28.131245 229.575Q27.724995 229.8875 27.568745 230.15312Q27.39687 230.40312 27.318745 230.66875Q27.287495 230.85625 27.287495 231.29375L27.287495 232.62187L31.099995 232.62187L31.099995 233.7625ZM26.30312 232.62187L26.30312 230.16875Q26.30312 229.40312 26.14687 228.96562Q25.974995 228.5125 25.631245 228.29375Q25.27187 228.05937 24.849995 228.05937Q24.24062 228.05937 23.849995 228.5125Q23.45937 228.95 23.45937 229.90312L23.45937 232.62187L26.30312 232.62187ZM29.099995 220.65312L29.224995 219.55937Q30.17812 219.80937 30.70937 220.5125Q31.24062 221.21562 31.24062 222.29375Q31.24062 223.65312 30.39687 224.46562Q29.55312 225.2625 28.037495 225.2625Q26.474995 225.2625 25.61562 224.45Q24.74062 223.6375 24.74062 222.35625Q24.74062 221.10625 25.58437 220.325Q26.42812 219.52812 27.974995 219.52812Q28.068745 219.52812 28.256245 219.52812L28.256245 224.16875Q29.287495 224.10625 29.83437 223.59062Q30.36562 223.075 30.36562 222.29375Q30.36562 221.71562 30.068745 221.30937Q29.756245 220.8875 29.099995 220.65312ZM27.39687 224.10625L27.39687 220.6375Q26.599995 220.7 26.20937 221.02812Q25.599995 221.54375 25.599995 222.34062Q25.599995 223.075 26.08437 223.575Q26.568745 224.05937 27.39687 224.10625ZM29.24062 218.325L29.08437 217.29375Q29.70937 217.2 30.037495 216.80937Q30.36562 216.40312 30.36562 215.66875Q30.36562 214.95 30.08437 214.60625Q29.787495 214.24687 29.381245 214.24687Q29.02187 214.24687 28.818745 214.55937Q28.67812 214.77812 28.45937 215.6375Q28.162495 216.79375 27.95937 217.24687Q27.74062 217.68437 27.36562 217.91875Q26.99062 218.15312 26.52187 218.15312Q26.11562 218.15312 25.756245 217.96562Q25.39687 217.77812 25.162495 217.45Q24.99062 217.2 24.86562 216.77812Q24.74062 216.35625 24.74062 215.85625Q24.74062 215.1375 24.95937 214.59062Q25.162495 214.02812 25.52187 213.7625Q25.881245 213.49687 26.474995 213.40312L26.61562 214.43437Q26.14687 214.49687 25.881245 214.84062Q25.599995 215.16875 25.599995 215.79375Q25.599995 216.5125 25.849995 216.825Q26.08437 217.1375 26.412495 217.1375Q26.61562 217.1375 26.77187 217.0125Q26.943745 216.87187 27.05312 216.60625Q27.11562 216.45 27.318745 215.66875Q27.631245 214.54375 27.818745 214.10625Q28.006245 213.66875 28.36562 213.41875Q28.724995 213.16875 29.27187 213.16875Q29.80312 213.16875 30.27187 213.48125Q30.724995 213.77812 30.99062 214.35625Q31.24062 214.93437 31.24062 215.66875Q31.24062 216.8875 30.74062 217.52812Q30.224995 218.15312 29.24062 218.325ZM33.49062 211.90312L24.881245 211.90312L24.881245 210.95L25.67812 210.95Q25.20937 210.60625 24.974995 210.18437Q24.74062 209.74687 24.74062 209.1375Q24.74062 208.34062 25.14687 207.73125Q25.55312 207.12187 26.30312 206.825Q27.05312 206.5125 27.943745 206.5125Q28.89687 206.5125 29.662495 206.85625Q30.42812 207.18437 30.83437 207.84062Q31.24062 208.49687 31.24062 209.21562Q31.24062 209.74687 31.02187 210.16875Q30.787495 210.59062 30.45937 210.85625L33.49062 210.85625L33.49062 211.90312ZM28.02187 210.95Q29.224995 210.95 29.80312 210.46562Q30.36562 209.98125 30.36562 209.29375Q30.36562 208.59062 29.77187 208.09062Q29.17812 207.59062 27.92812 207.59062Q26.74062 207.59062 26.162495 208.075Q25.568745 208.55937 25.568745 209.24687Q25.568745 209.91875 26.193745 210.43437Q26.818745 210.95 28.02187 210.95ZM27.99062 205.29375Q26.256245 205.29375 25.42812 204.34062Q24.74062 203.54375 24.74062 202.3875Q24.74062 201.10625 25.58437 200.29375Q26.412495 199.46562 27.89687 199.46562Q29.099995 199.46562 29.787495 199.825Q30.474995 200.18437 30.86562 200.8875Q31.24062 201.575 31.24062 202.3875Q31.24062 203.68437 30.412495 204.49687Q29.568745 205.29375 27.99062 205.29375ZM27.99062 204.21562Q29.17812 204.21562 29.77187 203.7Q30.36562 203.16875 30.36562 202.3875Q30.36562 201.59062 29.77187 201.075Q29.17812 200.55937 27.95937 200.55937Q26.80312 200.55937 26.20937 201.09062Q25.61562 201.60625 25.61562 202.3875Q25.61562 203.16875 26.20937 203.7Q26.787495 204.21562 27.99062 204.21562ZM31.099995 197.90312L24.881245 197.90312L24.881245 196.96562L25.756245 196.96562Q24.74062 196.27812 24.74062 194.98125Q24.74062 194.41875 24.943745 193.95Q25.14687 193.46562 25.474995 193.23125Q25.80312 192.99687 26.24062 192.90312Q26.537495 192.85625 27.27187 192.85625L31.099995 192.85625L31.099995 193.90312L27.318745 193.90312Q26.662495 193.90312 26.349995 194.02812Q26.037495 194.15312 25.849995 194.46562Q25.64687 194.77812 25.64687 195.2Q25.64687 195.87187 26.08437 196.37187Q26.506245 196.85625 27.693745 196.85625L31.099995 196.85625L31.099995 197.90312ZM29.24062 191.325L29.08437 190.29375Q29.70937 190.2 30.037495 189.80937Q30.36562 189.40312 30.36562 188.66875Q30.36562 187.95 30.08437 187.60625Q29.787495 187.24687 29.381245 187.24687Q29.02187 187.24687 28.818745 187.55937Q28.67812 187.77812 28.45937 188.6375Q28.162495 189.79375 27.95937 190.24687Q27.74062 190.68437 27.36562 190.91875Q26.99062 191.15312 26.52187 191.15312Q26.11562 191.15312 25.756245 190.96562Q25.39687 190.77812 25.162495 190.45Q24.99062 190.2 24.86562 189.77812Q24.74062 189.35625 24.74062 188.85625Q24.74062 188.1375 24.95937 187.59062Q25.162495 187.02812 25.52187 186.7625Q25.881245 186.49687 26.474995 186.40312L26.61562 187.43437Q26.14687 187.49687 25.881245 187.84062Q25.599995 188.16875 25.599995 188.79375Q25.599995 189.5125 25.849995 189.825Q26.08437 190.1375 26.412495 190.1375Q26.61562 190.1375 26.77187 190.0125Q26.943745 189.87187 27.05312 189.60625Q27.11562 189.45 27.318745 188.66875Q27.631245 187.54375 27.818745 187.10625Q28.006245 186.66875 28.36562 186.41875Q28.724995 186.16875 29.27187 186.16875Q29.80312 186.16875 30.27187 186.48125Q30.724995 186.77812 30.99062 187.35625Q31.24062 187.93437 31.24062 188.66875Q31.24062 189.8875 30.74062 190.52812Q30.224995 191.15312 29.24062 191.325ZM29.099995 180.65312L29.224995 179.55937Q30.17812 179.80937 30.70937 180.5125Q31.24062 181.21562 31.24062 182.29375Q31.24062 183.65312 30.39687 184.46562Q29.55312 185.2625 28.037495 185.2625Q26.474995 185.2625 25.61562 184.45Q24.74062 183.6375 24.74062 182.35625Q24.74062 181.10625 25.58437 180.325Q26.42812 179.52812 27.974995 179.52812Q28.068745 179.52812 28.256245 179.52812L28.256245 184.16875Q29.287495 184.10625 29.83437 183.59062Q30.36562 183.075 30.36562 182.29375Q30.36562 181.71562 30.068745 181.30937Q29.756245 180.8875 29.099995 180.65312ZM27.39687 184.10625L27.39687 180.6375Q26.599995 180.7 26.20937 181.02812Q25.599995 181.54375 25.599995 182.34062Q25.599995 183.075 26.08437 183.575Q26.568745 184.05937 27.39687 184.10625ZM29.24062 178.325L29.08437 177.29375Q29.70937 177.2 30.037495 176.80937Q30.36562 176.40312 30.36562 175.66875Q30.36562 174.95 30.08437 174.60625Q29.787495 174.24687 29.381245 174.24687Q29.02187 174.24687 28.818745 174.55937Q28.67812 174.77812 28.45937 175.6375Q28.162495 176.79375 27.95937 177.24687Q27.74062 177.68437 27.36562 177.91875Q26.99062 178.15312 26.52187 178.15312Q26.11562 178.15312 25.756245 177.96562Q25.39687 177.77812 25.162495 177.45Q24.99062 177.2 24.86562 176.77812Q24.74062 176.35625 24.74062 175.85625Q24.74062 175.1375 24.95937 174.59062Q25.162495 174.02812 25.52187 173.7625Q25.881245 173.49687 26.474995 173.40312L26.61562 174.43437Q26.14687 174.49687 25.881245 174.84062Q25.599995 175.16875 25.599995 175.79375Q25.599995 176.5125 25.849995 176.825Q26.08437 177.1375 26.412495 177.1375Q26.61562 177.1375 26.77187 177.0125Q26.943745 176.87187 27.05312 176.60625Q27.11562 176.45 27.318745 175.66875Q27.631245 174.54375 27.818745 174.10625Q28.006245 173.66875 28.36562 173.41875Q28.724995 173.16875 29.27187 173.16875Q29.80312 173.16875 30.27187 173.48125Q30.724995 173.77812 30.99062 174.35625Q31.24062 174.93437 31.24062 175.66875Q31.24062 176.8875 30.74062 177.52812Q30.224995 178.15312 29.24062 178.325Z" fill-rule="nonzero"/><path fill="#000000" d="M66.6 329.66562Q66.6 328.13437 66.9125 327.2125Q67.225 326.275 67.83437 325.775Q68.45937 325.275 69.39687 325.275Q70.08437 325.275 70.6 325.55624Q71.13125 325.8375 71.475 326.36874Q71.81875 326.88437 72.00625 327.63437Q72.19375 328.38437 72.19375 329.66562Q72.19375 331.18124 71.88125 332.10312Q71.58437 333.025 70.95937 333.54062Q70.35 334.04062 69.39687 334.04062Q68.1625 334.04062 67.44375 333.15Q66.6 332.0875 66.6 329.66562ZM67.67812 329.66562Q67.67812 331.775 68.17812 332.47812Q68.67812 333.18124 69.39687 333.18124Q70.13125 333.18124 70.61562 332.47812Q71.11562 331.775 71.11562 329.66562Q71.11562 327.54062 70.61562 326.85312Q70.13125 326.15 69.38125 326.15Q68.6625 326.15 68.225 326.75937Q67.67812 327.54062 67.67812 329.66562Z" fill-rule="nonzero"/><path fill="#000000" d="M56.56875 280.82L55.521873 280.82L55.521873 274.10126Q55.13125 274.46063 54.50625 274.83563Q53.896873 275.195 53.4125 275.36688L53.4125 274.35126Q54.2875 273.92938 54.94375 273.35126Q55.615623 272.7575 55.896873 272.195L56.56875 272.195L56.56875 280.82ZM59.6 276.58563Q59.6 275.05438 59.9125 274.1325Q60.225 273.195 60.834373 272.695Q61.459373 272.195 62.396873 272.195Q63.084373 272.195 63.6 272.47626Q64.13125 272.7575 64.475 273.28876Q64.81875 273.80438 65.00625 274.55438Q65.19375 275.30438 65.19375 276.58563Q65.19375 278.10126 64.88125 279.02313Q64.58437 279.945 63.959373 280.46063Q63.35 280.96063 62.396873 280.96063Q61.1625 280.96063 60.44375 280.07Q59.6 279.0075 59.6 276.58563ZM60.678123 276.58563Q60.678123 278.695 61.178123 279.39813Q61.678123 280.10126 62.396873 280.10126Q63.13125 280.10126 63.615623 279.39813Q64.11562 278.695 64.11562 276.58563Q64.11562 274.46063 63.615623 273.77313Q63.13125 273.07 62.38125 273.07Q61.6625 273.07 61.225 273.67938Q60.678123 274.46063 60.678123 276.58563ZM66.6 276.58563Q66.6 275.05438 66.9125 274.1325Q67.225 273.195 67.83437 272.695Q68.45937 272.195 69.39687 272.195Q70.08437 272.195 70.6 272.47626Q71.13125 272.7575 71.475 273.28876Q71.81875 273.80438 72.00625 274.55438Q72.19375 275.30438 72.19375 276.58563Q72.19375 278.10126 71.88125 279.02313Q71.58437 279.945 70.95937 280.46063Q70.35 280.96063 69.39687 280.96063Q68.1625 280.96063 67.44375 280.07Q66.6 279.0075 66.6 276.58563ZM67.67812 276.58563Q67.67812 278.695 68.17812 279.39813Q68.67812 280.10126 69.39687 280.10126Q70.13125 280.10126 70.61562 279.39813Q71.11562 278.695 71.11562 276.58563Q71.11562 274.46063 70.61562 273.77313Q70.13125 273.07 69.38125 273.07Q68.6625 273.07 68.225 273.67938Q67.67812 274.46063 67.67812 276.58563Z" fill-rule="nonzero"/><path fill="#000000" d="M58.146873 226.72438L58.146873 227.74L52.459373 227.74Q52.459373 227.365 52.584373 227.00563Q52.803123 226.4275 53.271873 225.865Q53.75625 225.3025 54.6625 224.56813Q56.06875 223.41188 56.553123 222.74Q57.053123 222.06813 57.053123 221.47438Q57.053123 220.84938 56.6 220.4275Q56.146873 219.99 55.428123 219.99Q54.6625 219.99 54.209373 220.44313Q53.75625 220.89626 53.740623 221.70876L52.6625 221.59938Q52.771873 220.38063 53.490623 219.75563Q54.225 219.115 55.459373 219.115Q56.69375 219.115 57.4125 219.8025Q58.13125 220.49 58.13125 221.50563Q58.13125 222.02126 57.9125 222.52126Q57.709373 223.00563 57.209373 223.56813Q56.725 224.115 55.6 225.06813Q54.646873 225.865 54.365623 226.16188Q54.1 226.44313 53.928123 226.72438L58.146873 226.72438ZM59.6 223.50563Q59.6 221.97438 59.9125 221.0525Q60.225 220.115 60.834373 219.615Q61.459373 219.115 62.396873 219.115Q63.084373 219.115 63.6 219.39626Q64.13125 219.6775 64.475 220.20876Q64.81875 220.72438 65.00625 221.47438Q65.19375 222.22438 65.19375 223.50563Q65.19375 225.02126 64.88125 225.94313Q64.58437 226.865 63.959373 227.38063Q63.35 227.88063 62.396873 227.88063Q61.1625 227.88063 60.44375 226.99Q59.6 225.9275 59.6 223.50563ZM60.678123 223.50563Q60.678123 225.615 61.178123 226.31813Q61.678123 227.02126 62.396873 227.02126Q63.13125 227.02126 63.615623 226.31813Q64.11562 225.615 64.11562 223.50563Q64.11562 221.38063 63.615623 220.69313Q63.13125 219.99 62.38125 219.99Q61.6625 219.99 61.225 220.59938Q60.678123 221.38063 60.678123 223.50563ZM66.6 223.50563Q66.6 221.97438 66.9125 221.0525Q67.225 220.115 67.83437 219.615Q68.45937 219.115 69.39687 219.115Q70.08437 219.115 70.6 219.39626Q71.13125 219.6775 71.475 220.20876Q71.81875 220.72438 72.00625 221.47438Q72.19375 222.22438 72.19375 223.50563Q72.19375 225.02126 71.88125 225.94313Q71.58437 226.865 70.95937 227.38063Q70.35 227.88063 69.39687 227.88063Q68.1625 227.88063 67.44375 226.99Q66.6 225.9275 66.6 223.50563ZM67.67812 223.50563Q67.67812 225.615 68.17812 226.31813Q68.67812 227.02126 69.39687 227.02126Q70.13125 227.02126 70.61562 226.31813Q71.11562 225.615 71.11562 223.50563Q71.11562 221.38063 70.61562 220.69313Q70.13125 219.99 69.38125 219.99Q68.6625 219.99 68.225 220.59938Q67.67812 221.38063 67.67812 223.50563Z" fill-rule="nonzero"/><path fill="#000000" d="M52.6 172.39438L53.6625 172.25375Q53.834373 173.14438 54.271873 173.55063Q54.709373 173.94125 55.334373 173.94125Q56.084373 173.94125 56.6 173.42563Q57.115623 172.91 57.115623 172.14438Q57.115623 171.42563 56.63125 170.95688Q56.1625 170.4725 55.428123 170.4725Q55.13125 170.4725 54.678123 170.5975L54.803123 169.66Q54.9125 169.67563 54.975 169.67563Q55.646873 169.67563 56.178123 169.33188Q56.725 168.9725 56.725 168.23813Q56.725 167.66 56.334373 167.285Q55.94375 166.89438 55.31875 166.89438Q54.709373 166.89438 54.2875 167.285Q53.88125 167.67563 53.771873 168.44125L52.709373 168.25375Q52.896873 167.20688 53.584373 166.62875Q54.271873 166.035 55.2875 166.035Q55.990623 166.035 56.584373 166.3475Q57.178123 166.64438 57.490623 167.16Q57.803123 167.67563 57.803123 168.26938Q57.803123 168.81625 57.50625 169.285Q57.209373 169.73813 56.63125 170.00375Q57.38125 170.17563 57.803123 170.73813Q58.225 171.285 58.225 172.12875Q58.225 173.25375 57.396873 174.035Q56.584373 174.81625 55.334373 174.81625Q54.209373 174.81625 53.459373 174.14438Q52.709373 173.45688 52.6 172.39438ZM59.6 170.42563Q59.6 168.89438 59.9125 167.9725Q60.225 167.035 60.834373 166.535Q61.459373 166.035 62.396873 166.035Q63.084373 166.035 63.6 166.31625Q64.13125 166.5975 64.475 167.12875Q64.81875 167.64438 65.00625 168.39438Q65.19375 169.14438 65.19375 170.42563Q65.19375 171.94125 64.88125 172.86313Q64.58437 173.785 63.959373 174.30063Q63.35 174.80063 62.396873 174.80063Q61.1625 174.80063 60.44375 173.91Q59.6 172.8475 59.6 170.42563ZM60.678123 170.42563Q60.678123 172.535 61.178123 173.23813Q61.678123 173.94125 62.396873 173.94125Q63.13125 173.94125 63.615623 173.23813Q64.11562 172.535 64.11562 170.42563Q64.11562 168.30063 63.615623 167.61313Q63.13125 166.91 62.38125 166.91Q61.6625 166.91 61.225 167.51938Q60.678123 168.30063 60.678123 170.42563ZM66.6 170.42563Q66.6 168.89438 66.9125 167.9725Q67.225 167.035 67.83437 166.535Q68.45937 166.035 69.39687 166.035Q70.08437 166.035 70.6 166.31625Q71.13125 166.5975 71.475 167.12875Q71.81875 167.64438 72.00625 168.39438Q72.19375 169.14438 72.19375 170.42563Q72.19375 171.94125 71.88125 172.86313Q71.58437 173.785 70.95937 174.30063Q70.35 174.80063 69.39687 174.80063Q68.1625 174.80063 67.44375 173.91Q66.6 172.8475 66.6 170.42563ZM67.67812 170.42563Q67.67812 172.535 68.17812 173.23813Q68.67812 173.94125 69.39687 173.94125Q70.13125 173.94125 70.61562 173.23813Q71.11562 172.535 71.11562 170.42563Q71.11562 168.30063 70.61562 167.61313Q70.13125 166.91 69.38125 166.91Q68.6625 166.91 68.225 167.51938Q67.67812 168.30063 67.67812 170.42563Z" fill-rule="nonzero"/><path fill="#000000" d="M55.975 121.58L55.975 119.5175L52.25625 119.5175L52.25625 118.54875L56.178123 112.98625L57.0375 112.98625L57.0375 118.54875L58.19375 118.54875L58.19375 119.5175L57.0375 119.5175L57.0375 121.58L55.975 121.58ZM55.975 118.54875L55.975 114.68938L53.2875 118.54875L55.975 118.54875ZM59.6 117.34563Q59.6 115.81438 59.9125 114.8925Q60.225 113.955 60.834373 113.455Q61.459373 112.955 62.396873 112.955Q63.084373 112.955 63.6 113.23625Q64.13125 113.5175 64.475 114.04875Q64.81875 114.56438 65.00625 115.31438Q65.19375 116.06438 65.19375 117.34563Q65.19375 118.86125 64.88125 119.78313Q64.58437 120.705 63.959373 121.22063Q63.35 121.72063 62.396873 121.72063Q61.1625 121.72063 60.44375 120.83Q59.6 119.7675 59.6 117.34563ZM60.678123 117.34563Q60.678123 119.455 61.178123 120.15813Q61.678123 120.86125 62.396873 120.86125Q63.13125 120.86125 63.615623 120.15813Q64.11562 119.455 64.11562 117.34563Q64.11562 115.22063 63.615623 114.53313Q63.13125 113.83 62.38125 113.83Q61.6625 113.83 61.225 114.43938Q60.678123 115.22063 60.678123 117.34563ZM66.6 117.34563Q66.6 115.81438 66.9125 114.8925Q67.225 113.955 67.83437 113.455Q68.45937 112.955 69.39687 112.955Q70.08437 112.955 70.6 113.23625Q71.13125 113.5175 71.475 114.04875Q71.81875 114.56438 72.00625 115.31438Q72.19375 116.06438 72.19375 117.34563Q72.19375 118.86125 71.88125 119.78313Q71.58437 120.705 70.95937 121.22063Q70.35 121.72063 69.39687 121.72063Q68.1625 121.72063 67.44375 120.83Q66.6 119.7675 66.6 117.34563ZM67.67812 117.34563Q67.67812 119.455 68.17812 120.15813Q68.67812 120.86125 69.39687 120.86125Q70.13125 120.86125 70.61562 120.15813Q71.11562 119.455 71.11562 117.34563Q71.11562 115.22063 70.61562 114.53313Q70.13125 113.83 69.38125 113.83Q68.6625 113.83 68.225 114.43938Q67.67812 115.22063 67.67812 117.34563Z" fill-rule="nonzero"/><path fill="#000000" d="M52.6 66.25L53.709373 66.15625Q53.834373 66.96875 54.271873 67.375Q54.725 67.78125 55.365623 67.78125Q56.115623 67.78125 56.646873 67.203125Q57.178123 66.625 57.178123 65.6875Q57.178123 64.78125 56.6625 64.265625Q56.1625 63.734375 55.334373 63.734375Q54.834373 63.734375 54.4125 63.96875Q54.00625 64.203125 53.771873 64.5625L52.7875 64.4375L53.615623 60.03125L57.896873 60.03125L57.896873 61.03125L54.459373 61.03125L54.00625 63.34375Q54.771873 62.796875 55.615623 62.796875Q56.740623 62.796875 57.50625 63.578125Q58.2875 64.359375 58.2875 65.59375Q58.2875 66.75 57.615623 67.609375Q56.7875 68.640625 55.365623 68.640625Q54.19375 68.640625 53.44375 67.984375Q52.709373 67.328125 52.6 66.25ZM59.6 64.265625Q59.6 62.734375 59.9125 61.8125Q60.225 60.875 60.834373 60.375Q61.459373 59.875 62.396873 59.875Q63.084373 59.875 63.6 60.15625Q64.13125 60.4375 64.475 60.96875Q64.81875 61.484375 65.00625 62.234375Q65.19375 62.984375 65.19375 64.265625Q65.19375 65.78125 64.88125 66.703125Q64.58437 67.625 63.959373 68.140625Q63.35 68.640625 62.396873 68.640625Q61.1625 68.640625 60.44375 67.75Q59.6 66.6875 59.6 64.265625ZM60.678123 64.265625Q60.678123 66.375 61.178123 67.078125Q61.678123 67.78125 62.396873 67.78125Q63.13125 67.78125 63.615623 67.078125Q64.11562 66.375 64.11562 64.265625Q64.11562 62.140625 63.615623 61.453125Q63.13125 60.75 62.38125 60.75Q61.6625 60.75 61.225 61.359375Q60.678123 62.140625 60.678123 64.265625ZM66.6 64.265625Q66.6 62.734375 66.9125 61.8125Q67.225 60.875 67.83437 60.375Q68.45937 59.875 69.39687 59.875Q70.08437 59.875 70.6 60.15625Q71.13125 60.4375 71.475 60.96875Q71.81875 61.484375 72.00625 62.234375Q72.19375 62.984375 72.19375 64.265625Q72.19375 65.78125 71.88125 66.703125Q71.58437 67.625 70.95937 68.140625Q70.35 68.640625 69.39687 68.640625Q68.1625 68.640625 67.44375 67.75Q66.6 66.6875 66.6 64.265625ZM67.67812 64.265625Q67.67812 66.375 68.17812 67.078125Q68.67812 67.78125 69.39687 67.78125Q70.13125 67.78125 70.61562 67.078125Q71.11562 66.375 71.11562 64.265625Q71.11562 62.140625 70.61562 61.453125Q70.13125 60.75 69.38125 60.75Q68.6625 60.75 68.225 61.359375Q67.67812 62.140625 67.67812 64.265625Z" fill-rule="nonzero"/><path fill="#000000" d="M90.96196 346.9L90.96196 338.30624L94.196335 338.30624Q95.18071 338.30624 95.77446 338.57187Q96.36821 338.8375 96.696335 339.38437Q97.040085 339.91562 97.040085 340.50937Q97.040085 341.05624 96.74321 341.54062Q96.446335 342.025 95.83696 342.32187Q96.61821 342.55624 97.02446 343.11874Q97.446335 343.66562 97.446335 344.41562Q97.446335 345.00937 97.196335 345.54062Q96.946335 346.05624 96.571335 346.3375Q96.196335 346.61874 95.61821 346.75937Q95.05571 346.9 94.24321 346.9L90.96196 346.9ZM92.102585 341.91562L93.96196 341.91562Q94.71196 341.91562 95.040085 341.82187Q95.477585 341.69687 95.696335 341.4Q95.915085 341.0875 95.915085 340.63437Q95.915085 340.2125 95.71196 339.88437Q95.508835 339.55624 95.11821 339.44687Q94.74321 339.32187 93.821335 339.32187L92.102585 339.32187L92.102585 341.91562ZM92.102585 345.88437L94.24321 345.88437Q94.790085 345.88437 95.008835 345.8375Q95.415085 345.775 95.665085 345.61874Q95.93071 345.44687 96.102585 345.13437Q96.27446 344.82187 96.27446 344.41562Q96.27446 343.93124 96.02446 343.57187Q95.790085 343.2125 95.352585 343.07187Q94.915085 342.93124 94.08696 342.93124L92.102585 342.93124L92.102585 345.88437ZM103.133835 344.9L104.227585 345.025Q103.977585 345.97812 103.27446 346.50937Q102.571335 347.04062 101.49321 347.04062Q100.133835 347.04062 99.321335 346.19687Q98.52446 345.35312 98.52446 343.8375Q98.52446 342.275 99.33696 341.41562Q100.14946 340.54062 101.43071 340.54062Q102.68071 340.54062 103.46196 341.38437Q104.258835 342.22812 104.258835 343.775Q104.258835 343.86874 104.258835 344.05624L99.61821 344.05624Q99.68071 345.0875 100.196335 345.63437Q100.71196 346.16562 101.49321 346.16562Q102.071335 346.16562 102.477585 345.86874Q102.89946 345.55624 103.133835 344.9ZM99.68071 343.19687L103.14946 343.19687Q103.08696 342.4 102.758835 342.00937Q102.24321 341.4 101.446335 341.4Q100.71196 341.4 100.21196 341.88437Q99.727585 342.36874 99.68071 343.19687ZM105.68071 347.41562L106.71196 347.57187Q106.77446 348.04062 107.071335 348.25937Q107.46196 348.55624 108.133835 348.55624Q108.86821 348.55624 109.258835 348.25937Q109.665085 347.9625 109.80571 347.44687Q109.89946 347.11874 109.883835 346.0875Q109.196335 346.9 108.165085 346.9Q106.883835 346.9 106.18071 345.97812Q105.477585 345.04062 105.477585 343.75937Q105.477585 342.86874 105.790085 342.11874Q106.11821 341.35312 106.727585 340.94687Q107.33696 340.54062 108.165085 340.54062Q109.27446 340.54062 109.99321 341.43124L109.99321 340.68124L110.96196 340.68124L110.96196 346.05624Q110.96196 347.50937 110.665085 348.11874Q110.36821 348.72812 109.727585 349.07187Q109.08696 349.43124 108.14946 349.43124Q107.040085 349.43124 106.352585 348.93124Q105.665085 348.43124 105.68071 347.41562ZM106.55571 343.68124Q106.55571 344.9 107.040085 345.4625Q107.52446 346.025 108.258835 346.025Q108.99321 346.025 109.477585 345.4625Q109.977585 344.9 109.977585 343.7125Q109.977585 342.57187 109.46196 341.99374Q108.96196 341.41562 108.24321 341.41562Q107.540085 341.41562 107.040085 341.99374Q106.55571 342.55624 106.55571 343.68124ZM112.883835 339.525L112.883835 338.30624L113.946335 338.30624L113.946335 339.525L112.883835 339.525ZM112.883835 346.9L112.883835 340.68124L113.946335 340.68124L113.946335 346.9L112.883835 346.9ZM115.883835 346.9L115.883835 340.68124L116.821335 340.68124L116.821335 341.55624Q117.508835 340.54062 118.80571 340.54062Q119.36821 340.54062 119.83696 340.74374Q120.321335 340.94687 120.55571 341.275Q120.790085 341.60312 120.883835 342.04062Q120.93071 342.3375 120.93071 343.07187L120.93071 346.9L119.883835 346.9L119.883835 343.11874Q119.883835 342.4625 119.758835 342.15Q119.633835 341.8375 119.321335 341.65Q119.008835 341.44687 118.58696 341.44687Q117.915085 341.44687 117.415085 341.88437Q116.93071 342.30624 116.93071 343.49374L116.93071 346.9L115.883835 346.9ZM122.883835 346.9L122.883835 340.68124L123.821335 340.68124L123.821335 341.55624Q124.508835 340.54062 125.80571 340.54062Q126.36821 340.54062 126.83696 340.74374Q127.321335 340.94687 127.55571 341.275Q127.790085 341.60312 127.883835 342.04062Q127.93071 342.3375 127.93071 343.07187L127.93071 346.9L126.883835 346.9L126.883835 343.11874Q126.883835 342.4625 126.758835 342.15Q126.633835 341.8375 126.321335 341.65Q126.008835 341.44687 125.58696 341.44687Q124.915085 341.44687 124.415085 341.88437Q123.93071 342.30624 123.93071 343.49374L123.93071 346.9L122.883835 346.9ZM134.13383 344.9L135.22758 345.025Q134.97758 345.97812 134.27446 346.50937Q133.57133 347.04062 132.49321 347.04062Q131.13383 347.04062 130.32133 346.19687Q129.52446 345.35312 129.52446 343.8375Q129.52446 342.275 130.33696 341.41562Q131.14946 340.54062 132.43071 340.54062Q133.68071 340.54062 134.46196 341.38437Q135.25883 342.22812 135.25883 343.775Q135.25883 343.86874 135.25883 344.05624L130.61821 344.05624Q130.68071 345.0875 131.19633 345.63437Q131.71196 346.16562 132.49321 346.16562Q133.07133 346.16562 133.47758 345.86874Q133.89946 345.55624 134.13383 344.9ZM130.68071 343.19687L134.14946 343.19687Q134.08696 342.4 133.75883 342.00937Q133.24321 341.4 132.44633 341.4Q131.71196 341.4 131.21196 341.88437Q130.72758 342.36874 130.68071 343.19687ZM136.86821 346.9L136.86821 340.68124L137.82133 340.68124L137.82133 341.61874Q138.18071 340.9625 138.47758 340.75937Q138.79008 340.54062 139.16508 340.54062Q139.69633 340.54062 140.24321 340.86874L139.88383 341.85312Q139.49321 341.61874 139.11821 341.61874Q138.75883 341.61874 138.47758 341.8375Q138.21196 342.04062 138.10258 342.41562Q137.91508 342.97812 137.91508 343.63437L137.91508 346.9L136.86821 346.9Z" fill-rule="nonzero"/><path fill="#000000" d="M170.94785 345.88437L170.94785 346.9L165.26035 346.9Q165.26035 346.525 165.38535 346.16562Q165.6041 345.5875 166.07285 345.025Q166.55722 344.4625 167.46347 343.72812Q168.86972 342.57187 169.3541 341.9Q169.8541 341.22812 169.8541 340.63437Q169.8541 340.00937 169.40097 339.5875Q168.94785 339.15 168.2291 339.15Q167.46347 339.15 167.01035 339.60312Q166.55722 340.05624 166.5416 340.86874L165.46347 340.75937Q165.57285 339.54062 166.2916 338.91562Q167.02597 338.275 168.26035 338.275Q169.49472 338.275 170.21347 338.9625Q170.93222 339.65 170.93222 340.66562Q170.93222 341.18124 170.71347 341.68124Q170.51035 342.16562 170.01035 342.72812Q169.52597 343.275 168.40097 344.22812Q167.44785 345.025 167.1666 345.32187Q166.90097 345.60312 166.7291 345.88437L170.94785 345.88437Z" fill-rule="nonzero"/><path fill="#000000" d="M218.71498 344.63437L219.77748 344.49374Q219.94936 345.38437 220.38686 345.79062Q220.82436 346.18124 221.44936 346.18124Q222.19936 346.18124 222.71498 345.66562Q223.2306 345.15 223.2306 344.38437Q223.2306 343.66562 222.74623 343.19687Q222.27748 342.7125 221.5431 342.7125Q221.24623 342.7125 220.7931 342.8375L220.9181 341.9Q221.02748 341.91562 221.08998 341.91562Q221.76186 341.91562 222.2931 341.57187Q222.83998 341.2125 222.83998 340.47812Q222.83998 339.9 222.44936 339.525Q222.05873 339.13437 221.43373 339.13437Q220.82436 339.13437 220.40248 339.525Q219.99623 339.91562 219.88686 340.68124L218.82436 340.49374Q219.01186 339.44687 219.69936 338.86874Q220.38686 338.275 221.40248 338.275Q222.1056 338.275 222.69936 338.5875Q223.2931 338.88437 223.6056 339.4Q223.9181 339.91562 223.9181 340.50937Q223.9181 341.05624 223.62123 341.525Q223.32436 341.97812 222.74623 342.24374Q223.49623 342.41562 223.9181 342.97812Q224.33998 343.525 224.33998 344.36874Q224.33998 345.49374 223.51186 346.275Q222.69936 347.05624 221.44936 347.05624Q220.32436 347.05624 219.57436 346.38437Q218.82436 345.69687 218.71498 344.63437Z" fill-rule="nonzero"/><path fill="#000000" d="M275.404 346.9L275.404 344.8375L271.68524 344.8375L271.68524 343.86874L275.60712 338.30624L276.4665 338.30624L276.4665 343.86874L277.62274 343.86874L277.62274 344.8375L276.4665 344.8375L276.4665 346.9L275.404 346.9ZM275.404 343.86874L275.404 340.00937L272.7165 343.86874L275.404 343.86874Z" fill-rule="nonzero"/><path fill="#000000" d="M325.343 344.65L326.45236 344.55624Q326.57736 345.36874 327.01486 345.775Q327.468 346.18124 328.1086 346.18124Q328.8586 346.18124 329.38986 345.60312Q329.9211 345.025 329.9211 344.0875Q329.9211 343.18124 329.4055 342.66562Q328.9055 342.13437 328.07736 342.13437Q327.57736 342.13437 327.1555 342.36874Q326.74924 342.60312 326.51486 342.9625L325.5305 342.8375L326.3586 338.43124L330.63986 338.43124L330.63986 339.43124L327.20236 339.43124L326.74924 341.74374Q327.51486 341.19687 328.3586 341.19687Q329.4836 341.19687 330.24924 341.97812Q331.0305 342.75937 331.0305 343.99374Q331.0305 345.15 330.3586 346.00937Q329.5305 347.04062 328.1086 347.04062Q326.93674 347.04062 326.18674 346.38437Q325.45236 345.72812 325.343 344.65Z" fill-rule="nonzero"/><path fill="#000000" d="M384.12576 340.41562L383.0789 340.49374Q382.93826 339.86874 382.68826 339.5875Q382.25076 339.13437 381.62576 339.13437Q381.12576 339.13437 380.73514 339.41562Q380.25076 339.79062 379.9539 340.49374Q379.67264 341.18124 379.657 342.4625Q380.032 341.88437 380.5789 341.60312Q381.1414 341.32187 381.75076 341.32187Q382.79764 341.32187 383.532 342.10312Q384.282 342.88437 384.282 344.10312Q384.282 344.91562 383.92264 345.61874Q383.5789 346.30624 382.9695 346.68124Q382.36014 347.04062 381.5945 347.04062Q380.2664 347.04062 379.43826 346.07187Q378.61014 345.10312 378.61014 342.88437Q378.61014 340.38437 379.532 339.25937Q380.3289 338.275 381.68826 338.275Q382.7039 338.275 383.3445 338.85312Q384.00076 339.41562 384.12576 340.41562ZM379.8289 344.11874Q379.8289 344.66562 380.04764 345.16562Q380.282 345.65 380.68826 345.91562Q381.11014 346.18124 381.5789 346.18124Q382.23514 346.18124 382.7195 345.65Q383.2039 345.10312 383.2039 344.18124Q383.2039 343.29062 382.7195 342.775Q382.25076 342.25937 381.532 342.25937Q380.81326 342.25937 380.31326 342.775Q379.8289 343.29062 379.8289 344.11874Z" fill-rule="nonzero"/><path fill="#000000" d="M432.0335 339.43124L432.0335 338.41562L437.596 338.41562L437.596 339.24374Q436.7835 340.11874 435.971 341.57187Q435.17413 343.00937 434.73663 344.54062Q434.4085 345.61874 434.33038 346.9L433.23663 346.9Q433.25226 345.88437 433.62726 344.44687Q434.01788 343.00937 434.721 341.68124Q435.43976 340.35312 436.25226 339.43124L432.0335 339.43124Z" fill-rule="nonzero"/><path fill="#000000" d="M486.91003 342.24374Q486.25378 341.99374 485.92566 341.55624Q485.61316 341.10312 485.61316 340.49374Q485.61316 339.55624 486.28503 338.91562Q486.97253 338.275 488.0819 338.275Q489.2069 338.275 489.8944 338.93124Q490.5819 339.5875 490.5819 340.525Q490.5819 341.11874 490.2694 341.55624Q489.9569 341.99374 489.31628 342.24374Q490.11316 342.49374 490.5194 343.07187Q490.92566 343.65 490.92566 344.44687Q490.92566 345.54062 490.1444 346.29062Q489.37878 347.04062 488.09753 347.04062Q486.8319 347.04062 486.05066 346.29062Q485.2694 345.54062 485.2694 344.41562Q485.2694 343.57187 485.69128 343.00937Q486.12878 342.44687 486.91003 342.24374ZM486.69128 340.44687Q486.69128 341.05624 487.0819 341.44687Q487.48816 341.8375 488.11316 341.8375Q488.72253 341.8375 489.11316 341.4625Q489.50378 341.07187 489.50378 340.50937Q489.50378 339.93124 489.09753 339.54062Q488.69128 339.13437 488.09753 339.13437Q487.48816 339.13437 487.0819 339.525Q486.69128 339.91562 486.69128 340.44687ZM486.36316 344.41562Q486.36316 344.86874 486.56628 345.29062Q486.78503 345.7125 487.2069 345.94687Q487.62878 346.18124 488.11316 346.18124Q488.86316 346.18124 489.34753 345.69687Q489.84753 345.2125 489.84753 344.4625Q489.84753 343.69687 489.34753 343.19687Q488.84753 342.69687 488.0819 342.69687Q487.3319 342.69687 486.84753 343.19687Q486.36316 343.68124 486.36316 344.41562Z" fill-rule="nonzero"/><path fill="#000000" d="M538.7553 344.91562L539.77094 344.82187Q539.89594 345.54062 540.2553 345.86874Q540.6303 346.18124 541.1928 346.18124Q541.6772 346.18124 542.03656 345.9625Q542.41156 345.72812 542.64594 345.36874Q542.8803 344.99374 543.03656 344.36874Q543.1928 343.72812 543.1928 343.07187Q543.1928 342.99374 543.1928 342.85312Q542.8803 343.35312 542.33344 343.68124Q541.78656 343.99374 541.14594 343.99374Q540.0678 343.99374 539.33344 343.22812Q538.59906 342.44687 538.59906 341.18124Q538.59906 339.86874 539.3647 339.07187Q540.14594 338.275 541.3022 338.275Q542.1303 338.275 542.8178 338.72812Q543.52094 339.18124 543.8803 340.025Q544.2397 340.85312 544.2397 342.43124Q544.2397 344.07187 543.8803 345.05624Q543.53656 346.025 542.8178 346.54062Q542.1147 347.04062 541.1772 347.04062Q540.16156 347.04062 539.52094 346.49374Q538.8803 345.93124 538.7553 344.91562ZM543.0678 341.11874Q543.0678 340.2125 542.58344 339.68124Q542.1147 339.15 541.4272 339.15Q540.72406 339.15 540.1928 339.72812Q539.6772 340.29062 539.6772 341.2125Q539.6772 342.025 540.1772 342.54062Q540.6772 343.05624 541.39594 343.05624Q542.1303 343.05624 542.59906 342.54062Q543.0678 342.025 543.0678 341.11874Z" fill-rule="nonzero"/><path fill="#000000" d="M578.36615 346.9L578.36615 338.30624L584.5693 338.30624L584.5693 339.32187L579.5068 339.32187L579.5068 341.94687L584.2568 341.94687L584.2568 342.9625L579.5068 342.9625L579.5068 345.88437L584.7724 345.88437L584.7724 346.9L578.36615 346.9ZM585.5068 346.9L587.7724 343.66562L585.67865 340.68124L586.99115 340.68124L587.9443 342.13437Q588.2099 342.55624 588.3818 342.8375Q588.6318 342.44687 588.8505 342.15L589.8974 340.68124L591.163 340.68124L589.0068 343.60312L591.3193 346.9L590.038 346.9L588.7568 344.9625L588.413 344.44687L586.7724 346.9L585.5068 346.9ZM592.2099 349.29062L592.2099 340.68124L593.163 340.68124L593.163 341.47812Q593.5068 341.00937 593.92865 340.775Q594.36615 340.54062 594.9755 340.54062Q595.7724 340.54062 596.3818 340.94687Q596.99115 341.35312 597.288 342.10312Q597.6005 342.85312 597.6005 343.74374Q597.6005 344.69687 597.2568 345.4625Q596.92865 346.22812 596.2724 346.63437Q595.61615 347.04062 594.8974 347.04062Q594.36615 347.04062 593.9443 346.82187Q593.5224 346.5875 593.2568 346.25937L593.2568 349.29062L592.2099 349.29062ZM593.163 343.82187Q593.163 345.025 593.6474 345.60312Q594.1318 346.16562 594.8193 346.16562Q595.5224 346.16562 596.0224 345.57187Q596.5224 344.97812 596.5224 343.72812Q596.5224 342.54062 596.038 341.9625Q595.55365 341.36874 594.86615 341.36874Q594.1943 341.36874 593.67865 341.99374Q593.163 342.61874 593.163 343.82187ZM603.4599 344.9L604.55365 345.025Q604.30365 345.97812 603.6005 346.50937Q602.8974 347.04062 601.8193 347.04062Q600.4599 347.04062 599.6474 346.19687Q598.8505 345.35312 598.8505 343.8375Q598.8505 342.275 599.663 341.41562Q600.4755 340.54062 601.7568 340.54062Q603.0068 340.54062 603.788 341.38437Q604.5849 342.22812 604.5849 343.775Q604.5849 343.86874 604.5849 344.05624L599.9443 344.05624Q600.0068 345.0875 600.5224 345.63437Q601.038 346.16562 601.8193 346.16562Q602.3974 346.16562 602.80365 345.86874Q603.2255 345.55624 603.4599 344.9ZM600.0068 343.19687L603.4755 343.19687Q603.413 342.4 603.0849 342.00937Q602.5693 341.4 601.7724 341.4Q601.038 341.4 600.538 341.88437Q600.05365 342.36874 600.0068 343.19687ZM606.1943 346.9L606.1943 340.68124L607.1474 340.68124L607.1474 341.61874Q607.5068 340.9625 607.80365 340.75937Q608.11615 340.54062 608.49115 340.54062Q609.0224 340.54062 609.5693 340.86874L609.2099 341.85312Q608.8193 341.61874 608.4443 341.61874Q608.0849 341.61874 607.80365 341.8375Q607.538 342.04062 607.42865 342.41562Q607.24115 342.97812 607.24115 343.63437L607.24115 346.9L606.1943 346.9ZM612.5068 345.9625L612.663 346.88437Q612.2099 346.97812 611.86615 346.97812Q611.288 346.97812 610.9755 346.80624Q610.663 346.61874 610.5224 346.32187Q610.3974 346.025 610.3974 345.07187L610.3974 341.49374L609.6318 341.49374L609.6318 340.68124L610.3974 340.68124L610.3974 339.13437L611.4443 338.50937L611.4443 340.68124L612.5068 340.68124L612.5068 341.49374L611.4443 341.49374L611.4443 345.13437Q611.4443 345.5875 611.49115 345.7125Q611.55365 345.8375 611.67865 345.91562Q611.80365 345.99374 612.038 345.99374Q612.2255 345.99374 612.5068 345.9625Z" fill-rule="nonzero"/><path fill="#757575" d="M21.709375 39.1L21.709375 24.787498L23.6 24.787498L23.6 30.662498L31.0375 30.662498L31.0375 24.787498L32.928123 24.787498L32.928123 39.1L31.0375 39.1L31.0375 32.35L23.6 32.35L23.6 39.1L21.709375 39.1ZM34.771873 33.9125Q34.771873 31.037498 36.365623 29.646873Q37.709373 28.490623 39.63125 28.490623Q41.771873 28.490623 43.115623 29.896873Q44.475 31.303123 44.475 33.771873Q44.475 35.771873 43.88125 36.928123Q43.2875 38.06875 42.13125 38.709373Q40.990623 39.334373 39.63125 39.334373Q37.44375 39.334373 36.1 37.94375Q34.771873 36.5375 34.771873 33.9125ZM36.56875 33.9125Q36.56875 35.9125 37.428123 36.896873Q38.303123 37.88125 39.63125 37.88125Q40.94375 37.88125 41.803123 36.896873Q42.678123 35.896873 42.678123 33.85Q42.678123 31.928123 41.803123 30.943748Q40.928123 29.943748 39.63125 29.943748Q38.303123 29.943748 37.428123 30.943748Q36.56875 31.928123 36.56875 33.9125ZM48.334373 39.1L45.1625 28.724998L46.975 28.724998L48.63125 34.709373L49.240623 36.94375Q49.2875 36.771873 49.771873 34.803123L51.428123 28.724998L53.240623 28.724998L54.7875 34.740623L55.303123 36.725L55.896873 34.725L57.678123 28.724998L59.38125 28.724998L56.146873 39.1L54.31875 39.1L52.6625 32.88125L52.271873 31.115623L50.1625 39.1L48.334373 39.1ZM68.33437 39.1L65.1625 28.724998L66.975 28.724998L68.63125 34.709373L69.24062 36.94375Q69.2875 36.771873 69.77187 34.803123L71.42812 28.724998L73.24062 28.724998L74.7875 34.740623L75.30312 36.725L75.89687 34.725L77.67812 28.724998L79.38125 28.724998L76.14687 39.1L74.31875 39.1L72.6625 32.88125L72.27187 31.115623L70.1625 39.1L68.33437 39.1ZM79.77187 33.9125Q79.77187 31.037498 81.36562 29.646873Q82.70937 28.490623 84.63125 28.490623Q86.77187 28.490623 88.11562 29.896873Q89.475 31.303123 89.475 33.771873Q89.475 35.771873 88.88125 36.928123Q88.2875 38.06875 87.13125 38.709373Q85.99062 39.334373 84.63125 39.334373Q82.44375 39.334373 81.1 37.94375Q79.77187 36.5375 79.77187 33.9125ZM81.56875 33.9125Q81.56875 35.9125 82.42812 36.896873Q83.30312 37.88125 84.63125 37.88125Q85.94375 37.88125 86.80312 36.896873Q87.67812 35.896873 87.67812 33.85Q87.67812 31.928123 86.80312 30.943748Q85.92812 29.943748 84.63125 29.943748Q83.30312 29.943748 82.42812 30.943748Q81.56875 31.928123 81.56875 33.9125ZM98.20937 39.1L98.20937 37.56875Q97.00625 39.334373 94.92812 39.334373Q94.00625 39.334373 93.20937 38.990623Q92.4125 38.63125 92.02187 38.1Q91.64687 37.56875 91.49062 36.7875Q91.38125 36.271873 91.38125 35.146873L91.38125 28.724998L93.13125 28.724998L93.13125 34.475Q93.13125 35.85 93.24062 36.334373Q93.4125 37.021873 93.94375 37.428123Q94.49062 37.81875 95.27187 37.81875Q96.06875 37.81875 96.75625 37.4125Q97.45937 37.00625 97.74062 36.31875Q98.0375 35.615623 98.0375 34.2875L98.0375 28.724998L99.7875 28.724998L99.7875 39.1L98.20937 39.1ZM102.38125 39.1L102.38125 24.787498L104.13125 24.787498L104.13125 39.1L102.38125 39.1ZM113.14687 39.1L113.14687 37.7875Q112.1625 39.334373 110.24062 39.334373Q109.00625 39.334373 107.95937 38.646873Q106.92812 37.959373 106.35 36.740623Q105.7875 35.521873 105.7875 33.928123Q105.7875 32.365623 106.30312 31.099998Q106.81875 29.834373 107.85 29.162498Q108.89687 28.490623 110.1625 28.490623Q111.1 28.490623 111.83437 28.896873Q112.56875 29.287498 113.0375 29.912498L113.0375 24.787498L114.77187 24.787498L114.77187 39.1L113.14687 39.1ZM107.58437 33.928123Q107.58437 35.9125 108.42812 36.896873Q109.27187 37.88125 110.4125 37.88125Q111.56875 37.88125 112.36562 36.94375Q113.17812 36.00625 113.17812 34.06875Q113.17812 31.943748 112.35 30.943748Q111.5375 29.943748 110.33437 29.943748Q109.1625 29.943748 108.36562 30.912498Q107.58437 31.865623 107.58437 33.928123ZM123.33437 43.1L123.14687 41.44375Q123.725 41.6 124.14687 41.6Q124.74062 41.6 125.08437 41.396873Q125.44375 41.209373 125.6625 40.865623Q125.83437 40.6 126.20937 39.553123Q126.25625 39.396873 126.36562 39.115623L122.42812 28.724998L124.31875 28.724998L126.475 34.740623Q126.89687 35.88125 127.225 37.13125Q127.5375 35.928123 127.94375 34.771873L130.1625 28.724998L131.92813 28.724998L127.975 39.271873Q127.35 40.990623 126.99062 41.63125Q126.52187 42.50625 125.9125 42.896873Q125.31875 43.303123 124.475 43.303123Q123.95937 43.303123 123.33437 43.1ZM132.77188 33.9125Q132.77188 31.037498 134.36563 29.646873Q135.70938 28.490623 137.63126 28.490623Q139.77188 28.490623 141.11563 29.896873Q142.475 31.303123 142.475 33.771873Q142.475 35.771873 141.88126 36.928123Q141.2875 38.06875 140.13126 38.709373Q138.99063 39.334373 137.63126 39.334373Q135.44376 39.334373 134.1 37.94375Q132.77188 36.5375 132.77188 33.9125ZM134.56876 33.9125Q134.56876 35.9125 135.42813 36.896873Q136.30313 37.88125 137.63126 37.88125Q138.94376 37.88125 139.80313 36.896873Q140.67813 35.896873 140.67813 33.85Q140.67813 31.928123 139.80313 30.943748Q138.92813 29.943748 137.63126 29.943748Q136.30313 29.943748 135.42813 30.943748Q134.56876 31.928123 134.56876 33.9125ZM151.20938 39.1L151.20938 37.56875Q150.00626 39.334373 147.92813 39.334373Q147.00626 39.334373 146.20938 38.990623Q145.4125 38.63125 145.02188 38.1Q144.64688 37.56875 144.49063 36.7875Q144.38126 36.271873 144.38126 35.146873L144.38126 28.724998L146.13126 28.724998L146.13126 34.475Q146.13126 35.85 146.24063 36.334373Q146.4125 37.021873 146.94376 37.428123Q147.49063 37.81875 148.27188 37.81875Q149.06876 37.81875 149.75626 37.4125Q150.45938 37.00625 150.74063 36.31875Q151.0375 35.615623 151.0375 34.2875L151.0375 28.724998L152.7875 28.724998L152.7875 39.1L151.20938 39.1ZM161.39688 39.1L161.39688 28.724998L162.975 28.724998L162.975 30.303123Q163.58438 29.193748 164.1 28.849998Q164.61563 28.490623 165.225 28.490623Q166.11563 28.490623 167.0375 29.053123L166.42813 30.693748Q165.7875 30.303123 165.14688 30.303123Q164.56876 30.303123 164.1 30.662498Q163.64688 31.006248 163.44376 31.615623Q163.1625 32.553123 163.1625 33.6625L163.1625 39.1L161.39688 39.1ZM175.19376 37.81875Q174.20938 38.646873 173.30313 38.990623Q172.39688 39.334373 171.36563 39.334373Q169.6625 39.334373 168.74063 38.50625Q167.81876 37.6625 167.81876 36.365623Q167.81876 35.6 168.1625 34.975Q168.52188 34.35 169.08438 33.975Q169.64688 33.584373 170.35 33.38125Q170.86563 33.25625 171.9125 33.115623Q174.0375 32.865623 175.0375 32.521873Q175.05313 32.1625 175.05313 32.053123Q175.05313 30.990623 174.55313 30.537498Q173.88126 29.943748 172.55313 29.943748Q171.30313 29.943748 170.70938 30.381248Q170.13126 30.818748 169.85 31.928123L168.13126 31.693748Q168.36563 30.584373 168.89688 29.912498Q169.42813 29.224998 170.44376 28.865623Q171.45938 28.490623 172.80313 28.490623Q174.13126 28.490623 174.95938 28.803123Q175.7875 29.115623 176.17813 29.599998Q176.56876 30.068748 176.725 30.787498Q176.81876 31.240623 176.81876 32.4125L176.81876 34.75625Q176.81876 37.209373 176.92813 37.865623Q177.0375 38.50625 177.38126 39.1L175.5375 39.1Q175.27188 38.553123 175.19376 37.81875ZM175.0375 33.896873Q174.08438 34.2875 172.1625 34.553123Q171.08438 34.709373 170.63126 34.9125Q170.19376 35.1 169.94376 35.475Q169.69376 35.85 169.69376 36.31875Q169.69376 37.021873 170.225 37.490623Q170.75626 37.959373 171.7875 37.959373Q172.80313 37.959373 173.58438 37.521873Q174.38126 37.06875 174.75626 36.303123Q175.0375 35.69375 175.0375 34.5375L175.0375 33.896873ZM183.25626 37.521873L183.50626 39.084373Q182.77188 39.240623 182.17813 39.240623Q181.225 39.240623 180.69376 38.94375Q180.17813 38.63125 179.95938 38.146873Q179.74063 37.646873 179.74063 36.06875L179.74063 30.099998L178.45938 30.099998L178.45938 28.724998L179.74063 28.724998L179.74063 26.162498L181.49063 25.099998L181.49063 28.724998L183.25626 28.724998L183.25626 30.099998L181.49063 30.099998L181.49063 36.1625Q181.49063 36.9125 181.58438 37.13125Q181.67813 37.334373 181.88126 37.475Q182.1 37.6 182.49063 37.6Q182.77188 37.6 183.25626 37.521873ZM192.52188 35.75625L194.33438 35.990623Q193.9125 37.56875 192.74063 38.459373Q191.58438 39.334373 189.77188 39.334373Q187.50626 39.334373 186.1625 37.94375Q184.83438 36.5375 184.83438 34.00625Q184.83438 31.381248 186.17813 29.943748Q187.52188 28.490623 189.67813 28.490623Q191.75626 28.490623 193.06876 29.912498Q194.39688 31.318748 194.39688 33.896873Q194.39688 34.053123 194.38126 34.365623L186.64688 34.365623Q186.74063 36.06875 187.61563 36.975Q188.49063 37.88125 189.7875 37.88125Q190.75626 37.88125 191.42813 37.38125Q192.11563 36.865623 192.52188 35.75625ZM186.74063 32.9125L192.5375 32.9125Q192.42813 31.615623 191.88126 30.959373Q191.0375 29.943748 189.69376 29.943748Q188.49063 29.943748 187.6625 30.756248Q186.83438 31.553123 186.74063 32.9125ZM202.33438 43.1L202.14688 41.44375Q202.725 41.6 203.14688 41.6Q203.74063 41.6 204.08438 41.396873Q204.44376 41.209373 204.6625 40.865623Q204.83438 40.6 205.20938 39.553123Q205.25626 39.396873 205.36563 39.115623L201.42813 28.724998L203.31876 28.724998L205.475 34.740623Q205.89688 35.88125 206.225 37.13125Q206.5375 35.928123 206.94376 34.771873L209.1625 28.724998L210.92813 28.724998L206.975 39.271873Q206.35 40.990623 205.99063 41.63125Q205.52188 42.50625 204.9125 42.896873Q204.31876 43.303123 203.475 43.303123Q202.95938 43.303123 202.33438 43.1ZM211.77188 33.9125Q211.77188 31.037498 213.36563 29.646873Q214.70938 28.490623 216.63126 28.490623Q218.77188 28.490623 220.11563 29.896873Q221.475 31.303123 221.475 33.771873Q221.475 35.771873 220.88126 36.928123Q220.2875 38.06875 219.13126 38.709373Q217.99063 39.334373 216.63126 39.334373Q214.44376 39.334373 213.1 37.94375Q211.77188 36.5375 211.77188 33.9125ZM213.56876 33.9125Q213.56876 35.9125 214.42813 36.896873Q215.30313 37.88125 216.63126 37.88125Q217.94376 37.88125 218.80313 36.896873Q219.67813 35.896873 219.67813 33.85Q219.67813 31.928123 218.80313 30.943748Q217.92813 29.943748 216.63126 29.943748Q215.30313 29.943748 214.42813 30.943748Q213.56876 31.928123 213.56876 33.9125ZM230.20938 39.1L230.20938 37.56875Q229.00626 39.334373 226.92813 39.334373Q226.00626 39.334373 225.20938 38.990623Q224.4125 38.63125 224.02188 38.1Q223.64688 37.56875 223.49063 36.7875Q223.38126 36.271873 223.38126 35.146873L223.38126 28.724998L225.13126 28.724998L225.13126 34.475Q225.13126 35.85 225.24063 36.334373Q225.4125 37.021873 225.94376 37.428123Q226.49063 37.81875 227.27188 37.81875Q228.06876 37.81875 228.75626 37.4125Q229.45938 37.00625 229.74063 36.31875Q230.0375 35.615623 230.0375 34.2875L230.0375 28.724998L231.7875 28.724998L231.7875 39.1L230.20938 39.1ZM234.39688 39.1L234.39688 28.724998L235.975 28.724998L235.975 30.303123Q236.58438 29.193748 237.1 28.849998Q237.61563 28.490623 238.225 28.490623Q239.11563 28.490623 240.0375 29.053123L239.42813 30.693748Q238.7875 30.303123 238.14688 30.303123Q237.56876 30.303123 237.1 30.662498Q236.64688 31.006248 236.44376 31.615623Q236.1625 32.553123 236.1625 33.6625L236.1625 39.1L234.39688 39.1ZM254.52188 35.75625L256.33438 35.990623Q255.9125 37.56875 254.74063 38.459373Q253.58438 39.334373 251.77188 39.334373Q249.50626 39.334373 248.1625 37.94375Q246.83438 36.5375 246.83438 34.00625Q246.83438 31.381248 248.17813 29.943748Q249.52188 28.490623 251.67813 28.490623Q253.75626 28.490623 255.06876 29.912498Q256.39688 31.318748 256.39688 33.896873Q256.39688 34.053123 256.38126 34.365623L248.64688 34.365623Q248.74063 36.06875 249.61563 36.975Q250.49063 37.88125 251.7875 37.88125Q252.75626 37.88125 253.42813 37.38125Q254.11563 36.865623 254.52188 35.75625ZM248.74063 32.9125L254.5375 32.9125Q254.42813 31.615623 253.88126 30.959373Q253.0375 29.943748 251.69376 29.943748Q250.49063 29.943748 249.6625 30.756248Q248.83438 31.553123 248.74063 32.9125ZM257.24063 39.1L261.0375 33.709373L257.5375 28.724998L259.725 28.724998L261.31876 31.162498Q261.77188 31.849998 262.0375 32.31875Q262.475 31.678123 262.83438 31.178123L264.58438 28.724998L266.67813 28.724998L263.1 33.615623L266.95938 39.1L264.80313 39.1L262.6625 35.88125L262.1 35.00625L259.38126 39.1L257.24063 39.1ZM268.4125 43.06875L268.4125 28.724998L270.02188 28.724998L270.02188 30.068748Q270.58438 29.287498 271.2875 28.896873Q272.00626 28.490623 273.02188 28.490623Q274.35 28.490623 275.36563 29.178123Q276.38126 29.865623 276.89688 31.115623Q277.42813 32.35 277.42813 33.834373Q277.42813 35.428123 276.85 36.709373Q276.2875 37.975 275.19376 38.6625Q274.1 39.334373 272.89688 39.334373Q272.02188 39.334373 271.31876 38.959373Q270.63126 38.584373 270.17813 38.021873L270.17813 43.06875L268.4125 43.06875ZM270.00626 33.975Q270.00626 35.975 270.81876 36.928123Q271.63126 37.88125 272.7875 37.88125Q273.95938 37.88125 274.7875 36.896873Q275.63126 35.9125 275.63126 33.81875Q275.63126 31.849998 274.80313 30.865623Q273.99063 29.865623 272.86563 29.865623Q271.74063 29.865623 270.86563 30.928123Q270.00626 31.974998 270.00626 33.975ZM286.52188 35.75625L288.33438 35.990623Q287.9125 37.56875 286.74063 38.459373Q285.58438 39.334373 283.77188 39.334373Q281.50626 39.334373 280.1625 37.94375Q278.83438 36.5375 278.83438 34.00625Q278.83438 31.381248 280.17813 29.943748Q281.52188 28.490623 283.67813 28.490623Q285.75626 28.490623 287.06876 29.912498Q288.39688 31.318748 288.39688 33.896873Q288.39688 34.053123 288.38126 34.365623L280.64688 34.365623Q280.74063 36.06875 281.61563 36.975Q282.49063 37.88125 283.7875 37.88125Q284.75626 37.88125 285.42813 37.38125Q286.11563 36.865623 286.52188 35.75625ZM280.74063 32.9125L286.5375 32.9125Q286.42813 31.615623 285.88126 30.959373Q285.0375 29.943748 283.69376 29.943748Q282.49063 29.943748 281.6625 30.756248Q280.83438 31.553123 280.74063 32.9125ZM290.39688 39.1L290.39688 28.724998L291.975 28.724998L291.975 30.303123Q292.58438 29.193748 293.1 28.849998Q293.61563 28.490623 294.225 28.490623Q295.11563 28.490623 296.0375 29.053123L295.42813 30.693748Q294.7875 30.303123 294.14688 30.303123Q293.56876 30.303123 293.1 30.662498Q292.64688 31.006248 292.44376 31.615623Q292.1625 32.553123 292.1625 33.6625L292.1625 39.1L290.39688 39.1ZM301.25626 37.521873L301.50626 39.084373Q300.77188 39.240623 300.17813 39.240623Q299.225 39.240623 298.69376 38.94375Q298.17813 38.63125 297.95938 38.146873Q297.74063 37.646873 297.74063 36.06875L297.74063 30.099998L296.45938 30.099998L296.45938 28.724998L297.74063 28.724998L297.74063 26.162498L299.49063 25.099998L299.49063 28.724998L301.25626 28.724998L301.25626 30.099998L299.49063 30.099998L299.49063 36.1625Q299.49063 36.9125 299.58438 37.13125Q299.67813 37.334373 299.88126 37.475Q300.1 37.6 300.49063 37.6Q300.77188 37.6 301.25626 37.521873ZM303.42813 26.803123L303.42813 24.787498L305.19376 24.787498L305.19376 26.803123L303.42813 26.803123ZM303.42813 39.1L303.42813 28.724998L305.19376 28.724998L305.19376 39.1L303.42813 39.1ZM306.70938 36.00625L308.45938 35.725Q308.6 36.771873 309.27188 37.334373Q309.94376 37.88125 311.14688 37.88125Q312.35 37.88125 312.92813 37.396873Q313.52188 36.896873 313.52188 36.240623Q313.52188 35.646873 313.00626 35.303123Q312.64688 35.06875 311.20938 34.709373Q309.27188 34.209373 308.52188 33.865623Q307.7875 33.50625 307.39688 32.88125Q307.00626 32.240623 307.00626 31.474998Q307.00626 30.787498 307.31876 30.193748Q307.64688 29.599998 308.19376 29.209373Q308.6 28.912498 309.30313 28.709373Q310.02188 28.490623 310.83438 28.490623Q312.05313 28.490623 312.975 28.849998Q313.89688 29.193748 314.33438 29.803123Q314.77188 30.396873 314.94376 31.396873L313.225 31.631248Q313.1 30.834373 312.5375 30.396873Q311.975 29.943748 310.95938 29.943748Q309.74063 29.943748 309.225 30.349998Q308.70938 30.740623 308.70938 31.271873Q308.70938 31.615623 308.92813 31.896873Q309.13126 32.178123 309.6 32.365623Q309.86563 32.459373 311.14688 32.803123Q313.02188 33.303123 313.75626 33.63125Q314.49063 33.94375 314.9125 34.553123Q315.33438 35.146873 315.33438 36.053123Q315.33438 36.928123 314.81876 37.709373Q314.30313 38.490623 313.33438 38.9125Q312.36563 39.334373 311.14688 39.334373Q309.13126 39.334373 308.06876 38.490623Q307.00626 37.646873 306.70938 36.00625ZM324.52188 35.75625L326.33438 35.990623Q325.9125 37.56875 324.74063 38.459373Q323.58438 39.334373 321.77188 39.334373Q319.50626 39.334373 318.1625 37.94375Q316.83438 36.5375 316.83438 34.00625Q316.83438 31.381248 318.17813 29.943748Q319.52188 28.490623 321.67813 28.490623Q323.75626 28.490623 325.06876 29.912498Q326.39688 31.318748 326.39688 33.896873Q326.39688 34.053123 326.38126 34.365623L318.64688 34.365623Q318.74063 36.06875 319.61563 36.975Q320.49063 37.88125 321.7875 37.88125Q322.75626 37.88125 323.42813 37.38125Q324.11563 36.865623 324.52188 35.75625ZM318.74063 32.9125L324.5375 32.9125Q324.42813 31.615623 323.88126 30.959373Q323.0375 29.943748 321.69376 29.943748Q320.49063 29.943748 319.6625 30.756248Q318.83438 31.553123 318.74063 32.9125ZM334.42813 26.803123L334.42813 24.787498L336.19376 24.787498L336.19376 26.803123L334.42813 26.803123ZM334.42813 39.1L334.42813 28.724998L336.19376 28.724998L336.19376 39.1L334.42813 39.1ZM338.4125 39.1L338.4125 28.724998L340.00626 28.724998L340.00626 30.209373Q341.14688 28.490623 343.30313 28.490623Q344.24063 28.490623 345.02188 28.834373Q345.81876 29.162498 346.20938 29.709373Q346.6 30.256248 346.75626 31.006248Q346.85 31.506248 346.85 32.725L346.85 39.1L345.08438 39.1L345.08438 32.7875Q345.08438 31.709373 344.88126 31.178123Q344.67813 30.646873 344.14688 30.334373Q343.63126 30.021873 342.92813 30.021873Q341.80313 30.021873 340.99063 30.740623Q340.17813 31.443748 340.17813 33.428123L340.17813 39.1L338.4125 39.1ZM355.67813 39.1L355.67813 24.787498L362.02188 24.787498Q363.92813 24.787498 364.92813 25.178123Q365.92813 25.553123 366.52188 26.537498Q367.11563 27.506248 367.11563 28.693748Q367.11563 30.209373 366.13126 31.256248Q365.14688 32.303123 363.08438 32.584373Q363.83438 32.94375 364.225 33.303123Q365.05313 34.053123 365.80313 35.209373L368.2875 39.1L365.9125 39.1L364.00626 36.115623Q363.17813 34.834373 362.64688 34.146873Q362.11563 33.459373 361.67813 33.19375Q361.25626 32.9125 360.81876 32.803123Q360.49063 32.740623 359.77188 32.740623L357.56876 32.740623L357.56876 39.1L355.67813 39.1ZM357.56876 31.099998L361.64688 31.099998Q362.94376 31.099998 363.6625 30.834373Q364.39688 30.568748 364.77188 29.974998Q365.1625 29.381248 365.1625 28.693748Q365.1625 27.678123 364.42813 27.021873Q363.69376 26.365623 362.1 26.365623L357.56876 26.365623L357.56876 31.099998ZM376.20938 39.1L376.20938 37.56875Q375.00626 39.334373 372.92813 39.334373Q372.00626 39.334373 371.20938 38.990623Q370.4125 38.63125 370.02188 38.1Q369.64688 37.56875 369.49063 36.7875Q369.38126 36.271873 369.38126 35.146873L369.38126 28.724998L371.13126 28.724998L371.13126 34.475Q371.13126 35.85 371.24063 36.334373Q371.4125 37.021873 371.94376 37.428123Q372.49063 37.81875 373.27188 37.81875Q374.06876 37.81875 374.75626 37.4125Q375.45938 37.00625 375.74063 36.31875Q376.0375 35.615623 376.0375 34.2875L376.0375 28.724998L377.7875 28.724998L377.7875 39.1L376.20938 39.1ZM379.70938 36.00625L381.45938 35.725Q381.6 36.771873 382.27188 37.334373Q382.94376 37.88125 384.14688 37.88125Q385.35 37.88125 385.92813 37.396873Q386.52188 36.896873 386.52188 36.240623Q386.52188 35.646873 386.00626 35.303123Q385.64688 35.06875 384.20938 34.709373Q382.27188 34.209373 381.52188 33.865623Q380.7875 33.50625 380.39688 32.88125Q380.00626 32.240623 380.00626 31.474998Q380.00626 30.787498 380.31876 30.193748Q380.64688 29.599998 381.19376 29.209373Q381.6 28.912498 382.30313 28.709373Q383.02188 28.490623 383.83438 28.490623Q385.05313 28.490623 385.975 28.849998Q386.89688 29.193748 387.33438 29.803123Q387.77188 30.396873 387.94376 31.396873L386.225 31.631248Q386.1 30.834373 385.5375 30.396873Q384.975 29.943748 383.95938 29.943748Q382.74063 29.943748 382.225 30.349998Q381.70938 30.740623 381.70938 31.271873Q381.70938 31.615623 381.92813 31.896873Q382.13126 32.178123 382.6 32.365623Q382.86563 32.459373 384.14688 32.803123Q386.02188 33.303123 386.75626 33.63125Q387.49063 33.94375 387.9125 34.553123Q388.33438 35.146873 388.33438 36.053123Q388.33438 36.928123 387.81876 37.709373Q387.30313 38.490623 386.33438 38.9125Q385.36563 39.334373 384.14688 39.334373Q382.13126 39.334373 381.06876 38.490623Q380.00626 37.646873 379.70938 36.00625ZM394.25626 37.521873L394.50626 39.084373Q393.77188 39.240623 393.17813 39.240623Q392.225 39.240623 391.69376 38.94375Q391.17813 38.63125 390.95938 38.146873Q390.74063 37.646873 390.74063 36.06875L390.74063 30.099998L389.45938 30.099998L389.45938 28.724998L390.74063 28.724998L390.74063 26.162498L392.49063 25.099998L392.49063 28.724998L394.25626 28.724998L394.25626 30.099998L392.49063 30.099998L392.49063 36.1625Q392.49063 36.9125 392.58438 37.13125Q392.67813 37.334373 392.88126 37.475Q393.1 37.6 393.49063 37.6Q393.77188 37.6 394.25626 37.521873ZM399.70938 35.56875Q399.69376 35.225 399.69376 35.053123Q399.69376 34.00625 399.99063 33.25625Q400.20938 32.69375 400.69376 32.115623Q401.0375 31.693748 401.94376 30.896873Q402.86563 30.084373 403.13126 29.615623Q403.4125 29.131248 403.4125 28.568748Q403.4125 27.537498 402.6 26.771873Q401.80313 25.990623 400.64688 25.990623Q399.52188 25.990623 398.77188 26.693748Q398.02188 27.396873 397.7875 28.881248L395.975 28.662498Q396.225 26.662498 397.42813 25.599998Q398.63126 24.537498 400.61563 24.537498Q402.725 24.537498 403.975 25.678123Q405.225 26.818748 405.225 28.443748Q405.225 29.381248 404.77188 30.178123Q404.33438 30.959373 403.05313 32.1Q402.19376 32.865623 401.92813 33.225Q401.67813 33.584373 401.5375 34.053123Q401.4125 34.521873 401.39688 35.56875L399.70938 35.56875ZM399.6 39.1L399.6 37.1L401.6 37.1L401.6 39.1L399.6 39.1ZM416.77188 43.303123Q415.31876 41.475 414.31876 39.021873Q413.31876 36.553123 413.31876 33.9125Q413.31876 31.584373 414.06876 29.459373Q414.94376 26.990623 416.77188 24.537498L418.0375 24.537498Q416.85 26.568748 416.475 27.443748Q415.88126 28.787498 415.5375 30.256248Q415.11563 32.084373 415.11563 33.928123Q415.11563 38.615623 418.0375 43.303123L416.77188 43.303123ZM420.64688 39.1L420.64688 24.787498L425.56876 24.787498Q427.24063 24.787498 428.13126 24.990623Q429.35 25.271873 430.225 26.006248Q431.35 26.974998 431.9125 28.459373Q432.475 29.943748 432.475 31.865623Q432.475 33.490623 432.1 34.75625Q431.725 36.00625 431.11563 36.834373Q430.52188 37.6625 429.81876 38.146873Q429.11563 38.615623 428.11563 38.865623Q427.11563 39.1 425.80313 39.1L420.64688 39.1ZM422.5375 37.4125L425.6 37.4125Q427.00626 37.4125 427.80313 37.146873Q428.61563 36.88125 429.1 36.396873Q429.77188 35.725 430.14688 34.6Q430.52188 33.459373 430.52188 31.834373Q430.52188 29.584373 429.7875 28.381248Q429.05313 27.178123 427.99063 26.771873Q427.24063 26.474998 425.55313 26.474998L422.5375 26.474998L422.5375 37.4125ZM441.19376 37.81875Q440.20938 38.646873 439.30313 38.990623Q438.39688 39.334373 437.36563 39.334373Q435.6625 39.334373 434.74063 38.50625Q433.81876 37.6625 433.81876 36.365623Q433.81876 35.6 434.1625 34.975Q434.52188 34.35 435.08438 33.975Q435.64688 33.584373 436.35 33.38125Q436.86563 33.25625 437.9125 33.115623Q440.0375 32.865623 441.0375 32.521873Q441.05313 32.1625 441.05313 32.053123Q441.05313 30.990623 440.55313 30.537498Q439.88126 29.943748 438.55313 29.943748Q437.30313 29.943748 436.70938 30.381248Q436.13126 30.818748 435.85 31.928123L434.13126 31.693748Q434.36563 30.584373 434.89688 29.912498Q435.42813 29.224998 436.44376 28.865623Q437.45938 28.490623 438.80313 28.490623Q440.13126 28.490623 440.95938 28.803123Q441.7875 29.115623 442.17813 29.599998Q442.56876 30.068748 442.725 30.787498Q442.81876 31.240623 442.81876 32.4125L442.81876 34.75625Q442.81876 37.209373 442.92813 37.865623Q443.0375 38.50625 443.38126 39.1L441.5375 39.1Q441.27188 38.553123 441.19376 37.81875ZM441.0375 33.896873Q440.08438 34.2875 438.1625 34.553123Q437.08438 34.709373 436.63126 34.9125Q436.19376 35.1 435.94376 35.475Q435.69376 35.85 435.69376 36.31875Q435.69376 37.021873 436.225 37.490623Q436.75626 37.959373 437.7875 37.959373Q438.80313 37.959373 439.58438 37.521873Q440.38126 37.06875 440.75626 36.303123Q441.0375 35.69375 441.0375 34.5375L441.0375 33.896873ZM445.42813 26.803123L445.42813 24.787498L447.19376 24.787498L447.19376 26.803123L445.42813 26.803123ZM445.42813 39.1L445.42813 28.724998L447.19376 28.724998L447.19376 39.1L445.42813 39.1ZM449.38126 39.1L449.38126 24.787498L451.13126 24.787498L451.13126 39.1L449.38126 39.1ZM453.33438 43.1L453.14688 41.44375Q453.725 41.6 454.14688 41.6Q454.74063 41.6 455.08438 41.396873Q455.44376 41.209373 455.6625 40.865623Q455.83438 40.6 456.20938 39.553123Q456.25626 39.396873 456.36563 39.115623L452.42813 28.724998L454.31876 28.724998L456.475 34.740623Q456.89688 35.88125 457.225 37.13125Q457.5375 35.928123 457.94376 34.771873L460.1625 28.724998L461.92813 28.724998L457.975 39.271873Q457.35 40.990623 456.99063 41.63125Q456.52188 42.50625 455.9125 42.896873Q455.31876 43.303123 454.475 43.303123Q453.95938 43.303123 453.33438 43.1ZM469.67813 39.1L469.67813 24.787498L476.02188 24.787498Q477.92813 24.787498 478.92813 25.178123Q479.92813 25.553123 480.52188 26.537498Q481.11563 27.506248 481.11563 28.693748Q481.11563 30.209373 480.13126 31.256248Q479.14688 32.303123 477.08438 32.584373Q477.83438 32.94375 478.225 33.303123Q479.05313 34.053123 479.80313 35.209373L482.2875 39.1L479.9125 39.1L478.00626 36.115623Q477.17813 34.834373 476.64688 34.146873Q476.11563 33.459373 475.67813 33.19375Q475.25626 32.9125 474.81876 32.803123Q474.49063 32.740623 473.77188 32.740623L471.56876 32.740623L471.56876 39.1L469.67813 39.1ZM471.56876 31.099998L475.64688 31.099998Q476.94376 31.099998 477.6625 30.834373Q478.39688 30.568748 478.77188 29.974998Q479.1625 29.381248 479.1625 28.693748Q479.1625 27.678123 478.42813 27.021873Q477.69376 26.365623 476.1 26.365623L471.56876 26.365623L471.56876 31.099998ZM490.20938 39.1L490.20938 37.56875Q489.00626 39.334373 486.92813 39.334373Q486.00626 39.334373 485.20938 38.990623Q484.4125 38.63125 484.02188 38.1Q483.64688 37.56875 483.49063 36.7875Q483.38126 36.271873 483.38126 35.146873L483.38126 28.724998L485.13126 28.724998L485.13126 34.475Q485.13126 35.85 485.24063 36.334373Q485.4125 37.021873 485.94376 37.428123Q486.49063 37.81875 487.27188 37.81875Q488.06876 37.81875 488.75626 37.4125Q489.45938 37.00625 489.74063 36.31875Q490.0375 35.615623 490.0375 34.2875L490.0375 28.724998L491.7875 28.724998L491.7875 39.1L490.20938 39.1ZM493.70938 36.00625L495.45938 35.725Q495.6 36.771873 496.27188 37.334373Q496.94376 37.88125 498.14688 37.88125Q499.35 37.88125 499.92813 37.396873Q500.52188 36.896873 500.52188 36.240623Q500.52188 35.646873 500.00626 35.303123Q499.64688 35.06875 498.20938 34.709373Q496.27188 34.209373 495.52188 33.865623Q494.7875 33.50625 494.39688 32.88125Q494.00626 32.240623 494.00626 31.474998Q494.00626 30.787498 494.31876 30.193748Q494.64688 29.599998 495.19376 29.209373Q495.6 28.912498 496.30313 28.709373Q497.02188 28.490623 497.83438 28.490623Q499.05313 28.490623 499.975 28.849998Q500.89688 29.193748 501.33438 29.803123Q501.77188 30.396873 501.94376 31.396873L500.225 31.631248Q500.1 30.834373 499.5375 30.396873Q498.975 29.943748 497.95938 29.943748Q496.74063 29.943748 496.225 30.349998Q495.70938 30.740623 495.70938 31.271873Q495.70938 31.615623 495.92813 31.896873Q496.13126 32.178123 496.6 32.365623Q496.86563 32.459373 498.14688 32.803123Q500.02188 33.303123 500.75626 33.63125Q501.49063 33.94375 501.9125 34.553123Q502.33438 35.146873 502.33438 36.053123Q502.33438 36.928123 501.81876 37.709373Q501.30313 38.490623 500.33438 38.9125Q499.36563 39.334373 498.14688 39.334373Q496.13126 39.334373 495.06876 38.490623Q494.00626 37.646873 493.70938 36.00625ZM508.25626 37.521873L508.50626 39.084373Q507.77188 39.240623 507.17813 39.240623Q506.225 39.240623 505.69376 38.94375Q505.17813 38.63125 504.95938 38.146873Q504.74063 37.646873 504.74063 36.06875L504.74063 30.099998L503.45938 30.099998L503.45938 28.724998L504.74063 28.724998L504.74063 26.162498L506.49063 25.099998L506.49063 28.724998L508.25626 28.724998L508.25626 30.099998L506.49063 30.099998L506.49063 36.1625Q506.49063 36.9125 506.58438 37.13125Q506.67813 37.334373 506.88126 37.475Q507.1 37.6 507.49063 37.6Q507.77188 37.6 508.25626 37.521873ZM523.20935 39.1L523.20935 37.56875Q522.0062 39.334373 519.9281 39.334373Q519.0062 39.334373 518.20935 38.990623Q517.4125 38.63125 517.02185 38.1Q516.64685 37.56875 516.4906 36.7875Q516.3812 36.271873 516.3812 35.146873L516.3812 28.724998L518.1312 28.724998L518.1312 34.475Q518.1312 35.85 518.2406 36.334373Q518.4125 37.021873 518.9437 37.428123Q519.4906 37.81875 520.27185 37.81875Q521.0687 37.81875 521.7562 37.4125Q522.45935 37.00625 522.7406 36.31875Q523.0375 35.615623 523.0375 34.2875L523.0375 28.724998L524.7875 28.724998L524.7875 39.1L523.20935 39.1ZM526.70935 36.00625L528.45935 35.725Q528.6 36.771873 529.27185 37.334373Q529.9437 37.88125 531.14685 37.88125Q532.35 37.88125 532.9281 37.396873Q533.52185 36.896873 533.52185 36.240623Q533.52185 35.646873 533.0062 35.303123Q532.64685 35.06875 531.20935 34.709373Q529.27185 34.209373 528.52185 33.865623Q527.7875 33.50625 527.39685 32.88125Q527.0062 32.240623 527.0062 31.474998Q527.0062 30.787498 527.3187 30.193748Q527.64685 29.599998 528.1937 29.209373Q528.6 28.912498 529.3031 28.709373Q530.02185 28.490623 530.83435 28.490623Q532.0531 28.490623 532.975 28.849998Q533.89685 29.193748 534.33435 29.803123Q534.77185 30.396873 534.9437 31.396873L533.225 31.631248Q533.1 30.834373 532.5375 30.396873Q531.975 29.943748 530.95935 29.943748Q529.7406 29.943748 529.225 30.349998Q528.70935 30.740623 528.70935 31.271873Q528.70935 31.615623 528.9281 31.896873Q529.1312 32.178123 529.6 32.365623Q529.8656 32.459373 531.14685 32.803123Q533.02185 33.303123 533.7562 33.63125Q534.4906 33.94375 534.9125 34.553123Q535.33435 35.146873 535.33435 36.053123Q535.33435 36.928123 534.8187 37.709373Q534.3031 38.490623 533.33435 38.9125Q532.3656 39.334373 531.14685 39.334373Q529.1312 39.334373 528.0687 38.490623Q527.0062 37.646873 526.70935 36.00625ZM544.52185 35.75625L546.33435 35.990623Q545.9125 37.56875 544.7406 38.459373Q543.58435 39.334373 541.77185 39.334373Q539.5062 39.334373 538.1625 37.94375Q536.83435 36.5375 536.83435 34.00625Q536.83435 31.381248 538.1781 29.943748Q539.52185 28.490623 541.6781 28.490623Q543.7562 28.490623 545.0687 29.912498Q546.39685 31.318748 546.39685 33.896873Q546.39685 34.053123 546.3812 34.365623L538.64685 34.365623Q538.7406 36.06875 539.6156 36.975Q540.4906 37.88125 541.7875 37.88125Q542.7562 37.88125 543.4281 37.38125Q544.1156 36.865623 544.52185 35.75625ZM538.7406 32.9125L544.5375 32.9125Q544.4281 31.615623 543.8812 30.959373Q543.0375 29.943748 541.6937 29.943748Q540.4906 29.943748 539.6625 30.756248Q538.83435 31.553123 538.7406 32.9125ZM548.39685 39.1L548.39685 28.724998L549.975 28.724998L549.975 30.303123Q550.58435 29.193748 551.1 28.849998Q551.6156 28.490623 552.225 28.490623Q553.1156 28.490623 554.0375 29.053123L553.4281 30.693748Q552.7875 30.303123 552.14685 30.303123Q551.5687 30.303123 551.1 30.662498Q550.64685 31.006248 550.4437 31.615623Q550.1625 32.553123 550.1625 33.6625L550.1625 39.1L548.39685 39.1ZM554.70935 36.00625L556.45935 35.725Q556.6 36.771873 557.27185 37.334373Q557.9437 37.88125 559.14685 37.88125Q560.35 37.88125 560.9281 37.396873Q561.52185 36.896873 561.52185 36.240623Q561.52185 35.646873 561.0062 35.303123Q560.64685 35.06875 559.20935 34.709373Q557.27185 34.209373 556.52185 33.865623Q555.7875 33.50625 555.39685 32.88125Q555.0062 32.240623 555.0062 31.474998Q555.0062 30.787498 555.3187 30.193748Q555.64685 29.599998 556.1937 29.209373Q556.6 28.912498 557.3031 28.709373Q558.02185 28.490623 558.83435 28.490623Q560.0531 28.490623 560.975 28.849998Q561.89685 29.193748 562.33435 29.803123Q562.77185 30.396873 562.9437 31.396873L561.225 31.631248Q561.1 30.834373 560.5375 30.396873Q559.975 29.943748 558.95935 29.943748Q557.7406 29.943748 557.225 30.349998Q556.70935 30.740623 556.70935 31.271873Q556.70935 31.615623 556.9281 31.896873Q557.1312 32.178123 557.6 32.365623Q557.8656 32.459373 559.14685 32.803123Q561.02185 33.303123 561.7562 33.63125Q562.4906 33.94375 562.9125 34.553123Q563.33435 35.146873 563.33435 36.053123Q563.33435 36.928123 562.8187 37.709373Q562.3031 38.490623 561.33435 38.9125Q560.3656 39.334373 559.14685 39.334373Q557.1312 39.334373 556.0687 38.490623Q555.0062 37.646873 554.70935 36.00625ZM566.5687 43.303123L565.3187 43.303123Q568.225 38.615623 568.225 33.928123Q568.225 32.084373 567.8187 30.287498Q567.475 28.818748 566.8812 27.474998Q566.5062 26.584373 565.3187 24.537498L566.5687 24.537498Q568.4125 26.990623 569.2875 29.459373Q570.0375 31.584373 570.0375 33.9125Q570.0375 36.553123 569.02185 39.021873Q568.02185 41.475 566.5687 43.303123Z" fill-rule="nonzero"/></svg>