<?xml version="1.0" encoding="UTF-8" standalone="no"?>
<!-- Created with Inkscape (http://www.inkscape.org/) -->

<svg
   xmlns:dc="http://purl.org/dc/elements/1.1/"
   xmlns:cc="http://creativecommons.org/ns#"
   xmlns:rdf="http://www.w3.org/1999/02/22-rdf-syntax-ns#"
   xmlns:svg="http://www.w3.org/2000/svg"
   xmlns="http://www.w3.org/2000/svg"
   xmlns:sodipodi="http://sodipodi.sourceforge.net/DTD/sodipodi-0.dtd"
   xmlns:inkscape="http://www.inkscape.org/namespaces/inkscape"
   id="svg2"
   version="1.1"
   inkscape:version="0.91 r13725"
   xml:space="preserve"
   width="28.127325cm"
   height="7.1972704cm"
   viewBox="0 0 996.63749 255.02139"
   sodipodi:docname="perf-changes.svg"><metadata
     id="metadata8"><rdf:RDF><cc:Work
         rdf:about=""><dc:format>image/svg+xml</dc:format><dc:type
           rdf:resource="http://purl.org/dc/dcmitype/StillImage" /><dc:title></dc:title></cc:Work></rdf:RDF></metadata><defs
     id="defs6"><clipPath
       clipPathUnits="userSpaceOnUse"
       id="clipPath30"><path
         d="m 51.12,196.08 739.68,0 0,203.04 -739.68,0 0,-203.04 z"
         id="path32"
         inkscape:connector-curvature="0"
         style="clip-rule:evenodd" /></clipPath><clipPath
       clipPathUnits="userSpaceOnUse"
       id="clipPath42"><path
         d="m 51.12,196.08 739.68,0 0,203.04 -739.68,0 0,-203.04 z"
         id="path44"
         inkscape:connector-curvature="0"
         style="clip-rule:evenodd" /></clipPath><clipPath
       clipPathUnits="userSpaceOnUse"
       id="clipPath50"><path
         d="m 51.12,196.08 739.68,0 0,203.04 -739.68,0 0,-203.04 z"
         id="path52"
         inkscape:connector-curvature="0"
         style="clip-rule:evenodd" /></clipPath><clipPath
       clipPathUnits="userSpaceOnUse"
       id="clipPath62"><path
         d="m 51.12,196.08 739.68,0 0,203.04 -739.68,0 0,-203.04 z"
         id="path64"
         inkscape:connector-curvature="0"
         style="clip-rule:evenodd" /></clipPath><clipPath
       clipPathUnits="userSpaceOnUse"
       id="clipPath70"><path
         d="m 51.12,196.08 739.68,0 0,203.04 -739.68,0 0,-203.04 z"
         id="path72"
         inkscape:connector-curvature="0"
         style="clip-rule:evenodd" /></clipPath><clipPath
       clipPathUnits="userSpaceOnUse"
       id="clipPath82"><path
         d="m 51.12,196.08 739.68,0 0,203.04 -739.68,0 0,-203.04 z"
         id="path84"
         inkscape:connector-curvature="0"
         style="clip-rule:evenodd" /></clipPath><clipPath
       clipPathUnits="userSpaceOnUse"
       id="clipPath90"><path
         d="m 51.12,196.08 739.68,0 0,203.04 -739.68,0 0,-203.04 z"
         id="path92"
         inkscape:connector-curvature="0"
         style="clip-rule:evenodd" /></clipPath><clipPath
       clipPathUnits="userSpaceOnUse"
       id="clipPath102"><path
         d="m 51.12,196.08 739.68,0 0,203.04 -739.68,0 0,-203.04 z"
         id="path104"
         inkscape:connector-curvature="0"
         style="clip-rule:evenodd" /></clipPath><clipPath
       clipPathUnits="userSpaceOnUse"
       id="clipPath110"><path
         d="m 51.12,196.08 739.68,0 0,203.04 -739.68,0 0,-203.04 z"
         id="path112"
         inkscape:connector-curvature="0"
         style="clip-rule:evenodd" /></clipPath><clipPath
       clipPathUnits="userSpaceOnUse"
       id="clipPath122"><path
         d="m 51.12,196.08 739.68,0 0,203.04 -739.68,0 0,-203.04 z"
         id="path124"
         inkscape:connector-curvature="0"
         style="clip-rule:evenodd" /></clipPath><clipPath
       clipPathUnits="userSpaceOnUse"
       id="clipPath130"><path
         d="m 51.12,196.08 739.68,0 0,203.04 -739.68,0 0,-203.04 z"
         id="path132"
         inkscape:connector-curvature="0"
         style="clip-rule:evenodd" /></clipPath><clipPath
       clipPathUnits="userSpaceOnUse"
       id="clipPath142"><path
         d="m 51.12,196.08 739.68,0 0,203.04 -739.68,0 0,-203.04 z"
         id="path144"
         inkscape:connector-curvature="0"
         style="clip-rule:evenodd" /></clipPath><clipPath
       clipPathUnits="userSpaceOnUse"
       id="clipPath150"><path
         d="m 51.12,196.08 739.68,0 0,203.04 -739.68,0 0,-203.04 z"
         id="path152"
         inkscape:connector-curvature="0"
         style="clip-rule:evenodd" /></clipPath><clipPath
       clipPathUnits="userSpaceOnUse"
       id="clipPath162"><path
         d="m 51.12,196.08 739.68,0 0,203.04 -739.68,0 0,-203.04 z"
         id="path164"
         inkscape:connector-curvature="0"
         style="clip-rule:evenodd" /></clipPath><clipPath
       clipPathUnits="userSpaceOnUse"
       id="clipPath170"><path
         d="m 51.12,196.08 739.68,0 0,203.04 -739.68,0 0,-203.04 z"
         id="path172"
         inkscape:connector-curvature="0"
         style="clip-rule:evenodd" /></clipPath><clipPath
       clipPathUnits="userSpaceOnUse"
       id="clipPath182"><path
         d="m 51.12,196.08 739.68,0 0,203.04 -739.68,0 0,-203.04 z"
         id="path184"
         inkscape:connector-curvature="0"
         style="clip-rule:evenodd" /></clipPath><clipPath
       clipPathUnits="userSpaceOnUse"
       id="clipPath190"><path
         d="m 51.12,196.08 739.68,0 0,203.04 -739.68,0 0,-203.04 z"
         id="path192"
         inkscape:connector-curvature="0"
         style="clip-rule:evenodd" /></clipPath><clipPath
       clipPathUnits="userSpaceOnUse"
       id="clipPath202"><path
         d="m 51.12,196.08 739.68,0 0,203.04 -739.68,0 0,-203.04 z"
         id="path204"
         inkscape:connector-curvature="0"
         style="clip-rule:evenodd" /></clipPath><clipPath
       clipPathUnits="userSpaceOnUse"
       id="clipPath210"><path
         d="m 52.08,218.64 165,0 0,31.68 -165,0 0,-31.68 z"
         id="path212"
         inkscape:connector-curvature="0"
         style="clip-rule:evenodd" /></clipPath><clipPath
       clipPathUnits="userSpaceOnUse"
       id="clipPath222"><path
         d="m 52.08,218.64 165,0 0,31.68 -165,0 0,-31.68 z"
         id="path224"
         inkscape:connector-curvature="0"
         style="clip-rule:evenodd" /></clipPath><clipPath
       clipPathUnits="userSpaceOnUse"
       id="clipPath230"><path
         d="m 54.84,250.32 162.24,0 0,31.68 -162.24,0 0,-31.68 z"
         id="path232"
         inkscape:connector-curvature="0"
         style="clip-rule:evenodd" /></clipPath><clipPath
       clipPathUnits="userSpaceOnUse"
       id="clipPath242"><path
         d="m 54.84,250.32 162.24,0 0,31.68 -162.24,0 0,-31.68 z"
         id="path244"
         inkscape:connector-curvature="0"
         style="clip-rule:evenodd" /></clipPath><clipPath
       clipPathUnits="userSpaceOnUse"
       id="clipPath250"><path
         d="m 76.2,281.88 140.88,0 0,31.8 -140.88,0 0,-31.8 z"
         id="path252"
         inkscape:connector-curvature="0"
         style="clip-rule:evenodd" /></clipPath><clipPath
       clipPathUnits="userSpaceOnUse"
       id="clipPath262"><path
         d="m 76.2,281.88 140.88,0 0,31.8 -140.88,0 0,-31.8 z"
         id="path264"
         inkscape:connector-curvature="0"
         style="clip-rule:evenodd" /></clipPath><clipPath
       clipPathUnits="userSpaceOnUse"
       id="clipPath270"><path
         d="m 64.08,313.56 153,0 0,31.8 -153,0 0,-31.8 z"
         id="path272"
         inkscape:connector-curvature="0"
         style="clip-rule:evenodd" /></clipPath><clipPath
       clipPathUnits="userSpaceOnUse"
       id="clipPath282"><path
         d="m 64.08,313.56 153,0 0,31.8 -153,0 0,-31.8 z"
         id="path284"
         inkscape:connector-curvature="0"
         style="clip-rule:evenodd" /></clipPath><clipPath
       clipPathUnits="userSpaceOnUse"
       id="clipPath290"><path
         d="m 172.56,345.24 44.52,0 0,31.68 -44.52,0 0,-31.68 z"
         id="path292"
         inkscape:connector-curvature="0"
         style="clip-rule:evenodd" /></clipPath><clipPath
       clipPathUnits="userSpaceOnUse"
       id="clipPath302"><path
         d="m 172.56,345.24 44.52,0 0,31.68 -44.52,0 0,-31.68 z"
         id="path304"
         inkscape:connector-curvature="0"
         style="clip-rule:evenodd" /></clipPath><clipPath
       clipPathUnits="userSpaceOnUse"
       id="clipPath312"><path
         d="m 634.32,196.08 150.84,0 0,109.08 -150.84,0 0,-109.08 z"
         id="path314"
         inkscape:connector-curvature="0"
         style="clip-rule:evenodd" /></clipPath><clipPath
       clipPathUnits="userSpaceOnUse"
       id="clipPath324"><path
         d="m 634.32,196.08 150.84,0 0,109.08 -150.84,0 0,-109.08 z"
         id="path326"
         inkscape:connector-curvature="0"
         style="clip-rule:evenodd" /></clipPath></defs><sodipodi:namedview
     pagecolor="#ffffff"
     bordercolor="#666666"
     borderopacity="1"
     objecttolerance="10"
     gridtolerance="10"
     guidetolerance="10"
     inkscape:pageopacity="0"
     inkscape:pageshadow="2"
     inkscape:window-width="1920"
     inkscape:window-height="909"
     id="namedview4"
     showgrid="false"
     units="cm"
     fit-margin-top="0"
     fit-margin-right="1"
     fit-margin-bottom="0"
     fit-margin-left="1"
     inkscape:zoom="0.3172043"
     inkscape:cx="-472.76555"
     inkscape:cy="114.90051"
     inkscape:window-x="0"
     inkscape:window-y="25"
     inkscape:window-maximized="1"
     inkscape:current-layer="g10" /><g
     id="g10"
     inkscape:groupmode="layer"
     inkscape:label="perf-changes"
     transform="matrix(1.25,0,0,-1.25,-27.832485,499.51069)"><path
       d="m 51.12,195.96 739.8,0 0,203.16 -739.8,0 0,-203.16 z"
       style="fill:#ffffff;fill-opacity:1;fill-rule:evenodd;stroke:none"
       id="path12"
       inkscape:connector-curvature="0" /><path
       d="m 220.68,226.68 384.72,0 0,158.4 -384.72,0 0,-158.4 z"
       style="fill:#ffffff;fill-opacity:1;fill-rule:evenodd;stroke:none"
       id="path14"
       inkscape:connector-curvature="0" /><path
       d="m 220.68,248.88 115.44,0 0,-12.6 -115.44,0 0,12.6 z m 0,31.68 146.16,0 0,-12.6 -146.16,0 0,12.6 z m 0,31.68 73.44,0 0,-12.6 -73.44,0 0,12.6 z m 0,31.68 355.8,0 0,-12.72 -355.8,0 0,12.72 z m 0,31.68 361.56,0 0,-12.72 -361.56,0 0,12.72 z"
       style="fill:#4f81bd;fill-opacity:1;fill-rule:nonzero;stroke:none"
       id="path16"
       inkscape:connector-curvature="0" /><path
       d="m 220.74,226.74 384.6,0"
       style="fill:none;stroke:#868686;stroke-width:0.83999997;stroke-linecap:butt;stroke-linejoin:round;stroke-miterlimit:10;stroke-dasharray:none;stroke-opacity:1"
       id="path18"
       inkscape:connector-curvature="0" /><path
       d="m 220.74,226.74 0,-3.84 m 48,3.84 0,-3.84 m 48.12,3.84 0,-3.84 m 48.12,3.84 0,-3.84 m 48,3.84 0,-3.84 m 48.12,3.84 0,-3.84 m 48,3.84 0,-3.84 m 48.12,3.84 0,-3.84 m 48.12,3.84 0,-3.84"
       style="fill:none;stroke:#868686;stroke-width:0.83999997;stroke-linecap:butt;stroke-linejoin:round;stroke-miterlimit:10;stroke-dasharray:none;stroke-opacity:1"
       id="path20"
       inkscape:connector-curvature="0" /><path
       d="m 220.74,226.74 0,158.4"
       style="fill:none;stroke:#868686;stroke-width:0.83999997;stroke-linecap:butt;stroke-linejoin:round;stroke-miterlimit:10;stroke-dasharray:none;stroke-opacity:1"
       id="path22"
       inkscape:connector-curvature="0" /><path
       d="m 216.9,226.74 3.84,0 m -3.84,31.68 3.84,0 m -3.84,31.68 3.84,0 m -3.84,31.68 3.84,0 m -3.84,31.68 3.84,0 m -3.84,31.68 3.84,0"
       style="fill:none;stroke:#868686;stroke-width:0.83999997;stroke-linecap:butt;stroke-linejoin:round;stroke-miterlimit:10;stroke-dasharray:none;stroke-opacity:1"
       id="path24"
       inkscape:connector-curvature="0" /><g
       id="g26"><g
         id="g28"
         clip-path="url(#clipPath30)"><text
           transform="matrix(1,0,0,-1,217.25,207.02)"
           style="font-variant:normal;font-weight:normal;font-size:12.6960001px;font-family:Arial;-inkscape-font-specification:Arial;writing-mode:lr-tb;fill:#000000;fill-opacity:1;fill-rule:nonzero;stroke:none"
           id="text34"><tspan
             x="0"
             y="0"
             id="tspan36">0</tspan></text>
</g></g><g
       id="g38"><g
         id="g40"
         clip-path="url(#clipPath42)" /></g><g
       id="g46"><g
         id="g48"
         clip-path="url(#clipPath50)"><text
           transform="matrix(1,0,0,-1,265.32,207.02)"
           style="font-variant:normal;font-weight:normal;font-size:12.6960001px;font-family:Arial;-inkscape-font-specification:Arial;writing-mode:lr-tb;fill:#000000;fill-opacity:1;fill-rule:nonzero;stroke:none"
           id="text54"><tspan
             x="0"
             y="0"
             id="tspan56">2</tspan></text>
</g></g><g
       id="g58"><g
         id="g60"
         clip-path="url(#clipPath62)" /></g><g
       id="g66"><g
         id="g68"
         clip-path="url(#clipPath70)"><text
           transform="matrix(1,0,0,-1,313.39,207.02)"
           style="font-variant:normal;font-weight:normal;font-size:12.6960001px;font-family:Arial;-inkscape-font-specification:Arial;writing-mode:lr-tb;fill:#000000;fill-opacity:1;fill-rule:nonzero;stroke:none"
           id="text74"><tspan
             x="0"
             y="0"
             id="tspan76">4</tspan></text>
</g></g><g
       id="g78"><g
         id="g80"
         clip-path="url(#clipPath82)" /></g><g
       id="g86"><g
         id="g88"
         clip-path="url(#clipPath90)"><text
           transform="matrix(1,0,0,-1,361.49,207.02)"
           style="font-variant:normal;font-weight:normal;font-size:12.6960001px;font-family:Arial;-inkscape-font-specification:Arial;writing-mode:lr-tb;fill:#000000;fill-opacity:1;fill-rule:nonzero;stroke:none"
           id="text94"><tspan
             x="0"
             y="0"
             id="tspan96">6</tspan></text>
</g></g><g
       id="g98"><g
         id="g100"
         clip-path="url(#clipPath102)" /></g><g
       id="g106"><g
         id="g108"
         clip-path="url(#clipPath110)"><text
           transform="matrix(1,0,0,-1,409.56,207.02)"
           style="font-variant:normal;font-weight:normal;font-size:12.6960001px;font-family:Arial;-inkscape-font-specification:Arial;writing-mode:lr-tb;fill:#000000;fill-opacity:1;fill-rule:nonzero;stroke:none"
           id="text114"><tspan
             x="0"
             y="0"
             id="tspan116">8</tspan></text>
</g></g><g
       id="g118"><g
         id="g120"
         clip-path="url(#clipPath122)" /></g><g
       id="g126"><g
         id="g128"
         clip-path="url(#clipPath130)"><text
           transform="matrix(1,0,0,-1,454.13,207.02)"
           style="font-variant:normal;font-weight:normal;font-size:12.6960001px;font-family:Arial;-inkscape-font-specification:Arial;writing-mode:lr-tb;fill:#000000;fill-opacity:1;fill-rule:nonzero;stroke:none"
           id="text134"><tspan
             x="0 7.0559959"
             y="0"
             sodipodi:role="line"
             id="tspan136">10</tspan></text>
</g></g><g
       id="g138"><g
         id="g140"
         clip-path="url(#clipPath142)" /></g><g
       id="g146"><g
         id="g148"
         clip-path="url(#clipPath150)"><text
           transform="matrix(1,0,0,-1,502.2,207.02)"
           style="font-variant:normal;font-weight:normal;font-size:12.6960001px;font-family:Arial;-inkscape-font-specification:Arial;writing-mode:lr-tb;fill:#000000;fill-opacity:1;fill-rule:nonzero;stroke:none"
           id="text154"><tspan
             x="0 7.0319762"
             y="0"
             sodipodi:role="line"
             id="tspan156">12</tspan></text>
</g></g><g
       id="g158"><g
         id="g160"
         clip-path="url(#clipPath162)" /></g><g
       id="g166"><g
         id="g168"
         clip-path="url(#clipPath170)"><text
           transform="matrix(1,0,0,-1,550.27,207.02)"
           style="font-variant:normal;font-weight:normal;font-size:12.6960001px;font-family:Arial;-inkscape-font-specification:Arial;writing-mode:lr-tb;fill:#000000;fill-opacity:1;fill-rule:nonzero;stroke:none"
           id="text174"><tspan
             x="0 7.0559959"
             y="0"
             sodipodi:role="line"
             id="tspan176">14</tspan></text>
</g></g><g
       id="g178"><g
         id="g180"
         clip-path="url(#clipPath182)" /></g><g
       id="g186"><g
         id="g188"
         clip-path="url(#clipPath190)"><text
           transform="matrix(1,0,0,-1,598.37,207.02)"
           style="font-variant:normal;font-weight:normal;font-size:12.6960001px;font-family:Arial;-inkscape-font-specification:Arial;writing-mode:lr-tb;fill:#000000;fill-opacity:1;fill-rule:nonzero;stroke:none"
           id="text194"><tspan
             x="0 7.0559959"
             y="0"
             sodipodi:role="line"
             id="tspan196">16</tspan></text>
</g></g><g
       id="g198"><g
         id="g200"
         clip-path="url(#clipPath202)" /></g><g
       id="g206"><g
         id="g208"
         clip-path="url(#clipPath210)"><text
           transform="matrix(1,0,0,-1,59.688,238.27)"
           style="font-variant:normal;font-weight:normal;font-size:12.72000027px;font-family:Arial;-inkscape-font-specification:Arial;writing-mode:lr-tb;fill:#000000;fill-opacity:1;fill-rule:nonzero;stroke:none"
           id="text214"><tspan
             x="0 9.1838398 16.256161 23.32848 30.36264 37.434959 44.507278 48.157921 55.23024 58.8936 65.965919 69.502083 73.038239 82.056717 86.343361 89.1036 92.639763 99.712082 106.74624 113.02992 120.10224 124.36344 127.12368 134.196 141.26833 145.50407"
             y="0"
             sodipodi:role="line"
             id="tspan216">Change dfa::write_vari32()</tspan></text>
</g></g><g
       id="g218"><g
         id="g220"
         clip-path="url(#clipPath222)" /></g><g
       id="g226"><g
         id="g228"
         clip-path="url(#clipPath230)"><text
           transform="matrix(1,0,0,-1,62.472,269.95)"
           style="font-variant:normal;font-weight:normal;font-size:12.72000027px;font-family:Arial;-inkscape-font-specification:Arial;writing-mode:lr-tb;fill:#000000;fill-opacity:1;fill-rule:nonzero;stroke:none"
           id="text234"><tspan
             x="0 9.1838398 16.256161 23.252159 30.28632 37.32048 44.354641 48.018002 55.052158 61.475761 68.509918 75.544083 82.578239 89.612396 93.14856 96.684723 103.70616 110.12976 117.16392 124.19808 131.23224 138.2664 142.55304"
             y="0"
             sodipodi:role="line"
             id="tspan236">Change expand::expand()</tspan></text>
</g></g><g
       id="g238"><g
         id="g240"
         clip-path="url(#clipPath242)" /></g><g
       id="g246"><g
         id="g248"
         clip-path="url(#clipPath250)"><text
           transform="matrix(1,0,0,-1,83.544,301.63)"
           style="font-variant:normal;font-weight:normal;font-size:12.72000027px;font-family:Arial;-inkscape-font-specification:Arial;writing-mode:lr-tb;fill:#000000;fill-opacity:1;fill-rule:nonzero;stroke:none"
           id="text254"><tspan
             x="0 9.1838398 16.256161 23.32848 30.36264 37.434959 44.507278 48.132481 56.55312 60.83976 65.126404 72.198723 76.459923 79.996078 83.532242 89.930397 97.002724 104.07504 110.46048 117.5328 121.794"
             y="0"
             sodipodi:role="line"
             id="tspan256">Change Error::cause()</tspan></text>
</g></g><g
       id="g258"><g
         id="g260"
         clip-path="url(#clipPath262)" /></g><g
       id="g266"><g
         id="g268"
         clip-path="url(#clipPath270)"><text
           transform="matrix(1,0,0,-1,71.712,333.31)"
           style="font-variant:normal;font-weight:normal;font-size:12.6960001px;font-family:Arial;-inkscape-font-specification:Arial;writing-mode:lr-tb;fill:#000000;fill-opacity:1;fill-rule:nonzero;stroke:none"
           id="text274"><tspan
             x="0 9.1665115 16.225489 23.284464 30.343439 37.402416 44.461391 48.130535 57.297047 64.356026 75.236496 82.295471 85.050507 87.805534 94.86451 99.143066 102.67255 106.20204 113.26102 120.31999 129.35954 133.63809"
             y="0"
             sodipodi:role="line"
             id="tspan276">Change Compiler::new()</tspan></text>
</g></g><g
       id="g278"><g
         id="g280"
         clip-path="url(#clipPath282)" /></g><g
       id="g286"><g
         id="g288"
         clip-path="url(#clipPath290)"><text
           transform="matrix(1,0,0,-1,180.17,364.99)"
           style="font-variant:normal;font-weight:normal;font-size:12.6960001px;font-family:Arial;-inkscape-font-specification:Arial;writing-mode:lr-tb;fill:#000000;fill-opacity:1;fill-rule:nonzero;stroke:none"
           id="text294"><tspan
             x="0 3.5294881 10.53768 13.292712 16.822201 19.55184 26.610815"
             y="0"
             sodipodi:role="line"
             id="tspan296">Initial</tspan></text>
</g></g><g
       id="g298"><g
         id="g300"
         clip-path="url(#clipPath302)" /></g><path
       d="m 632.52,294.24 6.48,0 0,6.6 -6.48,0 0,-6.6 z"
       style="fill:#4f81bd;fill-opacity:1;fill-rule:evenodd;stroke:none"
       id="path306"
       inkscape:connector-curvature="0" /><g
       id="g308"><g
         id="g310"
         clip-path="url(#clipPath312)"><text
           transform="matrix(1,0,0,-1,641.78,293.09)"
           style="font-variant:normal;font-weight:normal;font-size:12.6960001px;font-family:Arial;-inkscape-font-specification:Arial;writing-mode:lr-tb;fill:#000000;fill-opacity:1;fill-rule:nonzero;stroke:none"
           id="text316"><tspan
             x="0 6.4241762 13.483152 24.31284 31.371817 34.076065 36.818401 43.877377 47.216423 50.745911 53.450161 64.305237 71.36422 74.842918 77.585258 84.644234 88.275291 94.699463 101.75844 108.14453 115.20351 122.21169 129.27068"
             y="0"
             sodipodi:role="line"
             id="tspan318">compile time in seconds</tspan></text>
</g></g><g
       id="g320"><g
         id="g322"
         clip-path="url(#clipPath324)" /></g><path
       d="m 51.091,196.07 739.66,0 0,203.06 -739.66,0 0,-203.06 z"
       style="fill:none;stroke:#868686;stroke-width:0.95710999;stroke-linecap:butt;stroke-linejoin:round;stroke-miterlimit:10;stroke-dasharray:none;stroke-opacity:1"
       id="path328"
       inkscape:connector-curvature="0" /></g></svg>